<?xml version="1.0" encoding="UTF-8" standalone="no"?>
<svg
   xmlns:dc="http://purl.org/dc/elements/1.1/"
   xmlns:cc="http://creativecommons.org/ns#"
   xmlns:rdf="http://www.w3.org/1999/02/22-rdf-syntax-ns#"
   xmlns:svg="http://www.w3.org/2000/svg"
   xmlns="http://www.w3.org/2000/svg"
   xmlns:xlink="http://www.w3.org/1999/xlink"
   xmlns:sodipodi="http://sodipodi.sourceforge.net/DTD/sodipodi-0.dtd"
   xmlns:inkscape="http://www.inkscape.org/namespaces/inkscape"
   width="512"
   height="512"
   viewBox="0 0 497 497"
   id="Capa_1"
   overflow="hidden"
   version="1.1"
   sodipodi:docname="banana-sushi.svg"
   inkscape:version="1.0.2 (e86c870879, 2021-01-15)">
  <metadata
     id="metadata984">
    <rdf:RDF>
      <cc:Work
         rdf:about="">
        <dc:format>image/svg+xml</dc:format>
        <dc:type
           rdf:resource="http://purl.org/dc/dcmitype/StillImage" />
        <dc:title></dc:title>
      </cc:Work>
    </rdf:RDF>
  </metadata>
  <defs
     id="defs982">
    <clipPath
       id="clip0">
      <rect
         x="87"
         y="109"
         width="502"
         height="502"
         id="rect1632" />
    </clipPath>
    <clipPath
       id="clip1">
      <rect
         x="154"
         y="180"
         width="331"
         height="331"
         id="rect1635" />
    </clipPath>
    <clipPath
       id="clip2">
      <rect
         x="154"
         y="180"
         width="331"
         height="331"
         id="rect1638" />
    </clipPath>
    <clipPath
       id="clip3">
      <rect
         x="154"
         y="180"
         width="331"
         height="331"
         id="rect1641" />
    </clipPath>
    <clipPath
       id="SVGID_2_">
      <use
         xlink:href="#SVGID_1_"
         style="overflow:visible"
         id="use879"
         x="0"
         y="0"
         width="100%"
         height="100%" />
    </clipPath>
    <linearGradient
       id="SVGID_3_"
       gradientUnits="userSpaceOnUse"
       x1="20.644199"
       y1="1011.5057"
       x2="24.3328"
       y2="998.83948"
       gradientTransform="matrix(1,0,0,-1,-12,1012)">
      <stop
         offset="0"
         style="stop-color:#03B8FF"
         id="stop882" />
      <stop
         offset="1"
         style="stop-color:#FA52A0"
         id="stop884" />
    </linearGradient>
    <linearGradient
       id="SVGID_4_"
       gradientUnits="userSpaceOnUse"
       x1="23.681801"
       y1="1012.3904"
       x2="27.370501"
       y2="999.72412"
       gradientTransform="matrix(1,0,0,-1,-12,1012)">
      <stop
         offset="0"
         style="stop-color:#03B8FF"
         id="stop889" />
      <stop
         offset="1"
         style="stop-color:#FA52A0"
         id="stop891" />
    </linearGradient>
    <linearGradient
       id="SVGID_5_"
       gradientUnits="userSpaceOnUse"
       x1="17.615999"
       y1="1010.6239"
       x2="21.304701"
       y2="997.95758"
       gradientTransform="matrix(1,0,0,-1,-12,1012)">
      <stop
         offset="0"
         style="stop-color:#03B8FF"
         id="stop896" />
      <stop
         offset="1"
         style="stop-color:#FA52A0"
         id="stop898" />
    </linearGradient>
    <rect
       id="rect928"
       width="24"
       height="24"
       x="0"
       y="0" />
    <clipPath
       id="SVGID_2_-0">
      <use
         xlink:href="#SVGID_1_"
         style="overflow:visible"
         id="use879-8"
         x="0"
         y="0"
         width="100%"
         height="100%" />
    </clipPath>
    <rect
       id="rect928-2"
       width="24"
       height="24"
       x="0"
       y="0" />
    <clipPath
       id="SVGID_2_-1">
      <use
         xlink:href="#SVGID_1_"
         style="overflow:visible"
         id="use879-7"
         x="0"
         y="0"
         width="100%"
         height="100%" />
    </clipPath>
    <rect
       id="rect928-8"
       width="24"
       height="24"
       x="0"
       y="0" />
    <rect
       id="SVGID_1_"
       width="24"
       height="24" />
    <clipPath
       id="clip0-8">
      <rect
         x="87"
         y="109"
         width="502"
         height="502"
         id="rect1632-9" />
    </clipPath>
    <clipPath
       id="clip1-4">
      <rect
         x="154"
         y="180"
         width="331"
         height="331"
         id="rect1635-5" />
    </clipPath>
    <clipPath
       id="clip2-5">
      <rect
         x="154"
         y="180"
         width="331"
         height="331"
         id="rect1638-3" />
    </clipPath>
    <clipPath
       id="clip3-8">
      <rect
         x="154"
         y="180"
         width="331"
         height="331"
         id="rect1641-8" />
    </clipPath>
  </defs>
  <sodipodi:namedview
     pagecolor="#ffffff"
     bordercolor="#666666"
     borderopacity="1"
     objecttolerance="10"
     gridtolerance="10"
     guidetolerance="10"
     inkscape:pageopacity="0"
     inkscape:pageshadow="2"
     inkscape:window-width="1920"
     inkscape:window-height="1001"
     id="namedview980"
     showgrid="false"
     inkscape:zoom="0.81054689"
     inkscape:cx="142.47729"
     inkscape:cy="180.7232"
     inkscape:window-x="2391"
     inkscape:window-y="170"
     inkscape:window-maximized="1"
     inkscape:current-layer="Capa_1"
     inkscape:document-rotation="0" />
  <g
     id="g977">
    <g
       id="g965">
      <path
         d="M130.036 232.669C113.048 240.59 95.322 244.983 77.68 246.151 59.392 247.361 55.293 272.261 72.287 279.126 96.704 288.989 124.99 289.086 150.744 277.077Z"
         fill="#FFB357"
         id="path935" />
      <path
         d="M419.32 246.151C401.678 244.983 383.951 240.59 366.964 232.669L346.256 277.077C372.01 289.086 400.295 288.989 424.713 279.126 441.707 272.262 437.609 247.362 419.32 246.151Z"
         fill="#FFCE71"
         id="path937" />
      <path
         d="M178.556 129.396C237.135 187.975 234.177 229.339 206.84 256.675 179.503 284.011 138.139 286.969 79.561 228.391 20.983 169.813-18.486 86.022 8.851 58.685 36.188 31.348 119.978 70.817 178.556 129.396Z"
         fill="#30CD9C"
         id="path939" />
      <path
         d="M319.777 129.396C261.198 187.975 264.156 229.339 291.493 256.675 318.83 284.011 360.194 286.969 418.772 228.391 464.517 182.645 497 121.526 497 83.921 497 73.416 495.471 64.674 489.482 58.685 462.146 31.348 378.355 70.817 319.777 129.396Z"
         fill="#30CD9C"
         id="path941" />
      <g
         fill="#18C08B"
         id="g947">
        <path
           d="M389.92 153.458C383.794 147.882 374.306 148.328 368.731 154.456L291.727 237.095 312.964 258.332 390.919 174.648C396.494 168.521 396.047 159.034 389.92 153.458Z"
           id="path943" />
        <path
           d="M107.08 153.458C100.953 159.034 100.506 168.52 106.082 174.647L184.037 258.331 205.274 237.094 128.27 154.455C122.694 148.328 113.206 147.882 107.08 153.458Z"
           id="path945" />
      </g>
      <path
         d="M318.5 170C318.5 252.843 287.16 280 248.5 280 209.84 280 178.5 252.843 178.5 170 178.5 87.157 209.84 0 248.5 0 287.16 0 318.5 87.157 318.5 170Z"
         fill="#70DCBA"
         id="path949" />
      <path
         d="M263.5 152.826C263.5 144.542 256.784 137.826 248.5 137.826 240.216 137.826 233.5 144.542 233.5 152.826L213.5 423.383 283.5 423.383C283.5 417.185 263.5 155.274 263.5 152.826Z"
         fill="#18C08B"
         id="path951" />
      <g
         id="g963">
        <g
           id="g957">
          <path
             d="M255.183 380.704 280.763 369.244C288.98 365.563 298.56 369.953 301.137 378.58L311.177 444.156 246.372 444.156 246.372 394.305C246.373 388.432 249.823 383.106 255.183 380.704Z"
             fill="#E8B5B1"
             id="path953" />
          <path
             d="M248.827 378.5 217.555 364.49C207.203 359.853 194.206 365.608 192.272 378.382L180.373 454.157 259.598 454.157 259.598 395.129C259.598 387.947 255.38 381.436 248.827 378.5Z"
             fill="#D6948C"
             id="path955" />
        </g>
        <path
           d="M258.196 424.739 292.523 409.36C303.55 404.42 316.406 410.311 319.863 421.888L333.336 497 246.372 497 246.372 442.991C246.373 435.109 251.002 427.962 258.196 424.739Z"
           fill="#D6948C"
           id="path959" />
        <path
           d="M254.598 465.733 254.598 459.156C254.598 449.358 248.843 440.474 239.901 436.468L207.231 420.351C193.524 414.21 177.544 421.533 173.245 435.925L156.498 497 267.549 497C259.256 488.708 254.598 477.46 254.598 465.733Z"
           fill="#CE857A"
           id="path961" />
      </g>
    </g>
    <g
       fill="#FCE3A0"
       id="g971">
      <path
         d="M196.422 260.398C202.146 242.881 179.932 229.564 167.179 242.866 154.712 255.87 139.672 266.827 122.363 274.898 105.054 282.969 86.993 287.447 69.017 288.639 50.629 289.858 46.552 315.435 63.65 322.31 88.504 332.303 117.272 332.378 143.47 320.161 169.667 307.946 188.101 285.861 196.422 260.398Z"
         id="path967" />
      <path
         d="M300.578 260.398C294.854 242.881 317.068 229.564 329.821 242.866 342.288 255.87 357.328 266.827 374.637 274.898 391.946 282.969 410.007 287.447 427.983 288.639 446.371 289.858 450.448 315.435 433.35 322.31 408.496 332.303 379.728 332.378 353.53 320.161 327.333 307.946 308.899 285.861 300.578 260.398Z"
         id="path969" />
    </g>
    <path
       d="M232.189 249.448C231.478 228.911 203.654 223.655 195.366 242.458 187.368 260.604 175.937 277.603 161.071 292.469 150.297 303.243 138.402 312.213 125.762 319.38 117.131 324.274 112.49 334.041 114.374 343.783 116.757 356.109 128.597 364.161 140.964 362.003 162.56 358.235 183.249 348.011 199.932 331.329 222.462 308.799 233.211 278.959 232.189 249.448Z"
       fill="#FFCE71"
       id="path973" />
    <path
       d="M264.811 249.448C265.522 228.911 293.346 223.655 301.634 242.458 309.632 260.604 321.063 277.603 335.929 292.469 346.703 303.243 358.598 312.213 371.238 319.38 379.869 324.274 384.51 334.041 382.626 343.783 380.243 356.109 368.403 364.161 356.036 362.003 334.44 358.235 313.751 348.011 297.068 331.329 274.538 308.799 263.789 278.959 264.811 249.448Z"
       fill="#FFB357"
       id="path975" />
  </g>
  <style
     type="text/css"
     id="style2209">
	.st0{clip-path:url(#SVGID_2_);}
	.st1{fill:url(#SVGID_3_);}
	.st2{fill:url(#SVGID_4_);}
	.st3{fill:url(#SVGID_5_);}
	.st4{fill:#0E0F23;}
	.st5{fill-rule:evenodd;clip-rule:evenodd;fill:#FFFFFF;}
	.st6{fill:#FFFFFF;}
</style>
  <g
     id="g2252"
     transform="matrix(8.7580189,0,0,9.5294299,265.45208,207.56584)">
    <defs
       id="defs2212">
      <rect
         id="rect2263"
         width="24"
         height="24"
         x="0"
         y="0" />
    </defs>
    <clipPath
       id="SVGID_2_-5">
      <use
         xlink:href="#SVGID_1_"
         style="overflow:visible"
         id="use2214"
         x="0"
         y="0"
         width="100%"
         height="100%" />
    </clipPath>
    <g
       class="st0"
       clip-path="url(#SVGID_2_)"
       id="g2250">
      <linearGradient
         id="linearGradient2270"
         gradientUnits="userSpaceOnUse"
         x1="20.644199"
         y1="1011.5057"
         x2="24.3328"
         y2="998.83948"
         gradientTransform="matrix(1,0,0,-1,-12,1012)">
        <stop
           offset="0"
           style="stop-color:#03B8FF"
           id="stop2217" />
        <stop
           offset="1"
           style="stop-color:#FA52A0"
           id="stop2219" />
      </linearGradient>
      <path
         class="st1"
         d="M 5,2.3 23.6,15 19,21.8 0.4,9 Z"
         id="path2222"
         style="fill:url(#SVGID_3_)" />
      <linearGradient
         id="linearGradient2275"
         gradientUnits="userSpaceOnUse"
         x1="23.681801"
         y1="1012.3904"
         x2="27.370501"
         y2="999.72412"
         gradientTransform="matrix(1,0,0,-1,-12,1012)">
        <stop
           offset="0"
           style="stop-color:#03B8FF"
           id="stop2224" />
        <stop
           offset="1"
           style="stop-color:#FA52A0"
           id="stop2226" />
      </linearGradient>
      <path
         class="st2"
         d="M 23.6,15 C 22,17.3 16.6,16.4 11.5,12.8 6.3,9.3 3.5,4.6 5,2.3 6.6,0 12,0.9 17.1,4.5 c 5.2,3.4 8,8.2 6.5,10.5 z"
         id="path2229"
         style="fill:url(#SVGID_4_)" />
      <linearGradient
         id="linearGradient2280"
         gradientUnits="userSpaceOnUse"
         x1="17.615999"
         y1="1010.6239"
         x2="21.304701"
         y2="997.95758"
         gradientTransform="matrix(1,0,0,-1,-12,1012)">
        <stop
           offset="0"
           style="stop-color:#03B8FF"
           id="stop2231" />
        <stop
           offset="1"
           style="stop-color:#FA52A0"
           id="stop2233" />
      </linearGradient>
      <path
         class="st3"
         d="M 19,21.7 C 17.4,24 12,23.1 6.9,19.5 1.8,15.9 -1.1,11.3 0.5,8.9 c 1.6,-2.3 7,-1.4 12.1,2.2 5.1,3.6 7.9,8.3 6.4,10.6 z"
         id="path2236"
         style="fill:url(#SVGID_5_)" />
      <path
         class="st4"
         d="m 23.6,15 c 0,0 0,0 0,0 L 19,21.8 v 0 C 17.4,24.1 12,23.1 6.9,19.6 5.9,18.9 5,18.2 4.1,17.4 c 0.7,-0.1 1.6,-0.5 2.5,-1.5 1.6,-1.7 2.4,-2.1 3.1,-2 0.7,0 1.5,0.7 2.8,2.4 1.3,1.7 3.1,2.2 4.2,1.3 0.1,-0.1 0.2,-0.1 0.3,-0.2 0.9,-0.7 1.2,-1 2.9,-4.2 0.4,-0.8 1.8,-2.1 3.7,-1.5 0.5,1.3 0.5,2.4 0,3.3 z"
         id="path2238" />
      <path
         class="st5"
         d="m 22.9,14.6 c -1.4,2 -6.3,1 -11,-2.3 C 7.1,9 4.3,4.8 5.7,2.8 c 1.4,-2 6.3,-1 11,2.3 4.7,3.3 7.5,7.5 6.2,9.5 z m -4.4,-3 c -0.7,1 -3.1,0.5 -5.5,-1.1 -2.3,-1.6 -3.7,-3.7 -3,-4.7 0.7,-1 3.1,-0.5 5.5,1.1 2.3,1.6 3.7,3.7 3,4.7 z"
         id="path2240" />
      <path
         class="st6"
         d="M 4.6,4.6 C 4.6,4.5 4.5,4.4 4.4,4.5 4.3,4.6 4.2,4.6 4.2,4.7 4.3,5 4.4,5.2 4.4,5.4 c 0,0.1 0.1,0.2 0.2,0.1 0.1,0 0.2,-0.1 0.1,-0.2 0,-0.2 0,-0.4 -0.1,-0.7 z"
         id="path2242" />
      <path
         class="st6"
         d="M 5.1,6.2 C 5.1,6.1 5,6 4.9,6.1 4.8,6.2 4.8,6.2 4.8,6.3 c 1.1,2.5 3.4,5.2 6.4,7.2 0.1,0.1 0.2,0 0.3,0 0.1,-0.1 0,-0.2 0,-0.3 -3.1,-2 -5.3,-4.6 -6.4,-7 z"
         id="path2244" />
      <path
         class="st6"
         d="m 17.2,16 c -0.1,0 -0.2,0 -0.2,0.1 0,0.1 0,0.2 0.1,0.2 0.3,0.1 0.7,0.2 1,0.3 0.1,0 0.2,0 0.2,-0.1 0,-0.1 0,-0.2 -0.1,-0.2 -0.3,-0.1 -0.7,-0.2 -1,-0.3 z"
         id="path2246" />
      <path
         class="st6"
         d="m 19,16.4 c -0.1,0 -0.2,0.1 -0.2,0.2 0,0.1 0.1,0.2 0.2,0.2 0.8,0.1 1.7,0.2 2.4,0.1 0.1,0 0.2,-0.1 0.2,-0.2 0,-0.1 -0.1,-0.2 -0.2,-0.2 -0.8,0.1 -1.6,0 -2.4,-0.1 z"
         id="path2248" />
    </g>
  </g>
  <g
     style="overflow:hidden"
     id="g1690"
     transform="matrix(0.41850674,0,0,0.41850674,22.878368,217.4375)">
    <g
       clip-path="url(#clip0-8)"
       transform="translate(-87,-109)"
       id="g1664">
      <path
         d="M 88,359.5 C 88,221.153 200.153,109 338.5,109 476.847,109 589,221.153 589,359.5 589,497.847 476.847,610 338.5,610 200.153,610 88,497.847 88,359.5 Z"
         fill="#faf4e6"
         fill-rule="evenodd"
         id="path1646" />
      <g
         clip-path="url(#clip1-4)"
         id="g1662">
        <g
           clip-path="url(#clip2-5)"
           id="g1660">
          <g
             clip-path="url(#clip3-8)"
             id="g1658">
            <path
               d="m 426.222,423.902 c -0.218,-0.108 -22.775,-12.058 -44.475,-40.151 -13.503,-17.481 -23.899,-37.553 -30.903,-59.661 -9.867,-32.162 -2.915,-78.547 -8.782,-103.996 -6.315,-27.392 -25.288,-32.678 -31.675,-32.956 -17.124,-0.746 -34.062,14.315 -37.654,45.108 -15.041,128.925 41.73,208.658 123.315,252.606 16.106,8.187 37.307,1.654 45.557,-15.385 8.331,-16.831 1.445,-37.231 -15.383,-45.565 z"
               fill="#ffecb3"
               id="path1648" />
            <path
               d="m 426.222,423.902 c -0.218,-0.108 -22.776,-12.058 -44.475,-40.151 -13.503,-17.481 -23.899,-37.553 -30.903,-59.661 -9.867,-32.162 -2.915,-78.547 -8.782,-103.996 -6.315,-27.392 -25.287,-32.678 -31.675,-32.956 -3.947,-0.172 -7.883,0.507 -11.65,2.014 8.185,3.338 18.9,11.659 23.346,30.942 5.867,25.449 -1.084,71.834 8.782,103.996 7.003,22.108 17.4,42.18 30.903,59.661 21.7,28.093 44.257,40.043 44.475,40.151 16.828,8.334 23.715,28.734 15.382,45.565 -4.254,8.787 -11.956,14.77 -20.625,17.391 15.254,4.767 33.178,-2.051 40.605,-17.391 8.331,-16.831 1.445,-37.231 -15.383,-45.565 z"
               fill="#ffe082"
               id="path1650" />
            <path
               d="m 326.782,358.739 c 0,0 -38.228,-49.356 -89.861,-51.471 -51.632,-2.116 -50.177,78.277 -67.155,87.079 -16.979,8.803 -15.746,17.343 -15.746,17.343 0,0 0.85,7.79 14.717,2.754 13.866,-5.036 16.323,-8.821 21.626,-15.367 5.304,-6.547 16.99,-74.047 46.265,-72.172 29.276,1.874 36.173,64.115 68.997,101.181 32.823,37.067 70.12,65.794 109.914,63.107 35.491,-2.397 48.133,7.996 56.414,12.34 1.523,0.799 3.403,0.208 4.19,-1.322 l 8.513,-16.551 c 0.823,-1.6 0.117,-3.561 -1.541,-4.259 -7.033,-2.963 -24.172,-11.433 -32.024,-26.312 -10.014,-18.974 -0.989,-14.359 -32.361,-40.648 -31.373,-26.289 -48.256,-66.016 -47.443,-81.219 0.814,-15.203 -2.001,-49.387 26.463,-48.787 28.465,0.6 33.495,49.28 48.047,65.409 12.903,14.301 20.595,1.437 20.595,1.437 0,0 2.614,-8.672 -10.223,-18.449 -8.972,-6.833 -18.313,-67.877 -57.661,-66.899 -39.349,0.978 -73.519,32.56 -71.726,92.806 z"
               fill="#ffd54f"
               id="path1652" />
            <path
               d="m 483.115,481.4 c -7.033,-2.963 -24.172,-11.432 -32.024,-26.311 -10.014,-18.974 -0.989,-14.359 -32.361,-40.649 -31.373,-26.289 -48.256,-66.016 -47.443,-81.219 0.814,-15.202 -2.001,-49.387 26.463,-48.787 28.465,0.6 33.495,49.281 48.048,65.41 12.902,14.3 20.595,1.437 20.595,1.437 0,0 2.614,-8.673 -10.224,-18.45 -8.972,-6.833 -18.313,-67.876 -57.661,-66.898 -32.989,0.82 -62.334,23.157 -69.902,65.857 -1.135,16.185 -1.824,26.95 -1.824,26.95 0,0 7.885,61.274 61.353,86.001 53.469,24.726 36.228,32.917 64.472,49.668 0.005,0.003 0.009,0.005 0.013,0.007 9.428,2.89 14.984,6.836 19.333,9.117 1.523,0.799 3.403,0.208 4.19,-1.322 l 8.513,-16.551 c 0.822,-1.6 0.117,-3.562 -1.541,-4.26 z"
               fill="#ffca28"
               id="path1654" />
            <path
               d="m 483.115,481.4 c -7.033,-2.963 -24.173,-11.432 -32.025,-26.311 -10.014,-18.974 -0.989,-14.359 -32.361,-40.649 -31.373,-26.289 -48.256,-66.016 -47.443,-81.219 0.688,-12.863 -1.219,-39.316 15.423,-46.788 -19.836,6.672 -35.403,21.53 -35.403,46.788 0,24.677 16.071,54.93 47.443,81.219 31.372,26.29 21.35,22.234 32.361,40.649 14.288,23.893 37.246,22.605 39.076,47.473 0.613,0.347 1.2,0.674 1.767,0.97 1.523,0.8 3.403,0.209 4.19,-1.322 l 8.513,-16.551 c 0.822,-1.599 0.117,-3.561 -1.541,-4.259 z"
               fill="#ffb300"
               id="path1656" />
          </g>
        </g>
      </g>
    </g>
  </g>
</svg>
