<svg version="1.2" baseProfile="tiny-ps" xmlns="http://www.w3.org/2000/svg" viewBox="0 0 497 497" width="497" height="497">
	<title>bMXX-bnb</title>
	<style>
		tspan { white-space:pre }
		.shp0 { fill: #ffb357 } 
		.shp1 { fill: #ffce71 } 
		.shp2 { fill: #30cd9c } 
		.shp3 { fill: #18c08b } 
		.shp4 { fill: #70dcba } 
		.shp5 { fill: #e8b5b1 } 
		.shp6 { fill: #d6948c } 
		.shp7 { fill: #ce857a } 
		.shp8 { fill: #fce3a0 } 
		.shp9 { fill: #f3ba2f } 
		.shp10 { fill: #ffffff } 
		.shp11 { fill: #000000 } 
		.shp12 { fill: #fed700 } 
	</style>
	<g id="g977">
		<g id="g965">
			<path id="path935" class="shp0" d="M130.04 232.67C113.05 240.59 95.32 244.98 77.68 246.15C59.39 247.36 55.29 272.26 72.29 279.13C96.7 288.99 124.99 289.09 150.74 277.08L130.04 232.67Z" />
			<path id="path937" class="shp1" d="M419.32 246.15C401.68 244.98 383.95 240.59 366.96 232.67L346.26 277.08C372.01 289.09 400.3 288.99 424.71 279.13C441.71 272.26 437.61 247.36 419.32 246.15Z" />
			<path id="path939" class="shp2" d="M178.56 129.4C237.13 187.97 234.18 229.34 206.84 256.68C179.5 284.01 138.14 286.97 79.56 228.39C20.98 169.81 -18.49 86.02 8.85 58.69C36.19 31.35 119.98 70.82 178.56 129.4Z" />
			<path id="path941" class="shp2" d="M319.78 129.4C261.2 187.97 264.16 229.34 291.49 256.68C318.83 284.01 360.19 286.97 418.77 228.39C464.52 182.65 497 121.53 497 83.92C497 73.42 495.47 64.67 489.48 58.69C462.15 31.35 378.36 70.82 319.78 129.4Z" />
			<g id="g947">
				<path id="path943" class="shp3" d="M389.92 153.46C383.79 147.88 374.31 148.33 368.73 154.46L291.73 237.09L312.96 258.33L390.92 174.65C396.49 168.52 396.05 159.03 389.92 153.46Z" />
				<path id="path945" class="shp3" d="M107.08 153.46C100.95 159.03 100.51 168.52 106.08 174.65L184.04 258.33L205.27 237.09L128.27 154.46C122.69 148.33 113.21 147.88 107.08 153.46Z" />
			</g>
			<path id="path949" class="shp4" d="M318.5 170C318.5 252.84 287.16 280 248.5 280C209.84 280 178.5 252.84 178.5 170C178.5 87.16 209.84 0 248.5 0C287.16 0 318.5 87.16 318.5 170Z" />
			<path id="path951" class="shp3" d="M263.5 152.83C263.5 144.54 256.78 137.83 248.5 137.83C240.22 137.83 233.5 144.54 233.5 152.83L213.5 423.38L283.5 423.38C283.5 417.19 263.5 155.27 263.5 152.83Z" />
			<g id="g963">
				<g id="g957">
					<path id="path953" class="shp5" d="M255.18 380.7L280.76 369.24C288.98 365.56 298.56 369.95 301.14 378.58L311.18 444.16L246.37 444.16L246.37 394.31C246.37 388.43 249.82 383.11 255.18 380.7Z" />
					<path id="path955" class="shp6" d="M248.83 378.5L217.56 364.49C207.2 359.85 194.21 365.61 192.27 378.38L180.37 454.16L259.6 454.16L259.6 395.13C259.6 387.95 255.38 381.44 248.83 378.5Z" />
				</g>
				<path id="path959" class="shp6" d="M258.2 424.74L292.52 409.36C303.55 404.42 316.41 410.31 319.86 421.89L333.34 497L246.37 497L246.37 442.99C246.37 435.11 251 427.96 258.2 424.74Z" />
				<path id="path961" class="shp7" d="M254.6 465.73L254.6 459.16C254.6 449.36 248.84 440.47 239.9 436.47L207.23 420.35C193.52 414.21 177.54 421.53 173.25 435.93L156.5 497L267.55 497C259.26 488.71 254.6 477.46 254.6 465.73Z" />
			</g>
		</g>
		<g id="g971">
			<path id="path967" class="shp8" d="M196.42 260.4C202.15 242.88 179.93 229.56 167.18 242.87C154.71 255.87 139.67 266.83 122.36 274.9C105.05 282.97 86.99 287.45 69.02 288.64C50.63 289.86 46.55 315.44 63.65 322.31C88.5 332.3 117.27 332.38 143.47 320.16C169.67 307.95 188.1 285.86 196.42 260.4Z" />
			<path id="path969" class="shp8" d="M300.58 260.4C294.85 242.88 317.07 229.56 329.82 242.87C342.29 255.87 357.33 266.83 374.64 274.9C391.95 282.97 410.01 287.45 427.98 288.64C446.37 289.86 450.45 315.44 433.35 322.31C408.5 332.3 379.73 332.38 353.53 320.16C327.33 307.95 308.9 285.86 300.58 260.4Z" />
		</g>
		<path id="path973" class="shp1" d="M232.19 249.45C231.48 228.91 203.65 223.66 195.37 242.46C187.37 260.6 175.94 277.6 161.07 292.47C150.3 303.24 138.4 312.21 125.76 319.38C117.13 324.27 112.49 334.04 114.37 343.78C116.76 356.11 128.6 364.16 140.96 362C162.56 358.24 183.25 348.01 199.93 331.33C222.46 308.8 233.21 278.96 232.19 249.45Z" />
		<path id="path975" class="shp0" d="M264.81 249.45C265.52 228.91 293.35 223.66 301.63 242.46C309.63 260.6 321.06 277.6 335.93 292.47C346.7 303.24 358.6 312.21 371.24 319.38C379.87 324.27 384.51 334.04 382.63 343.78C380.24 356.11 368.4 364.16 356.04 362C334.44 358.24 313.75 348.01 297.07 331.33C274.54 308.8 263.79 278.96 264.81 249.45Z" />
	</g>
	<g id="g1744">
		<path id="circle1740" class="shp9" d="M370.81 427.11C312.83 427.11 265.97 380.25 265.97 322.27C265.97 264.3 312.83 217.44 370.81 217.44C428.78 217.44 475.64 264.3 475.64 322.27C475.64 380.25 428.78 427.11 370.81 427.11Z" />
		<path id="path1742" fill-rule="evenodd" class="shp10" d="M330.55 297.01L370.81 256.75L411.08 297.02L396.27 311.83L370.81 286.37L345.36 311.82L330.55 297.01ZM305.29 322.27L320.09 307.47L334.9 322.27L320.09 337.08L305.29 322.27ZM345.36 332.73L370.81 358.18L396.27 332.72L411.08 347.52L370.81 387.8L330.53 347.52L345.36 332.73ZM406.71 322.27L421.52 307.47L436.33 322.27L421.52 337.08L406.71 322.27ZM385.83 322.26L385.84 322.26L385.84 322.27L370.81 337.3L355.8 322.3L355.77 322.27L355.8 322.25L358.42 319.62L359.7 318.34L370.81 307.24L385.83 322.26Z" />
	</g>
	<g id="Folder 1">
		<g id="Group_6480_11_">
			<path id="Ellipse_355_11_" class="shp11" d="M124.5 427C66.16 427 19 379.84 19 321.5C19 263.16 66.16 216 124.5 216C182.84 216 230 263.16 230 321.5C230 379.84 182.84 427 124.5 427Z" />
		</g>
		<g id="Group_6482_10_">
			<g id="Group_6481_10_">
				<path id="Path_6632_10_" class="shp12" d="M110.13 301.69C109.9 301.94 109.73 302.13 109.56 302.31L93.31 318.57C91.68 319.72 91.29 321.96 92.44 323.59C92.68 323.93 92.97 324.22 93.31 324.46C98.7 329.87 104.1 335.27 109.5 340.65C110.08 341.22 110.02 341.53 109.5 342.06C106.6 344.92 103.73 347.79 100.87 350.69C100.38 351.18 100.06 351.24 99.53 350.69C94.08 345.21 88.63 339.74 83.16 334.29C82.17 333.02 80.43 332.59 78.97 333.27C78.42 333.54 77.92 333.91 77.49 334.35C72.04 339.77 66.61 345.21 61.18 350.67C60.66 351.19 60.36 351.22 59.84 350.69C56.96 347.77 54.07 344.88 51.15 342C50.62 341.48 50.66 341.17 51.15 340.65C56.61 335.23 62.03 329.78 67.48 324.35C68.77 323.37 69.22 321.65 68.57 320.17C68.28 319.57 67.87 319.03 67.39 318.57C62 313.16 56.6 307.76 51.19 302.38C50.6 301.78 50.65 301.46 51.19 300.91C54.07 298.07 56.93 295.22 59.76 292.34C60.29 291.8 60.61 291.77 61.17 292.34C66.59 297.8 72.02 303.25 77.47 308.68C78.45 309.95 80.18 310.4 81.66 309.75C82.25 309.44 82.79 309.04 83.25 308.55C88.66 303.16 94.06 297.77 99.44 292.36C99.99 291.8 100.31 291.8 100.86 292.36C103.71 295.26 106.6 298.12 109.47 301C109.73 301.19 109.9 301.42 110.13 301.69Z" />
				<path id="Path_6633_10_" class="shp12" d="M198.24 301.69C198.01 301.94 197.84 302.13 197.66 302.31L181.42 318.57C179.79 319.72 179.4 321.96 180.55 323.59C180.79 323.93 181.08 324.22 181.42 324.46C186.81 329.87 192.21 335.27 197.61 340.65C198.18 341.22 198.13 341.53 197.61 342.06C194.72 344.92 191.84 347.79 188.98 350.69C188.49 351.18 188.18 351.24 187.64 350.69C182.2 345.21 176.74 339.74 171.27 334.29C170.28 333.02 168.54 332.59 167.08 333.27C166.53 333.54 166.03 333.91 165.6 334.35C160.15 339.77 154.72 345.21 149.29 350.67C148.78 351.19 148.47 351.22 147.95 350.69C145.07 347.77 142.18 344.88 139.26 342C138.73 341.48 138.77 341.17 139.26 340.65C144.72 335.23 150.16 329.79 155.59 324.35C156.87 323.37 157.32 321.65 156.68 320.17C156.38 319.57 155.98 319.03 155.49 318.57C150.11 313.16 144.71 307.76 139.3 302.38C138.7 301.78 138.75 301.46 139.3 300.91C142.18 298.07 145.03 295.22 147.87 292.34C148.4 291.8 148.72 291.77 149.28 292.34C154.69 297.8 160.13 303.25 165.58 308.68C166.56 309.95 168.29 310.39 169.76 309.75C170.36 309.44 170.9 309.04 171.36 308.55C176.77 303.16 182.16 297.77 187.55 292.36C188.1 291.8 188.42 291.8 188.96 292.36C191.82 295.26 194.71 298.12 197.58 301C197.83 301.19 198.01 301.42 198.24 301.69Z" />
			</g>
		</g>
	</g>
</svg>