<svg version="1.2" baseProfile="tiny-ps" xmlns="http://www.w3.org/2000/svg" viewBox="0 0 497 497" width="497" height="497">
	<title>moonlight-bnb</title>
	<defs>
		<clipPath clipPathUnits="userSpaceOnUse" id="cp1">
			<path d="M20 217L230.32 217L230.32 427.32L20 427.32L20 217Z" />
		</clipPath>
		<clipPath clipPathUnits="userSpaceOnUse" id="cp2">
			<path d="M105.56 238.82C97.17 241.46 88.96 244.5 81.45 249.21C48.9 269.62 33.68 309.05 44.47 345.11C55.55 382.11 89.96 407.17 128.45 406.27C166.01 405.39 198.07 379.28 208.65 340.97C209.19 339.16 210.32 337.14 207.13 336.62C205.78 338.41 204.57 340.35 203.05 342C176.04 371.3 130.44 372.46 102.68 344.59C74.8 316.59 76.2 271.42 105.78 244.38C107.15 242.65 110.41 241.89 109.46 239.03C109.23 238.32 108.63 238.03 107.92 238.03C107.16 238.03 106.28 238.36 105.56 238.82Z" />
		</clipPath>
		<linearGradient id="grd1" gradientUnits="userSpaceOnUse"  x1="39.746" y1="322.29" x2="208.041" y2="322.664">
			<stop offset="0" stop-color="#f1ba3d"  />
			<stop offset="1" stop-color="#ea227a"  />
		</linearGradient>
		<clipPath clipPathUnits="userSpaceOnUse" id="cp3">
			<path d="M20 217L230.32 217L230.32 427.32L20 427.32L20 217Z" />
		</clipPath>
		<clipPath clipPathUnits="userSpaceOnUse" id="cp4">
			<path d="M20 217L230.32 217L230.32 427.32L20 427.32L20 217Z" />
		</clipPath>
		<clipPath clipPathUnits="userSpaceOnUse" id="cp5">
			<path d="M20 217L230.32 217L230.32 427.32L20 427.32L20 217Z" />
		</clipPath>
		<clipPath clipPathUnits="userSpaceOnUse" id="cp6">
			<path d="M20 217L230.32 217L230.32 427.32L20 427.32L20 217Z" />
		</clipPath>
		<clipPath clipPathUnits="userSpaceOnUse" id="cp7">
			<path d="M20 217L230.32 217L230.32 427.32L20 427.32L20 217Z" />
		</clipPath>
		<clipPath clipPathUnits="userSpaceOnUse" id="cp8">
			<path d="M20 217L230.32 217L230.32 427.32L20 427.32L20 217Z" />
		</clipPath>
	</defs>
	<style>
		tspan { white-space:pre }
		.shp0 { fill: #ffb357 } 
		.shp1 { fill: #ffce71 } 
		.shp2 { fill: #30cd9c } 
		.shp3 { fill: #18c08b } 
		.shp4 { fill: #70dcba } 
		.shp5 { fill: #e8b5b1 } 
		.shp6 { fill: #d6948c } 
		.shp7 { fill: #ce857a } 
		.shp8 { fill: #fce3a0 } 
		.shp9 { fill: #001137 } 
		.shp10 { fill: url(#grd1) } 
		.shp11 { fill: #ffffff } 
		.shp12 { fill: #8de1ff } 
		.shp13 { fill: #f3ba2f } 
	</style>
	<g id="g977">
		<g id="g965">
			<path id="path935" class="shp0" d="M130.04 232.67C113.05 240.59 95.32 244.98 77.68 246.15C59.39 247.36 55.29 272.26 72.29 279.13C96.7 288.99 124.99 289.09 150.74 277.08L130.04 232.67Z" />
			<path id="path937" class="shp1" d="M419.32 246.15C401.68 244.98 383.95 240.59 366.96 232.67L346.26 277.08C372.01 289.09 400.3 288.99 424.71 279.13C441.71 272.26 437.61 247.36 419.32 246.15Z" />
			<path id="path939" class="shp2" d="M178.56 129.4C237.13 187.97 234.18 229.34 206.84 256.68C179.5 284.01 138.14 286.97 79.56 228.39C20.98 169.81 -18.49 86.02 8.85 58.69C36.19 31.35 119.98 70.82 178.56 129.4Z" />
			<path id="path941" class="shp2" d="M319.78 129.4C261.2 187.97 264.16 229.34 291.49 256.68C318.83 284.01 360.19 286.97 418.77 228.39C464.52 182.65 497 121.53 497 83.92C497 73.42 495.47 64.67 489.48 58.69C462.15 31.35 378.36 70.82 319.78 129.4Z" />
			<g id="g947">
				<path id="path943" class="shp3" d="M389.92 153.46C383.79 147.88 374.31 148.33 368.73 154.46L291.73 237.09L312.96 258.33L390.92 174.65C396.49 168.52 396.05 159.03 389.92 153.46Z" />
				<path id="path945" class="shp3" d="M107.08 153.46C100.95 159.03 100.51 168.52 106.08 174.65L184.04 258.33L205.27 237.09L128.27 154.46C122.69 148.33 113.21 147.88 107.08 153.46Z" />
			</g>
			<path id="path949" class="shp4" d="M318.5 170C318.5 252.84 287.16 280 248.5 280C209.84 280 178.5 252.84 178.5 170C178.5 87.16 209.84 0 248.5 0C287.16 0 318.5 87.16 318.5 170Z" />
			<path id="path951" class="shp3" d="M263.5 152.83C263.5 144.54 256.78 137.83 248.5 137.83C240.22 137.83 233.5 144.54 233.5 152.83L213.5 423.38L283.5 423.38C283.5 417.19 263.5 155.27 263.5 152.83Z" />
			<g id="g963">
				<g id="g957">
					<path id="path953" class="shp5" d="M255.18 380.7L280.76 369.24C288.98 365.56 298.56 369.95 301.14 378.58L311.18 444.16L246.37 444.16L246.37 394.31C246.37 388.43 249.82 383.11 255.18 380.7Z" />
					<path id="path955" class="shp6" d="M248.83 378.5L217.56 364.49C207.2 359.85 194.21 365.61 192.27 378.38L180.37 454.16L259.6 454.16L259.6 395.13C259.6 387.95 255.38 381.44 248.83 378.5Z" />
				</g>
				<path id="path959" class="shp6" d="M258.2 424.74L292.52 409.36C303.55 404.42 316.41 410.31 319.86 421.89L333.34 497L246.37 497L246.37 442.99C246.37 435.11 251 427.96 258.2 424.74Z" />
				<path id="path961" class="shp7" d="M254.6 465.73L254.6 459.16C254.6 449.36 248.84 440.47 239.9 436.47L207.23 420.35C193.52 414.21 177.54 421.53 173.25 435.93L156.5 497L267.55 497C259.26 488.71 254.6 477.46 254.6 465.73Z" />
			</g>
		</g>
		<g id="g971">
			<path id="path967" class="shp8" d="M196.42 260.4C202.15 242.88 179.93 229.56 167.18 242.87C154.71 255.87 139.67 266.83 122.36 274.9C105.05 282.97 86.99 287.45 69.02 288.64C50.63 289.86 46.55 315.44 63.65 322.31C88.5 332.3 117.27 332.38 143.47 320.16C169.67 307.95 188.1 285.86 196.42 260.4Z" />
			<path id="path969" class="shp8" d="M300.58 260.4C294.85 242.88 317.07 229.56 329.82 242.87C342.29 255.87 357.33 266.83 374.64 274.9C391.95 282.97 410.01 287.45 427.98 288.64C446.37 289.86 450.45 315.44 433.35 322.31C408.5 332.3 379.73 332.38 353.53 320.16C327.33 307.95 308.9 285.86 300.58 260.4Z" />
		</g>
		<path id="path973" class="shp1" d="M232.19 249.45C231.48 228.91 203.65 223.66 195.37 242.46C187.37 260.6 175.94 277.6 161.07 292.47C150.3 303.24 138.4 312.21 125.76 319.38C117.13 324.27 112.49 334.04 114.37 343.78C116.76 356.11 128.6 364.16 140.96 362C162.56 358.24 183.25 348.01 199.93 331.33C222.46 308.8 233.21 278.96 232.19 249.45Z" />
		<path id="path975" class="shp0" d="M264.81 249.45C265.52 228.91 293.35 223.66 301.63 242.46C309.63 260.6 321.06 277.6 335.93 292.47C346.7 303.24 358.6 312.21 371.24 319.38C379.87 324.27 384.51 334.04 382.63 343.78C380.24 356.11 368.4 364.16 356.04 362C334.44 358.24 313.75 348.01 297.07 331.33C274.54 308.8 263.79 278.96 264.81 249.45Z" />
	</g>
	<g id="Folder 1">
		<g id="Layer">
			<g id="Clip-Path" clip-path="url(#cp1)">
				<path id="Layer" class="shp9" d="M230.32 322.16C230.32 380.24 183.24 427.32 125.16 427.32C67.08 427.32 20 380.24 20 322.16C20 264.08 67.08 217 125.16 217C183.24 217 230.32 264.08 230.32 322.16Z" />
			</g>
		</g>
		<g id="Layer">
			<g id="Clip-Path" clip-path="url(#cp2)">
				<path id="Layer" class="shp10" d="M33.68 237.64L210.69 238.03L210.32 407.56L33.3 407.16L33.68 237.64Z" />
			</g>
		</g>
		<g id="Layer">
			<g id="Clip-Path" clip-path="url(#cp3)">
				<path id="Layer" class="shp11" d="M203.78 264.71C202.36 264.45 200.99 264.1 199.7 263.67C190.24 260.47 184.9 252.74 183.15 242.78C182.99 241.84 181.63 241.84 181.46 242.78C179.4 254.34 172.58 262.51 160.84 264.68C159.91 264.85 159.91 266.2 160.84 266.37C172.47 268.54 179.39 276.71 181.41 288.18C181.54 288.9 182.3 288.91 182.26 288.89C182.68 288.89 183.03 288.59 183.11 288.18C184.15 282.27 187.07 274.23 195.07 269.55C197.62 268.05 200.55 267 203.78 266.41C204.19 266.33 204.49 265.98 204.49 265.56C204.49 265.14 204.19 264.79 203.78 264.71Z" />
			</g>
			<g id="Clip-Path" clip-path="url(#cp4)">
				<path id="Layer" class="shp12" d="M169.83 261.34C167.08 263.02 164.02 264.09 160.84 264.68C159.91 264.85 159.91 266.2 160.84 266.37C172.47 268.54 179.39 276.71 181.41 288.18C181.54 288.9 182.3 288.91 182.26 288.89C182.68 288.89 183.03 288.59 183.11 288.18C183.68 284.91 184.84 280.98 187.11 277.34C184.05 268.78 178.18 263.44 169.83 261.34Z" />
			</g>
			<g id="Clip-Path" clip-path="url(#cp5)">
				<path id="Layer" class="shp11" d="M165.97 286.99C162.62 285.87 160.41 283.38 159.34 279.93C159.14 279.31 158.49 279.32 158.52 279.32C158.14 279.32 157.81 279.57 157.69 279.93C156.65 283.26 154.46 285.8 151.05 286.97C150.27 287.23 150.27 288.33 151.05 288.6C154.43 289.76 156.63 292.29 157.68 295.66C157.87 296.28 158.52 296.27 158.5 296.26C158.88 296.26 159.21 296.01 159.32 295.65C160.1 293.14 161.48 291.19 163.41 289.87L163.41 289.87C165.52 288.43 166.56 288.85 166.56 287.8C166.56 287.43 166.32 287.11 165.97 286.99Z" />
			</g>
			<g id="Clip-Path" clip-path="url(#cp6)">
				<path id="Layer" class="shp12" d="M154.48 285.11C154.46 285.1 154.43 285.09 154.41 285.08C153.42 285.93 152.28 286.55 151.05 286.97C150.27 287.23 150.27 288.33 151.05 288.6C154.43 289.76 156.63 292.29 157.68 295.66C157.87 296.28 158.52 296.27 158.5 296.26C159.71 296.26 159.07 294.81 161.09 292.1C160.02 288.73 157.81 286.25 154.48 285.11Z" />
			</g>
			<g id="Clip-Path" clip-path="url(#cp7)">
				<path id="Layer" class="shp11" d="M154.5 247.73C151.14 246.61 148.94 244.11 147.87 240.67C147.68 240.05 147.02 240.06 147.05 240.07C146.67 240.07 146.34 240.31 146.23 240.67C145.18 243.99 143 246.54 139.58 247.71C138.81 247.98 138.8 249.07 139.58 249.34C142.97 250.51 145.16 253.04 146.21 256.4C146.4 257.02 147.05 257.01 147.03 257C147.41 257 147.74 256.76 147.85 256.4C149.15 252.23 151.74 250.81 151.94 250.62C154.05 249.18 155.09 249.59 155.09 248.55C155.09 248.18 154.85 247.85 154.5 247.73Z" />
			</g>
			<g id="Clip-Path" clip-path="url(#cp8)">
				<path id="Layer" class="shp12" d="M142.68 246.04C140.31 247.93 139 247.4 139 248.52C139 248.89 139.23 249.22 139.58 249.34C142.97 250.51 145.16 253.04 146.21 256.4C146.4 257.02 147.05 257.01 147.03 257C148.18 257 147.63 255.66 149.46 253.07C147.59 247.26 143.1 246.31 142.68 246.04Z" />
			</g>
		</g>
	</g>
	<g id="g1744">
		<path id="circle1740" class="shp13" d="M370.81 427.11C312.83 427.11 265.97 380.25 265.97 322.27C265.97 264.3 312.83 217.44 370.81 217.44C428.78 217.44 475.64 264.3 475.64 322.27C475.64 380.25 428.78 427.11 370.81 427.11Z" />
		<path id="path1742" fill-rule="evenodd" class="shp11" d="M330.55 297.01L370.81 256.75L411.08 297.02L396.27 311.83L370.81 286.37L345.36 311.82L330.55 297.01ZM305.29 322.27L320.09 307.47L334.9 322.27L320.09 337.08L305.29 322.27ZM345.36 332.73L370.81 358.18L396.27 332.72L411.08 347.52L370.81 387.8L330.53 347.52L345.36 332.73ZM406.71 322.27L421.52 307.47L436.33 322.27L421.52 337.08L406.71 322.27ZM385.83 322.26L385.84 322.26L385.84 322.27L370.81 337.3L355.8 322.3L355.77 322.27L355.8 322.25L358.42 319.62L359.7 318.34L370.81 307.24L385.83 322.26Z" />
	</g>
</svg>