<svg width="1380" height="300" viewBox="0 0 1380 300" fill="none" xmlns="http://www.w3.org/2000/svg">
<g clip-path="url(#clip0_3697:8210)">
<rect width="1380" height="300" fill="#B3B3B3"/>
<g clip-path="url(#clip1_3697:8210)">
<g clip-path="url(#clip2_3697:8210)">
<path fill-rule="evenodd" clip-rule="evenodd" d="M188.248 413.51L406.478 -30H-273.371V413.51H188.248Z" fill="#59182C"/>
<path fill-rule="evenodd" clip-rule="evenodd" d="M-222.201 413.51H738.487L839.417 362.97L846.716 313.01L1248.4 72.63L1309.53 -5.59L1344.16 -30H-198.681L-205.871 88.5L-197.291 113.44L-222.201 413.51Z" fill="#59182C"/>
<path d="M237.588 -30L321.148 201.33L405.048 339.07L345.518 -30H237.588Z" fill="#A43E38"/>
<path d="M20.0986 -30L176.558 129.5L237.248 37.17L224.218 -30H20.0986Z" fill="#A43E38"/>
<path d="M592.877 -30L537.147 191.9L609.687 -30H592.877Z" fill="#A43E38"/>
<path d="M751.557 -30L744.217 22.08L772.777 73.28L800.896 -30H751.557Z" fill="#A43E38"/>
<path d="M848.366 -30V6.98L1106.59 88.12L1162.89 -30H848.366Z" fill="#A43E38"/>
<path fill-rule="evenodd" clip-rule="evenodd" d="M313.418 218.31L270.568 110.6L261.048 129.5L287.238 277.43L336.028 295.04L313.418 218.31Z" fill="#A43E38"/>
<path fill-rule="evenodd" clip-rule="evenodd" d="M846.717 313.01L676.127 237.18L657.337 248.5L769.207 325.24L718.037 312.65L839.417 362.97L846.717 313.01Z" fill="#A43E38"/>
<g style="mix-blend-mode:multiply" opacity="0.5">
<path d="M738.487 413.51L839.417 362.97L718.037 312.65L646.037 248.5L676.127 237.18L846.717 313.01L1248.4 72.63L1299.38 -17.55L1202.99 -8.11L1208.21 -30H1179.22L1106.59 88.12L862.037 22.08L848.367 6.98V-30H800.897L772.777 73.28L744.217 22.08L751.557 -30H621.857L587.737 37.13L537.148 191.9L590.377 -30H553.087L446.108 237.18L469.818 -30H432.768L405.048 136.55L412.188 339.07L321.148 201.33L336.028 295.04L287.238 277.43L237.248 37.17L261.048 171.77L156.918 362.97L-10.8812 248.5L-76.9211 48.49L-85.6311 -30H-246.561L-273.371 155.42L-273.891 413.51H738.487Z" fill="#AE9AFF"/>
</g>
<g style="mix-blend-mode:multiply" opacity="0.5">
<path d="M-2.40137 -30L47.1386 54.15L110.508 88.12L132.498 117.91L170.908 155.42L176.558 129.5L20.0986 -30H-2.40137Z" fill="#AE9AFF"/>
</g>
<g style="mix-blend-mode:multiply" opacity="0.5">
<path d="M224.628 -30L237.248 37.17L229.798 48.51L261.048 88.12L272.048 114.31L291.578 163.41L296.598 133.37L237.588 -30H224.628Z" fill="#AE9AFF"/>
</g>
<g style="mix-blend-mode:multiply" opacity="0.5">
<path d="M349.438 -30L412.188 339.07L446.108 237.18L469.818 -30H349.438Z" fill="#AE9AFF"/>
</g>
<g style="mix-blend-mode:soft-light" opacity="0.5">
<g style="mix-blend-mode:soft-light" opacity="0.5">
<path d="M20.0986 -30L124.538 76.47L116.128 -30H20.0986Z" fill="#A43E38"/>
</g>
<g style="mix-blend-mode:soft-light" opacity="0.5">
<path d="M279.708 -30L286.338 39.06L272.948 29.32L265.498 -30H239.788L240.548 -21.8L321.148 201.33L351.498 256.05L320.008 -30H279.708Z" fill="#A43E38"/>
</g>
<g style="mix-blend-mode:soft-light" opacity="0.5">
<path d="M866.116 -30L939.686 35.67L951.346 -30H866.116Z" fill="#A43E38"/>
</g>
</g>
<path fill-rule="evenodd" clip-rule="evenodd" d="M71.1785 22.0801L176.558 98.8101H193.818L176.558 129.5L71.1785 22.0801Z" fill="#882D3B"/>
<path d="M848.366 -30V6.98L939.686 35.67L866.116 -30H848.366Z" fill="#81202F"/>
<path fill-rule="evenodd" clip-rule="evenodd" d="M1067.36 75.7902L1126.23 48.4902L1106.59 88.1202L1067.36 75.7902Z" fill="#81202F"/>
<path d="M751.557 -30L744.217 22.08L753.157 38.11L757.427 -30H751.557Z" fill="#81202F"/>
<g style="mix-blend-mode:soft-light" opacity="0.2">
<g style="mix-blend-mode:soft-light" opacity="0.2">
<path d="M375.198 -30L389.878 76.47L401.568 -30H375.198Z" fill="#ECE7E5"/>
</g>
</g>
<g style="mix-blend-mode:multiply" opacity="0.5">
<path d="M507.287 413.51L657.337 248.5L685.897 155.42L460.428 413.51H507.287Z" fill="#AE9AFF"/>
</g>
<g style="mix-blend-mode:soft-light">
<g style="mix-blend-mode:soft-light">
<path fill-rule="evenodd" clip-rule="evenodd" d="M1029.83 16.8902L1036.53 -0.569824H1048.58L1039.2 20.6602L1029.83 16.8902Z" fill="#D0C0CC"/>
</g>
<g style="mix-blend-mode:soft-light">
<path fill-rule="evenodd" clip-rule="evenodd" d="M132.498 -11.89L158.038 29.32L176.558 22.08L142.638 -23.21L132.498 -11.89Z" fill="#D0C0CC"/>
</g>
<g style="mix-blend-mode:soft-light">
<path fill-rule="evenodd" clip-rule="evenodd" d="M184.588 22.0798L193.818 18.2998V26.3198L189.198 29.3198L184.588 22.0798Z" fill="#D0C0CC"/>
</g>
</g>
<path d="M-139.401 23.81L-100.321 147.73L-85.5211 155.42L-32.2212 195.34L-19.6513 231.99L-16.9013 264.06L-10.8813 347.88L64.6885 386.87L99.0285 413.51H130.998L96.2284 375.55L-3.7413 339.07L-10.8813 248.5L-28.4313 195.34L-94.1411 147.42L-144.641 -0.57L-173.531 -30H-198.681L-198.751 -28.87L-150.061 -1.51L-139.401 23.81Z" fill="#FF4A2F"/>
<path fill-rule="evenodd" clip-rule="evenodd" d="M1014.48 -5.59L979.846 -30H1474.94V311.61L1075.61 72.63L1014.48 -5.59Z" fill="#59182C"/>
<path d="M1474.94 -30V7.2L1217.42 88.12L1161.12 -30H1474.94Z" fill="#A43E38"/>
<g style="mix-blend-mode:multiply" opacity="0.5">
<path d="M1024.63 -17.55L1121.02 -8.11L1115.8 -30H1144.78L1217.42 88.12L1461.96 22.08L1474.94 7.75V311.61L1075.61 72.63L1024.63 -17.55Z" fill="#AE9AFF"/>
</g>
<g style="mix-blend-mode:soft-light" opacity="0.5">
<g style="mix-blend-mode:soft-light" opacity="0.5">
<path d="M1457.89 -30L1384.32 35.67L1372.66 -30H1457.89Z" fill="#A43E38"/>
</g>
</g>
<path fill-rule="evenodd" clip-rule="evenodd" d="M1256.65 75.7902L1197.78 48.4902L1217.42 88.1202L1256.65 75.7902Z" fill="#81202F"/>
<g style="mix-blend-mode:soft-light">
<g style="mix-blend-mode:soft-light">
<path fill-rule="evenodd" clip-rule="evenodd" d="M1294.18 16.8902L1287.48 -0.569824H1275.43L1284.8 20.6602L1294.18 16.8902Z" fill="#D0C0CC"/>
</g>
</g>
<path d="M1410.77 120.12H-551.39V375.82H1410.77V120.12Z" fill="#D88200"/>
<path d="M1169.22 181.88C1103.8 181.94 1038.22 181.88 972.966 181.13C940.556 180.75 907.967 180.29 876.297 179.3C820.177 177.553 764.8 175.427 710.167 172.92C646.757 170.11 582.337 167.07 524.117 162.72C500.397 160.94 442.628 156.72 459.048 152.09C468.938 149.28 496.207 147.99 517.927 147.6C562.367 146.8 609.207 148.01 652.927 148.99C705.157 150.18 757.687 151.14 810.067 152.2C846.067 152.92 882.15 153.557 918.317 154.11C953.316 154.58 988.436 154.8 1023.44 155.27C1151.97 157.02 1281.34 159.99 1410.72 158.82V151.98C1314.35 152.7 1218.43 152.98 1121.86 152.4C970.406 151.4 823.597 146.27 674.397 143.22C598.047 141.67 520.798 140.64 443.458 141.06C366.858 141.48 291.108 143.06 216.158 145.06C69.4985 149.06 -75.661 154.74 -225.911 156.06C-334.72 157 -443.12 155.97 -551.33 154.58V160.81C-504.09 163.37 -450.71 163.72 -400.13 163.45C-341.361 163.13 -283.181 161.97 -224.961 160.96C-164.091 159.9 -103.121 159.08 -42.3012 157.96C25.3087 156.65 93.6982 155.37 162.228 155.57C296.148 155.97 420.228 163.67 539.077 170.98C658.867 178.36 780.807 186.04 914.076 188.2C1065.13 190.64 1217.39 189.37 1369.08 189.2C1383.08 189.2 1396.94 189.2 1410.82 189.2V182.09C1330.33 181.53 1249.43 181.81 1169.22 181.88Z" fill="#E9CE00"/>
<path d="M826.317 218.3C851.887 215.88 886.937 215.35 917.607 215C958.696 214.53 1000.05 214.59 1041.25 214.29C1165.98 213.36 1287.47 209.46 1410.77 207.12V202.12C1345.09 202.787 1279.73 203.787 1214.68 205.12C1151.5 206.4 1088.83 208.18 1025.27 209.04C862.126 211.29 698.837 208.88 535.797 207.79C454.908 207.25 372.658 206.79 291.968 207.94C217.308 208.94 144.308 211.31 73.0984 214.33C4.28857 217.25 -62.9709 220.72 -130.791 224.01C-197.451 227.23 -264.71 230.47 -334.87 232.17C-405.93 233.9 -478.63 234.65 -551.34 234.64V243.21L-544.15 243.27C-506 243.57 -467.85 244.04 -429.65 244.27C-403.98 244.43 -378.91 244.48 -353.85 243.68C-321.79 242.68 -290.231 241.37 -258.321 240.26C-222.021 238.99 -184.721 237.67 -147.061 237.26C-128.141 237.07 -103.771 236.89 -95.0608 239.52C-80.8809 243.79 -113.641 248.24 -135.661 250.85C-180.451 256.18 -234.43 260.25 -287.56 264.02C-353.08 268.65 -420.74 272.76 -489.25 276.58C-509.917 277.74 -530.623 278.863 -551.37 279.95V291.02C-450.75 289.67 -358.42 283.02 -278.37 275.34C-187.841 266.67 -107.791 256.34 -29.5014 245.9C4.60846 241.36 38.3687 236.77 73.3186 232.33C115.619 226.98 163.048 222.56 217.778 219.54C272.108 216.54 330.038 214.79 388.778 214.08C446.858 213.37 509.778 213.08 566.647 214.99C671.007 218.54 746.417 228.91 819.367 238.52C856.266 243.39 893.417 248.29 936.966 252.18C978.516 255.88 1023.51 258.93 1069.97 261.46C1173.69 267.11 1285.2 270.62 1397.19 272.03L1410.72 272.2V262.61C1396.65 262.47 1382.52 262.353 1368.33 262.26C1318.9 261.97 1269.26 261.76 1220.22 260.83C1106.31 258.69 993.056 252.27 904.826 242.69C867.426 238.63 829.276 233.62 811.827 227.6C802.057 224.29 802.157 220.59 826.317 218.3Z" fill="#E9CE00"/>
<path d="M953.957 288.53C897.077 286.01 845.857 282.43 794.317 278.42C740.637 274.24 685.317 270.36 627.527 267.26C514.627 261.2 391.988 258.15 269.898 259.35C74.6487 261.28 -86.241 277.23 -243.241 291.08C-320.54 297.89 -399.891 304.57 -486.77 309.08C-508.004 310.18 -529.543 311.127 -551.39 311.92V322.99C-522.78 321.51 -494.39 319.9 -465.85 318.48C-403.13 315.36 -342.21 311.55 -286.031 306.71C-179.871 297.56 -93.3309 283.42 31.8988 278.48C95.5687 275.97 162.028 276.48 226.348 278.33C295.558 280.33 362.478 283.57 427.348 287.28C491.517 290.94 548.347 296.28 607.517 301.14C669.287 306.14 733.897 310.42 805.607 312.34C956.356 316.34 1112.96 313.57 1262.87 310.34C1312.2 309.26 1361.49 308.147 1410.72 307V290.46C1261.6 295.54 1099.42 294.98 953.957 288.53Z" fill="#E9CE00"/>
<g clip-path="url(#clip3_3697:8210)">
<path d="M1291.41 292.937C1291.41 292.937 1297.21 171.689 1282.36 157.599C1278.8 154.207 1262.06 142.835 1241.68 144.443C1222.42 145.958 1207.45 155.784 1201.15 160.629C1193.57 166.46 1192.87 297.211 1194.99 299.38C1197.12 301.548 1289.18 300.988 1291.41 292.937Z" fill="#A16552"/>
<path d="M1208.72 272.238C1208.72 272.238 1205.29 203.521 1207.16 190.51C1209.03 177.5 1219.91 168.214 1239.93 169.064C1259.96 169.915 1265.68 183.403 1266.79 192.419C1267.9 201.436 1273.11 282.385 1265.66 298.675C1258.22 314.964 1243.73 313.138 1243.73 313.138L1214.74 301.891L1208.72 272.238Z" fill="#F5DCB4"/>
<path d="M878.476 135.603C879.237 139.696 880.886 143.571 883.307 146.954C885.728 150.338 888.861 153.146 892.485 155.182C889.85 159.028 888.8 163.745 889.555 168.348C891.626 179.647 905.293 186.702 920.618 184.731C924.759 191.527 934.792 195.044 945.468 193.031C946.869 192.776 948.253 192.429 949.609 191.994C953.205 192.574 956.873 192.522 960.45 191.838C973.352 189.421 982.443 179.751 980.703 170.299C980.519 169.31 980.22 168.345 979.813 167.425C981.284 166.581 982.671 165.597 983.955 164.489C987.061 171.201 995.52 173.712 1005.7 170.226C1008.96 173.526 1010.41 176.452 1017.14 175.331C1022.41 174.455 1027.14 171.57 1030.34 167.28C1034.88 170.067 1040.31 171.037 1045.53 169.998C1051.8 168.815 1056.8 163.524 1060.03 159.882C1065.97 161.884 1074.52 160.494 1081.24 156.012C1081.86 155.586 1082.46 155.151 1083.04 154.694L1111.55 155.493L1108.17 143.043L1091.06 138.996C1090.17 136.364 1089.68 133.61 1089.63 130.831C1088.88 126.795 1085.74 123.402 1080.85 121.296C1080.83 120.623 1080.76 119.954 1080.63 119.293C1078.73 108.918 1065.7 102.692 1051.59 105.348C1049.95 105.656 1048.33 106.079 1046.75 106.614C1044.97 103.811 1042.47 101.544 1039.5 100.057C1036.14 98.3324 1032.46 97.3088 1028.7 97.0481C1026.29 93.5878 1022.95 90.8826 1019.07 89.2458C1016.91 78.0092 1004.1 70.3313 988.811 70.85C981.894 65.8698 972.078 63.8675 961.89 65.3823C956.847 58.8457 946.545 55.7434 935.725 57.777C922.181 60.319 912.49 70.1445 913.401 80.0634C901.545 83.809 893.728 93.2818 895.416 102.568C895.488 102.993 895.592 103.408 895.706 103.834C883.291 109.27 876.043 122.24 878.476 135.603Z" fill="white"/>
<path d="M1200.55 161.335C1194.34 167.01 1187.95 171.772 1171.39 165.236C1166.21 172.851 1154.71 170.942 1153.98 172.281C1151.73 176.514 1168.48 186.36 1174.17 188.331C1179.35 190.707 1196.95 192.855 1200.55 186.547C1204.16 180.239 1207.78 154.798 1200.55 161.335Z" fill="#A16552"/>
<path d="M1142.15 149.507L1133.52 165.589C1133.52 165.589 1129.04 163.576 1125.37 162.414C1124.28 162.071 1115.95 160.11 1114.43 159.104C1111.09 156.873 1110.41 153.563 1108.44 150.627C1105.6 146.342 1127.43 148.676 1127.43 148.676C1132.09 149.268 1130.7 147.483 1135.72 148.676" fill="#A16552"/>
<path d="M1171.9 165.142L1142.15 149.507L1133.52 165.589C1133.52 165.589 1179.08 197.005 1186.14 188.581C1195.79 179.512 1171.9 165.142 1171.9 165.142Z" fill="#A16552"/>
<path opacity="0.2" d="M1248.54 208.813L1240.25 222.82C1240.25 222.82 1276.49 264.84 1283.22 262.246C1302.8 246.527 1278.06 235.374 1248.54 208.813Z" fill="black"/>
<path d="M1216.02 194.827C1216.19 194.588 1217.16 193.789 1217.06 193.312C1216.96 192.835 1215.04 191.465 1214.57 191.839C1214.16 192.229 1213.79 192.656 1213.46 193.115L1216.02 194.827Z" fill="#A16552"/>
<path d="M1216.76 188.124C1216.93 187.885 1217.93 187.086 1217.79 186.63C1217.66 186.173 1215.82 184.731 1215.34 185.094C1214.86 185.458 1213.77 186.599 1213.77 186.599L1216.76 188.124Z" fill="#A16552"/>
<path d="M1218 182.397C1218.15 182.137 1219.04 181.235 1218.84 180.768C1218.64 180.301 1216.62 179.17 1216.21 179.595C1215.8 180.021 1214.86 181.204 1214.86 181.204L1218 182.397Z" fill="#A16552"/>
<path d="M1216.05 201.467C1216.19 201.207 1217.09 200.305 1216.89 199.838C1216.7 199.371 1216.06 198.572 1215.65 198.997C1215.24 199.423 1214.62 200.263 1214.62 200.263L1216.05 201.467Z" fill="#A16552"/>
<path d="M1260.29 150.814L1256.56 110.619L1226.16 134.835L1223.64 155.825C1236.08 156.887 1248.59 155.176 1260.29 150.814Z" fill="#A16552"/>
<path d="M1205.4 77.48C1204.58 80.486 1204.16 83.5874 1204.15 86.7038V87.3471C1204.17 91.1118 1203.75 94.8662 1202.89 98.5319C1200.82 97.7133 1199.03 96.3206 1197.72 94.5166C1193.25 88.8308 1194.75 79.7004 1200.24 77.5527C1201.89 76.8529 1203.74 76.8121 1205.42 77.4386C1205.42 77.4386 1205.4 77.4593 1205.4 77.48Z" fill="#A16552"/>
<path d="M1205.4 77.48C1204.58 80.486 1204.16 83.5874 1204.15 86.7038V87.3471C1204.17 91.1118 1203.75 94.8662 1202.89 98.5319C1200.82 97.7133 1199.03 96.3206 1197.72 94.5166C1193.25 88.8308 1194.75 79.7004 1200.24 77.5527C1201.89 76.8529 1203.74 76.8121 1205.42 77.4386C1205.42 77.4386 1205.4 77.4593 1205.4 77.48Z" fill="#F5DCB4"/>
<path d="M1287.67 94.5167C1286.36 96.3207 1284.57 97.7134 1282.5 98.532C1281.64 94.8663 1281.22 91.1119 1281.24 87.3472V86.7039C1281.23 83.5765 1280.81 80.4643 1279.98 77.4491C1281.66 76.8118 1283.51 76.8527 1285.16 77.5632C1290.65 79.7005 1292.14 88.8309 1287.67 94.5167Z" fill="#A16552"/>
<path d="M1287.67 94.5167C1286.36 96.3207 1284.57 97.7134 1282.5 98.532C1281.64 94.8663 1281.22 91.1119 1281.24 87.3472V86.7039C1281.23 83.5765 1280.81 80.4643 1279.98 77.4491C1281.66 76.8118 1283.51 76.8527 1285.16 77.5632C1290.65 79.7005 1292.14 88.8309 1287.67 94.5167Z" fill="#F5DCB4"/>
<path d="M1270.54 98.6669C1269.73 99.9309 1269.21 101.36 1269.02 102.85C1268.84 104.339 1268.98 105.852 1269.45 107.279C1270.22 109.352 1270.68 111.525 1270.83 113.732C1270.83 127.085 1258.24 137.928 1242.71 137.928C1227.17 137.928 1214.58 127.096 1214.58 113.732C1214.73 111.525 1215.19 109.352 1215.96 107.279C1216.43 105.852 1216.58 104.339 1216.39 102.85C1216.2 101.36 1215.68 99.9309 1214.87 98.6669C1214.48 98.0557 1214.13 97.4138 1213.84 96.7475C1212.91 94.7368 1212.44 92.5489 1212.44 90.3354C1212.44 81.454 1219.95 74.2638 1229.23 74.2638C1232.22 74.2519 1235.16 75.0207 1237.77 76.4946C1239.27 77.3563 1240.97 77.8095 1242.71 77.8095C1244.44 77.8095 1246.14 77.3563 1247.65 76.4946C1250.25 75.0207 1253.2 74.2519 1256.19 74.2638C1265.51 74.2638 1272.97 81.454 1272.97 90.3354C1272.98 92.5491 1272.5 94.7372 1271.57 96.7475C1271.28 97.4127 1270.93 98.0544 1270.54 98.6669Z" fill="#A16552"/>
<path d="M1270.54 98.6669C1269.73 99.9309 1269.21 101.36 1269.02 102.85C1268.84 104.339 1268.98 105.852 1269.45 107.279C1270.22 109.352 1270.68 111.525 1270.83 113.732C1270.83 127.085 1258.24 137.928 1242.71 137.928C1227.17 137.928 1214.58 127.096 1214.58 113.732C1214.73 111.525 1215.19 109.352 1215.96 107.279C1216.43 105.852 1216.58 104.339 1216.39 102.85C1216.2 101.36 1215.68 99.9309 1214.87 98.6669C1214.48 98.0557 1214.13 97.4138 1213.84 96.7475C1212.91 94.7368 1212.44 92.5489 1212.44 90.3354C1212.44 81.454 1219.95 74.2638 1229.23 74.2638C1232.22 74.2519 1235.16 75.0207 1237.77 76.4946C1239.27 77.3563 1240.97 77.8095 1242.71 77.8095C1244.44 77.8095 1246.14 77.3563 1247.65 76.4946C1250.25 75.0207 1253.2 74.2519 1256.19 74.2638C1265.51 74.2638 1272.97 81.454 1272.97 90.3354C1272.98 92.5491 1272.5 94.7372 1271.57 96.7475C1271.28 97.4127 1270.93 98.0544 1270.54 98.6669Z" fill="#F5DCB4"/>
<path d="M1228.34 116.699C1228.11 116.7 1227.89 116.75 1227.68 116.846C1227.47 116.942 1227.28 117.081 1227.13 117.255C1226.98 117.429 1226.86 117.633 1226.8 117.853C1226.73 118.074 1226.71 118.307 1226.74 118.536C1227.78 125.695 1234.5 131.235 1242.67 131.235C1250.85 131.235 1257.62 125.695 1258.61 118.536C1258.64 118.307 1258.62 118.074 1258.55 117.853C1258.49 117.633 1258.37 117.429 1258.22 117.255C1258.07 117.081 1257.88 116.942 1257.67 116.846C1257.46 116.75 1257.24 116.7 1257.01 116.699H1228.34Z" fill="#4E3F3F"/>
<path d="M1233.43 128.569C1236.2 130.311 1239.4 131.235 1242.67 131.235C1245.95 131.235 1249.15 130.311 1251.92 128.569C1250.77 124.522 1247.05 125.456 1242.67 125.456C1238.3 125.456 1234.58 124.522 1233.43 128.569Z" fill="#E6646E"/>
<path d="M1287.1 74.5644C1285.86 74.0218 1284.5 73.7813 1283.14 73.8625C1281.78 73.9436 1280.45 74.3439 1279.28 75.0312C1278.82 73.6873 1278.3 72.3679 1277.7 71.0782C1277.28 70.1444 1276.81 69.2106 1276.31 68.2976C1271.22 58.9596 1262.65 51.147 1252.81 47.858L1252.63 42.5457L1246.27 46.3846L1245.5 46.2912C1245.03 46.2912 1244.56 46.2187 1244.08 46.1979L1243.16 42.1722L1242.89 40.9998C1242.59 40.9838 1242.28 40.9838 1241.97 40.9998C1236.06 41.4874 1233.1 46.893 1232.65 47.8164C1222.83 51.1054 1214.26 58.8766 1209.17 68.256C1208.67 69.1691 1208.21 70.1029 1207.77 71.0367C1207.18 72.3264 1206.65 73.6459 1206.2 74.9898C1206.12 74.9388 1206.04 74.8937 1205.96 74.8549C1204.8 74.2337 1203.52 73.8813 1202.2 73.8238C1200.89 73.7664 1199.58 74.0052 1198.37 74.5228C1191.37 77.2516 1189.49 88.8514 1195.16 96.0727C1196.93 98.5201 1199.4 100.361 1202.25 101.343C1202.25 101.478 1202.19 101.613 1202.16 101.748C1201.74 103.692 1201.53 105.674 1201.53 107.662C1201.53 121.461 1211.65 133.331 1226.16 138.56C1229.56 139.786 1233.09 140.618 1236.68 141.04C1238.55 141.26 1240.42 141.384 1242.3 141.413H1242.75C1265.53 141.413 1283.97 126.296 1283.97 107.662C1283.97 105.674 1283.76 103.691 1283.34 101.748C1283.34 101.613 1283.27 101.478 1283.25 101.354C1286.1 100.371 1288.57 98.5298 1290.34 96.0831C1295.93 88.8825 1294.04 77.2931 1287.1 74.5644ZM1205.45 77.4798C1204.63 80.4858 1204.21 83.5872 1204.2 86.7036V87.3469C1204.22 91.1116 1203.8 94.866 1202.95 98.5317C1200.88 97.7101 1199.08 96.3179 1197.77 94.5164C1193.32 88.8306 1194.8 79.7002 1200.31 77.5525C1201.95 76.8506 1203.81 76.8097 1205.48 77.4384C1205.48 77.4384 1205.4 77.4591 1205.4 77.4798H1205.45ZM1271.6 96.7367C1271.31 97.4011 1270.96 98.0426 1270.57 98.6562C1269.77 99.9224 1269.26 101.352 1269.08 102.84C1268.9 104.328 1269.06 105.837 1269.53 107.257C1270.3 109.33 1270.77 111.504 1270.92 113.711C1270.92 127.075 1258.32 137.917 1242.79 137.917C1227.26 137.917 1214.67 127.085 1214.67 113.711C1214.81 111.503 1215.28 109.329 1216.05 107.257C1216.52 105.832 1216.66 104.321 1216.47 102.833C1216.28 101.345 1215.77 99.9184 1214.96 98.6562C1214.56 98.0449 1214.21 97.4031 1213.92 96.7367C1213 94.726 1212.52 92.5382 1212.52 90.3246C1212.52 81.4432 1220.04 74.2531 1229.31 74.2531C1232.3 74.2422 1235.25 75.0109 1237.86 76.4838C1239.36 77.3456 1241.06 77.799 1242.79 77.799C1244.53 77.799 1246.23 77.3456 1247.73 76.4838C1250.33 75.0108 1253.28 74.2421 1256.27 74.2531C1265.59 74.2531 1273.05 81.4432 1273.05 90.3246C1273.03 92.5442 1272.53 94.7322 1271.57 96.7367H1271.6ZM1287.73 94.5164C1286.42 96.3204 1284.62 97.7131 1282.55 98.5317C1281.69 94.866 1281.27 91.1116 1281.3 87.3469V86.7036C1281.29 83.5762 1280.86 80.464 1280.03 77.4488C1281.71 76.8115 1283.56 76.8524 1285.21 77.5629C1290.65 79.7002 1292.14 88.8306 1287.67 94.5164H1287.73Z" fill="#A16552"/>
<path d="M1241.55 106.666L1241.05 107.777C1241.01 107.866 1240.95 107.946 1240.88 108.012C1240.81 108.079 1240.73 108.131 1240.63 108.165C1240.54 108.198 1240.44 108.214 1240.35 108.209C1240.25 108.205 1240.15 108.181 1240.07 108.14L1235.84 106.199C1235.75 106.161 1235.66 106.102 1235.59 106.027C1235.51 105.952 1235.46 105.863 1235.42 105.765C1235.39 105.667 1235.37 105.562 1235.38 105.458C1235.39 105.354 1235.42 105.253 1235.47 105.162L1235.97 104.041C1236.01 103.948 1236.07 103.863 1236.14 103.794C1236.22 103.724 1236.31 103.671 1236.41 103.637C1236.5 103.603 1236.61 103.589 1236.71 103.596C1236.81 103.603 1236.91 103.631 1237 103.678L1241.23 105.618C1241.32 105.663 1241.4 105.726 1241.47 105.805C1241.53 105.883 1241.58 105.974 1241.61 106.072C1241.64 106.171 1241.65 106.274 1241.64 106.376C1241.63 106.479 1241.6 106.577 1241.55 106.666Z" fill="#4E3F3F"/>
<path d="M1243.85 106.666L1244.34 107.776C1244.38 107.865 1244.44 107.946 1244.51 108.012C1244.58 108.079 1244.67 108.131 1244.76 108.164C1244.85 108.198 1244.95 108.213 1245.04 108.209C1245.14 108.205 1245.24 108.181 1245.33 108.139L1249.55 106.199C1249.65 106.161 1249.73 106.102 1249.81 106.027C1249.88 105.952 1249.93 105.863 1249.97 105.765C1250 105.667 1250.02 105.562 1250.01 105.458C1250 105.354 1249.97 105.253 1249.92 105.162L1249.42 104.041C1249.38 103.945 1249.32 103.859 1249.24 103.787C1249.17 103.716 1249.08 103.661 1248.98 103.627C1248.88 103.593 1248.78 103.58 1248.67 103.589C1248.57 103.597 1248.47 103.628 1248.38 103.678L1244.16 105.618C1244.06 105.665 1243.98 105.73 1243.92 105.808C1243.85 105.887 1243.81 105.978 1243.78 106.076C1243.75 106.174 1243.74 106.277 1243.75 106.378C1243.76 106.479 1243.79 106.577 1243.85 106.666Z" fill="#4E3F3F"/>
<path d="M1228.22 96.7371C1227.6 96.7522 1226.99 96.6454 1226.41 96.4226C1225.84 96.1998 1225.31 95.8653 1224.86 95.4385C1224.42 95.0117 1224.06 94.5007 1223.81 93.9349C1223.56 93.369 1223.42 92.7593 1223.41 92.1407V90.6155C1223.49 89.3907 1224.03 88.2422 1224.92 87.4031C1225.82 86.564 1227 86.0972 1228.22 86.0972C1229.45 86.0972 1230.62 86.564 1231.52 87.4031C1232.41 88.2422 1232.95 89.3907 1233.04 90.6155V92.1407C1233 93.3892 1232.48 94.574 1231.58 95.4355C1230.67 96.2969 1229.47 96.7649 1228.22 96.7371Z" fill="#4E3F3F"/>
<path d="M1228.22 86.019V91.4038C1228.26 92.0162 1228.53 92.5905 1228.98 93.01C1229.43 93.4295 1230.02 93.663 1230.63 93.663C1231.24 93.663 1231.83 93.4295 1232.28 93.01C1232.72 92.5905 1232.99 92.0162 1233.04 91.4038V90.636C1233.02 90.0156 1232.89 89.4037 1232.64 88.8355C1232.39 88.2673 1232.03 87.7538 1231.59 87.3248C1231.14 86.8957 1230.61 86.5596 1230.03 86.3355C1229.46 86.1114 1228.84 86.0038 1228.22 86.019Z" fill="#5D5360"/>
<path d="M1228.22 90.6153C1228.52 90.601 1228.81 90.4988 1229.05 90.3212C1229.29 90.1436 1229.48 89.8985 1229.58 89.6164C1229.69 89.3342 1229.71 89.0275 1229.64 88.7343C1229.57 88.4412 1229.42 88.1743 1229.2 87.9672C1228.98 87.7601 1228.71 87.6218 1228.42 87.5694C1228.12 87.517 1227.81 87.5527 1227.54 87.6724C1227.26 87.792 1227.03 87.9901 1226.86 88.2422C1226.7 88.4942 1226.61 88.7891 1226.62 89.0901C1226.62 89.2959 1226.67 89.4985 1226.75 89.6865C1226.83 89.8745 1226.95 90.0443 1227.1 90.1859C1227.25 90.3276 1227.43 90.4384 1227.62 90.512C1227.81 90.5857 1228.02 90.6208 1228.22 90.6153Z" fill="white"/>
<path d="M1257.13 96.7371C1256.51 96.7522 1255.9 96.6454 1255.32 96.4226C1254.75 96.1998 1254.22 95.8653 1253.77 95.4385C1253.32 95.0117 1252.97 94.5007 1252.72 93.9349C1252.47 93.369 1252.33 92.7593 1252.31 92.1407V90.6155C1252.39 89.3907 1252.94 88.2422 1253.83 87.4031C1254.73 86.564 1255.9 86.0972 1257.13 86.0972C1258.35 86.0972 1259.53 86.564 1260.43 87.4031C1261.32 88.2422 1261.86 89.3907 1261.94 90.6155V92.1407C1261.93 92.7593 1261.79 93.369 1261.54 93.9349C1261.29 94.5007 1260.93 95.0117 1260.49 95.4385C1260.04 95.8653 1259.51 96.1998 1258.94 96.4226C1258.36 96.6454 1257.75 96.7522 1257.13 96.7371Z" fill="#4E3F3F"/>
<path d="M1257.13 86.0192V91.404C1257.17 92.0165 1257.44 92.5907 1257.89 93.0103C1258.33 93.4298 1258.92 93.6633 1259.54 93.6633C1260.15 93.6633 1260.74 93.4298 1261.19 93.0103C1261.63 92.5907 1261.9 92.0165 1261.94 91.404V90.6363C1261.93 90.0155 1261.8 89.4029 1261.55 88.834C1261.3 88.2651 1260.95 87.7512 1260.5 87.3219C1260.05 86.8926 1259.52 86.5564 1258.94 86.3328C1258.37 86.1092 1257.75 86.0027 1257.13 86.0192Z" fill="#5D5360"/>
<path d="M1257.13 90.6153C1257.43 90.601 1257.72 90.4988 1257.96 90.3212C1258.2 90.1436 1258.39 89.8985 1258.49 89.6164C1258.6 89.3342 1258.62 89.0275 1258.55 88.7343C1258.48 88.4412 1258.33 88.1743 1258.11 87.9672C1257.89 87.7601 1257.62 87.6218 1257.32 87.5694C1257.03 87.517 1256.72 87.5527 1256.45 87.6724C1256.17 87.792 1255.94 87.9901 1255.77 88.2422C1255.61 88.4942 1255.52 88.7891 1255.52 89.0901C1255.54 89.5048 1255.71 89.8974 1256.01 90.1829C1256.31 90.4684 1256.72 90.6237 1257.13 90.6153Z" fill="white"/>
<path d="M1227.4 156.033L1212.82 154.995L1189.23 157.07L1182.3 159.322L1175.05 160.359C1168.44 160.245 1161.86 159.375 1155.45 157.765C1151.69 156.728 1144.42 151.447 1141.51 150.502C1138.41 149.465 1129.79 149.984 1126.03 149.984H1097.33" stroke="black" stroke-width="5"/>
<path d="M1225.62 170.06V156.469L1238.19 159.955V170.06L1244.54 174.356C1246.35 175.58 1247.52 178.361 1247.52 181.442V252.69C1247.52 255.398 1246.11 257.588 1244.41 257.588H1219.46C1217.73 257.588 1216.35 255.398 1216.35 252.69V181.442C1216.35 178.33 1217.52 175.58 1219.34 174.356L1225.62 170.06Z" fill="#FF2E00"/>
<path opacity="0.25" d="M1234.77 158.367V156.458L1238.19 156.645V170.06L1244.54 174.356C1246.35 175.58 1247.52 178.361 1247.52 181.442V252.69C1247.52 255.398 1246.11 257.588 1244.41 257.588H1239.05V181.442C1239.05 178.33 1238.52 175.58 1237.69 174.356C1235.84 171.596 1233.38 170.06 1230.82 170.06H1229.89C1232.84 168.048 1234.77 163.451 1234.77 158.367Z" fill="black"/>
<path d="M1225.6 156.344V159.882H1239.58L1259.96 169.096L1262.79 165.028L1239.58 148.313H1229.31C1229.31 151.25 1227.65 153.636 1225.6 153.636V156.344Z" fill="white"/>
<path d="M1227.14 155.597C1225.81 155.601 1224.5 155.208 1223.39 154.469C1222.28 153.729 1221.42 152.676 1220.9 151.442C1220.39 150.208 1220.25 148.849 1220.51 147.538C1220.77 146.226 1221.41 145.02 1222.35 144.074C1223.29 143.127 1224.49 142.482 1225.8 142.219C1227.11 141.957 1228.46 142.09 1229.7 142.6C1230.93 143.111 1231.98 143.977 1232.73 145.088C1233.47 146.199 1233.86 147.506 1233.86 148.843C1233.87 149.728 1233.69 150.605 1233.36 151.424C1233.02 152.243 1232.52 152.987 1231.9 153.614C1231.28 154.242 1230.53 154.739 1229.72 155.08C1228.9 155.42 1228.03 155.596 1227.14 155.597Z" fill="#999999"/>
<path d="M1261.34 167.031C1260.9 166.408 1245.94 156.406 1240.23 152.619C1239.64 152.095 1239.24 151.391 1239.08 150.616C1238.93 149.841 1239.03 149.036 1239.37 148.324L1262.79 164.924L1261.34 167.031Z" fill="#CCCCCC"/>
<path d="M1279.95 156.458C1293.48 158.315 1296.91 231.089 1294.32 242.18C1291 256.394 1283.2 259.206 1276.9 252.555C1271.78 247.212 1271.25 225.185 1270.34 205.524C1269.16 180.052 1267.84 154.798 1279.95 156.458Z" fill="#A16552"/>
<path d="M1237.48 192.461C1231.33 187.273 1228.6 182.22 1225.64 180.353C1224.9 179.875 1222.33 180.737 1224.12 183.673C1224.55 184.379 1232.17 194.131 1232.17 194.131L1237.48 192.461Z" fill="#A16552"/>
<path d="M1236.07 218.109C1226.75 214.996 1220.54 209.248 1218.31 206.291C1216.09 203.334 1222.08 184.358 1222.08 184.358C1222.08 184.358 1233.38 191.745 1236.51 192.077C1239.65 192.409 1244.89 203.801 1244.89 203.801L1236.07 218.109Z" fill="#A16552"/>
<path d="M1225.19 207.848C1218.97 202.909 1215.67 199.371 1215.24 199.62C1214.8 199.869 1213.58 201.228 1214.11 201.913C1214.64 202.598 1224.39 211.77 1224.39 211.77L1225.19 207.848Z" fill="#A16552"/>
<path d="M1223.41 192.617C1216.69 187.678 1215.24 185.883 1214.56 186.018C1213.89 186.153 1212.49 188.155 1212.95 188.798C1213.4 189.442 1220.2 196.435 1220.2 196.435L1223.41 192.617Z" fill="#A16552"/>
<path d="M1228.31 188.933C1221.75 183.745 1216.03 180.353 1215.42 180.633C1214.81 180.913 1213.86 182.49 1214.34 183.144C1214.81 183.797 1225.18 193.239 1225.18 193.239L1228.31 188.933Z" fill="#A16552"/>
<path d="M1223.07 199.568C1216.42 194.557 1214.79 192.305 1214.11 192.482C1213.42 192.658 1212.4 194.93 1212.9 195.594C1213.39 196.258 1220.53 202.971 1220.53 202.971L1223.07 199.568Z" fill="#A16552"/>
<path d="M1244.89 203.801L1236.07 218.109C1236.07 218.109 1277.64 262.101 1286.11 255.305C1305.74 239.586 1274.42 230.362 1244.89 203.801Z" fill="#A16552"/>
<path d="M1415.01 230.809C1415.01 230.809 1403.24 319 1344.34 319H1108.78C1057.25 319 1041.79 251.477 1038.74 234.596C1038.29 232.189 1038.12 230.809 1038.12 230.809C1038.12 230.809 1061.67 248.447 1226.56 248.447C1391.45 248.447 1415.01 230.809 1415.01 230.809Z" fill="#888888"/>
<path d="M1135.52 144.838C1135.69 144.484 1135.78 144.098 1135.79 143.706C1135.8 143.313 1135.73 142.923 1135.58 142.561C1135.43 142.199 1135.2 141.873 1134.92 141.603C1134.63 141.334 1134.29 141.128 1133.93 140.999C1130.27 139.723 1124.39 137.679 1123.67 137.513C1123.48 137.503 1123.28 137.541 1123.1 137.624C1122.92 137.707 1122.76 137.833 1122.64 137.99C1122.32 138.316 1122.09 138.714 1121.97 139.149C1121.84 139.585 1121.82 140.044 1121.92 140.488C1122.01 140.932 1122.21 141.347 1122.49 141.697C1122.78 142.046 1123.15 142.319 1123.57 142.493C1125.2 143.167 1127.77 144.194 1131.74 146.155C1132.07 146.322 1132.44 146.42 1132.81 146.444C1133.18 146.468 1133.55 146.417 1133.91 146.294C1134.26 146.172 1134.58 145.979 1134.86 145.729C1135.14 145.479 1135.36 145.176 1135.52 144.838Z" fill="#985D4B"/>
<path d="M1148.46 146.819L1145.96 156.811L1091.73 158.419L1095.65 135.23L1148.46 146.819Z" fill="#FF2E00"/>
<path d="M1120.23 156.458C1121.37 152.173 1122.3 149.558 1122.85 147.888C1122.99 147.459 1123.03 147.002 1122.95 146.555C1122.88 146.108 1122.7 145.686 1122.43 145.326C1122.16 144.965 1121.8 144.676 1121.39 144.484C1120.98 144.292 1120.53 144.204 1120.08 144.226C1119.88 144.21 1119.69 144.243 1119.51 144.323C1119.32 144.402 1119.17 144.526 1119.05 144.682C1118.69 145.325 1116.36 151.104 1114.9 154.715C1114.76 155.079 1114.69 155.469 1114.7 155.861C1114.72 156.253 1114.81 156.638 1114.99 156.989C1115.16 157.341 1115.41 157.652 1115.71 157.902C1116.01 158.152 1116.36 158.335 1116.74 158.44C1117.1 158.545 1117.47 158.577 1117.84 158.534C1118.21 158.49 1118.57 158.373 1118.9 158.188C1119.22 158.003 1119.51 157.755 1119.74 157.458C1119.97 157.161 1120.13 156.821 1120.23 156.458Z" fill="#985D4B"/>
<path d="M1125.97 158.388C1127.08 154.238 1128.04 151.623 1128.54 149.994C1128.68 149.574 1128.72 149.125 1128.64 148.687C1128.57 148.25 1128.4 147.836 1128.13 147.483C1127.86 147.129 1127.51 146.846 1127.11 146.658C1126.71 146.47 1126.27 146.383 1125.83 146.404C1125.63 146.386 1125.43 146.418 1125.25 146.496C1125.07 146.573 1124.91 146.695 1124.79 146.85C1124.45 147.483 1122.17 153.138 1120.75 156.676C1120.61 157.032 1120.55 157.414 1120.56 157.798C1120.58 158.181 1120.67 158.557 1120.84 158.9C1121.01 159.244 1121.25 159.548 1121.55 159.792C1121.84 160.036 1122.19 160.215 1122.56 160.318C1122.91 160.42 1123.27 160.451 1123.64 160.409C1124 160.367 1124.35 160.253 1124.67 160.073C1124.99 159.893 1125.27 159.652 1125.49 159.362C1125.71 159.073 1125.88 158.742 1125.97 158.388Z" fill="#985D4B"/>
<path d="M1130.76 160.411C1131.71 156.821 1132.49 154.632 1132.95 153.231C1133.07 152.872 1133.1 152.489 1133.04 152.115C1132.98 151.741 1132.83 151.388 1132.6 151.086C1132.37 150.784 1132.07 150.543 1131.73 150.384C1131.39 150.224 1131.01 150.151 1130.63 150.171C1130.47 150.161 1130.31 150.19 1130.16 150.254C1130.01 150.319 1129.88 150.419 1129.77 150.544C1129.48 151.084 1127.54 155.929 1126.32 158.938C1126.2 159.242 1126.15 159.568 1126.16 159.895C1126.17 160.222 1126.25 160.543 1126.4 160.836C1126.54 161.13 1126.75 161.389 1127 161.599C1127.25 161.808 1127.54 161.962 1127.86 162.05C1128.16 162.134 1128.47 162.158 1128.77 162.121C1129.08 162.084 1129.38 161.986 1129.65 161.834C1129.92 161.681 1130.15 161.477 1130.34 161.233C1130.53 160.989 1130.67 160.71 1130.76 160.411Z" fill="#985D4B"/>
<path d="M1134.9 162.185C1135.72 159.073 1136.38 157.236 1136.77 156.043C1136.88 155.736 1136.9 155.408 1136.85 155.088C1136.8 154.769 1136.67 154.466 1136.47 154.208C1136.28 153.949 1136.03 153.742 1135.73 153.604C1135.44 153.467 1135.12 153.403 1134.79 153.418C1134.66 153.408 1134.52 153.432 1134.39 153.488C1134.26 153.544 1134.15 153.63 1134.06 153.74C1133.81 154.207 1132.13 158.346 1131.11 160.93C1131 161.19 1130.95 161.469 1130.96 161.749C1130.97 162.029 1131.04 162.304 1131.17 162.556C1131.29 162.807 1131.46 163.03 1131.68 163.209C1131.89 163.389 1132.14 163.521 1132.41 163.596C1132.67 163.669 1132.94 163.69 1133.2 163.658C1133.46 163.626 1133.72 163.542 1133.95 163.411C1134.18 163.279 1134.38 163.104 1134.55 162.893C1134.71 162.683 1134.83 162.442 1134.9 162.185Z" fill="#985D4B"/>
</g>
<g clip-path="url(#clip4_3697:8210)">
<g clip-path="url(#clip5_3697:8210)">
<path d="M659.46 202.47C658.463 200.603 657.306 198.826 656 197.16C655.09 196.03 653.47 194.77 653.26 193.32C653 195.13 651.83 196.43 650.48 198.17C648.43 193.34 648.63 187.77 644.74 183.73C642.56 181.47 639.09 179.84 637.5 177.13C636.45 175.32 636.08 173.01 635.17 171.13C634.02 175.89 633.67 179.55 630.69 183.66C627.71 187.77 628.62 193.27 625.39 196.99C621.83 201.09 623.12 189.8 623 188.2C622.955 186.482 622.592 184.786 621.93 183.2C621.38 181.78 621.32 178.11 622.65 174.89C621.33 175.69 617.65 182.1 616.4 183.39C615.13 182.02 615.11 179.65 614.66 177.86C614.039 175.64 613.188 173.492 612.12 171.45C611.06 169.28 609.12 166.7 608.95 164.24C609.14 170.66 601.4 175.86 598.08 180.54C595.99 183.392 594.618 186.705 594.08 190.2C593.82 192.2 594.08 195.25 592.9 196.9C592.24 194.66 592.43 192.26 591.3 190.13C590.36 188.37 588.43 187.48 587.98 185.53C589.36 191.53 580.36 202.78 578.36 207.28C576.36 210.94 573.18 211.61 576.5 215L601.86 215.78L659.45 214.06C660.09 210 661.52 206.25 659.46 202.47ZM609.72 163.11C609.72 163 609.72 162.89 609.72 162.78C609.71 162.89 609.71 163 609.72 163.11Z" fill="#E9CE00"/>
<path d="M659.44 198.73C658.444 196.863 657.286 195.086 655.98 193.42C655.07 192.29 653.45 191.03 653.24 189.58C652.98 191.39 651.81 192.69 650.46 194.43C648.41 189.6 648.61 184.03 644.72 179.99C642.54 177.73 639.07 176.1 637.48 173.39C636.43 171.58 636.06 169.27 635.15 167.39C634 172.15 633.65 175.81 630.67 179.92C627.69 184.03 628.6 189.53 625.37 193.25C621.81 197.35 623.1 186.06 622.98 184.46C622.94 182.741 622.577 181.045 621.91 179.46C621.36 178.04 621.31 174.37 622.63 171.15C621.31 171.95 617.63 178.36 616.39 179.65C615.11 178.28 615.09 175.91 614.64 174.12C614.019 171.901 613.169 169.752 612.1 167.71C611.04 165.54 609.1 162.96 608.93 160.5C609.12 166.92 601.38 172.12 598.06 176.8C595.965 179.649 594.592 182.964 594.06 186.46C593.79 188.46 594.06 191.51 592.87 193.16C592.21 190.92 592.4 188.52 591.27 186.39C590.33 184.63 588.4 183.74 587.95 181.79C589.33 187.79 579.95 193.79 577.44 198.35C575.44 202.01 572.01 204.65 575.33 208.04H582.33C582.06 205.64 584.33 203.66 584.83 203.04C586.83 200.54 587.09 201.66 587.78 197.67C587.97 199.14 589.28 200.34 589.91 201.67C590.473 202.58 590.948 203.541 591.33 204.54C592.33 201.83 592.89 202.28 595.04 200.14C596.948 198.284 598.349 195.971 599.11 193.42C599.95 190.42 600.32 187.67 601.76 184.97C603.2 182.27 605.3 180.32 607.03 178.03C607.32 177.92 607.75 177.49 607.62 177.2C607.43 177.48 607.23 177.75 607.03 178.03C606.34 180.15 609.3 184.23 609.65 185.94C610.001 187.833 610.071 189.767 609.86 191.68C611.46 188.59 615.45 187.68 617.74 185.1C617.92 184.51 617.66 184.38 618.52 183.52C617.66 184.38 617.66 184.38 617.74 185.1C616.86 187.98 619.68 192.01 620.9 194.2C622.59 197.2 624.48 203.2 622.74 206.51C624.93 202.18 628.97 199.68 631.95 195.83C634.93 191.98 634.3 186.04 637.85 182.76C635.5 186.93 642.07 190.43 643.72 193.67C645.37 196.91 646.94 202.67 645.45 205.95C646.33 203.69 650.97 202.03 651.83 200.32C651.849 200.129 651.892 199.94 651.96 199.76C651.965 199.955 651.92 200.148 651.83 200.32C651.68 201.51 652.34 202.93 652.46 204.17C652.536 205.817 652.432 207.466 652.15 209.09C652.082 209.692 651.982 210.289 651.85 210.88L659.42 210.32C660.07 206.26 661.5 202.51 659.44 198.73Z" fill="#D88200"/>
<path d="M715.53 279.13L815.92 185.44L817.19 186.8C817.639 187.28 817.989 187.843 818.219 188.458C818.45 189.073 818.558 189.728 818.535 190.385C818.513 191.041 818.361 191.687 818.089 192.285C817.817 192.883 817.43 193.422 816.95 193.87L723.87 280.74C723.39 281.188 722.826 281.537 722.21 281.767C721.595 281.997 720.94 282.103 720.283 282.08C719.627 282.057 718.981 281.904 718.383 281.632C717.786 281.359 717.248 280.971 716.8 280.49L715.53 279.13Z" fill="#434A54"/>
<path d="M707.572 80.2627L617.952 163.893C611.895 169.545 611.567 179.037 617.219 185.094L700.849 274.714C706.501 280.771 715.993 281.099 722.05 275.447L811.67 191.816C817.727 186.164 818.055 176.673 812.403 170.616L728.772 80.9956C723.12 74.9389 713.629 74.6107 707.572 80.2627Z" fill="#656D78"/>
<path d="M758.22 137.02C766.251 145.624 771.55 156.417 773.447 168.033C775.344 179.649 773.754 191.567 768.878 202.279C764.001 212.992 756.058 222.017 746.052 228.215C736.047 234.413 724.427 237.505 712.664 237.099C700.901 236.694 689.523 232.809 679.968 225.937C670.413 219.064 663.11 209.513 658.983 198.49C654.856 187.467 654.091 175.469 656.783 164.011C659.476 152.553 665.506 142.151 674.11 134.12C679.823 128.787 686.531 124.633 693.85 121.893C701.169 119.152 708.955 117.881 716.766 118.15C724.576 118.419 732.257 120.224 739.37 123.462C746.483 126.7 752.888 131.307 758.22 137.02Z" fill="#434A54"/>
<path d="M750.97 143.79C757.662 150.96 762.077 159.954 763.657 169.634C765.238 179.314 763.912 189.245 759.848 198.171C755.784 207.098 749.165 214.618 740.826 219.783C732.488 224.947 722.806 227.523 713.004 227.184C703.202 226.846 693.72 223.609 685.758 217.882C677.796 212.154 671.711 204.195 668.273 195.009C664.834 185.824 664.196 175.825 666.441 166.277C668.685 156.73 673.71 148.062 680.88 141.37C690.497 132.399 703.282 127.614 716.426 128.068C729.57 128.521 741.995 134.177 750.97 143.79Z" fill="#656D78"/>
<path d="M747.97 167.39L718.34 174.24L727.22 145.15C727.329 144.835 727.373 144.501 727.35 144.169C727.327 143.837 727.238 143.512 727.087 143.216C726.936 142.919 726.726 142.655 726.471 142.441C726.216 142.227 725.92 142.066 725.602 141.969C725.283 141.871 724.948 141.839 724.617 141.874C724.286 141.909 723.965 142.01 723.673 142.171C723.382 142.333 723.126 142.552 722.921 142.814C722.716 143.077 722.566 143.378 722.48 143.7L713.59 172.8L692.84 150.56C692.624 150.301 692.357 150.09 692.056 149.938C691.756 149.786 691.427 149.697 691.091 149.676C690.754 149.655 690.417 149.703 690.1 149.817C689.783 149.931 689.492 150.109 689.245 150.339C688.999 150.569 688.802 150.846 688.667 151.155C688.531 151.464 688.461 151.797 688.458 152.134C688.456 152.471 688.522 152.805 688.653 153.115C688.784 153.426 688.977 153.707 689.22 153.94L709.97 176.18L680.33 183.03C679.705 183.193 679.168 183.593 678.834 184.146C678.5 184.699 678.394 185.361 678.54 185.99C678.686 186.619 679.072 187.167 679.616 187.516C680.159 187.865 680.817 187.989 681.45 187.86L711.09 181.01L702.21 210.1C702.044 210.721 702.126 211.381 702.437 211.943C702.749 212.505 703.266 212.924 703.881 213.112C704.495 213.3 705.158 213.242 705.731 212.95C706.303 212.659 706.74 212.157 706.95 211.55L715.83 182.46L736.58 204.7C737.03 205.181 737.652 205.464 738.31 205.487C738.969 205.509 739.609 205.27 740.09 204.82C740.572 204.37 740.855 203.748 740.877 203.09C740.9 202.432 740.66 201.791 740.21 201.31L719.46 179.07L749.09 172.22C749.415 172.154 749.723 172.023 749.996 171.836C750.27 171.649 750.503 171.409 750.682 171.13C750.862 170.852 750.983 170.54 751.04 170.213C751.096 169.887 751.087 169.552 751.012 169.229C750.937 168.907 750.798 168.602 750.604 168.334C750.409 168.066 750.163 167.839 749.879 167.668C749.596 167.496 749.281 167.383 748.953 167.336C748.625 167.288 748.291 167.306 747.97 167.39Z" fill="#434A54"/>
<path d="M675.8 135.93C675.441 136.264 675.19 136.697 675.077 137.174C674.964 137.651 674.995 138.151 675.166 138.61C675.337 139.069 675.641 139.468 676.038 139.755C676.435 140.042 676.909 140.205 677.399 140.223C677.889 140.241 678.373 140.114 678.79 139.857C679.208 139.6 679.539 139.225 679.744 138.78C679.948 138.334 680.016 137.838 679.939 137.354C679.862 136.87 679.643 136.42 679.31 136.06C678.861 135.579 678.24 135.295 677.582 135.271C676.924 135.246 676.284 135.483 675.8 135.93Z" fill="#AAB2BC"/>
<path d="M750.24 215.69C749.881 216.024 749.629 216.458 749.516 216.936C749.403 217.413 749.435 217.914 749.607 218.373C749.778 218.833 750.083 219.232 750.482 219.518C750.88 219.805 751.354 219.967 751.845 219.984C752.335 220.001 752.82 219.871 753.237 219.613C753.654 219.354 753.985 218.977 754.188 218.531C754.391 218.084 754.457 217.587 754.377 217.102C754.297 216.618 754.075 216.168 753.74 215.81C753.291 215.331 752.671 215.049 752.015 215.027C751.359 215.004 750.72 215.243 750.24 215.69Z" fill="#AAB2BC"/>
<path d="M664.91 162.42C665.053 161.951 665.054 161.449 664.912 160.98C664.77 160.51 664.492 160.093 664.113 159.781C663.734 159.469 663.271 159.277 662.783 159.228C662.294 159.18 661.802 159.277 661.37 159.509C660.937 159.74 660.582 160.094 660.351 160.527C660.12 160.96 660.022 161.451 660.07 161.94C660.118 162.428 660.31 162.891 660.621 163.271C660.933 163.65 661.35 163.928 661.82 164.07C662.448 164.26 663.127 164.193 663.706 163.884C664.285 163.575 664.718 163.048 664.91 162.42Z" fill="#AAB2BC"/>
<path d="M764.51 192.83C764.368 193.299 764.367 193.8 764.509 194.269C764.651 194.738 764.929 195.155 765.307 195.466C765.686 195.778 766.149 195.97 766.637 196.019C767.124 196.067 767.615 195.97 768.048 195.74C768.481 195.51 768.836 195.156 769.068 194.724C769.3 194.293 769.399 193.802 769.352 193.314C769.305 192.826 769.114 192.363 768.805 191.983C768.495 191.603 768.079 191.324 767.61 191.18C767.298 191.083 766.971 191.049 766.645 191.079C766.32 191.11 766.004 191.205 765.716 191.358C765.428 191.511 765.173 191.72 764.966 191.973C764.759 192.226 764.604 192.517 764.51 192.83Z" fill="#AAB2BC"/>
<path d="M662.15 192.33C662.626 192.215 663.057 191.961 663.389 191.602C663.721 191.242 663.939 190.792 664.015 190.309C664.092 189.825 664.024 189.33 663.82 188.885C663.616 188.44 663.285 188.066 662.868 187.809C662.451 187.552 661.968 187.424 661.479 187.441C660.99 187.458 660.516 187.62 660.119 187.906C659.721 188.191 659.417 188.588 659.245 189.046C659.073 189.504 659.04 190.003 659.15 190.48C659.224 190.799 659.361 191.101 659.552 191.367C659.743 191.633 659.985 191.859 660.264 192.031C660.543 192.203 660.854 192.318 661.178 192.369C661.501 192.42 661.832 192.407 662.15 192.33Z" fill="#AAB2BC"/>
<path d="M767.3 162.92C766.824 163.035 766.393 163.289 766.061 163.648C765.73 164.008 765.511 164.458 765.435 164.942C765.358 165.425 765.426 165.92 765.63 166.365C765.835 166.81 766.166 167.184 766.582 167.441C766.999 167.698 767.482 167.826 767.971 167.809C768.46 167.791 768.934 167.63 769.331 167.344C769.729 167.059 770.033 166.662 770.205 166.204C770.377 165.746 770.41 165.247 770.3 164.77C770.227 164.45 770.091 164.148 769.9 163.881C769.709 163.614 769.467 163.388 769.188 163.216C768.909 163.043 768.598 162.929 768.274 162.878C767.95 162.827 767.618 162.841 767.3 162.92Z" fill="#AAB2BC"/>
<path d="M673.15 213.03C672.792 213.365 672.542 213.799 672.43 214.276C672.319 214.753 672.351 215.253 672.524 215.712C672.696 216.171 673 216.568 673.399 216.854C673.797 217.14 674.271 217.302 674.76 217.319C675.25 217.335 675.734 217.207 676.151 216.949C676.568 216.69 676.899 216.315 677.102 215.869C677.306 215.422 677.372 214.926 677.293 214.442C677.215 213.958 676.994 213.509 676.66 213.15C676.438 212.91 676.172 212.716 675.875 212.58C675.578 212.444 675.257 212.369 674.93 212.357C674.604 212.346 674.278 212.4 673.973 212.515C673.667 212.631 673.388 212.806 673.15 213.03Z" fill="#AAB2BC"/>
<path d="M752.9 138.64C752.541 138.974 752.288 139.408 752.176 139.885C752.063 140.363 752.095 140.864 752.267 141.323C752.438 141.783 752.743 142.181 753.141 142.468C753.539 142.755 754.014 142.917 754.505 142.934C754.995 142.95 755.48 142.821 755.897 142.563C756.314 142.304 756.645 141.927 756.848 141.48C757.051 141.034 757.116 140.536 757.037 140.052C756.957 139.568 756.735 139.118 756.4 138.76C755.951 138.281 755.331 137.999 754.675 137.977C754.019 137.954 753.38 138.193 752.9 138.64Z" fill="#AAB2BC"/>
<path d="M696.41 229.07C696.267 229.539 696.267 230.04 696.409 230.509C696.551 230.978 696.829 231.395 697.208 231.706C697.586 232.018 698.048 232.21 698.536 232.259C699.024 232.308 699.516 232.211 699.948 231.98C700.381 231.75 700.735 231.396 700.967 230.965C701.199 230.533 701.298 230.042 701.252 229.554C701.205 229.066 701.014 228.603 700.704 228.223C700.394 227.843 699.979 227.564 699.51 227.42C698.88 227.232 698.202 227.3 697.622 227.609C697.042 227.918 696.606 228.443 696.41 229.07Z" fill="#AAB2BC"/>
<path d="M728.27 124.73C728.128 125.199 728.127 125.7 728.269 126.169C728.411 126.638 728.689 127.055 729.068 127.366C729.446 127.678 729.909 127.87 730.396 127.919C730.884 127.967 731.376 127.871 731.808 127.64C732.241 127.41 732.596 127.056 732.828 126.625C733.06 126.193 733.159 125.702 733.112 125.214C733.065 124.726 732.874 124.263 732.564 123.883C732.254 123.503 731.839 123.224 731.37 123.08C731.059 122.983 730.73 122.949 730.405 122.979C730.08 123.01 729.764 123.105 729.476 123.258C729.188 123.411 728.932 123.621 728.725 123.873C728.518 124.126 728.364 124.417 728.27 124.73Z" fill="#AAB2BC"/>
<path d="M701.86 122.06C701.385 122.175 700.954 122.428 700.622 122.787C700.29 123.146 700.071 123.595 699.993 124.078C699.916 124.561 699.983 125.056 700.186 125.501C700.389 125.946 700.72 126.321 701.135 126.579C701.551 126.836 702.034 126.965 702.523 126.949C703.012 126.934 703.484 126.774 703.882 126.489C704.281 126.205 704.586 125.81 704.76 125.353C704.934 124.895 704.969 124.397 704.86 123.92C704.786 123.601 704.649 123.299 704.458 123.032C704.267 122.766 704.026 122.539 703.747 122.367C703.468 122.194 703.158 122.078 702.834 122.025C702.51 121.973 702.179 121.984 701.86 122.06Z" fill="#AAB2BC"/>
<path d="M729.21 164.09C731.89 166.96 733.658 170.56 734.29 174.436C734.922 178.311 734.39 182.286 732.762 185.859C731.133 189.432 728.481 192.441 725.141 194.506C721.802 196.57 717.925 197.598 714.001 197.457C710.077 197.317 706.283 196.016 703.099 193.718C699.915 191.421 697.484 188.23 696.115 184.55C694.745 180.87 694.498 176.867 695.406 173.047C696.313 169.227 698.333 165.761 701.21 163.09C705.059 159.517 710.168 157.615 715.417 157.803C720.666 157.99 725.626 160.251 729.21 164.09Z" fill="#434A54"/>
<path d="M716.52 175.93C716.855 176.288 717.077 176.738 717.157 177.222C717.236 177.706 717.171 178.203 716.968 178.65C716.765 179.097 716.434 179.474 716.017 179.733C715.6 179.991 715.115 180.12 714.624 180.104C714.134 180.087 713.66 179.925 713.261 179.638C712.863 179.352 712.559 178.953 712.387 178.493C712.215 178.034 712.183 177.533 712.296 177.056C712.409 176.578 712.661 176.144 713.02 175.81C713.5 175.363 714.139 175.124 714.795 175.146C715.451 175.169 716.071 175.451 716.52 175.93Z" fill="#AAB2BC"/>
<path d="M714.169 83.8584L621.083 170.723C618.862 172.796 618.742 176.276 620.814 178.497L707.679 271.582C709.751 273.803 713.232 273.924 715.453 271.851L808.538 184.986C810.759 182.914 810.88 179.434 808.807 177.213L721.943 84.1272C719.87 81.9064 716.39 81.7861 714.169 83.8584Z" stroke="#434A54"/>
<path d="M625.201 177.988L621.853 181.113L632.782 192.825L636.131 189.7L625.201 177.988Z" fill="#434A54"/>
<path d="M752.671 113.311L748.766 116.955L777.394 147.632L781.298 143.989L752.671 113.311Z" fill="#434A54"/>
<path d="M704.534 212.76C701.174 208.21 701.354 204.48 701.714 199.66C702.034 195.44 699.944 192.07 697.184 188.34C697.574 190.63 696.534 195.85 694.604 197.69C694.034 193.4 693.714 189.23 691.694 185.1C689.844 181.3 685.574 178.56 682.764 175C686.394 179.55 676.634 186.74 674.114 191.17C670.914 196.79 672.734 202.58 672.914 208.3C671.914 206.3 668.304 204.3 666.444 202.84C671.274 209.64 659.574 216.63 657.674 222.95C656.294 227.53 656.844 232.36 661.104 236.11C664.264 241.11 669.964 246.16 680.104 247.27C691.504 248.53 701.604 245.62 707.004 240.41C716.184 231.55 711.124 221.7 704.534 212.76Z" fill="#D88200"/>
<path d="M701.264 227.07C700.544 219.44 693.464 212.35 694.494 204.49C693.884 206.39 690.854 208.97 690.354 211.04C688.744 208.37 689.354 205.22 687.414 202.32C685.724 199.75 684.034 196.72 684.094 193.91C683.644 196 680.854 198.2 680.444 200.38C679.984 202.83 680.384 205.38 680.094 207.9C679.804 210.42 677.184 212.23 675.474 214.64C674.104 216.64 674.834 219 673.324 220.92C672.194 219.09 672.494 217.31 669.264 216C669.904 218.71 667.084 221.08 666.574 223.68C666.062 226.35 666.255 229.107 667.134 231.68C668.374 235.07 671.084 240.9 680.184 242.55C686.584 243.72 695.723 240.98 698.563 238.48C702.193 235.29 701.624 230.84 701.264 227.07ZM684.144 193.18C684.112 193.422 684.096 193.666 684.094 193.91C684.145 193.67 684.162 193.425 684.144 193.18ZM694.494 204.49C694.572 204.269 694.61 204.035 694.604 203.8C694.564 204.03 694.524 204.26 694.494 204.49Z" fill="#E9CE00"/>
<path d="M728.898 226.069C728.423 226.184 727.992 226.437 727.66 226.796C727.328 227.155 727.109 227.604 727.031 228.087C726.954 228.57 727.021 229.065 727.224 229.51C727.427 229.955 727.758 230.33 728.173 230.588C728.589 230.845 729.072 230.975 729.561 230.959C730.049 230.943 730.523 230.783 730.921 230.499C731.319 230.214 731.624 229.819 731.798 229.362C731.972 228.904 732.007 228.406 731.898 227.929C731.825 227.609 731.689 227.307 731.499 227.039C731.308 226.772 731.066 226.545 730.787 226.372C730.508 226.199 730.197 226.083 729.873 226.031C729.549 225.979 729.217 225.992 728.898 226.069Z" fill="#AAB2BC"/>
<path d="M844.31 209.92C843.158 207.754 841.82 205.693 840.31 203.76C839.26 202.44 837.38 200.99 837.13 199.3C836.83 201.41 835.47 202.91 833.91 204.93C831.53 199.33 831.77 192.87 827.26 188.18C824.72 185.55 820.7 183.66 818.85 180.52C817.63 178.42 817.2 175.74 816.14 173.52C814.81 179.04 814.41 183.28 810.95 188.06C807.63 192.66 808.55 199.2 804.8 203.52C800.67 208.28 802.17 195.17 802.03 193.32C801.978 191.335 801.554 189.378 800.78 187.55C800.15 185.91 800.09 181.65 801.62 177.92C800.09 178.84 795.85 186.28 794.38 187.78C792.9 186.19 792.88 183.43 792.38 181.36C791.658 178.787 790.669 176.297 789.43 173.93C788.19 171.41 785.97 168.41 785.75 165.56C785.97 173.01 776.99 179.05 773.14 184.47C770.73 187.783 769.152 191.628 768.54 195.68C768.23 198.04 768.54 201.53 767.16 203.46C766.4 200.86 766.62 198.06 765.31 195.59C764.22 193.59 761.98 192.52 761.46 190.26C763.06 197.26 752.17 204.15 749.27 209.47C746.95 213.71 744.57 225.84 748.43 229.77H777.93L844.38 223.35C845.04 218.64 846.7 214.3 844.31 209.92ZM786.61 164.26C786.61 164.13 786.61 164 786.61 163.88C786.59 164 786.6 164.13 786.61 164.26Z" fill="#E9CE00"/>
<path d="M844.31 209.92C843.158 207.755 841.82 205.693 840.31 203.76C839.26 202.44 837.38 200.99 837.13 199.3C836.83 201.41 835.47 202.91 833.91 204.93C831.53 199.33 831.77 192.87 827.26 188.18C824.72 185.55 820.7 183.66 818.86 180.52C817.63 178.42 817.2 175.74 816.14 173.52C814.81 179.04 814.41 183.28 810.95 188.06C807.63 192.66 808.55 199.2 804.8 203.52C800.68 208.28 802.17 195.17 802.03 193.32C801.978 191.336 801.554 189.378 800.78 187.55C800.15 185.91 800.09 181.65 801.62 177.92C800.09 178.84 795.85 186.28 794.38 187.78C792.9 186.19 792.88 183.43 792.38 181.36C791.658 178.787 790.669 176.297 789.43 173.93C788.19 171.41 785.97 168.41 785.75 165.56C785.97 173.01 776.99 179.05 773.14 184.47C770.73 187.784 769.152 191.628 768.54 195.68C768.23 198.04 768.54 201.53 767.16 203.46C766.4 200.86 766.62 198.06 765.31 195.59C764.22 193.59 761.98 192.52 761.46 190.26C763.06 197.26 752.17 204.15 749.27 209.47C746.95 213.71 744.58 226.09 748.43 230.02H754.68C754.505 227.224 754.782 224.418 755.5 221.71C756.58 217.03 760.5 213.31 761.26 208.71C761.48 210.42 763 211.81 763.73 213.35C764.63 215.24 764.49 217.27 765.11 219.12C766.32 215.99 767.19 214.06 769.68 211.57C771.895 209.421 773.521 206.738 774.4 203.78C775.4 200.36 775.81 197.11 777.48 193.97C779.15 190.83 781.58 188.58 783.59 185.97C783.93 185.85 784.43 185.35 784.28 184.97C784.06 185.303 783.83 185.637 783.59 185.97C782.79 188.44 786.22 193.17 786.59 195.16C786.995 197.356 787.079 199.6 786.84 201.82C788.69 198.23 793.32 197.2 795.98 194.18C796.19 193.5 795.89 193.35 796.89 192.35C795.89 193.35 795.89 193.35 795.98 194.18C794.98 197.52 798.23 202.18 799.64 204.74C801.64 208.25 803.79 215.21 801.78 219.02C804.32 214.02 809.01 211.1 812.46 206.63C815.91 202.16 815.19 195.27 819.31 191.46C816.58 196.3 824.21 200.37 826.12 204.12C827.94 207.71 829.85 214.52 828.12 218.37C829.12 215.75 834.52 213.82 835.51 211.83C835.538 211.611 835.592 211.397 835.67 211.19C835.67 211.413 835.615 211.633 835.51 211.83C835.34 213.22 836.11 214.83 836.25 216.3C836.34 218.211 836.219 220.126 835.89 222.01C835.81 222.709 835.693 223.403 835.54 224.09L844.33 223.43C845.04 218.64 846.7 214.3 844.31 209.92Z" fill="#D88200"/>
</g>
</g>
</g>
</g>
</g>
<defs>
<clipPath id="clip0_3697:8210">
<rect width="1380" height="300" fill="white"/>
</clipPath>
<clipPath id="clip1_3697:8210">
<rect width="2050.95" height="443.51" fill="white" transform="translate(-335 -72)"/>
</clipPath>
<clipPath id="clip2_3697:8210">
<rect width="1900" height="300" fill="white" transform="translate(-518)"/>
</clipPath>
<clipPath id="clip3_3697:8210">
<rect width="537" height="278" fill="white" transform="translate(878 41)"/>
</clipPath>
<clipPath id="clip4_3697:8210">
<rect width="273" height="187" fill="white" transform="translate(573 43)"/>
</clipPath>
<clipPath id="clip5_3697:8210">
<rect width="271.55" height="206.09" fill="white" transform="translate(574 76)"/>
</clipPath>
</defs>
</svg>
