<svg width="10" height="9" viewBox="0 0 10 9" fill="none" xmlns="http://www.w3.org/2000/svg">
<path d="M4.0575 8.02565C4.00917 7.97857 3.8025 7.80078 3.6325 7.63517C2.56333 6.66423 0.813333 4.13135 0.279167 2.80565C0.193334 2.60432 0.0116672 2.09531 -7.97011e-08 1.82335C-6.83101e-08 1.56275 0.0600004 1.31434 0.181667 1.07728C0.351667 0.781782 0.619166 0.544731 0.935 0.41484C1.15417 0.331222 1.81 0.201331 1.82167 0.201331C2.53917 0.0714398 3.705 -2.75163e-07 4.99333 -2.18848e-07C6.22083 -1.65193e-07 7.33917 0.07144 8.0675 0.177789C8.07917 0.189966 8.89417 0.319857 9.17333 0.461926C9.68333 0.72252 10 1.23153 10 1.77626L10 1.82335C9.9875 2.17811 9.67083 2.92418 9.65917 2.92418C9.12417 4.17844 7.46 6.65287 6.35417 7.64734C6.35417 7.64734 6.07 7.92742 5.8925 8.0492C5.6375 8.23916 5.32167 8.33333 5.00583 8.33333C4.65333 8.33333 4.325 8.22698 4.0575 8.02565Z" fill="#FAFAFA"/>
</svg>
