<svg width="1388" height="408" viewBox="0 0 1388 408" fill="none" xmlns="http://www.w3.org/2000/svg">
<g clip-path="url(#clip0_3706:9375)">
<path d="M1383.82 -235H4V684.496H1383.82V-235Z" fill="#D4BBFF"/>
<path d="M1383.82 -27.9297C1381.06 -26.0907 1379.58 -23.8839 1380.5 -21.4932C1376.27 -31.9754 1366.15 -39.8831 1354.93 -41.5382C1343.71 -43.1933 1331.75 -38.4119 1324.76 -29.5848C1326.97 -43.9289 1315.93 -59.0086 1301.76 -61.3993C1287.41 -63.79 1272.14 -53.3077 1269.38 -39.1475C1269.02 -52.3882 1249.15 -59.7442 1240.13 -49.9976C1239.95 -63.6061 1231.48 -76.6629 1219.16 -82.1799C1206.83 -87.6969 1191.38 -85.3062 1181.26 -76.479C1184.57 -94.8689 1169.48 -112.707 1151.64 -118.224C1135.08 -123.189 1118.34 -116.753 1103.25 -109.213C1101.23 -129.258 1082.83 -143.97 1064.07 -151.326C1035.55 -162.36 1001.88 -161.257 975.391 -145.993C948.898 -130.729 930.685 -100.754 931.972 -70.2265C912.471 -80.5248 884.691 -69.1231 878.252 -47.9747C875.676 -65.9968 857.83 -80.5248 839.617 -79.4214C821.403 -78.318 805.397 -61.7671 805.029 -43.5611C800.614 -51.101 788.288 -50.9171 782.4 -44.4806C776.513 -38.0441 776.329 -27.7458 779.641 -19.6542C774.122 -24.8034 763.267 -19.8381 763.451 -12.2982C757.932 -30.3204 732.359 -35.8373 716.353 -25.9068C700.347 -15.9762 693.172 3.88489 692.252 22.8265C686.733 17.6773 676.982 18.229 672.199 23.9299C667.416 29.6308 668.52 39.3774 674.407 43.9749C663.736 40.8486 652.514 37.9062 641.843 40.6647C631.173 43.4232 621.79 54.641 625.101 65.1233C615.167 59.6063 600.633 69.5368 602.288 80.7547C589.594 67.6979 564.022 73.0309 557.398 89.9497C546.912 88.2946 536.057 89.5819 526.123 93.6276C546.36 100.984 568.989 102.087 589.778 96.7539C596.217 106.501 612.591 107.236 619.766 98.0412C630.805 111.098 655.641 107.052 661.712 91.0531C687.653 112.937 734.383 99.8802 745.237 67.6979C757.196 83.6971 784.424 84.4327 797.302 69.1691C798.59 80.203 808.341 89.7658 819.379 90.8692C830.418 91.9725 841.824 84.6166 845.32 74.1344C874.02 106.868 933.26 104.846 959.753 70.2725C970.239 86.0878 989.373 96.0183 1008.32 95.4666C1027.27 94.9149 1045.85 84.0649 1055.42 67.6979C1065.35 81.8581 1087.62 85.3522 1101.41 74.8699C1119.63 93.4438 1154.21 90.8692 1169.67 70.0886C1175.56 88.2946 1193.59 101.719 1212.72 102.087C1231.85 102.455 1250.43 89.7658 1257.06 71.7437C1262.21 82.4098 1278.77 84.9844 1287.05 76.525C1300.11 98.9607 1337.27 101.535 1353.28 80.9386C1361.19 90.3175 1371.86 96.9378 1383.63 100.248V-27.9297H1383.82Z" fill="#B995F5"/>
<path d="M486.936 0.75856C482.336 -11.1949 464.123 -14.8729 455.108 -5.6779C456.212 -13.7695 446.093 -20.7576 438.918 -16.7119C441.31 -24.2517 434.687 -31.9755 427.144 -33.9984C419.601 -36.0213 411.69 -33.8145 404.147 -31.6077C408.378 -34.734 409.114 -41.7221 405.802 -45.7679C402.307 -49.8137 395.5 -50.1815 391.636 -46.6874C391.084 -60.112 385.933 -74.0884 374.527 -81.2604C363.12 -88.2486 345.091 -84.3867 341.227 -71.5138C341.411 -76.8469 333.684 -80.3409 329.821 -76.663C332.212 -82.3638 332.028 -89.5359 327.797 -94.3173C323.565 -98.9147 314.919 -99.0986 311.791 -93.7656C311.423 -106.639 300.201 -118.408 287.322 -119.144C274.444 -119.879 261.75 -109.765 259.91 -96.8919C255.311 -111.972 235.809 -120.063 221.827 -112.707C222.747 -134.407 209.869 -155.556 191.103 -166.406C172.338 -177.256 148.421 -177.991 128.183 -170.268C114.753 -165.118 101.875 -154.636 100.403 -140.476C89.9165 -145.809 78.1421 -150.407 66.3677 -146.729C53.6734 -142.867 42.8188 -130.178 45.2105 -117.305C38.0355 -123.557 26.9969 -125.212 18.3501 -121.35C10.9911 -118.04 5.65578 -111.052 4 -103.328V3.51704C9.51926 7.19504 16.1424 9.21794 22.7655 9.21794C36.3797 9.03404 49.074 -0.528717 53.3054 -13.5856C64.16 1.12637 88.8127 2.96536 101.691 -10.0915C111.442 -2.7355 127.264 -5.12621 134.255 -15.2407C141.062 -3.65501 154.124 4.06874 167.554 4.43655C180.984 4.80435 194.415 -2.18382 201.958 -13.4017C220.723 11.0569 262.67 12.5281 282.907 -10.6432C285.482 -3.10332 293.393 2.04587 301.304 1.31027C309.215 0.574677 316.022 -6.2296 316.942 -14.1373C325.957 -3.28722 345.275 -3.83891 353.737 -15.0568C361.464 7.74673 394.396 16.9417 412.793 1.49417C417.209 12.712 434.687 15.6544 442.414 6.45944C447.565 13.0798 459.155 12.5281 463.755 5.53995C478.473 9.40184 494.479 8.48235 508.829 3.33318C502.022 0.390778 494.295 -0.528732 486.936 0.75856Z" fill="#B995F5"/>
<path d="M328.717 73.9505C325.405 73.9505 322.094 74.87 319.15 76.709C318.23 73.3988 313.999 71.3759 310.871 72.8471C309.951 73.3988 309.031 74.1344 307.927 74.3183C305.536 74.87 303.512 72.6632 301.856 70.8242C297.257 65.4912 291.554 60.7098 284.747 58.8708C277.94 57.0318 269.845 58.503 265.061 63.6522C267.269 61.2615 252.919 53.1699 251.263 52.6182C244.824 50.5953 238.385 50.7792 233.417 55.9284C230.842 42.5038 219.987 30.9181 206.741 27.6079C193.495 24.2978 178.409 29.6308 169.946 40.297C169.946 31.102 156.884 25.2173 149.893 31.102C150.996 20.0681 134.255 12.896 126.896 21.1715C132.231 5.72395 124.872 -13.0338 110.338 -20.5736C95.8038 -28.1135 76.1184 -23.3321 66.7356 -9.90748C66.5517 -21.1253 66.1837 -32.711 60.6644 -42.2737C55.1452 -51.8365 42.2669 -58.273 32.5162 -52.9399C37.8515 -61.9509 27.7328 -75.1917 17.6142 -72.6171C24.2373 -74.0883 20.5578 -92.2943 19.086 -95.7884C16.1424 -103.144 10.8071 -108.294 4 -111.788V95.8345C5.65578 97.1218 7.49553 98.2252 9.51926 99.1447C13.5667 100.8 17.9821 101.535 22.3975 101.535C33.0681 101.351 43.5547 96.0184 49.6259 87.3752C50.9137 94.7311 59.9285 98.593 67.1036 97.1218C74.4626 95.6506 80.3498 90.3176 85.6851 85.1684C98.0115 96.2023 115.121 101.719 131.495 100.248C148.053 98.7769 163.691 90.3175 173.993 77.4446C177.857 85.7201 188.343 89.2142 197.358 87.743C206.373 86.4557 214.284 81.3065 221.827 75.9734C225.506 85.7201 240.408 88.6625 247.584 80.9387C257.886 89.0303 274.076 88.1108 283.459 79.0997C288.242 84.4328 297.257 84.9845 302.592 80.2031C304.616 83.8811 309.951 83.6972 313.999 83.1455C319.702 82.226 325.589 81.4904 331.292 80.5709C332.212 80.387 333.132 80.2031 333.868 79.6514C336.26 77.2607 332.028 73.7666 328.717 73.9505Z" fill="#B995F5"/>
<path opacity="0.15" d="M1330.1 -235L1100.31 347.409H929.213L1235.53 -235H1330.1Z" fill="#C1A1F7"/>
<path opacity="0.15" d="M1132.14 -235L865.373 347.409H520.051L840.537 -235H1132.14Z" fill="#C1A1F7"/>
<path opacity="0.2" d="M1070.14 -235L806.685 347.409H702.003L1013.47 -235H1070.14Z" fill="#C1A1F7"/>
<path opacity="0.2" d="M942.459 -235L640.004 347.409H587.938L913.575 -235H942.459Z" fill="#C1A1F7"/>
<path opacity="0.15" d="M684.709 -235L387.221 347.409H297.073L639.819 -235H684.709Z" fill="#C1A1F7"/>
<path opacity="0.15" d="M371.215 -235L46.6823 347.409H4V163.142L264.141 -235H371.215Z" fill="#C1A1F7"/>
<path d="M1383.82 176.565C1332.12 155.785 1202.05 148.98 1073.08 152.474C813.86 159.647 483.808 243.321 216.676 310.996H1383.82V176.565Z" fill="#9D72F5"/>
<path d="M993.604 217.208C1093.13 208.197 1141.34 195.876 1141.34 195.876C1141.34 195.876 1070.32 230.449 1095.34 234.127C1120.36 237.989 1412.33 176.934 1296.24 158.912V158.728C1234.24 151.924 1153.48 150.085 1073.27 152.475C966.007 155.418 846.423 171.601 724.448 194.221C721.136 196.243 718.376 198.266 716.169 200.657C700.163 218.679 893.889 226.219 993.604 217.208Z" fill="#A881F4"/>
<path d="M1383.82 176.566C1369.83 170.865 1349.96 166.268 1325.86 162.59C1441.4 203.048 1301.95 324.237 993.604 301.434C701.083 279.734 652.514 229.161 682.686 202.128C623.63 213.714 564.39 226.587 505.701 240.195L501.102 310.629H1383.82V176.566Z" fill="#8D5FF5"/>
<path d="M780.745 310.629C780.745 310.629 621.79 224.012 379.862 180.428C137.934 137.028 4 161.303 4 161.303V310.629H780.745Z" fill="#A37BF5"/>
<path d="M426.408 212.427C640.003 252.885 780.745 310.445 780.745 310.445C780.745 310.445 621.79 223.828 379.862 180.244C137.934 136.66 4 161.303 4 161.303V189.807C4 189.807 176.201 165.165 426.408 212.427Z" fill="#B697F5"/>
<path d="M4 218.312C4 218.312 208.213 212.059 302.592 229.713C396.972 247.368 265.429 269.987 295.969 278.447C326.509 286.906 780.56 310.629 780.56 310.629H4V218.312Z" fill="#966AF5"/>
<path opacity="0.5" d="M781 311C781 311 621.993 223.88 379.986 180.043C137.978 136.391 4 160.807 4 160.807V311H781Z" fill="#895DDC"/>
<path d="M1383.82 200.105C1381.24 197.347 1378.85 196.979 1375.17 196.979C1374.06 196.979 1372.78 197.163 1371.67 197.531C1370.57 197.899 1369.83 198.634 1369.1 199.554C1366.89 201.944 1365.42 205.071 1364.87 208.381C1362.84 206.542 1359.53 205.622 1356.96 206.726C1354.38 208.013 1352.72 210.955 1352.91 213.898C1349.04 208.565 1341.5 206.174 1335.61 208.932C1329.73 211.691 1326.6 219.599 1329.91 225.299C1327.89 224.38 1325.31 225.116 1324.02 226.955C1322.74 228.794 1322.92 231.368 1324.58 233.023C1320.9 233.207 1317.22 233.943 1314.09 235.782C1310.96 237.621 1308.57 240.931 1308.39 244.425C1308.39 248.103 1311.15 251.781 1314.64 251.965C1312.62 252.149 1310.59 252.333 1308.94 253.252C1307.28 254.172 1305.81 256.011 1306.18 258.034C1306.55 260.424 1308.94 261.712 1311.15 262.815C1307.28 266.125 1307.1 272.745 1310.41 276.791C1313.72 280.837 1319.61 282.124 1324.58 280.837C1324.58 284.883 1327.15 288.561 1330.46 290.768C1333.77 292.974 1337.82 293.894 1341.87 294.262C1348.31 294.629 1355.3 293.342 1360.08 288.745H1383.82C1383.82 288.561 1383.82 200.105 1383.82 200.105Z" fill="#433068"/>
<path d="M1383.82 227.139C1377.56 225.116 1371.67 225.667 1366.34 229.713C1361 233.759 1359.16 242.034 1363.21 247.184C1358.43 245.712 1352.91 250.678 1353.64 255.643C1352.36 248.103 1342.61 249.023 1337.82 252.333C1334.14 255.091 1332.12 259.689 1332.3 264.102C1327.52 262.815 1322.18 267.229 1322.55 272.01C1317.77 269.068 1311.15 269.619 1306.73 273.297C1302.5 276.975 1300.84 283.412 1302.68 288.561C1300.29 288.377 1297.9 288.193 1295.69 289.113C1293.48 290.032 1291.64 292.055 1291.83 294.446C1288.88 291.871 1284.65 290.952 1280.97 291.871C1277.29 292.791 1273.98 295.733 1272.69 299.411C1269.38 297.756 1265.15 298.124 1262.39 300.514C1259.63 302.905 1258.34 306.951 1259.45 310.445H1383.82V227.139Z" fill="#6A42BC"/>
<path d="M1383.82 310.629H4V684.496H1383.82V310.629Z" fill="#8955F5"/>
<path d="M1383.82 395.958C1000.04 338.214 597.321 329.019 4 328.099V310.629H1383.82V395.958Z" fill="#996DF4"/>
<path d="M4 684.496V439.91C4 439.91 480.312 381.982 851.023 412.693C1221.73 443.404 1383.82 513.653 1383.82 513.653V684.496H4Z" fill="#97880F"/>
<path d="M887.082 310.629C944.85 324.237 1087.62 380.878 1122.75 411.222C1141.89 427.589 1114.48 430.347 1038.49 462.346C964.168 493.608 907.319 537.376 859.486 583.535C811.652 629.694 723.896 684.496 525.386 684.496H982.749C982.749 684.496 1001.7 660.405 1028.19 612.223C1056.52 560.548 1065.35 537.56 1155.13 497.47C1244.73 457.38 1277.29 449.105 1258.53 430.163C1234.98 406.624 1092.03 335.639 941.539 310.445H887.082V310.629Z" fill="#9E74F4"/>
<path d="M1133.06 365.063C1078.05 343.179 1010.53 322.03 941.355 310.445H887.083C916.151 317.249 966.744 334.903 1014.21 354.765C1054.5 357.891 1094.05 361.385 1133.06 365.063Z" fill="#AC88F4"/>
<path d="M4 200.105C6.57566 197.347 8.96734 196.979 12.6468 196.979C13.7507 196.979 15.0385 197.163 16.1424 197.531C17.2462 197.899 17.9821 198.634 18.718 199.554C20.9257 201.944 22.3975 205.071 22.9495 208.381C24.9732 206.542 28.2848 205.622 30.8604 206.726C33.4361 208.013 35.0919 210.955 34.9079 213.898C38.7714 208.565 46.3144 206.174 52.2016 208.932C58.0888 211.691 61.2164 219.599 57.9048 225.299C59.9285 224.38 62.5042 225.116 63.792 226.955C65.0799 228.794 64.8959 231.368 63.2401 233.023C66.9196 233.207 70.5991 233.943 73.7267 235.782C76.8543 237.621 79.246 240.931 79.4299 244.425C79.4299 248.103 76.6703 251.781 73.1748 251.965C75.1985 252.149 77.2222 252.333 78.878 253.252C80.5338 254.172 82.0056 256.011 81.6377 258.034C81.2697 260.424 78.878 261.712 76.6703 262.815C80.5338 266.125 80.7178 272.745 77.4062 276.791C74.0947 280.837 68.2074 282.124 63.2401 280.837C63.2401 284.883 60.6644 288.561 57.3529 290.768C54.0413 292.974 49.9939 293.894 45.9464 294.262C39.5073 294.629 32.5162 293.342 27.7328 288.745H4C4 288.561 4 200.105 4 200.105Z" fill="#433068"/>
<path d="M4 227.139C10.2552 225.116 16.1424 225.667 21.4777 229.713C26.813 233.759 28.6527 242.034 24.6053 247.184C29.3886 245.712 34.9079 250.678 34.172 255.643C35.4598 248.103 45.2105 249.023 49.9939 252.333C53.6734 255.091 55.6971 259.689 55.5131 264.102C60.2965 262.815 65.6318 267.229 65.2638 272.01C70.0472 269.068 76.6703 269.619 81.0857 273.297C85.3172 276.975 86.9729 283.412 85.1332 288.561C87.5249 288.377 89.9165 288.193 92.1243 289.113C94.332 290.032 96.1717 292.055 95.9877 294.446C98.9313 291.871 103.163 290.952 106.842 291.871C110.522 292.791 113.833 295.733 115.121 299.411C118.433 297.756 122.664 298.124 125.424 300.514C128.183 302.905 129.471 306.951 128.367 310.445H4V227.139Z" fill="#6A42BC"/>
<path d="M153.204 493.057C141.43 492.321 129.655 491.77 117.697 491.402C94.148 490.85 70.4151 491.034 46.8663 492.137C36.5637 492.689 26.0771 493.241 15.7744 494.16L4 493.792V371.316C4 370.764 10.9911 366.35 20.7418 366.35C27.1809 366.35 35.2758 370.764 39.5073 375.545C45.9464 382.717 47.4182 393.935 43.0028 402.578C47.7862 398.9 55.3292 401.107 59.1926 405.705C63.0561 410.302 64.344 416.739 65.0799 422.807C68.2074 418.578 72.4389 414.716 77.4062 413.245C82.5575 411.589 88.4447 412.325 92.3082 416.003C95.9877 419.497 97.2756 424.83 96.9076 429.979C96.5397 434.945 94.5159 439.91 92.6762 444.507C96.9076 444.14 101.139 445.795 103.899 448.921C106.658 452.047 107.946 456.461 107.21 460.507C110.706 458.116 115.673 458.3 119.169 460.874C123.768 464.369 123.032 470.437 123.4 475.586C128.919 472.828 136.462 476.69 137.75 482.758C138.67 479.632 143.085 478.713 147.133 479.264C149.341 479.632 151.364 482.391 151.732 484.597C153.204 483.31 155.228 483.126 157.068 483.678C158.907 484.23 160.379 485.517 161.483 486.988C162.403 488.275 163.139 489.747 162.771 491.218C162.035 494.896 155.78 493.241 153.204 493.057Z" fill="#433068"/>
<path d="M1283.37 374.81C1283.37 374.81 1283.37 370.58 1287.41 369.109C1291.46 367.638 1295.88 369.844 1295.88 369.844C1295.88 369.844 1293.85 372.787 1290.72 374.074C1287.41 374.994 1283.37 374.81 1283.37 374.81Z" fill="#403168"/>
<path d="M1280.42 374.81C1280.42 374.81 1279.32 366.166 1284.65 364.695C1289.99 363.224 1293.48 363.592 1293.48 363.592C1293.48 363.592 1292.56 370.028 1288.15 372.051C1283.73 374.258 1280.42 374.81 1280.42 374.81Z" fill="#403168"/>
<path d="M1273.8 356.236C1271.22 360.282 1270.67 365.431 1273.8 369.66C1276.19 372.971 1280.61 374.81 1280.61 374.81C1280.61 374.81 1282.63 370.764 1280.97 365.615C1279.32 360.466 1273.8 356.236 1273.8 356.236Z" fill="#4C2B93"/>
<path d="M1283.37 374.81C1283.37 374.81 1282.08 368.741 1284.1 365.615C1286.13 362.488 1289.25 361.385 1289.25 361.385C1289.25 361.385 1289.99 365.799 1289.25 368.189C1287.97 372.051 1283.37 374.81 1283.37 374.81Z" fill="#4C2B93"/>
<path d="M1276.56 374.442C1275.64 372.603 1271.22 369.293 1269.2 369.844C1267.18 370.396 1268.28 372.051 1270.49 373.339C1271.96 374.074 1276.56 374.442 1276.56 374.442Z" fill="#4C2B93"/>
<path d="M298.729 394.855C298.729 394.855 296.889 390.441 300.753 387.499C304.432 384.556 307.928 385.292 307.928 385.292C307.928 385.292 303.328 386.947 302.592 388.786C302.04 390.809 298.729 394.855 298.729 394.855Z" fill="#403168"/>
<path d="M301.305 395.222C301.305 395.222 302.041 390.441 305.352 388.418C308.664 386.395 314.183 387.499 314.183 387.499C314.183 387.499 312.159 392.096 309.032 393.383C305.352 394.487 301.305 395.222 301.305 395.222Z" fill="#403168"/>
<path d="M304.432 395.222C304.432 395.222 307.559 392.28 310.319 392.464C313.078 392.648 314.918 394.303 314.918 394.303C314.918 394.303 313.078 395.958 310.687 395.958C308.111 395.958 304.432 395.222 304.432 395.222Z" fill="#403168"/>
<path d="M301.305 395.222C301.305 395.222 298.177 392.464 299.097 387.499C300.201 382.533 304.8 379.775 304.8 379.775C304.8 379.775 307.008 385.108 306.272 388.97C305.72 392.832 301.305 395.222 301.305 395.222Z" fill="#4C2B93"/>
<path d="M298.913 395.222C298.913 395.222 293.394 392.648 293.394 390.073C293.394 387.499 295.233 382.533 295.233 382.533C295.233 382.533 296.889 384.556 297.073 387.499C297.441 390.257 298.913 395.222 298.913 395.222Z" fill="#4C2B93"/>
<path d="M304.432 395.222C304.432 395.222 307.008 389.889 311.423 390.625C311.423 390.625 312.527 395.406 304.432 395.222Z" fill="#4C2B93"/>
<path d="M80.3501 356.604C79.9821 353.661 87.1572 348.512 88.261 349.432C89.3649 350.351 87.1572 352.374 85.1334 354.397C82.9257 356.42 80.3501 356.604 80.3501 356.604Z" fill="#403168"/>
<path d="M84.2139 356.604C84.2139 356.604 85.1337 349.983 91.021 348.144C96.9082 346.305 100.404 348.144 100.404 348.144C100.404 348.144 98.196 352.742 93.9646 354.397C89.9171 356.236 84.2139 356.604 84.2139 356.604Z" fill="#403168"/>
<path d="M98.9318 355.5C98.1959 354.029 92.1247 352.558 88.2612 356.42C88.2612 356.42 92.3087 357.707 94.7004 357.523C97.0921 357.339 100.036 357.523 98.9318 355.5Z" fill="#403168"/>
<path d="M91.0202 338.214C93.5958 342.26 94.1478 347.409 91.0202 351.638C88.6285 354.949 84.2131 356.788 84.2131 356.788C84.2131 356.788 82.1894 352.742 83.8451 347.593C85.5009 342.259 91.0202 338.214 91.0202 338.214Z" fill="#4C2B93"/>
<path d="M81.0861 354.397C81.0861 354.397 81.638 348.144 79.2463 345.386C76.8546 342.443 73.7271 341.892 73.7271 341.892C73.7271 341.892 73.7271 346.489 74.6469 348.512C76.3027 352.19 81.0861 354.397 81.0861 354.397Z" fill="#4C2B93"/>
<path d="M88.2612 356.236C89.1811 354.397 93.5965 351.087 95.6202 351.638C97.644 352.19 96.5401 353.845 94.3324 355.132C92.6766 356.052 88.2612 356.236 88.2612 356.236Z" fill="#4C2B93"/>
<path d="M80.35 356.604C80.35 356.604 77.4064 351.822 71.1512 350.903C71.1512 350.903 70.4153 352.926 73.7269 354.949C77.0384 357.155 80.35 356.604 80.35 356.604Z" fill="#4C2B93"/>
<path d="M1152.37 244.793C1152.37 244.793 1145.02 254.724 1141.89 275.32C1138.76 295.917 1152.37 298.124 1152.37 298.124C1152.37 298.124 1164.33 294.63 1162.13 275.32C1159.73 256.195 1152.37 244.793 1152.37 244.793Z" fill="#663DBF"/>
<path d="M1151.82 274.217L1150.35 310.629H1153.85L1151.82 274.217Z" fill="#442783"/>
<path d="M1174.64 217.76C1174.64 217.76 1164.15 231.92 1159.73 260.976C1155.32 290.216 1174.64 293.342 1174.64 293.342C1174.64 293.342 1191.56 288.377 1188.43 261.16C1185.12 233.759 1174.64 217.76 1174.64 217.76Z" fill="#5C36AD"/>
<path d="M1173.9 259.321L1171.88 310.629H1176.66L1173.9 259.321Z" fill="#442783"/>
<path d="M164.795 244.793C164.795 244.793 172.154 254.724 175.281 275.32C178.409 295.917 164.795 298.124 164.795 298.124C164.795 298.124 152.836 294.63 155.044 275.32C157.436 256.195 164.795 244.793 164.795 244.793Z" fill="#663DBF"/>
<path d="M165.346 274.217L166.634 310.629H163.323L165.346 274.217Z" fill="#442783"/>
<path d="M142.533 217.76C142.533 217.76 153.02 231.92 157.435 260.976C161.851 290.216 142.533 293.342 142.533 293.342C142.533 293.342 125.608 288.377 128.735 261.16C132.047 233.759 142.533 217.76 142.533 217.76Z" fill="#5C36AD"/>
<path d="M143.269 259.321L145.109 310.629H140.326L143.269 259.321Z" fill="#442783"/>
<path d="M288.426 301.434C288.426 301.434 277.94 315.594 273.524 344.834C269.109 374.074 288.426 377.2 288.426 377.2C288.426 377.2 305.352 372.235 302.224 344.834C299.097 317.617 288.426 301.434 288.426 301.434Z" fill="#663DBF"/>
<path d="M287.69 343.179L285.851 394.671H290.634L287.69 343.179Z" fill="#442783"/>
<path d="M264.509 291.503C264.509 291.503 254.023 305.664 249.607 334.903C245.192 364.143 264.509 367.27 264.509 367.27C264.509 367.27 281.435 362.304 278.307 334.903C274.996 307.686 264.509 291.503 264.509 291.503Z" fill="#5C36AD"/>
<path d="M263.773 333.248L261.75 384.74H266.533L263.773 333.248Z" fill="#442783"/>
<path d="M972.999 310.445L973.183 310.629H1126.62C1124.59 307.135 1119.44 305.664 1115.95 307.686C1113.56 304.192 1108.22 303.457 1104.91 306.031C1104.17 304.192 1102.33 302.721 1100.31 302.537C1098.29 302.537 1096.26 303.825 1095.53 305.664C1094.61 304.192 1093.32 302.721 1091.48 302.353C1089.82 301.986 1087.62 302.905 1087.25 304.744C1086.51 302.721 1084.67 301.066 1082.46 300.698C1080.26 300.33 1078.05 301.434 1076.76 303.089C1077.13 301.25 1076.21 299.043 1074.37 298.308C1072.53 297.572 1070.32 298.124 1069.22 299.595C1069.59 295.917 1068.67 292.975 1065.35 291.503C1062.96 290.4 1059.28 290.216 1056.89 291.503C1053.58 293.158 1052.48 295.181 1051.37 299.411C1049.53 295.917 1043.83 296.653 1041.62 299.963C1042.73 296.101 1039.6 291.687 1035.73 291.503C1031.69 291.319 1028.38 295.733 1029.3 299.595C1028.93 297.204 1025.8 295.733 1023.96 297.02C1024.88 294.814 1025.62 292.239 1025.06 289.664C1024.51 287.274 1022.67 285.067 1020.28 284.515C1018.26 284.147 1015.87 285.435 1015.13 287.274C1015.31 284.883 1012.92 282.492 1010.53 283.044C1014.03 280.286 1014.03 274.217 1010.53 271.458C1007.22 268.7 1001.33 269.619 999.124 273.481C999.492 271.642 998.572 269.619 996.916 268.516C995.26 267.413 993.052 267.596 991.581 268.516C991.764 264.838 989.741 260.976 986.613 258.953C983.486 256.93 979.254 256.563 975.943 258.218C974.287 258.953 972.999 259.505 972.079 260.976C971.159 262.447 970.791 264.286 970.607 266.125C968.768 277.159 968.768 288.377 970.423 299.411C970.423 302.537 970.791 308.606 972.999 310.445Z" fill="#6D45C0"/>
<path d="M763.634 310.629C766.026 308.054 767.13 304.376 767.498 300.514C768.234 291.503 767.682 282.308 766.21 273.481C764.922 265.574 760.691 259.137 751.676 260.057C747.077 260.424 742.845 262.999 739.534 266.125C736.59 268.884 736.406 272.562 736.958 276.24C734.382 273.849 729.231 275.688 728.863 279.366C727.391 277.711 725.736 276.056 723.712 275.136C721.688 274.217 719.112 274.217 717.273 275.688C715.433 277.159 714.881 279.918 716.537 281.573C714.513 281.021 712.305 281.389 710.65 282.676C708.994 283.963 708.626 286.538 709.73 288.193C708.074 286.354 705.13 285.986 703.107 287.458C701.083 288.929 700.347 291.871 701.635 294.078C700.163 291.503 696.3 292.791 695.196 295.181C693.172 291.687 688.757 290.032 684.709 289.664C682.501 289.48 680.11 289.48 678.086 290.584C674.038 292.607 672.751 297.756 672.015 302.353C671.095 301.25 669.991 299.963 668.703 299.411C665.392 297.756 662.08 300.147 660.424 302.905C657.113 299.043 652.697 296.101 647.73 295.549C642.763 295.181 637.243 298.124 636.14 303.089C634.116 302.169 632.092 301.25 629.884 301.434C627.677 301.434 625.469 302.721 624.917 304.744C622.525 303.457 619.214 303.457 616.822 304.744C614.43 306.031 612.775 308.422 612.407 311.18H763.634V310.629Z" fill="#6D45C0"/>
<path d="M993.604 251.045H971.711V237.805L911.183 163.693L917.622 159.28L973.919 195.692L984.773 237.805L993.604 251.045Z" fill="#8569C0"/>
<path d="M993.605 251.045L982.566 239.092H971.711V251.045H993.605Z" fill="#6C53A6"/>
<path d="M850.471 237.805L860.774 195.692L912.287 160.015L968.951 199.554L978.334 237.805V310.629H850.471V237.805Z" fill="#7B47E7"/>
<path d="M854.151 237.805H752.044V310.629H854.151V237.805Z" fill="#5D35B2"/>
<path d="M750.572 237.805L760.875 195.692H864.453L854.15 237.805H750.572Z" fill="#BB9FF6"/>
<path d="M760.875 195.692L813.86 159.28H917.623L864.454 195.692H760.875Z" fill="#C8AEF5"/>
<path d="M841.273 251.045H737.694L750.573 237.805H854.151L841.273 251.045Z" fill="#C8AEF5"/>
<path d="M923.878 159.28L869.237 196.979L858.935 239.092L847.712 251.045H841.273L854.151 237.805L864.454 195.692L917.623 159.28H923.878Z" fill="#CCB6F6"/>
<path d="M917.623 159.28L972.263 196.979L982.566 239.092L993.604 251.045H1000.04L987.165 237.805L976.863 195.692L923.878 159.28H917.623Z" fill="#CEB5F6"/>
<path d="M968.951 199.554L972.263 196.979L920.934 161.303L917.438 163.51L968.951 199.554Z" fill="#6C53A6"/>
<path d="M869.237 152.108H866.661V149.901L869.237 152.108Z" fill="#6C53A6"/>
<path d="M848.999 148.614H827.474V166.636H848.999V148.614Z" fill="#5D35B2"/>
<path d="M849 166.636L860.406 159.28H866.662V148.614L857.831 140.706L849 148.614V166.636Z" fill="#7B47E7"/>
<path d="M822.139 150.637L833.546 140.706H857.83L846.424 150.637H822.139Z" fill="#C8AEF5"/>
<path d="M846.608 150.636H822.139V152.108H846.608V150.636Z" fill="#BB9FF4"/>
<path d="M846.424 152.108L857.83 142.177V140.706L846.424 150.637V152.108Z" fill="#8569C0"/>
<path d="M869.237 152.108L857.831 142.177V140.706L869.237 150.637V152.108Z" fill="#8569C0"/>
<path d="M940.251 255.275H891.13V310.629H940.251V255.275Z" fill="#5834A2"/>
<path d="M892.784 256.746H889.657V310.445H892.784V256.746Z" fill="#3D2373"/>
<path d="M938.595 256.746H935.468V310.445H938.595V256.746Z" fill="#3D2373"/>
<path d="M915.783 256.746H912.655V310.445H915.783V256.746Z" fill="#3D2373"/>
<path d="M889.708 256.738V259.864H938.829V256.738H889.708Z" fill="#3D2373"/>
<path d="M889.543 282.831V285.958H938.665V282.831H889.543Z" fill="#3D2373"/>
<path d="M935.468 256.746L912.655 284.515H915.783L938.596 256.746H935.468Z" fill="#3D2373"/>
<path d="M892.784 256.746L915.781 284.515H912.654L889.657 256.746H892.784Z" fill="#3D2373"/>
<path d="M934.18 310.629L912.655 284.515H915.783L937.308 310.629H934.18Z" fill="#3D2373"/>
<path d="M894.073 310.629L915.783 284.515H912.655L890.946 310.629H894.073Z" fill="#3D2373"/>
<path d="M894.257 255.275H891.13V310.628H894.257V255.275Z" fill="#C8AEF5"/>
<path d="M940.251 255.275H937.124V310.629H940.251V255.275Z" fill="#C8AEF5"/>
<path d="M917.255 255.275H914.127V310.629H917.255V255.275Z" fill="#C8AEF5"/>
<path d="M891.217 255.266V258.393H940.338V255.266H891.217Z" fill="#C8AEF5"/>
<path d="M891.236 281.36V284.486H940.358V281.36H891.236Z" fill="#C8AEF5"/>
<path d="M937.124 255.275L914.127 282.86H917.255L940.251 255.275H937.124Z" fill="#C8AEF5"/>
<path d="M894.441 255.275L917.254 282.86H914.127L891.13 255.275H894.441Z" fill="#C8AEF5"/>
<path d="M937.124 310.629L914.127 282.86H917.255L940.251 310.629H937.124Z" fill="#C8AEF5"/>
<path d="M894.441 310.629L917.254 282.86H914.127L891.13 310.629H894.441Z" fill="#C8AEF5"/>
<path d="M930.501 202.128H901.064V234.311H930.501V202.128Z" fill="#5834A2"/>
<path d="M899.735 232.709V235.651H929.171V232.709H899.735Z" fill="#3D2373"/>
<path d="M899.734 203.471V206.413H929.17V203.471H899.734Z" fill="#3D2373"/>
<path d="M899.708 235.51H902.651V203.328H899.708V235.51Z" fill="#3D2373"/>
<path d="M926.179 235.51H929.122V203.328H926.179V235.51Z" fill="#3D2373"/>
<path d="M902.72 203.416L926.085 232.656V235.598L902.72 206.358V203.416Z" fill="#3D2373"/>
<path d="M926.085 203.416L902.72 232.656V235.598L926.085 206.358V203.416Z" fill="#3D2373"/>
<path d="M900.988 231.339V234.282H930.424V231.339H900.988Z" fill="#C8AEF5"/>
<path d="M900.986 202.101V205.044H930.422V202.101H900.986Z" fill="#C8AEF5"/>
<path d="M901.061 234.361H904.005V202.178H901.061V234.361Z" fill="#C8AEF5"/>
<path d="M927.532 234.361H930.476V202.178H927.532V234.361Z" fill="#C8AEF5"/>
<path d="M904.008 202.128L927.373 231.368V234.311L904.008 205.071V202.128Z" fill="#C8AEF5"/>
<path d="M927.373 202.128L904.008 231.368V234.311L927.373 205.071V202.128Z" fill="#C8AEF5"/>
<path d="M797.67 270.539H777.801V291.136H797.67V270.539Z" fill="#5834A2"/>
<path d="M776.627 289.577V291.968H796.497V289.577H776.627Z" fill="#3C2074"/>
<path d="M776.734 271.448V273.839H796.604V271.448H776.734Z" fill="#3C2074"/>
<path d="M776.683 292.114H779.075V271.518H776.683V292.114Z" fill="#3C2074"/>
<path d="M794.242 292.07H796.634V272.945H794.242V292.07Z" fill="#3C2074"/>
<path d="M777.724 288.738V291.129H797.593V288.738H777.724Z" fill="#C8AEF5"/>
<path d="M777.647 270.609V273H797.516V270.609H777.647Z" fill="#C8AEF5"/>
<path d="M777.677 291.099H780.068V270.502H777.677V291.099Z" fill="#C8AEF5"/>
<path d="M795.236 291.099H797.627V270.502H795.236V291.099Z" fill="#C8AEF5"/>
<path d="M815.148 270.539H795.278V291.136H815.148V270.539Z" fill="#5834A2"/>
<path d="M795.222 289.59V291.981H814.172V289.59H795.222Z" fill="#3C2074"/>
<path d="M795.329 271.461V273.852H814.278V271.461H795.329Z" fill="#3C2074"/>
<path d="M811.801 292.115H814.192V271.518H811.801V292.115Z" fill="#3C2074"/>
<path d="M795.243 288.779V291.169H815.112V288.779H795.243Z" fill="#C8AEF5"/>
<path d="M795.166 270.65V273.041H815.035V270.65H795.166Z" fill="#C8AEF5"/>
<path d="M795.236 291.099H797.628V270.502H795.236V291.099Z" fill="#C8AEF5"/>
<path d="M812.795 291.099H815.187V270.502H812.795V291.099Z" fill="#C8AEF5"/>
<path d="M1210.95 348.207L1229.35 115.391H1245.36L1263.75 348.207" stroke="#4E2B97" stroke-miterlimit="10" stroke-linecap="round" stroke-linejoin="round"/>
<path d="M1245.36 115.391L1226.77 146.838L1250.69 184.537H1223.83L1247.75 146.838L1229.35 115.391" stroke="#4E2B97" stroke-miterlimit="10" stroke-linecap="round" stroke-linejoin="round"/>
<path d="M1250.69 184.537L1219.78 235.293" stroke="#4E2B97" stroke-miterlimit="10" stroke-linecap="round" stroke-linejoin="round"/>
<path d="M1254.74 235.293L1215.18 295.244H1259.52L1219.78 235.293H1254.74ZM1254.74 235.293L1223.83 184.537" stroke="#4E2B97" stroke-miterlimit="10" stroke-linecap="round" stroke-linejoin="round"/>
<path d="M1215.18 295.244L1263.2 341.955" stroke="#4E2B97" stroke-miterlimit="10" stroke-linecap="round" stroke-linejoin="round"/>
<path d="M1259.52 295.244L1211.5 341.955" stroke="#4E2B97" stroke-miterlimit="10" stroke-linecap="round" stroke-linejoin="round"/>
<path d="M1253.82 144.263H1220.7C1219.6 144.263 1218.86 145.183 1218.86 146.102V146.47C1218.86 147.573 1219.78 148.309 1220.7 148.309H1253.82C1254.92 148.309 1255.66 147.389 1255.66 146.47V146.102C1255.84 145.183 1254.92 144.263 1253.82 144.263Z" fill="#4E2B97"/>
<path d="M1237.26 115.391V348.207" stroke="#4E2B97" stroke-miterlimit="10" stroke-linecap="round" stroke-linejoin="round"/>
<path d="M1233.77 79.8984C1233.77 77.8755 1235.42 76.4043 1237.26 76.4043C1239.28 76.4043 1240.76 78.0594 1240.76 79.8984C1240.76 81.9213 1239.1 83.3925 1237.26 83.3925C1235.42 83.3925 1233.77 81.7374 1233.77 79.8984Z" fill="#4E2B97"/>
<path d="M1237.26 71.2552C1237.26 71.2552 1231.56 60.4051 1233.76 55.256C1235.97 50.1068 1240.02 46.2449 1240.76 48.8195C1241.49 51.3941 1237.26 71.2552 1237.26 71.2552Z" fill="#4E2B97"/>
<path d="M1232.29 72.9104C1232.29 72.9104 1221.26 67.3934 1219.97 61.8764C1218.68 56.3594 1219.78 50.8424 1221.81 52.4975C1224.01 54.3365 1232.29 72.9104 1232.29 72.9104Z" fill="#4E2B97"/>
<path d="M1228.98 77.1398C1228.98 77.1398 1216.84 79.1627 1212.61 75.4847C1208.38 71.8067 1205.98 66.6576 1208.74 66.8415C1211.5 67.0254 1228.98 77.1398 1228.98 77.1398Z" fill="#4E2B97"/>
<path d="M1228.98 82.4731C1228.98 82.4731 1220.33 91.3003 1214.82 90.7486C1209.3 90.1969 1204.33 87.6223 1206.54 85.9672C1208.93 84.6799 1228.98 82.4731 1228.98 82.4731Z" fill="#4E2B97"/>
<path d="M1232.29 86.8865C1232.29 86.8865 1230.45 99.0238 1225.67 101.966C1220.89 104.909 1215.18 105.644 1216.29 103.07C1217.21 100.311 1232.29 86.8865 1232.29 86.8865Z" fill="#4E2B97"/>
<path d="M1237.26 88.5417C1237.26 88.5417 1242.96 99.3918 1240.76 104.541C1238.55 109.69 1234.5 113.552 1233.77 110.977C1233.03 108.403 1237.26 88.5417 1237.26 88.5417Z" fill="#4E2B97"/>
<path d="M1242.41 86.8865C1242.41 86.8865 1253.45 92.4035 1254.74 97.9204C1256.03 103.437 1254.92 108.954 1252.9 107.299C1250.69 105.276 1242.41 86.8865 1242.41 86.8865Z" fill="#4E2B97"/>
<path d="M1245.54 82.473C1245.54 82.473 1257.68 80.4501 1261.91 84.1281C1266.14 87.8061 1268.54 92.9553 1265.78 92.7714C1263.02 92.5875 1245.54 82.473 1245.54 82.473Z" fill="#4E2B97"/>
<path d="M1245.54 77.1399C1245.54 77.1399 1254.19 68.3127 1259.71 68.8644C1265.22 69.4161 1270.19 71.9907 1267.98 73.6458C1265.59 75.117 1245.54 77.1399 1245.54 77.1399Z" fill="#4E2B97"/>
<path d="M1242.41 72.9102C1242.41 72.9102 1244.25 60.7729 1249.04 57.8305C1253.82 54.8881 1259.52 54.1525 1258.42 56.7271C1257.5 59.3017 1242.41 72.9102 1242.41 72.9102Z" fill="#4E2B97"/>
<path fill-rule="evenodd" clip-rule="evenodd" d="M1113 292.239V284.699H1109.51V281.757C1110.06 281.573 1110.06 281.021 1110.06 280.469V276.24C1110.06 275.688 1109.69 275.136 1109.14 274.952C1109.14 273.849 1109.14 271.274 1109.33 270.171C1109.51 269.251 1110.98 269.435 1110.98 269.435L1111.16 268.332C1110.25 268.332 1108.59 268.516 1108.41 270.171C1108.22 271.274 1108.22 273.849 1108.22 274.952C1107.67 275.136 1107.3 275.688 1107.3 276.24V280.285C1107.3 281.021 1107.85 281.573 1108.41 281.757V284.515H1101.78L1100.86 288.193C1096.45 288.745 1092.77 290.951 1090.19 294.262C1087.43 294.078 1084.86 293.158 1082.83 291.871L1088.35 286.354L1091.11 289.113C1091.48 289.48 1092.03 289.48 1092.4 289.113C1092.77 288.745 1092.77 288.193 1092.4 287.825L1085.78 281.205C1085.41 280.837 1084.86 280.837 1084.49 281.205C1084.12 281.573 1084.12 282.124 1084.49 282.492L1087.25 285.251L1081.54 290.952C1081.18 290.584 1080.81 290.4 1080.63 290.032V280.469C1080.63 279.55 1079.89 278.814 1078.97 278.814C1078.05 278.814 1077.31 279.55 1077.31 280.469V287.641H1060.02C1058.55 287.641 1057.44 288.561 1056.89 290.032H1055.42V295.181H1056.52V298.307C1051.56 299.595 1047.88 304.376 1048.43 309.709C1048.8 315.226 1053.58 319.824 1059.28 319.824C1065.36 319.824 1070.51 315.042 1070.51 308.79C1070.51 307.686 1070.32 306.399 1069.95 305.48H1086.7C1087.43 314.307 1095.53 320.927 1104.73 319.64C1111.72 318.72 1117.24 313.203 1118.16 306.215C1119.08 300.698 1116.87 295.549 1113 292.239Z" fill="#4E2B97"/>
</g>
<defs>
<filter id="filter0_d_3706:9375" x="0" y="0" width="1388" height="408" filterUnits="userSpaceOnUse" color-interpolation-filters="sRGB">
<feFlood flood-opacity="0" result="BackgroundImageFix"/>
<feColorMatrix in="SourceAlpha" type="matrix" values="0 0 0 0 0 0 0 0 0 0 0 0 0 0 0 0 0 0 127 0" result="hardAlpha"/>
<feOffset dy="4"/>
<feGaussianBlur stdDeviation="2"/>
<feComposite in2="hardAlpha" operator="out"/>
<feColorMatrix type="matrix" values="0 0 0 0 0 0 0 0 0 0 0 0 0 0 0 0 0 0 0.25 0"/>
<feBlend mode="normal" in2="BackgroundImageFix" result="effect1_dropShadow_3706:9375"/>
<feBlend mode="normal" in="SourceGraphic" in2="effect1_dropShadow_3706:9375" result="shape"/>
</filter>
<clipPath id="clip0_3706:9375">
<rect width="1380" height="400" fill="white" transform="translate(4)"/>
</clipPath>
</defs>
</svg>
