<svg width="1380" height="400" viewBox="0 0 1380 400" fill="none" xmlns="http://www.w3.org/2000/svg">
<g clip-path="url(#clip0_3439:8981)">
<path d="M1379.82 -235H0V684.496H1379.82V-235Z" fill="#433068"/>
<path d="M1379.82 -27.9296C1377.06 -26.0905 1375.59 -23.8838 1376.51 -21.4931C1372.27 -31.9753 1362.15 -39.883 1350.93 -41.5381C1339.71 -43.1932 1327.75 -38.4118 1320.76 -29.5846C1322.97 -43.9288 1311.93 -59.0085 1297.76 -61.3992C1283.41 -63.7899 1268.14 -53.3076 1265.38 -39.1474C1265.02 -52.3881 1245.15 -59.7441 1236.13 -49.9974C1235.95 -63.606 1227.48 -76.6628 1215.16 -82.1798C1202.83 -87.6968 1187.38 -85.3061 1177.26 -76.4789C1180.57 -94.8688 1165.49 -112.707 1147.64 -118.224C1131.08 -123.189 1114.34 -116.753 1099.25 -109.213C1097.23 -129.258 1078.83 -143.97 1060.07 -151.326C1031.55 -162.36 997.884 -161.256 971.391 -145.993C944.899 -130.729 926.685 -100.754 927.973 -70.2263C908.472 -80.5247 880.691 -69.1229 874.252 -47.9745C871.676 -65.9967 853.831 -80.5247 835.617 -79.4213C817.404 -78.3179 801.398 -61.767 801.03 -43.561C796.614 -51.1008 784.288 -50.9169 778.401 -44.4805C772.514 -38.044 772.33 -27.7457 775.641 -19.6541C770.122 -24.8033 759.267 -19.838 759.451 -12.2981C753.932 -30.3202 728.36 -35.8372 712.354 -25.9067C696.348 -15.9761 689.173 3.88501 688.253 22.8266C682.734 17.6774 672.983 18.2291 668.2 23.93C663.416 29.6309 664.52 39.3775 670.407 43.975C659.737 40.8487 648.514 37.9063 637.844 40.6648C627.173 43.4233 617.79 54.6412 621.102 65.1234C611.167 59.6064 596.633 69.537 598.289 80.7548C585.595 67.698 560.022 73.0311 553.399 89.9498C542.912 88.2947 532.058 89.582 522.123 93.6278C542.36 100.984 564.989 102.087 585.779 96.754C592.218 106.501 608.592 107.236 615.767 98.0414C626.805 111.098 651.642 107.052 657.713 91.0532C683.654 112.937 730.383 99.8804 741.238 67.698C753.196 83.6972 780.425 84.4328 793.303 69.1692C794.591 80.2031 804.341 89.7659 815.38 90.8693C826.418 91.9727 837.825 84.6167 841.32 74.1345C870.021 106.869 929.261 104.846 955.753 70.2726C966.24 86.0879 985.373 96.0184 1004.32 95.4668C1023.27 94.9151 1041.85 84.065 1051.42 67.698C1061.36 81.8582 1083.62 85.3523 1097.41 74.8701C1115.63 93.4439 1150.22 90.8693 1165.67 70.0887C1171.56 88.2947 1189.59 101.719 1208.72 102.087C1227.85 102.455 1246.43 89.7659 1253.06 71.7438C1258.21 82.4099 1274.77 84.9845 1283.05 76.5251C1296.11 98.9608 1333.27 101.535 1349.28 80.9387C1357.19 90.3176 1367.86 96.938 1379.63 100.248V-27.9296H1379.82Z" fill="url(#paint0_linear_3439:8981)"/>
<path d="M482.936 0.758682C478.336 -11.1948 460.123 -14.8727 451.108 -5.67778C452.212 -13.7693 442.093 -20.7575 434.918 -16.7117C437.31 -24.2516 430.687 -31.9753 423.144 -33.9982C415.601 -36.0211 407.69 -33.8143 400.147 -31.6076C404.378 -34.7338 405.114 -41.722 401.802 -45.7678C398.307 -49.8136 391.5 -50.1814 387.636 -46.6873C387.084 -60.1119 381.933 -74.0882 370.527 -81.2603C359.12 -88.2485 341.091 -84.3866 337.227 -71.5137C337.411 -76.8467 329.684 -80.3408 325.821 -76.6628C328.212 -82.3637 328.028 -89.5358 323.797 -94.3172C319.565 -98.9146 310.919 -99.0985 307.791 -93.7654C307.423 -106.638 296.201 -118.408 283.322 -119.144C270.444 -119.879 257.75 -109.765 255.91 -96.8917C251.311 -111.971 231.809 -120.063 217.827 -112.707C218.747 -134.407 205.869 -155.556 187.103 -166.406C168.338 -177.256 144.421 -177.991 124.183 -170.267C110.753 -165.118 97.875 -154.636 96.4032 -140.476C85.9165 -145.809 74.1421 -150.406 62.3677 -146.728C49.6734 -142.867 38.8188 -130.177 41.2105 -117.305C34.0355 -123.557 22.9969 -125.212 14.3501 -121.35C6.99107 -118.04 1.65578 -111.052 0 -103.328V3.51717C5.51926 7.19516 12.1424 9.21806 18.7655 9.21806C32.3797 9.03416 45.074 -0.528595 49.3054 -13.5854C60.16 1.1265 84.8127 2.96548 97.691 -10.0914C107.442 -2.73538 123.264 -5.12608 130.255 -15.2405C137.062 -3.65489 150.124 4.06886 163.554 4.43668C176.984 4.80447 190.415 -2.1837 197.958 -13.4015C216.723 11.057 258.67 12.5282 278.907 -10.6431C281.482 -3.1032 289.393 2.04599 297.304 1.31039C305.215 0.574799 312.022 -6.22948 312.942 -14.1371C321.957 -3.28709 341.275 -3.83879 349.737 -15.0566C357.464 7.74686 390.396 16.9418 408.793 1.49429C413.209 12.7121 430.687 15.6545 438.414 6.45956C443.565 13.0799 455.155 12.5282 459.755 5.54007C474.473 9.40196 490.479 8.48247 504.829 3.3333C498.022 0.3909 490.295 -0.52861 482.936 0.758682Z" fill="url(#paint1_linear_3439:8981)"/>
<path d="M324.717 73.9505C321.405 73.9505 318.094 74.87 315.15 76.709C314.23 73.3988 309.999 71.3759 306.871 72.8471C305.951 73.3988 305.031 74.1344 303.927 74.3183C301.536 74.87 299.512 72.6632 297.856 70.8242C293.257 65.4912 287.554 60.7098 280.747 58.8708C273.94 57.0318 265.845 58.503 261.061 63.6522C263.269 61.2615 248.919 53.1699 247.263 52.6182C240.824 50.5953 234.385 50.7792 229.417 55.9284C226.842 42.5038 215.987 30.9181 202.741 27.6079C189.495 24.2978 174.409 29.6308 165.946 40.297C165.946 31.102 152.884 25.2173 145.893 31.102C146.996 20.0681 130.255 12.896 122.896 21.1715C128.231 5.72395 120.872 -13.0338 106.338 -20.5736C91.8038 -28.1135 72.1184 -23.3321 62.7356 -9.90748C62.5517 -21.1253 62.1837 -32.711 56.6644 -42.2737C51.1452 -51.8365 38.2669 -58.273 28.5162 -52.9399C33.8515 -61.9509 23.7328 -75.1917 13.6142 -72.6171C20.2373 -74.0883 16.5578 -92.2943 15.086 -95.7884C12.1424 -103.144 6.80709 -108.294 0 -111.788V95.8345C1.65578 97.1218 3.49553 98.2252 5.51926 99.1447C9.56672 100.8 13.9821 101.535 18.3975 101.535C29.0681 101.351 39.5547 96.0184 45.6259 87.3752C46.9137 94.7311 55.9285 98.593 63.1036 97.1218C70.4626 95.6506 76.3498 90.3176 81.6851 85.1684C94.0115 96.2023 111.121 101.719 127.495 100.248C144.053 98.7769 159.691 90.3175 169.993 77.4446C173.857 85.7201 184.343 89.2142 193.358 87.743C202.373 86.4557 210.284 81.3065 217.827 75.9734C221.506 85.7201 236.408 88.6625 243.584 80.9387C253.886 89.0303 270.076 88.1108 279.459 79.0997C284.242 84.4328 293.257 84.9845 298.592 80.2031C300.616 83.8811 305.951 83.6972 309.999 83.1455C315.702 82.226 321.589 81.4904 327.292 80.5709C328.212 80.387 329.132 80.2031 329.868 79.6514C332.26 77.2607 328.028 73.7666 324.717 73.9505Z" fill="url(#paint2_linear_3439:8981)"/>
<path d="M1379.82 -168.796C1374.67 -170.084 1369.15 -170.267 1363.81 -169.348C1344.68 -166.222 1330.88 -149.671 1328.12 -131.097C1322.05 -138.453 1309.91 -144.338 1300.52 -144.522C1293.72 -144.522 1286.91 -141.763 1282.13 -136.798C1277.34 -131.832 1274.77 -125.028 1275.13 -118.224C1269.8 -118.96 1263.36 -120.247 1258.58 -116.753C1254.35 -113.81 1252.51 -107.742 1253.98 -102.96C1247.17 -109.581 1237.79 -113.81 1228.22 -113.626C1218.65 -113.443 1209.09 -108.661 1203.94 -100.754C1201.18 -96.5239 1199.7 -91.5586 1198.6 -86.7772C1196.58 -78.6857 1198.05 -71.6975 1197.86 -63.7898C1191.24 -66.7322 1184.43 -68.939 1177.26 -65.4449C1170.82 -62.3186 1166.22 -55.3305 1166.04 -47.9745C1140.83 -73.9043 1105.69 -37.86 1098.15 -13.5853C1092.26 -21.3091 1084.9 -28.6651 1075.34 -30.1363C1065.77 -31.4236 1054.73 -23.5159 1056.76 -13.9532C1049.95 -17.2633 1042.77 -20.5735 1035.23 -20.0218C1026.22 -19.4701 1021.98 -12.8497 1018.86 -5.30988C1015.18 -10.8269 1007.27 -13.0336 1001.01 -10.643C994.756 -8.25227 990.524 -1.8158 990.156 4.98846C988.501 0.0231934 981.694 -1.99969 976.91 0.0231934C971.943 2.04608 968.999 7.19525 967.895 12.3444C963.48 9.03426 958.145 8.11475 953.545 11.4249C951.706 12.7122 950.234 14.3673 948.21 15.2868C945.818 16.3902 943.243 16.3902 940.667 16.3902C935.7 16.3902 930.916 16.3902 925.949 16.2063C924.845 18.2292 927.237 20.436 929.445 21.3555C939.747 25.953 953.361 25.953 963.848 21.3555C970.655 27.608 983.165 25.2174 987.213 16.9419C993.468 20.0682 1001.56 19.7004 1007.45 15.6546C1018.12 31.8378 1042.59 40.481 1057.31 23.3784C1060.07 35.1479 1074.6 41.5844 1086.01 38.0903C1097.6 34.5962 1105.51 23.3784 1107.9 11.6088C1106.43 18.597 1130.16 26.5047 1134.58 27.2403C1147.46 29.4471 1157.02 24.2979 1168.61 19.5165C1168.8 23.3784 1171.74 26.8725 1175.42 27.7919C1179.1 28.7114 1183.33 27.2403 1185.54 23.9301C1189.59 29.631 1196.58 32.9411 1203.57 33.8606C1210.56 34.5962 1217.73 33.125 1224.36 30.7343C1235.58 26.6886 1248.46 19.8843 1257.29 11.6088C1261.7 23.1945 1273.66 31.4699 1286.17 31.6538C1298.68 31.8377 1310.64 23.5623 1315.42 12.1605C1315.79 22.8267 1324.07 32.5733 1334.56 34.5962C1344.86 36.803 1356.45 31.1021 1361.05 21.5394C1365.65 28.3437 1372.27 33.4928 1380 36.4352V-168.796H1379.82Z" fill="url(#paint3_linear_3439:8981)"/>
<path d="M1379.82 176.565C1328.12 155.785 1198.05 148.98 1069.08 152.474C809.86 159.647 479.808 243.321 212.676 310.996H1379.82V176.565Z" fill="#9D72F5"/>
<path d="M989.604 217.208C1089.13 208.197 1137.34 195.876 1137.34 195.876C1137.34 195.876 1066.32 230.449 1091.34 234.127C1116.36 237.989 1408.33 176.934 1292.24 158.912V158.728C1230.24 151.924 1149.48 150.085 1069.27 152.475C962.008 155.418 842.424 171.601 720.448 194.221C717.136 196.243 714.377 198.266 712.169 200.657C696.163 218.679 889.889 226.219 989.604 217.208Z" fill="#A881F4"/>
<path d="M1379.82 176.566C1365.83 170.865 1345.96 166.268 1321.86 162.59C1437.4 203.048 1297.95 324.237 989.604 301.434C697.083 279.734 648.513 229.161 678.685 202.128C619.629 213.714 560.389 226.587 501.701 240.195L497.102 310.629H1379.82V176.566Z" fill="#8D5FF5"/>
<path d="M776.745 310.629C776.745 310.629 617.79 224.012 375.862 180.428C133.934 137.028 0 161.303 0 161.303V310.629H776.745Z" fill="#A37BF5"/>
<path d="M422.408 212.427C636.003 252.884 776.745 310.445 776.745 310.445C776.745 310.445 617.79 223.828 375.862 180.244C133.934 136.66 0 161.303 0 161.303V189.807C0 189.807 172.201 165.164 422.408 212.427Z" fill="#B697F5"/>
<path d="M0 218.311C0 218.311 204.213 212.059 298.592 229.713C392.972 247.367 261.429 269.987 291.969 278.446C322.509 286.906 776.56 310.629 776.56 310.629H0V218.311Z" fill="#966AF5"/>
<path d="M776.745 310.629C776.745 310.629 617.79 224.012 375.862 180.428C133.934 137.028 0 161.303 0 161.303V310.629H776.745Z" fill="url(#paint4_linear_3439:8981)"/>
<g style="mix-blend-mode:multiply" opacity="0.4">
<path fill-rule="evenodd" clip-rule="evenodd" d="M1292.24 158.831V158.728C1230.8 151.985 1150.93 150.118 1071.42 152.412C1070.64 152.433 1069.86 152.453 1069.08 152.474C916.219 156.704 738.724 187.537 564.027 226.004C509.57 209.237 446.225 192.92 375.862 180.244C135.169 136.883 1.36975 161.053 0.0104598 161.301L0.00995581 161.301C0.00331967 161.302 0 161.303 0 161.303V161.303V189.807V218.311V310.629H214.124L213.486 310.79L213.486 310.79L212.676 310.996H1379.82L1379.82 310.629V176.566L1379.82 176.565L1379.81 176.564L1379.64 176.496L1379.63 176.492C1365.66 170.825 1345.86 166.252 1321.86 162.59L1322.12 162.68C1312.77 161.253 1302.78 159.971 1292.24 158.831Z" fill="black"/>
</g>
<path d="M1379.82 200.105C1377.24 197.347 1374.85 196.979 1371.17 196.979C1370.06 196.979 1368.78 197.163 1367.67 197.531C1366.57 197.899 1365.83 198.634 1365.1 199.554C1362.89 201.944 1361.42 205.071 1360.87 208.381C1358.84 206.542 1355.53 205.622 1352.96 206.726C1350.38 208.013 1348.72 210.955 1348.91 213.898C1345.04 208.565 1337.5 206.174 1331.61 208.933C1325.73 211.691 1322.6 219.599 1325.91 225.3C1323.89 224.38 1321.31 225.116 1320.02 226.955C1318.74 228.794 1318.92 231.368 1320.58 233.023C1316.9 233.207 1313.22 233.943 1310.09 235.782C1306.96 237.621 1304.57 240.931 1304.39 244.425C1304.39 248.103 1307.15 251.781 1310.64 251.965C1308.62 252.149 1306.59 252.333 1304.94 253.252C1303.28 254.172 1301.81 256.011 1302.18 258.034C1302.55 260.424 1304.94 261.712 1307.15 262.815C1303.28 266.125 1303.1 272.746 1306.41 276.791C1309.72 280.837 1315.61 282.124 1320.58 280.837C1320.58 284.883 1323.15 288.561 1326.46 290.768C1329.77 292.974 1333.82 293.894 1337.87 294.262C1344.31 294.63 1351.3 293.342 1356.08 288.745H1379.82C1379.82 288.561 1379.82 200.105 1379.82 200.105Z" fill="#433068"/>
<path d="M1379.82 227.139C1373.56 225.116 1367.67 225.667 1362.34 229.713C1357 233.759 1355.16 242.034 1359.21 247.184C1354.43 245.712 1348.91 250.678 1349.64 255.643C1348.36 248.103 1338.61 249.023 1333.82 252.333C1330.14 255.091 1328.12 259.689 1328.3 264.102C1323.52 262.815 1318.18 267.229 1318.55 272.01C1313.77 269.068 1307.15 269.619 1302.73 273.297C1298.5 276.975 1296.84 283.412 1298.68 288.561C1296.29 288.377 1293.9 288.193 1291.69 289.113C1289.48 290.032 1287.64 292.055 1287.83 294.446C1284.88 291.871 1280.65 290.952 1276.97 291.871C1273.29 292.791 1269.98 295.733 1268.7 299.411C1265.38 297.756 1261.15 298.124 1258.39 300.514C1255.63 302.905 1254.35 306.951 1255.45 310.445H1379.82V227.139Z" fill="#6A42BC"/>
<path d="M1379.82 310.629H0V684.496H1379.82V310.629Z" fill="#8955F5"/>
<path d="M1379.82 395.958C996.043 338.214 593.321 329.019 0 328.099V310.629H1379.82V395.958Z" fill="#996DF4"/>
<path d="M0 684.496V439.91C0 439.91 476.312 381.982 847.023 412.693C1217.73 443.404 1379.82 513.653 1379.82 513.653V684.496H0Z" fill="#97880F"/>
<path d="M883.082 310.629C940.851 324.237 1083.62 380.878 1118.76 411.222C1137.89 427.589 1110.48 430.347 1034.49 462.346C960.168 493.608 903.32 537.376 855.486 583.535C807.653 629.694 719.896 684.496 521.387 684.496H978.75C978.75 684.496 997.699 660.405 1024.19 612.223C1052.52 560.548 1061.35 537.56 1151.13 497.47C1240.73 457.38 1273.29 449.105 1254.53 430.163C1230.98 406.624 1088.03 335.639 937.539 310.445H883.082V310.629Z" fill="#9E74F4"/>
<path d="M1129.06 365.063C1074.05 343.179 1006.53 322.03 937.355 310.445H883.082C912.15 317.249 962.743 334.903 1010.21 354.765C1050.5 357.891 1090.05 361.385 1129.06 365.063Z" fill="#AC88F4"/>
<path d="M1379.82 310.629H0V684.496H1379.82V310.629Z" fill="url(#paint5_linear_3439:8981)"/>
<path opacity="0.25" fill-rule="evenodd" clip-rule="evenodd" d="M937.539 310.445C937.903 310.506 938.268 310.567 938.632 310.629H1379.82V395.958V513.653V684.496H978.749H521.386H0V439.91V328.099V310.629L883.082 310.629V310.445H883.083H937.355H937.539Z" fill="black"/>
<path d="M0 200.105C2.57566 197.347 4.96734 196.979 8.64685 196.979C9.7507 196.979 11.0385 197.163 12.1424 197.531C13.2462 197.899 13.9821 198.634 14.718 199.554C16.9257 201.944 18.3975 205.071 18.9495 208.381C20.9732 206.542 24.2848 205.622 26.8604 206.726C29.4361 208.013 31.0919 210.955 30.9079 213.898C34.7714 208.565 42.3144 206.174 48.2016 208.933C54.0888 211.691 57.2164 219.599 53.9048 225.3C55.9285 224.38 58.5042 225.116 59.792 226.955C61.0799 228.794 60.8959 231.368 59.2401 233.023C62.9196 233.207 66.5991 233.943 69.7267 235.782C72.8543 237.621 75.246 240.931 75.4299 244.425C75.4299 248.103 72.6703 251.781 69.1748 251.965C71.1985 252.149 73.2222 252.333 74.878 253.252C76.5338 254.172 78.0056 256.011 77.6377 258.034C77.2697 260.424 74.878 261.712 72.6703 262.815C76.5338 266.125 76.7178 272.746 73.4062 276.791C70.0947 280.837 64.2074 282.124 59.2401 280.837C59.2401 284.883 56.6644 288.561 53.3529 290.768C50.0413 292.974 45.9939 293.894 41.9464 294.262C35.5073 294.63 28.5162 293.342 23.7328 288.745H0C0 288.561 0 200.105 0 200.105Z" fill="#433068"/>
<path d="M0 227.139C6.25517 225.116 12.1424 225.667 17.4777 229.713C22.813 233.759 24.6527 242.034 20.6053 247.184C25.3886 245.712 30.9079 250.678 30.172 255.643C31.4598 248.103 41.2105 249.023 45.9939 252.333C49.6734 255.091 51.6971 259.689 51.5131 264.102C56.2965 262.815 61.6318 267.229 61.2638 272.01C66.0472 269.068 72.6703 269.619 77.0857 273.297C81.3172 276.975 82.9729 283.412 81.1332 288.561C83.5249 288.377 85.9165 288.193 88.1243 289.113C90.332 290.032 92.1717 292.055 91.9877 294.446C94.9313 291.871 99.1628 290.952 102.842 291.871C106.522 292.791 109.833 295.733 111.121 299.411C114.433 297.756 118.664 298.124 121.424 300.514C124.183 302.905 125.471 306.951 124.367 310.445H0V227.139Z" fill="#6A42BC"/>
<path d="M149.204 493.057C137.43 492.321 125.655 491.77 113.697 491.402C90.148 490.85 66.4151 491.034 42.8663 492.137C32.5637 492.689 22.0771 493.241 11.7744 494.16L0 493.792V371.316C0 370.764 6.99107 366.35 16.7418 366.35C23.1809 366.35 31.2758 370.764 35.5073 375.545C41.9464 382.717 43.4182 393.935 39.0028 402.578C43.7862 398.9 51.3292 401.107 55.1926 405.705C59.0561 410.302 60.344 416.739 61.0799 422.807C64.2074 418.578 68.4389 414.716 73.4062 413.245C78.5575 411.589 84.4447 412.325 88.3082 416.003C91.9877 419.497 93.2756 424.83 92.9076 429.979C92.5397 434.945 90.5159 439.91 88.6762 444.507C92.9076 444.14 97.1391 445.795 99.8987 448.921C102.658 452.047 103.946 456.461 103.21 460.507C106.706 458.116 111.673 458.3 115.169 460.874C119.768 464.369 119.032 470.437 119.4 475.586C124.919 472.828 132.462 476.69 133.75 482.758C134.67 479.632 139.085 478.713 143.133 479.264C145.341 479.632 147.364 482.391 147.732 484.597C149.204 483.31 151.228 483.126 153.068 483.678C154.907 484.23 156.379 485.517 157.483 486.988C158.403 488.275 159.139 489.747 158.771 491.218C158.035 494.896 151.78 493.241 149.204 493.057Z" fill="#433068"/>
<path d="M1279.37 374.81C1279.37 374.81 1279.37 370.58 1283.41 369.109C1287.46 367.638 1291.88 369.844 1291.88 369.844C1291.88 369.844 1289.85 372.787 1286.72 374.074C1283.41 374.994 1279.37 374.81 1279.37 374.81Z" fill="#403168"/>
<path d="M1276.42 374.81C1276.42 374.81 1275.32 366.166 1280.65 364.695C1285.99 363.224 1289.48 363.592 1289.48 363.592C1289.48 363.592 1288.56 370.028 1284.15 372.051C1279.73 374.258 1276.42 374.81 1276.42 374.81Z" fill="#403168"/>
<path d="M1269.8 356.236C1267.22 360.282 1266.67 365.431 1269.8 369.66C1272.19 372.971 1276.61 374.81 1276.61 374.81C1276.61 374.81 1278.63 370.764 1276.97 365.615C1275.32 360.466 1269.8 356.236 1269.8 356.236Z" fill="#4C2B93"/>
<path d="M1279.37 374.81C1279.37 374.81 1278.08 368.741 1280.1 365.615C1282.13 362.488 1285.25 361.385 1285.25 361.385C1285.25 361.385 1285.99 365.799 1285.25 368.189C1283.97 372.051 1279.37 374.81 1279.37 374.81Z" fill="#4C2B93"/>
<path d="M1272.56 374.442C1271.64 372.603 1267.22 369.293 1265.2 369.844C1263.18 370.396 1264.28 372.051 1266.49 373.339C1267.96 374.074 1272.56 374.442 1272.56 374.442Z" fill="#4C2B93"/>
<path d="M294.729 394.855C294.729 394.855 292.889 390.441 296.753 387.499C300.432 384.556 303.928 385.292 303.928 385.292C303.928 385.292 299.328 386.947 298.592 388.786C298.04 390.809 294.729 394.855 294.729 394.855Z" fill="#403168"/>
<path d="M297.305 395.222C297.305 395.222 298.041 390.441 301.352 388.418C304.664 386.395 310.183 387.499 310.183 387.499C310.183 387.499 308.159 392.096 305.032 393.383C301.352 394.487 297.305 395.222 297.305 395.222Z" fill="#403168"/>
<path d="M300.432 395.222C300.432 395.222 303.559 392.28 306.319 392.464C309.078 392.648 310.918 394.303 310.918 394.303C310.918 394.303 309.078 395.958 306.687 395.958C304.111 395.958 300.432 395.222 300.432 395.222Z" fill="#403168"/>
<path d="M297.305 395.222C297.305 395.222 294.177 392.464 295.097 387.499C296.201 382.533 300.8 379.775 300.8 379.775C300.8 379.775 303.008 385.108 302.272 388.97C301.72 392.832 297.305 395.222 297.305 395.222Z" fill="#4C2B93"/>
<path d="M294.913 395.222C294.913 395.222 289.394 392.648 289.394 390.073C289.394 387.499 291.233 382.533 291.233 382.533C291.233 382.533 292.889 384.556 293.073 387.499C293.441 390.257 294.913 395.222 294.913 395.222Z" fill="#4C2B93"/>
<path d="M300.433 395.222C300.433 395.222 303.008 389.889 307.424 390.625C307.424 390.625 308.527 395.406 300.433 395.222Z" fill="#4C2B93"/>
<path d="M76.3501 356.604C75.9821 353.661 83.1572 348.512 84.261 349.432C85.3649 350.351 83.1572 352.374 81.1334 354.397C78.9257 356.42 76.3501 356.604 76.3501 356.604Z" fill="#403168"/>
<path d="M80.2139 356.604C80.2139 356.604 81.1337 349.983 87.021 348.144C92.9082 346.305 96.4037 348.144 96.4037 348.144C96.4037 348.144 94.196 352.742 89.9646 354.397C85.9171 356.236 80.2139 356.604 80.2139 356.604Z" fill="#403168"/>
<path d="M94.9318 355.5C94.1959 354.029 88.1247 352.558 84.2612 356.42C84.2612 356.42 88.3087 357.707 90.7004 357.523C93.0921 357.339 96.0357 357.523 94.9318 355.5Z" fill="#403168"/>
<path d="M87.0202 338.214C89.5958 342.26 90.1478 347.409 87.0202 351.638C84.6285 354.949 80.2131 356.788 80.2131 356.788C80.2131 356.788 78.1894 352.742 79.8451 347.593C81.5009 342.259 87.0202 338.214 87.0202 338.214Z" fill="#4C2B93"/>
<path d="M77.0861 354.397C77.0861 354.397 77.638 348.144 75.2463 345.386C72.8546 342.443 69.7271 341.892 69.7271 341.892C69.7271 341.892 69.7271 346.489 70.6469 348.512C72.3027 352.19 77.0861 354.397 77.0861 354.397Z" fill="#4C2B93"/>
<path d="M84.2612 356.236C85.1811 354.397 89.5965 351.087 91.6202 351.638C93.644 352.19 92.5401 353.845 90.3324 355.132C88.6766 356.052 84.2612 356.236 84.2612 356.236Z" fill="#4C2B93"/>
<path d="M76.35 356.604C76.35 356.604 73.4064 351.822 67.1512 350.903C67.1512 350.903 66.4153 352.926 69.7269 354.949C73.0384 357.155 76.35 356.604 76.35 356.604Z" fill="#4C2B93"/>
<path d="M1148.38 244.793C1148.38 244.793 1141.02 254.724 1137.89 275.32C1134.76 295.917 1148.38 298.124 1148.38 298.124C1148.38 298.124 1160.33 294.63 1158.13 275.32C1155.73 256.195 1148.38 244.793 1148.38 244.793Z" fill="#663DBF"/>
<path d="M1147.82 274.217L1146.35 310.629H1149.85L1147.82 274.217Z" fill="#442783"/>
<path d="M1170.64 217.76C1170.64 217.76 1160.15 231.92 1155.73 260.976C1151.32 290.216 1170.64 293.342 1170.64 293.342C1170.64 293.342 1187.56 288.377 1184.43 261.16C1181.12 233.759 1170.64 217.76 1170.64 217.76Z" fill="#5C36AD"/>
<path d="M1169.9 259.321L1167.88 310.629H1172.66L1169.9 259.321Z" fill="#442783"/>
<path d="M160.795 244.793C160.795 244.793 168.154 254.724 171.281 275.32C174.409 295.917 160.795 298.124 160.795 298.124C160.795 298.124 148.836 294.63 151.044 275.32C153.436 256.195 160.795 244.793 160.795 244.793Z" fill="#663DBF"/>
<path d="M161.346 274.217L162.634 310.629H159.323L161.346 274.217Z" fill="#442783"/>
<path d="M138.533 217.76C138.533 217.76 149.02 231.92 153.435 260.976C157.851 290.216 138.533 293.342 138.533 293.342C138.533 293.342 121.608 288.377 124.735 261.16C128.047 233.759 138.533 217.76 138.533 217.76Z" fill="#5C36AD"/>
<path d="M139.269 259.321L141.109 310.629H136.326L139.269 259.321Z" fill="#442783"/>
<path d="M284.426 301.434C284.426 301.434 273.94 315.594 269.524 344.834C265.109 374.074 284.426 377.2 284.426 377.2C284.426 377.2 301.352 372.235 298.224 344.834C295.097 317.617 284.426 301.434 284.426 301.434Z" fill="#663DBF"/>
<path d="M283.69 343.179L281.851 394.671H286.634L283.69 343.179Z" fill="#442783"/>
<path d="M260.509 291.503C260.509 291.503 250.023 305.664 245.607 334.903C241.192 364.143 260.509 367.27 260.509 367.27C260.509 367.27 277.435 362.304 274.307 334.903C270.996 307.686 260.509 291.503 260.509 291.503Z" fill="#5C36AD"/>
<path d="M259.773 333.248L257.749 384.74H262.532L259.773 333.248Z" fill="#442783"/>
<path d="M969 310.445L969.183 310.629H1122.62C1120.6 307.135 1115.44 305.664 1111.95 307.686C1109.56 304.192 1104.22 303.457 1100.91 306.031C1100.17 304.192 1098.33 302.721 1096.31 302.537C1094.29 302.537 1092.26 303.825 1091.53 305.664C1090.61 304.192 1089.32 302.721 1087.48 302.353C1085.82 301.986 1083.62 302.905 1083.25 304.744C1082.51 302.721 1080.67 301.066 1078.46 300.698C1076.26 300.33 1074.05 301.434 1072.76 303.089C1073.13 301.25 1072.21 299.043 1070.37 298.308C1068.53 297.572 1066.32 298.124 1065.22 299.595C1065.59 295.917 1064.67 292.975 1061.36 291.503C1058.96 290.4 1055.28 290.216 1052.89 291.503C1049.58 293.158 1048.48 295.181 1047.37 299.411C1045.53 295.917 1039.83 296.653 1037.62 299.963C1038.73 296.101 1035.6 291.687 1031.74 291.503C1027.69 291.319 1024.38 295.733 1025.3 299.595C1024.93 297.204 1021.8 295.733 1019.96 297.02C1020.88 294.814 1021.62 292.239 1021.06 289.664C1020.51 287.274 1018.67 285.067 1016.28 284.515C1014.26 284.147 1011.87 285.435 1011.13 287.274C1011.31 284.883 1008.92 282.492 1006.53 283.044C1010.03 280.286 1010.03 274.217 1006.53 271.458C1003.22 268.7 997.332 269.619 995.124 273.481C995.492 271.642 994.572 269.619 992.916 268.516C991.261 267.413 989.053 267.596 987.581 268.516C987.765 264.838 985.741 260.976 982.614 258.953C979.486 256.93 975.255 256.563 971.943 258.218C970.287 258.953 969 259.505 968.08 260.976C967.16 262.447 966.792 264.286 966.608 266.125C964.768 277.159 964.768 288.377 966.424 299.411C966.424 302.537 966.792 308.606 969 310.445Z" fill="#6D45C0"/>
<path d="M759.635 310.629C762.027 308.054 763.131 304.376 763.498 300.514C764.234 291.503 763.682 282.308 762.211 273.481C760.923 265.574 756.691 259.137 747.677 260.057C743.077 260.424 738.846 262.999 735.534 266.125C732.591 268.884 732.407 272.562 732.959 276.24C730.383 273.849 725.232 275.688 724.864 279.366C723.392 277.711 721.736 276.056 719.712 275.136C717.689 274.217 715.113 274.217 713.273 275.688C711.433 277.159 710.881 279.918 712.537 281.573C710.514 281.021 708.306 281.389 706.65 282.676C704.994 283.963 704.626 286.538 705.73 288.193C704.074 286.354 701.131 285.986 699.107 287.458C697.083 288.929 696.347 291.871 697.635 294.078C696.163 291.503 692.3 292.791 691.196 295.181C689.172 291.687 684.757 290.032 680.71 289.664C678.502 289.48 676.11 289.48 674.086 290.584C670.039 292.607 668.751 297.756 668.015 302.353C667.095 301.25 665.991 299.963 664.704 299.411C661.392 297.756 658.081 300.147 656.425 302.905C653.113 299.043 648.698 296.101 643.73 295.549C638.763 295.181 633.244 298.124 632.14 303.089C630.116 302.169 628.093 301.25 625.885 301.434C623.677 301.434 621.469 302.721 620.918 304.744C618.526 303.457 615.214 303.457 612.823 304.744C610.431 306.031 608.775 308.422 608.407 311.18H759.635V310.629Z" fill="#6D45C0"/>
<path d="M989.605 251.046H967.712V237.805L907.184 163.694L913.623 159.28L969.919 195.692L980.774 237.805L989.605 251.046Z" fill="#8569C0"/>
<path d="M989.604 251.046L978.566 239.092H967.711V251.046H989.604Z" fill="#6C53A6"/>
<path d="M846.472 237.805L856.774 195.692L908.287 160.016L964.952 199.554L974.335 237.805V310.629H846.472V237.805Z" fill="#7B47E7"/>
<path d="M850.151 237.805H748.045V310.629H850.151V237.805Z" fill="#5D35B2"/>
<path d="M746.572 237.805L756.875 195.692H860.453L850.15 237.805H746.572Z" fill="#BB9FF6"/>
<path d="M756.875 195.692L809.86 159.28H913.622L860.453 195.692H756.875Z" fill="#C8AEF5"/>
<path d="M837.273 251.046H733.694L746.573 237.805H850.151L837.273 251.046Z" fill="#C8AEF5"/>
<path d="M919.877 159.28L865.237 196.979L854.934 239.092L843.712 251.046H837.272L850.151 237.805L860.453 195.692L913.622 159.28H919.877Z" fill="#CCB6F6"/>
<path d="M913.623 159.28L968.264 196.979L978.566 239.092L989.605 251.046H996.044L983.166 237.805L972.863 195.692L919.878 159.28H913.623Z" fill="#CEB5F6"/>
<path d="M964.952 199.554L968.263 196.979L916.934 161.303L913.438 163.51L964.952 199.554Z" fill="#6C53A6"/>
<path d="M865.237 152.108H862.661V149.901L865.237 152.108Z" fill="#6C53A6"/>
<path d="M844.999 148.614H823.474V166.636H844.999V148.614Z" fill="#5D35B2"/>
<path d="M844.999 166.636L856.405 159.28H862.661V148.614L853.83 140.706L844.999 148.614V166.636Z" fill="#7B47E7"/>
<path d="M818.139 150.637L829.545 140.706H853.83L842.423 150.637H818.139Z" fill="#C8AEF5"/>
<path d="M842.607 150.637H818.139V152.108H842.607V150.637Z" fill="#BB9FF4"/>
<path d="M842.424 152.108L853.83 142.177V140.706L842.424 150.637V152.108Z" fill="#8569C0"/>
<path d="M865.237 152.108L853.83 142.177V140.706L865.237 150.637V152.108Z" fill="#8569C0"/>
<path d="M936.251 255.275H887.13V310.629H936.251V255.275Z" fill="#5834A2"/>
<path d="M888.785 256.746H885.657V310.445H888.785V256.746Z" fill="#3D2373"/>
<path d="M934.596 256.746H931.469V310.445H934.596V256.746Z" fill="#3D2373"/>
<path d="M911.783 256.746H908.655V310.445H911.783V256.746Z" fill="#3D2373"/>
<path d="M885.708 256.738V259.864H934.83V256.738H885.708Z" fill="#3D2373"/>
<path d="M885.544 282.831V285.958H934.665V282.831H885.544Z" fill="#3D2373"/>
<path d="M931.468 256.746L908.655 284.515H911.783L934.596 256.746H931.468Z" fill="#3D2373"/>
<path d="M888.785 256.746L911.782 284.515H908.654L885.657 256.746H888.785Z" fill="#3D2373"/>
<path d="M930.18 310.629L908.655 284.515H911.783L933.308 310.629H930.18Z" fill="#3D2373"/>
<path d="M890.074 310.629L911.783 284.515H908.655L886.946 310.629H890.074Z" fill="#3D2373"/>
<path d="M890.257 255.275H887.13V310.628H890.257V255.275Z" fill="#C8AEF5"/>
<path d="M936.252 255.275H933.124V310.629H936.252V255.275Z" fill="#C8AEF5"/>
<path d="M913.255 255.275H910.127V310.629H913.255V255.275Z" fill="#C8AEF5"/>
<path d="M887.217 255.266V258.393H936.338V255.266H887.217Z" fill="#C8AEF5"/>
<path d="M887.236 281.36V284.486H936.358V281.36H887.236Z" fill="#C8AEF5"/>
<path d="M933.124 255.275L910.127 282.86H913.255L936.251 255.275H933.124Z" fill="#C8AEF5"/>
<path d="M890.441 255.275L913.254 282.86H910.127L887.13 255.275H890.441Z" fill="#C8AEF5"/>
<path d="M933.124 310.629L910.127 282.86H913.255L936.251 310.629H933.124Z" fill="#C8AEF5"/>
<path d="M890.441 310.629L913.254 282.86H910.127L887.13 310.629H890.441Z" fill="#C8AEF5"/>
<path d="M926.501 202.128H897.064V234.311H926.501V202.128Z" fill="#FBB737"/>
<path d="M895.735 232.708V235.651H925.171V232.708H895.735Z" fill="#3D2373"/>
<path d="M895.733 203.471V206.413H925.169V203.471H895.733Z" fill="#3D2373"/>
<path d="M895.707 235.51H898.65V203.328H895.707V235.51Z" fill="#3D2373"/>
<path d="M922.179 235.51H925.122V203.328H922.179V235.51Z" fill="#3D2373"/>
<path d="M898.72 203.416L922.085 232.656V235.598L898.72 206.358V203.416Z" fill="#3D2373"/>
<path d="M922.085 203.416L898.72 232.656V235.598L922.085 206.358V203.416Z" fill="#3D2373"/>
<path d="M896.987 231.339V234.282H926.423V231.339H896.987Z" fill="#C8AEF5"/>
<path d="M896.985 202.101V205.044H926.421V202.101H896.985Z" fill="#C8AEF5"/>
<path d="M897.061 234.361H900.005V202.178H897.061V234.361Z" fill="#C8AEF5"/>
<path d="M923.532 234.361H926.476V202.178H923.532V234.361Z" fill="#C8AEF5"/>
<path d="M900.008 202.128L923.373 231.368V234.311L900.008 205.071V202.128Z" fill="#C8AEF5"/>
<path d="M923.373 202.128L900.008 231.368V234.311L923.373 205.071V202.128Z" fill="#C8AEF5"/>
<path d="M793.67 270.539H773.801V291.136H793.67V270.539Z" fill="#FBB737"/>
<path d="M772.627 289.577V291.968H792.496V289.577H772.627Z" fill="#3C2074"/>
<path d="M772.733 271.448V273.839H792.603V271.448H772.733Z" fill="#3C2074"/>
<path d="M772.683 292.114H775.074V271.518H772.683V292.114Z" fill="#3C2074"/>
<path d="M790.242 292.07H792.634V272.945H790.242V292.07Z" fill="#3C2074"/>
<path d="M773.724 288.738V291.129H793.593V288.738H773.724Z" fill="#C8AEF5"/>
<path d="M773.646 270.609V273H793.516V270.609H773.646Z" fill="#C8AEF5"/>
<path d="M773.677 291.099H776.068V270.502H773.677V291.099Z" fill="#C8AEF5"/>
<path d="M791.235 291.099H793.627V270.502H791.235V291.099Z" fill="#C8AEF5"/>
<path d="M811.148 270.539H791.278V291.136H811.148V270.539Z" fill="#FBB737"/>
<path d="M791.222 289.59V291.981H810.171V289.59H791.222Z" fill="#3C2074"/>
<path d="M791.328 271.461V273.852H810.278V271.461H791.328Z" fill="#3C2074"/>
<path d="M807.801 292.115H810.192V271.518H807.801V292.115Z" fill="#3C2074"/>
<path d="M791.243 288.779V291.169H811.112V288.779H791.243Z" fill="#C8AEF5"/>
<path d="M791.165 270.65V273.041H811.034V270.65H791.165Z" fill="#C8AEF5"/>
<path d="M791.236 291.099H793.628V270.502H791.236V291.099Z" fill="#C8AEF5"/>
<path d="M808.795 291.099H811.187V270.502H808.795V291.099Z" fill="#C8AEF5"/>
<path opacity="0.3" fill-rule="evenodd" clip-rule="evenodd" d="M865.236 152.108H862.661L862.661 159.28L913.622 159.28H919.877L972.862 195.692L983.165 237.805L996.043 251.045H989.604H974.334V257.395C977.131 256.817 980.2 257.393 982.613 258.953C985.74 260.976 987.764 264.838 987.58 268.516C989.052 267.596 991.26 267.413 992.915 268.516C994.571 269.619 995.491 271.642 995.123 273.481C997.331 269.619 1003.22 268.7 1006.53 271.458C1010.03 274.217 1010.03 280.286 1006.53 283.044C1008.92 282.492 1011.31 284.883 1011.13 287.274C1011.86 285.435 1014.26 284.147 1016.28 284.515C1018.67 285.067 1020.51 287.274 1021.06 289.664C1021.62 292.239 1020.88 294.814 1019.96 297.02C1021.72 295.79 1024.65 297.078 1025.23 299.28C1024.55 295.498 1027.8 291.324 1031.73 291.503C1035.6 291.687 1038.73 296.101 1037.62 299.963C1039.83 296.652 1045.53 295.917 1047.37 299.411C1048.48 295.181 1049.58 293.158 1052.89 291.503C1055.28 290.216 1058.96 290.4 1061.35 291.503C1064.67 292.975 1065.59 295.917 1065.22 299.595C1066.32 298.124 1068.53 297.572 1070.37 298.308C1072.21 299.043 1073.13 301.25 1072.76 303.089C1074.05 301.434 1076.26 300.33 1078.46 300.698C1080.67 301.066 1082.51 302.721 1083.25 304.744C1083.62 302.905 1085.82 301.986 1087.48 302.353C1089.32 302.721 1090.61 304.192 1091.53 305.664C1092.26 303.825 1094.29 302.537 1096.31 302.537C1098.33 302.721 1100.17 304.192 1100.91 306.031C1104.22 303.457 1109.56 304.192 1111.95 307.686C1115.44 305.664 1120.59 307.135 1122.62 310.629H974.334H969.182L936.251 310.629H933.307H933.123H930.18H913.254H910.127L890.441 310.629L890.073 310.629H887.129H886.945H850.15L846.471 310.629L759.634 310.629V311.181H608.406C608.774 308.422 610.43 306.031 612.822 304.744C615.213 303.457 618.525 303.457 620.917 304.744C621.469 302.721 623.676 301.434 625.884 301.434C628.092 301.25 630.115 302.169 632.139 303.089C633.243 298.124 638.762 295.181 643.729 295.549C648.697 296.101 653.112 299.043 656.424 302.905C658.08 300.147 661.391 297.756 664.703 299.411C665.99 299.963 667.094 301.25 668.014 302.353C668.75 297.756 670.038 292.607 674.085 290.584C676.109 289.48 678.501 289.48 680.709 289.664C684.756 290.032 689.171 291.687 691.195 295.181C692.295 292.8 696.133 291.513 697.617 294.048C696.353 291.845 697.091 288.922 699.106 287.458C701.13 285.986 704.073 286.354 705.729 288.193C704.625 286.538 704.993 283.963 706.649 282.676C708.305 281.389 710.513 281.021 712.536 281.573C710.88 279.918 711.432 277.159 713.272 275.688C715.112 274.217 717.688 274.217 719.711 275.136C721.735 276.056 723.391 277.711 724.863 279.366C725.231 275.688 730.382 273.849 732.958 276.24C732.406 272.562 732.59 268.884 735.533 266.125C738.845 262.999 743.076 260.424 747.676 260.057C747.799 260.044 747.922 260.033 748.044 260.023V251.045H733.694L746.572 237.805H748.044L846.471 237.805H746.572L756.875 195.692L809.86 159.28H823.474V152.108H818.139L818.139 150.637L829.545 140.706L853.83 140.706L853.834 140.71L865.237 150.637L865.236 152.108ZM862.661 149.901V149.865L865.236 152.108L862.661 149.901Z" fill="black"/>
<path d="M1206.95 348.207L1225.35 115.391H1241.36L1259.75 348.207" stroke="#4E2B97" stroke-miterlimit="10" stroke-linecap="round" stroke-linejoin="round"/>
<path d="M1241.36 115.391L1222.77 146.838L1246.69 184.537H1219.83L1243.75 146.838L1225.35 115.391" stroke="#4E2B97" stroke-miterlimit="10" stroke-linecap="round" stroke-linejoin="round"/>
<path d="M1246.69 184.537L1215.78 235.293" stroke="#4E2B97" stroke-miterlimit="10" stroke-linecap="round" stroke-linejoin="round"/>
<path d="M1250.74 235.293L1211.18 295.244H1255.52L1215.78 235.293H1250.74ZM1250.74 235.293L1219.83 184.537" stroke="#4E2B97" stroke-miterlimit="10" stroke-linecap="round" stroke-linejoin="round"/>
<path d="M1211.18 295.244L1259.2 341.955" stroke="#4E2B97" stroke-miterlimit="10" stroke-linecap="round" stroke-linejoin="round"/>
<path d="M1255.52 295.244L1207.5 341.955" stroke="#4E2B97" stroke-miterlimit="10" stroke-linecap="round" stroke-linejoin="round"/>
<path d="M1249.82 144.263H1216.7C1215.6 144.263 1214.86 145.183 1214.86 146.102V146.47C1214.86 147.573 1215.78 148.309 1216.7 148.309H1249.82C1250.92 148.309 1251.66 147.389 1251.66 146.47V146.102C1251.84 145.183 1250.92 144.263 1249.82 144.263Z" fill="#4E2B97"/>
<path d="M1233.26 115.391V348.207" stroke="#4E2B97" stroke-miterlimit="10" stroke-linecap="round" stroke-linejoin="round"/>
<path d="M1229.77 79.8985C1229.77 77.8756 1231.42 76.4044 1233.26 76.4044C1235.28 76.4044 1236.76 78.0595 1236.76 79.8985C1236.76 81.9214 1235.1 83.3926 1233.26 83.3926C1231.42 83.3926 1229.77 81.7375 1229.77 79.8985Z" fill="#4E2B97"/>
<path d="M1233.26 71.2552C1233.26 71.2552 1227.56 60.4051 1229.76 55.256C1231.97 50.1068 1236.02 46.2449 1236.76 48.8195C1237.49 51.3941 1233.26 71.2552 1233.26 71.2552Z" fill="#4E2B97"/>
<path d="M1228.29 72.9103C1228.29 72.9103 1217.26 67.3933 1215.97 61.8763C1214.68 56.3593 1215.78 50.8423 1217.81 52.4974C1220.01 54.3364 1228.29 72.9103 1228.29 72.9103Z" fill="#4E2B97"/>
<path d="M1224.98 77.1399C1224.98 77.1399 1212.84 79.1628 1208.61 75.4848C1204.38 71.8069 1201.98 66.6577 1204.74 66.8416C1207.5 67.0255 1224.98 77.1399 1224.98 77.1399Z" fill="#4E2B97"/>
<path d="M1224.98 82.473C1224.98 82.473 1216.33 91.3002 1210.82 90.7485C1205.3 90.1968 1200.33 87.6222 1202.54 85.9671C1204.93 84.6798 1224.98 82.473 1224.98 82.473Z" fill="#4E2B97"/>
<path d="M1228.29 86.8866C1228.29 86.8866 1226.45 99.024 1221.67 101.966C1216.89 104.909 1211.18 105.644 1212.29 103.07C1213.21 100.311 1228.29 86.8866 1228.29 86.8866Z" fill="#4E2B97"/>
<path d="M1233.26 88.5417C1233.26 88.5417 1238.96 99.3918 1236.76 104.541C1234.55 109.69 1230.5 113.552 1229.76 110.977C1229.03 108.403 1233.26 88.5417 1233.26 88.5417Z" fill="#4E2B97"/>
<path d="M1238.41 86.8866C1238.41 86.8866 1249.45 92.4036 1250.74 97.9206C1252.03 103.438 1250.92 108.955 1248.9 107.299C1246.69 105.277 1238.41 86.8866 1238.41 86.8866Z" fill="#4E2B97"/>
<path d="M1241.54 82.473C1241.54 82.473 1253.68 80.4501 1257.91 84.1281C1262.14 87.8061 1264.54 92.9553 1261.78 92.7714C1259.02 92.5875 1241.54 82.473 1241.54 82.473Z" fill="#4E2B97"/>
<path d="M1241.54 77.14C1241.54 77.14 1250.19 68.3128 1255.71 68.8645C1261.22 69.4162 1266.19 71.9908 1263.98 73.6459C1261.59 75.1171 1241.54 77.14 1241.54 77.14Z" fill="#4E2B97"/>
<path d="M1238.41 72.9104C1238.41 72.9104 1240.25 60.773 1245.04 57.8306C1249.82 54.8882 1255.52 54.1526 1254.42 56.7272C1253.5 59.3018 1238.41 72.9104 1238.41 72.9104Z" fill="#4E2B97"/>
<path fill-rule="evenodd" clip-rule="evenodd" d="M1109 292.239V284.699H1105.51V281.757C1106.06 281.573 1106.06 281.021 1106.06 280.469V276.24C1106.06 275.688 1105.69 275.136 1105.14 274.952C1105.14 273.849 1105.14 271.274 1105.32 270.171C1105.51 269.251 1106.98 269.435 1106.98 269.435L1107.16 268.332C1106.24 268.332 1104.59 268.516 1104.4 270.171C1104.22 271.274 1104.22 273.849 1104.22 274.952C1103.67 275.136 1103.3 275.688 1103.3 276.24V280.285C1103.3 281.021 1103.85 281.573 1104.4 281.757V284.515H1097.78L1096.86 288.193C1092.45 288.745 1088.77 290.951 1086.19 294.262C1083.43 294.078 1080.86 293.158 1078.83 291.871L1084.35 286.354L1087.11 289.113C1087.48 289.48 1088.03 289.48 1088.4 289.113C1088.77 288.745 1088.77 288.193 1088.4 287.825L1081.78 281.205C1081.41 280.837 1080.86 280.837 1080.49 281.205C1080.12 281.573 1080.12 282.124 1080.49 282.492L1083.25 285.251L1077.54 290.952C1077.18 290.584 1076.81 290.4 1076.62 290.032V280.469C1076.62 279.55 1075.89 278.814 1074.97 278.814C1074.05 278.814 1073.31 279.55 1073.31 280.469V287.641H1056.02C1054.55 287.641 1053.44 288.561 1052.89 290.032H1051.42V295.181H1052.52V298.307C1047.56 299.595 1043.88 304.376 1044.43 309.709C1044.8 315.226 1049.58 319.824 1055.28 319.824C1061.35 319.824 1066.51 315.042 1066.51 308.79C1066.51 307.686 1066.32 306.399 1065.95 305.48H1082.7C1083.43 314.307 1091.53 320.927 1100.73 319.64C1107.72 318.72 1113.24 313.203 1114.16 306.215C1115.08 300.698 1112.87 295.549 1109 292.239Z" fill="#4E2B97"/>
</g>
<defs>
<linearGradient id="paint0_linear_3439:8981" x1="950.984" y1="93.1324" x2="950.984" y2="-191.86" gradientUnits="userSpaceOnUse">
<stop stop-color="#B995F5" stop-opacity="0.15"/>
<stop offset="1" stop-color="#BE9DF6" stop-opacity="0.05"/>
</linearGradient>
<linearGradient id="paint1_linear_3439:8981" x1="252.423" y1="2.92152" x2="252.423" y2="-198.915" gradientUnits="userSpaceOnUse">
<stop stop-color="#B995F5" stop-opacity="0.15"/>
<stop offset="1" stop-color="#BE9DF6" stop-opacity="0.05"/>
</linearGradient>
<linearGradient id="paint2_linear_3439:8981" x1="165.29" y1="91.2931" x2="165.29" y2="-138.556" gradientUnits="userSpaceOnUse">
<stop stop-color="#B995F5" stop-opacity="0.15"/>
<stop offset="1" stop-color="#BE9DF6" stop-opacity="0.05"/>
</linearGradient>
<linearGradient id="paint3_linear_3439:8981" x1="1152.84" y1="29.0062" x2="1152.84" y2="-196.144" gradientUnits="userSpaceOnUse">
<stop stop-color="#B995F5" stop-opacity="0.15"/>
<stop offset="1" stop-color="#BE9DF6" stop-opacity="0.05"/>
</linearGradient>
<linearGradient id="paint4_linear_3439:8981" x1="388.354" y1="175.193" x2="388.354" y2="308.719" gradientUnits="userSpaceOnUse">
<stop stop-color="#B798F6" stop-opacity="0"/>
<stop offset="1" stop-color="#895DDC" stop-opacity="0.5"/>
</linearGradient>
<linearGradient id="paint5_linear_3439:8981" x1="718.42" y1="324.802" x2="669.501" y2="621.398" gradientUnits="userSpaceOnUse">
<stop stop-color="#97880F" stop-opacity="0"/>
<stop offset="1" stop-color="#395E11" stop-opacity="0.4"/>
</linearGradient>
<clipPath id="clip0_3439:8981">
<rect width="1380" height="400" fill="white"/>
</clipPath>
</defs>
</svg>
