<svg width="338" height="442" viewBox="0 0 338 442" fill="none" xmlns="http://www.w3.org/2000/svg">
<path d="M925.789 -326.867H-647.962V721.865H925.789V-326.867Z" fill="url(#paint0_linear_9370_50366)"/>
<path d="M925.789 -90.692C922.642 -88.5945 920.963 -86.0776 922.012 -83.3509C917.186 -95.3064 905.645 -104.326 892.845 -106.213C880.045 -108.101 866.406 -102.648 858.433 -92.5797C860.951 -108.94 848.361 -126.139 832.203 -128.866C815.836 -131.593 798.42 -119.637 795.273 -103.487C794.853 -118.588 772.191 -126.978 761.909 -115.862C761.699 -131.383 752.047 -146.275 737.988 -152.567C723.929 -158.86 706.303 -156.133 694.763 -146.065C698.539 -167.04 681.333 -187.385 660.979 -193.677C642.094 -199.341 622.999 -191.999 605.793 -183.4C603.485 -206.262 582.502 -223.042 561.099 -231.432C528.574 -244.017 490.175 -242.758 459.959 -225.349C429.743 -207.94 408.969 -173.752 410.438 -138.934C388.196 -150.679 356.511 -137.675 349.167 -113.554C346.229 -134.109 325.875 -150.679 305.102 -149.421C284.328 -148.162 266.073 -129.285 265.653 -108.52C260.617 -117.12 246.558 -116.91 239.843 -109.569C233.129 -102.228 232.919 -90.4822 236.696 -81.2534C230.401 -87.1263 218.021 -81.4631 218.231 -72.8635C211.936 -93.4187 182.769 -99.7111 164.513 -88.3848C146.258 -77.0585 138.074 -54.4059 137.025 -32.802C130.73 -38.6749 119.609 -38.0456 114.153 -31.5435C108.698 -25.0414 109.957 -13.9248 116.671 -8.68114C104.501 -12.2468 91.7011 -15.6028 79.5307 -12.4566C67.3604 -9.31038 56.6589 3.48415 60.4359 15.4397C49.1049 9.14731 32.528 20.4736 34.4165 33.2681C19.938 18.3761 -9.22889 24.4588 -16.7829 43.7554C-28.7434 41.8677 -41.1236 43.336 -52.4546 47.9504C-29.3729 56.3402 -3.56338 57.5987 20.1478 51.5161C27.492 62.6326 46.1672 63.4716 54.3507 52.9843C66.9407 67.8763 95.2682 63.2619 102.193 45.0139C131.779 69.9738 185.077 55.0818 197.457 18.3762C211.096 36.6241 242.152 37.4631 256.84 20.0541C258.309 32.6389 269.43 43.5457 282.02 44.8042C294.61 46.0627 307.62 37.6728 311.607 25.7173C344.341 63.0522 411.907 60.7449 442.123 21.3126C454.083 39.3508 475.906 50.6771 497.519 50.0479C519.132 49.4186 540.325 37.0436 551.236 18.3762C562.567 34.5266 587.957 38.5118 603.695 26.5563C624.468 47.7407 663.917 44.8042 681.543 21.1028C688.258 41.8677 708.821 57.1792 730.644 57.5987C752.467 58.0182 773.66 43.5457 781.214 22.9906C787.089 35.1559 805.974 38.0923 815.417 28.444C830.315 54.033 872.701 56.9695 890.957 33.4779C899.98 44.175 912.15 51.7258 925.579 55.5013V-90.692H925.789Z" fill="url(#paint1_linear_9370_50366)"/>
<path opacity="0.15" d="M638.738 -326.867L334.479 337.4H-59.3779L306.152 -326.867H638.738Z" fill="#FFF8BB"/>
<path opacity="0.2" d="M568.023 -326.867L267.541 337.4H148.146L503.394 -326.867H568.023Z" fill="#FFF8BB"/>
<path opacity="0.2" d="M422.4 -326.867L77.4342 337.4H18.0513L389.457 -326.867H422.4Z" fill="#FFF8BB"/>
<path opacity="0.15" d="M128.422 -326.867L-210.879 337.4H-313.697L77.2224 -326.867H128.422Z" fill="#FFF8BB"/>
<path d="M366.344 151.802C328.356 136.532 232.778 131.532 138.011 134.1C-52.4703 139.37 -294.999 200.855 -491.293 250.584H366.344V151.802Z" fill="#FBB62B"/>
<path d="M79.6084 181.668C152.746 175.046 188.165 165.992 188.165 165.992C188.165 165.992 135.982 191.397 154.368 194.1C172.753 196.938 387.298 152.073 301.994 138.83V138.695C256.435 133.695 197.087 132.344 138.145 134.101C59.3301 136.263 -28.5426 148.155 -118.173 164.776C-120.606 166.262 -122.634 167.749 -124.256 169.506C-136.018 182.749 6.33612 188.289 79.6084 181.668Z" fill="#FCC64F"/>
<path d="M366.344 151.803C356.07 147.614 341.47 144.236 323.76 141.533C408.659 171.262 306.186 260.315 79.6092 243.558C-135.341 227.613 -171.031 190.451 -148.86 170.587C-192.255 179.1 -235.786 188.559 -278.911 198.559L-282.291 250.315H366.344V151.803Z" fill="#EC9C19"/>
<path d="M366.344 151.802C328.356 136.532 232.778 131.532 138.011 134.1C-52.4703 139.37 -294.999 200.855 -491.293 250.584H366.344V151.802Z" fill="url(#paint2_linear_9370_50366)"/>
<path d="M366.344 169.101C364.452 167.074 362.694 166.803 359.991 166.803C359.179 166.803 358.233 166.939 357.422 167.209C356.611 167.479 356.07 168.02 355.529 168.695C353.907 170.452 352.826 172.749 352.42 175.182C350.933 173.83 348.5 173.155 346.607 173.965C344.714 174.911 343.498 177.074 343.633 179.236C340.794 175.317 335.251 173.56 330.925 175.587C326.599 177.614 324.301 183.425 326.734 187.614C325.247 186.938 323.354 187.479 322.408 188.83C321.462 190.181 321.597 192.073 322.814 193.289C320.11 193.425 317.406 193.965 315.108 195.316C312.81 196.668 311.052 199.1 310.917 201.668C310.917 204.37 312.945 207.073 315.514 207.208C314.026 207.343 312.539 207.478 311.323 208.154C310.106 208.83 309.024 210.181 309.295 211.668C309.565 213.424 311.323 214.37 312.945 215.181C310.106 217.613 309.971 222.478 312.404 225.451C314.838 228.424 319.164 229.37 322.814 228.424C322.814 231.397 324.706 234.1 327.14 235.721C329.573 237.343 332.547 238.018 335.521 238.289C340.253 238.559 345.39 237.613 348.905 234.235H366.344C366.344 234.099 366.344 169.101 366.344 169.101Z" fill="#4D542B"/>
<path d="M366.344 188.965C361.748 187.479 357.422 187.884 353.501 190.857C349.581 193.83 348.229 199.911 351.203 203.695C347.688 202.614 343.632 206.262 344.173 209.911C343.227 204.37 336.062 205.046 332.547 207.478C329.843 209.505 328.356 212.884 328.491 216.127C324.976 215.181 321.056 218.424 321.326 221.938C317.811 219.776 312.945 220.181 309.7 222.884C306.591 225.586 305.374 230.316 306.726 234.1C304.969 233.964 303.211 233.829 301.589 234.505C299.967 235.181 298.615 236.667 298.75 238.424C296.587 236.532 293.477 235.856 290.774 236.532C288.07 237.208 285.637 239.37 284.69 242.072C282.257 240.856 279.148 241.126 277.12 242.883C275.092 244.64 274.146 247.613 274.957 250.18H366.344V188.965Z" fill="#6A8922"/>
<path d="M366.344 250.316H-647.572V525.041H366.344V250.316Z" fill="#B4A30B"/>
<path d="M366.344 313.018C84.3398 270.586 -211.588 263.829 -647.572 263.154V250.316H366.344V313.018Z" fill="#D2BE07"/>
<path d="M-647.572 525.04V345.314C-647.572 345.314 -297.568 302.747 -25.1631 325.314C247.242 347.881 366.344 399.502 366.344 399.502V525.04H-647.572Z" fill="#97880F"/>
<path d="M1.33466 250.315C43.7839 260.315 148.69 301.936 174.511 324.233C188.571 336.26 168.428 338.287 112.595 361.8C57.9787 384.772 16.2054 416.934 -18.9437 450.852C-54.0927 484.77 -118.578 525.04 -264.446 525.04H71.6328C71.6328 525.04 85.5573 507.338 105.024 471.933C125.843 433.961 132.333 417.069 198.305 387.61C264.142 358.151 288.07 352.07 274.281 338.152C256.977 320.855 151.935 268.693 41.3505 250.18H1.33466V250.315Z" fill="#EDBD05"/>
<path d="M182.082 290.315C141.66 274.234 92.0459 258.694 41.2149 250.18H1.33423C22.694 255.18 59.8709 268.153 94.7496 282.747C124.356 285.044 153.422 287.612 182.082 290.315Z" fill="#FFD039"/>
<path d="M198.169 387.61C219.529 378.151 236.292 370.989 249 365.313C221.422 359.097 188.706 352.611 150.583 346.395C140.579 350.314 127.871 355.178 112.324 361.665C57.7081 384.637 15.9348 416.799 -19.2143 450.717C-54.3634 484.635 -118.848 524.905 -264.717 524.905H71.6325C71.6325 524.905 85.557 507.203 105.024 471.798C125.843 434.096 132.332 417.069 198.169 387.61Z" fill="#E9AD01"/>
<path d="M366.343 250.316H-647.572V525.041H366.343V250.316Z" fill="url(#paint3_linear_9370_50366)"/>
<path d="M366.344 424.636C360.261 416.934 341.335 419.231 336.603 424.636C331.871 430.042 330.384 440.852 332.953 445.176C332.953 445.176 326.193 437.339 318.353 441.528C310.512 445.717 318.353 454.23 318.353 454.23C318.353 454.23 309.971 455.717 309.971 461.527C309.971 467.203 315.243 472.068 315.243 472.068C315.243 472.068 308.484 469.906 305.78 474.635C303.211 479.365 305.78 483.014 305.78 483.014C305.78 483.014 305.51 468.825 286.042 467.473C266.575 466.257 262.384 482.608 262.384 482.608C262.384 482.608 256.571 473.284 245.621 476.527C234.671 479.77 236.158 487.743 236.158 487.743C236.158 487.743 229.398 482.473 223.585 486.662C217.772 490.851 219.394 495.581 219.394 495.581C219.394 495.581 205.875 483.689 190.734 492.608C175.458 501.527 179.108 512.202 179.108 512.202C179.108 512.202 168.158 500.175 155.856 508.013L154.504 516.391C154.504 516.391 145.581 506.932 135.172 509.635C124.762 512.202 123.14 516.391 123.14 516.391C123.14 516.391 101.78 506.662 88.6669 525.04H366.344V424.636Z" fill="#4D542B"/>
<path d="M8.36431 525.04L1.33447 418.96L19.3146 422.744V525.04H8.36431Z" fill="#66321C"/>
<path d="M13.0959 421.393H3.63269L6.8772 503.418L1.33447 418.96L13.0959 421.393Z" fill="#542400"/>
<path d="M19.3139 422.744V525.04H13.7712L13.0952 421.393L19.3139 422.744Z" fill="#542919"/>
<path d="M286.042 525.04C112.324 459.365 -233.759 376.529 -384.224 365.313L-395.31 367.61L-385.306 372.07C-246.061 384.502 59.0598 460.987 255.759 525.04H286.042Z" fill="#542919"/>
<path d="M269.008 525.039C95.2903 459.365 -244.845 378.826 -395.31 367.61L-393.823 373.015C-254.578 385.447 36.7535 452.473 247.513 525.039H269.008Z" fill="#66321C"/>
<path d="M269.008 525.039C95.2903 459.365 -244.845 378.826 -395.31 367.61L-394.769 369.367C-245.385 380.718 89.2068 459.77 264.006 525.039H269.008Z" fill="#542400"/>
<path d="M133.008 525.04C-22.5947 468.824 -200.774 413.42 -384.36 386.664L-395.445 388.961L-385.441 393.42C-267.827 403.826 -80.9963 467.068 92.7212 525.04H133.008Z" fill="#542919"/>
<path d="M116.244 525.04C-35.7081 469.771 -203.342 416.663 -395.58 388.961L-394.093 394.366C-210.913 421.798 -77.0758 467.338 88.8008 525.04H116.244Z" fill="#66321C"/>
<path d="M116.244 525.04C-35.7081 469.771 -203.342 416.663 -395.58 388.961L-395.175 390.313C-204.694 417.88 -38.1414 470.176 112.729 525.04H116.244Z" fill="#542400"/>
<path d="M292.53 297.477C292.53 297.477 292.53 294.369 295.504 293.288C298.479 292.207 301.723 293.828 301.723 293.828C301.723 293.828 300.236 295.99 297.938 296.936C295.505 297.612 292.53 297.477 292.53 297.477Z" fill="#4D522A"/>
<path d="M290.368 297.477C290.368 297.477 289.557 291.126 293.477 290.045C297.398 288.964 299.966 289.234 299.966 289.234C299.966 289.234 299.29 293.964 296.046 295.45C292.801 297.072 290.368 297.477 290.368 297.477Z" fill="#4D522A"/>
<path d="M285.5 283.828C283.607 286.801 283.201 290.585 285.5 293.693C287.257 296.125 290.502 297.477 290.502 297.477C290.502 297.477 291.989 294.504 290.772 290.72C289.555 286.936 285.5 283.828 285.5 283.828Z" fill="#5C5C02"/>
<path d="M292.529 297.477C292.529 297.477 291.583 293.018 293.07 290.72C294.557 288.423 296.855 287.612 296.855 287.612C296.855 287.612 297.396 290.856 296.855 292.612C295.909 295.45 292.529 297.477 292.529 297.477Z" fill="#5C5C02"/>
<path d="M287.528 297.207C286.852 295.855 283.608 293.423 282.121 293.828C280.634 294.234 281.445 295.45 283.067 296.396C284.148 296.936 287.528 297.207 287.528 297.207Z" fill="#5C5C02"/>
<path d="M292.67 409.367C292.67 409.367 291.318 406.124 294.157 403.961C296.861 401.799 299.429 402.34 299.429 402.34C299.429 402.34 296.05 403.556 295.509 404.907C295.103 406.529 292.67 409.367 292.67 409.367Z" fill="#4D522A"/>
<path d="M294.562 409.637C294.562 409.637 295.102 406.124 297.536 404.637C299.969 403.151 304.025 403.961 304.025 403.961C304.025 403.961 302.538 407.34 300.239 408.286C297.536 409.232 294.562 409.637 294.562 409.637Z" fill="#4D522A"/>
<path d="M296.86 409.637C296.86 409.637 299.159 407.475 301.186 407.61C303.214 407.745 304.566 408.961 304.566 408.961C304.566 408.961 303.214 410.178 301.457 410.178C299.564 410.313 296.86 409.637 296.86 409.637Z" fill="#4D522A"/>
<path d="M294.561 409.637C294.561 409.637 292.262 407.61 292.938 403.962C293.75 400.313 297.129 398.286 297.129 398.286C297.129 398.286 298.751 402.205 298.211 405.043C297.805 407.881 294.561 409.637 294.561 409.637Z" fill="#5C5C02"/>
<path d="M292.804 409.638C292.804 409.638 288.748 407.746 288.748 405.854C288.748 403.962 290.1 400.313 290.1 400.313C290.1 400.313 291.317 401.8 291.452 403.962C291.722 405.989 292.804 409.638 292.804 409.638Z" fill="#5C5C02"/>
<path d="M296.859 409.637C296.859 409.637 298.752 405.718 301.996 406.259C301.996 406.394 302.807 409.772 296.859 409.637Z" fill="#5C5C02"/>
<path d="M196.276 201.938C196.276 201.938 190.869 209.235 188.571 224.37C186.272 239.505 196.276 241.126 196.276 241.126C196.276 241.126 205.064 238.559 203.441 224.37C201.684 210.316 196.276 201.938 196.276 201.938Z" fill="#7F770E"/>
<path d="M195.872 223.559L194.79 250.316H197.359L195.872 223.559Z" fill="#525000"/>
<path d="M212.634 182.074C212.634 182.074 204.928 192.479 201.684 213.83C198.439 235.316 212.634 237.613 212.634 237.613C212.634 237.613 225.071 233.965 222.773 213.965C220.34 193.83 212.634 182.074 212.634 182.074Z" fill="#716D0A"/>
<path d="M212.093 212.614L210.605 250.316H214.12L212.093 212.614Z" fill="#525000"/>
<path d="M163.426 303.827C160.317 305.448 158.018 308.557 158.559 312.34C158.965 315.313 160.992 318.016 160.992 318.016C160.992 318.016 163.831 316.124 164.643 312.205C165.454 308.557 163.426 303.827 163.426 303.827Z" fill="#F5D532"/>
<path d="M162.751 319.232C162.751 319.232 164.103 314.908 166.537 313.556C168.97 312.205 171.268 312.746 171.268 312.746C171.268 312.746 170.052 315.854 168.835 317.07C166.672 319.097 162.751 319.232 162.751 319.232Z" fill="#F5D532"/>
<path d="M158.559 316.53C158.694 315.043 157.072 311.26 155.585 310.854C154.098 310.449 154.098 311.935 155.18 313.557C155.72 314.638 158.559 316.53 158.559 316.53Z" fill="#F5D532"/>
<path d="M130.578 431.528C132.876 430.312 134.904 426.393 133.687 422.339C132.47 418.42 130.578 415.988 130.578 415.988C130.578 415.988 126.928 420.582 126.792 423.69C126.657 426.798 130.578 431.528 130.578 431.528Z" fill="#F5D532"/>
<path d="M133.416 430.447C133.416 430.447 133.416 425.582 137.877 423.69C137.877 423.69 138.418 426.933 136.525 428.69C134.633 430.582 133.416 430.447 133.416 430.447Z" fill="#F5D532"/>
<path d="M64.4681 250.18L64.6033 250.315H177.351C175.864 247.748 172.078 246.667 169.51 248.153C167.752 245.585 163.832 245.045 161.399 246.937C160.858 245.585 159.506 244.504 158.019 244.369C156.532 244.369 155.045 245.315 154.504 246.667C153.828 245.585 152.882 244.504 151.53 244.234C150.313 243.964 148.691 244.64 148.42 245.991C147.88 244.504 146.528 243.288 144.905 243.018C143.283 242.748 141.661 243.558 140.715 244.775C140.985 243.423 140.309 241.802 138.957 241.261C137.605 240.721 135.983 241.126 135.172 242.207C135.442 239.504 134.766 237.342 132.333 236.261C130.575 235.45 127.872 235.315 126.114 236.261C123.681 237.477 122.87 238.964 122.059 242.072C120.707 239.504 116.516 240.045 114.894 242.477C115.705 239.64 113.406 236.396 110.567 236.261C107.593 236.126 105.16 239.369 105.836 242.207C105.565 240.45 103.267 239.369 101.915 240.315C102.591 238.694 103.132 236.802 102.727 234.91C102.321 233.153 100.969 231.532 99.2117 231.126C97.7246 230.856 95.9671 231.802 95.4263 233.153C95.5615 231.397 93.8041 229.64 92.0466 230.045C94.6152 228.018 94.6152 223.559 92.0466 221.532C89.6132 219.505 85.2872 220.181 83.665 223.018C83.9353 221.667 83.2594 220.18 82.0427 219.37C80.826 218.559 79.2037 218.694 78.1222 219.37C78.2574 216.667 76.7703 213.829 74.4721 212.343C72.1739 210.856 69.0645 210.586 66.6311 211.802C65.4144 212.343 64.4681 212.748 63.7922 213.829C63.1163 214.91 62.8459 216.262 62.7107 217.613C61.3588 225.721 61.3588 233.964 62.5755 242.072C62.5755 244.369 62.8459 248.829 64.4681 250.18Z" fill="#83831C"/>
<path d="M79.6087 206.531H63.5212V196.802L19.0441 142.343L23.7757 139.1L65.1435 165.856L73.1196 196.802L79.6087 206.531Z" fill="#A8A274"/>
<path d="M79.608 206.531L71.4967 197.748H63.5205V206.531H79.608Z" fill="#878752"/>
<path d="M-25.5679 196.802L-17.9973 165.857L19.8555 139.641L61.4937 168.694L68.3882 196.802V250.315H-25.5679V196.802Z" fill="#CF6842"/>
<path d="M-91.4053 165.856L-52.4709 139.1H23.7756L-15.294 165.856H-91.4053Z" fill="#FCF9DE"/>
<path d="M28.372 139.1L-11.7791 166.802L-19.3496 197.748L-27.5962 206.531H-32.3278L-22.8645 196.802L-15.294 165.856L23.7756 139.1H28.372Z" fill="white"/>
<path d="M23.7749 139.1L63.9259 166.802L71.4966 197.748L79.6079 206.531H84.3395L74.8763 196.802L67.3057 165.856L28.3713 139.1H23.7749Z" fill="white"/>
<path d="M61.4925 168.695L63.9259 166.803L26.2082 140.587L23.6396 142.209L61.4925 168.695Z" fill="#878752"/>
<path d="M40.4044 209.64H4.30908V250.315H40.4044V209.64Z" fill="#9C453B"/>
<path d="M5.52535 210.721H3.22705V250.18H5.52535V210.721Z" fill="#722828"/>
<path d="M39.1883 210.721H36.8901V250.18H39.1883V210.721Z" fill="#722828"/>
<path d="M22.4237 210.721H20.1255V250.18H22.4237V210.721Z" fill="#722828"/>
<path d="M3.26453 210.715V213.012H39.36V210.715H3.26453Z" fill="#722828"/>
<path d="M3.14355 229.889V232.186H39.2389V229.889H3.14355Z" fill="#722828"/>
<path d="M36.8888 210.721L20.1255 231.126H22.4237L39.187 210.721H36.8888Z" fill="#722828"/>
<path d="M5.52528 210.721L22.4239 231.126H20.1257L3.22705 210.721H5.52528Z" fill="#722828"/>
<path d="M35.9427 250.315L20.1256 231.126H22.4238L38.2409 250.315H35.9427Z" fill="#722828"/>
<path d="M6.47153 250.315L22.4239 231.126H20.1256L4.17334 250.315H6.47153Z" fill="#722828"/>
<path d="M6.60679 209.64H4.30859V250.315H6.60679V209.64Z" fill="#FCF9DE"/>
<path d="M40.4032 209.641H38.105V250.316H40.4032V209.641Z" fill="#FCF9DE"/>
<path d="M23.5052 209.641H21.207V250.316H23.5052V209.641Z" fill="#FCF9DE"/>
<path d="M4.37256 209.634V211.932H40.4679V209.634H4.37256Z" fill="#FCF9DE"/>
<path d="M4.38672 228.808V231.106H40.4821V228.808H4.38672Z" fill="#FCF9DE"/>
<path d="M38.1056 209.641L21.207 229.911H23.5052L40.4038 209.641H38.1056Z" fill="#FCF9DE"/>
<path d="M6.74197 209.64L23.5054 229.91H21.2072L4.30859 209.64H6.74197Z" fill="#FCF9DE"/>
<path d="M38.1056 250.315L21.207 229.91H23.5052L40.4038 250.315H38.1056Z" fill="#FCF9DE"/>
<path d="M6.74197 250.315L23.5054 229.91H21.2072L4.30859 250.315H6.74197Z" fill="#FCF9DE"/>
<path d="M33.2392 170.587H11.6089V194.235H33.2392V170.587Z" fill="#9C453B"/>
<path d="M10.6338 193.058V195.22H32.264V193.058H10.6338Z" fill="#722828"/>
<path d="M10.6328 171.573V173.735H32.263V171.573H10.6328Z" fill="#722828"/>
<path d="M10.6143 195.116H12.7773L12.7773 171.468H10.6143L10.6143 195.116Z" fill="#722828"/>
<path d="M30.0655 195.116H32.2284V171.468H30.0655L30.0655 195.116Z" fill="#722828"/>
<path d="M12.8262 171.532L29.9951 193.019V195.181L12.8262 173.695V171.532Z" fill="#722828"/>
<path d="M29.9951 171.532L12.8262 193.019V195.181L29.9951 173.695V171.532Z" fill="#722828"/>
<path d="M11.5516 192.052V194.214H33.1818V192.052H11.5516Z" fill="#FCF9DE"/>
<path d="M11.5505 170.567V172.729H33.1807V170.567H11.5505Z" fill="#FCF9DE"/>
<path d="M11.6069 194.272H13.7699L13.7699 170.624H11.6069L11.6069 194.272Z" fill="#FCF9DE"/>
<path d="M31.0585 194.272H33.2216V170.624H31.0585L31.0585 194.272Z" fill="#FCF9DE"/>
<path d="M13.7719 170.587L30.9408 192.073V194.235L13.7719 172.749V170.587Z" fill="#FCF9DE"/>
<path d="M30.9408 170.587L13.7719 192.073V194.235L30.9408 172.749V170.587Z" fill="#FCF9DE"/>
<path d="M239.32 277.929L252.838 106.851H264.6L278.119 277.929" stroke="#7C461D" stroke-miterlimit="10" stroke-linecap="round" stroke-linejoin="round"/>
<path d="M264.601 106.851L250.947 129.958L268.521 157.66H248.784L266.358 129.958L252.84 106.851" stroke="#7C461D" stroke-miterlimit="10" stroke-linecap="round" stroke-linejoin="round"/>
<path d="M268.521 157.66L245.809 194.957" stroke="#7C461D" stroke-miterlimit="10" stroke-linecap="round" stroke-linejoin="round"/>
<path d="M271.495 194.957L242.429 239.01H275.009L245.809 194.957H271.495ZM271.495 194.957L248.783 157.66" stroke="#7C461D" stroke-miterlimit="10" stroke-linecap="round" stroke-linejoin="round"/>
<path d="M242.429 239.01L277.713 273.334" stroke="#7C461D" stroke-miterlimit="10" stroke-linecap="round" stroke-linejoin="round"/>
<path d="M275.011 239.01L239.726 273.334" stroke="#7C461D" stroke-miterlimit="10" stroke-linecap="round" stroke-linejoin="round"/>
<path d="M270.82 128.067H246.487C245.675 128.067 245.135 128.742 245.135 129.418V129.688C245.135 130.499 245.811 131.04 246.487 131.04H270.82C271.632 131.04 272.172 130.364 272.172 129.688V129.418C272.308 128.742 271.632 128.067 270.82 128.067Z" fill="#542400"/>
<path d="M258.652 106.851V277.929" stroke="#7C461D" stroke-miterlimit="10" stroke-linecap="round" stroke-linejoin="round"/>
<path d="M256.084 80.7694C256.084 79.283 257.3 78.2019 258.652 78.2019C260.139 78.2019 261.221 79.4181 261.221 80.7694C261.221 82.2559 260.004 83.337 258.652 83.337C257.3 83.337 256.084 82.1208 256.084 80.7694Z" fill="#542400"/>
<path d="M258.653 74.4182C258.653 74.4182 254.462 66.4454 256.084 62.6617C257.706 58.8779 260.68 56.0402 261.221 57.932C261.762 59.8239 258.653 74.4182 258.653 74.4182Z" fill="#542400"/>
<path d="M255.003 75.6349C255.003 75.6349 246.892 71.5809 245.945 67.5269C244.999 63.473 245.81 59.419 247.297 60.6352C248.919 61.9865 255.003 75.6349 255.003 75.6349Z" fill="#542400"/>
<path d="M252.569 78.7428C252.569 78.7428 243.647 80.2293 240.538 77.5266C237.428 74.824 235.671 71.0403 237.699 71.1754C239.727 71.3105 252.569 78.7428 252.569 78.7428Z" fill="#542400"/>
<path d="M252.569 82.6611C252.569 82.6611 246.215 89.1475 242.159 88.7421C238.104 88.3367 234.453 86.4448 236.076 85.2286C237.833 84.2827 252.569 82.6611 252.569 82.6611Z" fill="#542400"/>
<path d="M255.002 85.9041C255.002 85.9041 253.65 94.8228 250.135 96.985C246.62 99.1471 242.429 99.6876 243.24 97.7957C243.916 95.7687 255.002 85.9041 255.002 85.9041Z" fill="#542400"/>
<path d="M258.653 87.1211C258.653 87.1211 262.844 95.0939 261.222 98.8777C259.599 102.661 256.625 105.499 256.084 103.607C255.544 101.715 258.653 87.1211 258.653 87.1211Z" fill="#542400"/>
<path d="M262.438 85.9041C262.438 85.9041 270.55 89.958 271.496 94.012C272.442 98.066 271.631 102.12 270.144 100.904C268.522 99.4173 262.438 85.9041 262.438 85.9041Z" fill="#542400"/>
<path d="M264.735 82.6613C264.735 82.6613 273.657 81.1748 276.766 83.8775C279.876 86.5801 281.633 90.3638 279.605 90.2287C277.578 90.0936 264.735 82.6613 264.735 82.6613Z" fill="#542400"/>
<path d="M264.735 78.7425C264.735 78.7425 271.089 72.2562 275.144 72.6616C279.2 73.0669 282.85 74.9588 281.228 76.175C279.47 77.256 264.735 78.7425 264.735 78.7425Z" fill="#542400"/>
<path d="M262.438 75.6345C262.438 75.6345 263.79 66.7157 267.305 64.5536C270.82 62.3915 275.011 61.8509 274.2 63.7428C273.524 65.6347 262.438 75.6345 262.438 75.6345Z" fill="#542400"/>
<defs>
<linearGradient id="paint0_linear_9370_50366" x1="138.914" y1="218.847" x2="138.914" y2="-314.397" gradientUnits="userSpaceOnUse">
<stop stop-color="#F8F4C7"/>
<stop offset="1" stop-color="#FCB422"/>
</linearGradient>
<linearGradient id="paint1_linear_9370_50366" x1="436.744" y1="36.2096" x2="436.744" y2="-309.674" gradientUnits="userSpaceOnUse">
<stop stop-color="#F8F4C7" stop-opacity="0.3"/>
<stop offset="1" stop-color="#F8F4C7" stop-opacity="0"/>
</linearGradient>
<linearGradient id="paint2_linear_9370_50366" x1="-62.4362" y1="132.228" x2="-62.4362" y2="246.984" gradientUnits="userSpaceOnUse">
<stop stop-color="#FBB62B" stop-opacity="0"/>
<stop offset="1" stop-color="#E28C10" stop-opacity="0.5"/>
</linearGradient>
<linearGradient id="paint3_linear_9370_50366" x1="-119.663" y1="260.731" x2="-155.609" y2="478.675" gradientUnits="userSpaceOnUse">
<stop stop-color="#97880F" stop-opacity="0"/>
<stop offset="1" stop-color="#395E11" stop-opacity="0.4"/>
</linearGradient>
</defs>
</svg>
