<svg width="1100" height="160" viewBox="0 0 1100 160" fill="none" xmlns="http://www.w3.org/2000/svg">
<g clip-path="url(#clip0)">
<path d="M621.875 -1.1022C621.749 0.693363 621.496 3.58622 621.244 8.17489C620.487 19.5468 596.778 39.1983 592.868 42.3904C592.49 42.6897 592.364 42.7894 592.364 42.7894C592.364 42.7894 590.85 42.1909 581.644 32.7143C580.004 31.0185 577.987 28.9237 575.843 26.5296C573.825 24.335 571.933 22.2402 570.294 20.2451C566.258 15.4569 563.105 11.1675 560.835 7.77588C557.178 2.38918 555.664 -0.902696 555.664 -0.902696C555.664 -0.902696 555.538 4.88302 555.412 11.0677C555.412 14.7586 555.412 18.649 555.664 21.4421C555.916 25.931 550.746 30.5197 546.836 33.2131C544.44 34.9089 542.422 35.9064 542.422 35.9064C542.422 35.9064 546.332 41.3929 530.063 31.218C521.865 26.1306 519.847 22.8387 519.847 20.9434C518.965 22.1404 517.703 23.936 515.812 26.5296C515.307 27.1281 514.803 27.8264 514.172 28.4249C509.506 33.6121 500.804 39.6971 495.381 43.2882C492.48 45.1835 490.589 46.3806 490.589 46.3806C489.201 43.9865 488.066 41.2931 487.31 38.5C484.787 28.9237 485.922 17.9508 487.057 11.1675C487.814 6.97785 488.571 4.2845 488.571 4.2845C488.571 4.2845 488.571 4.2845 484.031 9.07267C482.896 10.3695 481.382 11.9655 479.364 13.9606C471.797 21.9409 455.529 34.1109 450.106 38.101C448.971 38.899 448.34 39.3978 448.34 39.3978C447.079 37.2032 445.818 34.9089 444.557 32.5148C439.764 23.6367 435.098 14.5591 435.098 14.5591C435.098 14.5591 435.098 14.5591 432.197 17.7512C431.945 18.0505 431.693 18.3498 431.441 18.649C430.81 19.4471 429.927 20.3448 429.044 21.4421C422.991 28.3251 406.47 34.7094 406.47 34.7094C402.308 21.5419 409.749 10.3695 409.749 10.3695C409.749 10.3695 409.749 10.3695 386.417 13.6613C363.086 16.9532 350.727 10.2697 350.727 10.2697C352.366 5.98031 354.888 2.18967 358.167 -1.1022H621.875Z" fill="#527F34"/>
<path d="M760.854 -1.1022C754.926 8.17489 748.999 14.5591 742.945 19.5468C742.945 19.5468 742.945 19.5468 742.819 19.6466C736.766 24.734 730.586 28.3251 724.659 32.2155C719.614 35.5074 713.308 38.3005 707.507 40.4951C707.381 40.5948 707.255 40.5948 707.002 40.6946C697.039 44.4852 688.211 46.5801 688.211 46.5801C681.906 34.3104 687.707 7.87563 687.707 7.87563C687.707 7.87563 687.707 7.87563 681.275 13.7611C674.717 19.6466 668.285 31.3177 668.285 31.3177C668.285 31.3177 668.285 31.3177 654.539 26.7291C653.53 26.4298 652.521 25.931 651.512 25.4323C641.296 20.1453 629.315 5.48154 624.397 -0.902696H760.854V-1.1022Z" fill="#527F34"/>
<path d="M1010.46 -1C1004.53 8.27709 998.602 14.6613 992.548 19.649C992.548 19.649 992.548 19.649 992.422 19.7488C986.369 24.8362 980.189 28.4273 974.262 32.3177C969.217 35.6096 962.911 38.4027 957.11 40.5973C956.984 40.697 956.858 40.697 956.605 40.7968C946.642 44.5874 937.814 46.6823 937.814 46.6823C931.509 34.4126 937.31 7.97783 937.31 7.97783C937.31 7.97783 937.31 7.97783 930.878 13.8633C924.32 19.7488 917.888 31.42 917.888 31.42C917.888 31.42 917.888 31.42 904.142 26.8313C903.133 26.532 902.124 26.0333 901.115 25.5345C890.899 20.2475 878.918 5.58374 874 -0.800493H1010.46V-1Z" fill="#527F34"/>
<path d="M122.863 -10.3091C122.863 -10.3091 121.98 -1.23152 114.918 12.734C102.685 36.4754 72.417 74.4815 -3 106.802V73.9828C-0.729924 72.5862 1.54015 71.0899 3.68411 69.6934C31.5556 51.5382 46.6894 54.9298 52.1124 38.2709C52.743 36.1761 53.1213 33.383 53.1213 30.2906C53.1213 25.702 52.4907 20.3153 51.6079 14.5296C50.7251 9.04311 49.464 3.35715 48.2028 -2.22906C47.1939 -6.31896 46.185 -10.2094 45.1761 -13.9002H78.7227L73.2998 19.4175C73.2998 19.4175 81.3711 24.4052 92.3432 5.85099C92.9738 4.7537 93.7304 3.55665 94.361 2.25986C94.9916 0.963058 95.7483 -0.333742 96.3789 -1.73029C98.3967 -5.8202 100.288 -9.9101 101.928 -14H121.98L122.863 -10.3091Z" fill="#293D39"/>
<path d="M157.392 -0.104666C160.04 12.165 139.105 38.7993 139.105 38.7993C139.105 38.7993 136.709 38.4003 118.296 25.931C118.17 25.8313 117.918 25.7315 117.792 25.6318C109.846 20.2451 103.667 15.2574 99.2528 11.2673C93.7037 6.08006 90.803 2.78819 90.803 2.78819C90.803 2.78819 93.0731 11.4668 95.2171 18.649C95.8476 20.8436 96.4782 22.8387 97.1088 24.4347C99.6311 31.4175 88.4068 40.8941 88.4068 40.8941C88.4068 40.8941 93.7037 45.4828 75.0386 38.5C65.58 34.9089 62.6793 32.2155 62.0487 30.3202C61.5443 31.617 60.7876 33.6121 59.6525 36.5049C58.8959 38.4003 57.6347 40.6946 55.9952 42.8892C50.1939 51.1687 40.8614 60.3461 40.8614 60.3461C27.1148 46.4803 26.9887 19.6466 26.9887 19.6466C26.9887 19.6466 26.9887 19.6466 20.809 30.7192C16.1428 39.4976 4.79238 53.2636 0 58.75V-1.1022H157.14C157.266 -0.802942 157.392 -0.403927 157.392 -0.104666Z" fill="#659549"/>
<path d="M169.499 -1.1022H215.153C215.153 -1.1022 215.153 -1.00245 215.027 -1.00245C211.874 5.7808 209.982 13.7611 209.982 13.7611C209.982 13.7611 209.982 13.7611 195.227 11.766C191.948 11.367 188.29 9.8707 184.381 7.97538C179.336 5.58129 174.165 2.18967 169.499 -1.1022Z" fill="#659549"/>
<path d="M270.77 -1.1022C268.878 0.892871 266.986 2.78819 265.094 4.68351C254.248 15.8559 233.692 25.133 233.692 25.133C228.143 18.9483 225.116 7.57637 223.602 -1.1022H270.77Z" fill="#659549"/>
<path d="M363.167 -11C361.275 -9.00493 359.384 -7.10961 357.492 -5.21429C346.646 5.95813 326.089 15.2352 326.089 15.2352C320.54 9.05049 317.513 -2.32143 316 -11H363.167Z" fill="#659549"/>
<path d="M673.874 -20.5037C663.911 -16.1145 653.696 -11.9249 643.354 -7.93473L635.535 -5.04187L627.716 -2.24877L611.952 3.23769C606.655 5.03325 601.358 6.72906 596.061 8.32512C590.764 9.92118 585.341 11.5172 579.918 13.1133C569.072 16.2057 558.226 18.9988 547.254 21.6921C536.282 24.2857 525.184 26.7796 514.086 28.9741C502.988 31.1687 491.638 33.1638 480.413 34.8596C469.063 36.5554 457.839 38.1515 446.362 39.3485C443.461 39.6478 440.687 39.947 437.786 40.2463C434.886 40.5456 432.111 40.8448 429.21 41.0443L420.508 41.6429C419.121 41.7426 417.608 41.8424 416.221 41.8424L411.68 41.9421C408.78 42.0419 405.879 42.2414 402.978 42.2414H394.277C392.889 42.2414 391.376 42.2414 389.989 42.2414L385.701 42.1416L376.999 41.8424C365.522 41.2438 353.92 40.4458 342.569 39.0493C319.742 36.4557 297.294 31.9668 275.224 26.4803C264.252 23.6872 253.406 20.6946 242.686 17.303C231.966 13.9113 221.498 10.3202 211.031 6.33005L203.338 3.33744C200.816 2.3399 198.167 1.34237 195.645 0.245077C190.474 -1.84975 185.429 -3.94458 180.511 -6.13916C175.466 -8.33374 170.548 -10.6281 165.629 -12.9224C160.711 -15.3165 155.918 -17.7106 151 -20.1047L152.387 -22C172.187 -13.0222 192.492 -4.74261 213.427 2.43966C223.769 6.13054 234.362 9.52217 245.082 12.6145C255.676 15.8066 266.522 18.5998 277.368 21.2931C288.213 23.8867 299.186 26.181 310.284 28.1761C321.382 30.0714 332.48 31.867 343.704 33.064C354.929 34.4606 366.153 35.2586 377.503 35.7574L385.953 35.9569L390.241 36.0567C391.628 36.0567 393.015 36.0567 394.529 36.0567H402.978C405.753 36.0567 408.654 35.8571 411.428 35.8571L415.716 35.7574C417.103 35.7574 418.491 35.6576 420.004 35.5579L428.454 34.9594C431.228 34.7599 434.129 34.5603 436.903 34.2611C439.678 33.9618 442.579 33.7623 445.353 33.4631C456.577 32.266 467.928 30.8695 479.026 29.2734C490.25 27.6773 501.348 25.8818 512.447 23.7869C523.545 21.7919 534.643 19.4975 545.489 17.1034C567.433 12.2155 589.125 6.62931 610.438 0.0455685L626.329 -4.94212L634.274 -7.43596L642.093 -10.1293C652.561 -13.7204 662.902 -17.6108 673.118 -21.601L673.874 -20.5037Z" fill="#293D39"/>
<path d="M927.83 -0.603456C918.624 2.18965 909.544 4.98275 900.211 7.57635C890.879 10.1699 881.672 12.6638 872.214 14.9581C862.755 17.1527 853.296 19.2475 843.838 21.3424C839.171 22.4396 834.379 23.3374 829.587 24.335C824.794 25.2328 820.002 26.1305 815.21 27.0283C805.625 28.7241 795.914 30.4199 786.329 31.8165C776.618 33.2131 766.907 34.5098 757.196 35.7069C747.486 36.8042 737.649 37.9015 727.938 38.6995C718.101 39.5973 708.264 40.1958 698.301 40.3953C658.7 41.5924 619.1 37.8017 580.635 30.7192C571.05 28.9236 561.465 26.9286 552.007 24.734C542.548 22.5394 533.216 20.1453 523.883 17.5517C514.551 15.0579 505.47 11.9655 496.39 9.07265C491.85 7.57635 487.183 6.27955 482.769 4.58374L469.401 -0.304195L470.41 -2.09976L484.031 2.18965C488.571 3.68595 493.237 4.883 497.777 6.1798C506.984 8.77339 516.19 11.4667 525.523 13.7611C534.855 16.1552 544.188 18.25 553.646 20.2451C563.105 22.2401 572.564 24.1355 582.148 25.7315C620.235 32.3153 659.205 35.8066 698.174 34.9089C707.885 34.7094 717.596 34.1108 727.307 33.3128C737.018 32.5148 746.729 31.617 756.44 30.6195C766.151 29.6219 775.735 28.4249 785.446 27.1281C795.031 25.8313 804.742 24.4347 814.327 22.9384C819.119 22.1404 823.911 21.3424 828.704 20.5443C833.496 19.7463 838.289 18.8485 842.955 17.851C852.414 15.9557 861.872 13.9606 871.457 12.0653C880.916 10.0702 890.248 7.87561 899.707 5.58127C902.103 4.98275 904.373 4.38423 906.643 3.78571L913.579 1.99014L927.578 -1.60099L927.83 -0.603456Z" fill="#659549"/>
<path d="M307.469 -45.9027C286.282 -31.3387 263.455 -18.0714 239.619 -6.20073C233.692 -3.20812 227.638 -0.315266 221.585 2.47784C218.558 3.87439 215.405 5.27094 212.378 6.56774C209.351 7.96429 206.199 9.26109 203.046 10.5579C199.893 11.8547 196.866 13.1515 193.713 14.4483L184.255 18.1392C177.823 20.5332 171.517 22.9273 164.959 25.0222C158.527 27.3165 151.969 29.3116 145.285 31.4064L135.322 34.2993C132.043 35.2968 128.638 36.1946 125.233 36.9926C111.864 40.5837 98.1177 43.3769 84.245 45.7709C70.4985 48.2648 56.3736 49.7611 42.3748 50.9581C28.2498 52.0554 14.1249 52.2549 0 51.4569L0.126115 49.1626C14.1249 48.8633 27.9976 48.165 41.7442 46.569C45.1493 46.17 48.6805 45.6712 52.0856 45.2722L57.2564 44.5739C59.022 44.3744 60.6615 44.0751 62.4271 43.7759L72.6424 42.1798L82.8578 40.2845C84.4973 39.9852 86.2629 39.686 87.9024 39.2869L92.947 38.1897C96.3521 37.4914 99.6311 36.7931 103.036 35.9951L112.999 33.601C116.278 32.803 119.557 31.9052 122.962 31.0074C126.241 30.1096 129.52 29.3116 132.799 28.314L142.636 25.5209C149.068 23.4261 155.626 21.5308 162.058 19.3362C187.786 10.8571 212.63 0.68227 236.718 -10.3904C260.807 -21.5628 284.264 -33.7328 306.712 -47L307.469 -45.9027Z" fill="#659549"/>
<path d="M896.302 10.17C892.644 11.367 890.248 14.1601 889.239 17.1527C888.23 20.1453 888.482 23.3374 888.987 26.3301C889.617 30.2204 890.752 34.2106 892.266 38.0012C901.094 33.9113 906.643 25.133 904.751 17.1527C903.868 13.1626 901.22 11.0677 896.302 10.17Z" fill="#C2C155"/>
<path d="M611.533 6.08005C608.759 6.1798 606.362 7.57635 604.849 9.37192C603.336 11.1675 602.579 13.2623 602.074 15.3571C601.444 18.0505 601.066 20.8436 600.939 23.6367C607.876 22.5394 614.055 17.6515 615.064 12.0653C615.569 9.47167 614.434 7.57635 611.533 6.08005Z" fill="#C2C155"/>
<path d="M50.8245 10.569C48.8066 12.0653 48.05 14.3596 48.3022 16.4544C48.5544 18.5493 49.6895 20.6441 50.9506 22.5394C52.5901 24.9335 54.4818 27.3276 56.6258 29.5222C61.166 25.133 62.0488 18.3498 58.3914 13.5616C56.6258 11.1675 54.2296 10.2697 50.8245 10.569Z" fill="#416D24"/>
<path d="M973.148 -9C973.022 -7.20443 972.77 -4.31158 972.517 0.277094C971.761 11.649 948.051 31.3005 944.141 34.4926C943.763 34.7919 943.637 34.8916 943.637 34.8916C943.637 34.8916 942.124 34.2931 932.917 24.8165C931.278 23.1207 929.26 21.0259 927.116 18.6318C925.098 16.4372 923.206 14.3424 921.567 12.3473C917.531 7.55911 914.378 3.2697 912.108 -0.121921C908.451 -5.50862 906.937 -8.80049 906.937 -8.80049C906.937 -8.80049 906.811 -3.01478 906.685 3.16995C906.685 6.86084 906.685 10.7512 906.937 13.5443C907.19 18.0333 902.019 22.6219 898.109 25.3153C895.713 27.0111 893.695 28.0086 893.695 28.0086C893.695 28.0086 897.605 33.4951 881.336 23.3202C873.139 18.2328 871.121 14.9409 871.121 13.0456C870.238 14.2426 868.977 16.0382 867.085 18.6318C866.581 19.2303 866.076 19.9286 865.446 20.5271C860.779 25.7143 852.077 31.7993 846.654 35.3904C843.754 37.2857 841.862 38.4828 841.862 38.4828C840.475 36.0887 839.34 33.3953 838.583 30.6022C836.061 21.0259 837.196 10.053 838.331 3.2697C839.087 -0.91995 839.844 -3.6133 839.844 -3.6133C839.844 -3.6133 839.844 -3.6133 835.304 1.17488C834.169 2.47168 832.656 4.06773 830.638 6.06281C823.071 14.0431 806.802 26.2131 801.379 30.2032C800.244 31.0012 799.613 31.5 799.613 31.5C798.352 29.3054 797.091 27.0111 795.83 24.617C791.037 15.7389 786.371 6.66133 786.371 6.66133C786.371 6.66133 786.371 6.66133 783.471 9.85345C783.218 10.1527 782.966 10.452 782.714 10.7512C782.083 11.5493 781.2 12.447 780.318 13.5443C774.264 20.4273 757.743 26.8116 757.743 26.8116C753.581 13.6441 761.022 2.47167 761.022 2.47167C761.022 2.47167 761.022 2.47167 737.691 5.76355C714.359 9.05542 702 2.37192 702 2.37192C703.639 -1.91749 706.162 -5.70813 709.441 -9H973.148Z" fill="#527F34"/>
</g>
<defs>
<clipPath id="clip0">
<rect width="1100" height="160" rx="10" fill="white"/>
</clipPath>
</defs>
</svg>
