<svg xmlns="http://www.w3.org/2000/svg" viewBox="0 0 438.76 490.21"><defs><style>.cls-1{isolation:isolate;}.cls-2{fill:#759b71;}.cls-3{fill:#c0ca5d;}.cls-4{fill:#c9b492;}.cls-21,.cls-22,.cls-5,.cls-6{opacity:0.05;}.cls-21,.cls-22,.cls-6{stroke:#fff;}.cls-12,.cls-21,.cls-22,.cls-6{stroke-miterlimit:10;}.cls-6{stroke-width:0.68px;}.cls-7{fill:#9f6552;}.cls-8{fill:#6f4459;opacity:0.4;mix-blend-mode:multiply;}.cls-9{fill:#a16552;}.cls-10{fill:#f3dab2;}.cls-11{fill:#4d3f3f;}.cls-12{fill:none;stroke:#4d3f3f;stroke-linecap:round;}.cls-13{fill:#fcdc49;}.cls-14{fill:#ffad23;}.cls-15{fill:#7d4a74;fill-rule:evenodd;}.cls-16{fill:#ff2e68;}.cls-17{fill:#627aff;}.cls-18{fill:#ffb416;}.cls-19{fill:#fff;}.cls-20{fill:#99f;}.cls-22{stroke-width:1.18px;}</style></defs><g class="cls-1"><g id="Capa_1" data-name="Capa 1"><path class="cls-2" d="M151.18,284.87c-.83.14-1.74-.42-2.53.24a10.49,10.49,0,0,0-3.17,2.18h0a2.29,2.29,0,0,0-1.27.86h0l-2.06,1.16a1,1,0,0,0-.73.31,1,1,0,0,0-.74.34,2.34,2.34,0,0,0-1.13.57,4.77,4.77,0,0,0-1.65.91,7,7,0,0,0-2,1.15c-2,.93-3.47,2.49-5.21,3.73h0l-.2.15-.1,0-.06.07a2.22,2.22,0,0,0-1.13.75l-.37.34a15.77,15.77,0,0,0-2.81,2.2l-.38.35-.57.51-.74.68a3.41,3.41,0,0,0-1.23,1.38h0l-.3.35h0a8.28,8.28,0,0,0-1.68,2.81h0a.18.18,0,0,0-.09.16,2.46,2.46,0,0,0-.59,1.25,1.8,1.8,0,0,0-.67,1.18h0c-.15.15-.28.31-.17.55-.62.29-.38,1-.74,1.43a.45.45,0,0,0-.28.49l-.23.53-.22.54h0a1,1,0,0,0-.3.71c-.36,1-.73,2-1.1,3h0c-.18.68-.69,1.24-.69,2l-.18.47a2.09,2.09,0,0,0-.36,1.11,4.7,4.7,0,0,0-.55,1.63l-.33,1.17h0a1.6,1.6,0,0,0-.25.95h0a10.15,10.15,0,0,0-.55,2.3.87.87,0,0,0-.13.72l-.09.54h0a2.09,2.09,0,0,0-.29,1.22,9,9,0,0,0-.34,2.31,3.68,3.68,0,0,0-.25,1.61,2.36,2.36,0,0,0-.18,1.61c.18.58-.58,1-.26,1.61l0,.38-.14.21a6,6,0,0,0-.29,2.26l-.18.68h0l-.13.58a4.13,4.13,0,0,0-.29,1.63l-.09.56a1.63,1.63,0,0,0-.19,1.06h0a4.74,4.74,0,0,0-.25,2.3,1.16,1.16,0,0,0-.39,1.06,2.59,2.59,0,0,0-.3,1.25h0l-.39,1.44a1.93,1.93,0,0,0-.36,1.06c-.18.47-.35.95-.53,1.42h0l-1.74,4a2.62,2.62,0,0,0-.6,1.24c-.4.82-.8,1.64-1.19,2.46a5.8,5.8,0,0,0-1.07,1.61h0a1.25,1.25,0,0,0-.54.85h0l-.93,1.56c-.07-.25-.15-.49-.23-.73h0a10.11,10.11,0,0,0-.3-2.9c0-.19,0-.38-.08-.57h0a11.33,11.33,0,0,0-.25-2.85l0-.38c-.11-1.15-.23-2.3-.34-3.45-.08-.59-.15-1.18-.23-1.77h0a8.7,8.7,0,0,0-.44-2.72h0a7,7,0,0,0-.46-2,6.06,6.06,0,0,0-.5-2h0a.17.17,0,0,0-.06-.16h0c-.26-.92-.52-1.84-.77-2.76a1.75,1.75,0,0,0-.38-1.12.57.57,0,0,0-.17-.54,13.16,13.16,0,0,0-1.42-3.84.43.43,0,0,0-.11-.28,37.28,37.28,0,0,0-2.48-4.88,4.67,4.67,0,0,0-.9-1.67h0A13.15,13.15,0,0,0,92,325.61h0c-.06-.2-.11-.39-.16-.58l-.23-.14h0c-.29-.46-.55-1-1.19-1a.65.65,0,0,0-.79.69h0a1.21,1.21,0,0,0,0,1.08,24.1,24.1,0,0,1-.16,4.33h0c0,.34-.09.68-.14,1l-.12.58-.25,1.24a1.9,1.9,0,0,0-.16,1.1h0l-.09,1.26h0l-.06.33a2.52,2.52,0,0,0,0,1.44h0l0,.57a6.56,6.56,0,0,0-.06,2.12h0a5.34,5.34,0,0,0,.11,2.35h0v.4a1.22,1.22,0,0,0,0,.92h0l.33,1.08-.07.06,0,.08a2.19,2.19,0,0,0,.13,1.61c.22.47-.05,1,.27,1.47a6.08,6.08,0,0,0,.58,2.18,1.75,1.75,0,0,0,.5,1.3l.66,1.81c.08.36.59.5.5.95h0a2.29,2.29,0,0,0,.63,1.45l.34.72.27.43a4.1,4.1,0,0,0,.89,1.62h0a3.91,3.91,0,0,0,.83,1.29c.17.2.33.4.5.59a3.55,3.55,0,0,0,1,1.48l.51.56.35.38,2.91,3.2a2.76,2.76,0,0,1,.79,2,4.37,4.37,0,0,0,.16,1.87h0a5,5,0,0,0,.33,2.14h0c0,.16.06.33.1.49h0a18.42,18.42,0,0,0,.58,3.69,3.91,3.91,0,0,0,.18,1.59c0,.32-.12.64.13.91a17.19,17.19,0,0,0,0,3.44,4.23,4.23,0,0,0,.22,2.14c-.37.89.22,1.76,0,2.65h0l-2-2.53-.76-.92h0a10.61,10.61,0,0,0-3.15-3.45A11.75,11.75,0,0,0,94,377.4a11.18,11.18,0,0,0-2.82-2.11.34.34,0,0,0-.17-.09,1.6,1.6,0,0,0-.86-.58,4.35,4.35,0,0,0-1.54-.94.93.93,0,0,0-.69-.42h0A8.23,8.23,0,0,0,85.72,372h0a1.52,1.52,0,0,0-.85-.48l-.7-.39-.48-.28h0a5.08,5.08,0,0,0-1.62-.91h0a.67.67,0,0,0-.55-.31h0a.15.15,0,0,0-.16-.08,2.5,2.5,0,0,0-1.21-.64,3,3,0,0,0-1.43-.81h0l-.89-.49a19.45,19.45,0,0,0-3.31-1.83h0a.89.89,0,0,0-.7-.38,3,3,0,0,0-1.39-.8,1.25,1.25,0,0,0-.89-.56,7,7,0,0,0-2-1.08h0c-.26-.2-.41-.58-.83-.55l-1.39-.79h0c-1-.59-1.94-1.19-2.92-1.75-.63-.36-1.32-.77-1.92,0s-.12,1.4.47,1.95a2.58,2.58,0,0,0,.85,1.29l.86.94.84,1,.3.36h0c.68,1.32,1.88,2.22,2.79,3.36h0l2.69,3.75a3.52,3.52,0,0,0,.84,1.28h0l.33.4a13.81,13.81,0,0,0,3.62,4h0a.17.17,0,0,0,.14.13l.18.17a3.15,3.15,0,0,0,1.38,1.15,33.66,33.66,0,0,0,7.37,4.76,2.43,2.43,0,0,0,1.22.58,15.55,15.55,0,0,0,3.46,1.48l.59.24A.5.5,0,0,0,91,387a1.9,1.9,0,0,0,1,.39l2.17.93h0l1.2.5a17.55,17.55,0,0,0,3,1.45h0a3.79,3.79,0,0,0,2.11.83,3,3,0,0,0,2.13,1.11,2.4,2.4,0,0,1,1.05.78c.38.57,0,1.25.26,1.84a1.16,1.16,0,0,0,0,1h0c0,.2.07.4.11.6a6.27,6.27,0,0,0,.19,2.51h0a6.09,6.09,0,0,0,.32,2.16h0l.16.6a1.06,1.06,0,0,0,.14.85h0l.81,3h0l.09.32a4.26,4.26,0,0,0,.44,1.64l.14.54a1.71,1.71,0,0,0,.35,1.09h0l.27.38a10.61,10.61,0,0,0,.65,3.61l.83,3.66c.25,1.78.15,3.63,1,5.28v.38h0c-.2.55.42,1.06.09,1.61l.34.38c.54.16,1.07.29,1.33-.44a.89.89,0,0,0,.06-1.13c-.08-.29-.15-.58-.22-.88-.56-1.53-.46-3.18-.79-4.75-.09-.49-.18-1-.26-1.46,0-.19-.09-.38-.13-.57a2.91,2.91,0,0,0-.34-1.44h0c-.05-.49.06-1-.31-1.42-.11-.49-.21-1-.32-1.46-.28-.52,0-1.18-.39-1.67a3.55,3.55,0,0,0-.36-1.43c-.2-.73-.39-1.46-.59-2.19a4.48,4.48,0,0,0-.39-1.61,1.44,1.44,0,0,0,.51-.9.6.6,0,0,0,.28-.56h0a1.18,1.18,0,0,0,.49-.86,7.17,7.17,0,0,0,1-2,39.33,39.33,0,0,1,2.57-4.39h0a2.89,2.89,0,0,0,.69-1.2h0a.18.18,0,0,0,.11-.17,10.83,10.83,0,0,0,1.44-2.28h0a5.42,5.42,0,0,0,1-1.52,1.79,1.79,0,0,0,.59-.91h0a.21.21,0,0,0,.12-.17,1,1,0,0,0,.41-.69,5.62,5.62,0,0,0,1-1.6,4.41,4.41,0,0,0,.93-1.54c.7-1.11,1.41-2.22,2.12-3.33a.94.94,0,0,0,.4-.7L121,381a2.56,2.56,0,0,0,.64-1.19h0a.91.91,0,0,0,.4-.72h0l.54-.87,1.31-2.47a.18.18,0,0,0,.09-.16,5.42,5.42,0,0,0,.85-1.74h0l.35-.72a1.7,1.7,0,0,0,.45-1h0a17.38,17.38,0,0,0,1.47-3.4l.18-.48h0a2,2,0,0,0,.43-1.06h0l.6-1.64h0c.53-.47.35-1.23.73-1.76l.09-.31h0a6.77,6.77,0,0,0,.64-2h0a1.82,1.82,0,0,0,.37-1,1.26,1.26,0,0,0,.27-.92h0a6.14,6.14,0,0,0,.6-1.92l.21-.91h0c.11-.35.23-.71.35-1.07h0l.46-1.4a20.93,20.93,0,0,0,1.16-4.11h0a4.25,4.25,0,0,0,.46-1.74h0c.06-.19.12-.38.17-.56h0a3.1,3.1,0,0,0,.4-1.42,16.77,16.77,0,0,0,.82-4.09c.06-.65.07-1.32-.74-1.55a1.25,1.25,0,0,0-1.51.86,56.21,56.21,0,0,1-3.59,6.55h0l-.08.06,0,.1a18,18,0,0,0-2,2.76l-.33.37a1.43,1.43,0,0,0-.64.88h0l-.3.35a.94.94,0,0,0-.46.68h0a2.39,2.39,0,0,0-.75,1,1.35,1.35,0,0,0-.61.85h0c-.24.4-.92.58-.61,1.25l-.32.39a4,4,0,0,0-1.49,1.73A9.28,9.28,0,0,0,120,361a5.87,5.87,0,0,0-1.23,2.12.25.25,0,0,0-.12.19,7.26,7.26,0,0,0-1,1.91,12.7,12.7,0,0,0-1.64,3.52,9.43,9.43,0,0,0-1.06,3c-.12.16-.32.29-.2.55a.46.46,0,0,0-.13.18,1.45,1.45,0,0,0-.46,1.05c-.34,1.05-1,2-.89,3.2a.8.8,0,0,0-.13.19,1,1,0,0,0-.36.91h0a4.54,4.54,0,0,0-.55,1.56c-.32.29-.22.72-.34,1.07a4.16,4.16,0,0,0-.72,1.9h0c-.49.71-.18,1.62-.56,2.37h0c-.45.51-.14,1.21-.43,1.77,0,.22-.11.43-.16.65-.11.5-.21,1-.32,1.5a4.22,4.22,0,0,0-.47,1.74,65.42,65.42,0,0,1-2,7.29c-.26.7-.53,1.4-.79,2.09-.38-.47-.21-1.08-.42-1.59-.08-.86-.16-1.71-.25-2.57v-.33a1.44,1.44,0,0,0-.08-1h0l0-.3a14.74,14.74,0,0,0-.71-4.21,3.67,3.67,0,0,0-.27-1.46c-.07-.47,0-1-.27-1.41h0c-.14-1.28-.27-2.55-.41-3.83h0c0-.41-.07-.83-.11-1.25a8.2,8.2,0,0,0,0-2.32c0-.24,0-.49,0-.73a1.52,1.52,0,0,0,0-1.09,22.48,22.48,0,0,0-.63-4.16h0L103,371c0-.34,0-.69.07-1a2.32,2.32,0,0,0,.26-1.24h0c.12-.18.28-.34.18-.58l.31-1.1c.11-.39.23-.79.35-1.18l.42-1.1h0a5.26,5.26,0,0,0,.89-1.56.64.64,0,0,0,.31-.54h0a1.4,1.4,0,0,0,.51-.85,6.17,6.17,0,0,0,1-1.94,4.27,4.27,0,0,0,.77-1.4c.27-.26.58-.48.63-.89h0a8.27,8.27,0,0,0,1.3-1.91,16.62,16.62,0,0,0,2-3.13h0a12.28,12.28,0,0,0,1.72-2.61h0a11.87,11.87,0,0,0,1.74-3,3.3,3.3,0,0,0,.8-1.42h0a38,38,0,0,0,2.14-4,11.75,11.75,0,0,0,1.3-2.78A1.06,1.06,0,0,0,120,338h0c.45-1.05,1.31-1.94,1.22-3.2a1.13,1.13,0,0,0,.55-.89l.2-.17h0a1.7,1.7,0,0,0,.52-1h0a7.72,7.72,0,0,0,1-2.29h0a30.71,30.71,0,0,0,1.61-3.85h0l.3-.75c.31-.15.35-.43.39-.72a1.84,1.84,0,0,0,.52-1.08h0l.69-1.38a2.12,2.12,0,0,0,.52-1.06h0a.15.15,0,0,0,.08-.16c1.42-2.93,2.93-5.8,4.59-8.6a1,1,0,0,0,.43-.71.21.21,0,0,0,.12-.17l1.54-2.45a3.61,3.61,0,0,0,.91-1.43h0a7.06,7.06,0,0,0,1.45-2.41,24.87,24.87,0,0,0,2-3.14.9.9,0,0,0,.42-.69,1.53,1.53,0,0,0,.64-.91h0a.14.14,0,0,0,.11-.14,21.44,21.44,0,0,0,2.3-3.14,1,1,0,0,0,.46-.67c.43-.46,1-.81,1.2-1.46h0a42.21,42.21,0,0,0,2.92-3.06h0c.33-.29.72-.53.8-1h0l.53-.54.2-.17a2.81,2.81,0,0,0,1-1.2l.91-.88h0a3.73,3.73,0,0,0,1.61-3.15ZM91.27,347.19h0Zm4.09-2.69h0v0Zm.67,6.8.08.08h0l-.07.06C96,351.39,96,351.35,96,351.3Zm.83,3.18h0Zm-5.59-7.3h0Zm2.26-13.39h0s0,0,0,0Zm0-2,0,0v-.06Zm6.28,28.88h0v0h0Zm.12-1.76ZM97,341h0v0Zm1.46,7.93c0,.06,0,.11.07.16A.19.19,0,0,1,98.43,348.91Zm-6.76-21.34h0s0,0,0,0Zm8.4,36.62.05.09h-.05Zm22.2-59.37h0Zm-7.5,25.1,0,0-.08.06A.16.16,0,0,1,114.77,329.92Zm12.55-20.65h0l0,0h0S127.32,309.28,127.32,309.27ZM120.13,323v0l0,.07,0,.07A.14.14,0,0,1,120.13,323Zm.42-.29ZM128.78,309Zm.49-1.81v0s.07,0,.11,0Zm-7,5.63ZM121.9,317h0l0,0v0Zm10.48-15.38v0h0Zm-11.56,15.33Zm-6.38,24v0l0,0S114.45,341,114.44,341Zm17.46-40.62h0Zm-12.17,16.87h0l0,0Zm-2.3-1h0Zm-1.57,7ZM92.37,354.78l0,.06-.07,0Zm13.39,46.56v0h0l0,0ZM121,373.78s0,0,0,.05h0Zm.44-5.15a.22.22,0,0,1,.07.06.27.27,0,0,1-.08.07A.62.62,0,0,0,121.4,368.63Zm5.29-8.94h0v0h0Zm-5.83,8.73Zm4.3-7s0,0,0-.05l.1,0a.49.49,0,0,0-.11.07Zm-1.11,0h0v0Zm-4.35,5.27h0ZM114,381.24Zm-1,2.19-.25,0,.25-.2A1.92,1.92,0,0,0,112.92,383.43Zm5.33-8.85v0Zm7.69-6.64v0l0,0,0,0Zm-21.45,27.68h0Zm-17.29-20h0Zm-5.5,1.51,0,0h0a.36.36,0,0,1-.14,0A.33.33,0,0,1,81.7,377.14ZM96.46,385l0,0,0,0S96.47,385.05,96.46,385ZM91.17,380l.15,0s0,0,0,.06,0,0,0,0Zm-15.51-8h0Zm-.59,1.23h0v0Zm24.14,12.61a.27.27,0,0,1,.12,0,.15.15,0,0,0,0,.07ZM86.1,375.94v0h0ZM83.32,374h0Zm-3.07-3.75ZM92,384.66l0,0-.05,0Zm8.1-.49h0l.05,0Zm3.73,4.87h0Zm23.6-67.42a.43.43,0,0,0,.1-.09A.15.15,0,0,1,127.45,321.62Z"/><polygon class="cls-2" points="99.81 360.74 99.81 360.74 99.81 360.74 99.81 360.74"/><polygon class="cls-2" points="99.81 360.74 99.81 360.74 99.81 360.74 99.81 360.74"/><path class="cls-2" d="M304,334.53c0,.38-.92,2.62-.87,3-.12.23,0,.41.11.6h0a2.39,2.39,0,0,0,.1,1.27c0,.35,0,.69-.05,1l-.57,2.51h0a22.07,22.07,0,0,0-1.14,4.06,1.46,1.46,0,0,0-.16,1.08l-.09.72a8.12,8.12,0,0,0-.3,2.3c-.09.41-.18.82-.26,1.23h0c-.29,1.25-.59,2.5-.88,3.75h0c-.36.38-.32.9-.44,1.37a3.54,3.54,0,0,0-.45,1.41,14.64,14.64,0,0,0-1.23,4.09l-.06.3h0a1.43,1.43,0,0,0-.19.93l-.06.33c-.19.84-.37,1.68-.56,2.52-.27.48-.18,1.11-.61,1.53-.18-.72-.35-1.45-.53-2.17a65.07,65.07,0,0,1-1.07-7.48,4.35,4.35,0,0,0-.25-1.79c-.05-.51-.09-1-.13-1.53,0-.22-.06-.44-.08-.66-.22-.59.17-1.25-.21-1.82h0c-.28-.78.14-1.64-.26-2.42h0a4,4,0,0,0-.49-2c-.07-.36.09-.77-.2-1.1a4.48,4.48,0,0,0-.35-1.62h0a1,1,0,0,0-.24-.95.78.78,0,0,0-.11-.2c.28-1.16-.27-2.2-.48-3.29a1.48,1.48,0,0,0-.33-1.09.75.75,0,0,0-.1-.2c.14-.24,0-.4-.14-.57a9.12,9.12,0,0,0-.68-3.1,12.24,12.24,0,0,0-1.19-3.7,7.31,7.31,0,0,0-.76-2,.23.23,0,0,0-.09-.19,5.82,5.82,0,0,0-1-2.26,9.37,9.37,0,0,0-1.29-2.59,4.06,4.06,0,0,0-1.27-1.91l-.26-.42c.39-.62-.26-.89-.45-1.32h0a1.34,1.34,0,0,0-.51-.91,2.33,2.33,0,0,0-.61-1.12h0a.91.91,0,0,0-.37-.73l-.26-.39h0a1.44,1.44,0,0,0-.52-.95l-.28-.41a18,18,0,0,0-1.63-3l0-.11-.08-.07h0a55.81,55.81,0,0,1-2.75-6.93,1.25,1.25,0,0,0-1.39-1.05c-.83.13-.91.79-.92,1.45a16.13,16.13,0,0,0,.31,4.16,3,3,0,0,0,.21,1.45h0c0,.2.07.39.1.59h0a4.1,4.1,0,0,0,.25,1.77h0a20.12,20.12,0,0,0,.64,4.23l.28,1.45h0c.07.37.14.73.22,1.1h0l.09.93a6.08,6.08,0,0,0,.36,2h0a1.22,1.22,0,0,0,.15.95,1.72,1.72,0,0,0,.25,1.06h0a6.66,6.66,0,0,0,.39,2.07h0c0,.1,0,.21.05.32.31.57,0,1.3.5,1.83h0l.39,1.71h0a2.14,2.14,0,0,0,.3,1.1h0l.13.5a16.8,16.8,0,0,0,1,3.55h0a1.71,1.71,0,0,0,.32,1.09c.08.25.17.51.26.76h0a5.16,5.16,0,0,0,.62,1.83.22.22,0,0,0,.07.17c.33.87.66,1.74,1,2.62l.42.93h0a.92.92,0,0,0,.31.76h0a2.65,2.65,0,0,0,.49,1.26l.13.23a1,1,0,0,0,.31.74l1.7,3.57a4.22,4.22,0,0,0,.73,1.65,5.74,5.74,0,0,0,.82,1.71.93.93,0,0,0,.33.73.17.17,0,0,0,.09.18h0a1.8,1.8,0,0,0,.47,1,5.89,5.89,0,0,0,.78,1.64h0a11.58,11.58,0,0,0,1.15,2.44.2.2,0,0,0,.09.17h0a2.9,2.9,0,0,0,.54,1.29h0a39.85,39.85,0,0,1,2,4.66,7.29,7.29,0,0,0,.7,2.08,1.13,1.13,0,0,0,.39.91h0a.57.57,0,0,0,.2.59,1.44,1.44,0,0,0,.4,1,4.3,4.3,0,0,0-.59,1.55l-.86,2.1a3.53,3.53,0,0,0-.53,1.37c-.48.43-.26,1.13-.6,1.61l-.49,1.41c-.42.37-.38.9-.49,1.37h0a3.06,3.06,0,0,0-.52,1.39l-.19.55c-.15.47-.29.94-.44,1.41-.52,1.53-.63,3.17-1.37,4.62l-.33.85a.88.88,0,0,0-.08,1.13c.16.75.71.68,1.26.6l.39-.34c-.26-.59.41-1,.28-1.58h0l0-.38c1.08-1.53,1.21-3.38,1.68-5.11l1.28-3.53a10.55,10.55,0,0,0,1.09-3.51l.32-.34h0a1.74,1.74,0,0,0,.48-1l.2-.51a4.28,4.28,0,0,0,.64-1.58,2.88,2.88,0,0,0,.13-.31h0l1.17-2.87h0a1,1,0,0,0,.25-.82l.23-.58h0a6,6,0,0,0,.58-2.11h0a6.17,6.17,0,0,0,.51-2.47l.18-.58h0a1.18,1.18,0,0,0,.12-1c.31-.56,0-1.27.49-1.79a2.34,2.34,0,0,1,1.13-.65,3,3,0,0,0,2.25-.84,3.7,3.7,0,0,0,2.2-.56h0a16.61,16.61,0,0,0,3.14-1.07l1.26-.34h0l2.27-.66a1.82,1.82,0,0,0,1.09-.26.47.47,0,0,0,.54-.17l.62-.16a14.66,14.66,0,0,0,3.61-1,2.39,2.39,0,0,0,1.29-.42,33.1,33.1,0,0,0,7.9-3.81,3.09,3.09,0,0,0,1.51-1l.21-.14a.18.18,0,0,0,.15-.12h0a13.49,13.49,0,0,0,4.08-3.55l.38-.35h0a3.51,3.51,0,0,0,1-1.17l3.13-3.39h0a21.49,21.49,0,0,0,3.19-3h0l.34-.32.95-.84,1-.83a2.54,2.54,0,0,0,1-1.17c.65-.47,1.23-1,.71-1.88s-1.24-.53-1.9-.25c-1,.43-2.08.91-3.11,1.38h0l-1.49.61c-.41-.08-.6.28-.89.45h0a7,7,0,0,0-2.06.83,1.24,1.24,0,0,0-1,.44,3.1,3.1,0,0,0-1.49.63.87.87,0,0,0-.74.29h0a19.32,19.32,0,0,0-3.51,1.4l-1,.38h0a2.9,2.9,0,0,0-1.51.63,2.55,2.55,0,0,0-1.29.48.15.15,0,0,0-.16.06h0a.68.68,0,0,0-.58.24h0a5,5,0,0,0-1.73.71h0l-.5.21-.75.3a1.57,1.57,0,0,0-.9.37h0a8.41,8.41,0,0,0-2.3.95h0a1,1,0,0,0-.73.33,4.32,4.32,0,0,0-1.65.74,1.57,1.57,0,0,0-.93.47.36.36,0,0,0-.18.07,32.84,32.84,0,0,0-5.74,3.67,10.37,10.37,0,0,0-3.55,3h0l-.87.82L302,356h0c-.06-.9.64-1.7.38-2.62a4.18,4.18,0,0,0,.48-2.1,17.86,17.86,0,0,0,.42-3.41,1.07,1.07,0,0,0,.24-.89,4,4,0,0,0,.38-1.56,18.55,18.55,0,0,0,1-3.58h0c0-.16.11-.32.16-.48h0a5.08,5.08,0,0,0,.59-2.08h0a4.47,4.47,0,0,0,.39-1.84,2.76,2.76,0,0,1,1-1.92l3.28-2.81.39-.34.57-.49a3.55,3.55,0,0,0,1.21-1.34l.56-.52a4,4,0,0,0,1-1.18h0a4.24,4.24,0,0,0,1.08-1.5l.32-.4c.15-.22.29-.44.43-.66a2.3,2.3,0,0,0,.8-1.36h0c0-.46.49-.53.62-.88l.88-1.72a1.75,1.75,0,0,0,.65-1.23,6,6,0,0,0,.85-2.09c.37-.4.17-1,.44-1.43a2.2,2.2,0,0,0,.34-1.58l0-.08-.06-.07.45-1h0a1.17,1.17,0,0,0,.12-.91l.05-.4h0a5.42,5.42,0,0,0,.4-2.32h0a6.26,6.26,0,0,0,.2-2.11l.12-.56h0A2.59,2.59,0,0,0,322,307l0-.34h0c0-.41.05-.83.07-1.25h0a2,2,0,0,0,0-1.12l-.1-1.26c0-.2,0-.4,0-.6s0-.68,0-1h0a23.87,23.87,0,0,1,.38-4.3,1.2,1.2,0,0,0,.09-1.09h0a.65.65,0,0,0-.69-.78c-.64,0-1,.42-1.3.83h0l-.25.12c-.08.18-.15.37-.23.55h0a13.37,13.37,0,0,0-1.74,2.23h0a4.85,4.85,0,0,0-1.11,1.54,38.3,38.3,0,0,0-3.05,4.54.41.41,0,0,0-.15.26,13.19,13.19,0,0,0-1.88,3.63.59.59,0,0,0-.24.52,1.74,1.74,0,0,0-.51,1.07L310,313.2h0a.14.14,0,0,0-.08.15h0a5.9,5.9,0,0,0-.74,1.93,6.84,6.84,0,0,0-.72,2h0a8.43,8.43,0,0,0-.78,2.65h0c-.15.57-.3,1.15-.44,1.72-.26,1.13-.52,2.26-.77,3.39l-.07.36a11.67,11.67,0,0,0-.61,2.8h0c-.05.19-.1.37-.14.56a10,10,0,0,0-.66,2.84h0l-.33.69m13.16-14Zm-3.74-3.15v0h0Zm-1.52,6.78-.06-.06h0l.09-.07Zm-1.19,2.93h0Zm6.45-6.56Zm-.6-13.56v0h0Zm.35-2s0,0,0,.06l0,0Zm-9.9,27.94h0v0h0Zm.14-1.79h0Zm5.14-17.5v0h0Zm-2.54,7.87a1.19,1.19,0,0,0,.09-.15A.17.17,0,0,1,310.45,319.25Zm9.46-20.5v0h0ZM307,334.15H307l.06-.08S307,334.11,307,334.15Zm8.84-8.45-.08,0,.06-.06Zm-19.06,44.52,0,0h0v0ZM285.12,341h0a.43.43,0,0,0,0,0Zm.18-5.08a.6.6,0,0,1-.08-.08l.08-.05Zm-4.16-9.67h0v0h0Zm4.72,9.4Zm-3.39-7.48h0a.38.38,0,0,0-.11-.08.29.29,0,0,1,.1,0,.43.43,0,0,0,0,.05Zm1.06.12v0h0Zm3.71,5.74h0Zm3.9,15.19Zm.78,2.06a1.67,1.67,0,0,0,.23.23h-.26A2,2,0,0,0,291.92,351.31Zm-4.21-9.21v0Zm-6.84-7.53,0,0h.05v0Zm17.85,30.11,0,0ZM318.37,347h0Zm5.39,2.22-.14,0h0l0,0Zm-15.75,6,0,0,0,0A.06.06,0,0,0,308,355.23Zm5.76-4.29v0s0,0,0-.06l.16,0Zm16.5-6.1Zm.45,1.28h0Zm-25.64,9.61a.2.2,0,0,1,0-.07h.13A.83.83,0,0,0,305.08,355.73Zm14.34-8.3h0Zm3-1.57h0v0Zm3.5-3.35h0ZM312.5,355.39l-.05,0,0-.05Zm-8-1.55,0,0,0,0h0Zm-4.28,4.4h0Z"/><polygon class="cls-2" points="307.71 330.67 307.71 330.67 307.71 330.67 307.71 330.67"/><polygon class="cls-2" points="307.71 330.67 307.71 330.67 307.71 330.67 307.71 330.67"/><path class="cls-3" d="M354.85,314.94a8.3,8.3,0,0,0-1.19,1.25.36.36,0,0,0-.18.25h0a9,9,0,0,0-1.28,1.84.93.93,0,0,0-.29.46,2.46,2.46,0,0,0-.25.45h0s0,0,0,0h0a.27.27,0,0,0-.11.18,0,0,0,0,0,0,0,2.57,2.57,0,0,0-.35.75l-.05.14h0a2.05,2.05,0,0,0-.27.8l0,.1h0a1.39,1.39,0,0,0-.1.53.51.51,0,0,0,0,.32h0a3.5,3.5,0,0,0,.07,1.29c-.61.82-1.14,1.71-1.71,2.57l-.05-.06a6.75,6.75,0,0,0-1.29-3.75,2.62,2.62,0,0,0-1.66-1.09,1,1,0,0,0-1.3,1.19,4.41,4.41,0,0,0,1.87,3h0l.15.14h0c.34.35.66.71,1,1.05.2.19.31.47.59.57h0c.11.1,0,.17,0,.26-.26.48-.53,1-.77,1.46-.63,1.29-1.35,2.52-2.07,3.76l-.21-2h0l0-.59v-.1a2.31,2.31,0,0,0-.19-1.07h0a4.18,4.18,0,0,0-.35-.91h0a4,4,0,0,0-.5-1.09l-.56-1.14s0,0,0,0h0c0-.13-.08-.26-.13-.39-.17-.38-.33-.76-.5-1.15h0a3.59,3.59,0,0,0-.89-1.62,1,1,0,0,0-1.8.25,6.23,6.23,0,0,0-.09,4.9s0,.06.07.09a2.33,2.33,0,0,0,.31.68,13.08,13.08,0,0,0,1.36,2.31h0a.11.11,0,0,0,0,.08,1.17,1.17,0,0,0,.28.35h0a3.07,3.07,0,0,0,.93,1h0a3.18,3.18,0,0,0,1.43.63h0l.53.21h0c.09.12,0,.22-.05.31l-2.34,4c-.08.13-.16.29-.36.28a.59.59,0,0,0,0-.37,2,2,0,0,0-.15-.81l-.06-.26h0a.14.14,0,0,0,0-.06h0c-.08-.25-.13-.5-.22-.75A7.66,7.66,0,0,0,340.9,333a1,1,0,0,0-.3-.44h0a.2.2,0,0,0,0-.08,5.54,5.54,0,0,0-.33-.51l-.05-.06h0l-.36-.59a1,1,0,0,0-.25-.39c-.06-.3-.38-.42-.46-.7h0a21.82,21.82,0,0,0-1.95-2.53.57.57,0,0,0-.6-.22.59.59,0,0,0-.4.58,8.92,8.92,0,0,0,.52,3.32.32.32,0,0,0,.07.23h0a3,3,0,0,0,.38.9c.18.43.37.85.54,1.28a5.14,5.14,0,0,0,.66,1.22,5,5,0,0,0,1.14,1.41l.47.5a.61.61,0,0,0,.32.25h0a4.38,4.38,0,0,0,1.52.95c.14.05.41,0,.28.29h0c-.58.92-1.06,1.9-1.6,2.84a15.84,15.84,0,0,1-1,1.74c-.08-.11,0-.28-.16-.37s.06-.19,0-.27h0a11.25,11.25,0,0,0-.5-1.62h0a.63.63,0,0,0-.14-.38,2.17,2.17,0,0,0-.35-.81h0a9.52,9.52,0,0,0-1.59-2.33h0a.53.53,0,0,0-.15-.26,13.18,13.18,0,0,0-1.69-1.65,11.13,11.13,0,0,0-1.34-1.13c-.37-.35-.73-.72-1.12-1.05a9.5,9.5,0,0,0-1.25-1c-.23-.15-.48-.34-.76-.18s-.21.48-.18.75a7,7,0,0,0,.47,1.7,14.16,14.16,0,0,0,1.15,2.65v0a3.36,3.36,0,0,0,.35.68v0l0,0a1,1,0,0,0,.26.5,3.21,3.21,0,0,0,.62,1l0,0,0,0a.6.6,0,0,0,.22.32h0a11.85,11.85,0,0,0,1.91,2l.11.11c.64.61,1.28,1.22,2,1.77a3.09,3.09,0,0,0,.88.72c.07.12.21.15.32.22h0c.14.16,0,.28-.07.4-.77,1.36-1.52,2.73-2.31,4.08a9.34,9.34,0,0,1-1,1.62h-.09l0-.11a.55.55,0,0,0,0-.4h0c0-.24-.09-.48,0-.72h0a.67.67,0,0,0,0-.42h0v-.22a4.43,4.43,0,0,0-.35-2,.65.65,0,0,0-.16-.38,19.22,19.22,0,0,0-2.94-4.88,13.16,13.16,0,0,0-2-2.41h0c-.08-.1-.16-.22-.3-.24h0a.58.58,0,0,0-.65-.17c-.25.09-.3.33-.31.56a1.5,1.5,0,0,0,0,.56.64.64,0,0,0,.06.43h0c.2.94.4,1.88.61,2.82a10.25,10.25,0,0,0,.5,2,9.17,9.17,0,0,0,.89,2.37c.35.72.78,1.39,1.2,2.08,0,.12.11.18.18.25a8.94,8.94,0,0,0,2.45,2.26h0c.14.11.11.23,0,.36-.89,1.34-1.69,2.74-2.63,4-.05.07-.09.16-.21.12v-.11h0a9,9,0,0,0-.3-2.19l-.05-.16h0a13.74,13.74,0,0,0-2.21-4.65.12.12,0,0,0-.06-.1,6.82,6.82,0,0,0-1.07-1.44,3.14,3.14,0,0,0-1-1,.19.19,0,0,0-.14-.1,3,3,0,0,0-.72-.53,5.82,5.82,0,0,0-1.94-1,1,1,0,0,0-1.37,1,.72.72,0,0,0,0,.48h0a5.42,5.42,0,0,0,.27,1.6l.07.27h0a15.33,15.33,0,0,0,1,2.7h0a6.68,6.68,0,0,0,2.16,2.74h0a1.9,1.9,0,0,0,.33.31l1.83,1h0a11.06,11.06,0,0,1,1.71,1.71c.25.31.7.57.54,1.1-1,1.3-2,2.61-3,3.89a24.24,24.24,0,0,1-1.63,2,6.27,6.27,0,0,0-.09-.86,5.32,5.32,0,0,0-.16-1.49.93.93,0,0,0-.14-.49c0-.14,0-.3-.09-.42a.17.17,0,0,0,0-.22l-.05-.27h0a8.11,8.11,0,0,0-1.34-3.07h0a5.51,5.51,0,0,0-1-1.36h0a3.9,3.9,0,0,0-1-1.06.55.55,0,0,0-.16-.12l-.1-.09h0a.71.71,0,0,0-.35-.29c-.12-.11-.21-.25-.38-.28h0a3.17,3.17,0,0,0-1-.66.75.75,0,0,0-1.15.49.58.58,0,0,0-.1.33h0a7.23,7.23,0,0,0-.1,2,.36.36,0,0,0,0,.27h0a4.13,4.13,0,0,0,.18,1.3h0a6.93,6.93,0,0,0,.76,2.3,8.15,8.15,0,0,0,1.42,1.93,4.78,4.78,0,0,0,1,.89,6.53,6.53,0,0,0,1.2.82l.16.15h0a6.72,6.72,0,0,0,.78.63h0a1.55,1.55,0,0,0,.48.36l.33.28h0c-.79,1-1.57,2-2.37,3s-1.66,2-2.5,3c-.07.09-.13.23-.29.21h0l.21-2.29v-.1a2.36,2.36,0,0,0,0-1.18v-.22h0a1.47,1.47,0,0,0,0-.69,5.8,5.8,0,0,0-1-2.9h0l-.13-.17h0a.46.46,0,0,0-.17-.28s0,0,0,0h0a12.93,12.93,0,0,0-1.54-2.29h0a14.48,14.48,0,0,0-2-2.3.72.72,0,0,0-1.07.21,2.65,2.65,0,0,0-.53,1.5h0a.9.9,0,0,0,0,.43h0a7.08,7.08,0,0,0,.72,3.17.8.8,0,0,0,.16.38h0a18.67,18.67,0,0,0,1.17,2.21h0a5.61,5.61,0,0,0,.7,1.21c0,.22.23.33.36.49h0c0,.15.13.22.22.32h0a17.92,17.92,0,0,1,1.59,2.44.07.07,0,0,0,0,.06c.12.35.17.74.52,1h0a4.07,4.07,0,0,1-.84,1.09c-1.16,1.33-2.35,2.64-3.53,3.95-.1.11-.19.27-.38.28a4.53,4.53,0,0,0,.13-1.27V376h0a9.48,9.48,0,0,0,0-1.92h0l0-.37a2,2,0,0,0-.08-.65h0a17.87,17.87,0,0,0-.32-2.41h0l0-.16v-.11a5.39,5.39,0,0,0-.32-1.24h0a8.52,8.52,0,0,0-1.1-2.58l0-.07a2.14,2.14,0,0,0-.5-.7l-.08-.1a1.43,1.43,0,0,0-.65-.68l-.15-.15h0a.86.86,0,0,0-.42-.25h0l-.31-.11a.36.36,0,0,0-.32,0h0a.91.91,0,0,0-.52.85,39.17,39.17,0,0,0-.08,5.63,1.72,1.72,0,0,0,.06.64,1.1,1.1,0,0,0,.07.48h0a3.88,3.88,0,0,0,.37,1.3h0c.06.14.1.28.16.42a15.69,15.69,0,0,0,2.82,3.71l.16.18h0l.08.1h0a.45.45,0,0,0,.22.33c.17.14.15.26,0,.4-.32.32-.6.67-.94,1-1.12,1-2.08,2.22-3.2,3.26-.17.16-.24.43-.51.47h0l.06-.39a10.43,10.43,0,0,0,.27-1.58,7.28,7.28,0,0,0-.1-2,2.29,2.29,0,0,0-.19-.86,1.85,1.85,0,0,0-.18-.65,1,1,0,0,0-.19-.53h0a9,9,0,0,0-.86-1.9h0a11,11,0,0,0-1-1.52l-.09-.11h0l-.84-1.28a1.08,1.08,0,0,0-1.19-.52,1,1,0,0,0-.64,1,1.79,1.79,0,0,0,0,.23c.23,1.75.66,3.47.83,5.23a.84.84,0,0,0,0,.47v.33h0a4,4,0,0,0,.5,2.42h0c0,.13.09.18.15.26h0a.46.46,0,0,0,.17.28,4.34,4.34,0,0,0,2,1.65l.36.28h0l0,.06h0a3,3,0,0,1-.47.54c-1.4,1.36-2.81,2.7-4.29,4-.74.63-1.47,1.29-2.25,1.88-1.47,1.09-3,2.15-4.45,3.22-.17.12-.3.27-.16.46s.31.09.47,0c.67-.5,1.33-1,2-1.49a41.92,41.92,0,0,0,4.18-3.19c1.78-1.55,3.56-3.11,5.18-4.83a.29.29,0,0,1,.3-.08c.41-.09.58.17.78.46a2.47,2.47,0,0,0,1.19,1.09h0a.72.72,0,0,0,.32.2,1.18,1.18,0,0,0,.58.29h0a13.84,13.84,0,0,0,1.79.7h0A8.12,8.12,0,0,0,316,388a3.07,3.07,0,0,0,1.86-.31l.38-.36a1.21,1.21,0,0,0-.47-1.9,2.53,2.53,0,0,0-.37-.18l-2.38-.82h0a2.23,2.23,0,0,0-.75-.22h0l-1.11-.34a3.29,3.29,0,0,0-1.28-.22h-.2l-1.08,0h-.1a2.35,2.35,0,0,0-1.23.13c0-.07,0-.12.06-.16.9-1,1.8-1.92,2.71-2.86.7-.71,1.44-1.39,2.07-2.17,0,0,0,0,0,0h0l.33.3a.61.61,0,0,0,.32.25h0a1,1,0,0,0,.41.31,4.05,4.05,0,0,0,.84.58.05.05,0,0,0,.05,0,2.27,2.27,0,0,0,.78.42.28.28,0,0,0,.21.1h0l1,.4a2.76,2.76,0,0,0,.79.28h0l.26.07h0c.74.17,1.46.38,2.2.49a3.92,3.92,0,0,0,2-.11.2.2,0,0,0,0-.08.3.3,0,0,1,0,.08.41.41,0,0,0,.32-.1,2.63,2.63,0,0,0,1.09-.7c.57-.57.54-1.1-.13-1.55a14.47,14.47,0,0,0-2.88-1.33h0l-.32-.11s0,0,0,0a.36.36,0,0,0-.21-.05h0a6.49,6.49,0,0,0-2-.49h0a1.9,1.9,0,0,0-.75,0h0a6.49,6.49,0,0,0-1.45.2,2.83,2.83,0,0,0-.85.19h0a3.36,3.36,0,0,0-.76.18h0l-.63.1h0c0-.14.11-.19.18-.27.58-.62,1.18-1.24,1.74-1.87,1.08-1.23,2.13-2.49,3.25-3.69a5.23,5.23,0,0,1,1.32.75l.11.09h0a1.19,1.19,0,0,0,.46.4,2.84,2.84,0,0,0,.9.62.1.1,0,0,0,.05,0h0a3.3,3.3,0,0,0,1.25.49h0a8,8,0,0,0,1.34.49,9,9,0,0,0,4.93-.26,2.56,2.56,0,0,0,1.37-1.12.69.69,0,0,0-.3-1.07,5.93,5.93,0,0,0-1.75-.54h0a.6.6,0,0,0-.32-.1,12.13,12.13,0,0,0-1.33-.43h0a11.61,11.61,0,0,0-3.82-.73H324l-.27,0h-.1a.63.63,0,0,0-.38,0h0a7.89,7.89,0,0,0-1.28.18,1.18,1.18,0,0,0-.53.07h0a1.78,1.78,0,0,0-.65.11c-.12-.16,0-.22.11-.3.9-1.08,1.8-2.15,2.69-3.23.64-.78,1.27-1.57,1.91-2.36h0c.19.25.2.59.46.8h0l.52.55h0a3.67,3.67,0,0,0,.88.64l0,0h0a3.85,3.85,0,0,0,1.69.81l.09,0h0a4.79,4.79,0,0,0,1.44.29,5.11,5.11,0,0,0,1.7.07h0a9.28,9.28,0,0,0,2-.29,6.66,6.66,0,0,0,3.18-1.45c.17-.15.39-.29.29-.58-.16-.47-.61-.46-1-.59h0l-1.31-.61a.56.56,0,0,0-.05.08.18.18,0,0,1,.05-.08,6.66,6.66,0,0,0-2.38-.88h0c-.05,0-.09-.08-.16-.05a4.76,4.76,0,0,0-1.07-.15h0a12.21,12.21,0,0,0-3.52,0h0a1.72,1.72,0,0,0-.64.1,3.58,3.58,0,0,0-1,.27c-.1,0-.14,0-.21.09l-.36.06,3-3.81c.6-.77,1.14-1.59,1.77-2.34h0a3.37,3.37,0,0,0,.61.46l.18.13h0a1.52,1.52,0,0,0,.46.3s0,0,.06,0a2.37,2.37,0,0,0,.68.41,1,1,0,0,0,.52.24h0c.08.07.15.16.27.15a1.73,1.73,0,0,0,.68.3h0l.16.06h0a1.2,1.2,0,0,0,.48.17l.06,0h0a9.31,9.31,0,0,0,2.84.65h0a4.06,4.06,0,0,0,1.39,0h.33a.75.75,0,0,0,.42,0h0a7.91,7.91,0,0,0,2.92-.65c.2-.08.41-.18.45-.41s-.16-.42-.35-.54c-.74-.47-1.48-.94-2.23-1.39a5,5,0,0,0-1.17-.5,8,8,0,0,0-2.58-.77h0a.51.51,0,0,0-.36-.07l-.07,0,.07,0a1.52,1.52,0,0,0-.6-.07h0a2,2,0,0,0-.76,0,2.29,2.29,0,0,0-.74,0h0l-.48,0a18.48,18.48,0,0,0-2.53.67h0c-.07,0-.22.07-.21-.12,1.15-1.59,2.2-3.25,3.23-4.91.11-.17.19-.28.39-.15h0a5.77,5.77,0,0,0,1.2.95h0l.15.14a8.79,8.79,0,0,0,2,1.24,4.79,4.79,0,0,0,1.27.55.45.45,0,0,0,.25.07h0a5.34,5.34,0,0,0,2.14.16h.9a17.53,17.53,0,0,0,4.38-.61,4.07,4.07,0,0,0,1.72-.9.71.71,0,0,0,.12-1,1.35,1.35,0,0,0-.49-.46,12,12,0,0,0-3.89-1.05c-.81-.17-1.65-.15-2.46-.36h0l-.26-.07a1.94,1.94,0,0,0-.53-.12l-.1,0a3.21,3.21,0,0,0-1.07-.13h0a9.21,9.21,0,0,0-1.57.11,17.46,17.46,0,0,0-3.3.44h0c-.08-.19.08-.3.15-.43.68-1.19,1.39-2.35,2-3.55.44-.82.89-1.62,1.4-2.39h0c.37.23.54.67.95.86a3.85,3.85,0,0,0,1.1.62,1.67,1.67,0,0,0,.68.3h0l.22.09a.4.4,0,0,0,.26.08c.46.16.91.33,1.37.48a6.57,6.57,0,0,0,2.24.36h0a11.56,11.56,0,0,0,5.21-.67,2.63,2.63,0,0,0,.82-.45c.37-.33.34-.61-.09-.85a13.53,13.53,0,0,0-2-.9,16.78,16.78,0,0,0-3.75-1.08h0a.63.63,0,0,0-.36-.07h0a6.48,6.48,0,0,0-1.71-.25.85.85,0,0,0-.42,0h-.79a4.89,4.89,0,0,0-3,.69h0a.06.06,0,0,0-.06,0h-.2l.06-.36h0l1.92-3.43a18.26,18.26,0,0,1,1-1.72l.37.17h0a12.57,12.57,0,0,0,1.15.89h0l0,0h0a1.26,1.26,0,0,0,.46.3c.08.07.15.16.27.16a6.36,6.36,0,0,0,1.32.62,5.23,5.23,0,0,0,1.21.41.43.43,0,0,0,.27.06h0a2.62,2.62,0,0,0,1.11.08h.12a6.24,6.24,0,0,0,2.68-.23l.16,0h0a8,8,0,0,0,1.67-.66,4.33,4.33,0,0,0,2.19-1.55.89.89,0,0,0-.5-1.5,5.65,5.65,0,0,0-1.29-.24h0l-.95-.16h0a5.26,5.26,0,0,0-1.12-.2,1.05,1.05,0,0,0-.47-.05h-.43l-.85,0h-.32a4.13,4.13,0,0,0-.86,0h-.2a.64.64,0,0,0-.39,0h-.09a6.55,6.55,0,0,0-1.46.24l-.15,0h0a4.13,4.13,0,0,0-1,.19,7.64,7.64,0,0,1-.78.17h0a5.87,5.87,0,0,0-1.68.63h0c-.08-.13,0-.21.08-.3l2.73-4.67c.07-.12.12-.23.28-.2h0a1,1,0,0,0,.62.31,2.14,2.14,0,0,0,.8.32h0a.71.71,0,0,0,.43.11h0l.15,0a18.4,18.4,0,0,0,2.56.29h0l.17,0a8.44,8.44,0,0,0,3.12-.28,5.22,5.22,0,0,0,2-.85.39.39,0,0,0,.26-.15h0a3.19,3.19,0,0,0,1.19-1.23.75.75,0,0,0-.12-1,2.27,2.27,0,0,0-1.3-.69.88.88,0,0,0-.48-.09h0l-.06,0h0a1.06,1.06,0,0,0-.53,0,13.77,13.77,0,0,0-2.13,0h-.21a3.18,3.18,0,0,0-1,.13h0a13.15,13.15,0,0,0-1.95.46h0a1.43,1.43,0,0,0-.63.21h0a8.67,8.67,0,0,0-2.6,1.62h0a.72.72,0,0,1,.07-.25c1-1.6,1.72-3.33,2.68-4.95a.49.49,0,0,1,.24-.27h0a.05.05,0,0,0,0,0h0a4.68,4.68,0,0,0,2,.72h0a3.92,3.92,0,0,0,1.6,0h0a4.73,4.73,0,0,0,3.32-1.66c.69-.77.55-1.35-.44-1.65a.78.78,0,0,0-.22,0h0a.86.86,0,0,0-.21-.07,4.94,4.94,0,0,0-3.44.63,4,4,0,0,0-1,.48h0a1.53,1.53,0,0,0-.55.32h0a2.74,2.74,0,0,0-.65.41s-.05-.11,0-.13c.61-.87.95-2,2.07-2.43a8,8,0,0,0,1.26-.82,10.87,10.87,0,0,0,2.87-3.38h0a5.14,5.14,0,0,0,.44-4l-.31-.34A1.06,1.06,0,0,0,354.85,314.94Zm-26.44,25.11a.19.19,0,0,1,0,.08A.22.22,0,0,1,328.41,340.05Zm-17.32,44.26h0Zm-1.37.62h0Zm-3-10,.08-.08,0,0Zm-.95,7h0Zm2.05,1.4Zm1,.51Zm9.78-4.15h0Zm2.05-.69h0Zm-5.76-.49Zm-3.49-5.5h0v0Zm2.79.14Zm-2.38-7.59a1,1,0,0,0-.22-.05.11.11,0,0,1,.05-.12Zm-.37-.07h-.09l0,0Zm.64,9.77h0Zm5.36-9.48v0Zm-.54-.79h0Zm-.87-3.81Zm3.76,11.11a.1.1,0,0,1,.05,0h0Zm2-10.65Zm-2.58-4.79Zm-.13-2.67Zm1.06.46h0Zm3.51,5.7Zm.12-.85h0Zm-1.26,1.41Zm1.25-.77Zm-2.22,1.06h0Zm3.47,3v0Zm6.88,1.83a.11.11,0,0,1,0-.08l.12.07A.15.15,0,0,1,331.92,366Zm-3.49-1.46Zm-.53,0h0Zm-2.83-3.36h0v0ZM339.35,358l0,0V358Zm-12.88-7.67Zm4.58,5.85Zm-2.95-6.76h0Zm1,5.24h0Zm10.64-2.4Zm0,0h0Zm-5.1-2.95Zm-.21.35,0,0,0,0Zm-3.52-7.26h0Zm-1.16.15s.09,0,.13,0a1,1,0,0,1,.09.15Zm4.78-4.35Zm4,3.7Zm-4.45-4.28,0,0v0Zm-.29,1.64a0,0,0,0,0,0,0h0Zm4.14,4.24h0l0,0Zm3.1,1.14h0Zm5.48,1.86h0Zm-3.75-1.83a0,0,0,0,0,0,0S342.74,344.66,342.74,344.68Zm1.7.22v0h0v0Zm-.41.41h0Zm-3,1.07a.64.64,0,0,0,.08.14h0C341,346.45,341,346.41,341,346.38Zm3.67-2.5Zm6.54-6.2h0Zm-3.13,2.95Zm.14.36,0,0S348.23,341,348.24,341ZM345,338a.5.5,0,0,1,0,.12h0A.11.11,0,0,1,345,338Zm-5.37-5.65a.07.07,0,0,1,0,.05h0Zm-.64-.15Zm2.9,5.37Zm.58.77a.06.06,0,0,0,0,0h0Zm.05.31a.57.57,0,0,1,.24-.08.74.74,0,0,0,0,.21A.65.65,0,0,0,342.47,338.6Zm1.5,1.16,0,.07A.12.12,0,0,1,344,339.76Zm9.31-8.56-.06-.07S353.29,331.15,353.28,331.2Zm-.47-.13h0s0,0,0,0h0s0-.05,0,0l0,0Zm-8.75-2.29h0Zm-.36-.39Zm.63,2.31Zm-.14.9v-.05l0,0Zm-2.22-5h0Zm-.3-.54h0Zm5.27-2.46Zm5.84-2.42h0v0Z"/><polygon class="cls-3" points="319.24 356.79 319.24 356.79 319.24 356.79 319.24 356.79 319.24 356.79"/><path class="cls-3" d="M65.28,388.45a5.86,5.86,0,0,0,.87.69c0,.05.09.1.17.1h0a6.31,6.31,0,0,0,1.26.72.71.71,0,0,0,.31.16,1.6,1.6,0,0,0,.3.13h0a.23.23,0,0,0,.12.06h0a1.76,1.76,0,0,0,.5.18l.09,0h0a1.41,1.41,0,0,0,.53.12h.07a.82.82,0,0,0,.35,0,.34.34,0,0,0,.2,0h0a2.24,2.24,0,0,0,.82-.12c.57.34,1.17.63,1.75.95,0,0,0,0,0,0a4.28,4.28,0,0,0-2.33,1,1.7,1.7,0,0,0-.61,1.13.65.65,0,0,0,.84.76,2.8,2.8,0,0,0,1.83-1.37h0l.08-.11h0c.21-.23.43-.46.62-.71s.28-.22.33-.4h0c.06-.08.11,0,.17,0,.33.13.65.28,1,.4.86.33,1.69.72,2.53,1.12l-1.25.24h0l-.38.05H75.4a1.44,1.44,0,0,0-.68.18h0a3,3,0,0,0-.57.28h0a3,3,0,0,0-.67.38l-.69.43s0,0,0,0h0l-.24.11c-.24.12-.47.26-.71.39h0a2.22,2.22,0,0,0-1,.66.65.65,0,0,0,.27,1.14,4,4,0,0,0,3.15-.23l.05,0a1.79,1.79,0,0,0,.42-.25,8.11,8.11,0,0,0,1.4-1h0l0,0a.67.67,0,0,0,.21-.2h0a2,2,0,0,0,.59-.66h0a1.92,1.92,0,0,0,.32-.95h0l.1-.36h0c.08-.06.14,0,.21,0l2.69,1.27c.09.05.2.08.2.21a.46.46,0,0,0-.23.05,1.15,1.15,0,0,0-.51.14l-.17.05h0l0,0h0l-.47.18a5.05,5.05,0,0,0-1.36.81.64.64,0,0,0-.27.22h0s0,0-.05,0a2.25,2.25,0,0,0-.3.24l0,0h0l-.36.27a.58.58,0,0,0-.23.18c-.19.06-.25.27-.43.34h0a15.36,15.36,0,0,0-1.51,1.4.35.35,0,0,0-.1.39.36.36,0,0,0,.39.23,5.86,5.86,0,0,0,2.1-.53c.06,0,.1,0,.15-.06h0a1.71,1.71,0,0,0,.55-.29l.79-.43a2.85,2.85,0,0,0,.75-.49,3.59,3.59,0,0,0,.84-.81l.29-.33c.06-.07.13-.12.14-.22h0a2.89,2.89,0,0,0,.53-1c0-.1,0-.27.17-.2h0c.62.32,1.28.57,1.91.86a9.75,9.75,0,0,1,1.18.55c-.07.06-.18,0-.23.13s-.12,0-.17,0h0a6.29,6.29,0,0,0-1,.41h0a.48.48,0,0,0-.24.11,1.54,1.54,0,0,0-.5.28h0a6.46,6.46,0,0,0-1.41,1.15h0a.42.42,0,0,0-.15.12,7.66,7.66,0,0,0-1,1.17,7.39,7.39,0,0,0-.65.93c-.21.26-.42.52-.61.79a7.15,7.15,0,0,0-.59.85c-.08.17-.19.33-.07.5s.32.11.49.08a4.22,4.22,0,0,0,1.07-.41A8.6,8.6,0,0,0,80.8,402h0a1.64,1.64,0,0,0,.42-.26h0a.79.79,0,0,0,.31-.2,2.35,2.35,0,0,0,.59-.46h0l0,0a.33.33,0,0,0,.19-.16h0a7.28,7.28,0,0,0,1.2-1.34l.06-.08a15.21,15.21,0,0,0,1-1.37,1.93,1.93,0,0,0,.41-.61c.08-.05.09-.14.12-.22h0c.1-.1.18,0,.27,0,.92.42,1.84.82,2.75,1.25a6.28,6.28,0,0,1,1.1.55v.07h-.07a.33.33,0,0,0-.26,0h0c-.16,0-.3.09-.46.05h0a.5.5,0,0,0-.27,0h-.14a2.87,2.87,0,0,0-1.28.34.38.38,0,0,0-.24.13,12.14,12.14,0,0,0-3,2.17,8.41,8.41,0,0,0-1.44,1.42h0a.31.31,0,0,0-.13.2h0a.37.37,0,0,0-.07.43c.07.16.22.17.37.17a1.08,1.08,0,0,0,.36,0A.4.4,0,0,0,83,404h0l1.78-.55A6.58,6.58,0,0,0,86,403a5.71,5.71,0,0,0,1.47-.71,13.79,13.79,0,0,0,1.27-.89c.08,0,.11-.08.15-.13a5.87,5.87,0,0,0,1.31-1.7h0c.06-.1.14-.09.23,0,.91.49,1.85.92,2.75,1.45,0,0,.11.05.08.13h-.07a5.19,5.19,0,0,0-1.39.32l-.1,0h0a9.09,9.09,0,0,0-2.86,1.69.1.1,0,0,0-.06.05,4.84,4.84,0,0,0-.86.77,2.14,2.14,0,0,0-.59.71.16.16,0,0,0,0,.1,2,2,0,0,0-.3.5,3.5,3.5,0,0,0-.51,1.3.63.63,0,0,0,.7.82.47.47,0,0,0,.31,0h0a3.22,3.22,0,0,0,1-.27l.17-.06h0a9.53,9.53,0,0,0,1.68-.79h0A4.36,4.36,0,0,0,92,404.68h0a2,2,0,0,0,.17-.23c.19-.41.36-.82.54-1.23h0a7.16,7.16,0,0,1,1-1.2c.19-.18.32-.48.67-.41.89.56,1.79,1.11,2.67,1.68a12.94,12.94,0,0,1,1.39.93,2.68,2.68,0,0,0-.55.11,3.13,3.13,0,0,0-1,.18.66.66,0,0,0-.3.12c-.09,0-.19,0-.27.09a.11.11,0,0,0-.14,0l-.17.06h0a5.2,5.2,0,0,0-1.89,1h0a3.28,3.28,0,0,0-.82.71h0a2.47,2.47,0,0,0-.62.67.41.41,0,0,0-.07.11l-.06.07h0a.42.42,0,0,0-.16.25c-.06.08-.15.14-.16.25h0a2.38,2.38,0,0,0-.37.68.49.49,0,0,0,.39.72.41.41,0,0,0,.22,0h0a4.51,4.51,0,0,0,1.27-.05.18.18,0,0,0,.17,0h0a2.58,2.58,0,0,0,.82-.19h0a4.49,4.49,0,0,0,1.44-.62,5.12,5.12,0,0,0,1.15-1,2.63,2.63,0,0,0,.51-.69,4.76,4.76,0,0,0,.46-.82l.09-.12h0a6.18,6.18,0,0,0,.36-.53h0a.94.94,0,0,0,.2-.33l.16-.23h0c.68.45,1.37.89,2,1.35s1.38,1,2.07,1.43c.06,0,.15.07.15.18h-1.55a1.63,1.63,0,0,0-.76.05l-.14,0h0a1,1,0,0,0-.44.05,3.65,3.65,0,0,0-1.8.81h0l-.11.09h0a.26.26,0,0,0-.16.13s0,0,0,0h0A8.78,8.78,0,0,0,97,409.91h0a8.64,8.64,0,0,0-1.36,1.41.47.47,0,0,0,.19.68,1.84,1.84,0,0,0,1,.25h0a.67.67,0,0,0,.28,0h0a4.59,4.59,0,0,0,2-.65.43.43,0,0,0,.23-.12h0a11.17,11.17,0,0,0,1.35-.88h0a3.52,3.52,0,0,0,.74-.52c.14,0,.2-.17.3-.26h0c.09,0,.13-.1.19-.16h0a9.83,9.83,0,0,1,1.48-1.16l0,0c.22-.11.47-.16.59-.4h0a2.67,2.67,0,0,1,.75.48c.92.67,1.83,1.35,2.74,2,.08.06.19.1.21.22a3.29,3.29,0,0,0-.83,0h-.08a5.57,5.57,0,0,0-1.22.14h0l-.23,0a1.5,1.5,0,0,0-.42.09h0a10.13,10.13,0,0,0-1.52.35h0l-.11,0h-.06a3.45,3.45,0,0,0-.78.28h0a5.54,5.54,0,0,0-1.59.85l0,0a1.32,1.32,0,0,0-.42.36l-.06.06a1,1,0,0,0-.4.45l-.08.11h0a.62.62,0,0,0-.14.28h0l-.06.21a.24.24,0,0,0,0,.2h0a.57.57,0,0,0,.57.29,25.72,25.72,0,0,0,3.62-.27,1.42,1.42,0,0,0,.41-.08.82.82,0,0,0,.31-.07h0a2.59,2.59,0,0,0,.81-.32h0l.26-.13a10,10,0,0,0,2.22-2l.1-.1h0l.06-.06h0a.34.34,0,0,0,.21-.16c.07-.12.15-.11.25,0s.47.35.68.54c.73.67,1.55,1.21,2.29,1.87.11.1.28.13.33.3h0l-.26,0a7,7,0,0,0-1-.08,5,5,0,0,0-1.27.18,1.7,1.7,0,0,0-.54.17,1.52,1.52,0,0,0-.4.16.59.59,0,0,0-.33.15h0a5.86,5.86,0,0,0-1.17.66h0a7.43,7.43,0,0,0-.92.76l-.06.06h0l-.78.61a.7.7,0,0,0-.26.8.65.65,0,0,0,.7.35l.15,0c1.11-.25,2.19-.63,3.31-.84a.6.6,0,0,0,.3-.05l.21,0h0a2.6,2.6,0,0,0,1.53-.46h0c.08,0,.11-.07.15-.12h0a.24.24,0,0,0,.17-.12,2.7,2.7,0,0,0,1-1.37l.16-.25h0l0,0h0a2,2,0,0,1,.37.27c1,.82,1.9,1.65,2.8,2.53.45.44.91.87,1.33,1.33.79.88,1.56,1.78,2.33,2.67.09.1.19.18.31.08s0-.21,0-.3c-.36-.4-.74-.8-1.08-1.22a25.8,25.8,0,0,0-2.29-2.5c-1.1-1.05-2.2-2.11-3.4-3.05a.17.17,0,0,1-.07-.18c-.08-.26.07-.38.25-.53a1.59,1.59,0,0,0,.63-.83h0a.42.42,0,0,0,.11-.22.67.67,0,0,0,.15-.38h0a10.11,10.11,0,0,0,.35-1.19h0a5.35,5.35,0,0,0,.25-1.87,2,2,0,0,0-.3-1.17l-.26-.23a.78.78,0,0,0-1.19.42,1.06,1.06,0,0,0-.09.25c-.14.52-.27,1.05-.4,1.57h0a1.37,1.37,0,0,0-.09.49h0c-.05.25-.11.49-.16.74a1.94,1.94,0,0,0-.06.83v.13h0l0,.7V413h0a1.4,1.4,0,0,0,.15.78.11.11,0,0,1-.11,0l-2-1.58c-.5-.41-1-.84-1.51-1.2l0,0h0l.17-.23a.37.37,0,0,0,.14-.22h0a.51.51,0,0,0,.17-.28,2.49,2.49,0,0,0,.33-.57l0,0a1.53,1.53,0,0,0,.22-.53.19.19,0,0,0,0-.14h0l.2-.67a1.6,1.6,0,0,0,.14-.53h0l0-.17h0c.06-.48.16-1,.18-1.44a2.59,2.59,0,0,0-.18-1.29h0a.34.34,0,0,0-.09-.19,1.76,1.76,0,0,0-.51-.67c-.4-.33-.74-.28-1,.18a9.45,9.45,0,0,0-.69,1.93h0l0,.21a0,0,0,0,0,0,0,.24.24,0,0,0,0,.14h0a4.34,4.34,0,0,0-.19,1.34h0a1.13,1.13,0,0,0,0,.48h0a4.8,4.8,0,0,0,.21.91,2,2,0,0,0,.18.54h0a1.94,1.94,0,0,0,.16.48h0l.1.4h0c-.09,0-.13-.06-.18-.1-.44-.34-.87-.69-1.31-1-.85-.63-1.72-1.23-2.56-1.87a3.44,3.44,0,0,1,.41-.89l0-.08h0a.73.73,0,0,0,.23-.32,1.86,1.86,0,0,0,.35-.61.05.05,0,0,0,0,0h0a2,2,0,0,0,.24-.83h0a4.69,4.69,0,0,0,.24-.89,5.87,5.87,0,0,0-.45-3.15,1.66,1.66,0,0,0-.8-.81.44.44,0,0,0-.67.25,3.49,3.49,0,0,0-.25,1.15h0a.41.41,0,0,0,0,.22,5.34,5.34,0,0,0-.2.88h0A7.21,7.21,0,0,0,103,405V405l0,.17h0v.07a.35.35,0,0,0,0,.24h0a5.6,5.6,0,0,0,.19.81.81.81,0,0,0,.08.34h0a1.17,1.17,0,0,0,.1.41c-.09.09-.14,0-.2-.06L101,405.49c-.53-.37-1.08-.73-1.62-1.09h0c.15-.14.37-.17.49-.34h0l.32-.37h0a2.34,2.34,0,0,0,.36-.61h0v0a2.72,2.72,0,0,0,.42-1.13v-.06h0a3.31,3.31,0,0,0,.11-.94,3.38,3.38,0,0,0-.06-1.1h0a5.55,5.55,0,0,0-.3-1.25,4.24,4.24,0,0,0-1.11-1.95c-.11-.11-.21-.24-.4-.16s-.25.42-.32.66h0l-.31.88.06,0-.06,0a4.32,4.32,0,0,0-.43,1.58h0s0,.06,0,.1a3.25,3.25,0,0,0,0,.7h0a8.22,8.22,0,0,0,.22,2.26h0a1.45,1.45,0,0,0,.1.41,2.57,2.57,0,0,0,.23.6c0,.06,0,.09.07.13l.06.23c-.87-.57-1.74-1.14-2.62-1.7-.53-.34-1.09-.63-1.6-1h0a2.48,2.48,0,0,0,.26-.42l.07-.12h0a1.17,1.17,0,0,0,.17-.31l0,0a1.62,1.62,0,0,0,.22-.46.63.63,0,0,0,.13-.35h0a.23.23,0,0,0,.08-.18,1.19,1.19,0,0,0,.15-.46h0l0-.1h0a.72.72,0,0,0,.08-.32.05.05,0,0,0,0,0h0a6.18,6.18,0,0,0,.25-1.86h0a2.49,2.49,0,0,0-.06-.9l0-.21h0a.5.5,0,0,0,0-.27h0a5,5,0,0,0-.59-1.84c-.06-.12-.13-.25-.29-.26s-.25.13-.32.25c-.26.51-.52,1-.76,1.52a3,3,0,0,0-.26.78,5.2,5.2,0,0,0-.34,1.7h0a.33.33,0,0,0,0,.24s0,0,0,0a.06.06,0,0,1,0,0,.81.81,0,0,0,0,.38h0a1.16,1.16,0,0,0,0,.49,1.55,1.55,0,0,0,.07.48h0c0,.1,0,.2.05.3a13.1,13.1,0,0,0,.57,1.59h0s.06.14-.06.14c-1.09-.64-2.21-1.22-3.34-1.79-.12-.06-.2-.11-.12-.24h0a3.48,3.48,0,0,0,.54-.83h0l.08-.11a5.19,5.19,0,0,0,.68-1.35,2.77,2.77,0,0,0,.28-.84.34.34,0,0,0,0-.17h0a3.38,3.38,0,0,0,0-1.38c0-.2,0-.39-.05-.58a11,11,0,0,0-.65-2.78,2.55,2.55,0,0,0-.68-1.05.45.45,0,0,0-.66,0,.82.82,0,0,0-.27.34,7.46,7.46,0,0,0-.45,2.56c-.06.53,0,1.07-.09,1.6h0l0,.18a1,1,0,0,0,0,.34V395a1.78,1.78,0,0,0,0,.69h0a5.63,5.63,0,0,0,.16,1,11.79,11.79,0,0,0,.47,2.1h0c-.11.06-.2,0-.29-.08-.79-.36-1.58-.75-2.39-1.09-.55-.24-1.09-.48-1.62-.76h0c.13-.25.4-.39.5-.66a2.83,2.83,0,0,0,.34-.75,1.14,1.14,0,0,0,.15-.45h0l0-.15a.32.32,0,0,0,0-.17c.08-.3.16-.6.23-.91a4.46,4.46,0,0,0,.1-1.46h0a7.27,7.27,0,0,0-.74-3.3,1.5,1.5,0,0,0-.33-.5c-.23-.22-.41-.19-.54.1a9.1,9.1,0,0,0-.46,1.33,10.39,10.39,0,0,0-.48,2.47h0a.36.36,0,0,0,0,.23h0a4.14,4.14,0,0,0-.06,1.11.65.65,0,0,0,0,.28l0,.51h0a3.13,3.13,0,0,0,.62,1.89h0s0,0,0,0v.12h-.24l-2.31-1a12.14,12.14,0,0,1-1.16-.53l.08-.25h0c.17-.27.37-.51.51-.79h0v0a.85.85,0,0,0,.17-.31c0-.06.09-.11.08-.18a3.51,3.51,0,0,0,.32-.89,3.13,3.13,0,0,0,.2-.8.25.25,0,0,0,0-.17h0a1.74,1.74,0,0,0,0-.72h0v-.08a3.94,3.94,0,0,0-.3-1.7l0-.1h0a4.6,4.6,0,0,0-.52-1,2.78,2.78,0,0,0-1.12-1.32.58.58,0,0,0-.94.41,4,4,0,0,0-.07.84h0c0,.21,0,.42,0,.62h0a3,3,0,0,0-.06.73.61.61,0,0,0,0,.3h0v.28h0l0,.55v.21h0a2.51,2.51,0,0,0,0,.55h0l0,.13h0a.43.43,0,0,0,0,.25h0v.06h0a4.15,4.15,0,0,0,.24.92l0,.1h0a2.31,2.31,0,0,0,.18.62.5.5,0,0,0,.08.26.48.48,0,0,0,.07.23h0a3.75,3.75,0,0,0,.5,1.05h0c-.07,0-.13,0-.2,0l-3.16-1.48c-.07,0-.15-.06-.14-.17h0a.66.66,0,0,0,.17-.42,1.56,1.56,0,0,0,.16-.53h0a.45.45,0,0,0,0-.28h0l0-.1a10.21,10.21,0,0,0,0-1.66h0a.43.43,0,0,0,0-.11,5.42,5.42,0,0,0-.35-2,3.58,3.58,0,0,0-.66-1.25.38.38,0,0,0-.12-.16h0a2,2,0,0,0-.86-.69.48.48,0,0,0-.61.13,1.45,1.45,0,0,0-.37.88.55.55,0,0,0,0,.31h0a.06.06,0,0,0,0,0h0a.65.65,0,0,0,0,.34,7.87,7.87,0,0,0,.15,1.37h0V389a2,2,0,0,0,.15.65h0a7.72,7.72,0,0,0,.41,1.23h0a.83.83,0,0,0,.16.39h0a5.8,5.8,0,0,0,1.2,1.58h0a.65.65,0,0,1-.16,0c-1.09-.54-2.25-.91-3.34-1.43-.07,0-.15-.06-.19-.14h0a0,0,0,0,0,0,0h0a2.83,2.83,0,0,0,.34-1.33h0a2.59,2.59,0,0,0-.07-1h0a3.13,3.13,0,0,0-1.26-2c-.54-.4-.9-.28-1,.38a.61.61,0,0,0,0,.14h0c0,.05,0,.09,0,.14a3.23,3.23,0,0,0,.61,2.17,2.49,2.49,0,0,0,.37.6h0a.86.86,0,0,0,.23.33h0a2,2,0,0,0,.31.4s-.07,0-.09,0c-.59-.34-1.33-.49-1.68-1.18a5.5,5.5,0,0,0-.6-.77,7.13,7.13,0,0,0-2.34-1.64h0a3.31,3.31,0,0,0-2.62-.05l-.2.22A.7.7,0,0,0,65.28,388.45ZM83,404h0Zm29.43,8.56h0Zm.48.83h0Zm-6.27,2.52-.06,0,0,0A.09.09,0,0,0,106.59,415.88Zm4.53.21Zm.78-1.4h0Zm.27-.67h0Zm-3.24-6Zm-.56-1.28h0Zm0,3.73ZM105.06,413h0Zm-.07-1.8Zm-4.74,2a1.13,1.13,0,0,0,0,.14.07.07,0,0,1-.08,0Zm0,.24v.06l0,0Zm6.23-1h0a.11.11,0,0,1,0,.08A.19.19,0,0,0,106.46,412.43Zm-6.4-2.9h0Zm-.47.4Zm-2.39.78h0Zm6.91-3.06,0,0s0,0,0,0h0A.1.1,0,0,1,104.11,407.65Zm-7-.69Zm-2.92,1.93Zm-1.72.24h0Zm.24-.71h0Zm3.46-2.59Zm-.55,0Zm1,.72Zm-.56-.76Zm.81,1.37h0Zm1.75-2.41h0Zm.77-4.52a0,0,0,0,1-.05,0,.59.59,0,0,0,0-.08A.11.11,0,0,1,99.4,400.21Zm-.73,2.33Zm0,.34s0,0,0,0h0Zm-2,2h0Zm-2.82-9s0,0,0,0h0Zm-4.18,8.72Zm3.49-3.29ZM89,403.62h0v0Zm3.31-.92h0ZM90.16,396Zm0,0h0Zm-1.6,3.45Zm.24.11,0,0v0Zm-4.46,2.69a0,0,0,0,1,0,0h0A.06.06,0,0,0,84.32,402.25Zm.16.73s0-.05,0-.08a.35.35,0,0,1,.09-.07Zm-3.07-2.82Zm2.14-2.78h0Zm-2.49,3.1,0,0h0Zm1.08.1h0Zm2.48-2.91v0h0A0,0,0,0,0,84.62,397.67Zm.55-2.06h0Zm.88-3.63Zm-1,2.52h0Zm0-1.11h0Zm.29.24Zm.86,1.88.09-.07h0C86.33,395.5,86.3,395.51,86.28,395.51Zm-1.82-2.22Zm-4.36-3.84h0Zm2.08,1.84Zm.22-.11,0,0S82.4,391.19,82.4,391.18Zm-1.76,2.29.07,0h0A.06.06,0,0,1,80.64,393.47Zm-3.32,3.77h0v0Zm-.06.43Zm3.28-2.18Zm.46-.41h0v0Zm.19-.06a.84.84,0,0,1-.06-.14h.14A.55.55,0,0,0,81.19,395Zm.67-1,0,0A.05.05,0,0,1,81.86,394Zm-6-5.48a.1.1,0,0,1,0,0S75.79,388.51,75.82,388.51Zm-.06.31h0s0,0,0,0h0s0,0,0,0l0,0Zm-1,5.76h0Zm-.23.25Zm1.45-.54Zm.58,0h0ZM73.53,396Zm-.34.23h0ZM71.31,393Zm-1.89-3.6h0Z"/><rect class="cls-3" x="94.23" y="408.89" transform="translate(-11.43 2.8) rotate(-1.61)"/><path class="cls-4" d="M377.67,460H93.12a7,7,0,0,1-6.51-9.57l8.21-20.77c4.11-10.4,10.74-20.34,19.6-29.55a146.28,146.28,0,0,1,33-25.12c12.6-7.18,29.13-10.88,45.79-10.88a102.35,102.35,0,0,1,34.85,5.87c13.79,5.07,30.3,6.95,46.33,5.29l1.75-.18a109.18,109.18,0,0,1,35,2c16.5,3.71,30.26,11.29,37.27,21.43l35,50.53A7,7,0,0,1,377.67,460Z"/><path class="cls-5" d="M348.8,460H112.36c7.17-21.63,16.64-39.8,28.89-49.11,12.47-9.48,26.8-8.92,38.49-21.61,3.51-3.81,6.71-8.76,10.44-11.67,5.07-3.93,10.69-3.8,16.15-3.62,7.13.25,14.4.53,21.14,5,4.07,2.73,7.84,6.94,11.81,10.21l.72.58c10.8,8.55,22.71,10.17,34.37,11.68,3.8.49,7.68,1,11.35-.95,5.84-3.05,11.08-12,17.07-10.5,6.28,1.61,10,13.71,14,23.24,4.4,10.57,10.06,19.19,16.41,25,5.37,4.9,11.64,8.49,14.72,18.28A31.46,31.46,0,0,1,348.8,460Z"/><path class="cls-5" d="M311.17,377a12.05,12.05,0,0,1-4.73,1.81c-17.62,2.71-36,.32-53.11,5.39A69.61,69.61,0,0,0,240,389.77c-11.88,6.37-22.26,15.76-31.92,25.34a364.63,364.63,0,0,0-39,44.84H93.12a7,7,0,0,1-6.51-9.57l8.21-20.77c4.11-10.4,10.74-20.34,19.6-29.55a146.28,146.28,0,0,1,33-25.12c12.6-7.18,29.13-10.88,45.79-10.88a102.35,102.35,0,0,1,34.85,5.87c13.79,5.07,30.3,6.95,46.33,5.29l1.75-.18A109.18,109.18,0,0,1,311.17,377Z"/><path class="cls-5" d="M195.09,405.77a11.41,11.41,0,0,1-3.3,2.2c-2.27,1.17-4.5,2.41-6.7,3.7a24,24,0,0,0-6.63,5.18,26.77,26.77,0,0,0-3.24,5.8,30.6,30.6,0,0,0-2.93,8.7,2.19,2.19,0,0,0,.4,1.89,2.12,2.12,0,0,0,.8.42,21.29,21.29,0,0,0,11.17.59A32.29,32.29,0,0,0,195.08,430a15,15,0,0,0,3-2.32,12.57,12.57,0,0,0,1.8-2.48c3.25-5.66,3.54-12.5,3.4-19-3.11-.66-6.31.37-9.33,1.38"/><path class="cls-5" d="M246.55,414.52a12.26,12.26,0,0,1,3,3.36c1.62,2.34,3.33,4.63,5.11,6.88a26.45,26.45,0,0,0,6.94,6.68,34,34,0,0,0,7.47,3,42.37,42.37,0,0,0,11.05,2.41,3.11,3.11,0,0,0,2.33-.59,2.47,2.47,0,0,0,.47-.91,20,20,0,0,0-.09-12,32.61,32.61,0,0,0-6.1-10.83,17,17,0,0,0-3.13-3.09,15.67,15.67,0,0,0-3.21-1.72c-7.3-3-15.85-2.73-24-2-.6,3.4.91,6.75,2.4,9.91"/><path class="cls-6" d="M339.72,424.63a10,10,0,0,0-5.47,1.43,12.63,12.63,0,0,0-3.74,2.57c-.76,1-.63,2.17.91,2.93a12.62,12.62,0,0,0,2.9.83,30.25,30.25,0,0,0,6.11.68,11.09,11.09,0,0,0,5.51-1.2,3.15,3.15,0,0,0,1.34-2,2.61,2.61,0,0,0-.54-2.9,6.87,6.87,0,0,0-5.33-1.09"/><path class="cls-7" d="M306.2,268.41c.41,4.9-17.55,5.5-26.35,11.81-10.59,7.6-21.93,32.72-28.46,40.27-.9,1-1.84,2.05-2.81,3a94.19,94.19,0,0,1-17.85,13.73l-7.67,4.5-3.78-2.47s16.06-6.59,26.47-16.75a41.22,41.22,0,0,0,3.19-3.46c9.88-12.09,15.58-30.19,31.8-43.93C289.8,267.45,305.93,265.23,306.2,268.41Z"/><path class="cls-8" d="M245.75,322.52a9.18,9.18,0,0,0,2.83,1,94.19,94.19,0,0,1-17.85,13.73l-7.67,4.5-3.78-2.47S235.34,332.68,245.75,322.52Z"/><path class="cls-9" d="M311.44,187.61c-.11.77-1.6,5.15-3.67,11.08-4.84,13.9-15.44,38.61-16.34,42.72-.75,3.43-13.38,11.45-13.38,11.45l-27.23,17a47.59,47.59,0,0,0-4.48,4.72c-2.39,2.86-6.36,16.62-7.45,20.67-.71,2.68-.56,6.94,0,11.42a166.68,166.68,0,0,0,3.57,18.84l.06.23s.22,1,.6,2.79c1.44,6.7,5.16,23.85,7.58,33.3.67,2.62,1.15,4.76,1.34,6.09.09.7.17,1.62.23,2.71,0,.65,0,1.35.07,2.1.25,9.24,1.34,23.67,1.08,29.94,0,0,0,.06,0,.09,0,.75-.06,1.34-.07,1.75s0,.63,0,.63l-.63,5.76-2.42.11-1.84-4.74h0l-.58-1.54-9.28-32-.13-.44s-4-10.49-6.8-14.54-13.76-8.59-15.58-2.16c-1.23,4.38-10.19,43.3-13.37,50.57-.74,1.71-1.35,3.18-1.77,4.23s-.66,1.66-.66,1.66l-3.88-4.72s.17-.89.48-2.41c1-4.76,1.44-22.86,1.44-36a137.1,137.1,0,0,0-.4-14c-.92-4.66-3.26-22.79-3.26-22.79s-4.29-20.54-6-30.52c-1.39-8.22-2.11-16.43-2.11-16.43-.94-2.44-.84-6.14-.84-8.75,0-.59-3.12-14.35-5.52-21.92-.69-2.18-2.09-3.61-3-5-2.32-3.77-36.79-19-38.28-21.53-4.73-8-8.31-48-17.8-60.73l-.1-.14c-2.25-3-4.4-5.67-6.33-7.79C97,140,116.5,150.88,116.5,150.88l8.66,4.32.32.15s1.9,2.88,4.78,7.18l.7,1c8.28,12.33,15.78,57.21,18.69,59.37,4,3,29.83,9.39,31.59,11.54A48.86,48.86,0,0,0,191.91,241c.52.21,1,.4,1.52.55,5.14,1.58,10.15,6.25,12,7.34,8.54,5,19.2,5.31,27.24,4.55a74.26,74.26,0,0,0,8.55-1.29c2.12-.45,3.36-.81,3.36-.81s.17.1.5.26,1,.46,1.75.78c.51.2,1.09.43,1.76.65l.51.18c5.16,1.7,13.28-3.81,22.72-10,4.81-3.16,8.49-4.54,12.47-12.42,4.64-9.16,8.75-21.18,11.74-31,.47-1.53.9-3,1.31-4.41,1.19-4.12,2.13-7.64,2.77-10.09s.92-3.66.92-3.66S311.74,185.52,311.44,187.61Z"/><path class="cls-7" d="M187.82,428.05c-1.84-3.38,8.49-7.49,7-8.48S177.81,433.76,177,432c-.26-.58.11-1.33.73-2.08l0,0c-1.08.68-2.11,1-2.6.33s.28-1.9,1.4-3.11c-.91.44-1.74.5-2.26-.22-1.69-2.36,17.56-15.7,18.76-16.76l.12-.11a41.48,41.48,0,0,0,3.7-5.21l.42-.66.14-.14-.28,2.84,1.84-3.55s1.7,2,1.53,3.9-.59,2.1-.59,2.1,1.42-.45,2.75-3.5v0a1.79,1.79,0,0,1,0,.23C203.13,413,189.63,431.38,187.82,428.05Z"/><path class="cls-7" d="M281.53,424.17c-2.25,1-5.93-2.2-6.41-2.63.65.64,6.92,6.13,5.9,6.64a1.32,1.32,0,0,1-.69.07,9.51,9.51,0,0,1-4.08-1.64,11.13,11.13,0,0,1,1.85,1.86h0c.61.85.68,1.59-.32,2-3.44,1.3-19.52-13.17-20.63-11.63s10,11,5.46,11.39c-2.94.27-8.3-9.89-11.75-17.17a33.2,33.2,0,0,1-2.47-6.79l.22-.09,3.06,2.54a8.51,8.51,0,0,0-1-3.7c-.74-1.15-1.68-2.47-2.08-3l.11-.16,3.58,1.25-.57-1.55.24.15h0c2.19,1.44,10.56,7.05,17.86,12.31l.11.08h0l0,0,.2.15a.1.1,0,0,1,.05,0,.92.92,0,0,1,.13.09l.08.06C277.08,419.26,282.67,423.68,281.53,424.17Z"/><path class="cls-10" d="M195.22,256.72s2.63,1.85,9.55,6.78c4.91,3.49,17.31,2.54,24.13,1.69a7.83,7.83,0,0,1,8.06,4.45c1.07,2.28,1.75,5,.76,7.4-2.26,5.5-6.54,13.34-5.54,24.11.94,10.11,3.85,27.6,1.34,35.21-1.2,3.62-16.81,7.44-25.12,2.09s-12.22-20.67-12.5-35.05-4.24-26.53-4.8-31.32S189.48,254.46,195.22,256.72Z"/><path class="cls-8" d="M246.84,252.41c-5.39,6-15.44,13.19-25.44,10.5C206,258.77,198.73,257.1,191.91,241c.52.21,1,.4,1.52.55,5.14,1.58,10.15,6.25,12,7.34,8.54,5,19.2,5.31,27.24,4.55a74.26,74.26,0,0,0,8.55-1.29c2.12-.45,3.36-.81,3.36-.81s.17.1.5.26S246.06,252.09,246.84,252.41Z"/><path class="cls-7" d="M203.35,205.89a25.18,25.18,0,0,0-2.93,5.93l-.14.44a33.9,33.9,0,0,1-3.37,7.25,8.32,8.32,0,0,1-2.62-3.89c-1.74-4.84,1.33-10.65,5.54-10.85a5,5,0,0,1,3.54,1.1Z"/><path class="cls-10" d="M203.35,205.89a25.18,25.18,0,0,0-2.93,5.93l-.14.44a33.9,33.9,0,0,1-3.37,7.25,8.32,8.32,0,0,1-2.62-3.89c-1.74-4.84,1.33-10.65,5.54-10.85a5,5,0,0,1,3.54,1.1Z"/><path class="cls-7" d="M255.24,236a8.33,8.33,0,0,1-4.43,1.53,33.76,33.76,0,0,1,1.67-7.82c.06-.14.1-.29.15-.43a25.08,25.08,0,0,0,1.24-6.53,5,5,0,0,1,3.48,1.25C260.6,226.73,259.55,233.21,255.24,236Z"/><path class="cls-10" d="M255.24,236a8.33,8.33,0,0,1-4.43,1.53,33.76,33.76,0,0,1,1.67-7.82c.06-.14.1-.29.15-.43a25.08,25.08,0,0,0,1.24-6.53,5,5,0,0,1,3.48,1.25C260.6,226.73,259.55,233.21,255.24,236Z"/><path class="cls-7" d="M242.69,234.93a7.1,7.1,0,0,0-2.69,5.54,16,16,0,0,1-.51,4.67c-3,9-14,13.44-24.51,9.92s-16.61-13.68-13.6-22.68a15.94,15.94,0,0,1,2.4-4,7.12,7.12,0,0,0,1.2-6,9.8,9.8,0,0,1-.27-1.53,10.88,10.88,0,0,1,.5-4.64c2-6,8.71-9.12,15-7a12.48,12.48,0,0,1,5.29,3.45,7.13,7.13,0,0,0,6.69,2.24,12.35,12.35,0,0,1,6.29.43c6.28,2.11,9.75,8.66,7.74,14.63a10.83,10.83,0,0,1-2.39,4A11.34,11.34,0,0,1,242.69,234.93Z"/><path class="cls-10" d="M242.69,234.93a7.1,7.1,0,0,0-2.69,5.54,16,16,0,0,1-.51,4.67c-3,9-14,13.44-24.51,9.92s-16.61-13.68-13.6-22.68a15.94,15.94,0,0,1,2.4-4,7.12,7.12,0,0,0,1.2-6,9.8,9.8,0,0,1-.27-1.53,10.88,10.88,0,0,1,.5-4.64c2-6,8.71-9.12,15-7a12.48,12.48,0,0,1,5.29,3.45,7.13,7.13,0,0,0,6.69,2.24,12.35,12.35,0,0,1,6.29.43c6.28,2.11,9.75,8.66,7.74,14.63a10.83,10.83,0,0,1-2.39,4A11.34,11.34,0,0,1,242.69,234.93Z"/><path class="cls-7" d="M259.32,222.45a6.21,6.21,0,0,0-5.41-1.46,27.79,27.79,0,0,0-.17-3c-.07-.73-.18-1.46-.31-2.19-1.34-7.47-5.39-14.66-11.3-19.1l1.07-3.63L238,194.2l-.5-.23-.93-.39.28-2.91.07-.86-.63-.19c-4.12-1-7.34,2-7.86,2.48a31,31,0,0,0-20.51,8.44c-.55.5-1.08,1-1.58,1.56q-1,1.11-2,2.31l-.13-.14a6.27,6.27,0,0,0-5.07-2c-5.35.26-9.24,7.63-7,13.79a10.35,10.35,0,0,0,3.61,5.15l-.15.25a20.75,20.75,0,0,0-1.18,2.3c-.21.5-.41,1-.58,1.55a20.69,20.69,0,0,0,.16,13.35,28.66,28.66,0,0,0,9.54,13,35.09,35.09,0,0,0,6.58,4.06,34.06,34.06,0,0,0,3.72,1.52l.3.1c11.87,4,24,1.34,30.91-5.8a20.36,20.36,0,0,0,2.33-2.91,19.58,19.58,0,0,0,3.19-8.8,1.36,1.36,0,0,0,0-.29,10.33,10.33,0,0,0,6-1.94C262.1,234.11,263.44,225.87,259.32,222.45Zm-65-6.83c-1.74-4.84,1.33-10.65,5.54-10.85a5,5,0,0,1,3.54,1.1l0,0a25.18,25.18,0,0,0-2.93,5.93l-.14.44a33.46,33.46,0,0,1-3.38,7.25A8.38,8.38,0,0,1,194.29,215.62Zm38.39,37.86c-.14.09-.29.17-.44.25l-.22.13-.48.25,0,0-.54.26-.07,0-.44.2-.19.08-.32.13-.31.12-.41.15-.25.09h0l-.48.16-.18.05-.52.15-.66.16c-.43.11-.87.19-1.32.27h-.07l-.55.08h-.1l-.62.08h-.07l-.65.06h-.08c-.21,0-.43,0-.65,0h0l-.71,0c-.6,0-1.2,0-1.81-.08l-.91-.09-.46-.06c-.46-.07-.91-.15-1.37-.24s-.62-.13-.92-.21c-.62-.15-1.23-.33-1.84-.53l-.67-.24c-.18-.07-.37-.13-.55-.21l-.29-.12-.48-.2-.19-.09-.56-.26h0c-.22-.1-.44-.21-.65-.33s-.42-.21-.62-.33l-.05,0-.6-.35-.56-.35-.08,0-.53-.36-.06,0-.54-.39-.53-.41a.12.12,0,0,1-.05,0c-.16-.11-.31-.24-.46-.36l-.06-.06-.52-.45h0l-.49-.46-.07-.07-.41-.41h0l-.39-.41-.07-.08,0,0-.25-.27-.55-.66-.24-.3a19.11,19.11,0,0,1-2.5-4.31,3,3,0,0,1-.15-.38c0-.12-.1-.25-.14-.38a15.67,15.67,0,0,1-.78-3c0-.09,0-.18,0-.27s0-.32-.06-.47l0-.25c0-.23,0-.46-.05-.69s0-.53,0-.79a14.93,14.93,0,0,1,.77-4.74,9.36,9.36,0,0,1,.83-1.74l.21-.35c.28-.45.59-.91.91-1.35l.45-.6a7.12,7.12,0,0,0,1.2-6,9.8,9.8,0,0,1-.27-1.53,10.88,10.88,0,0,1,.5-4.64c2-6,8.71-9.12,15-7a12.48,12.48,0,0,1,5.29,3.45,7.13,7.13,0,0,0,6.69,2.24,12.35,12.35,0,0,1,6.29.43c6.28,2.1,9.75,8.66,7.75,14.63a11,11,0,0,1-2.4,4,11.34,11.34,0,0,1-1.13,1.06,7.13,7.13,0,0,0-2.69,5.55,16,16,0,0,1-.51,4.66c0,.1-.07.21-.12.32s-.05.15-.08.23l-.12.3v0c-.07.18-.14.35-.22.51s-.21.47-.33.7l-.2.38-.08.13c-.08.15-.17.3-.26.44a12.14,12.14,0,0,1-.75,1.12l-.38.49h0l-.4.47-.42.46c-.32.34-.66.67-1,1l-.34.29-.05,0-.47.37-.44.33-.11.08-.41.28-.6.39ZM255.24,236a8.33,8.33,0,0,1-4.43,1.53,34.29,34.29,0,0,1,1.67-7.82c.06-.14.1-.29.15-.43a25.08,25.08,0,0,0,1.24-6.53,5,5,0,0,1,3.48,1.25C260.6,226.73,259.55,233.21,255.24,236Z"/><rect class="cls-11" x="218.37" y="230.37" width="1.93" height="4.38" rx="0.97" transform="translate(-100.34 233.99) rotate(-46.93)"/><rect class="cls-11" x="224.08" y="232.28" width="1.93" height="4.38" rx="0.97" transform="translate(15.54 482.92) rotate(-96.04)"/><path class="cls-12" d="M212.59,219.83a3.35,3.35,0,0,1,4.3-2h0a3.35,3.35,0,0,1,2.23,4.18"/><path class="cls-12" d="M232.17,226.38a3.37,3.37,0,0,1,4.3-2h0a3.37,3.37,0,0,1,2.23,4.19"/><rect class="cls-13" x="66.97" y="83.97" width="304.81" height="79.21"/><path class="cls-14" d="M90.27,60.67H348.48A23.3,23.3,0,0,1,371.79,84v0a0,0,0,0,1,0,0H67a0,0,0,0,1,0,0v0a23.3,23.3,0,0,1,23.3-23.3Z"/><path class="cls-14" d="M67,163.19H371.79a0,0,0,0,1,0,0v0a23.3,23.3,0,0,1-23.3,23.3H90.27A23.3,23.3,0,0,1,67,163.19v0a0,0,0,0,1,0,0Z"/><path class="cls-7" d="M310.18,188.27s-2.16-3.7-3.82-4.74a17.3,17.3,0,0,0-3.08-1.54s2.09-7.35-1-7.17-4.46,12.71-3.23,14.7l4-1.45.87,3.15,1.37-2.15a6.26,6.26,0,0,0,2.95.86Z"/><path class="cls-7" d="M131.52,189.74s.26-4.66,1.82-5.85a15.81,15.81,0,0,0,2.72-2.81s-3.23-6.61-.14-6.72S142,186.07,141,188.17l-4.08-1.07-.57,3.23-1.56-2a6.26,6.26,0,0,1-2.85,1.13Z"/><path class="cls-15" d="M271.31,335.2c-1.1,2.37-4.36,4-6.49,5.24a32.07,32.07,0,0,1-8.76,3.88l4.08,1.51c1.18.43,2.82,1.43,4.08,1.5,7-1.51,14.19-6.88,17.25-13.43Z"/><path class="cls-15" d="M358.31,106c1.17,2.34,4.46,3.92,6.63,5.11a32.41,32.41,0,0,0,8.87,3.71l-4,1.58c-1.16.46-2.78,1.49-4,1.59-7.06-1.38-14.37-6.61-17.61-13.11Z"/><path class="cls-15" d="M318.07,352.22c2.87-.25,5.76-2.41,8-4s4.93-3.49,6.55-5.84c.45,2.47,2.18,6.46.47,8.48-4.55,5.38-12.34,8.59-19.25,9.19Z"/><path class="cls-15" d="M206.42,75.07c2.79-1,6.51-.32,9.36.1,3,.46,6.39,1,9.18,2.31C223.79,75,222.9,71,220.26,70a32.9,32.9,0,0,0-22.19.11Z"/><path class="cls-15" d="M192.76,87.32c2.83.52,6.19-.73,8.82-1.61,2.93-1,6.23-2.07,8.73-3.94-.53,2.57-.4,6.74-2.74,8.18-6.17,3.81-14.66,5-21.74,3.71Z"/><path class="cls-15" d="M91.89,62c2.25,1.71,5.93,2,8.62,2.3,3.19.39,6.71.81,9.9.25l-3,3c-1,1-2,2.62-3.53,2.81a31.21,31.21,0,0,1-21.76-5.82Z"/><path class="cls-15" d="M129.21,337.07A15.67,15.67,0,0,0,136.74,349l-2.55,3.27-1.55,2c-.63.8-.94.22-1.79-.35-5.28-3.54-9.45-10-9.82-16.46Z"/><path class="cls-15" d="M130.51,89.29a33.12,33.12,0,0,0,15.2,2c1.58-.2,3.48,3.06,4.51,4.23-7.49,1.37-16.19,0-23.26-2.66Z"/><path class="cls-15" d="M352.62,158.39a21.89,21.89,0,0,0,7.78-3.26,69.62,69.62,0,0,0,5.16-4.88l7.41,2.66c-3.05,5.89-10,9.81-16.17,11.58-.63.18-2.29,1-2.51.2s-.39-1.51-.59-2.26Z"/><path class="cls-15" d="M303.47,73A23.52,23.52,0,0,0,312,71.64c.59-.19,6.71-3.4,6.5-3.54l6.31,4.34c-5.35,5.4-14.51,7.74-21.92,7.33Q303.21,76.35,303.47,73Z"/><path class="cls-15" d="M110.14,146.32a19.38,19.38,0,0,0,6.67,4.66c.57.26,7.41,2.41,7.41,1.93v6.81a29.05,29.05,0,0,1-20.73-9.41Z"/><path class="cls-16" d="M327.09,192.93a20.13,20.13,0,0,0,6.43,5.4,15.82,15.82,0,0,0,7.16,2.18v7.93a23.59,23.59,0,0,1-11-3.17,28,28,0,0,1-9-7.72l6.42-4.62Z"/><path class="cls-16" d="M265.32,30.25a20,20,0,0,0,8.11-2.16,15.84,15.84,0,0,0,5.9-4.61L285.82,28a23.52,23.52,0,0,1-8.89,7.16,28.2,28.2,0,0,1-11.52,3l-.09-7.91Z"/><path class="cls-16" d="M183.81,391.44a20,20,0,0,0,8.37.77,15.64,15.64,0,0,0,7.12-2.28l4.52,6.53A23.62,23.62,0,0,1,193,400.09a28,28,0,0,1-11.83-1.2l2.64-7.45Z"/><path class="cls-16" d="M379.92,99.76A19.79,19.79,0,0,0,387.43,96a15.7,15.7,0,0,0,4.83-5.71l7.29,3.14a23.59,23.59,0,0,1-7.25,8.82,28.12,28.12,0,0,1-10.67,5.25l-1.71-7.72Z"/><path class="cls-17" d="M281.69,175.38a30.62,30.62,0,0,0,5.9,6,21.86,21.86,0,0,0,6.24,3.65l.67,6.2a32.49,32.49,0,0,1-9.55-5.46,43.29,43.29,0,0,1-8.3-8.48l5-1.87Z"/><path class="cls-17" d="M238.33,212.78a31.12,31.12,0,0,0,8.39.07,22,22,0,0,0,7-1.81l4.85,3.92a32.63,32.63,0,0,1-10.63,2.86,43.32,43.32,0,0,1-11.87-.17l2.26-4.87Z"/><path class="cls-17" d="M67.72,288.8a30.62,30.62,0,0,0,5.9,6,21.86,21.86,0,0,0,6.24,3.65l.67,6.2A32.61,32.61,0,0,1,71,299.15a43.57,43.57,0,0,1-8.3-8.48l5-1.87Z"/><path class="cls-17" d="M161.68,56.8a31.47,31.47,0,0,0,8.1,2.19,27,27,0,0,0,5.42.26,3.43,3.43,0,0,1,3,1.38l2.5,3.39a32.79,32.79,0,0,1-11,.09A49.08,49.08,0,0,1,163,62.68a3.44,3.44,0,0,1-1.69-5.48l.34-.4Z"/><path class="cls-17" d="M160.86,279.38a19.88,19.88,0,0,0,2.45,8,15.68,15.68,0,0,0,4.81,5.73l-4.33,6.65a23.65,23.65,0,0,1-7.47-8.64A28,28,0,0,1,153,279.75l7.9-.37Z"/><path class="cls-18" d="M58.93,60.67c3,2.31,14.5,2.58,18,1.54l-5,7a23.68,23.68,0,0,1-11.42,0,28,28,0,0,1-10.84-4.88l9.2-3.72Z"/><path class="cls-18" d="M60.28,106.77c3.66.8,14.18-4,16.93-6.42l-1.44,8.49a23.69,23.69,0,0,1-10.29,5,28,28,0,0,1-11.88.3l6.68-7.34Z"/><path class="cls-15" d="M268.86,253c2.24,1.71,5.93,2,8.62,2.3a34.23,34.23,0,0,0,9.9.25l-3,3c-1,1-2,2.62-3.53,2.81a31.28,31.28,0,0,1-21.77-5.81Z"/><path class="cls-18" d="M237.24,297.81c3.67.8,14.19-4,16.94-6.43l-1.45,8.49a23.65,23.65,0,0,1-10.28,5,28.06,28.06,0,0,1-11.89.3l6.68-7.33Z"/><path class="cls-19" d="M265.93,86.24c3.67.8,14.19-4,16.94-6.43l-1.45,8.5a23.65,23.65,0,0,1-10.28,5,28.05,28.05,0,0,1-11.89.29l6.68-7.33Z"/><path class="cls-20" d="M236.08,362.47c3.42,1.53,14.7-1,17.9-2.79l-3.17,8a23.78,23.78,0,0,1-11.09,2.74A28.21,28.21,0,0,1,228,368.26l8.05-5.79Z"/><path class="cls-20" d="M172.15,40.07c3.29-1.8,14.73-.21,18.07,1.37l-3.8-7.73a23.62,23.62,0,0,0-11.27-1.86,28,28,0,0,0-11.48,3.08l8.48,5.14Z"/><path class="cls-20" d="M332.12,301.4c3.73-.39,12.23-8.21,14.07-11.41l1.28,8.52a23.69,23.69,0,0,1-8.2,7.94,28.17,28.17,0,0,1-11.2,4l4.05-9.05Z"/><path class="cls-20" d="M324.69,48c1.71,3.34,12.07,8.45,15.72,9h0l-7.48,4.27a23.51,23.51,0,0,1-10.37-4.79,27.82,27.82,0,0,1-7.77-9h0l9.9.5Z"/><path class="cls-15" d="M85.72,259.23c1.17,2.35,4.46,3.92,6.63,5.11a32.1,32.1,0,0,0,8.87,3.71l-4,1.59c-1.16.46-2.78,1.48-4,1.58-7.06-1.38-14.37-6.61-17.61-13.1Z"/><path class="cls-15" d="M181.61,235.44a23.36,23.36,0,0,0,8.58,1.24c.64,0,7.72-1.23,7.57-1.44l4.11,5.89c-7,3.37-16.45,3.21-23.6.55Z"/><path class="cls-16" d="M51.47,168.41a20,20,0,0,0,8.26-1.52A15.67,15.67,0,0,0,66,162.76l6.12,5.06a23.61,23.61,0,0,1-9.44,6.44,28.13,28.13,0,0,1-11.71,2l.53-7.89Z"/><path class="cls-16" d="M194.92,183.56A19.89,19.89,0,0,0,203.2,185a15.81,15.81,0,0,0,7.28-1.71l4,6.86a23.73,23.73,0,0,1-11.08,2.77,27.89,27.89,0,0,1-11.69-2.14l3.22-7.22Z"/><path class="cls-18" d="M107.33,253a19.9,19.9,0,0,0,7.51-3.77,15.7,15.7,0,0,0,4.83-5.71l7.29,3.14a23.67,23.67,0,0,1-7.25,8.82A28,28,0,0,1,109,260.68L107.33,253Z"/><path class="cls-20" d="M109.26,190.74c1.45,3.46,11.37,9.37,15,10.21l-7.79,3.67a23.53,23.53,0,0,1-10-5.59,28,28,0,0,1-7-9.58l9.83,1.29Z"/><path class="cls-16" d="M162.39,345.9c-1.37,3.5-11.15,9.63-14.72,10.56l7.88,3.49a23.67,23.67,0,0,0,9.82-5.82,28,28,0,0,0,6.82-9.74l-9.8,1.51Z"/><path class="cls-16" d="M345.39,230.63c-1.36,3.5-11.14,9.64-14.72,10.56l7.88,3.49a23.64,23.64,0,0,0,9.83-5.82,28.1,28.1,0,0,0,6.82-9.74l-9.81,1.51Z"/><path class="cls-11" d="M212.22,242.74c-.32-2.35,2.21-2.1,3.72-1A13.22,13.22,0,0,0,220.6,244a21.76,21.76,0,0,0,3.44.65c2.33.23,2,3.41-1.73,4.13C218.11,249.54,212.76,246.61,212.22,242.74Z"/><path class="cls-21" d="M328.07,394.44s2.38,7-6.47,18.55a14.87,14.87,0,0,0,8.85-11.57C331.81,392.57,328.07,394.44,328.07,394.44Z"/><path class="cls-22" d="M113.62,442.83S106.36,445.47,96,432.1c0,0,1.72,10.64,10.35,13.37S113.62,442.83,113.62,442.83Z"/></g></g></svg>