<svg id="Capa_1" data-name="Capa 1" xmlns="http://www.w3.org/2000/svg" viewBox="0 0 567.11 324.77"><defs><style>.cls-1{fill:#ffd54f;opacity:0.15;}.cls-2{fill:#86d1cd;}.cls-3{fill:#5685d8;}.cls-4{fill:#739af0;}.cls-5{fill:#2e3552;}.cls-6{fill:#ac752c;}.cls-7{fill:#ffe3a1;}.cls-8{fill:#4d3f3f;}.cls-9{fill:#a16552;}.cls-10{fill:#9f6552;}.cls-11{fill:#f3dab2;}.cls-12{fill:#5d5360;}.cls-13{fill:#fff;}.cls-14{fill:none;stroke:#4d3f3f;stroke-linecap:round;stroke-miterlimit:10;}</style></defs><path class="cls-1" d="M60.58,313.74S-13.72,231,35.12,143.62c46.45-83.11,151.07-83.31,182.62-73.4,22.64,7.11,64,49.81,112.85-22.51,66.63-98.61,261.83.19,219.71,151.91-20.37,73.43-7.8,39.6-49.78,113Z"/><path class="cls-2" d="M90.82,215.48l5.29-6.28s6.32,14.47-3,24.74C93.08,233.94,95.43,220.58,90.82,215.48Z"/><path class="cls-3" d="M106.91,108.85s-8.07-.76-7.43-9.25l-5.72-1.74s-.69,5,8.66,10.43C108.53,111.84,106.91,108.85,106.91,108.85Z"/><path class="cls-4" d="M114.83,109.63s-6.21,4.54-16.63-4.27c0,0,4.22,2.93,11.55.44Z"/><rect class="cls-5" x="13.87" y="312.61" width="505.08" height="2.19" rx="1.1"/><circle class="cls-5" cx="468.56" cy="185.11" r="7.56"/><path class="cls-6" d="M428.57,312.48l-.07,0a1.32,1.32,0,0,1-.58-1.48l36.13-125.7,4.11,1.19L430,311.94A.94.94,0,0,1,428.57,312.48Z"/><path class="cls-6" d="M508.15,312.48l.07,0a1.29,1.29,0,0,0,.58-1.48l-36.12-125.7-4.12,1.19,38.21,125.49A.94.94,0,0,0,508.15,312.48Z"/><polygon class="cls-7" points="313.09 158.99 280.27 121.05 469.42 121.05 502.24 158.99 313.09 158.99"/><path class="cls-8" d="M468.73,122.55,499,157.49H313.77l-30.22-34.94H468.73m1.37-3H277l35.41,40.94H505.52L470.1,119.55Z"/><polygon class="cls-7" points="280.27 249.18 313.09 211.24 502.24 211.24 469.42 249.18 280.27 249.18"/><path class="cls-8" d="M499,212.74l-30.22,34.94H283.55l30.22-34.94H499m6.57-3Zm0,0H312.4L277,250.68H470.1l35.42-40.94Z"/><rect class="cls-7" x="313.9" y="161.99" width="190.11" height="46.25"/><path class="cls-8" d="M502.52,163.49v43.25H315.4V163.49H502.52m3-3H312.4v49.25H505.52V160.49Z"/><polygon class="cls-8" points="198.14 160.49 233.55 119.55 276.99 119.55 312.4 160.49 312.4 209.74 284.63 250.68 233.55 250.68 198.14 209.74 198.14 160.49"/><path class="cls-5" d="M241.92,185.11a7.56,7.56,0,1,1,7.56,7.56A7.55,7.55,0,0,1,241.92,185.11Z"/><path class="cls-6" d="M289.07,312.48l.07,0a1.32,1.32,0,0,0,.58-1.48L253.6,185.26l-4.12,1.19,38.21,125.49A.94.94,0,0,0,289.07,312.48Z"/><path class="cls-6" d="M257,185.11a7.56,7.56,0,1,0-7.55,7.56A7.55,7.55,0,0,0,257,185.11Z"/><path class="cls-6" d="M209.88,312.48l-.06,0a1.29,1.29,0,0,1-.58-1.48l36.12-125.7,4.12,1.19L211.27,311.94A1,1,0,0,1,209.88,312.48Z"/><polygon class="cls-9" points="130.35 208.26 127.83 264.43 122.72 301.35 112.86 302.94 112.93 264.78 103.84 199.63 130.35 208.26"/><path class="cls-9" d="M178.87,159.19s1.42-3.86,3.61-4.59,5.48-3.67,5.74-2.19-3,3.1-3.1,4.41-3.57,6.6-3.57,6.6Z"/><path class="cls-9" d="M183.1,164.41s5-.56,6.73-2,4.8-8.7,3.66-9.15-9.93,2.67-9.93,2.67L181,162Z"/><path class="cls-9" d="M98.28,142.73s32.38,33.88,42.42,34,41.93-11.88,41.93-11.88,3.45-.51,1.74-2.94a16.41,16.41,0,0,0-4.24-4.15s-33.76,11.11-39.35,7.35-31.4-33.66-35.08-34.6C96.25,128.11,92.48,131.43,98.28,142.73Z"/><path class="cls-9" d="M68.1,312.61H56.27c-1.49-.81-2.81-2.66-3.23-5.42-.58-3.81-4.85-5.88-5.77-9s3.81-7.5,3.81-7.5l.79-1,.82-1.06,7.85,1.85s.2,1.87.31,4.25c.09,1.72.13,3.7,0,5.44-.23,4.16,1.16,8.63,4.85,9.44C68.47,310.19,68.35,311.81,68.1,312.61Z"/><path class="cls-9" d="M139.85,312.61H113.47c-1.27-1.64-.81-7.7-.61-9.67,0-.4.06-.64.06-.64s9-7.63,10.25-1.78c0,.18.08.36.13.54,1.56,5.47,8.56,7.95,12.59,8.64C138.52,310.16,139.49,311.6,139.85,312.61Z"/><path class="cls-10" d="M10.92,146.5c-.46,5.48,19.62,6.16,29.46,13.22,11.84,8.5,24.52,36.59,31.83,45,1,1.17,2.05,2.29,3.13,3.37a105.14,105.14,0,0,0,20,15.37l8.57,5,4.23-2.75s-18-7.38-29.6-18.74a44.58,44.58,0,0,1-3.57-3.87c-11-13.52-17.42-33.76-35.55-49.12C29.25,145.44,11.22,143,10.92,146.5Z"/><path class="cls-9" d="M130.34,208.27l-35,47.26L60.79,296.36l-9.07-6.57L77.78,247,93,212l-3.79-83.6,18.88-1.7,12.06,19.85h0a48.17,48.17,0,0,1,6.93,22.27l3.1,36.38Z"/><path class="cls-11" d="M130.77,205.23v0c-9.73,12-22.86-1.42-20.45-15.57,2.39-14-2.44-29.28-3.8-36.27s3.92-9.69,14.23-6.82h0a48.14,48.14,0,0,1,6.93,22.27Z"/><path class="cls-9" d="M177.68,215.33c-3.45-1.29-6.61-5.6-7.78-6.81a8.14,8.14,0,0,0-3.56-2.4l1.18-2.15,1.4-2.57s3.57,1.43,4.81.92a5.26,5.26,0,0,1,4.38.31c1.2.78,4.13,1.49,4,2-.17,1.19-4.21-.47-4.94.06a.89.89,0,0,0-.36,1.15h0c1.54,3.28,9.52,7.1,8.51,8.91C185,215.42,179.13,215.87,177.68,215.33Z"/><path class="cls-9" d="M93.13,153.43c0,1,22.29,37,36.23,43.71s43.25,12.08,43.25,12.08,0-2.06,0-4.29c0-1.28.62-1.59,0-2.47,0,0-37.54-13.35-40.05-18.65s-18.1-47.44-22-47S93.14,146.7,93.13,153.43Z"/><path class="cls-9" d="M94.55,240.44s-14.13-9.19-9.7-31.32,6.56-38.74,6.56-38.74"/><path class="cls-10" d="M77.51,95.62a23.37,23.37,0,0,0-.24,6.13c0,.14,0,.28,0,.42a31.22,31.22,0,0,1-.13,7.42,7.77,7.77,0,0,1-3.68-2.31c-3.3-3.45-2.89-9.53.6-11.29a4.67,4.67,0,0,1,3.42-.4Z"/><path class="cls-11" d="M77.51,95.62a23.37,23.37,0,0,0-.24,6.13c0,.14,0,.28,0,.42a31.22,31.22,0,0,1-.13,7.42,7.77,7.77,0,0,1-3.68-2.31c-3.3-3.45-2.89-9.53.6-11.29a4.67,4.67,0,0,1,3.42-.4Z"/><path class="cls-10" d="M132.86,101.61a7.74,7.74,0,0,1-3.18,3,31.5,31.5,0,0,1-1.53-7.26l0-.42a23.23,23.23,0,0,0-1.42-6,4.6,4.6,0,0,1,3.43-.26C133.9,91.7,135.45,97.59,132.86,101.61Z"/><path class="cls-11" d="M132.86,101.61a7.74,7.74,0,0,1-3.18,3,31.5,31.5,0,0,1-1.53-7.26l0-.42a23.23,23.23,0,0,0-1.42-6,4.6,4.6,0,0,1,3.43-.26C133.9,91.7,135.45,97.59,132.86,101.61Z"/><path class="cls-10" d="M121.8,105.4a6.63,6.63,0,0,0-.18,5.72,14.86,14.86,0,0,1,1.32,4.14c.84,8.77-6.79,16.67-17,17.65s-19.24-5.33-20.07-14.1a14.53,14.53,0,0,1,.51-4.32,6.63,6.63,0,0,0-1.26-5.58,8.9,8.9,0,0,1-.81-1.19A10.14,10.14,0,0,1,83,103.6,10.86,10.86,0,0,1,93,92a11.4,11.4,0,0,1,5.78.93,6.65,6.65,0,0,0,6.52-.63,11.42,11.42,0,0,1,5.49-2,10.85,10.85,0,0,1,12.08,9.48,10,10,0,0,1-.51,4.3A10.3,10.3,0,0,1,121.8,105.4Z"/><path class="cls-11" d="M121.8,105.4a6.63,6.63,0,0,0-.18,5.72,14.86,14.86,0,0,1,1.32,4.14c.84,8.77-6.79,16.67-17,17.65s-19.24-5.33-20.07-14.1a14.53,14.53,0,0,1,.51-4.32,6.63,6.63,0,0,0-1.26-5.58,8.9,8.9,0,0,1-.81-1.19A10.14,10.14,0,0,1,83,103.6,10.86,10.86,0,0,1,93,92a11.4,11.4,0,0,1,5.78.93,6.65,6.65,0,0,0,6.52-.63,11.42,11.42,0,0,1,5.49-2,10.85,10.85,0,0,1,12.08,9.48,10,10,0,0,1-.51,4.3A10.3,10.3,0,0,1,121.8,105.4Z"/><path class="cls-10" d="M131.2,88.56a5.81,5.81,0,0,0-5.14.79,24.39,24.39,0,0,0-1.28-2.49c-.34-.59-.7-1.17-1.09-1.74a28.74,28.74,0,0,0-16.78-11.93l-.46-3.48-4,2.93H102q-.47,0-.93,0l-.87-2.58-.25-.76-.61.08c-3.88.69-5.48,4.43-5.73,5.07A28.73,28.73,0,0,0,79.38,89.35c-.27.63-.52,1.27-.74,1.92-.31.89-.57,1.79-.79,2.69l-.16-.07a5.81,5.81,0,0,0-5,.26c-4.44,2.23-5,10-.77,14.34a9.75,9.75,0,0,0,5,3,2,2,0,0,1,0,.26,19,19,0,0,0-.13,2.39c0,.51,0,1,.09,1.54A19.11,19.11,0,0,0,82,126.94a26.54,26.54,0,0,0,13,7.46,31.5,31.5,0,0,0,7.1,1,33.51,33.51,0,0,0,3.73-.12l.29,0c11.56-1.1,20.87-7.91,24-16.57a18.6,18.6,0,0,0,1.07-8.16,18.83,18.83,0,0,0-.79-3.84l-.09-.26a9.64,9.64,0,0,0,4.35-3.9C138,97.39,136,89.91,131.2,88.56ZM73.5,107.28c-3.3-3.45-2.89-9.53.6-11.29a4.67,4.67,0,0,1,3.42-.4v0a23.81,23.81,0,0,0-.25,6.13c0,.14,0,.28,0,.42a31.22,31.22,0,0,1-.13,7.42A7.77,7.77,0,0,1,73.5,107.28Zm46.81,17.62-.27.38-.15.19-.3.4s0,0,0,0l-.36.43s0,0,0,.05l-.3.34-.13.13c-.07.09-.15.16-.22.24l-.22.22-.29.28-.18.16h0l-.35.31-.13.11-.38.32-.5.39q-.49.38-1,.72l-.06,0-.43.28-.08.05-.5.29-.05,0-.54.29-.06,0-.54.28h0l-.59.28c-.51.22-1,.43-1.56.62l-.81.26-.41.12c-.42.12-.83.23-1.26.32l-.86.17c-.58.11-1.16.18-1.76.24l-.65.05a4.93,4.93,0,0,1-.55,0h-1.57c-.23,0-.45,0-.68,0l-.64-.05h0l-.65-.07-.61-.09h-.08l-.58-.1h-.07l-.61-.13-.6-.15-.07,0-.51-.14-.09,0-.6-.19h0l-.6-.21-.08,0-.5-.19h0l-.49-.2-.09,0,0,0-.31-.14-.72-.35-.31-.17a17.35,17.35,0,0,1-3.75-2.71l-.27-.26-.26-.26a15.37,15.37,0,0,1-1.79-2.25l-.14-.22-.23-.37a2,2,0,0,0-.11-.2c-.11-.19-.21-.38-.3-.56s-.22-.44-.32-.67a13.65,13.65,0,0,1-1.13-4.31,9,9,0,0,1,0-1.78c0-.13,0-.25,0-.38.07-.49.16-1,.27-1.49l.15-.67a6.63,6.63,0,0,0-1.26-5.58,8.9,8.9,0,0,1-.81-1.19A10.14,10.14,0,0,1,83,103.59,10.85,10.85,0,0,1,93,92a11.4,11.4,0,0,1,5.78.93,6.62,6.62,0,0,0,6.52-.63,11.49,11.49,0,0,1,5.5-2,10.88,10.88,0,0,1,12.08,9.49,10.14,10.14,0,0,1-.52,4.3,9.73,9.73,0,0,1-.57,1.32,6.63,6.63,0,0,0-.18,5.72,15,15,0,0,1,1.32,4.14l0,.32c0,.07,0,.15,0,.22s0,.2,0,.31v.53c0,.24,0,.48,0,.72l0,.4v.14c0,.15,0,.31,0,.47-.06.41-.13.82-.22,1.23,0,.18-.09.37-.14.56h0c0,.18-.1.37-.16.55l-.18.55c-.15.41-.31.81-.49,1.2l-.18.38,0,.05c-.08.17-.16.33-.25.49s-.16.3-.25.45l-.07.11a4.11,4.11,0,0,1-.24.39c-.11.19-.24.37-.36.56Zm12.55-23.3a7.7,7.7,0,0,1-3.18,3,31.5,31.5,0,0,1-1.53-7.26l0-.42a23.5,23.5,0,0,0-1.42-6,4.65,4.65,0,0,1,3.43-.25C133.9,91.7,135.45,97.59,132.86,101.6Z"/><rect class="cls-8" x="100.22" y="110.16" width="1.79" height="4.07" rx="0.9" transform="translate(-37.98 171.05) rotate(-70.91)"/><rect class="cls-8" x="105.78" y="109.63" width="1.79" height="4.07" rx="0.9" transform="translate(63.33 259.89) rotate(-120.01)"/><path class="cls-8" d="M93.78,106.81h0a3.11,3.11,0,0,1-3.46-2.71l-.1-1a3.12,3.12,0,0,1,2.89-3.32h0a3.12,3.12,0,0,1,3.47,2.71l.09,1A3.11,3.11,0,0,1,93.78,106.81Z"/><path class="cls-12" d="M93.11,99.78l.34,3.52a1.6,1.6,0,0,0,3.18-.31l0-.5A3.12,3.12,0,0,0,93.11,99.78Z"/><ellipse class="cls-13" cx="93.3" cy="101.79" rx="1.06" ry="1.01" transform="translate(-9.26 9.34) rotate(-5.46)"/><path class="cls-8" d="M112.85,105h0a3.11,3.11,0,0,1-3.46-2.71l-.1-1A3.11,3.11,0,0,1,112.18,98h0a3.11,3.11,0,0,1,3.47,2.71l.1,1A3.12,3.12,0,0,1,112.85,105Z"/><path class="cls-12" d="M112.18,98l.34,3.51a1.6,1.6,0,0,0,3.18-.3l0-.5A3.11,3.11,0,0,0,112.18,98Z"/><ellipse class="cls-13" cx="112.37" cy="99.97" rx="1.06" ry="1.01" transform="translate(-9 11.14) rotate(-5.46)"/><path class="cls-14" d="M112.58,120.82a12.31,12.31,0,0,1-7.54,3.07c-6,.3-7.55-1.16-7.55-1.16"/></svg>