<svg xmlns="http://www.w3.org/2000/svg" viewBox="0 0 336.94 280.73"><defs><style>.cls-1{isolation:isolate;}.cls-2{fill:#759b71;}.cls-3{fill:#c0ca5d;}.cls-4{fill:#c9b492;}.cls-20,.cls-21,.cls-5,.cls-6{opacity:0.05;}.cls-20,.cls-21,.cls-6{stroke:#fff;}.cls-12,.cls-20,.cls-21,.cls-6{stroke-miterlimit:10;}.cls-6{stroke-width:0.68px;}.cls-7{fill:#9f6552;}.cls-8{fill:#6f4459;opacity:0.4;mix-blend-mode:multiply;}.cls-9{fill:#a16552;}.cls-10{fill:#f3dab2;}.cls-11{fill:#4d3f3f;}.cls-12{fill:none;stroke:#4d3f3f;stroke-linecap:round;}.cls-13{fill:#fcdc49;}.cls-14{fill:#ffad23;}.cls-15{fill:#7d4a74;fill-rule:evenodd;}.cls-16{fill:#ff2e68;}.cls-17{fill:#627aff;}.cls-18{fill:#ffb416;}.cls-19{fill:#99f;}.cls-21{stroke-width:1.18px;}</style></defs><g class="cls-1"><g id="Capa_1" data-name="Capa 1"><path class="cls-2" d="M98.9,96.13c-.84.15-1.75-.42-2.53.24a10.41,10.41,0,0,0-3.18,2.18h0a2.31,2.31,0,0,0-1.27.87h0l-2.06,1.15a1,1,0,0,0-.73.32,1,1,0,0,0-.74.34,2.34,2.34,0,0,0-1.13.57,4.49,4.49,0,0,0-1.64.91,7,7,0,0,0-2.05,1.15c-1.95.93-3.47,2.48-5.21,3.72h0l-.2.16-.09,0-.07.08a2.2,2.2,0,0,0-1.13.74l-.37.35a14.9,14.9,0,0,0-2.81,2.2l-.37.35-.57.51-.75.68a3.35,3.35,0,0,0-1.23,1.38h0l-.3.35h0a8.34,8.34,0,0,0-1.68,2.8h0a.2.2,0,0,0-.09.17,2.42,2.42,0,0,0-.59,1.25,1.75,1.75,0,0,0-.66,1.17h0c-.15.16-.28.32-.18.56-.62.28-.38,1-.74,1.43a.44.44,0,0,0-.28.49c-.07.17-.15.35-.23.52l-.22.55h0a1,1,0,0,0-.29.71l-1.11,3h0c-.18.67-.69,1.24-.68,2l-.19.47a2.21,2.21,0,0,0-.36,1.11,4.54,4.54,0,0,0-.54,1.63l-.33,1.18h0a1.45,1.45,0,0,0-.25.95h0a10,10,0,0,0-.56,2.3.91.91,0,0,0-.13.72l-.09.54h0a2,2,0,0,0-.28,1.21,8.69,8.69,0,0,0-.35,2.32,3.51,3.51,0,0,0-.24,1.6,2.39,2.39,0,0,0-.19,1.62c.19.57-.58,1-.26,1.6l-.05.38-.14.21a6,6,0,0,0-.29,2.26l-.18.68h0l-.12.58a3.94,3.94,0,0,0-.3,1.63l-.09.55a1.6,1.6,0,0,0-.18,1.07h0a4.63,4.63,0,0,0-.26,2.3A1.15,1.15,0,0,0,58,157a2.67,2.67,0,0,0-.3,1.24h0l-.39,1.44a1.93,1.93,0,0,0-.36,1.07c-.17.47-.35.94-.52,1.42h0l-1.74,4a2.38,2.38,0,0,0-.6,1.23l-1.2,2.46a6,6,0,0,0-1.07,1.61h0a1.31,1.31,0,0,0-.54.85h0c-.31.52-.62,1-.92,1.56l-.24-.73h0a10,10,0,0,0-.3-2.89c0-.2-.05-.39-.08-.58h0a10.93,10.93,0,0,0-.25-2.85l0-.37c-.11-1.15-.22-2.3-.34-3.46-.07-.58-.15-1.17-.23-1.76h0a8.48,8.48,0,0,0-.44-2.73h0a7.06,7.06,0,0,0-.46-2,6,6,0,0,0-.5-2h0a.18.18,0,0,0-.06-.17h0c-.26-.92-.52-1.84-.77-2.75a1.75,1.75,0,0,0-.38-1.12.58.58,0,0,0-.17-.55,13.08,13.08,0,0,0-1.41-3.83.46.46,0,0,0-.12-.28A38.49,38.49,0,0,0,42.06,141a4.77,4.77,0,0,0-.91-1.67h0a12.69,12.69,0,0,0-1.45-2.43h0c-.05-.19-.11-.38-.16-.58l-.23-.14h0c-.29-.46-.55-1-1.19-1a.66.66,0,0,0-.79.69h0a1.26,1.26,0,0,0,0,1.09,24.94,24.94,0,0,1-.15,4.32h0l-.15,1-.12.59-.25,1.23a2.11,2.11,0,0,0-.16,1.11h0l-.09,1.26h0l-.06.32a2.53,2.53,0,0,0-.05,1.44h0l.05.57a6.29,6.29,0,0,0-.05,2.12h0a5.33,5.33,0,0,0,.1,2.35h0v.41a1.11,1.11,0,0,0,0,.91h0c.1.36.21.72.32,1.08l-.07.06,0,.08a2.24,2.24,0,0,0,.14,1.61c.21.47-.06,1,.26,1.48a6,6,0,0,0,.59,2.17,1.74,1.74,0,0,0,.49,1.3l.66,1.82c.08.36.59.5.51.95h0a2.25,2.25,0,0,0,.62,1.45c.11.23.23.47.34.71l.27.43a4.1,4.1,0,0,0,.89,1.62h0a3.83,3.83,0,0,0,.84,1.3l.49.59a3.55,3.55,0,0,0,1,1.48l.51.55.34.38,2.91,3.2a2.73,2.73,0,0,1,.79,2,4.4,4.4,0,0,0,.16,1.87h0a5,5,0,0,0,.33,2.13h0c0,.17.07.33.1.5h0a19.06,19.06,0,0,0,.58,3.68,3.93,3.93,0,0,0,.18,1.6,1.05,1.05,0,0,0,.13.91,17.87,17.87,0,0,0,0,3.43,4.25,4.25,0,0,0,.22,2.15c-.37.89.22,1.76,0,2.64h0l-2-2.52-.76-.92h0a10.41,10.41,0,0,0-3.15-3.45,11.55,11.55,0,0,0-2.43-2.25,11.34,11.34,0,0,0-2.81-2.1.28.28,0,0,0-.17-.09,1.6,1.6,0,0,0-.86-.58,4.51,4.51,0,0,0-1.55-.95,1,1,0,0,0-.69-.42h0a8.84,8.84,0,0,0-2.16-1.22h0a1.47,1.47,0,0,0-.85-.47l-.7-.4-.48-.27h0a5.11,5.11,0,0,0-1.62-.92h0a.67.67,0,0,0-.55-.3h0a.13.13,0,0,0-.15-.09,2.6,2.6,0,0,0-1.22-.63,2.84,2.84,0,0,0-1.42-.82h0l-.9-.49a19.33,19.33,0,0,0-3.31-1.82h0a.86.86,0,0,0-.7-.39,3.14,3.14,0,0,0-1.39-.8,1.26,1.26,0,0,0-.89-.56,7.3,7.3,0,0,0-1.95-1.08h0c-.26-.2-.41-.58-.82-.56-.47-.26-.94-.52-1.4-.79h0c-1-.58-1.93-1.19-2.92-1.75-.62-.36-1.32-.76-1.92,0s-.11,1.41.48,2a2.54,2.54,0,0,0,.84,1.29l.86.94.84.95.3.36h0A21.46,21.46,0,0,0,16.35,180h0L19,183.78a3.38,3.38,0,0,0,.85,1.29h0l.33.39a13.64,13.64,0,0,0,3.61,4h0a.17.17,0,0,0,.14.13l.18.18a3.13,3.13,0,0,0,1.38,1.14,33,33,0,0,0,7.37,4.76,2.35,2.35,0,0,0,1.22.58,14.67,14.67,0,0,0,3.46,1.48l.6.25a.47.47,0,0,0,.51.23,1.83,1.83,0,0,0,1.05.39l2.17.93h0l1.21.5a16.74,16.74,0,0,0,3,1.45h0a3.66,3.66,0,0,0,2.12.83,3,3,0,0,0,2.12,1.11,2.35,2.35,0,0,1,1,.79c.39.57,0,1.24.26,1.83a1.24,1.24,0,0,0,0,1h0c0,.2.08.4.11.6a6.26,6.26,0,0,0,.2,2.51h0a5.93,5.93,0,0,0,.32,2.17h0l.15.6a1,1,0,0,0,.15.85h0l.8,3h0l.09.33a4.26,4.26,0,0,0,.44,1.64l.14.53a1.71,1.71,0,0,0,.35,1.09h0l.27.38a10.63,10.63,0,0,0,.65,3.62l.83,3.66c.25,1.78.15,3.62,1,5.28v.38h0c-.2.54.41,1.05.08,1.61l.34.37c.54.16,1.08.29,1.33-.43a.89.89,0,0,0,.06-1.14c-.07-.29-.15-.58-.22-.87-.55-1.54-.46-3.18-.79-4.76-.09-.48-.17-1-.26-1.46l-.12-.56a3.12,3.12,0,0,0-.34-1.44h0c-.06-.49.05-1-.32-1.43-.11-.48-.21-1-.32-1.45-.28-.53,0-1.19-.39-1.68a3.51,3.51,0,0,0-.36-1.42c-.2-.73-.39-1.46-.59-2.19a4.58,4.58,0,0,0-.39-1.62,1.42,1.42,0,0,0,.51-.89.62.62,0,0,0,.28-.57h0a1.13,1.13,0,0,0,.49-.85,7.09,7.09,0,0,0,.95-2,40.8,40.8,0,0,1,2.57-4.38h0a2.88,2.88,0,0,0,.69-1.21h0a.2.2,0,0,0,.12-.16,11.49,11.49,0,0,0,1.43-2.28h0a5.21,5.21,0,0,0,1-1.52,1.86,1.86,0,0,0,.59-.92h0a.21.21,0,0,0,.11-.17.94.94,0,0,0,.41-.68,5.76,5.76,0,0,0,1-1.6A4.46,4.46,0,0,0,66,196.5l2.12-3.33a.94.94,0,0,0,.4-.7l.16-.21a2.56,2.56,0,0,0,.64-1.19h0a.92.92,0,0,0,.41-.71h0l.53-.88L71.57,187a.19.19,0,0,0,.08-.16,5,5,0,0,0,.85-1.74h0c.12-.24.24-.48.35-.72a1.62,1.62,0,0,0,.45-1h0A17.55,17.55,0,0,0,74.77,180l.19-.49h0a2,2,0,0,0,.42-1.05h0l.6-1.65h0c.53-.47.35-1.23.73-1.76l.09-.31h0a6.61,6.61,0,0,0,.65-2h0a1.79,1.79,0,0,0,.37-1,1.19,1.19,0,0,0,.27-.92h0a6,6,0,0,0,.6-1.92l.21-.91h0c.12-.36.23-.72.35-1.07h0l.46-1.41a20.93,20.93,0,0,0,1.16-4.11h0a4.33,4.33,0,0,0,.47-1.73h0c0-.19.11-.38.17-.57h0a3.17,3.17,0,0,0,.39-1.41,16.77,16.77,0,0,0,.82-4.09c.07-.66.07-1.33-.73-1.55a1.22,1.22,0,0,0-1.51.86,56.15,56.15,0,0,1-3.6,6.54h0l-.08.06,0,.1a18.52,18.52,0,0,0-2,2.76l-.33.37a1.41,1.41,0,0,0-.63.88h0l-.31.36a.9.9,0,0,0-.46.68h0a2.19,2.19,0,0,0-.74,1,1.32,1.32,0,0,0-.62.84h0c-.24.4-.92.59-.61,1.26l-.31.38a4.05,4.05,0,0,0-1.5,1.73,9.22,9.22,0,0,0-1.59,2.42,5.68,5.68,0,0,0-1.24,2.12.2.2,0,0,0-.11.18,7,7,0,0,0-1,1.91A12.51,12.51,0,0,0,63.68,180a9.62,9.62,0,0,0-1.06,3c-.12.16-.32.3-.2.55a.8.8,0,0,0-.13.19,1.45,1.45,0,0,0-.46,1c-.34,1.06-1,2-.89,3.21a.83.83,0,0,0-.13.18,1,1,0,0,0-.36.91h0a4.62,4.62,0,0,0-.55,1.56c-.32.3-.21.72-.33,1.08a4,4,0,0,0-.72,1.89h0c-.5.72-.19,1.63-.57,2.37h0c-.45.52-.14,1.22-.43,1.77-.05.22-.1.44-.16.66-.1.49-.21,1-.32,1.49a4.6,4.6,0,0,0-.47,1.75,66,66,0,0,1-2,7.29c-.26.69-.53,1.39-.79,2.09-.38-.47-.21-1.08-.42-1.6l-.24-2.56,0-.34a1.47,1.47,0,0,0-.07-1h0l0-.3a15.05,15.05,0,0,0-.72-4.21,3.64,3.64,0,0,0-.27-1.46c-.07-.48,0-1-.27-1.42h0c-.14-1.27-.27-2.55-.41-3.82h0c0-.42-.07-.84-.1-1.25a8.27,8.27,0,0,0,0-2.33c0-.24,0-.48,0-.72a1.52,1.52,0,0,0,0-1.09,21.77,21.77,0,0,0-.63-4.17h0l-.25-2.56c0-.35.05-.7.08-1A2.46,2.46,0,0,0,51,180h0c.12-.17.28-.34.18-.58l.31-1.1c.12-.39.23-.78.35-1.18l.42-1.1h0a5.05,5.05,0,0,0,.89-1.56.61.61,0,0,0,.31-.54h0A1.33,1.33,0,0,0,54,173a6,6,0,0,0,1-1.94,3.77,3.77,0,0,0,.77-1.4c.27-.25.59-.47.63-.89h0a8.27,8.27,0,0,0,1.3-1.91,15.91,15.91,0,0,0,2-3.12h0a12.54,12.54,0,0,0,1.72-2.61h0a12.15,12.15,0,0,0,1.75-3,3.28,3.28,0,0,0,.79-1.42h0a38.92,38.92,0,0,0,2.15-4,12,12,0,0,0,1.29-2.79,1,1,0,0,0,.33-.73h0c.45-1.05,1.32-1.94,1.22-3.19a1.11,1.11,0,0,0,.55-.9l.2-.17h0a1.72,1.72,0,0,0,.53-1h0a8.14,8.14,0,0,0,1-2.3h0a28.2,28.2,0,0,0,1.61-3.85h0l.3-.75c.31-.14.36-.42.4-.71a1.91,1.91,0,0,0,.51-1.08h0l.69-1.38a2,2,0,0,0,.52-1.07h0a.12.12,0,0,0,.08-.15c1.42-2.93,2.93-5.81,4.59-8.61a1,1,0,0,0,.43-.71.2.2,0,0,0,.12-.16c.51-.82,1-1.64,1.55-2.46a3.63,3.63,0,0,0,.9-1.43h0a7.2,7.2,0,0,0,1.45-2.42,24.17,24.17,0,0,0,2-3.14.88.88,0,0,0,.42-.68,1.48,1.48,0,0,0,.64-.91h0a.14.14,0,0,0,.12-.14,21.44,21.44,0,0,0,2.3-3.14,1,1,0,0,0,.46-.66c.42-.47,1-.82,1.19-1.47h0a42.06,42.06,0,0,0,2.92-3h0c.33-.29.72-.53.81-1h0l.53-.53.19-.18a2.71,2.71,0,0,0,1-1.19l.91-.89h0a3.72,3.72,0,0,0,1.61-3.15ZM39,158.45h0Zm4.09-2.69h0v0Zm.67,6.81.08.08h0l-.06,0A.59.59,0,0,1,43.74,162.57Zm.83,3.18h0ZM39,158.44h0Zm2.26-13.38h0s0,0,0,0Zm0-2-.05,0s0,0,0-.06ZM47.48,172h0v0h0S47.5,172,47.48,172Zm.12-1.76Zm-2.92-18h0v0S44.68,152.23,44.68,152.24Zm1.46,7.94.08.16A.21.21,0,0,1,46.14,160.18Zm-6.76-21.35h0l0,0Zm8.41,36.62.05.1h-.06A.28.28,0,0,1,47.79,175.45ZM70,116.08Zm-7.51,25.1,0,0-.07,0A.15.15,0,0,1,62.48,141.18ZM75,120.53h0l0,0h0S75,120.54,75,120.53Zm-7.19,13.68h0l0,.06a.25.25,0,0,0,0,.07A.11.11,0,0,1,67.84,134.21Zm.42-.29Zm8.23-13.65Zm.5-1.8v0s.07,0,.11,0A.39.39,0,0,0,77,118.47Zm-7,5.63h0Zm-.38,4.12h0l0,0v-.05Zm10.48-15.37v0h0A0,0,0,0,0,80.09,112.85ZM68.54,128.17h0Zm-6.39,24.05h0l0,0S62.16,152.21,62.15,152.22Zm17.46-40.61h0ZM67.44,128.47h0s0,0,0,0Zm-2.29-1Zm-1.58,7ZM40.08,166.05l.05.06-.07,0Zm13.4,46.56v0h0l0,0ZM68.67,185a.11.11,0,0,1,0,.05h0Zm.45-5.15.07.07-.08.06A.62.62,0,0,1,69.12,179.89ZM74.41,171h0v0h0Zm-5.83,8.73h0Zm4.29-7a.11.11,0,0,0,0-.05l.1,0-.11.08Zm-1.11-.05h0s0,0,0,0Zm-4.34,5.27h0ZM61.66,192.5Zm-1,2.19-.25,0a2.73,2.73,0,0,0,.25-.2A1.92,1.92,0,0,0,60.63,194.69ZM66,185.85v0Zm7.69-6.65v0l0,0,0,0ZM52.21,206.88h0Zm-17.3-20,0,0h0Zm-5.5,1.51,0,0h0a.28.28,0,0,1-.15,0Zm14.77,7.9,0,0h0Zm-5.3-5.07.15.06s0,0,0,.05v0Zm-15.5-7.95Zm-.6,1.22h0Zm24.14,12.61.12,0a.15.15,0,0,1,0,.07S47,197.14,46.92,197.11Zm-13.1-9.91h0ZM31,185.25v0ZM28,181.51Zm11.77,14.41,0,.05,0,0Zm8.1-.48h0l0,0h0Zm3.73,4.86h0Zm23.6-67.42s.08,0,.1-.09A.12.12,0,0,1,75.16,132.88Z"/><polygon class="cls-2" points="47.52 172.01 47.52 172.01 47.52 172.01 47.52 172.01"/><polygon class="cls-2" points="47.52 172.01 47.52 172.01 47.52 172.01 47.52 172.01"/><path class="cls-2" d="M251.75,145.8c.05.37-.92,2.61-.87,3-.12.23,0,.41.11.59h0a2.48,2.48,0,0,0,.1,1.27c0,.35,0,.7-.05,1l-.57,2.51h0a22,22,0,0,0-1.14,4,1.46,1.46,0,0,0-.15,1.08c0,.24-.07.48-.1.72a8.23,8.23,0,0,0-.3,2.31c-.09.41-.17.81-.26,1.22h0l-.87,3.75h0c-.37.39-.32.91-.45,1.37a3.53,3.53,0,0,0-.45,1.42,15,15,0,0,0-1.23,4.09l-.06.29h0a1.47,1.47,0,0,0-.19.94l-.06.33c-.18.84-.37,1.68-.56,2.51-.27.49-.18,1.12-.61,1.54-.18-.73-.35-1.45-.53-2.18a67.34,67.34,0,0,1-1.07-7.48,4.37,4.37,0,0,0-.25-1.79c-.05-.51-.09-1-.13-1.52,0-.22-.05-.45-.08-.67-.22-.58.18-1.24-.21-1.81h0c-.28-.79.14-1.65-.26-2.42h0a4.07,4.07,0,0,0-.48-2c-.08-.37.08-.78-.2-1.11a4.44,4.44,0,0,0-.36-1.61h0a1,1,0,0,0-.24-1,.64.64,0,0,0-.11-.2c.28-1.16-.27-2.2-.48-3.3a1.49,1.49,0,0,0-.33-1.09.75.75,0,0,0-.1-.2c.15-.23,0-.39-.14-.57a9.23,9.23,0,0,0-.68-3.1,12.42,12.42,0,0,0-1.19-3.7,7,7,0,0,0-.76-2,.25.25,0,0,0-.09-.2,5.88,5.88,0,0,0-1-2.26,9.63,9.63,0,0,0-1.28-2.59,4.07,4.07,0,0,0-1.28-1.9l-.26-.42c.39-.63-.26-.9-.45-1.32h0a1.34,1.34,0,0,0-.51-.92,2.28,2.28,0,0,0-.6-1.11h0a1,1,0,0,0-.38-.74l-.26-.38h0a1.38,1.38,0,0,0-.52-1l-.28-.41a18.34,18.34,0,0,0-1.62-3l0-.1-.08-.07h0a55.94,55.94,0,0,1-2.75-6.94,1.23,1.23,0,0,0-1.39-1c-.83.12-.9.79-.92,1.44a16.24,16.24,0,0,0,.31,4.17,3,3,0,0,0,.21,1.45h0c0,.19.07.39.1.58h0a4.14,4.14,0,0,0,.25,1.78h0a20.7,20.7,0,0,0,.64,4.22l.28,1.45h0c.07.37.15.74.22,1.11h0l.09.93a6.13,6.13,0,0,0,.36,2h0a1.2,1.2,0,0,0,.15.94,1.77,1.77,0,0,0,.25,1.07h0A6.59,6.59,0,0,0,226,141h0c0,.11,0,.21.05.32.31.57,0,1.31.51,1.84h0l.39,1.7h0a2,2,0,0,0,.29,1.1h0l.13.51a17.78,17.78,0,0,0,1,3.55h0a1.71,1.71,0,0,0,.32,1.09c.08.25.17.5.26.75h0a5.22,5.22,0,0,0,.63,1.84.17.17,0,0,0,.06.16c.33.88.67,1.75,1,2.62l.42.93h0a.92.92,0,0,0,.32.76h0a2.39,2.39,0,0,0,.49,1.26l.13.23a.9.9,0,0,0,.31.74l1.69,3.57a4.37,4.37,0,0,0,.73,1.65,5.74,5.74,0,0,0,.82,1.71,1,1,0,0,0,.33.74.17.17,0,0,0,.09.18h0a1.75,1.75,0,0,0,.48,1,5.22,5.22,0,0,0,.78,1.63h0a11.07,11.07,0,0,0,1.14,2.44.2.2,0,0,0,.09.18h0a3,3,0,0,0,.54,1.28h0a39.33,39.33,0,0,1,2,4.67,7,7,0,0,0,.7,2.08,1.1,1.1,0,0,0,.38.9h0a.58.58,0,0,0,.21.6,1.38,1.38,0,0,0,.39.95,4.44,4.44,0,0,0-.59,1.55l-.85,2.11a3.55,3.55,0,0,0-.54,1.37c-.48.43-.25,1.12-.59,1.61l-.5,1.4c-.42.37-.38.9-.49,1.38h0a3,3,0,0,0-.52,1.39c-.06.18-.12.36-.19.54-.14.47-.29,1-.44,1.42-.52,1.52-.63,3.16-1.37,4.62l-.33.84a.88.88,0,0,0-.08,1.13c.16.75.71.69,1.27.6l.38-.33c-.26-.59.42-1,.29-1.59h0l0-.38c1.09-1.53,1.21-3.37,1.68-5.11L241.2,193a10.5,10.5,0,0,0,1.09-3.5l.32-.35h0a1.74,1.74,0,0,0,.48-1l.2-.52a4.09,4.09,0,0,0,.65-1.57l.12-.31h0l1.17-2.87h0c.15-.26.35-.5.25-.83l.23-.57h0a6,6,0,0,0,.59-2.12h0a6.12,6.12,0,0,0,.5-2.46l.18-.58h0a1.19,1.19,0,0,0,.12-1c.31-.56,0-1.28.49-1.8a2.37,2.37,0,0,1,1.13-.64A3,3,0,0,0,251,172a3.78,3.78,0,0,0,2.2-.56h0a17.45,17.45,0,0,0,3.15-1.07l1.26-.35h0l2.26-.65a1.9,1.9,0,0,0,1.09-.26.47.47,0,0,0,.54-.17l.63-.17a15.21,15.21,0,0,0,3.61-1,2.47,2.47,0,0,0,1.29-.42,33.41,33.41,0,0,0,7.89-3.81,3.24,3.24,0,0,0,1.52-1l.2-.15a.17.17,0,0,0,.15-.11h0a13.94,13.94,0,0,0,4.09-3.55l.37-.36h0a3.32,3.32,0,0,0,1-1.17l3.13-3.38h0c1-1,2.35-1.76,3.19-3h0l.34-.32c.32-.28.64-.56.95-.85l1-.82a2.55,2.55,0,0,0,1-1.18c.66-.47,1.24-1,.71-1.88s-1.23-.53-1.9-.25c-1.05.44-2.07.92-3.11,1.38h0l-1.49.61c-.41-.08-.6.28-.89.45h0a7.36,7.36,0,0,0-2.06.83,1.29,1.29,0,0,0-.95.45,3.09,3.09,0,0,0-1.48.62.88.88,0,0,0-.75.29h0a20.43,20.43,0,0,0-3.51,1.41l-.94.37h0a2.9,2.9,0,0,0-1.52.63,2.6,2.6,0,0,0-1.28.48.14.14,0,0,0-.16.07h0a.66.66,0,0,0-.59.24h0a4.88,4.88,0,0,0-1.72.7h0l-.51.22-.74.3a1.45,1.45,0,0,0-.91.37h0a8.19,8.19,0,0,0-2.29.94h0a1,1,0,0,0-.74.33,4.41,4.41,0,0,0-1.65.75,1.59,1.59,0,0,0-.92.46.3.3,0,0,0-.18.08,10.86,10.86,0,0,0-3.05,1.74,11.42,11.42,0,0,0-2.7,1.92,10.48,10.48,0,0,0-3.55,3h0l-.87.82-2.29,2.26h0c-.06-.9.63-1.69.37-2.62a4.14,4.14,0,0,0,.49-2.1,17.75,17.75,0,0,0,.41-3.41,1,1,0,0,0,.24-.88,3.86,3.86,0,0,0,.38-1.57,18.55,18.55,0,0,0,1-3.58h0c.06-.16.11-.32.16-.48h0a4.89,4.89,0,0,0,.59-2.08h0a4.47,4.47,0,0,0,.4-1.83,2.7,2.7,0,0,1,1-1.92l3.28-2.82.39-.33.58-.49a3.52,3.52,0,0,0,1.2-1.34l.56-.53a3.88,3.88,0,0,0,1-1.18h0a3.93,3.93,0,0,0,1.08-1.5l.33-.39.42-.67a2.22,2.22,0,0,0,.8-1.36h0c0-.46.49-.53.62-.88l.88-1.72a1.69,1.69,0,0,0,.65-1.22,6.14,6.14,0,0,0,.85-2.09c.37-.41.17-1,.45-1.43a2.27,2.27,0,0,0,.33-1.58l0-.09-.06-.06.45-1h0a1.12,1.12,0,0,0,.12-.91l.05-.4h0a5.27,5.27,0,0,0,.4-2.32h0a6.24,6.24,0,0,0,.2-2.11l.13-.56h0a2.58,2.58,0,0,0,.13-1.43l0-.33h0c0-.42.05-.84.07-1.26h0a1.94,1.94,0,0,0,0-1.12l-.09-1.26c0-.19,0-.39-.05-.59s0-.69,0-1h0a24.93,24.93,0,0,1,.38-4.31,1.22,1.22,0,0,0,.1-1.08h0a.65.65,0,0,0-.7-.78c-.64-.05-1,.41-1.3.83h0l-.25.11c-.07.19-.15.37-.23.56h0a12.9,12.9,0,0,0-1.74,2.22h0a4.71,4.71,0,0,0-1.1,1.55,36.44,36.44,0,0,0-3.06,4.54.41.41,0,0,0-.15.26,13.05,13.05,0,0,0-1.88,3.63.58.58,0,0,0-.24.52,1.69,1.69,0,0,0-.51,1.06l-1.11,2.64h0a.17.17,0,0,0-.08.16h0a5.81,5.81,0,0,0-.74,1.93,6.47,6.47,0,0,0-.71,1.94h0a8.57,8.57,0,0,0-.77,2.65h0l-.45,1.73c-.26,1.13-.51,2.25-.77,3.38l-.07.37a11.67,11.67,0,0,0-.61,2.8h0c0,.18-.09.37-.14.56a9.81,9.81,0,0,0-.66,2.83h0c-.11.23-.22.47-.32.7m13.15-14Zm-3.73-3.16v0h0Zm-1.53,6.79-.06-.07h0a.31.31,0,0,0,.09-.07Zm-1.18,2.93h0v0Zm6.45-6.56h0ZM265,116a0,0,0,0,1,0,0h0Zm.35-2a.13.13,0,0,1,0,.06s0,0,0,0Zm-9.9,27.93h0s0,0,0,0h0Zm.14-1.79Zm5.14-17.49v0h0Zm-2.54,7.87.1-.15A.22.22,0,0,1,258.16,130.52ZM267.62,110l0,0h0Zm-12.9,35.4h-.05l.06-.09S254.72,145.38,254.72,145.41Zm8.84-8.45-.07,0s0,0,.05-.05ZM244.5,181.49l0,0h0v0ZM232.83,152.3h0s0,0,0-.05Zm.18-5.09-.07-.07.07-.06Zm-4.16-9.67h0v0h0Zm4.72,9.4h0Zm-3.39-7.47h0a.73.73,0,0,0-.1-.09l.09,0s0,0,0,.06Zm1.06.12v0h0Zm3.71,5.73h0Zm3.9,15.2Zm.78,2.06.23.23h-.26A2,2,0,0,0,239.63,162.58Zm-4.2-9.21v0Zm-6.84-7.54a.05.05,0,0,1,0,0l0,0v.05ZM246.43,176s0,0,0,0Zm19.65-17.67h0l0,0Zm5.39,2.23a.27.27,0,0,1-.14,0h0l0,0Zm-15.75,6h0l0,0S255.73,166.48,255.72,166.49Zm5.76-4.28v0s0,0,0,0l.15,0A.8.8,0,0,0,261.48,162.21ZM278,156.1h0Zm.45,1.28v0h0ZM252.79,167s0,0,0-.07h.13A.52.52,0,0,0,252.79,167Zm14.34-8.29h0Zm3-1.58h0Zm3.51-3.35h0Zm-13.45,12.89h0l0,0Zm-8-1.55,0,0h0Zm-4.28,4.39h0Z"/><polygon class="cls-2" points="255.42 141.93 255.42 141.93 255.42 141.93 255.42 141.93"/><polygon class="cls-2" points="255.42 141.93 255.42 141.93 255.42 141.93 255.42 141.93"/><path class="cls-3" d="M302.57,126.21a7.74,7.74,0,0,0-1.19,1.24.4.4,0,0,0-.19.25h0a9.32,9.32,0,0,0-1.28,1.84,1.12,1.12,0,0,0-.29.46,2.46,2.46,0,0,0-.25.45h0s0,0,0,0h0a.32.32,0,0,0-.11.17s0,0,0,0a2.79,2.79,0,0,0-.35.74l-.05.14h0a2.11,2.11,0,0,0-.27.8l0,.1h0a1.45,1.45,0,0,0-.11.54.58.58,0,0,0,0,.32h0a3.45,3.45,0,0,0,.07,1.28c-.62.83-1.15,1.71-1.72,2.57a.12.12,0,0,1,0-.05,6.7,6.7,0,0,0-1.29-3.75,2.63,2.63,0,0,0-1.66-1.1,1,1,0,0,0-1.3,1.2,4.41,4.41,0,0,0,1.87,3h0l.15.14h0c.34.35.67.72,1,1.06.19.19.3.46.58.56h0c.11.11,0,.18,0,.26-.26.49-.53,1-.77,1.47-.63,1.28-1.35,2.52-2.07,3.75l-.21-2h0v-.69a2.23,2.23,0,0,0-.19-1.08h0a4.18,4.18,0,0,0-.35-.91h0A4.22,4.22,0,0,0,292,138l-.57-1.14a.08.08,0,0,0,0,0h0c-.05-.13-.09-.26-.14-.38-.16-.39-.33-.77-.5-1.15h0a3.5,3.5,0,0,0-.89-1.62,1,1,0,0,0-1.8.25,6.23,6.23,0,0,0-.09,4.9l.07.09a2.43,2.43,0,0,0,.32.67,12.73,12.73,0,0,0,1.36,2.31h0a.46.46,0,0,0,0,.09,1.16,1.16,0,0,0,.28.34h0a3,3,0,0,0,.93,1h0a3.16,3.16,0,0,0,1.43.62h0l.54.21h0c.09.13,0,.22-.06.31l-2.34,4c-.08.13-.15.29-.35.27a.64.64,0,0,0,0-.36,2.23,2.23,0,0,0-.14-.81l-.07-.27h0a.08.08,0,0,0,0-.05h0c-.07-.25-.13-.51-.22-.75a7.36,7.36,0,0,0-1.05-2.23.94.94,0,0,0-.3-.43h0a.94.94,0,0,0,0-.09,4.39,4.39,0,0,0-.34-.5l-.05-.06h0l-.35-.6a1.22,1.22,0,0,0-.26-.38c-.06-.3-.37-.43-.46-.71h0a21.46,21.46,0,0,0-1.95-2.52c-.17-.17-.36-.31-.59-.22a.57.57,0,0,0-.41.58,9.2,9.2,0,0,0,.52,3.32c0,.09,0,.15.08.22h0a2.77,2.77,0,0,0,.37.91l.55,1.27a4.61,4.61,0,0,0,.65,1.22,5.21,5.21,0,0,0,1.14,1.42l.47.49c.09.11.17.23.32.25h0a4.27,4.27,0,0,0,1.52,1c.14,0,.41,0,.28.29h0c-.58.92-1.06,1.9-1.6,2.84a13.87,13.87,0,0,1-1,1.74c-.08-.12,0-.29-.15-.38s.06-.18,0-.27h0a10.44,10.44,0,0,0-.5-1.62h0a.56.56,0,0,0-.14-.38,2.2,2.2,0,0,0-.35-.8h0a9.77,9.77,0,0,0-1.59-2.34h0a.46.46,0,0,0-.15-.25,13.17,13.17,0,0,0-1.68-1.66,14.31,14.31,0,0,0-1.34-1.13c-.38-.35-.74-.72-1.13-1.05a11.1,11.1,0,0,0-1.24-1c-.24-.14-.48-.33-.77-.17s-.21.47-.18.75a6.85,6.85,0,0,0,.48,1.7,13.45,13.45,0,0,0,1.15,2.64v0a3.28,3.28,0,0,0,.35.67l0,0,0,0a.93.93,0,0,0,.26.5,3.33,3.33,0,0,0,.62,1l0,0,0,0c0,.15.12.23.21.33h0a11.53,11.53,0,0,0,1.92,2l.1.11c.64.61,1.28,1.21,2,1.76a3.2,3.2,0,0,0,.88.72.77.77,0,0,0,.32.22h0c.14.16,0,.28-.07.4-.76,1.37-1.52,2.74-2.31,4.09a10.29,10.29,0,0,1-1,1.61h-.1v-.11a.61.61,0,0,0,0-.4h0c0-.24-.09-.47,0-.71h0a.7.7,0,0,0,0-.43h0V160a4.28,4.28,0,0,0-.35-2,.57.57,0,0,0-.16-.39,19.11,19.11,0,0,0-2.94-4.88,13.16,13.16,0,0,0-2-2.41h0c-.08-.1-.15-.21-.3-.23h0a.55.55,0,0,0-.65-.17c-.25.08-.29.32-.31.55a1.51,1.51,0,0,0,0,.56.67.67,0,0,0,.06.44h0c.2.94.4,1.88.61,2.82a10.94,10.94,0,0,0,.5,1.95,9.06,9.06,0,0,0,.9,2.37,22.38,22.38,0,0,0,1.19,2.08c0,.13.11.18.19.26a9.22,9.22,0,0,0,2.44,2.26h0c.14.11.11.23,0,.36-.88,1.34-1.69,2.73-2.63,4,0,.06-.09.16-.21.11v-.1h0a8.09,8.09,0,0,0-.3-2.19l0-.16h0a13.75,13.75,0,0,0-2.21-4.65.2.2,0,0,0-.06-.11,7.16,7.16,0,0,0-1.08-1.43,3.14,3.14,0,0,0-1-1,.3.3,0,0,0-.14-.1,3.5,3.5,0,0,0-.73-.53,5.8,5.8,0,0,0-1.94-1,1,1,0,0,0-1.36,1,.69.69,0,0,0,0,.49h0a5.42,5.42,0,0,0,.27,1.6l.07.27h0a14.94,14.94,0,0,0,1,2.69h0a6.65,6.65,0,0,0,2.17,2.75h0a2.24,2.24,0,0,0,.32.3l1.83,1h0a10.7,10.7,0,0,1,1.71,1.72c.25.31.71.56.54,1.09-1,1.3-1.95,2.61-3,3.89a22.49,22.49,0,0,1-1.63,2,6.11,6.11,0,0,0-.09-.86,5,5,0,0,0-.16-1.5.82.82,0,0,0-.14-.48c0-.15,0-.3-.09-.43a.15.15,0,0,0,0-.21l-.05-.27h0a8.09,8.09,0,0,0-1.34-3.08h0a5.91,5.91,0,0,0-1-1.36h0a3.73,3.73,0,0,0-1-1.06.45.45,0,0,0-.15-.11l-.1-.1h0a.69.69,0,0,0-.36-.29c-.12-.1-.2-.25-.38-.28h0a3.5,3.5,0,0,0-1-.66c-.56-.26-.93-.08-1.16.5a.54.54,0,0,0-.1.33h0a7.23,7.23,0,0,0-.1,2,.34.34,0,0,0,0,.26h0a4.19,4.19,0,0,0,.18,1.31h0a7.24,7.24,0,0,0,.76,2.3,8.1,8.1,0,0,0,1.42,1.92,4.28,4.28,0,0,0,1,.89,6.53,6.53,0,0,0,1.2.82l.17.15h0c.27.19.46.49.77.64h0a1.68,1.68,0,0,0,.48.36l.34.28h0c-.79,1-1.58,2-2.38,2.95s-1.66,2-2.5,3c-.07.09-.13.22-.29.2h0l.21-2.28V180a2.32,2.32,0,0,0,0-1.17v-.22h0a1.46,1.46,0,0,0,0-.69,5.77,5.77,0,0,0-1-2.9h0l-.13-.17h0c0-.13-.09-.2-.17-.28a.05.05,0,0,0,0-.05h0a12.5,12.5,0,0,0-1.54-2.28h0a13.59,13.59,0,0,0-2-2.3.71.71,0,0,0-1.07.21,2.75,2.75,0,0,0-.53,1.5h0a.89.89,0,0,0,0,.43h0a7.07,7.07,0,0,0,.72,3.16.72.72,0,0,0,.16.38h0a16.72,16.72,0,0,0,1.18,2.21h0a5,5,0,0,0,.69,1.21c.05.22.23.34.36.5h0c0,.14.13.22.22.31h0a17.12,17.12,0,0,1,1.59,2.45.05.05,0,0,0,0,.05c.13.35.17.75.53,1h0a4.06,4.06,0,0,1-.85,1.08c-1.16,1.33-2.35,2.64-3.53,4-.1.12-.19.28-.38.28a4.43,4.43,0,0,0,.13-1.26v-.13h0a9.37,9.37,0,0,0-.05-1.91h0l0-.38a2.07,2.07,0,0,0-.08-.65h0a16.09,16.09,0,0,0-.32-2.4h0l0-.17,0-.1a5.14,5.14,0,0,0-.32-1.24h0a8.53,8.53,0,0,0-1.09-2.58.16.16,0,0,0,0-.07,1.93,1.93,0,0,0-.49-.7l-.09-.11a1.5,1.5,0,0,0-.64-.68l-.16-.14h0a.86.86,0,0,0-.42-.25h0l-.3-.12a.4.4,0,0,0-.32,0h0a.89.89,0,0,0-.52.85,39.2,39.2,0,0,0-.09,5.63,1.72,1.72,0,0,0,.06.64,1.17,1.17,0,0,0,.07.49h0a3.91,3.91,0,0,0,.38,1.29h0c0,.14.1.28.16.42a15.22,15.22,0,0,0,2.82,3.72l.15.17h0l.08.1h0a.53.53,0,0,0,.22.34c.18.14.15.25,0,.4-.31.32-.6.67-.93,1-1.13,1-2.09,2.23-3.21,3.27-.16.16-.23.42-.5.46h0l.05-.38a9.61,9.61,0,0,0,.27-1.59,7.32,7.32,0,0,0-.1-2,2.34,2.34,0,0,0-.19-.86,1.8,1.8,0,0,0-.18-.64,1,1,0,0,0-.19-.53h0a9.26,9.26,0,0,0-.85-1.9h0a10.79,10.79,0,0,0-1.05-1.52l-.09-.11h0l-.83-1.29a1.1,1.1,0,0,0-1.2-.52,1,1,0,0,0-.64,1,1.64,1.64,0,0,0,0,.22c.23,1.75.66,3.48.84,5.24a.84.84,0,0,0,0,.47v.32h0a4,4,0,0,0,.5,2.43h0c0,.12.09.18.16.25h0c0,.13.09.2.17.28a4.34,4.34,0,0,0,2,1.66l.36.28h0a.1.1,0,0,0,0,.05h0a2.69,2.69,0,0,1-.46.55c-1.4,1.35-2.82,2.69-4.3,4-.74.64-1.47,1.29-2.25,1.88-1.46,1.1-3,2.15-4.44,3.22-.17.12-.31.27-.16.47s.31.08.46,0c.67-.5,1.33-1,2-1.49a43.14,43.14,0,0,0,4.19-3.18c1.78-1.55,3.55-3.11,5.17-4.83a.28.28,0,0,1,.3-.09c.41-.09.58.17.78.47a2.52,2.52,0,0,0,1.19,1.09h0a.83.83,0,0,0,.32.2,1.18,1.18,0,0,0,.58.29h0a16.19,16.19,0,0,0,1.79.7h0a8.4,8.4,0,0,0,2.84.65,3.14,3.14,0,0,0,1.86-.31l.39-.37a1.2,1.2,0,0,0-.48-1.89,1.81,1.81,0,0,0-.37-.18l-2.38-.83h0a2.1,2.1,0,0,0-.75-.22h0l-1.1-.35a3.15,3.15,0,0,0-1.29-.21h-.2l-1.08,0h-.1A2.35,2.35,0,0,0,257,195c0-.07,0-.11.06-.16.9-1,1.8-1.91,2.72-2.85.69-.72,1.43-1.4,2.06-2.18a.05.05,0,0,0,0,0h0l.33.3c.1.09.17.22.32.24h0a1,1,0,0,0,.41.31,4.1,4.1,0,0,0,.84.59l0,0a2.56,2.56,0,0,0,.78.42c.07,0,.13.1.21.09h0l1,.4a2.48,2.48,0,0,0,.8.29h0l.25.07h0c.74.17,1.46.38,2.21.49a4,4,0,0,0,2-.11l0-.08a.41.41,0,0,1,0,.08.41.41,0,0,0,.31-.11,2.44,2.44,0,0,0,1.09-.7c.58-.57.54-1.1-.13-1.55a14.47,14.47,0,0,0-2.88-1.33h0l-.32-.1s0,0,0,0a.26.26,0,0,0-.21-.05h0a6.24,6.24,0,0,0-2-.5h0a1.9,1.9,0,0,0-.75,0h0a6.33,6.33,0,0,0-1.44.2,2.84,2.84,0,0,0-.86.2h0a3.34,3.34,0,0,0-.76.17h0l-.62.1h0c0-.14.11-.19.18-.26.57-.63,1.17-1.24,1.73-1.88,1.09-1.23,2.13-2.49,3.25-3.69a5.56,5.56,0,0,1,1.32.75l.11.1h0a1.19,1.19,0,0,0,.47.39,2.78,2.78,0,0,0,.89.63.05.05,0,0,0,.05,0h0a3.23,3.23,0,0,0,1.25.5h0a8,8,0,0,0,1.34.49,9.19,9.19,0,0,0,4.93-.26,2.61,2.61,0,0,0,1.37-1.12.69.69,0,0,0-.3-1.07,5.89,5.89,0,0,0-1.74-.55h0a.66.66,0,0,0-.33-.09,9,9,0,0,0-1.33-.43h0a11.07,11.07,0,0,0-3.82-.73h-.1l-.28,0h-.1a.59.59,0,0,0-.37,0h0a9.31,9.31,0,0,0-1.29.18,1.2,1.2,0,0,0-.53.08h0a2.05,2.05,0,0,0-.65.1c-.12-.16.05-.21.12-.3l2.68-3.23c.64-.78,1.27-1.57,1.91-2.36h0c.19.25.2.6.46.81h0l.52.55h0a3.5,3.5,0,0,0,.89.63l0,0h0a4,4,0,0,0,1.69.8l.1,0h0a5,5,0,0,0,1.43.3,5.45,5.45,0,0,0,1.71.06h0a8.66,8.66,0,0,0,2-.28,6.66,6.66,0,0,0,3.18-1.45c.17-.15.39-.3.29-.59-.16-.47-.61-.45-1-.59h0l-1.31-.61a.36.36,0,0,0,0,.09.18.18,0,0,1,0-.09,6.85,6.85,0,0,0-2.38-.88h0s-.09-.08-.16,0a3.84,3.84,0,0,0-1.07-.15h0a13,13,0,0,0-3.52,0h0a2,2,0,0,0-.64.1,4,4,0,0,0-1,.28c-.09,0-.14,0-.21.09l-.35,0c1-1.27,2-2.53,3-3.81.6-.77,1.13-1.59,1.76-2.33h0a3.38,3.38,0,0,0,.62.45l.17.14h0a1.64,1.64,0,0,0,.47.3.1.1,0,0,0,.05,0,2.59,2.59,0,0,0,.68.4,1,1,0,0,0,.52.25h0c.08.06.15.15.27.14a1.77,1.77,0,0,0,.69.3h0l.15.06h0a1.2,1.2,0,0,0,.48.17l.06,0h0a9.32,9.32,0,0,0,2.84.66h0a4.06,4.06,0,0,0,1.39,0h.33a.9.9,0,0,0,.43,0h0a7.7,7.7,0,0,0,2.91-.65c.21-.08.41-.18.45-.41s-.16-.42-.35-.53c-.73-.48-1.48-1-2.23-1.39a4.35,4.35,0,0,0-1.17-.5,7.7,7.7,0,0,0-2.58-.77h0a.45.45,0,0,0-.36-.07l-.06,0a.08.08,0,0,1,.06,0,1.19,1.19,0,0,0-.59-.07h0a1.82,1.82,0,0,0-.77,0,1.85,1.85,0,0,0-.74,0h0c-.16,0-.32,0-.48,0a19.43,19.43,0,0,0-2.52.66h0c-.07,0-.23.07-.22-.12,1.15-1.59,2.2-3.24,3.23-4.91.11-.16.19-.28.39-.14h0a5.72,5.72,0,0,0,1.2.94h0l.16.14a8.55,8.55,0,0,0,2,1.25,4.91,4.91,0,0,0,1.27.54.35.35,0,0,0,.26.07h0a5.28,5.28,0,0,0,2.13.17c.3,0,.6,0,.9,0a17.6,17.6,0,0,0,4.39-.6,4.15,4.15,0,0,0,1.71-.9.69.69,0,0,0,.12-1,1.44,1.44,0,0,0-.48-.47,12.32,12.32,0,0,0-3.9-1c-.81-.17-1.65-.15-2.45-.36h0l-.26-.07a1.41,1.41,0,0,0-.53-.12l-.1,0a2.77,2.77,0,0,0-1.07-.13h0a8.18,8.18,0,0,0-1.56.1,18.43,18.43,0,0,0-3.31.45h0c-.08-.19.08-.31.16-.44.67-1.18,1.38-2.34,2-3.55.44-.81.89-1.62,1.4-2.39h0c.37.23.54.68.95.86a3.88,3.88,0,0,0,1.1.63,1.73,1.73,0,0,0,.68.3h0l.22.09a.43.43,0,0,0,.26.07c.46.17.91.34,1.37.49a6.86,6.86,0,0,0,2.24.35h0a11.41,11.41,0,0,0,5.21-.67,2.28,2.28,0,0,0,.82-.45c.37-.32.34-.6-.09-.85a14.08,14.08,0,0,0-2-.89,16.36,16.36,0,0,0-3.74-1.09h0a.66.66,0,0,0-.36-.07h0a6.19,6.19,0,0,0-1.71-.24.89.89,0,0,0-.43,0h-.79a4.89,4.89,0,0,0-3,.69h0a.09.09,0,0,0-.06,0h-.2l.06-.35h0l1.92-3.44c.32-.57.61-1.17,1-1.72l.37.17h0a12.3,12.3,0,0,0,1.15.9h0l0,0,0,0a1.41,1.41,0,0,0,.46.3c.08.06.15.15.27.16a6.33,6.33,0,0,0,1.32.61,5.18,5.18,0,0,0,1.22.42.4.4,0,0,0,.26.05h0a2.65,2.65,0,0,0,1.12.08h.11a6.4,6.4,0,0,0,2.68-.23l.16,0h0a8.26,8.26,0,0,0,1.67-.65,4.3,4.3,0,0,0,2.19-1.56.89.89,0,0,0-.5-1.5,6.23,6.23,0,0,0-1.29-.23h0l-.95-.16h0a4.61,4.61,0,0,0-1.12-.2,1.19,1.19,0,0,0-.46-.06h-.44l-.84,0-.33,0h0a4.12,4.12,0,0,0-.86,0h-.2a.65.65,0,0,0-.39,0h-.09a6,6,0,0,0-1.46.24l-.15,0h0a3.55,3.55,0,0,0-1,.19.71.71,0,0,0-.41.09.7.7,0,0,0-.38.07h0a5.61,5.61,0,0,0-1.68.64h0c-.08-.13,0-.22.08-.31l2.73-4.67c.07-.11.12-.23.28-.2h0a1,1,0,0,0,.63.32,2.09,2.09,0,0,0,.79.32h0a.79.79,0,0,0,.43.11h0l.15,0a17,17,0,0,0,2.56.29h0l.17,0a8.43,8.43,0,0,0,3.12-.27,5.31,5.31,0,0,0,2-.85.42.42,0,0,0,.27-.16h0a3.27,3.27,0,0,0,1.19-1.23.76.76,0,0,0-.12-1,2.3,2.3,0,0,0-1.31-.69.88.88,0,0,0-.48-.09h0a.06.06,0,0,0-.05,0h0a1.21,1.21,0,0,0-.53,0,12.73,12.73,0,0,0-2.14,0h-.21a3.22,3.22,0,0,0-1,.14h0a13.15,13.15,0,0,0-1.95.46h0a1.3,1.3,0,0,0-.63.2h0a8.7,8.7,0,0,0-2.6,1.63h0a.91.91,0,0,1,.07-.25c1-1.6,1.72-3.34,2.68-4.95.06-.11.11-.23.24-.28h0s0,0,0,0h0a4.54,4.54,0,0,0,2,.71h0a3.92,3.92,0,0,0,1.6,0h0a4.83,4.83,0,0,0,3.33-1.66c.68-.77.55-1.35-.44-1.66l-.22,0h0l-.22-.07a5,5,0,0,0-3.44.63,3.78,3.78,0,0,0-1,.49h0a1.35,1.35,0,0,0-.56.31h0a3.15,3.15,0,0,0-.65.42s-.05-.11,0-.14c.62-.87,1-2,2.07-2.42a8.78,8.78,0,0,0,1.26-.82,11,11,0,0,0,2.87-3.39h0a5.14,5.14,0,0,0,.44-4l-.3-.34A1,1,0,0,0,302.57,126.21Zm-26.45,25.11a.25.25,0,0,1,0,.08A.19.19,0,0,1,276.12,151.32ZM258.8,195.58h0v0Zm-1.36.62h0v0Zm-3-10,.07-.09,0,.05Zm-1,7Zm2,1.39Zm1,.52h0Zm9.78-4.16h0Zm2.05-.69h0Zm-5.75-.48Zm-3.49-5.51h0v0Zm2.79.15h0Zm-2.38-7.59a.8.8,0,0,0-.23,0,.11.11,0,0,1,.06-.13Zm-.38-.07h-.09l.05,0A.08.08,0,0,1,259.14,176.69Zm.64,9.76h0Zm5.36-9.48h0Zm-.54-.79h0Zm-.87-3.8Zm3.76,11.1.05,0h0Zm2-10.65ZM267,168.05Zm-.13-2.68h0Zm1.07.46h0Zm3.5,5.71Zm.12-.85Zm-1.26,1.4Zm1.25-.76Zm-2.21,1.06h0Zm3.47,3v0Zm6.88,1.84a.08.08,0,0,1,0-.08l.12.06A.17.17,0,0,1,279.64,177.26Zm-3.5-1.46Zm-.53,0h0Zm-2.83-3.36h0v0Zm14.28-3.1,0,0v-.07Zm-12.88-7.67Zm4.59,5.84Zm-3-6.76h0Zm1,5.24h0Zm10.64-2.4Zm0,0v0h0Zm-5.09-2.94Zm-.22.35,0,0,0,0Zm-3.52-7.27h0Zm-1.15.15a.08.08,0,0,1,.12,0l.09.15Zm4.78-4.34Zm4,3.69h0Zm-4.45-4.27h0a0,0,0,0,0,0,0Zm-.29,1.64s0,0,0,0h0Zm4.14,4.24h.05l0,0Zm3.1,1.13v0h0Zm5.49,1.87h0ZM290.45,156v0Zm1.7.21v0h0v0Zm-.41.42h0Zm-3,1.07s0,.09.08.14h0C288.74,157.72,288.72,157.68,288.73,157.65Zm3.68-2.5h0Zm6.53-6.21h0Zm-3.13,3h0Zm.15.35v0S295.94,152.26,296,152.25Zm-3.3-3a.22.22,0,0,1,0,.11h0A.09.09,0,0,1,292.66,149.22Zm-5.36-5.65,0,.05h0Zm-.64-.16h0Zm2.89,5.37Zm.58.78a0,0,0,0,1,0,0h0Zm.06.3a.48.48,0,0,1,.23-.07.67.67,0,0,0,0,.2A.8.8,0,0,0,290.19,149.86Zm1.49,1.17.05.07A.15.15,0,0,1,291.68,151Zm9.31-8.56-.06-.08C301,142.39,301,142.42,301,142.47Zm-.47-.14h0s0,0,0,0h0s0,0,0,0l0,0ZM291.77,140h0Zm-.36-.39h0v0ZM292,142Zm-.14.89v0l0,0Zm-2.21-5h0Zm-.31-.55h0Zm5.28-2.45Zm5.83-2.42h0Z"/><polygon class="cls-3" points="266.95 168.05 266.95 168.05 266.95 168.05 266.95 168.05 266.95 168.05"/><path class="cls-3" d="M13,199.71a5.17,5.17,0,0,0,.87.69.25.25,0,0,0,.17.1h0a5.86,5.86,0,0,0,1.26.72.66.66,0,0,0,.31.16,1.46,1.46,0,0,0,.31.14h0a.17.17,0,0,0,.12.06h0a1.78,1.78,0,0,0,.5.19l.09,0h0a1.42,1.42,0,0,0,.53.13h.07a1,1,0,0,0,.35,0,.3.3,0,0,0,.21,0h0a2.3,2.3,0,0,0,.82-.12c.56.35,1.16.64,1.75.95l0,0a4.29,4.29,0,0,0-2.34,1,1.67,1.67,0,0,0-.6,1.13.65.65,0,0,0,.84.76,2.83,2.83,0,0,0,1.83-1.37h0l.08-.11h0c.2-.24.42-.47.62-.71s.28-.22.32-.41h0c.06-.08.12,0,.17,0l1,.41c.86.33,1.7.72,2.53,1.11l-1.25.25h0l-.38,0h-.06a1.48,1.48,0,0,0-.68.19h0a2.51,2.51,0,0,0-.57.28h0a2.31,2.31,0,0,0-.66.38l-.7.42,0,0h0l-.24.11-.71.39h0a2.33,2.33,0,0,0-1,.67.65.65,0,0,0,.27,1.14,4,4,0,0,0,3.15-.23l.06-.05a1.42,1.42,0,0,0,.41-.24,8.74,8.74,0,0,0,1.4-1h0l.06,0a.67.67,0,0,0,.2-.21h0a1.92,1.92,0,0,0,.59-.65h0a2,2,0,0,0,.32-1h0l.11-.35h0c.07-.07.14,0,.2,0L28,206.17c.09,0,.2.08.2.21a.37.37,0,0,0-.23,0,1.49,1.49,0,0,0-.51.14l-.17.06h0l0,0h0c-.16.06-.32.11-.47.18a4.7,4.7,0,0,0-1.37.8.62.62,0,0,0-.26.22h0l-.06,0a3.5,3.5,0,0,0-.3.24l0,0h0l-.36.26a.83.83,0,0,0-.23.19c-.19.05-.25.26-.43.33h0a14.2,14.2,0,0,0-1.5,1.4c-.1.12-.18.25-.11.4a.36.36,0,0,0,.39.22,5.7,5.7,0,0,0,2.11-.52.28.28,0,0,0,.14-.06h0a2.17,2.17,0,0,0,.56-.3l.79-.42a3.28,3.28,0,0,0,.74-.49,3.27,3.27,0,0,0,.84-.82L28,208a.34.34,0,0,0,.15-.22h0a2.64,2.64,0,0,0,.52-1c0-.09,0-.26.17-.2h0c.63.32,1.28.57,1.92.87a10.37,10.37,0,0,1,1.17.55c-.06.06-.18,0-.23.12s-.12,0-.17,0h0a7.42,7.42,0,0,0-1,.42h0a.38.38,0,0,0-.24.11,1.57,1.57,0,0,0-.49.27h0a6.32,6.32,0,0,0-1.41,1.16h0c-.07,0-.11.07-.16.11a8.39,8.39,0,0,0-1,1.18,8.6,8.6,0,0,0-.65.93c-.2.26-.42.51-.61.78a6.53,6.53,0,0,0-.59.86c-.08.16-.18.33-.06.5s.31.11.49.07a4.53,4.53,0,0,0,1.06-.4,9.2,9.2,0,0,0,1.63-.89h0a1.39,1.39,0,0,0,.41-.27h0v0a.64.64,0,0,0,.31-.2,2.15,2.15,0,0,0,.59-.45l0,0h0c.09,0,.14-.1.2-.16h0a8,8,0,0,0,1.19-1.35l.06-.07a16.92,16.92,0,0,0,1-1.38,1.82,1.82,0,0,0,.41-.61c.08-.05.09-.14.13-.21h0c.09-.1.18,0,.26,0,.92.41,1.84.81,2.76,1.24a6.23,6.23,0,0,1,1.09.56v.06H37a.46.46,0,0,0-.26,0h0c-.15,0-.3.09-.45.06h0a.53.53,0,0,0-.28,0h-.14a2.76,2.76,0,0,0-1.28.35.37.37,0,0,0-.24.12,12.37,12.37,0,0,0-3,2.18,7.64,7.64,0,0,0-1.43,1.41h0c-.06.06-.13.11-.14.21h0a.35.35,0,0,0-.07.42.34.34,0,0,0,.38.17.88.88,0,0,0,.36,0,.42.42,0,0,0,.27-.06h0l1.78-.56a6.55,6.55,0,0,0,1.22-.43,6.12,6.12,0,0,0,1.48-.71c.44-.27.85-.59,1.26-.89.08,0,.11-.09.15-.14a5.87,5.87,0,0,0,1.31-1.7h0a.16.16,0,0,1,.23,0c.92.49,1.86.93,2.75,1.46,0,0,.11.05.09.12H40.9a5.61,5.61,0,0,0-1.39.32l-.1,0h0a8.75,8.75,0,0,0-2.85,1.69.1.1,0,0,0-.07,0,4.53,4.53,0,0,0-.86.78,2,2,0,0,0-.58.71s0,.05-.06.09a2.14,2.14,0,0,0-.3.5,3.76,3.76,0,0,0-.51,1.3.64.64,0,0,0,.7.82.5.5,0,0,0,.32,0h0a4,4,0,0,0,1-.27l.16-.06h0a10,10,0,0,0,1.68-.8h0a4.28,4.28,0,0,0,1.64-1.55h0a1.18,1.18,0,0,0,.17-.22c.19-.41.36-.82.54-1.24h0a7.09,7.09,0,0,1,1-1.19c.19-.18.32-.49.68-.41.89.55,1.78,1.1,2.66,1.67.47.31,1,.58,1.39.93a3.23,3.23,0,0,0-.54.11,3.34,3.34,0,0,0-1,.19.5.5,0,0,0-.31.12c-.09,0-.19,0-.27.08a.09.09,0,0,0-.13,0l-.17,0h0a5.12,5.12,0,0,0-1.9,1h0a3.67,3.67,0,0,0-.82.7h0a2.37,2.37,0,0,0-.62.68.26.26,0,0,0-.07.1l-.05.07h0a.53.53,0,0,0-.17.25c-.06.08-.15.15-.16.26h0a2.36,2.36,0,0,0-.37.68c-.13.37,0,.6.39.71a.42.42,0,0,0,.22.05h0a4.9,4.9,0,0,0,1.27-.05.25.25,0,0,0,.17,0h0a3,3,0,0,0,.83-.19h0a4.67,4.67,0,0,0,1.43-.62,5.65,5.65,0,0,0,1.15-1,3,3,0,0,0,.52-.7,4.07,4.07,0,0,0,.45-.82l.09-.11h0a3.17,3.17,0,0,0,.36-.54h0a.93.93,0,0,0,.21-.33l.16-.23h0l2,1.35q1,.71,2.07,1.44c.06,0,.15.07.15.17H49.55a1.37,1.37,0,0,0-.75.05h-.15a1,1,0,0,0-.44.05,3.67,3.67,0,0,0-1.8.82h0l-.1.09h0a.27.27,0,0,0-.17.12l0,0h0a8.31,8.31,0,0,0-1.38,1.13h0a9,9,0,0,0-1.36,1.4.46.46,0,0,0,.2.68,1.71,1.71,0,0,0,1,.25h0a.53.53,0,0,0,.28,0h0a4.53,4.53,0,0,0,2-.64.77.77,0,0,0,.24-.12h0a12.1,12.1,0,0,0,1.35-.89h0a3.73,3.73,0,0,0,.73-.52c.14,0,.21-.16.3-.26h0c.09,0,.13-.09.19-.15h0a11.19,11.19,0,0,1,1.48-1.17l0,0c.22-.1.47-.16.6-.4h0a2.58,2.58,0,0,1,.74.49c.92.66,1.83,1.35,2.75,2,.08.06.18.11.2.23a2.82,2.82,0,0,0-.82,0h-.08a7.13,7.13,0,0,0-1.23.14h0l-.24,0a1.11,1.11,0,0,0-.41.08h0a11.31,11.31,0,0,0-1.53.35h0l-.1,0-.07,0a3.6,3.6,0,0,0-.78.27h0a5.33,5.33,0,0,0-1.59.86l-.05,0a1.61,1.61,0,0,0-.42.36l-.06.06a1,1,0,0,0-.4.46l-.08.11h0a.57.57,0,0,0-.14.28h0l0,.2a.23.23,0,0,0,0,.21h0a.58.58,0,0,0,.57.28,26,26,0,0,0,3.63-.27,1.1,1.1,0,0,0,.4-.08.67.67,0,0,0,.31-.07h0a2.37,2.37,0,0,0,.81-.32h0l.26-.12a10,10,0,0,0,2.22-2l.11-.11h0l.06-.06h0a.32.32,0,0,0,.2-.16c.08-.12.15-.11.25,0s.47.35.68.55c.73.66,1.56,1.21,2.29,1.86.11.1.28.13.33.3h-.25a6.07,6.07,0,0,0-1-.08,4.85,4.85,0,0,0-1.26.18,1.48,1.48,0,0,0-.54.17,1.19,1.19,0,0,0-.41.15.82.82,0,0,0-.33.15h0a5.91,5.91,0,0,0-1.17.67h0a6.6,6.6,0,0,0-.91.75l-.07.07h0l-.78.61a.72.72,0,0,0-.26.8.68.68,0,0,0,.71.35l.14,0c1.11-.25,2.19-.63,3.32-.84a.49.49,0,0,0,.29-.05l.21,0h0a2.61,2.61,0,0,0,1.53-.47h0c.08,0,.11-.06.16-.11h0c.08,0,.12-.07.16-.13a2.71,2.71,0,0,0,1-1.36l.16-.25h0l0,0v0h0v0a1.64,1.64,0,0,1,.37.26c.95.82,1.9,1.65,2.8,2.53.45.44.91.87,1.34,1.34.79.88,1.55,1.78,2.32,2.67.09.1.2.18.31.07s0-.2,0-.29c-.36-.41-.73-.8-1.07-1.22a30.29,30.29,0,0,0-2.29-2.51c-1.1-1.05-2.21-2.1-3.41-3a.18.18,0,0,1-.07-.19c-.08-.25.07-.38.25-.52a1.58,1.58,0,0,0,.63-.83h0a.46.46,0,0,0,.11-.22.79.79,0,0,0,.16-.39h0a9.54,9.54,0,0,0,.34-1.19h0a5.58,5.58,0,0,0,.26-1.86,2.11,2.11,0,0,0-.31-1.18l-.26-.22a.78.78,0,0,0-1.19.41,1.25,1.25,0,0,0-.09.25c-.14.53-.26,1.05-.39,1.58h0a1.16,1.16,0,0,0-.1.49h0c0,.24-.11.49-.16.73a2.16,2.16,0,0,0-.06.84v.13h0l0,.69v.06h0a1.53,1.53,0,0,0,.15.79s-.07,0-.1,0c-.67-.52-1.34-1-2-1.58s-1-.84-1.52-1.2l0,0h0l.17-.23c.06-.07.13-.12.14-.22h0a.64.64,0,0,0,.18-.28,2.52,2.52,0,0,0,.32-.58l0,0a1.46,1.46,0,0,0,.22-.53.17.17,0,0,0,0-.14h0l.2-.67a1.6,1.6,0,0,0,.14-.53h0l0-.17h0c.06-.48.16-1,.19-1.44a2.69,2.69,0,0,0-.19-1.28l0,0,0,0a.27.27,0,0,0-.09-.2,1.57,1.57,0,0,0-.51-.66c-.4-.33-.74-.28-1,.17a9.67,9.67,0,0,0-.69,1.93h0l0,.21s0,0,0,0a.17.17,0,0,0,0,.14h0a4,4,0,0,0-.2,1.33h0a1.51,1.51,0,0,0,0,.48h0a4.11,4.11,0,0,0,.22.92,2.12,2.12,0,0,0,.17.54h0a2,2,0,0,0,.16.47h0l.1.4h0c-.09,0-.13-.06-.18-.1-.44-.33-.86-.68-1.31-1-.85-.62-1.72-1.22-2.55-1.87a3.38,3.38,0,0,1,.4-.89l.06-.08h0a.74.74,0,0,0,.22-.32,1.77,1.77,0,0,0,.35-.61l0,0h0a2,2,0,0,0,.24-.84h0a5.17,5.17,0,0,0,.23-.88,5.86,5.86,0,0,0-.45-3.15,1.72,1.72,0,0,0-.8-.82.45.45,0,0,0-.67.25,4.14,4.14,0,0,0-.25,1.16h0a.39.39,0,0,0,0,.21,8.63,8.63,0,0,0-.2.88h0a7.27,7.27,0,0,0-.25,2.5v.06l0,.18h0v.06a.49.49,0,0,0,0,.24h0a5.74,5.74,0,0,0,.19.82.73.73,0,0,0,.08.33h0a1.13,1.13,0,0,0,.11.41c-.1.09-.15,0-.2-.05l-2.23-1.54-1.63-1.09h0c.15-.13.37-.16.49-.34h0l.32-.37h0a2.28,2.28,0,0,0,.36-.6v0a2.5,2.5,0,0,0,.42-1.13v-.06h0a6.33,6.33,0,0,0,0-2h0a5.83,5.83,0,0,0-.29-1.25,4.34,4.34,0,0,0-1.12-2c-.11-.1-.21-.23-.39-.15s-.26.42-.33.66h0l-.31.87.06,0s0,0-.06,0a4.43,4.43,0,0,0-.43,1.58h0a.1.1,0,0,0,0,.11,3.19,3.19,0,0,0,0,.69h0A8.14,8.14,0,0,0,46,213.9h0a1.45,1.45,0,0,0,.1.41,2.67,2.67,0,0,0,.24.61c0,.06,0,.08.07.12l.05.23-2.62-1.69c-.53-.34-1.09-.64-1.6-1h0a2.08,2.08,0,0,0,.26-.42l.07-.12h0a1.41,1.41,0,0,0,.17-.32.05.05,0,0,0,0,0,1.26,1.26,0,0,0,.22-.45.65.65,0,0,0,.13-.35h0c0-.06.09-.11.08-.18a1.31,1.31,0,0,0,.15-.46h0l0-.1h0a.76.76,0,0,0,.08-.33.05.05,0,0,0,0,0h0a5.81,5.81,0,0,0,.25-1.86h0a2.42,2.42,0,0,0-.06-.89l0-.21h0a.53.53,0,0,0,0-.28h0a4.92,4.92,0,0,0-.59-1.83c-.06-.13-.13-.25-.28-.27s-.26.13-.33.26c-.26.5-.52,1-.76,1.51a2.73,2.73,0,0,0-.25.78,5,5,0,0,0-.35,1.7h0a.33.33,0,0,0,0,.24.05.05,0,0,0,0,0,.05.05,0,0,1,0,0,.86.86,0,0,0,0,.39h0a1.17,1.17,0,0,0,.05.49,1.26,1.26,0,0,0,.08.47h0c0,.1,0,.21,0,.31a11.07,11.07,0,0,0,.58,1.58h0c0,.05.05.14-.07.15-1.09-.65-2.21-1.23-3.34-1.8-.11,0-.19-.1-.12-.24h0a3.42,3.42,0,0,0,.54-.82h0l.08-.11a5.74,5.74,0,0,0,.69-1.35,3.24,3.24,0,0,0,.27-.85.2.2,0,0,0,0-.17h0a3.38,3.38,0,0,0,0-1.38c0-.19,0-.39,0-.58a11,11,0,0,0-.65-2.78,2.66,2.66,0,0,0-.67-1,.46.46,0,0,0-.67,0,1,1,0,0,0-.27.34,8,8,0,0,0-.45,2.57c-.06.53,0,1.06-.08,1.59h0l0,.17a.83.83,0,0,0-.05.35v.06a1.78,1.78,0,0,0,0,.69h0a5.49,5.49,0,0,0,.16,1,11.62,11.62,0,0,0,.48,2.1h0c-.12.06-.2,0-.29-.07-.8-.37-1.59-.76-2.4-1.1-.55-.23-1.09-.48-1.62-.76h0c.13-.25.41-.38.5-.66a2.61,2.61,0,0,0,.34-.74,1.09,1.09,0,0,0,.15-.45h0l.05-.15a.34.34,0,0,0,0-.17c.08-.31.16-.61.23-.91a4.22,4.22,0,0,0,.1-1.46h0a7.29,7.29,0,0,0-.74-3.31,1.5,1.5,0,0,0-.33-.5c-.23-.22-.41-.18-.54.11a9,9,0,0,0-.46,1.32,10.91,10.91,0,0,0-.48,2.47h0a.49.49,0,0,0,0,.24h0A4.12,4.12,0,0,0,32,205a.5.5,0,0,0,0,.27l0,.51h0a3.17,3.17,0,0,0,.61,1.9h0l0,0v.13h0l-.23,0h0l-2.32-1c-.39-.18-.79-.33-1.16-.54l.09-.24h0a8.24,8.24,0,0,0,.5-.8h0v0a.92.92,0,0,0,.16-.31.34.34,0,0,0,.09-.19,4.63,4.63,0,0,0,.32-.88,3.19,3.19,0,0,0,.19-.81.25.25,0,0,0,0-.17h0a1.75,1.75,0,0,0,0-.72h0V202a4,4,0,0,0-.3-1.71l0-.1h0a4.94,4.94,0,0,0-.51-1,2.75,2.75,0,0,0-1.13-1.32.58.58,0,0,0-.94.4,4,4,0,0,0-.07.85h0c0,.2,0,.41-.05.62h0a3,3,0,0,0-.06.73.61.61,0,0,0,0,.3h0v.07l0,.21h0l0,.54v.22h0a2.07,2.07,0,0,0,0,.55h0v.13h0a.44.44,0,0,0,0,.25h0v.05h0a4.24,4.24,0,0,0,.24.93l0,.09h0a2.47,2.47,0,0,0,.18.62,3,3,0,0,1,.15.5h0a3.73,3.73,0,0,0,.51,1h0c-.08.06-.14,0-.2,0l-3.16-1.49c-.08,0-.15-.06-.15-.16h0a.68.68,0,0,0,.17-.42,1.3,1.3,0,0,0,.16-.53h0a.56.56,0,0,0,.05-.28h0V203a10.25,10.25,0,0,0,0-1.66h0l0-.12a5.55,5.55,0,0,0-.36-2,3.27,3.27,0,0,0-.66-1.25.25.25,0,0,0-.12-.16h0a2.1,2.1,0,0,0-.86-.7.49.49,0,0,0-.61.14,1.48,1.48,0,0,0-.37.87.7.7,0,0,0,0,.32h0a0,0,0,0,0,0,0h0a.69.69,0,0,0,0,.35,8,8,0,0,0,.15,1.37h0v.13a2.12,2.12,0,0,0,.15.65h0a7.29,7.29,0,0,0,.41,1.22h0a.81.81,0,0,0,.17.39h0a5.43,5.43,0,0,0,1.19,1.58h0a.45.45,0,0,1-.16,0c-1.09-.54-2.24-.91-3.34-1.43a.33.33,0,0,1-.19-.14h0a0,0,0,0,0,0,0h0a3,3,0,0,0,.35-1.33h0a2.56,2.56,0,0,0-.08-1h0a3.11,3.11,0,0,0-1.26-2c-.53-.39-.9-.27-1,.38a.71.71,0,0,0,0,.14h0a.89.89,0,0,0,0,.14,3.2,3.2,0,0,0,.6,2.18,2.43,2.43,0,0,0,.37.59h0a.81.81,0,0,0,.24.34h0a1.62,1.62,0,0,0,.3.39s-.07,0-.09,0c-.59-.34-1.32-.5-1.68-1.19a4.83,4.83,0,0,0-.59-.76,7,7,0,0,0-2.35-1.65h0a3.31,3.31,0,0,0-2.62-.05l-.2.22A.69.69,0,0,0,13,199.71Zm17.67,15.53s0,0,.05,0Zm29.43,8.55h0Zm.48.84h0Zm-6.27,2.52-.06-.05,0,0Zm4.53.2Zm.78-1.39Zm.27-.68h0Zm-3.24-6h0ZM56.08,218v0h0Zm0,3.72Zm-3.33,2.56h0Zm-.07-1.8Zm-4.73,2a.32.32,0,0,0,0,.15.07.07,0,0,1-.09,0Zm0,.25a.13.13,0,0,0,0,.06l0,0Zm6.24-1h0v.07A.25.25,0,0,1,54.18,223.69Zm-6.4-2.89h0Zm-.48.39Zm-2.39.78Zm6.91-3.06,0,0v0h0Zm-7-.69Zm-2.92,1.93h0Zm-1.71.24Zm.23-.71h0Zm3.46-2.58Zm-.55,0Zm1,.73Zm-.57-.76Zm.81,1.36h0Zm1.75-2.4h0Zm.78-4.53h0l0-.08A.24.24,0,0,1,47.12,211.47Zm-.74,2.33Zm0,.34h0Zm-2,2h0Zm-2.82-9,0,0h0Zm-4.18,8.72Zm3.49-3.28Zm-4.17,2.29h0s0,0,0,0ZM40,214h0Zm-2.16-6.69Zm0,0h0Zm-1.6,3.44Zm.24.12,0,0v0A.09.09,0,0,1,36.49,210.83ZM32,213.51s0,0,0,0h0S32,213.5,32,213.51Zm.16.74s0-.06,0-.09l.09-.06Zm-3.07-2.82Zm2.14-2.79h0Zm-2.48,3.11h0Zm1.07.09h0Zm2.48-2.9v0h0Zm.55-2.07h0Zm.88-3.62h0Zm-1,2.51h0S32.79,205.76,32.8,205.76Zm0-1.1h0Zm.29.24h0Zm.86,1.87.09-.06h0S34,206.78,34,206.77Zm-1.82-2.22Zm-4.36-3.83Zm2.08,1.83Zm.22-.11h0S30.12,202.45,30.11,202.44Zm-1.76,2.29.07,0h0A.06.06,0,0,1,28.35,204.73ZM25,208.51h0a0,0,0,0,0,0,0Zm-.06.42Zm3.28-2.17Zm.46-.42h0v0Zm.2-.05a.32.32,0,0,1-.06-.15H29A.46.46,0,0,0,28.91,206.29Zm.66-1,0,0A.08.08,0,0,1,29.57,205.26Zm-6-5.49,0,0S23.5,199.77,23.53,199.77Zm-.06.31h0s0,0,0,0h0s0,0,0,0v0Zm-1,5.76Zm-.23.25Zm1.45-.54Zm.58,0h0l0,0Zm-3.07,1.72Zm-.33.22h0ZM19,204.29Zm-1.89-3.61h0Z"/><rect class="cls-3" x="41.94" y="220.15" transform="translate(-6.16 1.26) rotate(-1.61)"/><path class="cls-4" d="M325.38,271.22H40.83a7,7,0,0,1-6.51-9.57l8.21-20.77c4.11-10.4,10.74-20.34,19.6-29.55a146.28,146.28,0,0,1,33-25.12c12.6-7.18,29.13-10.88,45.79-10.88a102.35,102.35,0,0,1,34.85,5.87c13.79,5.07,30.3,7,46.33,5.29l1.75-.18a109.18,109.18,0,0,1,35,2c16.5,3.71,30.26,11.29,37.27,21.43l35,50.53A7,7,0,0,1,325.38,271.22Z"/><path class="cls-5" d="M296.51,271.22H60.07c7.17-21.63,16.64-39.8,28.89-49.11,12.47-9.48,26.8-8.92,38.49-21.61,3.51-3.81,6.71-8.76,10.44-11.67,5.07-3.93,10.69-3.8,16.15-3.62,7.13.25,14.4.53,21.14,5,4.07,2.73,7.84,6.94,11.81,10.21l.72.58c10.8,8.55,22.71,10.17,34.37,11.68,3.8.49,7.68,1,11.35-.95,5.84-3.05,11.08-12,17.07-10.5,6.28,1.61,10.05,13.71,14,23.24,4.4,10.57,10.06,19.19,16.41,25,5.37,4.9,11.64,8.49,14.72,18.28A31.46,31.46,0,0,1,296.51,271.22Z"/><path class="cls-5" d="M258.88,188.28a12.05,12.05,0,0,1-4.73,1.81c-17.62,2.71-36,.32-53.11,5.39A69.61,69.61,0,0,0,187.71,201c-11.88,6.37-22.26,15.76-31.92,25.34a364.63,364.63,0,0,0-39,44.84H40.83a7,7,0,0,1-6.51-9.57l8.21-20.77c4.11-10.4,10.74-20.34,19.6-29.55a146.28,146.28,0,0,1,33-25.12c12.6-7.18,29.13-10.88,45.79-10.88a102.35,102.35,0,0,1,34.85,5.87c13.79,5.07,30.3,7,46.33,5.29l1.75-.18A109.18,109.18,0,0,1,258.88,188.28Z"/><path class="cls-5" d="M142.8,232a11.11,11.11,0,0,1-3.3,2.21q-3.41,1.75-6.7,3.7a23.76,23.76,0,0,0-6.62,5.18,26.1,26.1,0,0,0-3.25,5.79,30.6,30.6,0,0,0-2.93,8.7,1.71,1.71,0,0,0,1.21,2.32,21.35,21.35,0,0,0,11.16.59,32.51,32.51,0,0,0,10.42-4.28,15.42,15.42,0,0,0,3.06-2.32,12.52,12.52,0,0,0,1.79-2.48c3.25-5.66,3.54-12.51,3.4-19-3.11-.66-6.31.36-9.33,1.37"/><path class="cls-5" d="M194.26,240.78a12.26,12.26,0,0,1,3,3.36c1.62,2.34,3.33,4.64,5.11,6.89a26.77,26.77,0,0,0,6.94,6.68,34.7,34.7,0,0,0,7.47,3,42.45,42.45,0,0,0,11,2.4,3,3,0,0,0,2.33-.59,2.11,2.11,0,0,0,.47-.9,20,20,0,0,0-.09-12.06,32.43,32.43,0,0,0-6.1-10.83,16.86,16.86,0,0,0-3.12-3.08,15.75,15.75,0,0,0-3.22-1.72c-7.3-3-15.85-2.73-24-2-.6,3.4.91,6.76,2.4,9.91"/><path class="cls-6" d="M287.43,235.89a9.91,9.91,0,0,0-5.47,1.44,12.26,12.26,0,0,0-3.74,2.57c-.76,1-.63,2.16.91,2.92a12.77,12.77,0,0,0,2.9.83,30.33,30.33,0,0,0,6.11.69,11.2,11.2,0,0,0,5.51-1.2,3.16,3.16,0,0,0,1.34-2,2.61,2.61,0,0,0-.54-2.91,6.9,6.9,0,0,0-5.33-1.09"/><path class="cls-7" d="M253.91,94.67c.41,4.9-17.55,5.51-26.35,11.82-10.59,7.6-21.93,32.71-28.46,40.27-.9,1-1.84,2-2.8,3a94.73,94.73,0,0,1-17.86,13.74L170.78,168,167,165.54s16.07-6.6,26.47-16.75a41.47,41.47,0,0,0,3.2-3.47c9.88-12.09,15.57-30.19,31.79-43.92C237.52,93.72,253.64,91.49,253.91,94.67Z"/><path class="cls-8" d="M193.46,148.79a9.39,9.39,0,0,0,2.84,1,94.73,94.73,0,0,1-17.86,13.74L170.78,168,167,165.54S183.06,158.94,193.46,148.79Z"/><path class="cls-9" d="M132.11,80.69c2.4,7.57,1.29,21.42,1.29,22,0,2.61-.1,6.31.84,8.75,0,0,.72,8.21,2.11,16.43,1.68,10,6,30.52,6,30.52s2.34,18.13,3.26,22.79a137.1,137.1,0,0,1,.4,14c0,13.12-.47,31.22-1.44,36-.31,1.52-.48,2.41-.48,2.41l3.88,4.72s.23-.62.66-1.66,1-2.52,1.77-4.23c3.18-7.27,12.14-46.19,13.37-50.57,1.82-6.43,12.75-1.89,15.58,2.16s6.8,14.54,6.8,14.54l.13.44,9.28,32,.58,1.54h0l1.84,4.74,2.42-.11.63-5.76s0-.22,0-.63,0-1,.07-1.75c0,0,0-.06,0-.09.26-6.27-.83-20.7-1.08-29.94,0-.75,0-1.45-.07-2.1-.06-1.09-.14-2-.23-2.71-.19-1.33-.67-3.47-1.34-6.09-2.42-9.45-6.14-26.6-7.58-33.3-.38-1.75-.6-2.79-.6-2.79l-.06-.23a166.68,166.68,0,0,1-3.57-18.84c-.53-4.48-.68-8.74,0-11.42,1.09-4,5.06-17.81,7.45-20.67a47.59,47.59,0,0,1,4.48-4.72l26,36.78,15.29,48.59,6.57-1.32-11.81-50.63L205.7,82.72s-3.71-1.51-8.87-3.21l-.51-.18c-.67-.22-1.25-.45-1.76-.65-.78-.32-1.38-.6-1.75-.78s-.5-.26-.5-.26-1.24.36-3.36.81a74.26,74.26,0,0,1-8.55,1.29c-8,.76-18.59.22-27.24-4.55C138.35,67,137.23,68.61,132.09,67c-.49-.15-8.09,1.09-15.49,8.07l-16.32,44.42L82,180.06l9.68,1.44,14.13-53S131.42,78.51,132.11,80.69Z"/><path class="cls-7" d="M135.53,254.31c-1.84-3.37,8.5-7.49,7-8.48s-17,14.2-17.82,12.45c-.27-.57.1-1.33.72-2.07h0c-1.09.69-2.12,1-2.61.34s.28-1.91,1.4-3.12c-.9.44-1.74.51-2.26-.22-1.69-2.36,17.57-15.7,18.76-16.76l.12-.1a42.71,42.71,0,0,0,3.71-5.22l.41-.65.14-.15-.28,2.85,1.85-3.56s1.7,2,1.53,3.91-.59,2.1-.59,2.1,1.41-.45,2.74-3.51v0c0,.08,0,.16,0,.24C150.85,239.22,137.34,257.65,135.53,254.31Z"/><path class="cls-7" d="M229.24,250.43c-2.25,1-5.92-2.2-6.41-2.62.65.64,6.92,6.12,5.9,6.64a1.35,1.35,0,0,1-.69.06,9.43,9.43,0,0,1-4.07-1.63,10.67,10.67,0,0,1,1.84,1.86h0c.61.86.68,1.59-.32,2-3.44,1.3-19.52-13.16-20.62-11.62s10,11,5.45,11.38c-2.94.28-8.3-9.88-11.74-17.16a32.62,32.62,0,0,1-2.47-6.8l.21-.08,3.06,2.53a8.54,8.54,0,0,0-1-3.7c-.74-1.14-1.68-2.47-2.07-3,0-.05.07-.1.1-.16l3.58,1.25-.57-1.55.24.15h0c2.19,1.44,10.56,7.06,17.86,12.32l.11.07,0,0,0,0,.2.14.06,0,.12.09.08.06C224.79,245.52,230.38,249.94,229.24,250.43Z"/><path class="cls-10" d="M142.94,83s2.62,1.85,9.55,6.78c4.9,3.49,17.3,2.54,24.12,1.69a7.83,7.83,0,0,1,8.06,4.45c1.07,2.28,1.75,5,.76,7.41-2.25,5.49-6.54,13.34-5.54,24.11.94,10.1,3.85,27.6,1.34,35.2-1.19,3.63-16.81,7.45-25.12,2.09s-12.21-20.67-12.49-35-4.24-26.54-4.81-31.33S137.2,80.73,142.94,83Z"/><path class="cls-8" d="M194.56,78.68c-5.39,6-18,12.87-28,10.18-15.36-4.14-18.86-3.52-25.68-19.59.52.21,1.91.7,3.74,1.56a87.93,87.93,0,0,1,8.52,4.36c8.54,5,19.2,5.31,27.24,4.55A74.26,74.26,0,0,0,189,78.45c2.12-.45,3.36-.81,3.36-.81s.17.1.5.26S193.78,78.36,194.56,78.68Z"/><path class="cls-7" d="M151.06,32.16a25.57,25.57,0,0,0-2.93,5.93c0,.14-.09.29-.14.43a33.9,33.9,0,0,1-3.37,7.25A8.34,8.34,0,0,1,142,41.88C140.26,37,143.33,31.23,147.54,31a5,5,0,0,1,3.54,1.11Z"/><path class="cls-10" d="M151.06,32.16a25.57,25.57,0,0,0-2.93,5.93c0,.14-.09.29-.14.43a33.9,33.9,0,0,1-3.37,7.25A8.34,8.34,0,0,1,142,41.88C140.26,37,143.33,31.23,147.54,31a5,5,0,0,1,3.54,1.11Z"/><path class="cls-7" d="M203,62.3a8.5,8.5,0,0,1-4.43,1.53A34.19,34.19,0,0,1,200.2,56l.15-.44a25.41,25.41,0,0,0,1.23-6.52,5,5,0,0,1,3.49,1.25C208.31,53,207.26,59.48,203,62.3Z"/><path class="cls-10" d="M203,62.3a8.5,8.5,0,0,1-4.43,1.53A34.19,34.19,0,0,1,200.2,56l.15-.44a25.41,25.41,0,0,0,1.23-6.52,5,5,0,0,1,3.49,1.25C208.31,53,207.26,59.48,203,62.3Z"/><path class="cls-7" d="M190.4,61.19a7.16,7.16,0,0,0-2.69,5.55,15.93,15.93,0,0,1-.51,4.66c-3,9-14,13.44-24.51,9.92s-16.61-13.68-13.6-22.68a16.19,16.19,0,0,1,2.4-4,7.13,7.13,0,0,0,1.2-6,10.23,10.23,0,0,1-.27-1.53,10.86,10.86,0,0,1,.5-4.64c2-6,8.72-9.12,15-7a12.35,12.35,0,0,1,5.28,3.45,7.13,7.13,0,0,0,6.69,2.23,12.35,12.35,0,0,1,6.29.44c6.28,2.1,9.75,8.65,7.75,14.63a10.85,10.85,0,0,1-2.4,4A10.18,10.18,0,0,1,190.4,61.19Z"/><path class="cls-10" d="M190.4,61.19a7.16,7.16,0,0,0-2.69,5.55,15.93,15.93,0,0,1-.51,4.66c-3,9-14,13.44-24.51,9.92s-16.61-13.68-13.6-22.68a16.19,16.19,0,0,1,2.4-4,7.13,7.13,0,0,0,1.2-6,10.23,10.23,0,0,1-.27-1.53,10.86,10.86,0,0,1,.5-4.64c2-6,8.72-9.12,15-7a12.35,12.35,0,0,1,5.28,3.45,7.13,7.13,0,0,0,6.69,2.23,12.35,12.35,0,0,1,6.29.44c6.28,2.1,9.75,8.65,7.75,14.63a10.85,10.85,0,0,1-2.4,4A10.18,10.18,0,0,1,190.4,61.19Z"/><path class="cls-7" d="M207,48.72a6.24,6.24,0,0,0-5.4-1.47c0-1-.06-2-.17-3-.08-.74-.19-1.47-.32-2.2A30.89,30.89,0,0,0,189.84,23l1.07-3.63-5.18,1.14-.5-.23c-.31-.13-.61-.26-.93-.38l.28-2.92.08-.85c-.22-.07-.43-.14-.64-.19-4.12-1-7.34,2-7.86,2.48-7.39,0-14.95,3.28-20.51,8.44-.55.5-1.07,1-1.58,1.56q-1,1.11-1.95,2.31l-.13-.15a6.25,6.25,0,0,0-5.07-1.94c-5.35.25-9.24,7.63-7,13.78a10.45,10.45,0,0,0,3.61,5.16l-.15.25a19,19,0,0,0-1.17,2.29,16,16,0,0,0-.59,1.55A20.63,20.63,0,0,0,141.76,65a28.46,28.46,0,0,0,9.54,13,33.7,33.7,0,0,0,6.57,4.06,34.89,34.89,0,0,0,3.72,1.52l.3.11c11.87,4,24,1.34,30.91-5.81a19.9,19.9,0,0,0,4.62-7.57,19.34,19.34,0,0,0,.91-4.13l0-.29a10.47,10.47,0,0,0,6-1.94C209.82,60.38,211.15,52.14,207,48.72Zm-65-6.84C140.26,37,143.33,31.23,147.54,31a5,5,0,0,1,3.54,1.11l0,0a25.57,25.57,0,0,0-2.93,5.93c0,.14-.09.29-.14.43a33.9,33.9,0,0,1-3.37,7.25A8.34,8.34,0,0,1,142,41.88Zm38.39,37.86L180,80l-.23.12-.48.26h0l-.54.26-.07,0-.44.2L178,81l-.32.13-.31.12-.41.15-.24.08h0l-.48.16-.18.06-.52.14-.66.17c-.43.1-.87.19-1.32.26h-.07c-.18,0-.37.06-.55.09h-.1l-.62.07h-.07l-.65,0h-.07l-.66,0H170c-.6,0-1.2,0-1.8-.07l-.92-.1a3.47,3.47,0,0,1-.45-.06q-.69-.09-1.38-.24l-.92-.2c-.62-.15-1.23-.33-1.84-.54l-.67-.23-.55-.21-.29-.12-.47-.2-.2-.09-.56-.26,0,0-.65-.32-.61-.33,0,0-.6-.35-.57-.36a.18.18,0,0,1-.07,0l-.54-.35-.06,0-.54-.4-.53-.41a.1.1,0,0,1,0,0c-.16-.12-.3-.24-.45-.37l-.07-.06c-.18-.14-.35-.29-.52-.45h0l-.5-.47a.46.46,0,0,1-.07-.07l-.41-.41h0l-.39-.42-.07-.08,0,0-.25-.28c-.19-.21-.37-.44-.55-.66l-.23-.3a18.78,18.78,0,0,1-2.51-4.31l-.15-.37c-.05-.13-.1-.25-.14-.38a16.66,16.66,0,0,1-.78-3c0-.09,0-.19,0-.28l-.06-.47,0-.25c0-.23,0-.46,0-.68s0-.53,0-.8a14.93,14.93,0,0,1,.77-4.74,9.64,9.64,0,0,1,.83-1.73l.21-.35c.29-.46.6-.91.92-1.35.14-.21.29-.41.44-.6a7.13,7.13,0,0,0,1.2-6,11.4,11.4,0,0,1-.27-1.53,10.88,10.88,0,0,1,.5-4.64c2-6,8.72-9.12,15-7a12.35,12.35,0,0,1,5.28,3.45,7.13,7.13,0,0,0,6.69,2.23,12.35,12.35,0,0,1,6.29.44c6.28,2.1,9.75,8.65,7.75,14.63a10.85,10.85,0,0,1-2.4,4,10.18,10.18,0,0,1-1.13,1,7.16,7.16,0,0,0-2.69,5.55,15.93,15.93,0,0,1-.51,4.66c0,.11-.07.22-.11.32L187,72c0,.1-.07.2-.11.31v0l-.22.51c-.11.23-.22.47-.34.7s-.13.25-.2.37l-.07.14c-.09.14-.17.29-.26.44-.24.38-.49.75-.76,1.11-.12.17-.25.34-.38.5h0c-.13.16-.26.31-.4.46l-.42.47c-.32.34-.66.66-1,1l-.34.29,0,0c-.15.13-.31.26-.46.37l-.45.34-.11.07-.4.28c-.2.14-.41.27-.61.39ZM203,62.29a8.24,8.24,0,0,1-4.43,1.53A34.22,34.22,0,0,1,200.2,56l.15-.44a25.41,25.41,0,0,0,1.23-6.52,5,5,0,0,1,3.49,1.25C208.31,53,207.26,59.48,203,62.29Z"/><rect class="cls-11" x="166.09" y="56.63" width="1.93" height="4.38" rx="0.97" transform="translate(10 140.69) rotate(-46.93)"/><rect class="cls-11" x="171.79" y="58.54" width="1.93" height="4.38" rx="0.97" transform="translate(130.52 238.92) rotate(-96.04)"/><path class="cls-12" d="M160.3,46.09a3.36,3.36,0,0,1,4.3-2h0a3.35,3.35,0,0,1,2.23,4.19"/><path class="cls-12" d="M179.88,52.65a3.35,3.35,0,0,1,4.3-2h0a3.35,3.35,0,0,1,2.23,4.18"/><rect class="cls-13" x="35.85" y="94.09" width="265.24" height="64.54"/><path class="cls-14" d="M54.83,75.1H282.1a19,19,0,0,1,19,19v0a0,0,0,0,1,0,0H35.85a0,0,0,0,1,0,0v0a19,19,0,0,1,19-19Z"/><path class="cls-14" d="M35.85,158.63H301.09a0,0,0,0,1,0,0v0a19,19,0,0,1-19,19H54.83a19,19,0,0,1-19-19v0a0,0,0,0,1,0,0Z"/><path class="cls-15" d="M231.1,195.31c-1.1,2.36-4.36,4-6.5,5.24a31.8,31.8,0,0,1-8.76,3.88l4.09,1.5c1.17.44,2.82,1.44,4.08,1.51,7-1.51,14.19-6.88,17.25-13.43Z"/><path class="cls-15" d="M265.78,163.49c2.87-.25,5.76-2.41,8-4s4.94-3.48,6.55-5.84c.45,2.47,2.18,6.47.47,8.48-4.55,5.38-12.34,8.59-19.24,9.19Z"/><path class="cls-15" d="M51.89,170.21a15.72,15.72,0,0,0,7.52,11.89l-2.55,3.26-1.54,2c-.63.8-.94.22-1.79-.34-5.28-3.54-9.46-10.05-9.83-16.47Z"/><path class="cls-15" d="M175.74,15.22A21.71,21.71,0,0,0,183.52,12c.61-.4,5.27-4.83,5.16-4.87l7.4,2.65c-3.05,5.9-10,9.82-16.17,11.58-.63.18-2.28,1-2.5.2l-.6-2.25C176.45,17.92,176.1,16.57,175.74,15.22Z"/><path class="cls-16" d="M257.1,22.07a20,20,0,0,0,6.43,5.4,15.7,15.7,0,0,0,7.16,2.18v7.94a23.49,23.49,0,0,1-11-3.18,28,28,0,0,1-9-7.72l6.42-4.62Z"/><path class="cls-16" d="M131.52,202.7a20,20,0,0,0,8.37.78A15.73,15.73,0,0,0,147,201.2l4.52,6.52a23.56,23.56,0,0,1-10.83,3.64,28,28,0,0,1-11.83-1.21l2.64-7.45Z"/><path class="cls-17" d="M210.3,24.58a31.19,31.19,0,0,0,5.9,6,22.34,22.34,0,0,0,6.24,3.65l.67,6.2a33.07,33.07,0,0,1-9.55-5.46,43.33,43.33,0,0,1-8.3-8.49l5-1.86Z"/><path class="cls-17" d="M198,66.76a30.72,30.72,0,0,0,8.39.07,22,22,0,0,0,7-1.81L218.21,69a33,33,0,0,1-10.62,2.86,43.32,43.32,0,0,1-11.87-.17L198,66.76Z"/><path class="cls-17" d="M20.63,122.73a30.93,30.93,0,0,0,5.9,6,22,22,0,0,0,6.24,3.64l.67,6.2a32.79,32.79,0,0,1-9.55-5.45,43.6,43.6,0,0,1-8.3-8.49l5-1.87Z"/><path class="cls-17" d="M85,77.11a20,20,0,0,0,2.45,8,15.68,15.68,0,0,0,4.81,5.73l-4.33,6.65a23.54,23.54,0,0,1-7.46-8.64A28,28,0,0,1,77.1,77.48l7.9-.37Z"/><path class="cls-15" d="M114.6,64.28c2.24,1.71,5.93,2,8.62,2.3a35,35,0,0,0,9.9.25l-3,3c-1,1-2,2.61-3.53,2.81a31.23,31.23,0,0,1-21.77-5.82Z"/><path class="cls-18" d="M241.3,101.94c3.67.8,14.19-4,16.94-6.43L256.79,104a23.56,23.56,0,0,1-10.28,5,28.05,28.05,0,0,1-11.89.29l6.68-7.33Z"/><path class="cls-19" d="M183.79,173.73c3.42,1.54,14.7-.94,17.9-2.79l-3.17,8a23.55,23.55,0,0,1-11.09,2.74,27.89,27.89,0,0,1-11.69-2.17l8-5.79Z"/><path class="cls-19" d="M279.83,112.66c3.73-.39,12.23-8.2,14.07-11.41l1.28,8.52a23.43,23.43,0,0,1-8.2,7.94,28,28,0,0,1-11.2,4l4.05-9.06Z"/><path class="cls-15" d="M34.71,80.11c1.17,2.34,4.46,3.92,6.63,5.11a32.1,32.1,0,0,0,8.87,3.71l-4,1.59C45,91,43.39,92,42.13,92.1,35.07,90.72,27.76,85.49,24.51,79Z"/><path class="cls-15" d="M129.89,30a23.36,23.36,0,0,0,8.58,1.24c.64,0,7.72-1.23,7.57-1.44l4.11,5.89c-7,3.37-16.44,3.21-23.6.55Q128.23,33.15,129.89,30Z"/><path class="cls-16" d="M91.25,35.84a20.05,20.05,0,0,0,8.28,1.44,15.65,15.65,0,0,0,7.28-1.72l4,6.87A23.79,23.79,0,0,1,99.73,45.2,28.22,28.22,0,0,1,88,43.06l3.22-7.22Z"/><path class="cls-18" d="M55.05,64.23a19.82,19.82,0,0,0,7.5-3.78,15.6,15.6,0,0,0,4.83-5.71l7.29,3.14a23.59,23.59,0,0,1-7.25,8.82A28.05,28.05,0,0,1,56.75,72l-1.7-7.72Z"/><path class="cls-19" d="M53.58,15.77C55,19.23,64.94,25.14,68.54,26l-7.8,3.67a23.63,23.63,0,0,1-10-5.59,28.15,28.15,0,0,1-7-9.59l9.84,1.29Z"/><path class="cls-19" d="M252.17,62.28c1.44,3.46,11.36,9.37,15,10.21l-7.8,3.67a23.63,23.63,0,0,1-10-5.59,28,28,0,0,1-7-9.58l9.84,1.29Z"/><path class="cls-16" d="M109.08,179c-1.36,3.5-11.14,9.63-14.72,10.56l7.88,3.49a23.61,23.61,0,0,0,9.82-5.82,28,28,0,0,0,6.82-9.74l-9.8,1.51Z"/><path class="cls-16" d="M286.3,48.57c-1.36,3.49-11.14,9.63-14.72,10.55l7.88,3.49a23.53,23.53,0,0,0,9.82-5.81,28,28,0,0,0,6.82-9.75l-9.8,1.52Z"/><path class="cls-11" d="M159.94,69c-.33-2.34,2.2-2.1,3.72-1a13.16,13.16,0,0,0,4.65,2.22,23,23,0,0,0,3.44.65c2.33.22,2,3.4-1.73,4.12C165.82,75.81,160.47,72.87,159.94,69Z"/><path class="cls-20" d="M275.78,205.71s2.39,7-6.47,18.55a14.89,14.89,0,0,0,8.86-11.58C279.53,203.83,275.78,205.71,275.78,205.71Z"/><path class="cls-21" d="M61.34,254.1s-7.27,2.64-17.61-10.74c0,0,1.71,10.64,10.34,13.38S61.34,254.1,61.34,254.1Z"/><path class="cls-9" d="M83.42,173.57a9.78,9.78,0,0,1,1.28-1.78,3.09,3.09,0,0,1,3.06-.7,5.9,5.9,0,0,1-.4,2.14q-.73,2.28-1.54,4.5a8.64,8.64,0,0,0,1.32-2c1.06-1.83,2.69-5.21,3.93-4.4s.14,2.56-.13,3.63-.49,1.87-.74,2.8A23.19,23.19,0,0,1,92,174c.72-1.11,1.51-2.86,2.62-2.07s-1.05,6.92-1.82,8.95a2.51,2.51,0,0,1-.6,1,1,1,0,0,1-.69.15l-6.32-.11a15.51,15.51,0,0,1-2.36-.16c-.53-.1-1.75-.15-2-1a7.82,7.82,0,0,1-.15-2.7,3.6,3.6,0,0,1,.79-1.68C82.12,175.46,82.8,174.58,83.42,173.57Z"/><path class="cls-9" d="M244.2,172.52a9.69,9.69,0,0,0-1.28-1.77,3.06,3.06,0,0,0-3-.69,6.19,6.19,0,0,0,.4,2.12q.74,2.28,1.53,4.48a8.77,8.77,0,0,1-1.31-2c-1.05-1.82-2.67-5.17-3.9-4.38s-.14,2.55.13,3.61.49,1.86.73,2.78a23.21,23.21,0,0,0-1.81-3.78c-.72-1.1-1.5-2.84-2.6-2.06s1,6.88,1.81,8.89a2.35,2.35,0,0,0,.59,1,1,1,0,0,0,.68.16l6.28-.12a14.16,14.16,0,0,0,2.34-.16c.52-.09,1.74-.14,2-1a7.69,7.69,0,0,0,.15-2.68,3.57,3.57,0,0,0-.79-1.67C245.48,174.4,244.81,173.52,244.2,172.52Z"/></g></g></svg>