<svg width="544" height="308" viewBox="0 0 544 308" fill="none" xmlns="http://www.w3.org/2000/svg">
<path d="M522.794 272.967H292.206C280.445 272.967 271 263.525 271 251.767V70.584C271 58.8259 280.445 49.3837 292.206 49.3837H522.794C534.555 49.3837 544 58.8259 544 70.584V251.767C544 263.525 534.555 272.967 522.794 272.967Z" fill="#FFF9F7"/>
<path d="M287.572 244.997H527.427" stroke="#7D551F" stroke-width="2.7722" stroke-miterlimit="10" stroke-linecap="round"/>
<path d="M530.279 15.3563C520.478 61.6764 468.622 26.0456 417.301 98.3761C383.621 146.121 387.898 175.695 346.734 189.235C305.571 202.774 292.027 244.997 292.027 244.997" stroke="#7D551F" stroke-width="2.7722" stroke-miterlimit="10" stroke-linecap="round" stroke-linejoin="round"/>
<path d="M519.765 21.4135C520.656 21.0572 530.635 15 530.635 15L535.268 25.511" stroke="#7D551F" stroke-width="2.7722" stroke-miterlimit="10" stroke-linecap="round" stroke-linejoin="round"/>
<path d="M292.027 244.997C292.027 244.997 305.571 202.774 346.734 189.235C387.898 175.695 383.621 146.121 417.301 98.3761C468.444 25.8674 520.478 61.4982 530.279 15.3563V245.175H292.027" fill="url(#paint0_linear)"/>
<path d="M210.712 208.023C211.088 212.918 193.012 213.577 184.162 219.977C173.523 227.601 162.037 253.015 155.447 260.545C154.505 261.58 153.564 262.616 152.622 263.557C144.431 271.84 134.64 277.393 134.64 277.393L126.92 281.911L123.06 279.464C123.06 279.464 139.253 272.781 149.798 262.616C150.928 261.486 152.057 260.357 152.999 259.133C162.979 246.897 168.722 228.731 185.103 214.8C194.236 207.082 210.429 204.823 210.712 208.023Z" fill="#9F6552"/>
<path opacity="0.4" d="M149.798 262.616C150.739 263.086 151.681 263.463 152.622 263.651C144.431 271.934 134.64 277.487 134.64 277.487L126.92 282.005L123.06 279.558C123.06 279.558 139.253 272.875 149.798 262.616Z" fill="#6F4459"/>
<path d="M218.526 119.264C218.432 119.923 217.396 123.123 215.796 127.641C215.513 128.488 215.137 129.429 214.854 130.371C214.572 131.312 214.195 132.253 213.819 133.289C213.819 133.383 213.819 133.383 213.724 133.477C208.452 148.631 198.849 177.151 195.836 180.821C193.577 183.551 182.373 192.399 182.373 192.399L154.882 209.529C154.882 209.529 152.811 211.412 150.363 214.33C147.915 217.248 143.961 231.084 142.831 235.131C142.078 237.861 142.266 242.097 142.831 246.615C143.772 254.897 146.032 264.028 146.408 265.628C146.408 265.816 146.503 265.816 146.503 265.816C146.503 265.816 146.691 266.851 147.068 268.64C148.48 275.417 152.246 292.736 154.694 302.242C155.258 304.595 155.729 306.572 156.012 307.89H140.383C138.971 304.501 137.088 300.36 135.487 298.101C132.663 294.053 121.648 289.441 119.765 295.936C119.388 297.254 118.258 301.96 116.846 307.89H101.876C101.876 301.489 101.782 296.501 101.5 295.277C100.558 290.571 98.2047 272.311 98.2047 272.311C98.2047 272.311 93.6856 251.603 92.1792 241.532C88.7899 219.318 89.9197 204.447 87.4718 196.728C86.8128 194.564 86.342 192.587 84.0825 189.01C81.7288 185.245 57.1561 160.867 55.6498 158.326C51.7897 151.737 47.0823 113.805 40.2095 93.1914C38.7031 88.5793 37.1026 84.8144 35.3138 82.4612C35.3138 82.3671 35.2196 82.3671 35.2196 82.273C32.9601 79.261 30.7947 76.5314 28.8176 74.4607C11.0236 54.9769 30.6064 65.9894 30.6064 65.9894L39.3621 70.3192L39.7387 70.5074C39.7387 70.5074 41.6217 73.4253 44.5403 77.755C44.7286 78.1315 45.011 78.4139 45.2935 78.7904C47.9296 82.6495 50.5658 90.556 53.1078 99.686C53.6726 101.663 54.2375 103.733 54.7083 105.804C54.8024 106.181 54.8966 106.557 54.9907 106.934C59.6981 125.288 63.464 145.431 64.5938 147.313C66.7592 150.984 85.4947 171.409 88.225 171.691C91.2377 171.974 92.9324 172.821 94.3446 173.762C95.1919 174.421 96.0393 175.08 96.8866 175.739C97.7339 176.398 98.6754 176.962 99.9935 177.527C100.558 177.715 99.5228 178.28 99.9935 178.468C100.747 178.657 101.406 179.033 102.065 179.504C103.854 180.727 105.077 182.516 106.113 184.21C106.113 184.21 106.113 184.21 106.113 184.304C106.49 184.869 106.772 185.339 107.055 185.81C107.055 185.81 107.055 185.81 107.055 185.904C107.525 186.657 107.902 187.222 108.279 187.693C108.467 187.881 108.655 188.069 108.843 188.163C111.95 189.952 115.245 191.175 118.635 191.928C120.706 192.399 122.871 192.681 125.037 192.869C128.991 193.152 132.945 193.058 136.335 192.775C139.818 192.493 142.831 191.928 144.996 191.458C147.162 190.987 148.386 190.61 148.386 190.61C148.386 190.61 148.574 190.705 148.856 190.893C149.233 191.081 149.798 191.363 150.645 191.646C151.116 191.834 151.775 192.116 152.434 192.305C152.622 192.399 152.811 192.399 152.905 192.493C158.083 194.187 166.274 188.634 175.783 182.422C180.678 179.221 184.35 177.809 188.399 169.903C192.729 161.338 198.849 143.83 202.05 133.383C202.144 132.912 202.332 132.536 202.427 132.159C202.521 131.877 202.615 131.594 202.709 131.312C203.18 129.806 203.651 128.3 204.027 126.888C204.78 124.158 205.439 121.805 206.004 119.735C206.287 118.605 206.569 117.57 206.757 116.723C207.322 114.369 207.699 113.052 207.699 113.052C207.699 113.052 218.808 117.099 218.526 119.264Z" fill="#A16552"/>
<path d="M283.771 52.7179L271.249 42.5525L291.397 17.8918C293.468 15.3505 297.234 14.974 299.776 17.0447L303.071 19.6802C305.613 21.7509 305.989 25.5159 303.918 28.0573L283.771 52.7179Z" fill="#AC752C"/>
<path d="M283.771 52.7179L277.463 47.6352L301.376 18.2683L302.977 19.5861C305.519 21.6568 305.895 25.4218 303.824 27.9631L283.771 52.7179Z" fill="#7D551F"/>
<path d="M286.313 72.2021C277.368 84.5324 266.636 95.8274 254.02 105.616C182.938 160.679 80.599 147.784 25.4283 76.6259C15.6369 64.0133 8.01087 50.3652 2.45613 36.2465C2.07954 35.117 -0.933197 25.1398 0.290727 15.5391C0.855616 10.7387 2.45613 6.0325 5.93961 2.54989C5.93961 2.54989 5.93961 2.54989 6.03376 2.45577C6.41035 2.07927 6.88109 1.70277 7.25768 1.4204C7.72842 1.13802 8.19916 0.855648 8.6699 0.667399C12.6241 -0.932719 17.9906 0.667399 23.7336 3.77351C36.3494 10.6446 50.9424 24.8574 57.8152 30.2225H57.9093C59.5099 31.5403 61.1104 32.9521 62.805 34.1758C62.8992 34.2699 62.9933 34.2699 63.0875 34.364C64.8763 35.7759 66.7593 37.0936 68.6422 38.5055C69.2071 38.882 69.772 39.3526 70.3369 39.7291C70.8076 40.1056 71.3725 40.388 71.8433 40.7645C72.314 41.141 72.7847 41.4234 73.3496 41.7998C74.0087 42.2705 74.6677 42.7411 75.3267 43.1176C76.6448 43.9647 77.9629 44.8118 79.3751 45.5648C80.1283 46.0355 80.8815 46.5061 81.7288 46.8826C83.8001 48.1062 85.9655 49.3298 88.1309 50.4593C88.7899 50.8358 89.4489 51.2123 90.2021 51.4947C90.8612 51.8712 91.6143 52.1536 92.2734 52.53C94.3446 53.5654 96.4159 54.5067 98.4872 55.3538C98.5813 55.4479 98.7696 55.4479 98.9579 55.542L99.5228 55.8244C102.63 57.1422 105.737 58.3658 108.843 59.4011C111.762 60.4365 114.775 61.3778 117.788 62.319C118.164 62.4131 118.541 62.5073 118.917 62.6955L119.388 62.7896C121.365 63.3544 123.436 63.825 125.414 64.3897C125.602 64.3897 125.79 64.4839 125.978 64.578C126.261 64.6721 126.449 64.6721 126.732 64.7663C132.569 66.084 138.406 67.1194 144.337 67.7782C145.467 67.9665 146.597 68.0606 147.727 68.1547C148.856 68.2489 149.892 68.343 151.022 68.4371C151.21 68.4371 151.398 68.4371 151.587 68.4371C152.152 68.4371 152.811 68.5312 153.47 68.5312C155.258 68.6254 157.047 68.7195 158.93 68.8136C159.872 68.8136 160.719 68.8136 161.661 68.9077C163.073 68.9077 164.485 68.9077 165.897 68.9077C166.462 68.9077 167.027 68.9077 167.498 68.9077C169.381 68.9077 171.358 68.8136 173.241 68.7195C181.714 68.2489 190.282 67.0252 198.661 65.1427C198.755 65.1427 198.943 65.0486 199.131 65.0486C202.332 64.3897 205.534 63.5426 208.64 62.6014C210.053 62.2249 211.559 61.7543 213.065 61.2836C214.195 60.9071 215.419 60.5306 216.549 60.1541C216.737 60.06 217.02 59.9659 217.208 59.9659C219.75 59.1188 222.198 58.1775 224.74 57.1422C238.203 51.6829 251.195 44.2471 263.246 34.9287C264.564 33.8934 265.788 32.9521 267.012 31.9168C267.012 31.9168 267.389 31.6344 268.142 31.2579C268.33 31.1638 268.613 31.0696 268.801 30.8814C268.895 30.7873 269.083 30.7873 269.178 30.6931C269.272 30.599 269.46 30.599 269.648 30.5049C272.379 29.3754 276.898 28.1518 281.888 29.3754C285.465 30.2225 289.325 32.2933 292.997 36.623C296.481 40.7645 297.045 45.8472 296.198 51.0241C294.692 59.0246 289.608 67.4017 286.313 72.2021Z" fill="#FFB300"/>
<path d="M292.809 36.4343C292.715 36.5285 292.715 36.6226 292.62 36.6226C284.43 48.5764 274.45 59.6831 262.775 69.378C261.269 70.6957 259.669 71.9193 258.068 73.1429C186.986 128.3 84.6473 115.405 29.5707 44.2467C21.3798 33.7047 14.6953 22.5039 9.51717 10.8325C8.76399 9.13822 8.0108 7.44397 7.35176 5.65561C6.88102 4.62024 6.41028 3.49074 6.03369 2.36125C6.41028 1.98475 6.88102 1.60825 7.25762 1.32588C7.72836 1.0435 8.1991 0.761129 8.66984 0.572879C12.6241 -0.933114 17.9905 0.667004 23.7335 3.77312C36.3494 10.6442 50.9423 24.857 57.8151 30.2221H57.9093C59.5098 31.5399 61.1103 32.9517 62.805 34.1754C62.8991 34.2695 62.9933 34.2695 63.0874 34.3636C64.8762 35.7755 66.7592 37.0932 68.6422 38.5051C68.8304 38.5992 69.0187 38.7875 69.1129 38.8816C69.4895 39.164 69.8661 39.4463 70.2427 39.7287C70.7134 40.1052 71.2783 40.3876 71.749 40.7641C72.2198 41.1406 72.7847 41.423 73.2554 41.7995C73.9144 42.2701 74.5735 42.7407 75.2325 43.1172C76.5506 43.9643 77.8687 44.8114 79.2809 45.5644C80.0341 46.0351 80.7872 46.5057 81.6346 46.8822C82.9527 47.6352 84.2707 48.3882 85.6829 49.1412C86.5303 49.6118 87.2835 49.9883 88.1308 50.4589C88.7898 50.8354 89.4489 51.1178 90.2021 51.4943C90.8611 51.8708 91.6143 52.1532 92.2733 52.5297C94.3446 53.565 96.4158 54.5063 98.4871 55.3534C98.5812 55.4475 98.7695 55.4475 98.9578 55.5416L99.5227 55.824C100.088 56.0123 100.652 56.2946 101.217 56.4829C103.759 57.5183 106.301 58.4595 108.843 59.4007C111.385 60.342 114.022 61.095 116.658 61.9421C117.034 62.0362 117.411 62.2245 117.882 62.3186C118.258 62.4127 118.635 62.5069 119.011 62.6951L119.482 62.7892C120.706 63.1657 121.93 63.4481 123.248 63.7305C124.001 63.9187 124.754 64.107 125.508 64.2952C125.696 64.2952 125.884 64.3894 126.072 64.4835C126.355 64.5776 126.543 64.5776 126.826 64.6717C127.955 64.9541 129.085 65.1423 130.121 65.4247C130.968 65.613 131.721 65.7071 132.569 65.8953C132.945 65.9895 133.322 65.9895 133.698 66.0836C134.828 66.2718 136.052 66.4601 137.182 66.6483C138.312 66.8366 139.347 67.0248 140.477 67.119C141.795 67.3072 143.113 67.4955 144.431 67.6837C145.561 67.7778 146.691 67.9661 147.821 68.0602C148.95 68.1543 149.986 68.2485 151.116 68.3426C151.304 68.3426 151.492 68.3426 151.681 68.3426C152.246 68.3426 152.905 68.4367 153.564 68.4367C155.353 68.5308 157.141 68.625 159.024 68.7191C159.966 68.7191 160.813 68.7191 161.755 68.8132C163.167 68.8132 164.579 68.8132 165.991 68.8132C166.556 68.8132 167.121 68.8132 167.592 68.8132C168.157 68.8132 168.722 68.8132 169.192 68.7191C170.604 68.7191 171.923 68.625 173.335 68.5308C174.465 68.4367 175.594 68.3426 176.724 68.2485C178.042 68.1543 179.36 68.0602 180.678 67.872C181.337 67.7778 181.996 67.6837 182.655 67.6837C183.22 67.5896 183.691 67.5896 184.256 67.4955C185.48 67.3072 186.704 67.2131 187.834 67.0248C189.058 66.8366 190.281 66.6483 191.505 66.4601C192.447 66.2718 193.482 66.0836 194.424 65.8953C195.836 65.613 197.248 65.3306 198.566 65.0482C198.661 65.0482 198.849 64.9541 199.037 64.9541C200.355 64.6717 201.673 64.2952 202.897 64.0128C203.745 63.8246 204.592 63.6364 205.345 63.354C206.381 63.0716 207.416 62.7892 208.452 62.5069C209.393 62.2245 210.335 61.9421 211.182 61.6597C211.747 61.4715 212.312 61.3774 212.783 61.1891C213.913 60.8126 215.137 60.4361 216.266 60.0596C216.455 59.9655 216.737 59.8714 216.925 59.8714C217.867 59.4949 218.808 59.2125 219.75 58.836C220.503 58.5536 221.256 58.2713 222.103 57.8948C222.857 57.6124 223.704 57.33 224.457 56.9535C225.587 56.4829 226.623 56.0123 227.752 55.5416C228.317 55.2593 228.882 55.071 229.541 54.7886C230.953 54.1298 232.366 53.4709 233.778 52.812C234.719 52.3414 235.661 51.8708 236.602 51.4002C238.015 50.6472 239.333 49.9883 240.745 49.2353C241.686 48.7647 242.534 48.1999 243.475 47.7293C244.793 46.9763 246.205 46.1292 247.523 45.2821C248.371 44.7173 249.218 44.2467 250.065 43.6819C251.572 42.7407 252.984 41.7994 254.49 40.7641C255.055 40.3876 255.62 40.0111 256.185 39.6346C256.373 39.4463 256.656 39.3522 256.844 39.164C258.915 37.7521 260.987 36.2461 262.964 34.646C264.282 33.6106 265.506 32.6694 266.73 31.634C266.73 31.634 267.106 31.3516 267.859 30.9751C268.048 30.881 268.33 30.7869 268.518 30.5986C268.613 30.5045 268.801 30.5045 268.895 30.4104C268.989 30.3162 269.178 30.3162 269.366 30.2221C272.096 29.0926 276.615 27.869 281.605 29.0926C285.277 30.0339 289.137 32.1046 292.809 36.4343Z" fill="#FFD54F"/>
<path d="M23.7346 3.77312C13.9432 3.77312 5.84648 7.25573 0.291748 15.4446C0.856636 10.6442 2.45715 5.93798 5.94063 2.45537C5.94063 2.45537 5.94063 2.45537 6.03478 2.36125C6.41137 1.98475 6.88211 1.60825 7.2587 1.32588C7.72944 1.0435 8.20018 0.761129 8.67093 0.572879C12.6251 -0.933114 17.9916 0.667004 23.7346 3.77312Z" fill="#7D551F"/>
<path d="M98.7697 196.258C98.7697 196.258 101.406 198.14 108.373 203.129C113.363 206.612 125.79 205.67 132.757 204.823C136.147 204.353 139.442 206.235 140.854 209.341C141.89 211.6 142.643 214.33 141.607 216.777C139.348 222.33 135.017 230.237 136.052 241.061C136.994 251.227 139.912 268.922 137.37 276.546C136.146 280.217 120.424 284.076 112.045 278.617C103.665 273.252 99.5229 255.745 97.8282 241.344C96.1336 227.131 95.1921 216.495 94.6272 211.6C94.0623 206.706 93.0267 193.999 98.7697 196.258Z" fill="#F3DAB2"/>
<path opacity="0.4" d="M150.834 191.928C145.373 198.046 135.393 204.07 120.141 200.494C104.513 196.823 101.218 190.234 94.3447 174.044C94.9096 174.233 96.8867 176.209 97.3575 176.303C102.536 177.904 107.149 187.316 109.032 188.446C117.693 193.434 128.426 193.811 136.523 193.058C140.007 192.775 143.019 192.211 145.185 191.74C147.35 191.269 148.574 190.893 148.574 190.893C148.574 190.893 148.762 190.987 149.045 191.175C149.515 191.363 150.08 191.646 150.834 191.928Z" fill="#6F4459"/>
<path d="M106.961 145.054C105.737 146.937 104.701 148.913 104.042 151.078C103.948 151.266 103.948 151.361 103.854 151.549C103.006 154.09 101.877 156.537 100.464 158.89C99.4288 158.043 98.4873 156.82 97.8283 154.937C96.0394 150.043 99.1463 144.207 103.383 144.019C105.078 143.831 106.207 144.301 106.961 145.054C106.961 144.96 106.961 145.054 106.961 145.054Z" fill="#9F6552"/>
<path d="M106.961 145.054C105.737 146.937 104.701 148.913 104.042 151.078C103.948 151.266 103.948 151.361 103.854 151.549C103.006 154.09 101.877 156.537 100.464 158.89C99.4288 158.043 98.4873 156.82 97.8283 154.937C96.0394 150.043 99.1463 144.207 103.383 144.019C105.078 143.831 106.207 144.301 106.961 145.054C106.961 144.96 106.961 145.054 106.961 145.054Z" fill="#F3DAB2"/>
<path d="M159.307 175.456C157.612 176.492 156.2 176.962 154.882 176.962C155.164 174.233 155.635 171.597 156.577 169.056C156.671 168.868 156.671 168.774 156.765 168.585C157.424 166.515 157.895 164.256 157.989 161.997C159.024 161.902 160.248 162.185 161.472 163.22C164.767 166.044 163.638 172.539 159.307 175.456Z" fill="#9F6552"/>
<path d="M159.307 175.456C157.612 176.492 156.2 176.962 154.882 176.962C155.164 174.233 155.635 171.597 156.577 169.056C156.671 168.868 156.671 168.774 156.765 168.585C157.424 166.515 157.895 164.256 157.989 161.997C159.024 161.902 160.248 162.185 161.472 163.22C164.767 166.044 163.638 172.539 159.307 175.456Z" fill="#F3DAB2"/>
<path d="M146.691 174.327C144.996 175.739 143.961 177.715 143.961 179.88C143.961 181.48 143.867 183.363 143.396 184.587C140.383 193.622 129.274 198.14 118.635 194.564C107.996 190.987 101.877 180.727 104.889 171.691C105.266 170.468 106.302 168.962 107.337 167.644C108.655 165.95 109.032 163.691 108.561 161.526C108.467 161.055 108.373 160.491 108.279 160.02C108.09 158.514 108.279 156.914 108.749 155.314C110.727 149.29 117.505 146.09 123.907 148.254C126.073 149.007 127.861 150.231 129.274 151.737C130.968 153.62 133.51 154.467 136.052 153.996C138.124 153.62 140.289 153.714 142.36 154.467C148.668 156.632 152.152 163.22 150.175 169.244C149.61 170.75 148.856 172.162 147.727 173.292C147.444 173.574 147.068 173.95 146.691 174.327Z" fill="#9F6552"/>
<path d="M146.691 174.327C144.996 175.739 143.961 177.715 143.961 179.88C143.961 181.48 143.867 183.363 143.396 184.587C140.383 193.622 129.274 198.14 118.635 194.564C107.996 190.987 101.877 180.727 104.889 171.691C105.266 170.468 106.302 168.962 107.337 167.644C108.655 165.95 109.032 163.691 108.561 161.526C108.467 161.055 108.373 160.491 108.279 160.02C108.09 158.514 108.279 156.914 108.749 155.314C110.727 149.29 117.505 146.09 123.907 148.254C126.073 149.007 127.861 150.231 129.274 151.737C130.968 153.62 133.51 154.467 136.052 153.996C138.124 153.62 140.289 153.714 142.36 154.467C148.668 156.632 152.152 163.22 150.175 169.244C149.61 170.75 148.856 172.162 147.727 173.292C147.444 173.574 147.068 173.95 146.691 174.327Z" fill="#F3DAB2"/>
<path d="M163.449 161.714C161.472 160.02 159.495 159.926 157.989 160.208C157.989 159.173 157.895 158.137 157.8 157.196C157.706 156.443 157.612 155.69 157.518 154.937C156.482 149.384 154.035 143.925 150.363 139.595C149.045 138.089 147.727 136.771 146.126 135.642L147.162 131.971L141.984 133.1C141.795 133.006 141.701 132.912 141.513 132.912C141.23 132.818 140.854 132.63 140.571 132.536L140.854 129.618L140.948 128.771C140.76 128.676 140.477 128.676 140.289 128.582C136.146 127.547 132.851 130.559 132.38 131.03C127.202 131.03 121.93 132.63 117.223 135.359C115.246 136.583 113.363 137.901 111.668 139.501C111.103 139.971 110.632 140.536 110.067 141.101C109.314 141.854 108.749 142.607 108.09 143.454C108.09 143.454 107.996 143.36 107.996 143.266C106.961 142.136 105.36 141.195 102.912 141.289C97.5457 141.572 93.5915 149.007 95.851 155.22C96.7925 157.761 98.0164 159.361 99.5228 160.396C99.5228 160.491 99.4287 160.585 99.3345 160.679C98.8638 161.432 98.4872 162.185 98.1106 163.032C97.9223 163.503 97.734 164.067 97.5457 164.632C96.3218 168.397 96.2276 172.256 97.075 176.021C97.2633 176.68 97.4516 177.433 97.6399 178.092C99.3345 182.986 102.63 187.598 107.243 191.269C109.22 192.869 111.48 194.187 113.833 195.317C115.057 195.881 116.281 196.446 117.599 196.823C117.693 196.823 117.788 196.917 117.882 196.917C129.838 200.964 142.078 198.235 149.045 191.081C149.892 190.14 150.739 189.199 151.398 188.163C152.34 186.751 153.093 185.151 153.658 183.457C154.129 182.045 154.411 180.727 154.599 179.316C154.599 179.221 154.599 179.127 154.599 179.033C156.388 179.127 158.365 178.563 160.625 177.057C166.274 173.48 167.592 165.197 163.449 161.714ZM97.8282 154.843C97.6399 154.372 97.5457 153.996 97.4516 153.525C96.9808 150.89 97.734 148.254 99.1462 146.372C99.2404 146.184 99.3345 146.09 99.5228 145.995C99.8053 145.619 100.182 145.337 100.464 145.054C100.558 144.96 100.747 144.866 100.841 144.772C101.594 144.301 102.441 144.019 103.383 143.925C104.983 143.831 106.113 144.395 106.961 145.054C106.49 145.807 106.113 146.466 105.642 147.219C105.266 147.972 104.889 148.725 104.607 149.478C104.419 149.949 104.23 150.513 104.042 151.078C104.042 151.266 103.948 151.361 103.948 151.549C103.1 154.09 101.971 156.537 100.558 158.89C99.4287 157.949 98.4872 156.726 97.8282 154.843ZM150.269 169.15C149.704 170.75 148.951 172.068 147.821 173.197C147.444 173.574 147.068 173.95 146.691 174.233C144.996 175.551 143.961 177.621 143.961 179.786C143.961 181.48 143.867 183.269 143.49 184.492C143.49 184.586 143.396 184.681 143.396 184.775C143.396 184.869 143.302 184.963 143.302 184.963C143.302 185.057 143.208 185.151 143.208 185.245C143.113 185.434 143.113 185.622 143.019 185.716C142.925 185.81 142.831 186.092 142.831 186.187C142.831 186.281 142.737 186.375 142.737 186.375C142.643 186.469 142.643 186.657 142.548 186.751C142.548 186.751 142.548 186.845 142.454 186.845C142.36 187.034 142.266 187.128 142.172 187.316C141.984 187.693 141.701 188.069 141.419 188.446C141.325 188.634 141.136 188.822 141.042 188.916C140.948 189.104 140.76 189.199 140.666 189.387C140.571 189.575 140.383 189.669 140.195 189.857C139.912 190.234 139.536 190.516 139.159 190.799C139.065 190.893 138.971 190.987 138.783 191.081C138.783 191.081 138.783 191.081 138.688 191.081L138.594 191.175C138.5 191.269 138.406 191.363 138.218 191.458C138.124 191.552 138.124 191.552 138.029 191.552C137.935 191.646 137.841 191.646 137.747 191.74L137.653 191.834C137.559 191.834 137.559 191.928 137.464 191.928C137.37 192.022 137.276 192.022 137.182 192.116C136.994 192.211 136.805 192.399 136.617 192.493C136.429 192.587 136.335 192.681 136.146 192.775C136.052 192.775 135.958 192.869 135.958 192.869C135.77 192.964 135.676 193.058 135.487 193.152C135.299 193.246 135.111 193.34 134.922 193.434H134.828C134.64 193.528 134.546 193.528 134.358 193.622C134.263 193.622 134.263 193.717 134.169 193.717C134.075 193.811 133.981 193.811 133.887 193.811C133.793 193.811 133.699 193.905 133.604 193.905C133.51 193.905 133.51 193.999 133.416 193.999C133.322 193.999 133.322 194.093 133.228 194.093H133.134C133.04 194.093 133.04 194.093 132.945 194.187C132.757 194.281 132.663 194.281 132.475 194.375C132.38 194.375 132.38 194.375 132.286 194.47C132.098 194.564 131.91 194.564 131.816 194.658C131.627 194.752 131.345 194.752 131.157 194.846C130.874 194.94 130.592 194.94 130.309 195.034C130.121 195.034 130.027 195.128 129.838 195.128H129.744C129.556 195.128 129.368 195.223 129.179 195.223H129.085C128.897 195.223 128.709 195.317 128.426 195.317C128.426 195.317 128.426 195.317 128.332 195.317C128.144 195.317 127.861 195.317 127.673 195.411H127.579C127.391 195.411 127.108 195.411 126.92 195.411C126.637 195.411 126.449 195.411 126.167 195.411C125.602 195.411 124.943 195.411 124.378 195.317C124.095 195.317 123.813 195.223 123.531 195.223C123.342 195.223 123.248 195.223 123.06 195.128C122.872 195.034 122.777 195.034 122.589 195.034C122.307 194.94 122.024 194.94 121.648 194.846H121.553C121.271 194.752 120.989 194.752 120.706 194.658C120.047 194.47 119.482 194.375 118.823 194.093C118.635 193.999 118.352 193.905 118.164 193.811C117.976 193.717 117.788 193.717 117.599 193.622C117.505 193.622 117.411 193.528 117.317 193.528C117.129 193.434 117.034 193.434 116.846 193.34C116.752 193.34 116.752 193.246 116.658 193.246C116.469 193.152 116.281 193.058 116.093 192.964C115.905 192.869 115.622 192.775 115.434 192.681C115.246 192.587 115.057 192.493 114.869 192.305C114.869 192.305 114.869 192.305 114.775 192.305C114.587 192.211 114.398 192.116 114.21 191.928C114.022 191.834 113.833 191.74 113.645 191.552C113.645 191.552 113.551 191.552 113.551 191.458C113.363 191.363 113.174 191.269 112.986 191.081C112.986 191.081 112.986 191.081 112.892 191.081C112.704 190.987 112.515 190.799 112.327 190.705C112.139 190.61 111.95 190.422 111.762 190.328C111.762 190.328 111.762 190.328 111.668 190.234C111.48 190.14 111.385 189.952 111.197 189.857C111.197 189.857 111.103 189.857 111.103 189.763C110.915 189.575 110.726 189.481 110.632 189.293C110.444 189.104 110.256 189.01 110.162 188.822C110.162 188.822 110.162 188.728 110.067 188.728C109.973 188.634 109.785 188.446 109.691 188.351C109.597 188.163 109.408 188.069 109.314 187.881C109.314 187.881 109.314 187.881 109.22 187.787C109.126 187.693 109.032 187.598 108.938 187.504C108.749 187.316 108.561 187.034 108.373 186.845C108.279 186.751 108.184 186.657 108.184 186.563C107.996 186.281 107.714 185.904 107.525 185.622C107.525 185.622 107.525 185.622 107.525 185.528C107.149 185.057 106.866 184.586 106.584 184.022C106.584 184.022 106.584 183.928 106.49 183.928C106.396 183.739 106.301 183.551 106.207 183.363C106.113 183.175 106.019 182.986 105.925 182.798C105.831 182.61 105.737 182.422 105.642 182.233C105.642 182.139 105.548 181.951 105.454 181.857C105.36 181.763 105.36 181.575 105.266 181.48C105.172 181.198 105.078 181.01 104.983 180.727C104.889 180.257 104.701 179.692 104.607 179.221C104.513 178.939 104.513 178.751 104.513 178.468C104.513 178.374 104.513 178.28 104.513 178.186C104.513 177.998 104.419 177.904 104.419 177.715C104.419 177.621 104.419 177.527 104.419 177.433C104.419 177.245 104.419 176.962 104.419 176.774C104.419 176.492 104.419 176.209 104.419 175.927C104.419 174.327 104.701 172.727 105.172 171.127C105.266 170.938 105.36 170.75 105.454 170.468C105.454 170.374 105.548 170.28 105.642 170.091C105.737 169.809 105.925 169.527 106.113 169.338C106.207 169.244 106.207 169.15 106.301 168.962C106.584 168.491 106.866 168.021 107.243 167.644C107.431 167.456 107.525 167.268 107.714 167.079C109.032 165.385 109.408 163.126 108.938 160.961C108.843 160.491 108.749 159.926 108.655 159.455C108.467 157.949 108.655 156.349 109.126 154.749C111.103 148.725 117.882 145.525 124.284 147.69C126.449 148.443 128.238 149.666 129.65 151.172C131.345 153.055 133.887 153.902 136.429 153.431C138.5 153.055 140.666 153.149 142.737 153.902C148.762 156.537 152.246 163.126 150.269 169.15ZM159.307 175.456C158.459 176.021 157.706 176.398 156.953 176.586C156.388 176.774 155.823 176.868 155.353 176.962C155.164 176.962 154.976 176.962 154.882 176.962C154.976 176.304 155.07 175.645 155.164 174.986C155.447 173.009 155.917 171.033 156.577 169.15C156.671 169.056 156.671 168.868 156.765 168.679C157.424 166.609 157.895 164.35 157.989 162.091C158.93 161.997 159.966 162.279 161.096 163.032C161.19 163.126 161.378 163.22 161.472 163.314C161.661 163.503 161.755 163.597 161.943 163.785C164.579 166.703 163.449 172.727 159.307 175.456Z" fill="#9F6552"/>
<path d="M124.849 173.292L124.66 173.48C124.378 173.856 123.813 173.856 123.53 173.48L121.459 171.597C121.083 171.315 121.083 170.75 121.459 170.468L121.647 170.28C121.93 169.903 122.495 169.903 122.777 170.28L124.849 172.162C125.131 172.444 125.131 173.009 124.849 173.292Z" fill="#4D3F3F"/>
<path d="M126.637 173.95V174.233C126.732 174.703 127.108 174.986 127.579 174.986L130.309 174.703C130.78 174.609 131.062 174.233 131.062 173.762V173.48C130.968 173.009 130.592 172.727 130.121 172.727L127.391 173.009C126.92 173.103 126.637 173.48 126.637 173.95Z" fill="#4D3F3F"/>
<path d="M116.281 159.079C116.846 157.384 118.823 156.443 120.612 157.102C122.401 157.667 123.437 159.643 122.872 161.338" stroke="#4D3F3F" stroke-width="1.0715" stroke-miterlimit="10" stroke-linecap="round"/>
<path d="M136.052 165.667C136.617 163.973 138.594 163.032 140.383 163.691C142.172 164.256 143.207 166.232 142.643 167.926" stroke="#4D3F3F" stroke-width="1.0715" stroke-miterlimit="10" stroke-linecap="round"/>
<path d="M111.009 176.962C110.162 176.774 109.314 177.339 109.22 178.28C108.655 184.775 113.551 191.081 120.894 192.681C128.144 194.281 135.299 190.799 137.653 184.681C137.935 183.833 137.464 182.892 136.617 182.704L111.009 176.962Z" fill="#4D3F3F"/>
<path d="M113.174 188.54C115.151 190.516 117.788 192.022 120.894 192.775C124.001 193.434 127.014 193.246 129.65 192.305C129.462 188.54 125.978 188.54 122.024 187.693C118.164 186.751 115.057 185.151 113.174 188.54Z" fill="#E3646E"/>
<path d="M213.819 133.383C213.819 133.383 211.653 129.618 209.958 128.582C208.264 127.547 206.852 126.982 206.852 126.982C206.852 126.982 208.923 119.546 205.816 119.735C202.709 119.923 201.297 132.536 202.521 134.606L206.475 133.1L207.322 136.301L208.735 134.136C208.735 134.136 210.335 135.077 211.747 134.983L213.819 133.383Z" fill="#9F6552"/>
<path d="M44.5403 102.133C44.5403 102.133 48.2121 99.8743 50.1892 99.6861C52.1663 99.5919 53.6726 99.7802 53.6726 99.7802C53.6726 99.7802 55.2732 92.2502 57.9093 93.8503C60.5455 95.4505 55.838 107.31 53.7668 108.44L50.9423 105.239L48.6828 107.593L48.4945 105.051C48.4945 105.051 46.6115 105.145 45.4818 104.392L44.5403 102.133Z" fill="#9F6552"/>
<defs>
<linearGradient id="paint0_linear" x1="369.909" y1="77.8531" x2="512.005" y2="257.996" gradientUnits="userSpaceOnUse">
<stop stop-color="#7D551F" stop-opacity="0.2"/>
<stop offset="1" stop-color="#7D551F" stop-opacity="0"/>
</linearGradient>
</defs>
</svg>