<svg width="200" height="200" viewBox="0 0 200 200" fill="none" xmlns="http://www.w3.org/2000/svg">
<path d="M151.246 305.128C117.216 305.128 80.8221 290.463 56.7172 266.337C37.8114 247.414 27.8859 224.707 28.3585 201.054C28.3585 191.592 30.2491 182.131 32.6123 173.143C35.4482 163.681 35.4482 153.747 35.9208 143.812C36.3935 132.932 36.8661 122.051 40.1746 111.171C51.5181 70.014 83.1853 35.007 121.469 21.2881C126.196 13.719 138.957 -0.946054 155.973 8.07233e-05C157.863 8.07233e-05 159.754 1.41928 160.226 3.78462L163.062 15.6113C163.535 15.6113 164.007 15.6113 164.48 15.6113L181.968 5.20382C183.386 4.25768 185.276 4.25768 186.694 5.20382C188.112 6.14995 189.058 7.56915 189.058 8.98836L189.53 21.2881C227.342 35.007 258.536 69.5409 269.88 110.225V110.698C273.188 121.578 273.661 132.459 273.661 143.339C274.134 153.747 274.606 163.208 276.969 172.67C277.442 174.562 277.915 175.981 277.915 177.4C278.387 179.292 278.86 180.712 279.333 182.604C285.004 209.569 277.915 237.007 259.954 259.241C236.322 288.098 197.093 305.128 154.555 305.128C154.082 305.128 153.609 305.128 153.137 305.128C153.137 305.128 152.191 305.128 151.246 305.128ZM152.191 9.46142C140.375 10.8806 131.395 23.6534 129.977 26.0188C129.504 27.438 128.559 28.3841 127.141 29.3302C91.2202 41.63 60.0257 75.2178 49.6275 113.536V114.009C46.7917 123.471 46.319 133.405 46.319 143.812C45.8464 154.22 45.3737 164.627 42.5379 175.508C40.1746 184.023 38.2841 192.538 38.2841 201.054C37.8114 228.018 51.9908 247.887 63.8069 259.714C86.9664 282.894 121.469 296.613 154.082 295.667C154.555 295.667 155.027 295.667 155.027 295.667C194.729 295.667 231.123 280.056 253.337 253.091C269.88 233.222 276.024 208.623 270.825 184.496C270.352 183.077 269.88 181.185 269.88 179.766C269.407 178.346 268.935 176.454 268.462 175.035C265.626 164.627 265.153 154.22 264.681 143.812C264.208 133.405 263.735 122.998 260.9 113.536C250.501 75.2178 219.307 41.63 183.859 29.3302C181.968 28.8572 180.55 26.9649 180.55 25.0726L180.077 17.5036L168.261 24.5996C167.316 25.0726 166.371 25.5457 165.425 25.0726C163.535 25.0726 161.172 24.5996 159.281 24.5996C157.39 24.5996 155.5 23.1804 155.027 20.815L152.191 9.46142Z" fill="#FFB300"/>
<path d="M35.4483 187.335C34.9756 187.335 34.503 187.335 34.0303 187.335C25.5227 184.496 17.4878 178.819 10.8708 170.304C0.945229 157.531 -2.36328 140.028 1.89052 124.417C5.19903 112.59 12.7613 103.129 22.6869 99.3442C34.503 94.6136 43.4832 97.452 49.1549 100.763C51.5182 101.71 52.9361 104.548 51.9908 106.913C51.0455 109.279 48.2097 110.698 45.8464 109.752C45.3738 109.752 44.9011 109.279 44.4285 109.279C38.7568 106.44 32.6124 105.967 25.9954 108.806C18.9057 111.644 13.7066 118.267 10.8708 127.255C7.56225 140.028 10.3981 154.693 18.4331 164.627C24.1048 171.723 30.2492 176.454 36.8662 178.346C39.2294 179.293 40.6474 181.658 40.1747 184.023C39.7021 185.916 37.8115 187.335 35.4483 187.335Z" fill="#FFB300"/>
<path d="M155.5 285.26C106.818 285.26 67.5882 251.199 67.5882 209.096C67.5882 203.892 69.0061 197.269 71.842 188.754C74.2052 181.658 73.2599 174.089 69.0061 167.466C67.5882 165.574 66.6429 163.208 65.6976 161.316C62.8618 154.693 60.9712 147.597 60.9712 140.501C60.9712 111.644 85.5487 88.4636 115.325 88.4636C125.251 88.4636 134.704 90.829 142.739 95.5596C150.301 99.8172 159.754 99.8172 167.316 95.5596C175.824 90.829 185.277 88.4636 194.73 88.4636C224.506 88.4636 249.084 111.644 249.084 140.501C249.084 147.597 247.666 154.693 244.357 161.316C243.412 163.208 242.467 165.574 241.049 167.466C236.795 174.089 235.85 181.658 238.213 188.754C241.049 197.269 242.467 204.365 242.467 209.096C243.412 251.199 203.71 285.26 155.5 285.26ZM115.325 97.925C90.7478 97.925 70.4241 116.848 70.4241 140.501C70.4241 146.178 71.842 151.855 74.2052 157.531C75.1505 159.424 76.0958 160.843 77.0411 162.735C82.7128 171.723 84.1308 182.131 80.8223 192.065C78.459 199.634 77.0411 205.784 77.0411 209.569C77.0411 246.468 112.489 276.271 155.5 276.271C198.983 276.271 233.959 246.468 233.959 209.569C233.959 205.784 232.541 199.634 230.178 192.065C226.869 182.131 228.287 171.723 233.959 162.735C234.904 161.316 235.85 159.424 236.795 157.531C239.158 152.328 240.576 146.651 240.576 140.501C240.576 116.848 220.252 97.925 195.675 97.925C187.64 97.925 179.605 99.8172 172.515 104.075C162.117 110.225 149.356 110.225 138.485 104.075C131.395 99.8172 123.36 97.925 115.325 97.925Z" fill="#FFB300"/>
<path d="M151.246 190.173C150.301 192.065 147.937 193.011 146.047 192.065L136.594 187.808C134.703 186.862 133.758 184.496 134.703 182.604C135.649 180.712 138.012 179.766 139.902 180.712L149.355 184.969C151.246 185.915 152.191 188.281 151.246 190.173Z" fill="#FFB300"/>
<path d="M159.754 190.173C160.699 192.065 163.062 193.011 164.953 192.065L174.406 187.808C176.296 186.862 177.242 184.496 176.296 182.604C175.351 180.712 172.988 179.766 171.097 180.712L161.644 184.969C159.754 185.915 158.808 188.281 159.754 190.173Z" fill="#FFB300"/>
<path d="M112.49 164.154C102.091 164.154 93.5837 156.112 93.5837 145.705V140.974C93.5837 131.04 102.091 122.524 112.49 122.524C122.888 122.524 131.395 130.567 131.395 140.974V145.705C131.395 156.112 122.888 164.154 112.49 164.154ZM112.49 132.459C107.29 132.459 103.037 136.243 103.037 141.447V146.178C103.037 150.908 107.29 155.166 112.49 155.166C117.689 155.166 121.942 151.381 121.942 146.178V141.447C121.942 136.716 117.689 132.459 112.49 132.459Z" fill="#FFB300"/>
<path d="M198.038 164.154C187.64 164.154 179.132 156.112 179.132 145.705V140.974C179.132 131.04 187.64 122.524 198.038 122.524C208.436 122.524 216.944 130.567 216.944 140.974V145.705C216.944 156.112 208.436 164.154 198.038 164.154ZM198.038 132.459C192.839 132.459 188.585 136.243 188.585 141.447V146.178C188.585 150.908 192.839 155.166 198.038 155.166C203.237 155.166 207.491 151.381 207.491 146.178V141.447C207.491 136.716 203.237 132.459 198.038 132.459Z" fill="#FFB300"/>
</svg>
