
<svg width="128" height="128" viewBox="0 0 512 512" xmlns="http://www.w3.org/2000/svg" xmlns:xlink="http://www.w3.org/1999/xlink" id="Capa_1" overflow="hidden"><g><g><path d="M140.8 470C115.1 470 89.9 459.9 70.9 441 42.9 413 34.3 371.2 49 334.4L75.9 267.3C97.1 214.3 128.3 167 168.6 126.6 209 86.2 256.3 55 309.3 33.9L376.4 7C413.2-7.6 455 1 483 29 511 57 519.6 98.8 504.9 135.6L478 202.7C456.8 255.7 425.6 303 385.3 343.4 344.9 383.8 297.6 415 244.6 436.1L177.5 463C165.6 467.7 153.1 470 140.8 470Z" fill="#00DD80"/></g><path d="M512 98.3C511.9 72.8 501.8 47.7 483 28.9L70.9 441.1C89.8 460 115 470.1 140.8 470.1 153.1 470.1 165.6 467.8 177.5 463L244.6 436.1C297.6 414.9 344.9 383.7 385.3 343.4 425.7 303 456.9 255.7 478 202.7L504.9 135.6C509.5 124.2 511.8 112.3 512 100.5Z" fill="#00AA63"/><path d="M398.8 168.9 364.3 168.9 407.6 125.6C413.5 119.7 413.5 110.2 407.6 104.4 401.7 98.6 392.2 98.5 386.4 104.4L343.1 147.7 343.1 113.2C343.1 104.9 336.4 98.2 328.1 98.2 319.8 98.2 313.1 104.9 313.1 113.2L313.1 177.7 279.5 211.3 279.5 148.5C279.5 140.2 272.8 133.5 264.5 133.5 256.2 133.5 249.5 140.2 249.5 148.5L249.5 241.3 215.9 274.9 215.9 198C215.9 189.7 209.2 183 200.9 183 192.6 183 185.9 189.7 185.9 198L185.9 304.9 152.3 338.5 152.3 304C152.3 295.7 145.6 289 137.3 289 129 289 122.3 295.7 122.3 304L122.3 368.5 4.4 486.4C-1.5 492.3-1.5 501.8 4.4 507.6 10.3 513.5 19.8 513.5 25.6 507.6L143.4 389.8 207.9 389.8C216.2 389.8 222.9 383.1 222.9 374.8 222.9 366.5 216.2 359.8 207.9 359.8L173.4 359.8 207 326.2 314 326.2C322.3 326.2 329 319.5 329 311.2 329 302.9 322.3 296.2 314 296.2L237.1 296.2 270.7 262.6 363.5 262.6C371.8 262.6 378.5 255.9 378.5 247.6 378.5 239.3 371.8 232.6 363.5 232.6L300.7 232.6 334.3 199 398.8 199C407.1 199 413.8 192.3 413.8 184 413.8 175.7 407.1 168.9 398.8 168.9Z" fill="#00AA63"/><path d="M15 512C18.8 512 22.7 510.5 25.6 507.6L143.4 389.8 207.9 389.8C216.2 389.8 222.9 383.1 222.9 374.8 222.9 366.5 216.2 359.8 207.9 359.8L173.4 359.8 207 326.2 314 326.2C322.3 326.2 329 319.5 329 311.2 329 302.9 322.3 296.2 314 296.2L237.1 296.2 270.7 262.6 363.5 262.6C371.8 262.6 378.5 255.9 378.5 247.6 378.5 239.3 371.8 232.6 363.5 232.6L300.7 232.6 334.3 199 398.8 199C407.1 199 413.8 192.3 413.8 184 413.8 175.7 407.1 169 398.8 169L364.3 169 407.6 125.7C413.5 119.8 413.5 110.3 407.6 104.5L4.4 507.6C7.3 510.5 11.2 512 15 512Z" fill="#00884F"/></g></svg>