<svg id="Capa_3" data-name="Capa 3" xmlns="http://www.w3.org/2000/svg" xmlns:xlink="http://www.w3.org/1999/xlink" viewBox="0 0 2100 300"><defs><style>.cls-1{fill:none;}.cls-2{clip-path:url(#clip-path);}.cls-3{clip-path:url(#clip-path-2);}.cls-27,.cls-4,.cls-8{fill:#fff;}.cls-13,.cls-4{opacity:0.1;}.cls-5{clip-path:url(#clip-path-3);}.cls-6{clip-path:url(#clip-path-4);}.cls-7{fill:url(#Naamloos_verloop_23);}.cls-9{opacity:0.67;}.cls-10{fill:#606060;}.cls-11{fill:#3f3f3f;}.cls-11,.cls-14,.cls-27{opacity:0.5;}.cls-12{fill:#787878;opacity:0.75;}.cls-15{fill:#e5e5e5;}.cls-16,.cls-25{fill:#cbcbcb;}.cls-17{fill:#b2b2b2;}.cls-18{fill:#f1f1f1;}.cls-19{fill:#976856;}.cls-20{fill:#f0dcb8;}.cls-21,.cls-24{fill:#4c403f;}.cls-22{fill:#d56c71;}.cls-23{fill:#5b535f;}.cls-24{isolation:isolate;opacity:0.35;}.cls-25{opacity:0.33;}.cls-26{fill:#989898;opacity:0.2;}.cls-28{fill:#acacac;}.cls-29{fill:#666;}.cls-30{fill:#ebc44d;}</style><clipPath id="clip-path"><rect class="cls-1" x="1653.56" width="1380" height="300"/></clipPath><clipPath id="clip-path-2"><rect class="cls-1" x="1643.14" y="-326.75" width="1403.95" height="573.12"/></clipPath><clipPath id="clip-path-3"><rect class="cls-1" width="1380" height="300"/></clipPath><clipPath id="clip-path-4"><rect class="cls-1" x="0.53" y="-319.63" width="1378.95" height="562.91"/></clipPath><radialGradient id="Naamloos_verloop_23" cx="940.16" cy="3994.53" r="1022.94" gradientTransform="translate(4.35 -2324.41) scale(1.01 0.62)" gradientUnits="userSpaceOnUse"><stop offset="0" stop-color="#5ea6ee"/><stop offset="1" stop-color="#306fb5"/></radialGradient></defs><g class="cls-2"><g class="cls-3"><path class="cls-4" d="M3183.92,317.39V69.28a34,34,0,0,0-29,3.34,63.85,63.85,0,0,0-107.43,26.25,49.34,49.34,0,0,0-18.19-3.45c-21.6,0-39.86,13.77-45.82,32.68a58.46,58.46,0,0,0-34.59-11.17c-26.69,0-49,17.43-54.94,40.85a32.71,32.71,0,0,0-13.81-3.06A32.26,32.26,0,0,0,2854.73,167,93.22,93.22,0,0,0,2827,152.44a29.85,29.85,0,0,0,1.58-9.53c0-17-14.28-30.7-31.91-30.7l-.41,0c-2.36-15.38-16.1-27.18-32.74-27.18-15.35,0-28.23,10-32,23.67-.38,0-.76-.06-1.15-.06-15.46,0-28.36,10.59-31.29,24.63a95.4,95.4,0,0,0-26.51,7.84c-1-16.12-14.82-28.92-31.82-28.92-.87,0-1.73.06-2.58.12a23.9,23.9,0,0,0,2.58-10.75c0-12-8.9-22-20.71-24.31a47.79,47.79,0,0,0,2.29-14.66c0-27.39-23.08-49.59-51.56-49.59a53.46,53.46,0,0,0-15.75,2.36,106.11,106.11,0,0,0,8.38-41.33c0-62-53.32-112.18-119.09-112.18-49.31,0-91.63,28.24-109.71,68.49a33.87,33.87,0,0,0-19.19-5.91,33.89,33.89,0,0,0-18,5.15A64,64,0,0,0,2248.56-90,63.75,63.75,0,0,0,2190-44.15a49.29,49.29,0,0,0-18.18-3.45c-26.45,0-47.88,20.62-47.88,46.05a44.5,44.5,0,0,0,5.9,22.17,19.74,19.74,0,0,0,1.68,36,77.9,77.9,0,0,0,4.75,53.4,117.81,117.81,0,0,0-20.09,17.38c-15.83-24.62-44.91-41.14-78.19-41.14a96.7,96.7,0,0,0-41.35,9.19c-7-17.13-24.3-29.27-44.58-29.27a48.38,48.38,0,0,0-38.86,19.17,49.24,49.24,0,0,0-64.61-4.42c-10-36.3-45.61-63.16-88-63.16-38.67,0-71.67,22.3-84.78,53.71a32.87,32.87,0,0,0-6.07-.57,32,32,0,0,0-29,17.93,21.43,21.43,0,0,0-2.91-.22c-11.53,0-20.88,9-20.88,20.07a19.43,19.43,0,0,0,2.37,9.27,30.29,30.29,0,0,0-13.41,25,29.61,29.61,0,0,0,1.37,8.92,97.65,97.65,0,0,0-28.38-4.2c-33.48,0-62.71,16.73-78.47,41.61a31.93,31.93,0,0,0-29.57-19.17,32.65,32.65,0,0,0-16.78,4.62,31.87,31.87,0,0,0-29.88-20,32.6,32.6,0,0,0-20.31,7,48.26,48.26,0,0,0-41.07-22.37,48.82,48.82,0,0,0-29.46,9.77V317.39Z"/></g></g><g class="cls-5"><g class="cls-6"><rect class="cls-7" x="-214.92" y="-355.11" width="1829.94" height="601.32"/><path class="cls-4" d="M1513.86,313V69.35a33.37,33.37,0,0,0-28.42,3.28,62.72,62.72,0,0,0-105.52,25.78A48.48,48.48,0,0,0,1362.05,95c-21.21,0-39.15,13.53-45,32.1a57.4,57.4,0,0,0-34-11c-26.21,0-48.16,17.12-54,40.12a32.25,32.25,0,0,0-13.57-3,31.69,31.69,0,0,0-25,12,91.34,91.34,0,0,0-27.2-14.26,29.08,29.08,0,0,0,1.56-9.36c0-16.66-14-30.16-31.35-30.16l-.39,0c-2.33-15.1-15.82-26.69-32.17-26.69-15.07,0-27.72,9.87-31.42,23.25-.38,0-.75-.06-1.13-.06-15.19,0-27.86,10.4-30.74,24.19a93.85,93.85,0,0,0-26,7.7c-.95-15.84-14.56-28.41-31.26-28.41-.85,0-1.69.06-2.53.12a23.49,23.49,0,0,0,2.53-10.56c0-11.81-8.74-21.65-20.34-23.88a47,47,0,0,0,2.25-14.39c0-26.91-22.67-48.71-50.64-48.71a52.55,52.55,0,0,0-15.47,2.32,104.35,104.35,0,0,0,8.23-40.6c0-60.85-52.37-110.18-117-110.18-48.44,0-90,27.74-107.77,67.28a33.22,33.22,0,0,0-18.85-5.81,33.36,33.36,0,0,0-17.7,5.05,62.9,62.9,0,0,0-48-19.3,62.63,62.63,0,0,0-57.53,45.09,48.42,48.42,0,0,0-17.86-3.39c-26,0-47,20.25-47,45.23a43.74,43.74,0,0,0,5.8,21.77,19.39,19.39,0,0,0,1.65,35.33,76.58,76.58,0,0,0,4.66,52.45,115.26,115.26,0,0,0-19.73,17.08C449.59,102.22,421,86,388.34,86a95,95,0,0,0-40.61,9c-6.85-16.82-23.87-28.74-43.79-28.74A47.51,47.51,0,0,0,265.77,85.1a48.36,48.36,0,0,0-63.45-4.34c-9.81-35.66-44.81-62-86.49-62-38,0-70.39,21.91-83.27,52.76a32.65,32.65,0,0,0-6-.56A31.41,31.41,0,0,0-1.89,88.53a20.84,20.84,0,0,0-2.87-.21c-11.32,0-20.5,8.82-20.5,19.71a19.07,19.07,0,0,0,2.32,9.1,29.78,29.78,0,0,0-13.17,24.54,29.18,29.18,0,0,0,1.35,8.76,96,96,0,0,0-27.88-4.12c-32.88,0-61.59,16.43-77.07,40.86a31.36,31.36,0,0,0-29-18.83,32,32,0,0,0-16.48,4.54,31.3,31.3,0,0,0-29.35-19.61,32,32,0,0,0-19.95,6.89,47.4,47.4,0,0,0-40.34-22,48,48,0,0,0-28.93,9.59V313Z"/><path class="cls-4" d="M1615.86,128.82a18,18,0,0,0-6.87-3.31,10.4,10.4,0,0,0-9.06-5.69c-5.83,0-10.55,5.2-10.55,11.63v.27c-1.8-.17-3.62-.27-5.47-.27a60.2,60.2,0,0,0-34.53,11,17.47,17.47,0,0,0-4.05-.49c-10.45,0-18.93,9.34-18.93,20.85,0,.26,0,.52,0,.78h0c-4.83,0-8.74,4.31-8.74,9.62a9.82,9.82,0,0,0,4.39,8.34,76.32,76.32,0,0,0-2.71,15.72h-.22a31.32,31.32,0,0,0-23.79,11.3A37.37,37.37,0,0,0,1481,184.21c-1.46-9.91-9.24-17.48-18.66-17.48a17.25,17.25,0,0,0-6.29,1.21,9.77,9.77,0,0,0-5.35-1.62c-5.44,0-9.92,4.54-10.49,10.37a20.24,20.24,0,0,0-11.35-3.5,19.88,19.88,0,0,0-5.36.75,41.5,41.5,0,0,0-27.23-10.27h-.78c-.8-4.4-4.33-7.71-8.56-7.71A8,8,0,0,0,1383,157a16.85,16.85,0,0,0-5.91-9.51,11.78,11.78,0,0,0,1.12-5c0-6-4.44-10.92-9.92-10.92a9.18,9.18,0,0,0-1.38.12c-2.39-5.75-7.65-9.75-13.77-9.75a13.73,13.73,0,0,0-2.88.31C1344,105.16,1328.35,93,1310,93c-14.85,0-27.93,7.93-35.69,20a9.55,9.55,0,0,0-2.63-.38c-5.5,0-10,4.63-10.51,10.55a20.66,20.66,0,0,0-7.13-1.28,21.74,21.74,0,0,0-16.52,7.85,22.15,22.15,0,0,0-18.46-10.42c-9.63,0-17.86,6.6-21.17,15.92a40.81,40.81,0,0,0-30.19-3.61c-4.36-11.32-14.54-19.25-26.41-19.25a26.46,26.46,0,0,0-5.66.62,11.28,11.28,0,0,0,4.15-8.88,11.1,11.1,0,0,0-5.14-9.56,26.89,26.89,0,0,0,2.81-12c0-13.83-10.18-25-22.73-25a21,21,0,0,0-8.64,1.87c-3.54-13.91-14.48-24.32-27.81-25a26.64,26.64,0,0,0-3.58.08c-7.42-15.59-22.25-26.22-39.33-26.22a40.79,40.79,0,0,0-13.2,2.19c-2-7.14-8.09-12.33-15.24-12.33-6.56,0-12.2,4.37-14.65,10.6a53.56,53.56,0,0,0-7-.46c-31.23,0-56.55,27.31-56.55,61a65.21,65.21,0,0,0,4,22.47,22.41,22.41,0,0,0-7.47-1.28c-13.52,0-24.49,12.07-24.49,27a29.46,29.46,0,0,0,1.09,8c-5.61,1.23-9.83,6.67-9.83,13.21a14.64,14.64,0,0,0,1.22,5.85c-.4,0-.81-.07-1.22-.07-8.08,0-14.66,7-15.11,15.73a40.91,40.91,0,0,0-12.59-4.26c-1.39-7.64-7.51-13.39-14.86-13.39l-.54,0c-1.79-7.41-7.91-12.88-15.19-12.88-6.19,0-11.5,3.94-14.07,9.64a9,9,0,0,0-7.56-4.37c-5.12,0-9.25,4.56-9.25,10.19,0,.08,0,.15,0,.24-1.58-.15-3.18-.24-4.8-.24a52.72,52.72,0,0,0-30.25,9.62,15.49,15.49,0,0,0-3.56-.43c-.24,0-.48,0-.71.05A25.63,25.63,0,0,0,745.7,147a24,24,0,0,0-2.41.13,19,19,0,0,0-11.89-9,10.37,10.37,0,0,0-9.06-5.69c-5.83,0-10.55,5.2-10.55,11.62,0,.1,0,.18,0,.28-1.81-.17-3.63-.28-5.47-.28a60.19,60.19,0,0,0-34.53,11,17.62,17.62,0,0,0-4.06-.49c-10.45,0-18.92,9.33-18.92,20.85,0,.26,0,.52,0,.78h0a8.05,8.05,0,0,0-1.11.08,35.79,35.79,0,0,0-14.06-2.9H633a7.88,7.88,0,0,0-7.5-6.76,7.07,7.07,0,0,0-3.46.92,14.76,14.76,0,0,0-5.18-8.33,10.23,10.23,0,0,0,1-4.41c0-5.28-3.89-9.56-8.69-9.56a8.12,8.12,0,0,0-1.21.1,13.28,13.28,0,0,0-12.07-8.55,12.39,12.39,0,0,0-2.52.28c-5.46-15-19.19-25.59-35.28-25.59-13,0-24.47,6.95-31.27,17.53a8.43,8.43,0,0,0-2.31-.33c-4.81,0-8.77,4.06-9.2,9.24a18.12,18.12,0,0,0-6.25-1.13,19,19,0,0,0-14.48,6.89,19.41,19.41,0,0,0-16.17-9.14c-8.44,0-15.65,5.79-18.55,13.95a35.86,35.86,0,0,0-26.45-3.16c-3.82-9.91-12.74-16.87-23.14-16.87a23.2,23.2,0,0,0-5,.55,9.88,9.88,0,0,0,3.64-7.78,9.75,9.75,0,0,0-4.5-8.38,23.65,23.65,0,0,0,2.45-10.56c0-12.12-8.91-21.94-19.92-21.94a18.37,18.37,0,0,0-7.56,1.64C376.27,69.75,366.69,60.63,355,60.07a23.44,23.44,0,0,0-3.14.07c-6.5-13.65-19.49-23-34.46-23a35.57,35.57,0,0,0-11.56,1.92c-1.78-6.26-7.09-10.8-13.36-10.8-5.75,0-10.68,3.82-12.83,9.29a45.66,45.66,0,0,0-6.11-.41C246.19,37.17,224,61.1,224,90.61a57,57,0,0,0,3.48,19.69,19.8,19.8,0,0,0-6.55-1.12c-11.85,0-21.45,10.58-21.45,23.63a25.8,25.8,0,0,0,.95,7c-4.91,1.08-8.61,5.86-8.61,11.59a12.75,12.75,0,0,0,1.07,5.12c-.36,0-.71-.06-1.07-.06-7.08,0-12.84,6.09-13.24,13.78a36,36,0,0,0-11-3.74c-1.22-6.69-6.59-11.73-13-11.73l-.48,0c-1.57-6.49-6.92-11.28-13.31-11.28-6.92,0-12.64,5.62-13.62,12.95H127c-7.34,0-13.28,6.55-13.28,14.62a16.2,16.2,0,0,0,.66,4.55,37.23,37.23,0,0,0-11.52,6.91,12.89,12.89,0,0,0-10.59-5.83,12.12,12.12,0,0,0-5.75,1.46C84,167,74.73,158.69,63.62,158.69c-.71,0-1.41,0-2.11.11a16.68,16.68,0,0,0-10.41-7.91,9.13,9.13,0,0,0-8-5c-5.1,0-9.24,4.56-9.24,10.19,0,.08,0,.15,0,.24-1.58-.15-3.18-.24-4.8-.24a52.74,52.74,0,0,0-30.25,9.62,15.47,15.47,0,0,0-3.55-.43c-9.16,0-16.59,8.18-16.59,18.27,0,.23,0,.46,0,.69h0c-4.23,0-7.66,3.78-7.66,8.43A8.61,8.61,0,0,0-25.07,200a67.55,67.55,0,0,0-2.38,13.77h-.19a27.39,27.39,0,0,0-20.84,9.9A32.77,32.77,0,0,0-61,202.33c-1.28-8.68-8.1-15.31-16.34-15.31a15.22,15.22,0,0,0-5.52,1,8.57,8.57,0,0,0-4.68-1.42c-4.77,0-8.7,4-9.2,9.09a17.77,17.77,0,0,0-9.94-3.07c-7.54,0-14.06,4.81-17.18,11.79a14.23,14.23,0,0,0-8.29-2.7,14.87,14.87,0,0,0-12.22,6.73,6.82,6.82,0,0,0-5.68-3.21c-3.88,0-7,3.46-7,7.73a8.19,8.19,0,0,0,1.47,4.72c-.56,0-1.11-.07-1.68-.07-10.72,0-19.87,7.4-23.48,17.82a51.21,51.21,0,0,0-8.15-.65c-.48,0-.95,0-1.42,0v0a15.45,15.45,0,0,0-8.6-14.19l-4.56,223.3,1819.4-4.33Z"/></g><rect class="cls-8" x="0.53" y="243.28" width="1378.95" height="222.64"/><g class="cls-9"><rect class="cls-10" x="0.53" y="243.28" width="1378.95" height="222.64"/><path class="cls-11" d="M690.42,465.92l-.17-222.64H689l0,44.77H598.38l4.68-44.77h-1.28L597,288.05H506.47l9.39-44.77h-1.27l-9.46,44.77H414.56l14.12-44.77h-1.27l-14.19,44.77H322.66l18.83-44.77h-1.26l-18.91,44.77H230.75l23.56-44.77H253l-23.62,44.77H138.86l28.27-44.77h-1.28l-28.33,44.77H47l33-44.77H78.66l-33,44.77H.53v1.54H44.47L.53,349.12v1.94l45.29-61.47h90.71l-67.72,107H.53v1.95h67L24.93,465.92h1.62l42.53-67.36h102l-35.53,67.36h1.62l35.43-67.36h102l-28.44,67.36h1.62l28.33-67.36h102l-21.34,67.36h1.61l21.24-67.36h102L467.5,465.92h1.63l14.14-67.36h102l-7.15,67.36h1.62l7-67.36h102l-.05,67.36ZM172.14,396.61H70.31l67.58-107H228.6Zm103.35,0H173.65l56.3-107h90.71Zm103.33,0H277l45-107h90.71Zm103.35,0H380.34l33.74-107h90.71Zm103.33,0H483.68l22.47-107h90.71Zm1.52,0,11.19-107h90.73l-.09,107Zm792.45-108.56H1333.6l-33-44.77h-1.28l33,44.77h-90.56l-28.33-44.77h-1.28l28.27,44.77H1149.8l-23.62-44.77h-1.29l23.56,44.77h-90.56L1039,243.28h-1.28l18.85,44.77H966L951.8,243.28h-1.28l14.12,44.77H874.08l-9.46-44.77h-1.28l9.4,44.77H782.18l-4.75-44.77h-1.28l4.68,44.77H690.36v1.54H781l11.19,107H690.45v1.95H792.39l7.05,67.36h1.61l-7.14-67.36h102l14.14,67.36h1.62l-14.25-67.36h102l21.24,67.36h1.61L1001,398.56h102l28.33,67.36H1133l-28.44-67.36h102L1242,465.92h1.62l-35.53-67.36h102l42.52,67.36h1.63l-42.64-67.36h67.83v-1.95h-69.06l-67.73-107h90.71l46.08,62.56v-2l-44.73-60.59h44.73ZM793.71,396.61l-11.37-107h90.72l22.47,107Zm103.33,0-22.64-107h90.73l33.74,107Zm103.35,0-33.92-107h90.72l45,107Zm103.33,0-45.19-107h90.73l56.29,107Zm205.18,0H1207.07l-56.46-107h90.71Z"/><path class="cls-12" d="M436.68,274.68c0,.49-2.12.89-4.73.89s-4.74-.4-4.74-.89,2.12-.89,4.74-.89S436.68,274.19,436.68,274.68Z"/><ellipse class="cls-11" cx="44.94" cy="267.51" rx="6.65" ry="1.7"/><ellipse class="cls-11" cx="215.38" cy="277.49" rx="4.45" ry="1.91"/><path class="cls-10" d="M1356.23,267.08c0,1-3,1.74-6.66,1.74s-6.67-.78-6.67-1.74,3-1.75,6.67-1.75S1356.23,266.11,1356.23,267.08Z"/><ellipse class="cls-10" cx="1146.77" cy="256.74" rx="97.98" ry="1.55"/><path class="cls-10" d="M156.32,251.3c0,.77-9.88,1.39-22.07,1.39s-22.07-.62-22.07-1.39,9.88-1.39,22.07-1.39S156.32,250.53,156.32,251.3Z"/><ellipse class="cls-10" cx="417.26" cy="258.53" rx="48.02" ry="3.58"/><ellipse class="cls-11" cx="267.7" cy="254.41" rx="10.31" ry="1.75"/></g></g><ellipse class="cls-13" cx="1196.32" cy="265.46" rx="35.04" ry="5.71"/><g class="cls-14"><path class="cls-15" d="M1217.82,254.66a4.39,4.39,0,0,0-3.83,2,4.87,4.87,0,0,0-2.26-.54,5.83,5.83,0,0,0-.59,0c-1.14-3.41-4.91-5.93-9.4-5.93a10,10,0,0,0-8.87,4.72,7.49,7.49,0,0,0-3.25-.72,7.08,7.08,0,0,0-5.13,2.07,5.68,5.68,0,0,0-.59,0,7.54,7.54,0,0,0-3.26.73,5.27,5.27,0,0,0-5-3c-2.9,0-5.26,1.95-5.26,4.35s2.36,4.35,5.26,4.35a5.91,5.91,0,0,0,1.81-.27c.43,2.65,3.16,4.69,6.47,4.69A7,7,0,0,0,1189,265a5.83,5.83,0,0,0,.59,0,7.24,7.24,0,0,0,4.6-1.57,10.62,10.62,0,0,0,7.52,2.92,10.4,10.4,0,0,0,8.13-3.61,4.89,4.89,0,0,0,1.86.36,4.37,4.37,0,0,0,3.83-2,4.78,4.78,0,0,0,2.26.55c2.34,0,4.24-1.57,4.24-3.51S1220.16,254.66,1217.82,254.66Z"/><path class="cls-8" d="M1215.2,248.73a6.14,6.14,0,0,0-3.12.82c-.72-2.46-3.39-4.3-6.59-4.3a7.52,7.52,0,0,0-4.87,1.71,10.11,10.11,0,0,0-8.76-4.52c-4.22,0-7.8,2.22-9.17,5.32a7.5,7.5,0,0,0-3.58-.89c-3.61,0-6.53,2.42-6.53,5.41s2.92,5.4,6.53,5.4l.54,0a7.2,7.2,0,0,0,4.84,1.78,7.34,7.34,0,0,0,4.21-1.28,11.6,11.6,0,0,0,3.16.44,10.24,10.24,0,0,0,8.48-4.08,7.42,7.42,0,0,0,5.15,2,7.59,7.59,0,0,0,4.72-1.58,5.52,5.52,0,0,0,5,2.75c3,0,5.4-2,5.4-4.46S1218.18,248.73,1215.2,248.73Z"/></g><path class="cls-15" d="M1174.3,207.65s-37.6,28.37-20.43,53c2.86,4,5.67,4.92,5.67,4.92L1172.15,235Z"/><path class="cls-16" d="M1218.32,207.65s37.59,28.37,20.43,53c-2.86,4-5.68,4.92-5.68,4.92L1220.46,235Z"/><path class="cls-16" d="M1187.74,245.32h-16.13s-2.13,4.19-2.13,5.79h20.39C1189.87,249.51,1187.74,245.32,1187.74,245.32Z"/><polygon class="cls-17" points="1190.28 252.94 1168.85 252.94 1168.85 249.45 1190.28 250.12 1190.28 252.94"/><path class="cls-16" d="M1192.52,242.88v3.73h-23.14c0-.23,0-.47,0-.7v-.06c0-.69,0-1.36.09-2l2.23-.09,8.93-.37,2.2-.09,7.45-.3,1.17-.05Z"/><path class="cls-17" d="M1191.89,246.41s0,0,0-.06,0-.08,0-.13,0-.09,0-.13c-.14-.93-.27-2-.38-3.17l-1.17.05,1,3.11-7.44-.08-.71-1.9-2.28.09.49,1.79-9.55-.11-.1-2.14-2.23.09c0,.67-.08,1.34-.09,2v.06c0,.23,0,.47,0,.7h22.54Z"/><path class="cls-16" d="M1204.88,245.32H1221s2.13,4.19,2.13,5.79h-20.39C1202.75,249.51,1204.88,245.32,1204.88,245.32Z"/><polygon class="cls-17" points="1202.33 252.94 1223.77 252.94 1223.77 249.45 1202.33 250.12 1202.33 252.94"/><path class="cls-16" d="M1200.1,242.88v3.73h23.13v-.76c0-.69,0-1.36-.09-2l-2.23-.09-8.93-.37-2.21-.09-7.44-.3-1.18-.05Z"/><path class="cls-17" d="M1200.73,246.41a.13.13,0,0,1,0-.06.69.69,0,0,1,0-.13.59.59,0,0,1,0-.13c.14-.93.26-2,.37-3.17l1.18.05-1,3.11,7.43-.08.71-1.9,2.29.09-.49,1.79,9.55-.11.1-2.14,2.23.09c0,.67.07,1.34.09,2v.76h-22.54A1.42,1.42,0,0,0,1200.73,246.41Z"/><path class="cls-18" d="M1224.29,64.93V242.66c0,1-1.06,1.75-2.36,1.75h-51.22c-1.31,0-2.36-.78-2.36-1.75V64.93h0c0-.49,0-1,0-1.46.54-12.32,7.83-22.07,14.83-28.65l.46-.42.84-.77a68.6,68.6,0,0,1,11.65-8.41l.14-.08h0a66.87,66.87,0,0,1,11.8,8.49l.84.77c.49.45,1,.92,1.48,1.4,6.67,6.55,13.3,15.94,13.81,27.67C1224.27,64,1224.29,64.44,1224.29,64.93Z"/><path class="cls-19" d="M1184.52,115.11a10.9,10.9,0,0,0-.39,2.9v.2a15.39,15.39,0,0,1-.4,3.52,3.67,3.67,0,0,1-1.65-1.26c-1.41-1.79-.94-4.66.8-5.34a2.21,2.21,0,0,1,1.64,0Z"/><path class="cls-20" d="M1184.52,115.11a10.9,10.9,0,0,0-.39,2.9v.2a15.39,15.39,0,0,1-.4,3.52,3.67,3.67,0,0,1-1.65-1.26c-1.41-1.79-.94-4.66.8-5.34a2.21,2.21,0,0,1,1.64,0Z"/><path class="cls-19" d="M1210.55,120.47a3.78,3.78,0,0,1-1.64,1.26,14.35,14.35,0,0,1-.4-3.52V118a10.93,10.93,0,0,0-.4-2.91,2.16,2.16,0,0,1,1.64,0C1211.49,115.81,1212,118.68,1210.55,120.47Z"/><path class="cls-20" d="M1210.55,120.47a3.78,3.78,0,0,1-1.64,1.26,14.35,14.35,0,0,1-.4-3.52V118a10.93,10.93,0,0,0-.4-2.91,2.16,2.16,0,0,1,1.64,0C1211.49,115.81,1212,118.68,1210.55,120.47Z"/><path class="cls-19" d="M1205.12,121.77a3.16,3.16,0,0,0-.34,2.71,7,7,0,0,1,.43,2c0,4.2-4,7.61-8.89,7.61s-8.9-3.41-8.9-7.61a7.08,7.08,0,0,1,.44-2,3.16,3.16,0,0,0-.35-2.71c-.12-.19-.23-.4-.33-.6a4.9,4.9,0,0,1-.44-2,5.19,5.19,0,0,1,5.31-5.06,5.48,5.48,0,0,1,2.71.71,3.16,3.16,0,0,0,3.12,0,5.45,5.45,0,0,1,2.7-.71,5.18,5.18,0,0,1,5.31,5.06,4.9,4.9,0,0,1-.44,2A3.93,3.93,0,0,1,1205.12,121.77Z"/><path class="cls-20" d="M1205.12,121.77a3.16,3.16,0,0,0-.34,2.71,7,7,0,0,1,.43,2c0,4.2-4,7.61-8.89,7.61s-8.9-3.41-8.9-7.61a7.08,7.08,0,0,1,.44-2,3.16,3.16,0,0,0-.35-2.71c-.12-.19-.23-.4-.33-.6a4.9,4.9,0,0,1-.44-2,5.19,5.19,0,0,1,5.31-5.06,5.48,5.48,0,0,1,2.71.71,3.16,3.16,0,0,0,3.12,0,5.45,5.45,0,0,1,2.7-.71,5.18,5.18,0,0,1,5.31,5.06,4.9,4.9,0,0,1-.44,2A3.93,3.93,0,0,1,1205.12,121.77Z"/><path class="cls-21" d="M1191.78,127.45a.51.51,0,0,0-.51.51.13.13,0,0,0,0,.06,5.18,5.18,0,0,0,10.08,0,.51.51,0,0,0-.44-.57h-9.14Z"/><path class="cls-22" d="M1193.39,131.18a5.51,5.51,0,0,0,5.85,0c-.36-1.27-1.54-1-2.92-1S1193.76,129.91,1193.39,131.18Z"/><path class="cls-19" d="M1210.35,114.19a2.73,2.73,0,0,0-2.47.15c-.15-.43-.31-.84-.5-1.25s-.28-.59-.44-.87a13.68,13.68,0,0,0-7.43-6.43l-.06-1.68-2,1.21-.25,0a3.25,3.25,0,0,0-.44,0l-.3-1.27-.08-.37h-.3a3.88,3.88,0,0,0-3,2.15,13.74,13.74,0,0,0-7.43,6.42c-.15.29-.3.58-.44.88s-.35.82-.49,1.24l-.08,0a2.78,2.78,0,0,0-2.4-.1c-2.21.86-2.81,4.51-1,6.78a4.74,4.74,0,0,0,2.25,1.66l0,.12a9,9,0,0,0-.2,1.86c0,4.34,3.2,8.08,7.79,9.72a14.66,14.66,0,0,0,3.33.78,17.54,17.54,0,0,0,1.78.12h.14c7.2,0,13-4.76,13-10.62a8.35,8.35,0,0,0-.21-1.86.69.69,0,0,0,0-.13,4.58,4.58,0,0,0,2.24-1.65C1213.16,118.7,1212.56,115.05,1210.35,114.19Zm-25.83.92a10.9,10.9,0,0,0-.39,2.9v.2a15.39,15.39,0,0,1-.4,3.52,3.67,3.67,0,0,1-1.65-1.26c-1.41-1.79-.94-4.66.8-5.34a2.21,2.21,0,0,1,1.64,0Zm20.93,6.06a3.93,3.93,0,0,1-.33.6,3.16,3.16,0,0,0-.34,2.71,7.08,7.08,0,0,1,.44,2c0,4.2-4,7.61-8.9,7.61s-8.9-3.41-8.9-7.61a7.08,7.08,0,0,1,.44-2,3.16,3.16,0,0,0-.35-2.71c-.12-.19-.23-.4-.33-.6a4.9,4.9,0,0,1-.44-2,5.19,5.19,0,0,1,5.31-5.06,5.48,5.48,0,0,1,2.71.71,3.16,3.16,0,0,0,3.12,0,5.45,5.45,0,0,1,2.7-.71,5.18,5.18,0,0,1,5.31,5.06A4.9,4.9,0,0,1,1205.45,121.17Zm5.1-.7a3.78,3.78,0,0,1-1.64,1.26,14.35,14.35,0,0,1-.4-3.52V118a10.93,10.93,0,0,0-.4-2.91,2.16,2.16,0,0,1,1.64,0c1.74.68,2.21,3.55.8,5.34Z"/><rect class="cls-21" x="1194.56" y="123.09" width="0.85" height="1.94" rx="0.43" transform="translate(585.64 1159.47) rotate(-65.45)"/><rect class="cls-21" x="1196.68" y="123.63" width="1.94" height="0.85" rx="0.43" transform="translate(56.72 508.82) rotate(-24.55)"/><path class="cls-21" d="M1191.74,121.16h0a1.48,1.48,0,0,1-1.52-1.44v-.48a1.49,1.49,0,0,1,1.52-1.45h0a1.49,1.49,0,0,1,1.53,1.45v.48A1.48,1.48,0,0,1,1191.74,121.16Z"/><path class="cls-23" d="M1191.74,117.79v1.69a.75.75,0,0,0,.77.72.74.74,0,0,0,.76-.72v-.24A1.49,1.49,0,0,0,1191.74,117.79Z"/><ellipse class="cls-8" cx="1191.74" cy="118.76" rx="0.51" ry="0.48"/><path class="cls-21" d="M1200.89,121.16h0a1.48,1.48,0,0,1-1.52-1.44v-.48a1.49,1.49,0,0,1,1.52-1.45h0a1.49,1.49,0,0,1,1.52,1.45v.48A1.48,1.48,0,0,1,1200.89,121.16Z"/><path class="cls-23" d="M1200.89,117.79v1.69a.76.76,0,0,0,1.52,0v-.24A1.49,1.49,0,0,0,1200.89,117.79Z"/><ellipse class="cls-8" cx="1200.89" cy="118.76" rx="0.51" ry="0.48"/><path class="cls-24" d="M1196.45,104c-.34,0-1.08.5-2,1.43-.22.23-.45.49-.69.77a20.9,20.9,0,0,0-4.48,8.62c-1.17,5.58-1.64,12.06.42,15.65a13.34,13.34,0,0,0,4.68,4.64,14.66,14.66,0,0,1-3.33-.78c-4.59-1.64-7.79-5.38-7.79-9.72a9,9,0,0,1,.2-1.86l0-.12a4.74,4.74,0,0,1-2.25-1.66c-1.79-2.27-1.19-5.92,1-6.78a2.78,2.78,0,0,1,2.4.1l.08,0c.14-.43.31-.84.49-1.25s.29-.59.44-.87a13.68,13.68,0,0,1,7.43-6.43,3.9,3.9,0,0,1,3-2.15h.3Z"/><polygon class="cls-25" points="1224.29 95.46 1224.29 96.9 1169.45 95.95 1168.35 95.94 1168.35 95.46 1168.35 95.46 1224.29 95.46"/><path class="cls-17" d="M1208.12,33.63a66.87,66.87,0,0,0-11.8-8.49h0l-.14.08a68.6,68.6,0,0,0-11.65,8.41Z"/><path class="cls-17" d="M1224.29,64.93h-55.94c0-.49,0-1,0-1.46h55.87C1224.27,64,1224.29,64.44,1224.29,64.93Z"/><path class="cls-17" d="M1224.29,95.46h-55.94c0-.49,0-1,0-1.46h55.87C1224.27,94.48,1224.29,95,1224.29,95.46Z"/><path class="cls-17" d="M1174.33,95.46l-.6,21-1.21,2.87.61-23.88Z"/><path class="cls-17" d="M1218.92,95.46v21c.4,1,.81,1.92,1.2,2.87V95.46Z"/><path class="cls-25" d="M1210.44,35.8c-6.13-.17-27.23-1-27.23-1l.46-.42H1209C1209.45,34.85,1210,35.32,1210.44,35.8Z"/><polygon class="cls-25" points="1224.29 64.93 1224.29 66.37 1169.45 65.42 1168.35 65.41 1168.35 64.93 1168.35 64.93 1224.29 64.93"/><path class="cls-16" d="M1202.27,214.53c0-2.68-1.8-4.85-4-4.85h-2.09l-.57,24.16.57,38.47s1.51-.49,2.83-4S1202.27,214.53,1202.27,214.53Z"/><path class="cls-15" d="M1194.36,209.68c-2.22,0-4,2.17-4,4.85,0,0,2.16,50.52,3.27,53.77s2.55,4,2.55,4V209.68Z"/><path class="cls-26" d="M1224.29,64.93V242.66c0,1-1.06,1.75-2.36,1.75h-11.49V63.47c0-22.34-14.13-38.33-14.13-38.33h0a66.87,66.87,0,0,1,11.8,8.49l.84.77c.49.45,1,.92,1.48,1.4,6.67,6.55,13.3,15.94,13.81,27.67C1224.27,64,1224.29,64.44,1224.29,64.93Z"/><rect class="cls-17" x="1166.93" y="159.14" width="58.77" height="2.53" rx="0.82"/><rect class="cls-17" x="1166.93" y="144.6" width="58.77" height="12.64" rx="0.82"/><path class="cls-18" d="M1183.29,154.36a2.71,2.71,0,0,1-.85.37,5.36,5.36,0,0,1-1.39.14,8.6,8.6,0,0,1-1.63-.14,4.32,4.32,0,0,1-1.1-.31c-.22-.11-.33-.23-.33-.33a4.52,4.52,0,0,1,.16-1.18c.11-.41.24-.61.38-.61l.84.27a4.26,4.26,0,0,0,1.21.27,1.12,1.12,0,0,0,.52-.08.29.29,0,0,0,.12-.25c0-.11-.07-.2-.22-.29a2.62,2.62,0,0,0-.55-.22,5.67,5.67,0,0,1-.73-.28,6.13,6.13,0,0,1-.72-.4,1.77,1.77,0,0,1-.56-.64,2,2,0,0,1-.22-.93c0-1.5.89-2.25,2.68-2.25a10.71,10.71,0,0,1,1.73.13,4,4,0,0,1,1,.28c.19.11.29.21.29.31a3.06,3.06,0,0,1-.24,1.13c-.17.41-.33.61-.48.61a1.25,1.25,0,0,1-.27-.09,2.76,2.76,0,0,0-1.1-.29,1.36,1.36,0,0,0-.6.08.25.25,0,0,0-.16.24c0,.12.08.21.22.28a3.63,3.63,0,0,0,.56.19,5.73,5.73,0,0,1,.71.26,4.77,4.77,0,0,1,.73.42,1.86,1.86,0,0,1,.55.67,2.18,2.18,0,0,1,.23,1,2,2,0,0,1-.32,1.1A1.9,1.9,0,0,1,1183.29,154.36Z"/><path class="cls-18" d="M1189.9,154.36a2.51,2.51,0,0,1-.85.37,5.36,5.36,0,0,1-1.39.14,8.43,8.43,0,0,1-1.62-.14,4.43,4.43,0,0,1-1.11-.31c-.22-.11-.33-.23-.33-.33a4.52,4.52,0,0,1,.16-1.18c.11-.41.24-.61.39-.61l.84.27a4.14,4.14,0,0,0,1.2.27,1.2,1.2,0,0,0,.53-.08.29.29,0,0,0,.12-.25c0-.11-.08-.2-.23-.29a2.41,2.41,0,0,0-.55-.22,6.29,6.29,0,0,1-.73-.28,7.06,7.06,0,0,1-.72-.4,1.66,1.66,0,0,1-.55-.64,1.89,1.89,0,0,1-.23-.93c0-1.5.9-2.25,2.68-2.25a10.62,10.62,0,0,1,1.73.13,3.85,3.85,0,0,1,1,.28c.2.11.3.21.3.31a3.09,3.09,0,0,1-.25,1.13c-.17.41-.33.61-.48.61a1.08,1.08,0,0,1-.26-.09,2.84,2.84,0,0,0-1.11-.29,1.42,1.42,0,0,0-.6.08.25.25,0,0,0-.15.24c0,.12.07.21.22.28a3.48,3.48,0,0,0,.55.19,5.83,5.83,0,0,1,.72.26,4.24,4.24,0,0,1,.72.42,1.88,1.88,0,0,1,.56.67,2.31,2.31,0,0,1,.22,1,2,2,0,0,1-.32,1.1A1.76,1.76,0,0,1,1189.9,154.36Z"/><path class="cls-18" d="M1195.63,152.86h-4.09c-.08,0-.14-.06-.2-.18a1.54,1.54,0,0,1-.08-.54,1.35,1.35,0,0,1,.23-.71c.14-.24.29-.36.43-.36H1196c.17,0,.26.22.26.66a1.57,1.57,0,0,1-.21.73C1195.89,152.73,1195.76,152.86,1195.63,152.86Z"/><path class="cls-18" d="M1199.16,154.72c-.41,0-.82.06-1.24.06a3.28,3.28,0,0,1-.79-.05c-.12,0-.17-.1-.17-.19v-6.29c0-.15.19-.29.58-.44a3.89,3.89,0,0,1,1.32-.21,1,1,0,0,1,.85.27.4.4,0,0,1,.07.2v6.47C1199.78,154.62,1199.57,154.67,1199.16,154.72Z"/><path class="cls-18" d="M1203.07,154.67a3.12,3.12,0,0,1-1,.11,4.94,4.94,0,0,1-1.25-.13c-.33-.09-.5-.21-.5-.35a31.2,31.2,0,0,1,.9-3.1c.6-1.9,1-3,1-3.29,0-.09.31-.16.82-.22a14,14,0,0,1,1.64-.09c.58,0,.9.11,1,.31q1.9,6.34,1.91,6.45a.27.27,0,0,1-.12.2,1.94,1.94,0,0,1-1.12.22q-1.8,0-1.83-.42l-.07-.66h-1l0,.57A.45.45,0,0,1,1203.07,154.67Zm1.11-2.89L1204,150h-.22l-.17,1.82Z"/><path class="cls-18" d="M1211.06,154.87a6,6,0,0,1-1.44-.15,3.06,3.06,0,0,1-1.11-.56c-.68-.54-1-1.56-1-3.07a4.39,4.39,0,0,1,.28-1.65,2.67,2.67,0,0,1,.77-1.13,3.81,3.81,0,0,1,2.52-.81,5.69,5.69,0,0,1,1.39.15,3.07,3.07,0,0,1,1.12.51,3.41,3.41,0,0,1,1.06,2.93,3.78,3.78,0,0,1-1,2.86A3.59,3.59,0,0,1,1211.06,154.87Zm-.33-1.73a.44.44,0,0,0,.66,0,1.59,1.59,0,0,0,.21-.63,9,9,0,0,0,.08-1.34,8.71,8.71,0,0,0-.08-1.32,1.53,1.53,0,0,0-.21-.61.46.46,0,0,0-.66,0,1.53,1.53,0,0,0-.21.61,8.71,8.71,0,0,0-.08,1.32,9,9,0,0,0,.08,1.34A1.59,1.59,0,0,0,1210.73,153.14Z"/><path class="cls-27" d="M1186.8,261.52a5,5,0,0,0-4.38,2.3,5.59,5.59,0,0,0-2.58-.62,5.07,5.07,0,0,0-.68,0c-1.3-3.91-5.62-6.79-10.75-6.79-4.51,0-8.38,2.22-10.15,5.4a8.6,8.6,0,0,0-3.71-.83,8.1,8.1,0,0,0-5.87,2.37c-.22,0-.44,0-.67,0a8.59,8.59,0,0,0-3.73.84,6,6,0,0,0-5.74-3.48c-3.32,0-6,2.23-6,5s2.69,5,6,5a7,7,0,0,0,2.07-.31c.49,3,3.61,5.37,7.4,5.37a8.1,8.1,0,0,0,5.87-2.37c.22,0,.45,0,.67,0a8.3,8.3,0,0,0,5.26-1.8,12.15,12.15,0,0,0,8.6,3.35,11.91,11.91,0,0,0,9.3-4.14,5.47,5.47,0,0,0,2.13.42,5,5,0,0,0,4.37-2.3,5.63,5.63,0,0,0,2.59.62c2.67,0,4.84-1.79,4.84-4S1189.47,261.52,1186.8,261.52Z"/><path class="cls-27" d="M1253.82,263.1a7.56,7.56,0,0,0-3.81,1c-.88-3-4.15-5.25-8.06-5.25a9.18,9.18,0,0,0-6,2.09c-2-3.27-6-5.53-10.71-5.53-5.16,0-9.55,2.71-11.22,6.5a9.22,9.22,0,0,0-4.38-1.08c-4.41,0-8,3-8,6.61s3.58,6.61,8,6.61c.23,0,.45,0,.67,0a8.78,8.78,0,0,0,5.91,2.18,9,9,0,0,0,5.15-1.57,14,14,0,0,0,3.87.54,12.51,12.51,0,0,0,10.36-5,9.1,9.1,0,0,0,6.31,2.41,9.24,9.24,0,0,0,5.77-1.94,6.74,6.74,0,0,0,6.1,3.38c3.64,0,6.6-2.45,6.6-5.47S1257.46,263.1,1253.82,263.1Z"/><rect class="cls-28" x="1100.84" y="187.95" width="8.53" height="88.78" rx="2.65"/><rect class="cls-28" x="868.19" y="187.95" width="8.53" height="88.78" rx="2.65"/><rect class="cls-29" x="956.97" y="87.71" width="63.61" height="267.68" rx="3.98" transform="translate(1210.33 -767.23) rotate(90)"/><rect class="cls-30" x="856.26" y="191.07" width="265.03" height="60.96" rx="2.65"/><rect x="856.26" y="193.72" width="265.03" height="13.25"/><path class="cls-30" d="M875.31,197.13l-1.65,6.33h-1.87l-1-4.17-1,4.17h-1.87l-1.6-6.33h1.65l.91,4.61,1.13-4.61h1.69l1.08,4.61.92-4.61Z"/><path class="cls-30" d="M880,202.34h-2.36l-.38,1.12h-1.61l2.29-6.33h1.78l2.29,6.33H880.4Zm-.4-1.19-.78-2.32-.78,2.32Z"/><path class="cls-30" d="M886,203.46l-1.31-2.39h-.37v2.39h-1.55v-6.33h2.59a3,3,0,0,1,1.28.26,1.82,1.82,0,0,1,.78.72,1.93,1.93,0,0,1,.27,1,1.88,1.88,0,0,1-.36,1.13,1.94,1.94,0,0,1-1,.7l1.46,2.51ZM884.27,200h1a.88.88,0,0,0,.64-.21.78.78,0,0,0,.21-.58.77.77,0,0,0-.21-.57.88.88,0,0,0-.64-.21h-1Z"/><path class="cls-30" d="M894.26,203.46h-1.54l-2.58-3.9v3.9H888.6v-6.33h1.54l2.58,3.92v-3.92h1.54Z"/><path class="cls-30" d="M896.92,197.13v6.33h-1.54v-6.33Z"/><path class="cls-30" d="M903.69,203.46h-1.54l-2.58-3.9v3.9H898v-6.33h1.54l2.58,3.92v-3.92h1.54Z"/><path class="cls-30" d="M909,199.13a1.19,1.19,0,0,0-.49-.48,1.66,1.66,0,0,0-.75-.17,1.57,1.57,0,0,0-1.2.49,2.18,2.18,0,0,0,0,2.68,1.7,1.7,0,0,0,1.3.49,1.52,1.52,0,0,0,1-.29,1.6,1.6,0,0,0,.57-.82h-1.95v-1.14h3.35v1.43a3,3,0,0,1-.58,1.07,3,3,0,0,1-1,.81,3.28,3.28,0,0,1-1.42.3,3.32,3.32,0,0,1-1.68-.41A2.84,2.84,0,0,1,905,202a3.35,3.35,0,0,1-.41-1.66,3.43,3.43,0,0,1,.41-1.68,2.84,2.84,0,0,1,1.14-1.14,3.39,3.39,0,0,1,1.67-.41,3.21,3.21,0,0,1,1.91.55,2.55,2.55,0,0,1,1,1.52Z"/><path class="cls-30" d="M922.75,204.62h-1.54v-8.51h1.54Z"/><path class="cls-30" d="M942.11,197.13l-1.65,6.33h-1.87l-1-4.17-1,4.17h-1.87l-1.6-6.33h1.65l.91,4.61,1.12-4.61h1.7l1.08,4.61.92-4.61Z"/><path class="cls-30" d="M946.82,202.34h-2.36l-.38,1.12h-1.61l2.28-6.33h1.79l2.29,6.33H947.2Zm-.4-1.19-.78-2.32-.78,2.32Z"/><path class="cls-30" d="M952.75,203.46l-1.32-2.39h-.37v2.39h-1.54v-6.33h2.59a2.87,2.87,0,0,1,1.27.26,1.85,1.85,0,0,1,.79.72A1.89,1.89,0,0,1,953,201l1.46,2.51ZM951.06,200h1a.86.86,0,0,0,.63-.21.75.75,0,0,0,.22-.58.74.74,0,0,0-.22-.57.86.86,0,0,0-.63-.21h-1Z"/><path class="cls-30" d="M961.06,203.46h-1.54l-2.58-3.9v3.9H955.4v-6.33h1.54l2.58,3.92v-3.92h1.54Z"/><path class="cls-30" d="M963.72,197.13v6.33h-1.55v-6.33Z"/><path class="cls-30" d="M970.49,203.46H969l-2.58-3.9v3.9h-1.54v-6.33h1.54l2.58,3.92v-3.92h1.54Z"/><path class="cls-30" d="M975.81,199.13a1.19,1.19,0,0,0-.49-.48,1.67,1.67,0,0,0-.76-.17,1.55,1.55,0,0,0-1.19.49,1.85,1.85,0,0,0-.46,1.32,1.87,1.87,0,0,0,.48,1.36,1.7,1.7,0,0,0,1.3.49,1.52,1.52,0,0,0,1-.29,1.6,1.6,0,0,0,.57-.82h-2v-1.14h3.35v1.43A3.1,3.1,0,0,1,976,203.2a3.58,3.58,0,0,1-3.1-.11,2.84,2.84,0,0,1-1.14-1.14,3.25,3.25,0,0,1-.41-1.66,3.32,3.32,0,0,1,.41-1.68,2.84,2.84,0,0,1,1.14-1.14,3.35,3.35,0,0,1,1.66-.41,3.22,3.22,0,0,1,1.92.55,2.6,2.6,0,0,1,1,1.52Z"/><path class="cls-30" d="M989.55,204.62H988v-8.51h1.54Z"/><path class="cls-30" d="M1008.9,197.13l-1.65,6.33h-1.86l-1-4.17-1,4.17h-1.86l-1.6-6.33h1.64l.91,4.61,1.13-4.61h1.69l1.09,4.61.92-4.61Z"/><path class="cls-30" d="M1013.62,202.34h-2.36l-.38,1.12h-1.62l2.29-6.33h1.79l2.29,6.33H1014Zm-.4-1.19-.78-2.32-.78,2.32Z"/><path class="cls-30" d="M1019.55,203.46l-1.32-2.39h-.37v2.39h-1.54v-6.33h2.59a2.9,2.9,0,0,1,1.27.26,1.85,1.85,0,0,1,.79.72,2,2,0,0,1,.26,1,1.83,1.83,0,0,1-1.4,1.83l1.46,2.51Zm-1.69-3.48h1a.86.86,0,0,0,.63-.21.78.78,0,0,0,.21-.58.77.77,0,0,0-.21-.57.86.86,0,0,0-.63-.21h-1Z"/><path class="cls-30" d="M1027.85,203.46h-1.54l-2.57-3.9v3.9h-1.54v-6.33h1.54l2.57,3.92v-3.92h1.54Z"/><path class="cls-30" d="M1030.51,197.13v6.33H1029v-6.33Z"/><path class="cls-30" d="M1037.29,203.46h-1.54l-2.58-3.9v3.9h-1.54v-6.33h1.54l2.58,3.92v-3.92h1.54Z"/><path class="cls-30" d="M1042.61,199.13a1.16,1.16,0,0,0-.5-.48,1.6,1.6,0,0,0-.75-.17,1.57,1.57,0,0,0-1.2.49,1.89,1.89,0,0,0-.45,1.32,1.87,1.87,0,0,0,.48,1.36,1.7,1.7,0,0,0,1.3.49,1.52,1.52,0,0,0,1-.29,1.6,1.6,0,0,0,.57-.82h-2v-1.14h3.36v1.43a3.1,3.1,0,0,1-1.62,1.88,3.58,3.58,0,0,1-3.1-.11,2.93,2.93,0,0,1-1.15-1.14,3.35,3.35,0,0,1-.41-1.66,3.43,3.43,0,0,1,.41-1.68,2.93,2.93,0,0,1,1.15-1.14,3.35,3.35,0,0,1,1.66-.41,3.22,3.22,0,0,1,1.92.55,2.6,2.6,0,0,1,1,1.52Z"/><path class="cls-30" d="M1056.35,204.62h-1.54v-8.51h1.54Z"/><path class="cls-30" d="M1075.7,197.13l-1.65,6.33h-1.86l-1-4.17-1,4.17h-1.86l-1.61-6.33h1.65l.91,4.61,1.13-4.61H1072l1.09,4.61.92-4.61Z"/><path class="cls-30" d="M1080.41,202.34h-2.36l-.37,1.12h-1.62l2.29-6.33h1.79l2.28,6.33h-1.63Zm-.39-1.19-.79-2.32-.77,2.32Z"/><path class="cls-30" d="M1086.34,203.46l-1.31-2.39h-.37v2.39h-1.54v-6.33h2.58a2.92,2.92,0,0,1,1.28.26,1.91,1.91,0,0,1,.79.72,2,2,0,0,1,.26,1,1.85,1.85,0,0,1-1.41,1.83l1.46,2.51Zm-1.68-3.48h.95a.87.87,0,0,0,.64-.21.78.78,0,0,0,.21-.58.77.77,0,0,0-.21-.57.87.87,0,0,0-.64-.21h-.95Z"/><path class="cls-30" d="M1094.65,203.46h-1.54l-2.58-3.9v3.9H1089v-6.33h1.54l2.58,3.92v-3.92h1.54Z"/><path class="cls-30" d="M1097.31,197.13v6.33h-1.54v-6.33Z"/><path class="cls-30" d="M1104.09,203.46h-1.54l-2.58-3.9v3.9h-1.54v-6.33H1100l2.58,3.92v-3.92h1.54Z"/><path class="cls-30" d="M1109.4,199.13a1.08,1.08,0,0,0-.49-.48,1.6,1.6,0,0,0-.75-.17,1.57,1.57,0,0,0-1.2.49,2.18,2.18,0,0,0,0,2.68,1.73,1.73,0,0,0,1.31.49,1.56,1.56,0,0,0,1-.29,1.6,1.6,0,0,0,.57-.82h-2v-1.14h3.36v1.43a3,3,0,0,1-.59,1.07,3,3,0,0,1-1,.81,3.56,3.56,0,0,1-3.09-.11,2.93,2.93,0,0,1-1.15-1.14,3.35,3.35,0,0,1-.41-1.66,3.43,3.43,0,0,1,.41-1.68,3,3,0,0,1,1.14-1.14,3.41,3.41,0,0,1,1.67-.41,3.19,3.19,0,0,1,1.91.55,2.61,2.61,0,0,1,1,1.52Z"/><polygon class="cls-30" points="861.56 241.43 861.56 249.38 869.51 241.43 861.56 241.43"/><polygon points="861.56 249.38 869.51 249.38 869.51 241.43 861.56 249.38"/><polygon class="cls-30" points="877.46 249.38 877.46 241.43 869.51 249.38 877.46 249.38"/><polygon points="877.46 241.43 869.51 241.43 869.51 249.38 877.46 241.43"/><polygon class="cls-30" points="877.46 241.43 877.46 249.38 885.41 241.43 877.46 241.43"/><polygon points="877.46 249.38 885.41 249.38 885.41 241.43 877.46 249.38"/><polygon class="cls-30" points="893.37 249.38 893.37 241.43 885.41 249.38 893.37 249.38"/><polygon points="893.37 241.43 885.41 241.43 885.41 249.38 893.37 241.43"/><polygon class="cls-30" points="893.37 241.43 893.37 249.38 901.32 241.43 893.37 241.43"/><polygon points="893.37 249.38 901.32 249.38 901.32 241.43 893.37 249.38"/><polygon class="cls-30" points="909.27 249.38 909.27 241.43 901.32 249.38 909.27 249.38"/><polygon points="909.27 241.43 901.32 241.43 901.32 249.38 909.27 241.43"/><polygon class="cls-30" points="909.27 241.43 909.27 249.38 917.22 241.43 909.27 241.43"/><polygon points="909.27 249.38 917.22 249.38 917.22 241.43 909.27 249.38"/><polygon class="cls-30" points="925.17 249.38 925.17 241.43 917.22 249.38 925.17 249.38"/><polygon points="925.17 241.43 917.22 241.43 917.22 249.38 925.17 241.43"/><polygon class="cls-30" points="925.17 241.43 925.17 249.38 933.12 241.43 925.17 241.43"/><polygon points="925.17 249.38 933.12 249.38 933.12 241.43 925.17 249.38"/><polygon class="cls-30" points="941.07 249.38 941.07 241.43 933.12 249.38 941.07 249.38"/><polygon points="941.07 241.43 933.12 241.43 933.12 249.38 941.07 241.43"/><polygon class="cls-30" points="941.07 241.43 941.07 249.38 949.02 241.43 941.07 241.43"/><polygon points="941.07 249.38 949.02 249.38 949.02 241.43 941.07 249.38"/><polygon class="cls-30" points="956.97 249.38 956.97 241.43 949.02 249.38 956.97 249.38"/><polygon points="956.97 241.43 949.02 241.43 949.02 249.38 956.97 241.43"/><polygon class="cls-30" points="956.97 241.43 956.97 249.38 964.92 241.43 956.97 241.43"/><polygon points="956.97 249.38 964.92 249.38 964.92 241.43 956.97 249.38"/><polygon class="cls-30" points="972.88 249.38 972.88 241.43 964.92 249.38 972.88 249.38"/><polygon points="972.88 241.43 964.92 241.43 964.92 249.38 972.88 241.43"/><polygon class="cls-30" points="972.88 241.43 972.88 249.38 980.83 241.43 972.88 241.43"/><polygon points="972.88 249.38 980.83 249.38 980.83 241.43 972.88 249.38"/><polygon class="cls-30" points="988.78 249.38 988.78 241.43 980.83 249.38 988.78 249.38"/><polygon points="988.78 241.43 980.83 241.43 980.83 249.38 988.78 241.43"/><polygon class="cls-30" points="988.78 241.43 988.78 249.38 996.73 241.43 988.78 241.43"/><polygon points="988.78 249.38 996.73 249.38 996.73 241.43 988.78 249.38"/><polygon class="cls-30" points="1004.68 249.38 1004.68 241.43 996.73 249.38 1004.68 249.38"/><polygon points="1004.68 241.43 996.73 241.43 996.73 249.38 1004.68 241.43"/><polygon class="cls-30" points="1004.68 241.43 1004.68 249.38 1012.63 241.43 1004.68 241.43"/><polygon points="1004.68 249.38 1012.63 249.38 1012.63 241.43 1004.68 249.38"/><polygon class="cls-30" points="1020.58 249.38 1020.58 241.43 1012.63 249.38 1020.58 249.38"/><polygon points="1020.58 241.43 1012.63 241.43 1012.63 249.38 1020.58 241.43"/><polygon class="cls-30" points="1020.58 241.43 1020.58 249.38 1028.53 241.43 1020.58 241.43"/><polygon points="1020.58 249.38 1028.53 249.38 1028.53 241.43 1020.58 249.38"/><polygon class="cls-30" points="1036.48 249.38 1036.48 241.43 1028.53 249.38 1036.48 249.38"/><polygon points="1036.48 241.43 1028.53 241.43 1028.53 249.38 1036.48 241.43"/><polygon class="cls-30" points="1036.48 241.43 1036.48 249.38 1044.43 241.43 1036.48 241.43"/><polygon points="1036.48 249.38 1044.43 249.38 1044.43 241.43 1036.48 249.38"/><polygon class="cls-30" points="1052.39 249.38 1052.39 241.43 1044.43 249.38 1052.39 249.38"/><polygon points="1052.39 241.43 1044.43 241.43 1044.43 249.38 1052.39 241.43"/><polygon class="cls-30" points="1052.39 241.43 1052.39 249.38 1060.34 241.43 1052.39 241.43"/><polygon points="1052.39 249.38 1060.34 249.38 1060.34 241.43 1052.39 249.38"/><polygon class="cls-30" points="1068.29 249.38 1068.29 241.43 1060.34 249.38 1068.29 249.38"/><polygon points="1068.29 241.43 1060.34 241.43 1060.34 249.38 1068.29 241.43"/><polygon class="cls-30" points="1068.29 241.43 1068.29 249.38 1076.24 241.43 1068.29 241.43"/><polygon points="1068.29 249.38 1076.24 249.38 1076.24 241.43 1068.29 249.38"/><polygon class="cls-30" points="1084.19 249.38 1084.19 241.43 1076.24 249.38 1084.19 249.38"/><polygon points="1084.19 241.43 1076.24 241.43 1076.24 249.38 1084.19 241.43"/><polygon class="cls-30" points="1084.19 241.43 1084.19 249.38 1092.14 241.43 1084.19 241.43"/><polygon points="1084.19 249.38 1092.14 249.38 1092.14 241.43 1084.19 249.38"/><polygon class="cls-30" points="1100.09 249.38 1100.09 241.43 1092.14 249.38 1100.09 249.38"/><polygon points="1100.09 241.43 1092.14 241.43 1092.14 249.38 1100.09 241.43"/><polygon class="cls-30" points="1100.09 241.43 1100.09 249.38 1108.04 241.43 1100.09 241.43"/><polygon points="1100.09 249.38 1108.04 249.38 1108.04 241.43 1100.09 249.38"/><polygon class="cls-30" points="1115.99 249.38 1115.99 241.43 1108.04 249.38 1115.99 249.38"/><polygon points="1115.99 241.43 1108.04 241.43 1108.04 249.38 1115.99 241.43"/><path d="M885.58,221.14a2.15,2.15,0,0,1-.93-.71,2,2,0,0,1-.37-1.12H886a.87.87,0,0,0,.26.57.82.82,0,0,0,.57.19.84.84,0,0,0,.57-.17.55.55,0,0,0,.21-.46.56.56,0,0,0-.16-.41,1.33,1.33,0,0,0-.41-.27,5.73,5.73,0,0,0-.7-.23,7.9,7.9,0,0,1-1.06-.41,2,2,0,0,1-.7-.59,1.63,1.63,0,0,1-.3-1,1.75,1.75,0,0,1,.68-1.46,2.74,2.74,0,0,1,1.77-.53,2.77,2.77,0,0,1,1.78.53,1.92,1.92,0,0,1,.73,1.47h-1.77a.69.69,0,0,0-.24-.51.84.84,0,0,0-.56-.19.73.73,0,0,0-.48.16.59.59,0,0,0-.18.46.55.55,0,0,0,.31.5,5,5,0,0,0,.95.39,10.33,10.33,0,0,1,1.05.42,2.19,2.19,0,0,1,.71.58,1.64,1.64,0,0,1,.29,1,2,2,0,0,1-.29,1,2,2,0,0,1-.84.74,2.84,2.84,0,0,1-1.31.28A3.45,3.45,0,0,1,885.58,221.14Z"/><path d="M895.33,219h-3.69a1.14,1.14,0,0,0,.32.76,1,1,0,0,0,.69.26.86.86,0,0,0,.85-.51h1.74a2.4,2.4,0,0,1-.48.94,2.52,2.52,0,0,1-.88.66,2.78,2.78,0,0,1-1.17.24,2.75,2.75,0,0,1-1.39-.34,2.37,2.37,0,0,1-1-1,3.26,3.26,0,0,1,0-2.9,2.37,2.37,0,0,1,.95-1,2.87,2.87,0,0,1,1.4-.33,2.8,2.8,0,0,1,1.37.33,2.25,2.25,0,0,1,.94.92,2.77,2.77,0,0,1,.34,1.4A4,4,0,0,1,895.33,219Zm-1.64-.91a.81.81,0,0,0-.28-.66,1.14,1.14,0,0,0-1.41,0,1.07,1.07,0,0,0-.35.67Z"/><path d="M897.85,214.25v7.06h-1.63v-7.06Z"/><path d="M901.71,217.34h-.88v4H899.2v-4h-.59V216h.59v-.16a1.93,1.93,0,0,1,.56-1.49,2.4,2.4,0,0,1,1.65-.51h.27v1.38a.93.93,0,0,0-.66.14.72.72,0,0,0-.19.58V216h.88Z"/><path d="M905.42,221.15a2.13,2.13,0,0,1-.86-.65,1.69,1.69,0,0,1-.35-.93h1.61a.59.59,0,0,0,.26.44.87.87,0,0,0,.56.18.8.8,0,0,0,.47-.12.38.38,0,0,0,.17-.31.35.35,0,0,0-.24-.34,4.32,4.32,0,0,0-.77-.25,7.67,7.67,0,0,1-1-.28,1.76,1.76,0,0,1-.66-.46,1.33,1.33,0,0,1-.27-.87,1.45,1.45,0,0,1,.25-.83,1.79,1.79,0,0,1,.74-.6,2.81,2.81,0,0,1,1.17-.22,2.34,2.34,0,0,1,1.58.5,1.93,1.93,0,0,1,.67,1.31h-1.51a.71.71,0,0,0-.24-.44.92.92,0,0,0-.55-.16.74.74,0,0,0-.43.11.38.38,0,0,0-.16.3.37.37,0,0,0,.25.35,4.49,4.49,0,0,0,.76.23,8,8,0,0,1,1,.3,1.55,1.55,0,0,1,.65.47,1.32,1.32,0,0,1,.29.89,1.34,1.34,0,0,1-.26.83,1.65,1.65,0,0,1-.75.58,2.9,2.9,0,0,1-1.14.21A3,3,0,0,1,905.42,221.15Z"/><path d="M914.81,219h-3.7a1.18,1.18,0,0,0,.32.76,1,1,0,0,0,.7.26.85.85,0,0,0,.84-.51h1.74a2.41,2.41,0,0,1-1.35,1.6,3,3,0,0,1-2.57-.1,2.37,2.37,0,0,1-1-1,3,3,0,0,1-.34-1.45,2.93,2.93,0,0,1,.34-1.45,2.44,2.44,0,0,1,.95-1,2.9,2.9,0,0,1,1.4-.33,2.84,2.84,0,0,1,1.38.33,2.31,2.31,0,0,1,.94.92,2.87,2.87,0,0,1,.33,1.4C914.83,218.72,914.82,218.87,914.81,219Zm-1.65-.91a.81.81,0,0,0-.28-.66,1.14,1.14,0,0,0-1.41,0,1.07,1.07,0,0,0-.35.67Z"/><path d="M918,216.18a1.82,1.82,0,0,1,1-.25v1.73h-.44a1.35,1.35,0,0,0-.92.26,1.17,1.17,0,0,0-.31.92v2.47h-1.63V216h1.63v.88A2.25,2.25,0,0,1,918,216.18Z"/><path d="M922.17,219.78l1.16-3.79h1.73l-1.89,5.32h-2L919.27,216H921Z"/><path d="M930.74,219h-3.69a1.09,1.09,0,0,0,.32.76,1,1,0,0,0,.69.26.86.86,0,0,0,.85-.51h1.73a2.41,2.41,0,0,1-1.35,1.6,3,3,0,0,1-2.57-.1,2.35,2.35,0,0,1-1-1,2.93,2.93,0,0,1-.34-1.45,3,3,0,0,1,.33-1.45,2.5,2.5,0,0,1,1-1,2.94,2.94,0,0,1,1.41-.33,2.8,2.8,0,0,1,1.37.33,2.31,2.31,0,0,1,.94.92,2.87,2.87,0,0,1,.34,1.4A4,4,0,0,1,930.74,219Zm-1.64-.91a.82.82,0,0,0-.29-.66,1,1,0,0,0-.71-.25,1,1,0,0,0-.7.24,1.06,1.06,0,0,0-.34.67Z"/><path d="M935.28,214.61v6.7h-1.63v-6.7Z"/><path d="M940.63,220.13h-2.5l-.4,1.18H936l2.43-6.7h1.89l2.42,6.7H941Zm-.42-1.26-.83-2.45-.82,2.45Z"/><path d="M944.93,220.94a3.28,3.28,0,0,1-1.25-1.23,3.62,3.62,0,0,1,0-3.53,3.33,3.33,0,0,1,1.25-1.22,3.62,3.62,0,0,1,3.46,0,3.26,3.26,0,0,1,1.25,1.22,3.47,3.47,0,0,1,.45,1.76,3.39,3.39,0,0,1-.46,1.77,3.25,3.25,0,0,1-1.24,1.23,3.62,3.62,0,0,1-3.46,0Zm3-1.58a2.05,2.05,0,0,0,.48-1.42,2,2,0,0,0-.48-1.41,1.63,1.63,0,0,0-1.29-.53,1.66,1.66,0,0,0-1.29.52,2.34,2.34,0,0,0,0,2.84,1.83,1.83,0,0,0,2.58,0Z"/><path d="M951.92,221.15a2.2,2.2,0,0,1-.86-.65,1.69,1.69,0,0,1-.35-.93h1.61a.62.62,0,0,0,.26.44.87.87,0,0,0,.56.18.8.8,0,0,0,.47-.12.38.38,0,0,0,.17-.31.35.35,0,0,0-.24-.34,4.06,4.06,0,0,0-.77-.25,7.67,7.67,0,0,1-1-.28,1.65,1.65,0,0,1-.65-.46,1.28,1.28,0,0,1-.28-.87,1.53,1.53,0,0,1,.25-.83,1.76,1.76,0,0,1,.75-.6,2.78,2.78,0,0,1,1.17-.22,2.37,2.37,0,0,1,1.58.5,2,2,0,0,1,.66,1.31h-1.51a.67.67,0,0,0-.24-.44.91.91,0,0,0-.54-.16.77.77,0,0,0-.44.11.38.38,0,0,0,.09.65,4.49,4.49,0,0,0,.76.23,8,8,0,0,1,1,.3,1.58,1.58,0,0,1,.66.47,1.44,1.44,0,0,1,.29.89,1.35,1.35,0,0,1-.27.83,1.65,1.65,0,0,1-.75.58,2.9,2.9,0,0,1-1.14.21A3,3,0,0,1,951.92,221.15Z"/><path d="M958.33,217.2a2.31,2.31,0,0,1,.84-1,2.25,2.25,0,0,1,1.19-.33,2.07,2.07,0,0,1,1,.23,1.67,1.67,0,0,1,.66.6V216h1.63v5.32H962v-.75a1.7,1.7,0,0,1-.67.6,2.07,2.07,0,0,1-1,.23,2.14,2.14,0,0,1-1.18-.34,2.31,2.31,0,0,1-.84-1,3.19,3.19,0,0,1-.31-1.45A3.12,3.12,0,0,1,958.33,217.2Zm3.34.49a1.14,1.14,0,0,0-1.65,0,1.3,1.3,0,0,0-.34,1,1.34,1.34,0,0,0,.34,1,1.08,1.08,0,0,0,.82.36,1.1,1.1,0,0,0,.83-.36,1.53,1.53,0,0,0,0-1.92Z"/><path d="M967.17,216.18a1.8,1.8,0,0,1,1-.25v1.73h-.45a1.34,1.34,0,0,0-.91.26,1.13,1.13,0,0,0-.31.92v2.47h-1.63V216h1.63v.88A2.16,2.16,0,0,1,967.17,216.18Z"/><path d="M973.89,219H970.2a1.14,1.14,0,0,0,.32.76,1,1,0,0,0,.69.26.86.86,0,0,0,.85-.51h1.74a2.4,2.4,0,0,1-.48.94,2.52,2.52,0,0,1-.88.66,2.78,2.78,0,0,1-1.17.24,2.75,2.75,0,0,1-1.39-.34,2.37,2.37,0,0,1-1-1,3.26,3.26,0,0,1,0-2.9,2.37,2.37,0,0,1,1-1,2.87,2.87,0,0,1,1.4-.33,2.78,2.78,0,0,1,1.37.33,2.2,2.2,0,0,1,.94.92,2.77,2.77,0,0,1,.34,1.4A4,4,0,0,1,973.89,219Zm-1.64-.91a.81.81,0,0,0-.28-.66,1.14,1.14,0,0,0-1.41,0,1.07,1.07,0,0,0-.35.67Z"/><path d="M982.8,221.31h-1.64l-2.73-4.13v4.13H976.8v-6.7h1.63l2.73,4.15v-4.15h1.64Z"/><path d="M985.41,220.94a3.28,3.28,0,0,1-1.25-1.23,3.62,3.62,0,0,1,0-3.53,3.33,3.33,0,0,1,1.25-1.22,3.64,3.64,0,0,1,3.47,0,3.3,3.3,0,0,1,1.24,1.22,3.47,3.47,0,0,1,.45,1.76,3.39,3.39,0,0,1-.46,1.77,3.19,3.19,0,0,1-1.24,1.23,3.48,3.48,0,0,1-1.73.44A3.56,3.56,0,0,1,985.41,220.94Zm3-1.58a2.05,2.05,0,0,0,.48-1.42,2,2,0,0,0-.48-1.41,1.63,1.63,0,0,0-1.29-.53,1.67,1.67,0,0,0-1.29.52,2.34,2.34,0,0,0,0,2.84,1.83,1.83,0,0,0,2.58,0Z"/><path d="M996.3,214.61v1.31h-1.78v5.39h-1.63v-5.39h-1.78v-1.31Z"/><path d="M1003.31,220.13h-2.5l-.4,1.18H998.7l2.42-6.7H1003l2.43,6.7h-1.73Zm-.42-1.26-.83-2.45-.82,2.45Z"/><path d="M1008.46,216.14a2.06,2.06,0,0,1,1-.23,2.26,2.26,0,0,1,1.2.33,2.46,2.46,0,0,1,.84,1,3.12,3.12,0,0,1,.31,1.44,3.19,3.19,0,0,1-.31,1.45,2.46,2.46,0,0,1-.84,1,2.18,2.18,0,0,1-1.2.34,2,2,0,0,1-1-.23,1.76,1.76,0,0,1-.67-.59v3.28h-1.63V216h1.63v.75A1.74,1.74,0,0,1,1008.46,216.14Zm1.33,1.54a1.13,1.13,0,0,0-.83-.35,1.1,1.1,0,0,0-.83.36,1.53,1.53,0,0,0,0,1.92,1.1,1.1,0,0,0,.83.36,1.11,1.11,0,0,0,.83-.36,1.34,1.34,0,0,0,.34-1A1.3,1.3,0,0,0,1009.79,217.68Z"/><path d="M1017.64,219H1014a1.09,1.09,0,0,0,.32.76,1,1,0,0,0,.69.26.86.86,0,0,0,.85-.51h1.73a2.28,2.28,0,0,1-.48.94,2.4,2.4,0,0,1-.87.66,3,3,0,0,1-2.57-.1,2.41,2.41,0,0,1-1-1,2.94,2.94,0,0,1-.35-1.45,3,3,0,0,1,.34-1.45,2.5,2.5,0,0,1,1-1,2.94,2.94,0,0,1,1.41-.33,2.8,2.8,0,0,1,1.37.33,2.31,2.31,0,0,1,.94.92,2.87,2.87,0,0,1,.34,1.4A4,4,0,0,1,1017.64,219Zm-1.64-.91a.82.82,0,0,0-.29-.66,1,1,0,0,0-.71-.25,1,1,0,0,0-.7.24,1.06,1.06,0,0,0-.34.67Z"/><path d="M1019.63,221.14a2.15,2.15,0,0,1-.93-.71,2,2,0,0,1-.37-1.12h1.74a.87.87,0,0,0,.26.57.82.82,0,0,0,.57.19.84.84,0,0,0,.57-.17.55.55,0,0,0,.21-.46.56.56,0,0,0-.16-.41,1.33,1.33,0,0,0-.41-.27,5.73,5.73,0,0,0-.7-.23,7.22,7.22,0,0,1-1-.41,1.91,1.91,0,0,1-.71-.59,1.63,1.63,0,0,1-.3-1,1.75,1.75,0,0,1,.68-1.46,3.24,3.24,0,0,1,3.55,0,1.92,1.92,0,0,1,.73,1.47h-1.77a.69.69,0,0,0-.24-.51.84.84,0,0,0-.56-.19.73.73,0,0,0-.48.16.59.59,0,0,0-.18.46.55.55,0,0,0,.31.5,5,5,0,0,0,1,.39,9.46,9.46,0,0,1,1,.42,2.19,2.19,0,0,1,.71.58,1.64,1.64,0,0,1,.29,1,1.88,1.88,0,0,1-.29,1,2,2,0,0,1-.84.74,2.84,2.84,0,0,1-1.31.28A3.45,3.45,0,0,1,1019.63,221.14Z"/><path d="M1032,216l-1.44,5.32h-1.81l-.84-3.45-.87,3.45h-1.79l-1.45-5.32h1.63l.76,3.8.89-3.8h1.73l.91,3.79.74-3.79Z"/><path d="M1032.64,217.2a2.41,2.41,0,0,1,.85-1,2.2,2.2,0,0,1,1.19-.33,2.13,2.13,0,0,1,1,.23,1.64,1.64,0,0,1,.65.6V216H1038v5.32h-1.63v-.75a1.74,1.74,0,0,1-.66.6,2.07,2.07,0,0,1-1,.23,2.11,2.11,0,0,1-1.18-.34,2.41,2.41,0,0,1-.85-1,3.33,3.33,0,0,1-.31-1.45A3.25,3.25,0,0,1,1032.64,217.2Zm3.34.49a1.08,1.08,0,0,0-.82-.36,1.13,1.13,0,0,0-.83.35,1.34,1.34,0,0,0-.34,1,1.38,1.38,0,0,0,.34,1,1.1,1.1,0,0,0,.83.36,1.08,1.08,0,0,0,.82-.36,1.53,1.53,0,0,0,0-1.92Z"/><path d="M1041.43,216.14a2,2,0,0,1,1-.23,2.22,2.22,0,0,1,1.19.33,2.41,2.41,0,0,1,.85,1,3.25,3.25,0,0,1,.3,1.44,3.32,3.32,0,0,1-.3,1.45,2.41,2.41,0,0,1-.85,1,2.15,2.15,0,0,1-1.19.34,2.06,2.06,0,0,1-1-.23,1.8,1.8,0,0,1-.66-.59v3.28h-1.63V216h1.63v.75A1.67,1.67,0,0,1,1041.43,216.14Zm1.33,1.54a1.15,1.15,0,0,0-.84-.35,1.08,1.08,0,0,0-.82.36,1.53,1.53,0,0,0,0,1.92,1.08,1.08,0,0,0,.82.36,1.1,1.1,0,0,0,.83-.36,1.56,1.56,0,0,0,0-1.93Z"/><path d="M1052.63,219h-3.7a1.18,1.18,0,0,0,.32.76,1,1,0,0,0,.7.26.87.87,0,0,0,.85-.51h1.73a2.41,2.41,0,0,1-1.35,1.6,3,3,0,0,1-2.57-.1,2.44,2.44,0,0,1-1-1,3,3,0,0,1-.34-1.45,2.93,2.93,0,0,1,.34-1.45,2.44,2.44,0,0,1,.95-1,2.9,2.9,0,0,1,1.4-.33,2.84,2.84,0,0,1,1.38.33,2.31,2.31,0,0,1,.94.92,2.87,2.87,0,0,1,.33,1.4C1052.65,218.72,1052.64,218.87,1052.63,219Zm-1.65-.91a.81.81,0,0,0-.28-.66,1.14,1.14,0,0,0-1.41,0,1.07,1.07,0,0,0-.35.67Z"/><path d="M1058.25,216.54a2.35,2.35,0,0,1,.56,1.66v3.11h-1.62v-2.89a1.19,1.19,0,0,0-.28-.83,1.08,1.08,0,0,0-1.49,0,1.19,1.19,0,0,0-.28.83v2.89h-1.63V216h1.63v.7a1.73,1.73,0,0,1,.67-.55,2.11,2.11,0,0,1,1-.21A1.91,1.91,0,0,1,1058.25,216.54Z"/><path d="M1059.93,217.2a2.46,2.46,0,0,1,.84-1,2.26,2.26,0,0,1,1.2-.33,2.05,2.05,0,0,1,1,.22,1.78,1.78,0,0,1,.68.59v-2.47h1.63v7.06h-1.63v-.76a1.63,1.63,0,0,1-.66.61,2.06,2.06,0,0,1-1,.23,2.18,2.18,0,0,1-1.2-.34,2.46,2.46,0,0,1-.84-1,3.19,3.19,0,0,1-.31-1.45A3.12,3.12,0,0,1,1059.93,217.2Zm3.34.49a1.14,1.14,0,0,0-1.65,0,1.3,1.3,0,0,0-.34,1,1.34,1.34,0,0,0,.34,1,1.08,1.08,0,0,0,.82.36,1.1,1.1,0,0,0,.83-.36,1.53,1.53,0,0,0,0-1.92Z"/><path d="M1067.44,221.05a2.36,2.36,0,0,1-1-1,3.1,3.1,0,0,1,0-2.9,2.54,2.54,0,0,1,1-1,3.2,3.2,0,0,1,2.83,0,2.54,2.54,0,0,1,1,1,2.86,2.86,0,0,1,.36,1.45,2.71,2.71,0,0,1-.37,1.44,2.37,2.37,0,0,1-1,1,3.09,3.09,0,0,1-2.82,0Zm2.2-1.42a1.64,1.64,0,0,0,0-2,1,1,0,0,0-.78-.35,1.07,1.07,0,0,0-.8.34,1.42,1.42,0,0,0-.31,1,1.39,1.39,0,0,0,.31,1,1,1,0,0,0,.78.35A1.05,1.05,0,0,0,1069.64,219.63Z"/><path d="M1074.85,216.18a1.8,1.8,0,0,1,1-.25v1.73h-.45a1.34,1.34,0,0,0-.91.26,1.13,1.13,0,0,0-.31.92v2.47h-1.63V216h1.63v.88A2.16,2.16,0,0,1,1074.85,216.18Z"/><path d="M1077.51,221.15a2.2,2.2,0,0,1-.86-.65,1.69,1.69,0,0,1-.35-.93h1.61a.62.62,0,0,0,.26.44.87.87,0,0,0,.56.18.8.8,0,0,0,.47-.12.38.38,0,0,0,.17-.31.35.35,0,0,0-.24-.34,4.06,4.06,0,0,0-.77-.25,7.67,7.67,0,0,1-1-.28,1.65,1.65,0,0,1-.65-.46,1.28,1.28,0,0,1-.28-.87,1.45,1.45,0,0,1,.25-.83,1.76,1.76,0,0,1,.75-.6,2.78,2.78,0,0,1,1.17-.22,2.37,2.37,0,0,1,1.58.5,2,2,0,0,1,.66,1.31h-1.51a.67.67,0,0,0-.24-.44.91.91,0,0,0-.54-.16.77.77,0,0,0-.44.11.38.38,0,0,0,.09.65,4.49,4.49,0,0,0,.76.23,8,8,0,0,1,1,.3,1.58,1.58,0,0,1,.66.47,1.44,1.44,0,0,1,.29.89,1.35,1.35,0,0,1-.27.83,1.65,1.65,0,0,1-.75.58,2.9,2.9,0,0,1-1.14.21A3,3,0,0,1,1077.51,221.15Z"/><path d="M1086.9,219h-3.69a1.09,1.09,0,0,0,.32.76,1,1,0,0,0,.69.26.86.86,0,0,0,.85-.51h1.73a2.28,2.28,0,0,1-.48.94,2.4,2.4,0,0,1-.87.66,3,3,0,0,1-2.57-.1,2.35,2.35,0,0,1-1-1,2.94,2.94,0,0,1-.35-1.45,3,3,0,0,1,.34-1.45,2.5,2.5,0,0,1,.95-1,2.94,2.94,0,0,1,1.41-.33,2.8,2.8,0,0,1,1.37.33,2.31,2.31,0,0,1,.94.92,2.87,2.87,0,0,1,.34,1.4A4,4,0,0,1,1086.9,219Zm-1.64-.91a.82.82,0,0,0-.29-.66,1,1,0,0,0-.71-.25,1,1,0,0,0-.7.24,1.06,1.06,0,0,0-.34.67Z"/><path d="M1087.77,217.2a2.41,2.41,0,0,1,.85-1,2.2,2.2,0,0,1,1.19-.33,2.05,2.05,0,0,1,1,.22,1.78,1.78,0,0,1,.68.59v-2.47h1.63v7.06h-1.63v-.76a1.67,1.67,0,0,1-.65.61,2.25,2.25,0,0,1-2.18-.11,2.41,2.41,0,0,1-.85-1,3.19,3.19,0,0,1-.31-1.45A3.12,3.12,0,0,1,1087.77,217.2Zm3.34.49a1.08,1.08,0,0,0-.82-.36,1.13,1.13,0,0,0-.83.35,1.3,1.3,0,0,0-.34,1,1.34,1.34,0,0,0,.34,1,1.1,1.1,0,0,0,.83.36,1.08,1.08,0,0,0,.82-.36,1.53,1.53,0,0,0,0-1.92Z"/><path d="M884.16,233.24a2.42,2.42,0,0,1-1-1,2.84,2.84,0,0,1-.36-1.45,2.8,2.8,0,0,1,.36-1.44,2.43,2.43,0,0,1,1-1,3.09,3.09,0,0,1,2.82,0,2.41,2.41,0,0,1,1,1,2.8,2.8,0,0,1,.36,1.44,2.86,2.86,0,0,1-.36,1.45,2.5,2.5,0,0,1-1,1,3.09,3.09,0,0,1-2.82,0Zm2.21-1.42a1.68,1.68,0,0,0,0-2,1.08,1.08,0,0,0-1.58,0,1.42,1.42,0,0,0-.32,1,1.39,1.39,0,0,0,.31,1,1,1,0,0,0,.78.35A1.09,1.09,0,0,0,886.37,231.82Z"/><path d="M891.57,228.37a1.92,1.92,0,0,1,.95-.25v1.73h-.44a1.4,1.4,0,0,0-.92.26,1.18,1.18,0,0,0-.31.92v2.47h-1.63v-5.32h1.63v.89A2.18,2.18,0,0,1,891.57,228.37Z"/><path d="M896.35,233.24a2.45,2.45,0,0,1-1-1,2.94,2.94,0,0,1-.35-1.45,2.8,2.8,0,0,1,.36-1.44,2.41,2.41,0,0,1,1-1,3.09,3.09,0,0,1,2.82,0,2.49,2.49,0,0,1,1,1,2.8,2.8,0,0,1,.36,1.44,2.77,2.77,0,0,1-.37,1.45,2.47,2.47,0,0,1-1,1,2.92,2.92,0,0,1-1.42.34A2.82,2.82,0,0,1,896.35,233.24Zm2.2-1.42a1.35,1.35,0,0,0,.33-1,1.39,1.39,0,0,0-.32-1,1,1,0,0,0-.79-.35,1,1,0,0,0-.79.34,1.42,1.42,0,0,0-.31,1,1.44,1.44,0,0,0,.3,1,1,1,0,0,0,.78.35A1.08,1.08,0,0,0,898.55,231.82Z"/><path d="M904.08,229.53h-.88v4h-1.63v-4H901v-1.35h.59V228a1.94,1.94,0,0,1,.56-1.5,2.4,2.4,0,0,1,1.65-.51h.27v1.39a.93.93,0,0,0-.66.13.76.76,0,0,0-.19.58v.05h.88Z"/><path d="M907.51,229.53h-.87v4H905v-4h-.59v-1.35H905V228a1.91,1.91,0,0,1,.57-1.5,2.36,2.36,0,0,1,1.65-.51h.26v1.39a.89.89,0,0,0-.65.13.72.72,0,0,0-.19.58v.05h.87Z"/><path d="M908.4,227.37a.82.82,0,0,1-.28-.62.85.85,0,0,1,.28-.64,1.09,1.09,0,0,1,1.39,0,.84.84,0,0,1,.27.64.81.81,0,0,1-.27.62,1.06,1.06,0,0,1-1.39,0Zm1.51.81v5.32h-1.63v-5.32Z"/><path d="M911.11,229.39a2.32,2.32,0,0,1,.94-.95,2.75,2.75,0,0,1,1.39-.34,2.63,2.63,0,0,1,1.67.53,2.47,2.47,0,0,1,.89,1.48h-1.74a.84.84,0,0,0-.85-.61.86.86,0,0,0-.72.34,1.7,1.7,0,0,0-.26,1,1.68,1.68,0,0,0,.26,1,.87.87,0,0,0,.72.35.84.84,0,0,0,.85-.62H916a2.47,2.47,0,0,1-.89,1.47,2.59,2.59,0,0,1-1.67.54,2.75,2.75,0,0,1-1.39-.34,2.32,2.32,0,0,1-.94-1,3.26,3.26,0,0,1,0-2.9Z"/><path d="M917,227.37a.81.81,0,0,1-.27-.62.84.84,0,0,1,.27-.64,1,1,0,0,1,.7-.25,1,1,0,0,1,.7.25.84.84,0,0,1,.27.64.81.81,0,0,1-.27.62,1,1,0,0,1-.7.26A1,1,0,0,1,917,227.37Zm1.51.81v5.32h-1.63v-5.32Z"/><path d="M919.66,229.39a2.31,2.31,0,0,1,.85-.95,2.12,2.12,0,0,1,1.19-.34,2.1,2.1,0,0,1,1,.23,1.64,1.64,0,0,1,.65.6v-.75H925v5.32h-1.63v-.75a1.74,1.74,0,0,1-.66.6,2.07,2.07,0,0,1-1,.23,2.11,2.11,0,0,1-1.18-.34,2.41,2.41,0,0,1-.85-1,3.33,3.33,0,0,1-.31-1.45A3.25,3.25,0,0,1,919.66,229.39Zm3.34.49a1.08,1.08,0,0,0-.82-.36,1.13,1.13,0,0,0-.83.35,1.34,1.34,0,0,0-.34,1,1.38,1.38,0,0,0,.34,1,1.1,1.1,0,0,0,.83.36,1.08,1.08,0,0,0,.82-.36,1.53,1.53,0,0,0,0-1.92Z"/><path d="M927.79,226.44v7.06h-1.63v-7.06Z"/><path d="M935.16,232.32h-2.5l-.4,1.18h-1.71l2.43-6.7h1.89l2.42,6.7h-1.73Zm-.42-1.26-.83-2.45-.82,2.45Z"/><path d="M940.32,228.33a2,2,0,0,1,1-.23,2.12,2.12,0,0,1,1.19.34,2.31,2.31,0,0,1,.85.95,3.25,3.25,0,0,1,.3,1.44,3.32,3.32,0,0,1-.3,1.45,2.41,2.41,0,0,1-.85,1,2.12,2.12,0,0,1-1.19.34,2.06,2.06,0,0,1-1-.23,1.8,1.8,0,0,1-.66-.59V236H938v-7.86h1.63v.75A1.74,1.74,0,0,1,940.32,228.33Zm1.33,1.54a1.15,1.15,0,0,0-.84-.35,1.08,1.08,0,0,0-.82.36,1.53,1.53,0,0,0,0,1.92,1.08,1.08,0,0,0,.82.36,1.1,1.1,0,0,0,.83-.36,1.56,1.56,0,0,0,0-1.93Z"/><path d="M949.49,231.23H945.8a1.11,1.11,0,0,0,.32.76,1,1,0,0,0,.69.26.86.86,0,0,0,.85-.51h1.74a2.4,2.4,0,0,1-.48.94,2.43,2.43,0,0,1-.88.66,3,3,0,0,1-2.56-.1,2.37,2.37,0,0,1-1-1,3,3,0,0,1-.34-1.45,2.93,2.93,0,0,1,.34-1.45,2.29,2.29,0,0,1,1-.95,3,3,0,0,1,2.77,0,2.25,2.25,0,0,1,.94.92,2.77,2.77,0,0,1,.34,1.4A3.87,3.87,0,0,1,949.49,231.23Zm-1.64-.9a.83.83,0,0,0-.28-.67,1.14,1.14,0,0,0-1.41,0,1.07,1.07,0,0,0-.35.68Z"/><path d="M951.49,233.33a2.08,2.08,0,0,1-.93-.71,1.9,1.9,0,0,1-.37-1.12h1.74a.76.76,0,0,0,.83.76.9.9,0,0,0,.57-.16.58.58,0,0,0,.21-.47.57.57,0,0,0-.17-.41A1.39,1.39,0,0,0,953,231c-.16-.06-.39-.14-.69-.23a9,9,0,0,1-1.06-.4,1.91,1.91,0,0,1-.7-.6,1.63,1.63,0,0,1-.3-1,1.75,1.75,0,0,1,.68-1.46,2.79,2.79,0,0,1,1.76-.53,2.86,2.86,0,0,1,1.79.53,1.88,1.88,0,0,1,.72,1.47H953.4a.77.77,0,0,0-.24-.51.88.88,0,0,0-.57-.18.72.72,0,0,0-.47.15.59.59,0,0,0-.18.46.56.56,0,0,0,.3.5,5.14,5.14,0,0,0,1,.39,10.33,10.33,0,0,1,1,.42,2.07,2.07,0,0,1,.7.59,1.53,1.53,0,0,1,.3,1,2,2,0,0,1-.29,1,2.06,2.06,0,0,1-.85.74,2.81,2.81,0,0,1-1.31.28A3.4,3.4,0,0,1,951.49,233.33Z"/><path d="M963.89,228.18l-1.44,5.32h-1.8l-.84-3.45-.87,3.45h-1.79l-1.45-5.32h1.63l.75,3.81.9-3.81h1.73l.9,3.79.75-3.79Z"/><path d="M964.5,229.39a2.36,2.36,0,0,1,.84-.95,2.18,2.18,0,0,1,1.2-.34,2.06,2.06,0,0,1,1,.23,1.74,1.74,0,0,1,.66.6v-.75h1.63v5.32h-1.63v-.75a1.7,1.7,0,0,1-.67.6,2.06,2.06,0,0,1-1,.23,2.15,2.15,0,0,1-1.19-.34,2.46,2.46,0,0,1-.84-1,3.19,3.19,0,0,1-.31-1.45A3.12,3.12,0,0,1,964.5,229.39Zm3.34.49a1.14,1.14,0,0,0-1.65,0,1.3,1.3,0,0,0-.34,1,1.34,1.34,0,0,0,.34,1,1.08,1.08,0,0,0,.82.36,1.1,1.1,0,0,0,.83-.36,1.53,1.53,0,0,0,0-1.92Z"/><path d="M973.28,228.33a2.06,2.06,0,0,1,1-.23,2.18,2.18,0,0,1,1.2.34,2.36,2.36,0,0,1,.84.95,3.12,3.12,0,0,1,.31,1.44,3.19,3.19,0,0,1-.31,1.45,2.46,2.46,0,0,1-.84,1,2.18,2.18,0,0,1-1.2.34,2,2,0,0,1-1-.23,1.76,1.76,0,0,1-.67-.59V236H971v-7.86h1.63v.75A1.74,1.74,0,0,1,973.28,228.33Zm1.33,1.54a1.11,1.11,0,0,0-.83-.35,1.1,1.1,0,0,0-.83.36,1.53,1.53,0,0,0,0,1.92,1.1,1.1,0,0,0,.83.36,1.11,1.11,0,0,0,.83-.36,1.34,1.34,0,0,0,.34-1A1.3,1.3,0,0,0,974.61,229.87Z"/><path d="M981.78,228.33a2.06,2.06,0,0,1,1-.23,2.18,2.18,0,0,1,1.2.34,2.36,2.36,0,0,1,.84.95,3.12,3.12,0,0,1,.31,1.44,3.19,3.19,0,0,1-.31,1.45,2.46,2.46,0,0,1-.84,1,2.18,2.18,0,0,1-1.2.34,2,2,0,0,1-1-.23,1.76,1.76,0,0,1-.67-.59V236h-1.63v-7.86h1.63v.75A1.74,1.74,0,0,1,981.78,228.33Zm1.33,1.54a1.11,1.11,0,0,0-.83-.35,1.1,1.1,0,0,0-.83.36,1.53,1.53,0,0,0,0,1.92,1.1,1.1,0,0,0,.83.36,1.11,1.11,0,0,0,.83-.36,1.34,1.34,0,0,0,.34-1A1.3,1.3,0,0,0,983.11,229.87Z"/><path d="M986,229.39a2.23,2.23,0,0,1,.84-.95,2.15,2.15,0,0,1,1.19-.34,2.07,2.07,0,0,1,1,.23,1.74,1.74,0,0,1,.66.6v-.75h1.63v5.32h-1.63v-.75a1.85,1.85,0,0,1-.67.6,2.07,2.07,0,0,1-1,.23,2.14,2.14,0,0,1-1.18-.34,2.31,2.31,0,0,1-.84-1,3.19,3.19,0,0,1-.31-1.45A3.12,3.12,0,0,1,986,229.39Zm3.34.49a1.1,1.1,0,0,0-.83-.36,1.13,1.13,0,0,0-.83.35,1.33,1.33,0,0,0-.33,1,1.37,1.37,0,0,0,.33,1,1.14,1.14,0,0,0,1.66,0,1.53,1.53,0,0,0,0-1.92Z"/><path d="M994.8,228.37a1.9,1.9,0,0,1,1-.25v1.73h-.45a1.37,1.37,0,0,0-.91.26,1.15,1.15,0,0,0-.31.92v2.47h-1.63v-5.32h1.63v.89A2.09,2.09,0,0,1,994.8,228.37Z"/><path d="M999.5,232.12v1.38h-.83a2,2,0,0,1-1.38-.43,1.8,1.8,0,0,1-.5-1.42v-2.12h-.65v-1.35h.65v-1.3h1.63v1.3h1.07v1.35h-1.07v2.14a.43.43,0,0,0,.12.34.54.54,0,0,0,.38.11Z"/><path d="M1005.14,228.73a2.32,2.32,0,0,1,.56,1.66v3.11h-1.62v-2.89a1.16,1.16,0,0,0-.28-.83.94.94,0,0,0-.74-.29,1,1,0,0,0-.75.29,1.2,1.2,0,0,0-.27.83v2.89h-1.63v-5.32H1002v.7a1.66,1.66,0,0,1,.67-.55,2.06,2.06,0,0,1,.94-.21A1.91,1.91,0,0,1,1005.14,228.73Z"/><path d="M1011.83,231.23h-3.69a1.07,1.07,0,0,0,.32.76.93.93,0,0,0,.69.26.87.87,0,0,0,.85-.51h1.73a2.41,2.41,0,0,1-1.35,1.6,3,3,0,0,1-2.57-.1,2.35,2.35,0,0,1-.95-1,2.94,2.94,0,0,1-.35-1.45,3,3,0,0,1,.34-1.45,2.35,2.35,0,0,1,.95-.95,3.05,3.05,0,0,1,2.78,0,2.31,2.31,0,0,1,.94.92,2.87,2.87,0,0,1,.34,1.4A3.87,3.87,0,0,1,1011.83,231.23Zm-1.64-.9a.84.84,0,0,0-.29-.67,1.14,1.14,0,0,0-1.41,0,1.07,1.07,0,0,0-.35.68Z"/><path d="M1015.06,228.37a2,2,0,0,1,1-.25v1.73h-.45a1.4,1.4,0,0,0-.92.26,1.18,1.18,0,0,0-.3.92v2.47h-1.63v-5.32h1.63v.89A2.16,2.16,0,0,1,1015.06,228.37Z"/><path d="M1017.72,233.34a2.1,2.1,0,0,1-.85-.65,1.7,1.7,0,0,1-.36-.93h1.62a.58.58,0,0,0,.25.44.9.9,0,0,0,.57.18.8.8,0,0,0,.47-.12.37.37,0,0,0,.16-.31.35.35,0,0,0-.23-.34,4.37,4.37,0,0,0-.78-.24,6.87,6.87,0,0,1-1-.29,1.52,1.52,0,0,1-.66-.46,1.32,1.32,0,0,1-.28-.87,1.46,1.46,0,0,1,.26-.83,1.73,1.73,0,0,1,.74-.6,3,3,0,0,1,1.17-.22,2.36,2.36,0,0,1,1.58.5,1.92,1.92,0,0,1,.66,1.31h-1.51a.59.59,0,0,0-.24-.43.85.85,0,0,0-.54-.17.79.79,0,0,0-.44.11.38.38,0,0,0,.09.65,5.18,5.18,0,0,0,.76.23,7.68,7.68,0,0,1,1,.3,1.83,1.83,0,0,1,.65.47,1.38,1.38,0,0,1,.29.89,1.41,1.41,0,0,1-.26.83,1.74,1.74,0,0,1-.76.58,2.81,2.81,0,0,1-1.13.21A3.1,3.1,0,0,1,1017.72,233.34Z"/><path d="M1022.18,233.33a.83.83,0,0,1-.27-.63.85.85,0,0,1,.27-.64,1,1,0,0,1,.71-.26,1,1,0,0,1,.69.26.85.85,0,0,1,.27.64.83.83,0,0,1-.27.63,1,1,0,0,1-.69.25A1.06,1.06,0,0,1,1022.18,233.33Z"/><path d="M1031,232.32h-2.49l-.41,1.18h-1.7l2.42-6.7h1.89l2.42,6.7h-1.72Zm-.42-1.26-.83-2.45-.82,2.45Z"/><path d="M1035.5,226.44v7.06h-1.63v-7.06Z"/><path d="M1044.32,228.18l-1.44,5.32h-1.8l-.84-3.45-.87,3.45h-1.79l-1.45-5.32h1.63l.75,3.81.9-3.81h1.73l.91,3.79.74-3.79Z"/><path d="M1044.93,229.39a2.31,2.31,0,0,1,.85-.95,2.25,2.25,0,0,1,2.18-.11,1.64,1.64,0,0,1,.65.6v-.75h1.63v5.32h-1.63v-.75a1.74,1.74,0,0,1-.66.6,2.23,2.23,0,0,1-2.17-.11,2.41,2.41,0,0,1-.85-1,3.19,3.19,0,0,1-.31-1.45A3.12,3.12,0,0,1,1044.93,229.39Zm3.34.49a1.09,1.09,0,0,0-.82-.36,1.13,1.13,0,0,0-.83.35,1.3,1.3,0,0,0-.34,1,1.34,1.34,0,0,0,.34,1,1.13,1.13,0,0,0,1.65,0,1.53,1.53,0,0,0,0-1.92Z"/><path d="M1056.86,228.18l-3.34,7.85h-1.75l1.22-2.71-2.17-5.14h1.82l1.24,3.33,1.22-3.33Z"/><path d="M1058.38,233.34a2.2,2.2,0,0,1-.86-.65,1.69,1.69,0,0,1-.35-.93h1.61a.62.62,0,0,0,.26.44.87.87,0,0,0,.56.18.8.8,0,0,0,.47-.12.38.38,0,0,0,.17-.31.35.35,0,0,0-.24-.34,4.49,4.49,0,0,0-.77-.24,7.53,7.53,0,0,1-1-.29,1.55,1.55,0,0,1-.65-.46,1.26,1.26,0,0,1-.28-.87,1.45,1.45,0,0,1,.25-.83,1.76,1.76,0,0,1,.75-.6,2.89,2.89,0,0,1,1.16-.22,2.34,2.34,0,0,1,1.58.5,1.93,1.93,0,0,1,.67,1.31h-1.51a.62.62,0,0,0-.24-.43.85.85,0,0,0-.54-.17.77.77,0,0,0-.44.11.38.38,0,0,0,.09.65,4.49,4.49,0,0,0,.76.23,8,8,0,0,1,1,.3,1.67,1.67,0,0,1,.65.47,1.38,1.38,0,0,1,.3.89,1.35,1.35,0,0,1-.27.83,1.65,1.65,0,0,1-.75.58,2.9,2.9,0,0,1-1.14.21A3,3,0,0,1,1058.38,233.34Z"/><path d="M1069.16,227.22a3,3,0,0,1,1.23,1.18,3.78,3.78,0,0,1,0,3.5,3,3,0,0,1-1.23,1.18,3.91,3.91,0,0,1-1.85.42h-2.51v-6.7h2.51A4,4,0,0,1,1069.16,227.22Zm-.52,4.36a1.87,1.87,0,0,0,.52-1.43,1.79,1.79,0,0,0-2-2h-.78v3.89h.78A1.94,1.94,0,0,0,1068.64,231.58Z"/><path d="M1077.48,226.8l-2.32,4.49v2.21h-1.63v-2.21l-2.32-4.49h1.85l1.3,2.81,1.29-2.81Z"/><path d="M1079.57,233.13a3.28,3.28,0,0,1-1.25-1.23,3.62,3.62,0,0,1,0-3.53,3.33,3.33,0,0,1,1.25-1.22,3.57,3.57,0,0,1,1.74-.44,3.53,3.53,0,0,1,1.73.44,3.23,3.23,0,0,1,1.24,1.22,3.47,3.47,0,0,1,.45,1.76,3.39,3.39,0,0,1-.46,1.77,3.19,3.19,0,0,1-1.24,1.23,3.47,3.47,0,0,1-1.72.44A3.57,3.57,0,0,1,1079.57,233.13Zm3-1.58a2.05,2.05,0,0,0,.48-1.42,2,2,0,0,0-.48-1.41,1.66,1.66,0,0,0-1.28-.53,1.68,1.68,0,0,0-1.3.52,2.34,2.34,0,0,0,0,2.84,1.69,1.69,0,0,0,1.3.53A1.66,1.66,0,0,0,1082.59,231.55Z"/><path d="M1089.05,233.5l-1.39-2.53h-.39v2.53h-1.63v-6.7h2.74a3.13,3.13,0,0,1,1.35.28,1.92,1.92,0,0,1,.83.76,2.06,2.06,0,0,1,.28,1.07,2,2,0,0,1-1.49,1.94l1.54,2.65Zm-1.78-3.68h1a.9.9,0,0,0,.67-.22.83.83,0,0,0,.23-.62.81.81,0,0,0-.23-.6.9.9,0,0,0-.67-.22h-1Z"/><path d="M1092.45,233.33a.81.81,0,0,1-.28-.63.83.83,0,0,1,.28-.64,1.06,1.06,0,0,1,1.39,0,.85.85,0,0,1,.27.64.83.83,0,0,1-.27.63,1.09,1.09,0,0,1-1.39,0Zm1.56-6.76-.2,4.57h-1.38l-.19-4.57Z"/></svg>