<svg viewBox="0 0 553 174" preserveAspectRatio="none" fill="none" xmlns="http://www.w3.org/2000/svg">
<path opacity="0.3" d="M553 20L0 127.846V174H553V20Z" fill="white"/>
<g clip-path="url(#clip0)">
<path d="M570.854 -1.10217C564.926 8.17492 558.999 14.5592 552.945 19.5468C552.945 19.5468 552.945 19.5468 552.819 19.6466C546.766 24.734 540.586 28.3252 534.659 32.2156C529.614 35.5074 523.308 38.3005 517.507 40.4951C517.381 40.5949 517.255 40.5949 517.002 40.6946C507.039 44.4853 498.211 46.5801 498.211 46.5801C491.906 34.3104 497.707 7.87566 497.707 7.87566C497.707 7.87566 497.707 7.87566 491.275 13.7611C484.717 19.6466 478.285 31.3178 478.285 31.3178C478.285 31.3178 478.285 31.3178 464.539 26.7291C463.53 26.4298 462.521 25.9311 461.512 25.4323C451.296 20.1454 439.315 5.48157 434.397 -0.902665H570.854V-1.10217Z" fill="#527F34"/>
<path d="M-63 -2C-55.268 7.33891 -47.536 13.7657 -39.6395 18.7866C-39.6395 18.7866 -39.6396 18.7866 -39.4751 18.887C-31.5786 24.0084 -23.5175 27.6234 -15.7856 31.5397C-9.20515 34.8536 -0.979675 37.6653 6.58779 39.8745C6.7523 39.9749 6.91685 39.9749 7.24587 40.0753C20.2422 43.8912 31.7578 46 31.7578 46C39.9833 33.6485 32.4159 7.03766 32.4159 7.03766C32.4159 7.03766 32.4159 7.03766 40.8059 12.9623C49.3604 18.887 57.7504 30.636 57.7504 30.636C57.7504 30.636 57.7505 30.636 75.6821 26.0167C76.9982 25.7155 78.3143 25.2134 79.6304 24.7113C92.9557 19.3891 108.584 4.62762 115 -1.79916H-63V-2Z" fill="#527F34"/>
<path d="M363.167 -11C361.275 -9.00493 359.384 -7.10961 357.492 -5.21429C346.646 5.95813 326.089 15.2352 326.089 15.2352C320.54 9.0505 317.513 -2.32143 316 -11H363.167Z" fill="#659549"/>
<path d="M690.986 -37.6034C681.023 -33.2143 670.807 -29.0246 660.466 -25.0345L652.647 -22.1416L644.828 -19.3485L629.063 -13.862C623.766 -12.0665 618.47 -10.3707 613.173 -8.77461C607.876 -7.17855 602.453 -5.58249 597.03 -3.98643C586.184 -0.894066 575.338 1.89904 564.366 4.59239C553.394 7.18599 542.296 9.67983 531.198 11.8744C520.1 14.069 508.749 16.0641 497.525 17.7599C486.175 19.4557 474.95 21.0518 463.474 22.2488C460.573 22.5481 457.799 22.8473 454.898 23.1466C451.997 23.4458 449.223 23.7451 446.322 23.9446L437.62 24.5431C436.233 24.6429 434.72 24.7426 433.332 24.7426L428.792 24.8424C425.891 24.9421 422.991 25.1417 420.09 25.1417H411.388C410.001 25.1417 408.488 25.1417 407.1 25.1417L402.812 25.0419L394.11 24.7426C382.634 24.1441 371.031 23.3461 359.681 21.9495C336.854 19.3559 314.406 14.867 292.335 9.38057C281.363 6.58746 270.517 3.59485 259.798 0.203224C249.078 -3.1884 238.61 -6.77953 228.143 -10.7697L220.45 -13.7623C217.927 -14.7598 215.279 -15.7574 212.757 -16.8547C207.586 -18.9495 202.541 -21.0443 197.623 -23.2389C192.578 -25.4335 187.66 -27.7278 182.741 -30.0221C177.823 -32.4162 173.03 -34.8103 168.112 -37.2044L169.499 -39.0997C189.299 -30.1219 209.604 -21.8423 230.539 -14.6601C240.88 -10.9692 251.474 -7.57756 262.194 -4.4852C272.787 -1.29308 283.633 1.50002 294.479 4.19337C305.325 6.78697 316.297 9.08131 327.395 11.0764C338.494 12.9717 349.592 14.7673 360.816 15.9643C372.04 17.3609 383.264 18.1589 394.615 18.6577L403.065 18.8572L407.353 18.9569C408.74 18.9569 410.127 18.9569 411.64 18.9569H420.09C422.865 18.9569 425.765 18.7574 428.54 18.7574L432.828 18.6577C434.215 18.6577 435.602 18.5579 437.116 18.4582L445.565 17.8596C448.34 17.6601 451.241 17.4606 454.015 17.1614C456.79 16.8621 459.69 16.6626 462.465 16.3633C473.689 15.1663 485.04 13.7697 496.138 12.1737C507.362 10.5776 518.46 8.78204 529.558 6.68721C540.656 4.69214 551.755 2.3978 562.6 0.00371552C584.545 -4.88422 606.236 -10.4704 627.55 -17.0542L643.44 -22.0418L651.386 -24.5357L659.205 -27.229C669.672 -30.8202 680.014 -34.7106 690.229 -38.7007L690.986 -37.6034Z" fill="#293D39"/>
<path d="M927.83 -0.603426C918.624 2.18968 909.544 4.98278 900.211 7.57638C890.879 10.17 881.672 12.6638 872.214 14.9582C862.755 17.1527 853.296 19.2476 843.838 21.3424C839.171 22.4397 834.379 23.3375 829.587 24.335C824.794 25.2328 820.002 26.1306 815.21 27.0284C805.625 28.7242 795.914 30.42 786.329 31.8165C776.618 33.2131 766.907 34.5099 757.196 35.7069C747.486 36.8042 737.649 37.9015 727.938 38.6995C718.101 39.5973 708.264 40.1958 698.301 40.3953C658.7 41.5924 619.1 37.8018 580.635 30.7192C571.05 28.9237 561.465 26.9286 552.007 24.734C542.548 22.5394 533.216 20.1453 523.883 17.5518C514.551 15.0579 505.47 11.9655 496.39 9.07268C491.85 7.57638 487.183 6.27958 482.769 4.58377L469.401 -0.304165L470.41 -2.09973L484.031 2.18968C488.571 3.68598 493.237 4.88303 497.777 6.17983C506.984 8.77342 516.19 11.4668 525.523 13.7611C534.855 16.1552 544.188 18.25 553.646 20.2451C563.105 22.2402 572.564 24.1355 582.148 25.7316C620.235 32.3153 659.205 35.8067 698.174 34.9089C707.885 34.7094 717.596 34.1109 727.307 33.3128C737.018 32.5148 746.729 31.617 756.44 30.6195C766.151 29.6219 775.735 28.4249 785.446 27.1281C795.031 25.8313 804.742 24.4348 814.327 22.9384C819.119 22.1404 823.911 21.3424 828.704 20.5444C833.496 19.7463 838.289 18.8485 842.955 17.851C852.414 15.9557 861.872 13.9606 871.457 12.0653C880.916 10.0702 890.248 7.87564 899.707 5.5813C902.103 4.98278 904.373 4.38426 906.643 3.78574L913.579 1.99017L927.578 -1.60096L927.83 -0.603426Z" fill="#659549"/>
<path d="M247.469 -65.9027C226.282 -51.3387 203.455 -38.0714 179.619 -26.2007C173.692 -23.2081 167.638 -20.3153 161.585 -17.5222C158.558 -16.1256 155.405 -14.7291 152.378 -13.4323C149.351 -12.0357 146.199 -10.7389 143.046 -9.44211C139.893 -8.14532 136.866 -6.84851 133.713 -5.55172L124.255 -1.86084C117.823 0.533249 111.517 2.92735 104.959 5.02217C98.527 7.31651 91.969 9.31158 85.2849 11.4064L75.3218 14.2993C72.0428 15.2968 68.6376 16.1946 65.2325 16.9926C51.8643 20.5837 38.1177 23.3769 24.245 25.7709C10.4985 28.2648 -3.62645 29.7611 -17.6252 30.9581C-31.7502 32.0554 -45.8751 32.2549 -60 31.4569L-59.8739 29.1626C-45.8751 28.8633 -32.0024 28.165 -18.2558 26.569C-14.8507 26.17 -11.3195 25.6712 -7.91437 25.2722L-2.74364 24.5739C-0.978024 24.3744 0.661476 24.0751 2.42709 23.7759L12.6424 22.1798L22.8578 20.2845C24.4973 19.9852 26.2629 19.686 27.9024 19.2869L32.947 18.1897C36.3521 17.4914 39.6311 16.7931 43.0362 15.9951L52.9993 13.601C56.2783 12.803 59.5573 11.9052 62.9624 11.0074C66.2414 10.1096 69.5204 9.31158 72.7995 8.31404L82.6364 5.52094C89.0683 3.42611 95.6263 1.53079 102.058 -0.663788C127.786 -9.14285 152.63 -19.3177 176.718 -30.3904C200.807 -41.5628 224.264 -53.7328 246.712 -67L247.469 -65.9027Z" fill="#659549"/>
</g>
<defs>
<clipPath id="clip0">
<rect width="553" height="54" rx="10" fill="white"/>
</clipPath>
</defs>
</svg>