<svg width="14" height="12" viewBox="0 0 14 12" fill="none" xmlns="http://www.w3.org/2000/svg">
<path d="M8.30971 0.430817C8.37729 0.496736 8.66629 0.74564 8.90401 0.977496C10.3991 2.33681 12.8462 5.88285 13.5931 7.73883C13.7132 8.0207 13.9672 8.73331 13.9835 9.11406C13.9835 9.47889 13.8996 9.82667 13.7295 10.1585C13.4918 10.5723 13.1177 10.9041 12.6761 11.086C12.3696 11.203 11.4525 11.3849 11.4362 11.3849C10.4329 11.5667 8.80263 11.6667 7.00108 11.6667C5.28461 11.6667 3.72078 11.5667 2.70232 11.4178C2.686 11.4008 1.54634 11.2189 1.15597 11.0201C0.442811 10.6552 0 9.9426 0 9.17998L0 9.11406C0.0174794 8.61738 0.460291 7.5729 0.476605 7.5729C1.22472 5.81693 3.55181 2.35272 5.09816 0.960449C5.09816 0.960449 5.49552 0.568339 5.74373 0.397856C6.10031 0.131904 6.54196 6.38962e-05 6.9836 6.38962e-05C7.47652 6.38962e-05 7.93565 0.148952 8.30971 0.430817Z" fill="#FAFAFA"/>
</svg>
