<svg width="43" height="43" viewBox="0 0 43 43" fill="none" xmlns="http://www.w3.org/2000/svg">
<path fill-rule="evenodd" clip-rule="evenodd" d="M0 21.5C0 9.62591 9.62591 0 21.5 0C33.3741 0 43 9.62591 43 21.5C43 33.3741 33.3741 43 21.5 43C9.62591 43 0 33.3741 0 21.5Z" fill="#FAF4E6"/>
<path d="M29.0289 27.0277C29.0101 27.0184 27.0741 25.9928 25.2116 23.5816C24.0527 22.0812 23.1604 20.3585 22.5593 18.461C21.7124 15.7006 22.3091 11.7194 21.8055 9.53517C21.2635 7.18416 19.6351 6.73047 19.0869 6.70661C17.6172 6.64258 16.1634 7.93524 15.8551 10.5782C14.5642 21.6436 19.4368 28.4869 26.4391 32.2589C27.8214 32.9616 29.6411 32.4009 30.3492 30.9384C31.0642 29.4939 30.4732 27.743 29.0289 27.0277Z" fill="#FFECB3"/>
<path d="M29.029 27.0276C29.0103 27.0184 27.0741 25.9927 25.2118 23.5816C24.0528 22.0812 23.1605 20.3584 22.5594 18.4609C21.7125 15.7005 22.3092 11.7194 21.8057 9.53514C21.2637 7.18413 19.6353 6.73045 19.0871 6.70659C18.7483 6.69182 18.4105 6.7501 18.0872 6.87944C18.7897 7.16594 19.7093 7.88012 20.0909 9.53514C20.5945 11.7194 19.9979 15.7005 20.8446 18.4609C21.4457 20.3584 22.3381 22.0812 23.497 23.5816C25.3595 25.9927 27.2955 27.0184 27.3142 27.0276C28.7585 27.7429 29.3496 29.4938 28.6344 30.9384C28.2693 31.6926 27.6083 32.2061 26.8642 32.4311C28.1734 32.8402 29.7118 32.255 30.3493 30.9384C31.0643 29.4938 30.4733 27.7429 29.029 27.0276Z" fill="#FFE082"/>
<path d="M20.4941 21.4348C20.4941 21.4348 17.2131 17.1986 12.7815 17.0171C8.35002 16.8355 8.4749 23.7355 7.01771 24.4909C5.56043 25.2465 5.66625 25.9795 5.66625 25.9795C5.66625 25.9795 5.73921 26.6481 6.92939 26.2158C8.11948 25.7836 8.33036 25.4587 8.78551 24.8969C9.24074 24.335 10.2437 18.5416 12.7564 18.7025C15.2691 18.8633 15.861 24.2054 18.6783 27.3867C21.4954 30.5681 24.6965 33.0337 28.112 32.8031C31.1581 32.5973 32.2432 33.4894 32.9539 33.8622C33.0846 33.9308 33.246 33.88 33.3135 33.7487L34.0442 32.3282C34.1148 32.1909 34.0542 32.0225 33.9119 31.9626C33.3083 31.7083 31.8373 30.9814 31.1633 29.7043C30.3039 28.0758 31.0785 28.4719 28.3859 26.2156C25.6932 23.9592 24.2441 20.5495 24.3139 19.2447C24.3838 17.9398 24.1422 15.0059 26.5852 15.0574C29.0283 15.1089 29.46 19.287 30.709 20.6713C31.8164 21.8988 32.4766 20.7947 32.4766 20.7947C32.4766 20.7947 32.701 20.0504 31.5992 19.2112C30.8291 18.6247 30.0274 13.3854 26.6502 13.4694C23.273 13.5533 20.3402 16.264 20.4941 21.4348Z" fill="#FFD54F"/>
<path d="M33.9124 31.9626C33.3088 31.7082 31.8378 30.9814 31.1639 29.7043C30.3044 28.0758 31.079 28.4719 28.3864 26.2155C25.6937 23.9591 24.2446 20.5494 24.3144 19.2446C24.3843 17.9398 24.1427 15.0058 26.5857 15.0573C29.0288 15.1088 29.4605 19.287 30.7096 20.6713C31.8169 21.8987 32.4772 20.7947 32.4772 20.7947C32.4772 20.7947 32.7016 20.0503 31.5997 19.2111C30.8296 18.6247 30.0279 13.3854 26.6507 13.4694C23.8194 13.5398 21.3007 15.4569 20.6512 19.1218C20.5538 20.5109 20.4946 21.4348 20.4946 21.4348C20.4946 21.4348 21.1714 26.6939 25.7605 28.8162C30.3496 30.9384 28.8698 31.6414 31.294 33.0791C31.2944 33.0794 31.2947 33.0795 31.2951 33.0797C32.1043 33.3277 32.5811 33.6664 32.9544 33.8622C33.0851 33.9308 33.2465 33.88 33.314 33.7487L34.0447 32.3282C34.1152 32.1909 34.0547 32.0225 33.9124 31.9626Z" fill="#FFCA28"/>
<path d="M33.9121 31.9627C33.3084 31.7084 31.8373 30.9815 31.1634 29.7045C30.3039 28.0759 31.0785 28.472 28.3859 26.2156C25.6932 23.9593 24.2442 20.5496 24.314 19.2447C24.373 18.1407 24.2093 15.8703 25.6377 15.229C23.9352 15.8017 22.5991 17.0769 22.5991 19.2447C22.5991 21.3627 23.9785 23.9593 26.6711 26.2156C29.3637 28.472 28.5035 28.1239 29.4486 29.7045C30.6749 31.7551 32.6453 31.6446 32.8024 33.779C32.855 33.8088 32.9054 33.8368 32.954 33.8622C33.0848 33.9309 33.2461 33.8802 33.3137 33.7488L34.0443 32.3282C34.1149 32.191 34.0544 32.0226 33.9121 31.9627Z" fill="#FFB300"/>
</svg>
