<svg version="1.2" baseProfile="tiny-ps" xmlns="http://www.w3.org/2000/svg" viewBox="0 0 207 207" width="207" height="207">
	<title>BNB-svg</title>
	<defs>
		<clipPath clipPathUnits="userSpaceOnUse" id="cp1">
			<path d="M28.5 28.5L178.5 28.5L178.5 178.5L28.5 178.5L28.5 28.5Z" />
		</clipPath>
	</defs>
	<style>
		tspan { white-space:pre }
		.shp0 { fill: #000000 } 
		.shp1 { fill: #f3ba2f } 
	</style>
	<path id="Layer" class="shp0" d="M103.5 0.38C46.55 0.38 0.38 46.55 0.38 103.5C0.38 160.45 46.55 206.63 103.5 206.63C160.45 206.63 206.63 160.45 206.63 103.5C206.63 46.55 160.45 0.38 103.5 0.38Z" />
	<g id="Clip-Path" clip-path="url(#cp1)">
		<g id="Layer">
			<path id="Layer" fill-rule="evenodd" class="shp1" d="M74.37 91.53L74.37 91.53L74.37 91.53M74.37 91.53L57.42 74.58L103.5 28.5L149.59 74.59L132.64 91.54L103.5 62.4L74.37 91.53ZM28.5 103.5L45.45 86.55L62.4 103.5L45.45 120.45L28.5 103.5ZM74.37 115.47L74.37 115.47L74.37 115.47L74.37 115.47ZM103.5 144.6L132.64 115.46L149.6 132.4L103.5 178.5L57.39 132.39L74.37 115.47L103.5 144.6ZM144.6 103.51L161.55 86.56L178.5 103.51L161.55 120.46L144.6 103.51Z" />
		</g>
	</g>
	<path id="Layer" class="shp1" d="M120.69 103.49L120.7 103.49L103.5 86.29L90.79 99L86.29 103.5L86.32 103.52L103.5 120.71L120.71 103.5L120.69 103.49Z" />
</svg>