<svg version="1.2" baseProfile="tiny-ps" xmlns="http://www.w3.org/2000/svg" viewBox="0 0 550 550" width="550" height="550">
	<title>NUTS-svg</title>
	<style>
		tspan { white-space:pre }
		.shp0 { fill: #ffffff } 
		.shp1 { fill: none } 
		.shp2 { fill: #8c5431 } 
		.shp3 { fill: #b67c4c } 
		.shp4 { fill: #5e2417 } 
	</style>
	<g id="Layer">
		<path id="Layer 1" class="shp0" d="M275 494C153.89 494 56 396.11 56 275C56 153.89 153.89 56 275 56C396.11 56 494 153.89 494 275C494 396.11 396.11 494 275 494Z" />
		<path id="Layer" class="shp1" d="M0 0L550 0L550 550L0 550L0 0Z" />
		<path id="Layer" class="shp1" d="M0 0L561 0L561 558L0 558L0 0Z" />
		<path id="Layer" fill-rule="evenodd" class="shp2" d="M115 346.11C117.07 311.6 119.93 287.09 123.57 272.59C130.96 243.16 144.26 218.71 157.6 199.53C192.41 149.47 267.37 116 275 116C282.64 116 309.97 129.38 324.24 138.03C355.69 157.1 376.53 179.09 386.17 192.91C443.04 274.49 435 345.65 435 346.11C435 346.56 396.7 434.74 275 434.74C216.56 434.74 167.14 411.25 131.87 373.86C126.9 368.6 121.28 359.35 115 346.11L115 346.11Z" />
		<path id="Layer" fill-rule="evenodd" class="shp3" d="M356.16 161.02L357.53 162.19L358.87 163.37C359.25 163.7 359.63 164.04 360.01 164.37C360.39 164.71 360.76 165.05 361.14 165.39C361.52 165.73 361.89 166.07 362.26 166.41C362.64 166.75 363.01 167.09 363.38 167.44L364.61 168.59L365.21 169.16L366.4 170.3L367.56 171.43L368.7 172.55C369.08 172.93 369.45 173.3 369.81 173.67L370.9 174.78L371.95 175.87C372.3 176.23 372.64 176.6 372.98 176.96L373.99 178.03C374.48 178.57 374.97 179.1 375.45 179.62L376.39 180.67L377.3 181.7L378.18 182.72L379.04 183.72L379.88 184.72L380.68 185.69L381.07 186.18L381.84 187.13L382.58 188.07L383.29 188.99L383.98 189.89L384.64 190.78L384.95 191.21L385.57 192.07L386.16 192.91C432.23 258.99 435.71 318.23 435.37 338.6L435.34 340.04C435.33 340.5 435.31 340.93 435.3 341.33L435.25 342.48L435.22 342.99L435.17 343.91L435.1 344.99L435 346.12L434.96 346.24L434.74 346.74L434.34 347.61L433.94 348.44L433.32 349.65L432.7 350.84L432.13 351.89L431.65 352.74L431.14 353.64L430.59 354.58L430 355.57L429.58 356.26L429.15 356.96L428.47 358.06L427.99 358.81L416.85 358.35L414.53 349.91L413.17 344.99L411.82 340.16L410.06 333.88L408.34 327.79L406.24 320.42L404.2 313.33L402.22 306.52L400.67 301.28L399.54 297.46L398.43 293.75L397.34 290.13L396.27 286.62L395.57 284.34L394.87 282.1L393.85 278.82L392.53 274.61L391.55 271.56L390.92 269.59L389.98 266.72L389.37 264.86L388.77 263.04L387.88 260.41L387.01 257.87L386.17 255.43L385.34 253.1L384.81 251.6L384.28 250.14L383.76 248.73L383.25 247.37L382.75 246.05L382.26 244.77L381.78 243.54L381.39 242.55L380.87 241.28L380.49 240.35L380.07 239.37L379.39 237.8L378.9 236.67L378.38 235.49L377.82 234.26L377.53 233.63L376.92 232.31L376.27 230.95L375.59 229.53L375.24 228.81L374.51 227.32L373.75 225.78C373.62 225.52 373.48 225.25 373.35 224.99L372.53 223.38L371.67 221.72L371.22 220.87L370.31 219.15L369.84 218.27L368.87 216.48L367.86 214.65C357.9 196.72 342.45 172.95 319.66 147.16C319.55 147.04 319.44 146.92 319.34 146.8C319.23 146.68 319.12 146.56 319.01 146.44C318.9 146.32 318.8 146.2 318.69 146.08C318.58 145.97 318.47 145.85 318.36 145.73L317.66 145C317.43 144.76 317.19 144.51 316.94 144.26L316.19 143.52C316.12 143.45 316.06 143.39 315.99 143.32C315.93 143.26 315.86 143.2 315.8 143.13C315.73 143.07 315.67 143.01 315.6 142.94C315.54 142.88 315.47 142.82 315.41 142.76L314.59 141.99L313.75 141.2C313.68 141.14 313.61 141.07 313.53 141C313.46 140.94 313.39 140.87 313.32 140.8C313.24 140.74 313.17 140.67 313.1 140.61C313.03 140.54 312.95 140.48 312.88 140.41L311.98 139.61L311.05 138.79L310.09 137.97L309.6 137.55L308.59 136.71L307.56 135.86L306.5 135L305.4 134.13L304.28 133.25L303.13 132.35L301.95 131.45L300.74 130.53L299.5 129.61L298.23 128.67L296.93 127.72L295.6 126.77L294.24 125.8L292.85 124.82L291.43 123.83L289.98 122.83L288.5 121.82L287 120.8L284.68 119.24L283.1 118.19L282.3 117.67C285 118.58 288.15 119.81 291.52 121.26L293.09 121.95L293.89 122.3L295.5 123.02C296.58 123.51 297.67 124.02 298.78 124.54L300.44 125.33L302.1 126.13L303.77 126.95L305.44 127.78L307.1 128.61L308.75 129.46L310.38 130.3L312 131.15C312.53 131.43 313.06 131.72 313.59 132L315.14 132.84L315.91 133.26L317.42 134.09L318.15 134.5L319.6 135.31L320.99 136.11C321.22 136.24 321.44 136.37 321.67 136.51L322.98 137.28C323.41 137.53 323.83 137.78 324.24 138.03C336.5 145.47 347.15 153.35 356.16 161.02ZM262.45 120.2L262.87 120.89C225.87 149.51 199.49 178.37 183.74 207.44C175.39 222.85 166.83 244.23 158.06 271.56L157.06 274.68L156.56 276.26L155.57 279.46L155.07 281.07L154.07 284.35L153.07 287.67C152.9 288.23 152.73 288.79 152.57 289.35L151.56 292.75C151.23 293.89 150.89 295.04 150.56 296.2L149.55 299.71L149.05 301.48L148.04 305.05L147.03 308.68C146.69 309.9 146.35 311.13 146.01 312.36L145 316.09C144.83 316.72 144.66 317.35 144.49 317.98L143.47 321.79L142.45 325.65L141.43 329.56C141.09 330.87 140.75 332.19 140.41 333.52L139.38 337.53L138.35 341.59L137.32 345.7L136.29 349.87L135.78 351.97L134.74 356.21L134.23 358.35L134.17 358.33L134.05 358.28C134.03 358.28 134.02 358.27 134.01 358.27C134 358.26 133.99 358.25 133.97 358.25C133.96 358.24 133.95 358.24 133.94 358.23C133.93 358.22 133.91 358.22 133.9 358.21L133.74 358.12C133.73 358.11 133.73 358.11 133.72 358.1C133.71 358.1 133.7 358.09 133.7 358.09C133.69 358.09 133.68 358.08 133.67 358.08C133.67 358.07 133.66 358.07 133.65 358.06L133.46 357.93L133.25 357.78L133.02 357.61L132.64 357.3L132.37 357.07L131.92 356.68L131.25 356.08L130.7 355.57L130.1 355.01L129.02 353.96L128.31 353.26L127.03 351.98L126.21 351.14L124.74 349.63L123.16 347.98L121.81 346.55L120.01 344.64L117.89 342.38L116.04 340.39C115.83 340.16 115.62 339.93 115.4 339.69L115.74 334.69L116.02 330.8L116.31 327.01L116.6 323.32L116.83 320.62L116.98 318.85L117.21 316.24L117.53 312.85L117.78 310.38L118.02 307.95L118.28 305.59L118.53 303.28L118.79 301.03L118.97 299.55L119.33 296.69L119.61 294.6L119.79 293.24L120.07 291.25L120.26 289.95L120.55 288.05L120.85 286.21L121.04 285.01L121.24 283.84L121.45 282.69L121.65 281.57L121.86 280.47L122.06 279.4L122.38 277.84L122.59 276.83L122.81 275.84L123.02 274.88L123.24 273.94L123.46 273.03L123.57 272.59C129.55 248.8 139.38 228.27 149.97 211.14L151.05 209.41C151.23 209.13 151.42 208.84 151.6 208.56L152.68 206.86L153.77 205.19C154.32 204.36 154.87 203.54 155.41 202.73L156.51 201.12C156.87 200.58 157.24 200.05 157.6 199.53C180.48 166.63 220.7 140.9 247.75 127.12L249.68 126.14L251.56 125.21C252.27 124.86 252.99 124.52 253.7 124.17C254.41 123.83 255.13 123.49 255.84 123.16C256.56 122.82 257.28 122.49 258 122.16C258.72 121.84 259.44 121.51 260.17 121.19L261.71 120.52C261.96 120.41 262.21 120.3 262.45 120.2L262.45 120.2Z" />
		<path id="Layer" fill-rule="evenodd" class="shp3" d="M149.16 370.62C164.13 308.38 177.58 264.34 189.52 238.49C201.46 212.63 222.22 183.54 251.79 151.21C238.56 196.72 229.79 233.05 225.47 260.21C221.14 287.36 217.05 331.88 213.18 393.76C197.41 390.87 185.8 388.04 178.33 385.25C170.87 382.47 161.15 377.59 149.16 370.62L149.16 370.62ZM231.35 397.74C237.14 322.83 242.66 270.1 247.9 239.54C253.14 208.99 262.18 176.94 275 143.39C288.29 173.63 297.44 203.46 302.47 232.87C307.49 262.28 313.22 319.61 319.66 404.86C291.09 405.95 270.01 405.95 256.4 404.86C242.79 403.76 234.44 401.39 231.35 397.74L231.35 397.74ZM336.57 397.62C336.57 397.62 336.57 397.62 336.57 397.62C336.57 397.62 336.57 397.62 336.57 397.62L336.57 397.62ZM319.66 239.94C314.67 207.54 307.66 177.97 298.62 151.21C325.14 175.7 344.29 200.66 356.05 226.1C367.82 251.54 383.19 301.19 402.17 375.07C390.97 382.6 381.38 387.74 373.41 390.48C365.43 393.22 353.15 395.6 336.57 397.62C330.28 324.89 324.64 272.33 319.66 239.94Z" />
		<path id="Layer" fill-rule="evenodd" class="shp4" d="M435 346.11L434.99 346.15L434.9 346.38L434.71 346.81L434.42 347.43C429.23 358.47 388.18 434.74 275 434.74C216.57 434.74 167.14 411.25 131.87 373.86C130.51 372.43 129.11 370.69 127.66 368.67L127.07 367.84L126.49 366.98C126.38 366.83 126.28 366.68 126.18 366.53C126.08 366.38 125.98 366.23 125.88 366.08C125.78 365.92 125.69 365.77 125.59 365.62C125.49 365.47 125.39 365.32 125.29 365.17L124.69 364.21L124.08 363.23L123.77 362.72L123.15 361.69L122.53 360.63L121.9 359.53L121.27 358.4L120.95 357.82L120.31 356.65C120.29 356.6 120.26 356.55 120.23 356.5C120.21 356.45 120.18 356.4 120.15 356.35C120.13 356.3 120.1 356.25 120.07 356.2C120.04 356.15 120.02 356.1 119.99 356.05L119.34 354.83L119.02 354.2L118.36 352.93L117.7 351.63L117.03 350.3L116.7 349.62L116.02 348.24L115.34 346.83L115 346.11C115.11 344.19 115.23 342.3 115.35 340.44C150.08 376.39 208.63 400 275 400C341.82 400 400.71 376.07 435.35 339.71L435.31 341.07L435.26 342.28L435.18 343.79L435.11 344.77L435 346.11L435 346.11Z" />
	</g>
</svg>