<?xml version="1.0" encoding="UTF-8"?><svg xmlns="http://www.w3.org/2000/svg" xmlns:xlink="http://www.w3.org/1999/xlink" width="375" zoomAndPan="magnify" viewBox="0 0 375 374.999991" height="374.999991" preserveAspectRatio="xMidYMid meet" version="1.0"><defs><clipPath id="clip-0"><path d="M 112.5 114.3125 L 262.5 114.3125 L 262.5 260.5625 L 112.5 260.5625 Z M 112.5 114.3125 " clip-rule="nonzero"/></clipPath></defs><rect x="-37.5" width="450" fill="rgb(100%, 100%, 100%)" y="-37.499999" height="449.999989" fill-opacity="1"/><rect x="-37.5" width="450" fill="rgb(100%, 100%, 100%)" y="-37.499999" height="449.999989" fill-opacity="1"/><rect x="-37.5" width="450" fill="rgb(100%, 100%, 100%)" y="-37.499999" height="449.999989" fill-opacity="1"/><path fill="rgb(0%, 0%, 0%)" d="M 187.5 84.375 C 130.546875 84.375 84.375 130.546875 84.375 187.5 C 84.375 244.453125 130.546875 290.625 187.5 290.625 C 244.453125 290.625 290.625 244.453125 290.625 187.5 C 290.625 130.546875 244.453125 84.375 187.5 84.375 Z M 187.5 84.375 " fill-opacity="1" fill-rule="nonzero"/><g clip-path="url(#clip-0)"><path fill="rgb(17.649841%, 65.489197%, 74.899292%)" d="M 112.539062 178.414062 L 112.539062 117.445312 L 236.253906 241.949219 C 233.6875 244.0625 202.816406 268.730469 166.039062 257.761719 C 134.105469 248.183594 111.425781 215.667969 112.539062 178.414062 Z M 262.332031 196.679688 L 262.5 257.207031 L 138.398438 133.144531 C 140.960938 130.972656 171.777344 106.195312 208.554688 117.054688 C 240.65625 126.574219 263.449219 159.203125 262.277344 196.679688 Z M 262.332031 196.679688 " fill-opacity="1" fill-rule="nonzero"/></g></svg>