<svg width="379" height="129" viewBox="0 0 379 129" fill="none" xmlns="http://www.w3.org/2000/svg">
<g filter="url(#filter0_d)">
<rect x="4" y="4" width="371" height="121" rx="35" fill="#02051F"/>
</g>
<g clip-path="url(#clip0)">
<path fill-rule="evenodd" clip-rule="evenodd" d="M94.5135 60.8834L85.2217 36.0486H77.2581L68 60.8834H75.189L76.4064 57.3071H86.1071L87.3245 60.8834H94.5135ZM84.3604 51.724H78.105L81.2375 42.3751L84.3604 51.724ZM105.581 61.3304C112.183 61.3304 115.83 58.0165 115.83 53.0262C115.83 43.794 101.929 46.102 101.929 42.9339C101.929 41.8941 102.742 41.1458 104.585 41.1458C107.205 41.1556 109.744 42.0617 111.788 43.7162L115.257 39.139C112.625 36.8601 109.195 35.6744 105.249 35.6744C98.9404 35.6744 95.4277 39.3965 95.4277 43.5705C95.4277 53.138 109.382 50.4218 109.382 53.8085C109.382 54.999 108.054 55.8542 105.879 55.8542C102.935 55.8563 100.111 54.6784 98.0261 52.5792L94.6578 57.3848C97.1263 59.7658 100.591 61.3304 105.571 61.3304H105.581ZM130.256 60.8834V41.6317H137.113V36.0486H117.014V41.6317H123.914V60.8834H130.256ZM161.379 60.8834L156.365 51.758C158.651 50.9417 161.269 48.6336 161.269 44.3139C161.269 39.6978 158.175 36.0534 152.718 36.0534H140.4V60.8834H146.742V52.5403H149.985L154.133 60.8834H161.379ZM151.756 46.9572H146.742V41.6122H151.756C153.416 41.6122 154.816 42.5841 154.816 44.2556C154.816 46.0049 153.416 46.9378 151.756 46.9378V46.9572ZM235.097 60.8834V36.0486H228.717V49.7123L218.766 36.0486H212.236V60.8834H218.578V46.5102L228.977 60.8834H235.097ZM263.685 60.8834L254.388 36.0486H246.425L237.171 60.8834H244.36L245.558 57.3071H255.254L256.472 60.8834H263.685ZM253.541 51.724H247.286L250.423 42.3751L253.556 51.724H253.541ZM276.042 61.3304C283.895 61.3304 287.619 56.9572 287.619 50.7911V36.0486H281.205V50.6258C281.205 53.5656 279.434 55.689 276.042 55.689C272.572 55.689 270.84 53.5656 270.84 50.6258V36.0486H264.387V50.8299C264.387 56.9378 268.112 61.3304 276.042 61.3304ZM304.143 60.8834V41.6317H311V36.0486H290.906V41.6317H297.801V60.8834H304.143Z" fill="url(#paint0_linear)"/>
<path fill-rule="evenodd" clip-rule="evenodd" d="M190.222 33.7988C189.522 33.8159 188.826 33.9021 188.143 34.0564C190.977 34.484 194.023 34.7998 197.069 36.5394C207.939 42.7541 204.561 63.2643 191.078 63.2643C184.702 63.2643 179.756 63.2012 179.756 63.2012C167.712 63.585 162.962 45.5092 171.561 37.4917C172.073 37.1064 172.615 36.7651 173.183 36.4713C172.038 36.4179 169.694 37.8416 169.694 37.8416C169.694 37.8416 170.782 36.3401 170.705 35.344C170.628 34.3479 170.556 33.3615 170.902 32.6569C169.107 34.9456 168.308 38.2012 167.923 41.5005C167.134 40.8396 165.08 43.3567 165.104 47.516C165.128 51.6754 166.841 52.4966 167.51 53.0457C167.957 53.4247 168.304 54.7998 168.549 56.3401H168.597C168.784 56.9938 168.896 57.6673 168.929 58.3469C168.929 58.7843 168.929 59.275 168.9 59.7658H168.823C168.732 60.6453 168.448 61.1118 168.318 62.0398C169.381 62.4383 170.897 62.8562 172.052 62.6229L173.539 62.3217C173.539 62.3217 175.266 63.5219 174.549 65.4461C174.068 66.7532 172.018 66.758 170.753 66.6268C170.796 66.6836 170.835 66.7438 170.868 66.8066C171.191 67.4626 178.019 71.1798 185.607 70.966C190.703 70.7879 195.67 69.3048 200.043 66.656C198.777 66.7483 197.031 66.656 196.588 65.4461C195.876 63.5024 197.603 62.3217 197.603 62.3217L199.09 62.6229C200.12 62.827 201.429 62.5209 202.458 62.171C202.429 61.6851 202.377 60.7133 202.343 59.7415C202.343 59.2556 202.319 58.7697 202.319 58.3226C202.353 57.6434 202.462 56.9702 202.646 56.3158C203.065 54.6832 203.724 52.9582 203.724 52.9582C204.378 52.5209 206.327 50.3878 205.73 45.8445C205.134 41.3013 202.805 41.4713 202.805 41.4713C202.68 38.2595 200.996 34.9261 198.821 32.346L198.796 32.312L198.551 32.035C196.724 30.0631 194.553 28.4473 192.146 27.2682C191.916 28.551 192.483 29.0855 191.839 30.8396C191.073 32.9193 189.481 32.6715 192.118 32.171C192.272 32.1419 191.482 33.6774 190.222 33.7988ZM174.112 62.3994H174.179C175.031 62.3994 175.719 63.4344 175.719 64.7026C175.719 65.9708 175.031 66.9864 174.179 66.9864H174.112C174.78 66.9329 175.315 65.9222 175.315 64.6832C175.315 63.4441 174.78 62.4334 174.112 62.3848V62.3994ZM197.108 62.3994C196.439 62.448 195.909 63.4587 195.909 64.6978C195.909 65.9368 196.439 66.9475 197.108 67.001H197.04C196.193 67.001 195.5 65.9708 195.5 64.6978C195.5 63.4247 196.193 62.3946 197.04 62.3946L197.108 62.3994Z" fill="#FDFDFD"/>
<path fill-rule="evenodd" clip-rule="evenodd" d="M170.382 66.4568C170.137 66.4179 169.983 66.3839 169.983 66.3839C169.983 66.3839 165.946 65.8251 164.733 63.9932C163.521 62.1613 163.222 59.4548 165.238 57.7736C166.682 56.5782 167.798 56.4665 168.333 56.4956C168.52 57.1509 168.631 57.826 168.665 58.5073C168.665 58.9446 168.665 59.4354 168.636 59.9261C168.438 59.9893 167.457 60.3246 167.409 60.8299C167.361 61.3353 167.308 62.001 168.116 62.3605L168.511 62.5258C169.415 62.8853 170.868 63.3421 171.951 63.1234L173.212 62.8707C173.212 62.8707 174.655 63.8912 174.073 65.519C173.592 66.8066 171.316 66.6025 170.382 66.4568Z" fill="#FDFDFD"/>
<path fill-rule="evenodd" clip-rule="evenodd" d="M178.808 36.4227C181.333 36.0406 183.882 35.849 186.435 35.8494C189.534 35.966 193.171 36.0486 196.814 38.4636C204.84 43.8085 202.757 61.724 190.559 61.724C184.89 61.724 180.492 61.6657 180.492 61.6657C169.848 62.0447 165.484 46.0194 173.192 38.828C174.871 37.6215 176.785 36.793 178.808 36.3984V36.4227ZM190.814 62.3703C203.623 62.3703 205.807 43.5462 197.382 37.9485C193.59 35.4023 189.741 35.3246 186.483 35.2031C183.225 35.0816 178.476 35.8056 178.476 35.8056C176.356 36.2072 174.345 37.0639 172.581 38.3178C164.488 45.8639 169.069 62.6861 180.247 62.2925C180.247 62.3119 184.861 62.3703 190.814 62.3703Z" fill="#FDFDFD"/>
<path fill-rule="evenodd" clip-rule="evenodd" d="M179.154 36.9961C181.561 36.6328 183.992 36.4509 186.425 36.4519C189.375 36.5588 192.859 36.6414 196.314 38.9397C203.96 44.0223 201.982 61.1069 190.352 61.1069C184.953 61.1069 180.766 61.0486 180.766 61.0486C170.637 61.413 166.48 46.1409 173.828 39.2896C175.422 38.1513 177.238 37.3695 179.154 36.9961Z" fill="url(#paint1_linear)"/>
<path fill-rule="evenodd" clip-rule="evenodd" d="M181.7 42.5598C181.76 42.5598 181.818 42.5777 181.868 42.6114C181.918 42.645 181.957 42.6928 181.98 42.7487C182.003 42.8047 182.009 42.8662 181.997 42.9256C181.986 42.985 181.957 43.0395 181.914 43.0824C181.872 43.1252 181.818 43.1543 181.759 43.1661C181.7 43.1779 181.639 43.1719 181.584 43.1487C181.528 43.1255 181.481 43.0863 181.448 43.036C181.415 42.9856 181.397 42.9264 181.397 42.8659C181.397 42.8257 181.405 42.7859 181.42 42.7487C181.435 42.7116 181.457 42.6779 181.486 42.6494C181.514 42.621 181.547 42.5985 181.584 42.5831C181.621 42.5677 181.66 42.5598 181.7 42.5598Z" fill="#FDFDFD"/>
<path fill-rule="evenodd" clip-rule="evenodd" d="M184.78 39.3479C184.86 39.3479 184.938 39.3718 185.004 39.4167C185.071 39.4615 185.122 39.5253 185.153 39.5999C185.184 39.6745 185.192 39.7565 185.176 39.8357C185.16 39.9149 185.122 39.9876 185.065 40.0447C185.009 40.1018 184.937 40.1406 184.858 40.1564C184.78 40.1721 184.699 40.1641 184.625 40.1332C184.551 40.1023 184.488 40.05 184.443 39.9828C184.399 39.9157 184.375 39.8368 184.375 39.7561C184.375 39.6478 184.418 39.544 184.494 39.4675C184.57 39.3909 184.672 39.3479 184.78 39.3479Z" fill="#FDFDFD"/>
<path fill-rule="evenodd" clip-rule="evenodd" d="M186.95 48.036C186.993 48.036 187.035 48.0489 187.071 48.0732C187.106 48.0974 187.134 48.1319 187.15 48.1721C187.166 48.2123 187.17 48.2566 187.162 48.2991C187.153 48.3416 187.132 48.3806 187.101 48.411C187.07 48.4413 187.031 48.4618 186.989 48.4696C186.947 48.4775 186.903 48.4725 186.863 48.4552C186.824 48.4379 186.791 48.4091 186.767 48.3725C186.744 48.3359 186.732 48.2932 186.733 48.2498C186.733 48.2213 186.739 48.1931 186.75 48.1668C186.761 48.1405 186.777 48.1168 186.797 48.0968C186.817 48.0769 186.841 48.0613 186.867 48.0508C186.893 48.0404 186.922 48.0353 186.95 48.036Z" fill="#FDFDFD"/>
<path fill-rule="evenodd" clip-rule="evenodd" d="M180.665 51.0923C180.769 51.0936 180.868 51.1361 180.941 51.2107C181.014 51.2853 181.055 51.3859 181.055 51.4908C181.055 51.5952 181.014 51.6953 180.941 51.7691C180.868 51.8429 180.769 51.8844 180.665 51.8844C180.562 51.8844 180.463 51.8429 180.39 51.7691C180.317 51.6953 180.276 51.5952 180.276 51.4908C180.276 51.3859 180.317 51.2853 180.389 51.2107C180.462 51.1361 180.562 51.0936 180.665 51.0923Z" fill="#FDFDFD"/>
<path fill-rule="evenodd" clip-rule="evenodd" d="M179.607 46.3256C179.641 46.3256 179.674 46.3394 179.699 46.364C179.723 46.3886 179.737 46.422 179.737 46.4567C179.737 46.4915 179.723 46.5249 179.699 46.5495C179.674 46.5741 179.641 46.5879 179.607 46.5879C179.572 46.5879 179.539 46.5741 179.515 46.5495C179.49 46.5249 179.477 46.4915 179.477 46.4567C179.477 46.422 179.49 46.3886 179.515 46.364C179.539 46.3394 179.572 46.3256 179.607 46.3256Z" fill="#FDFDFD"/>
<path fill-rule="evenodd" clip-rule="evenodd" d="M187.816 43.7502C187.85 43.7502 187.883 43.7641 187.908 43.7887C187.932 43.8133 187.946 43.8466 187.946 43.8814C187.946 43.9162 187.932 43.9496 187.908 43.9742C187.883 43.9988 187.85 44.0126 187.816 44.0126C187.781 44.0126 187.748 43.9988 187.724 43.9742C187.7 43.9496 187.686 43.9162 187.686 43.8814C187.686 43.8466 187.7 43.8133 187.724 43.7887C187.748 43.7641 187.781 43.7502 187.816 43.7502Z" fill="#FDFDFD"/>
<path fill-rule="evenodd" clip-rule="evenodd" d="M186.507 54.3528C186.58 54.3528 186.652 54.3747 186.713 54.4158C186.774 54.4569 186.821 54.5154 186.849 54.5837C186.877 54.6521 186.885 54.7273 186.87 54.7999C186.856 54.8725 186.821 54.9392 186.769 54.9915C186.717 55.0438 186.651 55.0794 186.579 55.0939C186.507 55.1083 186.433 55.1009 186.365 55.0726C186.298 55.0443 186.24 54.9963 186.199 54.9348C186.158 54.8733 186.136 54.8009 186.136 54.7269C186.136 54.6778 186.146 54.6291 186.165 54.5837C186.183 54.5383 186.211 54.4971 186.245 54.4624C186.279 54.4276 186.32 54.4001 186.365 54.3812C186.41 54.3624 186.458 54.3528 186.507 54.3528Z" fill="#FDFDFD"/>
<path fill-rule="evenodd" clip-rule="evenodd" d="M182.6 55.412C182.648 55.412 182.695 55.4315 182.729 55.4661C182.763 55.5008 182.783 55.5477 182.783 55.5967C182.783 55.6457 182.763 55.6926 182.729 55.7273C182.695 55.7619 182.648 55.7813 182.6 55.7813C182.551 55.7813 182.505 55.7619 182.47 55.7273C182.436 55.6926 182.417 55.6457 182.417 55.5967C182.417 55.5477 182.436 55.5008 182.47 55.4661C182.505 55.4315 182.551 55.412 182.6 55.412Z" fill="#FDFDFD"/>
<path fill-rule="evenodd" clip-rule="evenodd" d="M186.632 58.5802C186.673 58.5802 186.712 58.5966 186.741 58.6257C186.77 58.6549 186.786 58.6944 186.786 58.7357C186.786 58.7769 186.77 58.8165 186.741 58.8456C186.712 58.8748 186.673 58.8912 186.632 58.8912C186.592 58.8899 186.553 58.8732 186.525 58.8443C186.496 58.8154 186.479 58.7765 186.478 58.7357C186.478 58.6944 186.494 58.6549 186.523 58.6257C186.552 58.5966 186.591 58.5802 186.632 58.5802Z" fill="#FDFDFD"/>
<path fill-rule="evenodd" clip-rule="evenodd" d="M198.354 52.7736C198.395 52.7736 198.434 52.7899 198.463 52.8191C198.492 52.8483 198.508 52.8878 198.508 52.9291C198.508 52.9703 198.492 53.0098 198.463 53.039C198.434 53.0682 198.395 53.0845 198.354 53.0845C198.313 53.0845 198.274 53.0682 198.245 53.039C198.216 53.0098 198.2 52.9703 198.2 52.9291C198.2 52.8878 198.216 52.8483 198.245 52.8191C198.274 52.7899 198.313 52.7736 198.354 52.7736Z" fill="#FDFDFD"/>
<path d="M198.532 47.1905C198.742 47.1905 198.912 47.0186 198.912 46.8066C198.912 46.5946 198.742 46.4227 198.532 46.4227C198.322 46.4227 198.152 46.5946 198.152 46.8066C198.152 47.0186 198.322 47.1905 198.532 47.1905Z" fill="#FDFDFD"/>
<path fill-rule="evenodd" clip-rule="evenodd" d="M172.966 52.2148C173.042 52.2138 173.116 52.2355 173.179 52.2771C173.242 52.3187 173.291 52.3783 173.321 52.4483C173.351 52.5184 173.359 52.5957 173.345 52.6705C173.33 52.7453 173.295 52.8141 173.242 52.8683C173.189 52.9225 173.121 52.9595 173.047 52.9747C172.973 52.9899 172.897 52.9826 172.827 52.9537C172.757 52.9248 172.697 52.8756 172.655 52.8124C172.613 52.7492 172.591 52.6748 172.591 52.5986C172.591 52.4977 172.63 52.4008 172.701 52.3289C172.771 52.2571 172.866 52.216 172.966 52.2148Z" fill="#FDFDFD"/>
<path fill-rule="evenodd" clip-rule="evenodd" d="M171.417 48.036C171.462 48.0432 171.503 48.0666 171.533 48.1017C171.563 48.1369 171.579 48.1816 171.579 48.2279C171.579 48.2741 171.563 48.3189 171.533 48.354C171.503 48.3892 171.462 48.4125 171.417 48.4198C171.389 48.4243 171.361 48.4226 171.334 48.415C171.308 48.4074 171.283 48.394 171.262 48.3758C171.24 48.3575 171.223 48.3348 171.212 48.3093C171.2 48.2838 171.194 48.256 171.194 48.2279C171.194 48.1998 171.2 48.172 171.212 48.1465C171.223 48.1209 171.24 48.0983 171.262 48.08C171.283 48.0618 171.308 48.0484 171.334 48.0408C171.361 48.0332 171.389 48.0315 171.417 48.036Z" fill="#FDFDFD"/>
<path fill-rule="evenodd" clip-rule="evenodd" d="M173.279 46.4568C173.347 46.4577 173.414 46.479 173.47 46.5181C173.527 46.5571 173.57 46.6121 173.596 46.6761C173.621 46.7401 173.627 46.8102 173.614 46.8778C173.6 46.9453 173.566 47.0072 173.518 47.0557C173.469 47.1041 173.407 47.1369 173.34 47.1501C173.273 47.1632 173.204 47.156 173.141 47.1293C173.078 47.1027 173.024 47.0579 172.986 47.0005C172.948 46.943 172.928 46.8756 172.928 46.8066C172.928 46.7603 172.937 46.7144 172.955 46.6716C172.972 46.6288 172.998 46.59 173.031 46.5575C173.064 46.5249 173.102 46.4993 173.145 46.482C173.188 46.4647 173.233 46.4561 173.279 46.4568Z" fill="#FDFDFD"/>
<path fill-rule="evenodd" clip-rule="evenodd" d="M176.806 58.8766C175.574 53.7891 174.829 45.1885 174.448 39.5083C174.448 39.4208 174.448 39.3285 174.448 39.241L174.29 39.3576L174.131 39.5083C173.958 39.6783 173.794 39.8484 173.65 40.0233C174.03 45.4898 174.728 53.3372 175.849 58.3178C176.156 58.5245 176.476 58.7111 176.806 58.8766Z" fill="#FDFDFD"/>
<path fill-rule="evenodd" clip-rule="evenodd" d="M175.343 39.5083C175.738 45.3392 176.513 54.2459 177.802 59.2702C178.418 59.4699 179.054 59.5971 179.698 59.6492C178.346 54.7075 177.542 45.4898 177.138 39.5083C177.1 38.93 177.066 38.3858 177.032 37.8756C176.437 38.105 175.859 38.3795 175.305 38.6968C175.305 38.9592 175.305 39.2313 175.343 39.5083Z" fill="#FDFDFD"/>
<path fill-rule="evenodd" clip-rule="evenodd" d="M188.923 39.5083C189.004 45.519 188.951 54.7221 188.008 59.7221H189.741C190.955 59.7316 192.16 59.509 193.292 59.0661C194.124 53.9446 194.172 45.2566 194.091 39.5034C194.091 39.0855 194.091 38.6822 194.091 38.2983C192.471 37.484 190.712 36.9892 188.908 36.8406C188.889 37.6375 188.908 38.5316 188.923 39.5083Z" fill="#FDFDFD"/>
<path fill-rule="evenodd" clip-rule="evenodd" d="M195.284 39.5083C195.361 45.0233 195.322 53.2303 194.586 58.4101C195.2 58.0334 195.766 57.5813 196.27 57.0641C196.809 52.171 196.867 45.3489 196.809 40.344C196.54 40.0434 196.249 39.764 195.938 39.5083C195.73 39.3354 195.513 39.1732 195.289 39.0224C195.279 39.1778 195.284 39.3431 195.284 39.5083Z" fill="#FDFDFD"/>
<path d="M171.561 37.4917C177.156 34.3169 183.665 33.1925 189.986 34.309" stroke="#FDFDFD" stroke-width="0.02" stroke-miterlimit="2.61"/>
<path fill-rule="evenodd" clip-rule="evenodd" d="M171.561 37.4917C176.653 34.5995 182.516 33.3976 188.321 34.0564C188.993 33.9597 189.669 33.8981 190.347 33.8717C191.545 33.76 192.503 31.9961 192.349 32.0253C189.712 32.5112 191.093 32.9193 191.868 30.8396C192.483 29.1681 192.046 28.4441 192.2 27.2828C189.886 26.2964 187.377 25.8672 184.871 26.0292C179.13 26.3207 173.707 28.7259 170.532 33.1769C170.538 33.9029 170.599 34.6273 170.714 35.344C170.777 36.1652 169.704 37.8416 169.704 37.8416C169.704 37.8416 172.047 36.4179 173.193 36.4713C172.621 36.7646 172.076 37.1059 171.561 37.4917Z" fill="#D1D2D4"/>
<path fill-rule="evenodd" clip-rule="evenodd" d="M200.837 66.4568C201.087 66.4179 201.236 66.3839 201.236 66.3839C201.236 66.3839 205.273 65.8251 206.486 63.9932C207.699 62.1613 208.026 59.4548 205.981 57.7541C204.537 56.5588 203.421 56.447 202.887 56.4762C202.703 57.1322 202.593 57.807 202.559 58.4879C202.559 58.9252 202.559 59.4159 202.584 59.9067C202.781 59.9699 203.767 60.3052 203.811 60.8105C203.854 61.3158 203.912 61.9815 203.103 62.3411L202.709 62.5063C201.809 62.8659 200.351 63.3226 199.268 63.104L198.007 62.8513C198.007 62.8513 196.564 63.8717 197.151 65.4995C197.627 66.8066 199.903 66.6025 200.837 66.4568Z" fill="#FDFDFD"/>
</g>
<path d="M115.566 102.98C115.539 103.367 115.333 103.633 114.946 103.78C114.573 103.927 113.893 104 112.906 104C111.919 104 111.093 103.913 110.426 103.74C109.773 103.553 109.446 103.32 109.446 103.04C109.446 102.72 110.039 100.68 111.226 96.92C112.413 93.1467 113.093 90.9733 113.266 90.4C113.333 90.2267 113.866 90.0867 114.866 89.98C115.879 89.86 116.959 89.8 118.106 89.8C119.266 89.8 119.906 90 120.026 90.4C122.546 98.7733 123.806 103.027 123.806 103.16C123.806 103.293 123.726 103.427 123.566 103.56C123.193 103.853 122.453 104 121.346 104C118.986 104 117.779 103.72 117.726 103.16L117.586 101.86H115.666L115.566 102.98ZM117.166 98.06L116.866 94.46H116.426L116.086 98.06H117.166ZM131.152 104.18C128.938 104.18 127.318 103.967 126.292 103.54C125.772 103.313 125.512 103.093 125.512 102.88C125.512 102.333 125.672 101.693 125.992 100.96C126.312 100.227 126.592 99.86 126.832 99.86C126.965 99.86 127.412 100.007 128.172 100.3C128.945 100.593 129.592 100.74 130.112 100.74C130.645 100.74 130.992 100.707 131.152 100.64C131.325 100.573 131.412 100.447 131.412 100.26C131.412 100.06 131.278 99.9067 131.012 99.8C130.745 99.68 130.412 99.6 130.012 99.56C129.612 99.52 129.178 99.44 128.712 99.32C128.258 99.2 127.832 99.0467 127.432 98.86C127.032 98.6733 126.698 98.3667 126.432 97.94C126.165 97.5 126.032 97.0333 126.032 96.54C126.032 96.0333 126.045 95.66 126.072 95.42C126.098 95.1667 126.205 94.82 126.392 94.38C126.592 93.9267 126.865 93.56 127.212 93.28C127.572 93 128.118 92.7467 128.852 92.52C129.598 92.2933 130.432 92.18 131.352 92.18C132.272 92.18 133.038 92.2133 133.652 92.28C134.278 92.3333 134.765 92.4067 135.112 92.5C135.472 92.5933 135.765 92.7 135.992 92.82C136.378 93.02 136.572 93.24 136.572 93.48C136.572 94 136.385 94.6 136.012 95.28C135.638 95.96 135.338 96.3 135.112 96.3C134.898 96.3 134.425 96.1867 133.692 95.96C132.958 95.72 132.418 95.6 132.072 95.6C131.512 95.6 131.232 95.76 131.232 96.08C131.232 96.28 131.418 96.4333 131.792 96.54C132.178 96.6333 132.638 96.7333 133.172 96.84C133.705 96.9467 134.238 97.1 134.772 97.3C135.318 97.4867 135.778 97.8333 136.152 98.34C136.538 98.8467 136.732 99.4867 136.732 100.26C136.732 102.873 134.872 104.18 131.152 104.18ZM146.798 103.82C146.558 104.047 146.012 104.16 145.158 104.16C144.305 104.16 143.598 104.107 143.038 104C142.478 103.88 141.945 103.653 141.438 103.32C140.465 102.667 139.978 101.307 139.978 99.24V96.12H138.978C138.832 96.12 138.705 95.9667 138.598 95.66C138.492 95.3533 138.438 94.9333 138.438 94.4C138.438 93.8667 138.518 93.4 138.678 93C138.852 92.5867 139.072 92.38 139.338 92.38H139.978V89.96C139.978 89.5467 140.378 89.2133 141.178 88.96C141.992 88.7067 142.785 88.58 143.558 88.58C144.772 88.58 145.378 88.88 145.378 89.48V92.38H146.858C147.205 92.38 147.378 92.88 147.378 93.88C147.378 94.5333 147.298 95.0733 147.138 95.5C146.992 95.9133 146.798 96.12 146.558 96.12H145.378V99.78C145.378 100.14 145.532 100.4 145.838 100.56C146.145 100.707 146.412 100.78 146.638 100.78C146.878 100.78 147.025 100.893 147.078 101.12C147.132 101.347 147.158 101.687 147.158 102.14C147.158 103.033 147.038 103.593 146.798 103.82ZM154.987 97.68V103.52C154.987 103.667 154.607 103.787 153.847 103.88C153.1 103.96 152.32 104 151.507 104C150.707 104 150.187 103.967 149.947 103.9C149.707 103.82 149.587 103.693 149.587 103.52V93.66C149.587 93.4067 149.953 93.1333 150.687 92.84C151.433 92.5467 152.24 92.4 153.107 92.4C153.987 92.4 154.48 92.64 154.587 93.12L154.787 94.04H154.927C155.113 93.5333 155.56 93.1067 156.267 92.76C156.973 92.4 157.68 92.22 158.387 92.22C159.093 92.22 159.587 92.3333 159.867 92.56C160.16 92.7867 160.307 93.08 160.307 93.44C160.307 93.7867 160.28 94.2333 160.227 94.78C160.173 95.3267 160.04 95.92 159.827 96.56C159.627 97.2 159.36 97.52 159.027 97.52C158.893 97.52 158.473 97.42 157.767 97.22C157.06 97.02 156.473 96.92 156.007 96.92C155.553 96.92 155.267 96.9867 155.147 97.12C155.04 97.2533 154.987 97.44 154.987 97.68ZM168.465 104.18C167.465 104.18 166.605 104.093 165.885 103.92C165.165 103.747 164.512 103.44 163.925 103C162.712 102.12 162.105 100.48 162.105 98.08C162.105 95.9467 162.725 94.42 163.965 93.5C165.125 92.6467 166.625 92.22 168.465 92.22C169.252 92.22 169.925 92.26 170.485 92.34C171.045 92.4067 171.612 92.56 172.185 92.8C172.772 93.04 173.239 93.3667 173.585 93.78C173.945 94.1933 174.239 94.7667 174.465 95.5C174.692 96.22 174.805 97.08 174.805 98.08C174.805 100.107 174.232 101.633 173.085 102.66C171.939 103.673 170.399 104.18 168.465 104.18ZM167.765 100.28C167.859 100.76 167.952 101.047 168.045 101.14C168.152 101.233 168.285 101.28 168.445 101.28C168.619 101.28 168.752 101.233 168.845 101.14C168.952 101.047 169.045 100.76 169.125 100.28C169.219 99.8 169.265 99.2 169.265 98.48C169.265 97.7467 169.245 97.1867 169.205 96.8C169.179 96.4 169.139 96.0933 169.085 95.88C169.045 95.6667 168.985 95.5 168.905 95.38C168.785 95.2067 168.639 95.12 168.465 95.12C168.305 95.12 168.172 95.1733 168.065 95.28C167.959 95.3733 167.859 95.6667 167.765 96.16C167.672 96.64 167.625 97.3267 167.625 98.22C167.625 99.1133 167.672 99.8 167.765 100.28ZM189.057 97.36V103.52C189.057 103.667 188.677 103.787 187.917 103.88C187.157 103.96 186.37 104 185.557 104C184.757 104 184.237 103.967 183.997 103.9C183.77 103.82 183.657 103.693 183.657 103.52V97.16C183.657 96.56 183.63 96.1667 183.577 95.98C183.537 95.7933 183.497 95.6267 183.457 95.48C183.364 95.2267 183.197 95.1 182.957 95.1C182.584 95.1 182.397 95.28 182.397 95.64V103.52C182.397 103.667 182.017 103.787 181.257 103.88C180.51 103.96 179.73 104 178.917 104C178.117 104 177.597 103.967 177.357 103.9C177.117 103.82 176.997 103.693 176.997 103.52V93.66C176.997 93.38 177.377 93.1 178.137 92.82C178.91 92.54 179.724 92.4 180.577 92.4C181.43 92.4 181.91 92.6467 182.017 93.14L182.197 94.02H182.337C182.724 93.2467 183.39 92.7067 184.337 92.4C184.724 92.28 185.15 92.22 185.617 92.22C186.964 92.22 187.87 92.6267 188.337 93.44C188.817 94.24 189.057 95.5467 189.057 97.36ZM195.254 104.18C194.041 104.18 193.087 103.893 192.394 103.32C192.114 103.08 191.867 102.727 191.654 102.26C191.454 101.793 191.354 101.247 191.354 100.62C191.354 99.9933 191.501 99.4467 191.794 98.98C192.101 98.5133 192.467 98.1533 192.894 97.9C193.321 97.6467 193.821 97.44 194.394 97.28C195.261 97.0533 196.214 96.94 197.254 96.94H197.914C197.914 96.3933 197.727 96.0067 197.354 95.78C197.194 95.6867 196.947 95.64 196.614 95.64C196.294 95.64 195.901 95.7267 195.434 95.9C194.981 96.0733 194.601 96.2533 194.294 96.44C193.987 96.6133 193.781 96.7 193.674 96.7C193.434 96.7 193.107 96.3867 192.694 95.76C192.281 95.12 192.074 94.54 192.074 94.02C192.074 93.8467 192.321 93.62 192.814 93.34C193.307 93.06 194.001 92.8067 194.894 92.58C195.801 92.34 196.681 92.22 197.534 92.22C198.387 92.22 199.121 92.2933 199.734 92.44C200.361 92.5733 200.867 92.74 201.254 92.94C201.654 93.14 201.987 93.4067 202.254 93.74C202.534 94.0733 202.741 94.3733 202.874 94.64C203.021 94.9067 203.127 95.2533 203.194 95.68C203.287 96.1733 203.334 96.78 203.334 97.5V103.52C203.334 103.667 202.974 103.787 202.254 103.88C201.547 103.96 200.841 104 200.134 104C199.441 104 198.987 103.98 198.774 103.94C198.574 103.9 198.454 103.853 198.414 103.8C198.374 103.747 198.341 103.653 198.314 103.52L198.154 102.38H197.994C197.661 103.58 196.747 104.18 195.254 104.18ZM197.934 100.86V98.52C197.587 98.52 197.307 98.6667 197.094 98.96C196.881 99.2533 196.774 99.5867 196.774 99.96C196.774 100.84 196.974 101.28 197.374 101.28C197.547 101.28 197.681 101.24 197.774 101.16C197.881 101.067 197.934 100.967 197.934 100.86ZM209.755 104.18C208.262 104.18 207.215 103.793 206.615 103.02C206.028 102.247 205.735 100.9 205.735 98.98V93.54C205.735 93.2733 206.128 93.02 206.915 92.78C207.702 92.5267 208.528 92.4 209.395 92.4C210.555 92.4 211.135 92.7 211.135 93.3V98.38C211.135 99.3933 211.175 100.133 211.255 100.6C211.335 101.053 211.535 101.28 211.855 101.28C212.282 101.28 212.495 101.1 212.495 100.74V93.54C212.495 93.26 212.908 93 213.735 92.76C214.562 92.52 215.462 92.4 216.435 92.4C217.408 92.4 217.895 92.66 217.895 93.18V103.48C217.895 103.667 217.475 103.8 216.635 103.88C215.795 103.96 214.968 104 214.155 104C213.342 104 212.928 103.893 212.915 103.68L212.715 102.38H212.555C212.435 102.86 212.195 103.253 211.835 103.56C211.648 103.72 211.368 103.867 210.995 104C210.635 104.12 210.222 104.18 209.755 104.18ZM228.15 103.82C227.91 104.047 227.363 104.16 226.51 104.16C225.657 104.16 224.95 104.107 224.39 104C223.83 103.88 223.297 103.653 222.79 103.32C221.817 102.667 221.33 101.307 221.33 99.24V96.12H220.33C220.183 96.12 220.057 95.9667 219.95 95.66C219.843 95.3533 219.79 94.9333 219.79 94.4C219.79 93.8667 219.87 93.4 220.03 93C220.203 92.5867 220.423 92.38 220.69 92.38H221.33V89.96C221.33 89.5467 221.73 89.2133 222.53 88.96C223.343 88.7067 224.137 88.58 224.91 88.58C226.123 88.58 226.73 88.88 226.73 89.48V92.38H228.21C228.557 92.38 228.73 92.88 228.73 93.88C228.73 94.5333 228.65 95.0733 228.49 95.5C228.343 95.9133 228.15 96.12 227.91 96.12H226.73V99.78C226.73 100.14 226.883 100.4 227.19 100.56C227.497 100.707 227.763 100.78 227.99 100.78C228.23 100.78 228.377 100.893 228.43 101.12C228.483 101.347 228.51 101.687 228.51 102.14C228.51 103.033 228.39 103.593 228.15 103.82ZM242.11 103.52C242.11 103.667 241.704 103.787 240.89 103.88C240.077 103.96 239.257 104 238.43 104C237.617 104 237.097 103.967 236.87 103.9C236.644 103.82 236.53 103.693 236.53 103.52V91.08C236.53 90.7867 236.917 90.5 237.69 90.22C238.464 89.9267 239.33 89.78 240.29 89.78C241.144 89.78 241.704 89.96 241.97 90.32C242.064 90.4533 242.11 90.5867 242.11 90.72V103.52ZM250.298 103.42C250.298 103.62 249.865 103.767 248.998 103.86C248.145 103.953 247.331 104 246.558 104C245.785 104 245.285 103.953 245.058 103.86C244.831 103.767 244.718 103.62 244.718 103.42V90.74C244.718 90.3933 244.891 90.1467 245.238 90C245.585 89.8533 246.238 89.78 247.198 89.78H254.618C254.898 89.78 255.038 90.2867 255.038 91.3C255.038 92.3 254.971 93.0667 254.838 93.6C254.718 94.12 254.558 94.38 254.358 94.38L250.298 94.18V95.54C252.071 95.46 253.258 95.42 253.858 95.42C254.058 95.42 254.191 95.5267 254.258 95.74C254.338 95.9533 254.378 96.3667 254.378 96.98C254.378 97.58 254.311 98.16 254.178 98.72C254.045 99.2667 253.858 99.54 253.618 99.54L250.298 99.42V103.42ZM264.197 104.18C263.09 104.18 262.137 104.08 261.337 103.88C260.55 103.667 259.823 103.293 259.157 102.76C257.81 101.707 257.137 99.6867 257.137 96.7C257.137 95.4467 257.317 94.3533 257.677 93.42C258.05 92.4867 258.563 91.7467 259.217 91.2C260.497 90.1333 262.157 89.6 264.197 89.6C265.25 89.6 266.163 89.6933 266.937 89.88C267.723 90.0667 268.463 90.4067 269.157 90.9C270.557 91.9133 271.257 93.8467 271.257 96.7C271.257 99.26 270.623 101.147 269.357 102.36C268.09 103.573 266.37 104.18 264.197 104.18ZM263.537 100.76C263.697 100.947 263.917 101.04 264.197 101.04C264.477 101.04 264.697 100.947 264.857 100.76C265.017 100.56 265.15 100.147 265.257 99.52C265.363 98.88 265.417 97.9933 265.417 96.86C265.417 95.7267 265.363 94.8533 265.257 94.24C265.15 93.6267 265.017 93.2267 264.857 93.04C264.697 92.8533 264.477 92.76 264.197 92.76C263.917 92.76 263.697 92.8533 263.537 93.04C263.377 93.2267 263.243 93.6267 263.137 94.24C263.03 94.8533 262.977 95.7267 262.977 96.86C262.977 97.9933 263.03 98.88 263.137 99.52C263.243 100.147 263.377 100.56 263.537 100.76Z" fill="white"/>
<defs>
<filter id="filter0_d" x="0" y="0" width="379" height="129" filterUnits="userSpaceOnUse" color-interpolation-filters="sRGB">
<feFlood flood-opacity="0" result="BackgroundImageFix"/>
<feColorMatrix in="SourceAlpha" type="matrix" values="0 0 0 0 0 0 0 0 0 0 0 0 0 0 0 0 0 0 127 0"/>
<feOffset/>
<feGaussianBlur stdDeviation="2"/>
<feColorMatrix type="matrix" values="0 0 0 0 0 0 0 0 0 0 0 0 0 0 0 0 0 0 0.15 0"/>
<feBlend mode="normal" in2="BackgroundImageFix" result="effect1_dropShadow"/>
<feBlend mode="normal" in="SourceGraphic" in2="effect1_dropShadow" result="shape"/>
</filter>
<linearGradient id="paint0_linear" x1="96.9916" y1="60.1448" x2="279.627" y2="37.8232" gradientUnits="userSpaceOnUse">
<stop stop-color="#BF75AE"/>
<stop offset="0.51" stop-color="#8579AE"/>
<stop offset="1" stop-color="#1BB1C1"/>
</linearGradient>
<linearGradient id="paint1_linear" x1="194.288" y1="44.2993" x2="175.92" y2="53.9661" gradientUnits="userSpaceOnUse">
<stop stop-color="#19B2C0"/>
<stop offset="0.44" stop-color="#757BAE"/>
<stop offset="1" stop-color="#BF75AE"/>
</linearGradient>
<clipPath id="clip0">
<rect width="243" height="45" fill="white" transform="translate(68 26)"/>
</clipPath>
</defs>
</svg>
