<svg width="379" height="129" viewBox="0 0 379 129" fill="none" xmlns="http://www.w3.org/2000/svg">
<g filter="url(#filter0_d)">
<rect x="4" y="4" width="371" height="121" rx="35" fill="#02051F"/>
</g>
<g clip-path="url(#clip0)">
<path fill-rule="evenodd" clip-rule="evenodd" d="M94.5135 60.8834L85.2217 36.0486H77.2581L68 60.8834H75.189L76.4064 57.3071H86.1071L87.3245 60.8834H94.5135ZM84.3604 51.724H78.105L81.2375 42.3751L84.3604 51.724ZM105.581 61.3304C112.183 61.3304 115.83 58.0165 115.83 53.0262C115.83 43.794 101.929 46.102 101.929 42.9339C101.929 41.8941 102.742 41.1458 104.585 41.1458C107.205 41.1556 109.744 42.0617 111.788 43.7162L115.257 39.139C112.625 36.8601 109.195 35.6744 105.249 35.6744C98.9404 35.6744 95.4277 39.3965 95.4277 43.5705C95.4277 53.138 109.382 50.4218 109.382 53.8085C109.382 54.999 108.054 55.8542 105.879 55.8542C102.935 55.8563 100.111 54.6784 98.0261 52.5792L94.6578 57.3848C97.1263 59.7658 100.591 61.3304 105.571 61.3304H105.581ZM130.256 60.8834V41.6317H137.113V36.0486H117.014V41.6317H123.914V60.8834H130.256ZM161.379 60.8834L156.365 51.758C158.651 50.9417 161.269 48.6336 161.269 44.3139C161.269 39.6978 158.175 36.0534 152.718 36.0534H140.4V60.8834H146.742V52.5403H149.985L154.133 60.8834H161.379ZM151.756 46.9572H146.742V41.6122H151.756C153.416 41.6122 154.816 42.5841 154.816 44.2556C154.816 46.0049 153.416 46.9378 151.756 46.9378V46.9572ZM235.097 60.8834V36.0486H228.717V49.7123L218.766 36.0486H212.236V60.8834H218.578V46.5102L228.977 60.8834H235.097ZM263.685 60.8834L254.388 36.0486H246.425L237.171 60.8834H244.36L245.558 57.3071H255.254L256.472 60.8834H263.685ZM253.541 51.724H247.286L250.423 42.3751L253.556 51.724H253.541ZM276.042 61.3304C283.895 61.3304 287.619 56.9572 287.619 50.7911V36.0486H281.205V50.6258C281.205 53.5656 279.434 55.689 276.042 55.689C272.572 55.689 270.84 53.5656 270.84 50.6258V36.0486H264.387V50.8299C264.387 56.9378 268.112 61.3304 276.042 61.3304ZM304.143 60.8834V41.6317H311V36.0486H290.906V41.6317H297.801V60.8834H304.143Z" fill="url(#paint0_linear)"/>
<path fill-rule="evenodd" clip-rule="evenodd" d="M190.222 33.7988C189.522 33.8159 188.826 33.9021 188.143 34.0564C190.977 34.484 194.023 34.7998 197.069 36.5394C207.939 42.7541 204.561 63.2643 191.078 63.2643C184.702 63.2643 179.756 63.2012 179.756 63.2012C167.712 63.585 162.962 45.5092 171.561 37.4917C172.073 37.1064 172.615 36.7651 173.183 36.4713C172.038 36.4179 169.694 37.8416 169.694 37.8416C169.694 37.8416 170.782 36.3401 170.705 35.344C170.628 34.3479 170.556 33.3615 170.902 32.6569C169.107 34.9456 168.308 38.2012 167.923 41.5005C167.134 40.8396 165.08 43.3567 165.104 47.516C165.128 51.6754 166.841 52.4966 167.51 53.0457C167.957 53.4247 168.304 54.7998 168.549 56.3401H168.597C168.784 56.9938 168.896 57.6673 168.929 58.3469C168.929 58.7843 168.929 59.275 168.9 59.7658H168.823C168.732 60.6453 168.448 61.1118 168.318 62.0398C169.381 62.4383 170.897 62.8562 172.052 62.6229L173.539 62.3217C173.539 62.3217 175.266 63.5219 174.549 65.4461C174.068 66.7532 172.018 66.758 170.753 66.6268C170.796 66.6836 170.835 66.7438 170.868 66.8066C171.191 67.4626 178.019 71.1798 185.607 70.966C190.703 70.7879 195.67 69.3048 200.043 66.656C198.777 66.7483 197.031 66.656 196.588 65.4461C195.876 63.5024 197.603 62.3217 197.603 62.3217L199.09 62.6229C200.12 62.827 201.429 62.5209 202.458 62.171C202.429 61.6851 202.377 60.7133 202.343 59.7415C202.343 59.2556 202.319 58.7697 202.319 58.3226C202.353 57.6434 202.462 56.9702 202.646 56.3158C203.065 54.6832 203.724 52.9582 203.724 52.9582C204.378 52.5209 206.327 50.3878 205.73 45.8445C205.134 41.3013 202.805 41.4713 202.805 41.4713C202.68 38.2595 200.996 34.9261 198.821 32.346L198.796 32.312L198.551 32.035C196.724 30.0631 194.553 28.4473 192.146 27.2682C191.916 28.551 192.483 29.0855 191.839 30.8396C191.073 32.9193 189.481 32.6715 192.118 32.171C192.272 32.1419 191.482 33.6774 190.222 33.7988ZM174.112 62.3994H174.179C175.031 62.3994 175.719 63.4344 175.719 64.7026C175.719 65.9708 175.031 66.9864 174.179 66.9864H174.112C174.78 66.9329 175.315 65.9222 175.315 64.6832C175.315 63.4441 174.78 62.4334 174.112 62.3848V62.3994ZM197.108 62.3994C196.439 62.448 195.909 63.4587 195.909 64.6978C195.909 65.9368 196.439 66.9475 197.108 67.001H197.04C196.193 67.001 195.5 65.9708 195.5 64.6978C195.5 63.4247 196.193 62.3946 197.04 62.3946L197.108 62.3994Z" fill="#FDFDFD"/>
<path fill-rule="evenodd" clip-rule="evenodd" d="M170.382 66.4568C170.137 66.4179 169.983 66.3839 169.983 66.3839C169.983 66.3839 165.946 65.8251 164.733 63.9932C163.521 62.1613 163.222 59.4548 165.238 57.7736C166.682 56.5782 167.798 56.4665 168.333 56.4956C168.52 57.1509 168.631 57.826 168.665 58.5073C168.665 58.9446 168.665 59.4354 168.636 59.9261C168.438 59.9893 167.457 60.3246 167.409 60.8299C167.361 61.3353 167.308 62.001 168.116 62.3605L168.511 62.5258C169.415 62.8853 170.868 63.3421 171.951 63.1234L173.212 62.8707C173.212 62.8707 174.655 63.8912 174.073 65.519C173.592 66.8066 171.316 66.6025 170.382 66.4568Z" fill="#FDFDFD"/>
<path fill-rule="evenodd" clip-rule="evenodd" d="M178.808 36.4227C181.333 36.0406 183.882 35.849 186.435 35.8494C189.534 35.966 193.171 36.0486 196.814 38.4636C204.84 43.8085 202.757 61.724 190.559 61.724C184.89 61.724 180.492 61.6657 180.492 61.6657C169.848 62.0447 165.484 46.0194 173.192 38.828C174.871 37.6215 176.785 36.793 178.808 36.3984V36.4227ZM190.814 62.3703C203.623 62.3703 205.807 43.5462 197.382 37.9485C193.59 35.4023 189.741 35.3246 186.483 35.2031C183.225 35.0816 178.476 35.8056 178.476 35.8056C176.356 36.2072 174.345 37.0639 172.581 38.3178C164.488 45.8639 169.069 62.6861 180.247 62.2925C180.247 62.3119 184.861 62.3703 190.814 62.3703Z" fill="#FDFDFD"/>
<path fill-rule="evenodd" clip-rule="evenodd" d="M179.154 36.9961C181.561 36.6328 183.992 36.4509 186.425 36.4519C189.375 36.5588 192.859 36.6414 196.314 38.9397C203.96 44.0223 201.982 61.1069 190.352 61.1069C184.953 61.1069 180.766 61.0486 180.766 61.0486C170.637 61.413 166.48 46.1409 173.828 39.2896C175.422 38.1513 177.238 37.3695 179.154 36.9961Z" fill="url(#paint1_linear)"/>
<path fill-rule="evenodd" clip-rule="evenodd" d="M181.7 42.5598C181.76 42.5598 181.818 42.5777 181.868 42.6114C181.918 42.645 181.957 42.6928 181.98 42.7487C182.003 42.8047 182.009 42.8662 181.997 42.9256C181.986 42.985 181.957 43.0395 181.914 43.0824C181.872 43.1252 181.818 43.1543 181.759 43.1661C181.7 43.1779 181.639 43.1719 181.584 43.1487C181.528 43.1255 181.481 43.0863 181.448 43.036C181.415 42.9856 181.397 42.9264 181.397 42.8659C181.397 42.8257 181.405 42.7859 181.42 42.7487C181.435 42.7116 181.457 42.6779 181.486 42.6494C181.514 42.621 181.547 42.5985 181.584 42.5831C181.621 42.5677 181.66 42.5598 181.7 42.5598Z" fill="#FDFDFD"/>
<path fill-rule="evenodd" clip-rule="evenodd" d="M184.78 39.3479C184.86 39.3479 184.938 39.3718 185.004 39.4167C185.071 39.4615 185.122 39.5253 185.153 39.5999C185.184 39.6745 185.192 39.7565 185.176 39.8357C185.16 39.9149 185.122 39.9876 185.065 40.0447C185.009 40.1018 184.937 40.1406 184.858 40.1564C184.78 40.1721 184.699 40.1641 184.625 40.1332C184.551 40.1023 184.488 40.05 184.443 39.9828C184.399 39.9157 184.375 39.8368 184.375 39.7561C184.375 39.6478 184.418 39.544 184.494 39.4675C184.57 39.3909 184.672 39.3479 184.78 39.3479Z" fill="#FDFDFD"/>
<path fill-rule="evenodd" clip-rule="evenodd" d="M186.95 48.036C186.993 48.036 187.035 48.0489 187.071 48.0732C187.106 48.0974 187.134 48.1319 187.15 48.1721C187.166 48.2123 187.17 48.2566 187.162 48.2991C187.153 48.3416 187.132 48.3806 187.101 48.411C187.07 48.4413 187.031 48.4618 186.989 48.4696C186.947 48.4775 186.903 48.4725 186.863 48.4552C186.824 48.4379 186.791 48.4091 186.767 48.3725C186.744 48.3359 186.732 48.2932 186.733 48.2498C186.733 48.2213 186.739 48.1931 186.75 48.1668C186.761 48.1405 186.777 48.1168 186.797 48.0968C186.817 48.0769 186.841 48.0613 186.867 48.0508C186.893 48.0404 186.922 48.0353 186.95 48.036Z" fill="#FDFDFD"/>
<path fill-rule="evenodd" clip-rule="evenodd" d="M180.665 51.0923C180.769 51.0936 180.868 51.1361 180.941 51.2107C181.014 51.2853 181.055 51.3859 181.055 51.4908C181.055 51.5952 181.014 51.6953 180.941 51.7691C180.868 51.8429 180.769 51.8844 180.665 51.8844C180.562 51.8844 180.463 51.8429 180.39 51.7691C180.317 51.6953 180.276 51.5952 180.276 51.4908C180.276 51.3859 180.317 51.2853 180.389 51.2107C180.462 51.1361 180.562 51.0936 180.665 51.0923Z" fill="#FDFDFD"/>
<path fill-rule="evenodd" clip-rule="evenodd" d="M179.607 46.3256C179.641 46.3256 179.674 46.3394 179.699 46.364C179.723 46.3886 179.737 46.422 179.737 46.4567C179.737 46.4915 179.723 46.5249 179.699 46.5495C179.674 46.5741 179.641 46.5879 179.607 46.5879C179.572 46.5879 179.539 46.5741 179.515 46.5495C179.49 46.5249 179.477 46.4915 179.477 46.4567C179.477 46.422 179.49 46.3886 179.515 46.364C179.539 46.3394 179.572 46.3256 179.607 46.3256Z" fill="#FDFDFD"/>
<path fill-rule="evenodd" clip-rule="evenodd" d="M187.816 43.7502C187.85 43.7502 187.883 43.7641 187.908 43.7887C187.932 43.8133 187.946 43.8466 187.946 43.8814C187.946 43.9162 187.932 43.9496 187.908 43.9742C187.883 43.9988 187.85 44.0126 187.816 44.0126C187.781 44.0126 187.748 43.9988 187.724 43.9742C187.7 43.9496 187.686 43.9162 187.686 43.8814C187.686 43.8466 187.7 43.8133 187.724 43.7887C187.748 43.7641 187.781 43.7502 187.816 43.7502Z" fill="#FDFDFD"/>
<path fill-rule="evenodd" clip-rule="evenodd" d="M186.507 54.3528C186.58 54.3528 186.652 54.3747 186.713 54.4158C186.774 54.4569 186.821 54.5154 186.849 54.5837C186.877 54.6521 186.885 54.7273 186.87 54.7999C186.856 54.8725 186.821 54.9392 186.769 54.9915C186.717 55.0438 186.651 55.0794 186.579 55.0939C186.507 55.1083 186.433 55.1009 186.365 55.0726C186.298 55.0443 186.24 54.9963 186.199 54.9348C186.158 54.8733 186.136 54.8009 186.136 54.7269C186.136 54.6778 186.146 54.6291 186.165 54.5837C186.183 54.5383 186.211 54.4971 186.245 54.4624C186.279 54.4276 186.32 54.4001 186.365 54.3812C186.41 54.3624 186.458 54.3528 186.507 54.3528Z" fill="#FDFDFD"/>
<path fill-rule="evenodd" clip-rule="evenodd" d="M182.6 55.412C182.648 55.412 182.695 55.4315 182.729 55.4661C182.763 55.5008 182.783 55.5477 182.783 55.5967C182.783 55.6457 182.763 55.6926 182.729 55.7273C182.695 55.7619 182.648 55.7813 182.6 55.7813C182.551 55.7813 182.505 55.7619 182.47 55.7273C182.436 55.6926 182.417 55.6457 182.417 55.5967C182.417 55.5477 182.436 55.5008 182.47 55.4661C182.505 55.4315 182.551 55.412 182.6 55.412Z" fill="#FDFDFD"/>
<path fill-rule="evenodd" clip-rule="evenodd" d="M186.632 58.5802C186.673 58.5802 186.712 58.5966 186.741 58.6257C186.77 58.6549 186.786 58.6944 186.786 58.7357C186.786 58.7769 186.77 58.8165 186.741 58.8456C186.712 58.8748 186.673 58.8912 186.632 58.8912C186.592 58.8899 186.553 58.8732 186.525 58.8443C186.496 58.8154 186.479 58.7765 186.478 58.7357C186.478 58.6944 186.494 58.6549 186.523 58.6257C186.552 58.5966 186.591 58.5802 186.632 58.5802Z" fill="#FDFDFD"/>
<path fill-rule="evenodd" clip-rule="evenodd" d="M198.354 52.7736C198.395 52.7736 198.434 52.7899 198.463 52.8191C198.492 52.8483 198.508 52.8878 198.508 52.9291C198.508 52.9703 198.492 53.0098 198.463 53.039C198.434 53.0682 198.395 53.0845 198.354 53.0845C198.313 53.0845 198.274 53.0682 198.245 53.039C198.216 53.0098 198.2 52.9703 198.2 52.9291C198.2 52.8878 198.216 52.8483 198.245 52.8191C198.274 52.7899 198.313 52.7736 198.354 52.7736Z" fill="#FDFDFD"/>
<path d="M198.532 47.1905C198.742 47.1905 198.912 47.0186 198.912 46.8066C198.912 46.5946 198.742 46.4227 198.532 46.4227C198.322 46.4227 198.152 46.5946 198.152 46.8066C198.152 47.0186 198.322 47.1905 198.532 47.1905Z" fill="#FDFDFD"/>
<path fill-rule="evenodd" clip-rule="evenodd" d="M172.966 52.2148C173.042 52.2138 173.116 52.2355 173.179 52.2771C173.242 52.3187 173.291 52.3783 173.321 52.4483C173.351 52.5184 173.359 52.5957 173.345 52.6705C173.33 52.7453 173.295 52.8141 173.242 52.8683C173.189 52.9225 173.121 52.9595 173.047 52.9747C172.973 52.9899 172.897 52.9826 172.827 52.9537C172.757 52.9248 172.697 52.8756 172.655 52.8124C172.613 52.7492 172.591 52.6748 172.591 52.5986C172.591 52.4977 172.63 52.4008 172.701 52.3289C172.771 52.2571 172.866 52.216 172.966 52.2148Z" fill="#FDFDFD"/>
<path fill-rule="evenodd" clip-rule="evenodd" d="M171.417 48.036C171.462 48.0432 171.503 48.0666 171.533 48.1017C171.563 48.1369 171.579 48.1816 171.579 48.2279C171.579 48.2741 171.563 48.3189 171.533 48.354C171.503 48.3892 171.462 48.4125 171.417 48.4198C171.389 48.4243 171.361 48.4226 171.334 48.415C171.308 48.4074 171.283 48.394 171.262 48.3758C171.24 48.3575 171.223 48.3348 171.212 48.3093C171.2 48.2838 171.194 48.256 171.194 48.2279C171.194 48.1998 171.2 48.172 171.212 48.1465C171.223 48.1209 171.24 48.0983 171.262 48.08C171.283 48.0618 171.308 48.0484 171.334 48.0408C171.361 48.0332 171.389 48.0315 171.417 48.036Z" fill="#FDFDFD"/>
<path fill-rule="evenodd" clip-rule="evenodd" d="M173.279 46.4568C173.347 46.4577 173.414 46.479 173.47 46.5181C173.527 46.5571 173.57 46.6121 173.596 46.6761C173.621 46.7401 173.627 46.8102 173.614 46.8778C173.6 46.9453 173.566 47.0072 173.518 47.0557C173.469 47.1041 173.407 47.1369 173.34 47.1501C173.273 47.1632 173.204 47.156 173.141 47.1293C173.078 47.1027 173.024 47.0579 172.986 47.0005C172.948 46.943 172.928 46.8756 172.928 46.8066C172.928 46.7603 172.937 46.7144 172.955 46.6716C172.972 46.6288 172.998 46.59 173.031 46.5575C173.064 46.5249 173.102 46.4993 173.145 46.482C173.188 46.4647 173.233 46.4561 173.279 46.4568Z" fill="#FDFDFD"/>
<path fill-rule="evenodd" clip-rule="evenodd" d="M176.806 58.8766C175.574 53.7891 174.829 45.1885 174.448 39.5083C174.448 39.4208 174.448 39.3285 174.448 39.241L174.29 39.3576L174.131 39.5083C173.958 39.6783 173.794 39.8484 173.65 40.0233C174.03 45.4898 174.728 53.3372 175.849 58.3178C176.156 58.5245 176.476 58.7111 176.806 58.8766Z" fill="#FDFDFD"/>
<path fill-rule="evenodd" clip-rule="evenodd" d="M175.343 39.5083C175.738 45.3392 176.513 54.2459 177.802 59.2702C178.418 59.4699 179.054 59.5971 179.698 59.6492C178.346 54.7075 177.542 45.4898 177.138 39.5083C177.1 38.93 177.066 38.3858 177.032 37.8756C176.437 38.105 175.859 38.3795 175.305 38.6968C175.305 38.9592 175.305 39.2313 175.343 39.5083Z" fill="#FDFDFD"/>
<path fill-rule="evenodd" clip-rule="evenodd" d="M188.923 39.5083C189.004 45.519 188.951 54.7221 188.008 59.7221H189.741C190.955 59.7316 192.16 59.509 193.292 59.0661C194.124 53.9446 194.172 45.2566 194.091 39.5034C194.091 39.0855 194.091 38.6822 194.091 38.2983C192.471 37.484 190.712 36.9892 188.908 36.8406C188.889 37.6375 188.908 38.5316 188.923 39.5083Z" fill="#FDFDFD"/>
<path fill-rule="evenodd" clip-rule="evenodd" d="M195.284 39.5083C195.361 45.0233 195.322 53.2303 194.586 58.4101C195.2 58.0334 195.766 57.5813 196.27 57.0641C196.809 52.171 196.867 45.3489 196.809 40.344C196.54 40.0434 196.249 39.764 195.938 39.5083C195.73 39.3354 195.513 39.1732 195.289 39.0224C195.279 39.1778 195.284 39.3431 195.284 39.5083Z" fill="#FDFDFD"/>
<path d="M171.561 37.4917C177.156 34.3169 183.665 33.1925 189.986 34.309" stroke="#FDFDFD" stroke-width="0.02" stroke-miterlimit="2.61"/>
<path fill-rule="evenodd" clip-rule="evenodd" d="M171.561 37.4917C176.653 34.5995 182.516 33.3976 188.321 34.0564C188.993 33.9597 189.669 33.8981 190.347 33.8717C191.545 33.76 192.503 31.9961 192.349 32.0253C189.712 32.5112 191.093 32.9193 191.868 30.8396C192.483 29.1681 192.046 28.4441 192.2 27.2828C189.886 26.2964 187.377 25.8672 184.871 26.0292C179.13 26.3207 173.707 28.7259 170.532 33.1769C170.538 33.9029 170.599 34.6273 170.714 35.344C170.777 36.1652 169.704 37.8416 169.704 37.8416C169.704 37.8416 172.047 36.4179 173.193 36.4713C172.621 36.7646 172.076 37.1059 171.561 37.4917Z" fill="#D1D2D4"/>
<path fill-rule="evenodd" clip-rule="evenodd" d="M200.837 66.4568C201.087 66.4179 201.236 66.3839 201.236 66.3839C201.236 66.3839 205.273 65.8251 206.486 63.9932C207.699 62.1613 208.026 59.4548 205.981 57.7541C204.537 56.5588 203.421 56.447 202.887 56.4762C202.703 57.1322 202.593 57.807 202.559 58.4879C202.559 58.9252 202.559 59.4159 202.584 59.9067C202.781 59.9699 203.767 60.3052 203.811 60.8105C203.854 61.3158 203.912 61.9815 203.103 62.3411L202.709 62.5063C201.809 62.8659 200.351 63.3226 199.268 63.104L198.007 62.8513C198.007 62.8513 196.564 63.8717 197.151 65.4995C197.627 66.8066 199.903 66.6025 200.837 66.4568Z" fill="#FDFDFD"/>
</g>
<path d="M114.443 102.98C114.416 103.367 114.21 103.633 113.823 103.78C113.45 103.927 112.77 104 111.783 104C110.796 104 109.97 103.913 109.303 103.74C108.65 103.553 108.323 103.32 108.323 103.04C108.323 102.72 108.916 100.68 110.103 96.92C111.29 93.1467 111.97 90.9733 112.143 90.4C112.21 90.2267 112.743 90.0867 113.743 89.98C114.756 89.86 115.836 89.8 116.983 89.8C118.143 89.8 118.783 90 118.903 90.4C121.423 98.7733 122.683 103.027 122.683 103.16C122.683 103.293 122.603 103.427 122.443 103.56C122.07 103.853 121.33 104 120.223 104C117.863 104 116.656 103.72 116.603 103.16L116.463 101.86H114.543L114.443 102.98ZM116.043 98.06L115.743 94.46H115.303L114.963 98.06H116.043ZM130.029 104.18C127.815 104.18 126.195 103.967 125.169 103.54C124.649 103.313 124.389 103.093 124.389 102.88C124.389 102.333 124.549 101.693 124.869 100.96C125.189 100.227 125.469 99.86 125.709 99.86C125.842 99.86 126.289 100.007 127.049 100.3C127.822 100.593 128.469 100.74 128.989 100.74C129.522 100.74 129.869 100.707 130.029 100.64C130.202 100.573 130.289 100.447 130.289 100.26C130.289 100.06 130.155 99.9067 129.889 99.8C129.622 99.68 129.289 99.6 128.889 99.56C128.489 99.52 128.055 99.44 127.589 99.32C127.135 99.2 126.709 99.0467 126.309 98.86C125.909 98.6733 125.575 98.3667 125.309 97.94C125.042 97.5 124.909 97.0333 124.909 96.54C124.909 96.0333 124.922 95.66 124.949 95.42C124.975 95.1667 125.082 94.82 125.269 94.38C125.469 93.9267 125.742 93.56 126.089 93.28C126.449 93 126.995 92.7467 127.729 92.52C128.475 92.2933 129.309 92.18 130.229 92.18C131.149 92.18 131.915 92.2133 132.529 92.28C133.155 92.3333 133.642 92.4067 133.989 92.5C134.349 92.5933 134.642 92.7 134.869 92.82C135.255 93.02 135.449 93.24 135.449 93.48C135.449 94 135.262 94.6 134.889 95.28C134.515 95.96 134.215 96.3 133.989 96.3C133.775 96.3 133.302 96.1867 132.569 95.96C131.835 95.72 131.295 95.6 130.949 95.6C130.389 95.6 130.109 95.76 130.109 96.08C130.109 96.28 130.295 96.4333 130.669 96.54C131.055 96.6333 131.515 96.7333 132.049 96.84C132.582 96.9467 133.115 97.1 133.649 97.3C134.195 97.4867 134.655 97.8333 135.029 98.34C135.415 98.8467 135.609 99.4867 135.609 100.26C135.609 102.873 133.749 104.18 130.029 104.18ZM145.675 103.82C145.435 104.047 144.889 104.16 144.035 104.16C143.182 104.16 142.475 104.107 141.915 104C141.355 103.88 140.822 103.653 140.315 103.32C139.342 102.667 138.855 101.307 138.855 99.24V96.12H137.855C137.709 96.12 137.582 95.9667 137.475 95.66C137.369 95.3533 137.315 94.9333 137.315 94.4C137.315 93.8667 137.395 93.4 137.555 93C137.729 92.5867 137.949 92.38 138.215 92.38H138.855V89.96C138.855 89.5467 139.255 89.2133 140.055 88.96C140.869 88.7067 141.662 88.58 142.435 88.58C143.649 88.58 144.255 88.88 144.255 89.48V92.38H145.735C146.082 92.38 146.255 92.88 146.255 93.88C146.255 94.5333 146.175 95.0733 146.015 95.5C145.869 95.9133 145.675 96.12 145.435 96.12H144.255V99.78C144.255 100.14 144.409 100.4 144.715 100.56C145.022 100.707 145.289 100.78 145.515 100.78C145.755 100.78 145.902 100.893 145.955 101.12C146.009 101.347 146.035 101.687 146.035 102.14C146.035 103.033 145.915 103.593 145.675 103.82ZM153.864 97.68V103.52C153.864 103.667 153.484 103.787 152.724 103.88C151.977 103.96 151.197 104 150.384 104C149.584 104 149.064 103.967 148.824 103.9C148.584 103.82 148.464 103.693 148.464 103.52V93.66C148.464 93.4067 148.83 93.1333 149.564 92.84C150.31 92.5467 151.117 92.4 151.984 92.4C152.864 92.4 153.357 92.64 153.464 93.12L153.664 94.04H153.804C153.99 93.5333 154.437 93.1067 155.144 92.76C155.85 92.4 156.557 92.22 157.264 92.22C157.97 92.22 158.464 92.3333 158.744 92.56C159.037 92.7867 159.184 93.08 159.184 93.44C159.184 93.7867 159.157 94.2333 159.104 94.78C159.05 95.3267 158.917 95.92 158.704 96.56C158.504 97.2 158.237 97.52 157.904 97.52C157.77 97.52 157.35 97.42 156.644 97.22C155.937 97.02 155.35 96.92 154.884 96.92C154.43 96.92 154.144 96.9867 154.024 97.12C153.917 97.2533 153.864 97.44 153.864 97.68ZM167.342 104.18C166.342 104.18 165.482 104.093 164.762 103.92C164.042 103.747 163.389 103.44 162.802 103C161.589 102.12 160.982 100.48 160.982 98.08C160.982 95.9467 161.602 94.42 162.842 93.5C164.002 92.6467 165.502 92.22 167.342 92.22C168.129 92.22 168.802 92.26 169.362 92.34C169.922 92.4067 170.489 92.56 171.062 92.8C171.649 93.04 172.116 93.3667 172.462 93.78C172.822 94.1933 173.116 94.7667 173.342 95.5C173.569 96.22 173.682 97.08 173.682 98.08C173.682 100.107 173.109 101.633 171.962 102.66C170.816 103.673 169.276 104.18 167.342 104.18ZM166.642 100.28C166.736 100.76 166.829 101.047 166.922 101.14C167.029 101.233 167.162 101.28 167.322 101.28C167.496 101.28 167.629 101.233 167.722 101.14C167.829 101.047 167.922 100.76 168.002 100.28C168.096 99.8 168.142 99.2 168.142 98.48C168.142 97.7467 168.122 97.1867 168.082 96.8C168.056 96.4 168.016 96.0933 167.962 95.88C167.922 95.6667 167.862 95.5 167.782 95.38C167.662 95.2067 167.516 95.12 167.342 95.12C167.182 95.12 167.049 95.1733 166.942 95.28C166.836 95.3733 166.736 95.6667 166.642 96.16C166.549 96.64 166.502 97.3267 166.502 98.22C166.502 99.1133 166.549 99.8 166.642 100.28ZM187.934 97.36V103.52C187.934 103.667 187.554 103.787 186.794 103.88C186.034 103.96 185.247 104 184.434 104C183.634 104 183.114 103.967 182.874 103.9C182.647 103.82 182.534 103.693 182.534 103.52V97.16C182.534 96.56 182.507 96.1667 182.454 95.98C182.414 95.7933 182.374 95.6267 182.334 95.48C182.24 95.2267 182.074 95.1 181.834 95.1C181.46 95.1 181.274 95.28 181.274 95.64V103.52C181.274 103.667 180.894 103.787 180.134 103.88C179.387 103.96 178.607 104 177.794 104C176.994 104 176.474 103.967 176.234 103.9C175.994 103.82 175.874 103.693 175.874 103.52V93.66C175.874 93.38 176.254 93.1 177.014 92.82C177.787 92.54 178.6 92.4 179.454 92.4C180.307 92.4 180.787 92.6467 180.894 93.14L181.074 94.02H181.214C181.6 93.2467 182.267 92.7067 183.214 92.4C183.6 92.28 184.027 92.22 184.494 92.22C185.84 92.22 186.747 92.6267 187.214 93.44C187.694 94.24 187.934 95.5467 187.934 97.36ZM194.131 104.18C192.918 104.18 191.964 103.893 191.271 103.32C190.991 103.08 190.744 102.727 190.531 102.26C190.331 101.793 190.231 101.247 190.231 100.62C190.231 99.9933 190.378 99.4467 190.671 98.98C190.978 98.5133 191.344 98.1533 191.771 97.9C192.198 97.6467 192.698 97.44 193.271 97.28C194.138 97.0533 195.091 96.94 196.131 96.94H196.791C196.791 96.3933 196.604 96.0067 196.231 95.78C196.071 95.6867 195.824 95.64 195.491 95.64C195.171 95.64 194.778 95.7267 194.311 95.9C193.858 96.0733 193.478 96.2533 193.171 96.44C192.864 96.6133 192.658 96.7 192.551 96.7C192.311 96.7 191.984 96.3867 191.571 95.76C191.158 95.12 190.951 94.54 190.951 94.02C190.951 93.8467 191.198 93.62 191.691 93.34C192.184 93.06 192.878 92.8067 193.771 92.58C194.678 92.34 195.558 92.22 196.411 92.22C197.264 92.22 197.998 92.2933 198.611 92.44C199.238 92.5733 199.744 92.74 200.131 92.94C200.531 93.14 200.864 93.4067 201.131 93.74C201.411 94.0733 201.618 94.3733 201.751 94.64C201.898 94.9067 202.004 95.2533 202.071 95.68C202.164 96.1733 202.211 96.78 202.211 97.5V103.52C202.211 103.667 201.851 103.787 201.131 103.88C200.424 103.96 199.718 104 199.011 104C198.318 104 197.864 103.98 197.651 103.94C197.451 103.9 197.331 103.853 197.291 103.8C197.251 103.747 197.218 103.653 197.191 103.52L197.031 102.38H196.871C196.538 103.58 195.624 104.18 194.131 104.18ZM196.811 100.86V98.52C196.464 98.52 196.184 98.6667 195.971 98.96C195.758 99.2533 195.651 99.5867 195.651 99.96C195.651 100.84 195.851 101.28 196.251 101.28C196.424 101.28 196.558 101.24 196.651 101.16C196.758 101.067 196.811 100.967 196.811 100.86ZM208.632 104.18C207.139 104.18 206.092 103.793 205.492 103.02C204.905 102.247 204.612 100.9 204.612 98.98V93.54C204.612 93.2733 205.005 93.02 205.792 92.78C206.579 92.5267 207.405 92.4 208.272 92.4C209.432 92.4 210.012 92.7 210.012 93.3V98.38C210.012 99.3933 210.052 100.133 210.132 100.6C210.212 101.053 210.412 101.28 210.732 101.28C211.159 101.28 211.372 101.1 211.372 100.74V93.54C211.372 93.26 211.785 93 212.612 92.76C213.439 92.52 214.339 92.4 215.312 92.4C216.285 92.4 216.772 92.66 216.772 93.18V103.48C216.772 103.667 216.352 103.8 215.512 103.88C214.672 103.96 213.845 104 213.032 104C212.219 104 211.805 103.893 211.792 103.68L211.592 102.38H211.432C211.312 102.86 211.072 103.253 210.712 103.56C210.525 103.72 210.245 103.867 209.872 104C209.512 104.12 209.099 104.18 208.632 104.18ZM227.027 103.82C226.787 104.047 226.24 104.16 225.387 104.16C224.533 104.16 223.827 104.107 223.267 104C222.707 103.88 222.173 103.653 221.667 103.32C220.693 102.667 220.207 101.307 220.207 99.24V96.12H219.207C219.06 96.12 218.933 95.9667 218.827 95.66C218.72 95.3533 218.667 94.9333 218.667 94.4C218.667 93.8667 218.747 93.4 218.907 93C219.08 92.5867 219.3 92.38 219.567 92.38H220.207V89.96C220.207 89.5467 220.607 89.2133 221.407 88.96C222.22 88.7067 223.013 88.58 223.787 88.58C225 88.58 225.607 88.88 225.607 89.48V92.38H227.087C227.433 92.38 227.607 92.88 227.607 93.88C227.607 94.5333 227.527 95.0733 227.367 95.5C227.22 95.9133 227.027 96.12 226.787 96.12H225.607V99.78C225.607 100.14 225.76 100.4 226.067 100.56C226.373 100.707 226.64 100.78 226.867 100.78C227.107 100.78 227.253 100.893 227.307 101.12C227.36 101.347 227.387 101.687 227.387 102.14C227.387 103.033 227.267 103.593 227.027 103.82ZM240.987 103.52C240.987 103.667 240.581 103.787 239.767 103.88C238.954 103.96 238.134 104 237.307 104C236.494 104 235.974 103.967 235.747 103.9C235.521 103.82 235.407 103.693 235.407 103.52V91.08C235.407 90.7867 235.794 90.5 236.567 90.22C237.341 89.9267 238.207 89.78 239.167 89.78C240.021 89.78 240.581 89.96 240.847 90.32C240.941 90.4533 240.987 90.5867 240.987 90.72V103.52ZM249.115 102.98C249.088 103.367 248.882 103.633 248.495 103.78C248.122 103.927 247.442 104 246.455 104C245.468 104 244.642 103.913 243.975 103.74C243.322 103.553 242.995 103.32 242.995 103.04C242.995 102.72 243.588 100.68 244.775 96.92C245.962 93.1467 246.642 90.9733 246.815 90.4C246.882 90.2267 247.415 90.0867 248.415 89.98C249.428 89.86 250.508 89.8 251.655 89.8C252.815 89.8 253.455 90 253.575 90.4C256.095 98.7733 257.355 103.027 257.355 103.16C257.355 103.293 257.275 103.427 257.115 103.56C256.742 103.853 256.002 104 254.895 104C252.535 104 251.328 103.72 251.275 103.16L251.135 101.86H249.215L249.115 102.98ZM250.715 98.06L250.415 94.46H249.975L249.635 98.06H250.715ZM265.32 104.18C264.213 104.18 263.26 104.08 262.46 103.88C261.673 103.667 260.946 103.293 260.28 102.76C258.933 101.707 258.26 99.6867 258.26 96.7C258.26 95.4467 258.44 94.3533 258.8 93.42C259.173 92.4867 259.686 91.7467 260.34 91.2C261.62 90.1333 263.28 89.6 265.32 89.6C266.373 89.6 267.286 89.6933 268.06 89.88C268.846 90.0667 269.586 90.4067 270.28 90.9C271.68 91.9133 272.38 93.8467 272.38 96.7C272.38 99.26 271.746 101.147 270.48 102.36C269.213 103.573 267.493 104.18 265.32 104.18ZM264.66 100.76C264.82 100.947 265.04 101.04 265.32 101.04C265.6 101.04 265.82 100.947 265.98 100.76C266.14 100.56 266.273 100.147 266.38 99.52C266.486 98.88 266.54 97.9933 266.54 96.86C266.54 95.7267 266.486 94.8533 266.38 94.24C266.273 93.6267 266.14 93.2267 265.98 93.04C265.82 92.8533 265.6 92.76 265.32 92.76C265.04 92.76 264.82 92.8533 264.66 93.04C264.5 93.2267 264.366 93.6267 264.26 94.24C264.153 94.8533 264.1 95.7267 264.1 96.86C264.1 97.9933 264.153 98.88 264.26 99.52C264.366 100.147 264.5 100.56 264.66 100.76Z" fill="white"/>
<defs>
<filter id="filter0_d" x="0" y="0" width="379" height="129" filterUnits="userSpaceOnUse" color-interpolation-filters="sRGB">
<feFlood flood-opacity="0" result="BackgroundImageFix"/>
<feColorMatrix in="SourceAlpha" type="matrix" values="0 0 0 0 0 0 0 0 0 0 0 0 0 0 0 0 0 0 127 0"/>
<feOffset/>
<feGaussianBlur stdDeviation="2"/>
<feColorMatrix type="matrix" values="0 0 0 0 0 0 0 0 0 0 0 0 0 0 0 0 0 0 0.15 0"/>
<feBlend mode="normal" in2="BackgroundImageFix" result="effect1_dropShadow"/>
<feBlend mode="normal" in="SourceGraphic" in2="effect1_dropShadow" result="shape"/>
</filter>
<linearGradient id="paint0_linear" x1="96.9916" y1="60.1448" x2="279.627" y2="37.8232" gradientUnits="userSpaceOnUse">
<stop stop-color="#BF75AE"/>
<stop offset="0.51" stop-color="#8579AE"/>
<stop offset="1" stop-color="#1BB1C1"/>
</linearGradient>
<linearGradient id="paint1_linear" x1="194.288" y1="44.2993" x2="175.92" y2="53.9661" gradientUnits="userSpaceOnUse">
<stop stop-color="#19B2C0"/>
<stop offset="0.44" stop-color="#757BAE"/>
<stop offset="1" stop-color="#BF75AE"/>
</linearGradient>
<clipPath id="clip0">
<rect width="243" height="45" fill="white" transform="translate(68 26)"/>
</clipPath>
</defs>
</svg>
