
<svg id="Layer_1" data-name="Layer 1" xmlns="http://www.w3.org/2000/svg" xmlns:xlink="http://www.w3.org/1999/xlink" viewBox="0 0 505 92.61"><defs><style>.cls-1,.cls-2,.cls-3,.cls-5,.cls-6{fill-rule:evenodd;}.cls-1{fill:url(#GradientFill_1);}.cls-2,.cls-4{fill:#fdfdfd;}.cls-3{fill:url(#GradientFill_2);}.cls-5{fill:none;stroke:#fdfdfd;stroke-miterlimit:2.61;stroke-width:0.02px;}.cls-6{fill:#d1d2d4;}</style><linearGradient id="GradientFill_1" x1="60.25" y1="74.92" x2="439.69" y2="28.09" gradientUnits="userSpaceOnUse"><stop offset="0" stop-color="#bf75ae"/><stop offset="0.51" stop-color="#8579ae"/><stop offset="1" stop-color="#1bb1c1"/></linearGradient><linearGradient id="GradientFill_2" x1="262.45" y1="42.31" x2="224.44" y2="62.51" gradientUnits="userSpaceOnUse"><stop offset="0" stop-color="#19b2c0"/><stop offset="0.44" stop-color="#757bae"/><stop offset="1" stop-color="#bf75ae"/></linearGradient></defs><path class="cls-1" d="M55.1,76.44,35.79,25.33H19.24L0,76.44H14.94l2.53-7.36H37.63l2.53,7.36ZM34,57.59H21l6.51-19.24L34,57.59ZM78.1,77.36c13.72,0,21.3-6.82,21.3-17.09,0-19-28.89-14.25-28.89-20.77,0-2.14,1.69-3.68,5.52-3.68A24.08,24.08,0,0,1,91,41.11l7.21-9.42C92.74,27,85.61,24.56,77.41,24.56,64.3,24.56,57,32.22,57,40.81c0,19.69,29,14.1,29,21.07,0,2.45-2.76,4.21-7.28,4.21a23.09,23.09,0,0,1-16.32-6.74l-7,9.89c5.13,4.9,12.33,8.12,22.68,8.12Zm51.28-.92V36.82h14.25V25.33H101.86V36.82H116.2V76.44Zm64.68,0L183.64,57.66c4.75-1.68,10.19-6.43,10.19-15.32,0-9.5-6.43-17-17.77-17h-25.6V76.44h13.18V59.27h6.74L179,76.44Zm-20-28.66H163.64v-11h10.42c3.45,0,6.36,2,6.36,5.44,0,3.6-2.91,5.52-6.36,5.52Zm173.2,28.66V25.33H334V53.45L313.32,25.33H299.75V76.44h13.18V46.86l21.61,29.58Zm59.41,0L387.35,25.33H370.8L351.57,76.44h14.94L369,69.08h20.15l2.53,7.36ZM385.59,57.59h-13l6.52-19.24,6.51,19.24Zm46.76,19.77c16.32,0,24.06-9,24.06-21.69V25.33H443.08v30c0,6.05-3.68,10.42-10.73,10.42-7.21,0-10.81-4.37-10.81-10.42v-30H408.13V55.75c0,12.57,7.74,21.61,24.22,21.61Zm58.4-.92V36.82H505V25.33H463.24V36.82h14.33V76.44Z" transform="translate(0 -4.65)"/><path class="cls-2" d="M254,20.7a22.25,22.25,0,0,0-4.32.53c5.89.88,12.22,1.53,18.55,5.11,22.59,12.79,15.57,55-12.45,55-13.25,0-23.53-.13-23.53-.13C207.22,82,197.35,44.8,215.22,28.3a23.71,23.71,0,0,1,3.37-2.1c-2.38-.11-7.25,2.82-7.25,2.82s2.26-3.09,2.1-5.14-.31-4.08.41-5.53c-3.73,4.71-5.39,11.41-6.19,18.2-1.64-1.36-5.91,3.82-5.86,12.38s3.61,10.25,5,11.38c.93.78,1.65,3.61,2.16,6.78h.1a18.06,18.06,0,0,1,.69,4.13c0,.9,0,1.91-.06,2.92l-.16,0c-.19,1.81-.78,2.77-1.05,4.68,2.21.82,5.36,1.68,7.76,1.2l3.09-.62s3.59,2.47,2.1,6.43c-1,2.69-5.26,2.7-7.89,2.43a2.85,2.85,0,0,1,.24.37c.67,1.35,14.86,9,30.63,8.56a62.52,62.52,0,0,0,30-8.87c-2.63.19-6.26,0-7.18-2.49-1.48-4,2.11-6.43,2.11-6.43l3.09.62c2.14.42,4.86-.21,7-.93-.06-1-.17-3-.24-5,0-1-.05-2-.05-2.92a18.55,18.55,0,0,1,.68-4.13c.87-3.36,2.24-6.91,2.24-6.91,1.36-.9,5.41-5.29,4.17-14.64s-6.08-9-6.08-9c-.26-6.61-3.76-13.47-8.28-18.78l-.05-.07-.51-.57h0A45.34,45.34,0,0,0,258,7.26c-.48,2.64.7,3.74-.64,7.35-1.59,4.28-4.9,3.77.58,2.74.32-.06-1.32,3.1-3.94,3.35ZM220.52,79.56h.14c1.77,0,3.2,2.13,3.2,4.74S222.43,89,220.66,89h-.14c1.39-.11,2.5-2.19,2.5-4.74s-1.11-4.63-2.5-4.73Zm47.79,0c-1.39.1-2.49,2.18-2.49,4.73s1.1,4.63,2.49,4.74h-.14c-1.76,0-3.2-2.12-3.2-4.74s1.44-4.74,3.2-4.74Z" transform="translate(0 -4.65)"/><path class="cls-2" d="M212.77,87.91c-.51-.08-.83-.15-.83-.15s-8.39-1.15-10.91-4.92-3.14-9.34,1.05-12.8c3-2.46,5.32-2.69,6.43-2.63a18.14,18.14,0,0,1,.69,4.14c0,.9,0,1.91-.06,2.92-.41.13-2.45.82-2.55,1.86s-.21,2.41,1.47,3.15l.82.34c1.88.74,4.9,1.68,7.15,1.23l2.62-.52s3,2.1,1.79,5.45C219.44,88.63,214.71,88.21,212.77,87.91Z" transform="translate(0 -4.65)"/><path class="cls-2" d="M230.28,26.1a106.81,106.81,0,0,1,15.85-1.18c6.44.24,14,.41,21.57,5.38,16.68,11,12.35,47.87-13,47.87-11.78,0-20.92-.12-20.92-.12-22.12.78-31.19-32.2-15.17-47a29.9,29.9,0,0,1,11.67-5Zm24.95,53.4c26.62,0,31.16-38.74,13.65-50.26C261,24,253,23.84,246.23,23.59s-16.64,1.24-16.64,1.24A31.31,31.31,0,0,0,217.34,30c-16.82,15.53-7.3,50.15,15.93,49.34C233.27,79.38,242.86,79.5,255.23,79.5Z" transform="translate(0 -4.65)"/><path class="cls-3" d="M231,27.28a101.92,101.92,0,0,1,15.11-1.12c6.13.22,13.37.39,20.55,5.12,15.89,10.46,11.78,45.62-12.39,45.62-11.22,0-19.92-.12-19.92-.12C213.3,77.53,204.66,46.1,219.93,32A28.53,28.53,0,0,1,231,27.28Z" transform="translate(0 -4.65)"/><path class="cls-2" d="M236.29,38.73a.63.63,0,1,1-.63.63A.63.63,0,0,1,236.29,38.73Z" transform="translate(0 -4.65)"/><path class="cls-2" d="M242.69,32.12a.84.84,0,1,1-.84.84A.84.84,0,0,1,242.69,32.12Z" transform="translate(0 -4.65)"/><path class="cls-2" d="M247.2,50a.45.45,0,1,1-.45.44A.44.44,0,0,1,247.2,50Z" transform="translate(0 -4.65)"/><path class="cls-2" d="M234.14,56.29a.82.82,0,0,1,.81.82.81.81,0,1,1-1.62,0A.82.82,0,0,1,234.14,56.29Z" transform="translate(0 -4.65)"/><path class="cls-2" d="M231.94,46.48a.27.27,0,1,1,0,.54.27.27,0,1,1,0-.54Z" transform="translate(0 -4.65)"/><path class="cls-2" d="M249,41.18a.27.27,0,0,1,.27.27.27.27,0,1,1-.54,0A.27.27,0,0,1,249,41.18Z" transform="translate(0 -4.65)"/><path class="cls-2" d="M246.28,63a.77.77,0,1,1-.77.77A.77.77,0,0,1,246.28,63Z" transform="translate(0 -4.65)"/><path class="cls-2" d="M238.16,65.18a.38.38,0,1,1,0,.76.38.38,0,0,1,0-.76Z" transform="translate(0 -4.65)"/><path class="cls-2" d="M246.54,71.7a.32.32,0,0,1,.32.32.32.32,0,0,1-.32.32.33.33,0,0,1-.32-.32A.32.32,0,0,1,246.54,71.7Z" transform="translate(0 -4.65)"/><path class="cls-2" d="M270.9,59.75a.32.32,0,0,1,0,.64.32.32,0,1,1,0-.64Z" transform="translate(0 -4.65)"/><circle class="cls-4" cx="271.27" cy="42.82" r="0.79"/><path class="cls-2" d="M218.14,58.6a.79.79,0,1,1-.78.79A.79.79,0,0,1,218.14,58.6Z" transform="translate(0 -4.65)"/><path class="cls-2" d="M214.92,50a.4.4,0,0,1,0,.79.4.4,0,1,1,0-.79Z" transform="translate(0 -4.65)"/><path class="cls-2" d="M218.79,46.75a.72.72,0,1,1-.73.72A.72.72,0,0,1,218.79,46.75Z" transform="translate(0 -4.65)"/><path class="cls-2" d="M226.12,72.31c-2.56-10.47-4.11-28.17-4.9-39.86,0-.18,0-.37,0-.55l-.33.24-.33.31c-.36.35-.7.7-1,1.06.79,11.25,2.24,27.4,4.57,37.65A18,18,0,0,0,226.12,72.31Z" transform="translate(0 -4.65)"/><path class="cls-2" d="M223.08,32.45c.82,12,2.43,30.33,5.11,40.67a17.42,17.42,0,0,0,3.94.78c-2.81-10.17-4.48-29.14-5.32-41.45-.08-1.19-.15-2.31-.22-3.36A26.3,26.3,0,0,0,223,30.78C223,31.32,223,31.88,223.08,32.45Z" transform="translate(0 -4.65)"/><path class="cls-2" d="M251.3,32.45c.17,12.37.06,31.31-1.9,41.6H253a20,20,0,0,0,7.38-1.35c1.73-10.54,1.83-28.42,1.66-40.26,0-.86,0-1.69,0-2.48a29.56,29.56,0,0,0-10.77-3C251.23,28.6,251.27,30.44,251.3,32.45Z" transform="translate(0 -4.65)"/><path class="cls-2" d="M264.52,32.45c.16,11.35.08,28.24-1.45,38.9a18.09,18.09,0,0,0,3.5-2.77c1.12-10.07,1.24-24.11,1.12-34.41a16.36,16.36,0,0,0-1.81-1.72,16.72,16.72,0,0,0-1.35-1l0,0C264.51,31.77,264.52,32.11,264.52,32.45Z" transform="translate(0 -4.65)"/><path class="cls-5" d="M215.22,28.3a57.82,57.82,0,0,1,38.29-6.55" transform="translate(0 -4.65)"/><path class="cls-6" d="M215.22,28.3a57.86,57.86,0,0,1,34.83-7.07,41,41,0,0,1,4.21-.38c2.49-.23,4.48-3.86,4.16-3.8-5.48,1-2.61,1.84-1-2.44,1.28-3.44.37-4.93.69-7.32a33.63,33.63,0,0,0-15.23-2.58c-11.93.6-23.2,5.55-29.8,14.71a29.6,29.6,0,0,0,.38,4.46c.13,1.69-2.1,5.14-2.1,5.14s4.87-2.93,7.25-2.82A23.71,23.71,0,0,0,215.22,28.3Z" transform="translate(0 -4.65)"/><path class="cls-2" d="M276.06,87.91c.52-.08.83-.15.83-.15s8.39-1.15,10.91-4.92S291,73.5,286.75,70c-3-2.46-5.32-2.69-6.43-2.63a18.63,18.63,0,0,0-.68,4.14c0,.9,0,1.91.05,2.92.41.13,2.46.82,2.55,1.86s.21,2.41-1.47,3.15l-.82.34c-1.87.74-4.9,1.68-7.15,1.23l-2.62-.52s-3,2.1-1.78,5.45C269.39,88.63,274.12,88.21,276.06,87.91Z" transform="translate(0 -4.65)"/></svg>