<?xml version="1.0" encoding="utf-8"?>
<!-- Generator: Adobe Illustrator 25.2.3, SVG Export Plug-In . SVG Version: 6.00 Build 0)  -->
<svg version="1.1" id="Capa_2" xmlns="http://www.w3.org/2000/svg" xmlns:xlink="http://www.w3.org/1999/xlink" x="0px" y="0px"
	 viewBox="0 0 4904.47 1554.35" style="enable-background:new 0 0 4904.47 1554.35;" xml:space="preserve">
<style type="text/css">
	.st0{fill:#B0B2E2;}
	.st1{fill:none;stroke:#0B008B;stroke-miterlimit:10;}
	.st2{fill:#010000;}
	.st3{fill:#F5EFEA;}
	.st4{fill:#AB1511;}
	.st5{fill:#A91311;}
	.st6{fill:#DF4002;}
	.st7{fill:#FFF316;}
	.st8{fill:#FFF20B;}
	.st9{fill:#FFF6B4;}
	.st10{fill:#FFCB00;}
	.st11{fill:#FFFFFF;stroke:#B0B2E2;stroke-miterlimit:10;}
	.st12{fill:#530206;}
	.st13{fill:#661D01;}
	.st14{fill:#C14211;}
	.st15{fill:#AC3A0F;}
	.st16{fill:#FFCD04;}
	.st17{fill:#F7B402;}
	.st18{fill:#FFEB44;}
	.st19{fill:#FFFA64;}
	.st20{fill:#FFFFFF;}
	.st21{clip-path:url(#SVGID_2_);fill:none;stroke:#F7B402;stroke-miterlimit:10;}
	.st22{clip-path:url(#SVGID_2_);fill:none;stroke:#C14211;stroke-miterlimit:10;}
	.st23{clip-path:url(#SVGID_2_);fill:none;stroke:#FD9809;stroke-miterlimit:10;}
	.st24{clip-path:url(#SVGID_4_);}
	.st25{fill:#E44E14;}
	.st26{fill:none;}
	.st27{fill:#FD9809;}
	.st28{fill:#91320D;}
</style>
<g>
	<path class="st0" d="M673.98,937.87c-6.27,17.43-12.54,34.87-18.81,52.3l-20.88,4.78c0,0-151.74,51.51-220.4-30.39
		c-21.71-25.9-18.06-41.32-2.92-50.28c9.5,14.82,24.69,32.88,47.91,45.45c36.57,19.78,72.83,15.04,111.94,9.93
		C595.03,966.5,631.99,958.82,673.98,937.87z"/>
	<path class="st1" d="M634.3,994.95c0,0-151.75,51.5-220.4-30.39s116.24-58.96,116.24-58.96
		c-139.99-35.66-284.31-215.12-172.7-209.26c105.97,5.56,138.15,33.17,138.15,33.17s-93.79-59.26-81.56-185.53
		c10.15-104.82,47.76,49.47,175.62,120.36c-36.9-62.02-0.39-100.59,81.7-12.64c30.74,26.41,120.77-2.36,120.77-2.36l-76.65,327.02
		L634.3,994.95z"/>
	<path class="st2" d="M637.61,1038.84c0,0-157.21,58.08-242.96-34.97c-72.42-78.58,22.78-101.97,22.78-101.97
		c-131.53-74.59-175.36-228.16-64.05-218.08c52.36,4.74,57.09,4.89,57.09,4.89s-60.42-114.5,3.15-200.17
		c22.05-29.72,65.86,55.43,136.44,126.52c22.65-56.09,108.82-15.41,123.16,12.58c30.74,26.41,18.81,43.68,18.81,43.68l2.42,306.54
		L637.61,1038.84z"/>
	<path class="st3" d="M792.11,649.33l-76.65,327.03l-60.29,13.81l-20.88,4.78c0,0-151.74,51.51-220.4-30.39
		c-21.71-25.9-18.06-41.32-2.92-50.28c32.73-19.4,119.17-8.68,119.17-8.68c-12.22-3.11-24.46-7.32-36.57-12.4
		c-113.35-47.58-214.45-171.96-161.4-193.73c6.22-2.56,14.57-3.7,25.27-3.14c85.11,4.47,122.62,23.16,134.09,30.34
		c-2.46-1.8-5.91-4.48-10.01-8.05c-25.68-22.34-76.71-79.45-67.49-174.65c2.86-29.54,7.9-38.5,16.53-34.55
		c21.98,10.07,67.26,104,159.08,154.91c-1.77-2.97-3.37-5.89-4.8-8.75c-14.3-28.44-12.15-50.4,3.43-54.63
		c15.46-4.22,44.14,9.03,83.07,50.74C702.08,678.09,792.11,649.33,792.11,649.33z"/>
	<path class="st0" d="M543.32,884.41c0,0-0.57,14.61-18.01,14.48c-10.6-0.59-21.09-2.81-31.74-5.69
		c-113.35-47.58-214.45-171.96-161.4-193.73c31.09,121.92,190.16,166.65,190.16,166.65S544.34,867.48,543.32,884.41z"/>
	<path class="st0" d="M599.82,652.02c-3.7,3.46-9.34,4.62-14.98,3.56c-14.3-28.44-12.15-50.4,3.43-54.63
		c0.65,3.65,1.67,7.42,3.16,11.23c1.81,4.62,4.03,8.57,6.3,11.89C606.6,633,606.33,645.94,599.82,652.02z"/>
	<path class="st2" d="M634.3,994.95l26.38-57.43l18.73-216.74l-15.56-71.92c0,0-0.9-37.29,31.66-54.22c0,0,1.06-26.04,33.77-29.12
		l228.98-11.51c0,0,80.09-1.65,97.08,18.23c0,0-5.28-22.5,29.55-28.28l243.75-5.78c0,0,88.62-11.61,116.59,51.7l12.14,4.75
		c0,0,16.16-64.07,161.51-70.72l69.4,0c0,0,103.33-4.49,129.9,60.46c0,0,24.96-67.51,163.46-67.51c0,0,18.52-2.42,24.96,22.14
		l68.85-24.56l91.83-1.61c0,0,22.51,0.28,22.91,20.47c0,0,8.05,4.7,7.25,15.06l38.25,60.69l10.29,363.39c0,0,0,63.64-53.64,59.09
		l-81.62,4.82l-42.06-14.2c0,0-24.19,21.56-79.39,14.2l-55.73-12.09c0,0-24.19,15.16-50.47,13.62l-146.69,4.25l-13.14-3.68
		l-11.04,3.68l-304.41,11.04h-13.16l-8.94,2.1c0,0-214.29,9.99-225.97,4.21c0,0-70.96,12.09-112.56,11.57
		c0,0-326.88,9.99-367.73,6.83c0,0-58.2,4.73-58.73-36.28L634.3,994.95z"/>
	<path class="st4" d="M707.16,703.66l-20.06-76.88c0,0-3.47-24.28,29.83-26.36l330.22-5.77c0,0,12.22-15.24,29.29-16.43l339.86,11.1
		l74.87,33.3l280.97-27.97l24.91-6.6l22.3,17.1l28.43-30.21l300.51-8.59l16.01-22.35c0,0,16.28-1.66,27.6,22.63l69.48,124.42
		l-9.74,238.38l-30.39,12.91c0,0,15.14,60.07-33.67,59.67l-74.96,0.41l-54.13-13.53c0,0-4.95,21.26-62.44,14.03l-70.48-13.72
		c0,0-3.97,15.32-38.4,17.27l-146.72,4.82l-17.54-4.55l-8.44,4.55c-99.41,3.12-198.82,6.23-298.23,9.35
		c-5.14-0.21-10.28-0.42-15.43-0.63c-58.55,2.83-117.1,5.67-175.66,8.5c-21.81-0.98-43.62-1.95-65.43-2.93
		c-7.91,1.73-20.22,4.25-35.38,6.56c-45.97,7.01-77.45,5.95-117.97,6.75c-22.49,0.45-55.42,1.63-96.01,5.04
		c-79.04,0.59-158.07,1.19-237.11,1.78c0,0-29.57,2.62-29.03-26.1l39.43-87.27L707.16,703.66z"/>
	<path class="st1" d="M4337.24,994.71c0,0,151.75,51.5,220.4-30.39c68.65-81.89-116.25-58.96-116.25-58.96
		c139.99-35.66,284.31-215.12,172.7-209.26c-105.97,5.56-138.15,33.17-138.15,33.17s93.79-59.26,81.56-185.53
		c-10.15-104.82-47.76,49.47-175.62,120.36c36.9-62.02,0.39-100.59-81.7-12.64c-30.74,26.41-120.77-2.36-120.77-2.36l76.65,327.02
		L4337.24,994.71z"/>
	<path class="st2" d="M4268.98,1026.81c0,0,222.16,69.87,307.9-23.17c72.42-78.58-22.78-101.97-22.78-101.97
		c131.53-74.59,175.36-228.16,64.05-218.08c-52.36,4.74-57.09,4.89-57.09,4.89s60.42-114.5-3.15-200.17
		c-22.05-29.72-65.86,55.43-136.44,126.52c-22.65-56.09-108.82-15.41-123.16,12.58c-30.74,26.41-18.81,43.68-18.81,43.68
		l-32.96,291.29L4268.98,1026.81z"/>
	<path class="st3" d="M4179.42,649.09l76.65,327.03l60.29,13.81l20.88,4.78c0,0,151.74,51.51,220.4-30.39
		c21.71-25.9,18.06-41.32,2.92-50.28c-32.73-19.4-119.17-8.68-119.17-8.68c12.22-3.11,24.46-7.32,36.57-12.4
		c113.35-47.58,214.45-171.96,161.4-193.73c-6.22-2.56-14.57-3.7-25.27-3.14c-85.11,4.47-122.62,23.16-134.09,30.34
		c2.46-1.8,5.91-4.48,10.01-8.05c25.68-22.34,76.71-79.45,67.49-174.65c-2.86-29.54-7.9-38.5-16.53-34.55
		c-21.98,10.07-67.26,104-159.08,154.91c1.77-2.97,3.37-5.89,4.8-8.75c14.3-28.44,12.15-50.4-3.43-54.63
		c-15.46-4.22-44.14,9.03-83.07,50.74C4269.46,677.85,4179.42,649.09,4179.42,649.09z"/>
	<path class="st0" d="M4243.89,924.13c6.27,17.43,1.18,34.56,7.45,51.99l85.91,18.58c0,0,151.74,51.51,220.4-30.39
		c21.71-25.9,18.06-41.32,2.92-50.28c-9.5,14.82-24.69,32.88-47.91,45.45c-36.57,19.78-72.83,15.04-111.94,9.93
		C4376.5,966.26,4285.88,945.08,4243.89,924.13z"/>
	<path class="st0" d="M4428.21,884.17c0,0,0.57,14.61,18.01,14.48c10.6-0.59,21.09-2.81,31.74-5.69
		c113.35-47.58,214.45-171.96,161.4-193.73c-31.09,121.92-190.16,166.65-190.16,166.65S4427.19,867.24,4428.21,884.17z"/>
	<path class="st0" d="M4466.17,710.94c2.67,6.17,12.72,10.45,23.84,7.44c25.68-22.34,76.71-79.45,67.49-174.65
		c-2.86-29.54-7.9-38.5-16.53-34.55c5.04,33.5,4.56,78.18-18.29,121.95c-14.11,27.03-32.65,45.83-47.59,58.12
		C4467.17,695.76,4463.6,705.01,4466.17,710.94z"/>
	<path class="st2" d="M2741.84,645.17c-30.14,75.05-51.09,318.67-51.09,318.67s-10.88,66.09,47.68,69.43l167.75,3.84l10.47-4.43
		l12.88,4.43l301.97,6.84l15.3-2.38l12.08,2.38l320.89,10.87l14.49-3.22l13.69,3.22l171.11,8.46l12.08-4.03l13.69,4.03
		c0,0,198.09,11.68,199.3,11.68s225.07,0,225.07,0s43.61,1.21,45.76-47.11l-28.45-90.19c0,0,76.5-28.59,68.85-102.27l-9.26-111.53
		c0,0,25.77-78.51,18.52-94.21l-16.91-24.16c0,0-2.56-13.69-6.72-14.9c0,0-9.39-19.89-22.27-20.21l-176.96-11.69
		c0,0-17.73-1.67-20.44,11.69c0,0-12.37-13.61-24.85-14.82l-175.14-8.86c0,0-20.68,2.19-18.52,19.73c0,0-43.08-20.94-104.28-26.57
		l-228.41-8.46c0,0-21.43-1.69-22.2,18.92c0,0-6.67,5.44-5.46,8.36c0,0-6.84,0.5-7.25,2.91c0,0-46.7-39.05-160.65-37.44
		c0,0-141.72-14.25-171.11,60.92l-9.26,4.91c0,0-14.9-71.46-167.49-74.68c0,0-146.69-13.78-190.98,49.14
		C2795.72,564.46,2750.9,622.62,2741.84,645.17z"/>
	<path class="st5" d="M2748.81,668.11c0,0,51.89-98.26,76.23-109.03l293.23,23.36l21.31,31.15c0,0,51.89-36.29,76.87-37.01
		l269.52,7.27c0,0,29.62-20.05,48.21-24.77l316.46,30.87l53.81-22.42l147.34,5.49l23.06,20.36l43.56-8.3l144.14,10.51
		c0,0,38.44,10.16,38.44,28.72c0,3.43-19.86,84.79-19.86,84.79l9.61,115.31c0,0,0.64,52.95-44.2,77.51l-38.44,11.53v12.17
		l39.72,90.97c0,0,0,19.86-18.58,24.98h-237.66l-186.42-8.97l-14.73-5.12l-39.72,1.92l-147.34-5.12l-8.33-5.77l-17.94,3.2
		l-317.74-10.89l-9.61-3.84l-17.3,2.56l-303.65-4.48l-12.17-6.41l-14.73,3.84l-164.63-1.92c0,0-29.47-10.79-16.02-42.87
		L2748.81,668.11z"/>
	<path class="st6" d="M715.57,586.86l251.72-14.58c0,0,117.94-4.12,113.19,76.66c-0.11,1.98-0.3,4.02-0.58,6.12l-18.4,235.47
		c0,0-10.38,74.81-126.07,88.55c-33.5,3.03-67.62,5.75-102.34,8.12c-52.31,3.57-103.9,5.99-153.7,7.75c-0.81-0.39-3.52-1.82-5.1-5.1
		c-1.61-3.34-0.99-6.41-0.78-7.28c8.95-22.53,34.99-73.68,34.99-73.68l20.02-229.69l0.54-5.3l-18.97-80.61
		C710.1,593.28,708.2,587.29,715.57,586.86z"/>
	<path class="st7" d="M1076.29,637.33c-0.11,1.9-0.29,3.86-0.55,5.87l-20.47,229.5c0,0-7.05,68.21-117.7,81.39L679.4,968.9
		l37.97-84.16l22.3-218.37l0.52-5.09l-19.5-83.13l247.34-14.37C968.03,563.78,1080.83,559.83,1076.29,637.33z"/>
	<polygon class="st6" points="885.19,648.86 929.67,648.86 910.08,871.75 864.02,873.86 	"/>
	<path class="st6" d="M1821.18,945.07c-61.28,1.19-121.5,2.39-182.77,3.58c-0.25,0-2.09-0.04-3.38-1.59c-1.27-1.53-1-3.31-0.96-3.57
		l3.08-51.59l-28.93,0.53c-1.36,17.84-2.71,35.67-4.07,53.51c-0.03,0.42-0.2,2.57-2.03,4.19c-2.09,1.84-4.65,1.48-4.99,1.42
		l-191.88,6.16l41.13-87.62l17.43-247.42c21.28-73.77,194.5-77.19,194.5-77.19c157.81-5.6,151.28,80.67,151.28,80.67l-10.33,232.67
		l28.3,75.89c1.29,2.47,1.09,5.42-0.52,7.58C1824.94,945.1,1821.52,945.08,1821.18,945.07z"/>
	<path class="st6" d="M1262.25,958.61l-14.92-129.18l-10.09,0.17l-10.6,132.16c-0.72,4.64-7.45,4.49-7.45,4.49l-179.04,6.13
		c-6.38,0.22-4.49-4.79-4.49-4.79l36.55-84.86l16.9-230.29l-14.09-50.71l-7.58-26.84c-1.9-6.73,3.88-6.78,3.88-6.78l234.58,4.19
		c0,0,124.72-19.91,132.33,46.46l0.29,16.15l-4.41,84.59c-3.65,11.24-27.53,83.83-140.99,62.86c0,0-9.75,19.2,11.54,22.03
		c13.27,1.78,24.7-11.56,67.18-15.27c3.66-0.32,26.44-7.34,41.12-0.59l30.52,167.32l-176.26,6.4
		C1267.23,962.24,1262.74,962.91,1262.25,958.61z"/>
	<path class="st7" d="M1436.27,931.55l-163.74,6.34l-15.36-132.98l-26.02,0.43l-10.2,134.95l-177.6,7.79l38.71-89.88l17.98-221.23
		l-17.78-59.35l-5.83-19.47l239.31-10.37c0,0,107.85-4.15,115.46,62.22l-0.21,5.24l-3.25,79.8c0,0-8.99,77.43-128.59,75.36
		c0,0-5.93,6.64,15.36,9.47c13.27,1.78,37.13,2.07,79.61-1.64c3.66-0.32,7.47-0.67,11.42-1.05L1436.27,931.55z"/>
	<polygon class="st6" points="1243.81,631.31 1287,629.63 1279.23,755.63 1234.19,756.05 	"/>
	<path class="st8" d="M1457.41,844.71l-41.13,87.62l182.23-6.37l3.13-58.9l44.78-0.53l-1.64,56.84l176.63-3.87l-27.8-84.94
		l8.38-233.78c0,0,3.27-72.7-154.53-67.1c0,0-156.03-4.01-177.31,69.76L1457.41,844.71z"/>
	<path class="st6" d="M2169.25,931.71l1.79-175.12l-158.56-88.54l-4.28,167.87l-28.29,3.67l5.05-184.61l176.15,29.38
		c0,0,13.94,3.77,13.92-10.11l-0.15-134.91c0,0-3.03-6.19-9.46-6.01l-85.8,22.24l-92.28,37.02c0-10.4,0.74-34.35,0.96-48.75
		c0,0-0.18-5.96-5.15-6.59c-32.16-4.11-65.83,14.2-83.78,18.52c-21.85,5.26-42.79,13.9-60.34,34.43
		c-5.84,5.36-9.32,10.04-13.5,27.08c0,0-9.36,245.25-9.36,245.25c1.58,8.68,5.34,28.81,17.18,41.97
		c6.01,6.68,15.98,17.13,44.94,26.11c17.51,5.43,52.31,12.42,90.12,11.59c0,0,9.16,1.75,9.23-7.53l0.2-26.79l89.72,32.47l91.91,0.44
		C2159.5,940.8,2168.91,941.66,2169.25,931.71z"/>
	<path class="st7" d="M1824.79,845.09c0,0,12.02-256.71,12.02-256.71c2.14-4.74,5.71-11.58,11.5-18.74
		c16.6-20.54,38.39-27.61,58.79-33.94c15.51-4.81,40.66-10.58,72.81-9.04c0,12.2,0,24.4,0,36.6l97.22-36.6l90.12-2.73v136
		l-190.08-30.04l-4.92,179.7l45.88-6.01l2.18-139.83l143.1,80.29l-1.64,169.87l-95.04,1.09l-95.58-35.5v37.69
		c-39.04,2.32-68.66-4.78-86.56-10.65c-27.4-8.97-37.63-18.41-43.31-25.09C1830.11,868.29,1826.28,853.77,1824.79,845.09z"/>
	<path class="st1" d="M1880.35,882.45"/>
	<path class="st6" d="M2988.7,930.09l-3.88-298.68l-27.81-0.87l5.86,303.31c0,0,0.64,7.1-6.86,6.69l-183.34-2.4
		c-8.83-0.12-4.33-9.37-4.33-9.37l27.75-74.6c-0.85-76.37,0.32-158.57-0.54-234.94c0.21-6.36,1.35-15.03,5.63-24.04
		c24.54-51.7,119.59-43.69,161.63-42.75c47.74,1.07,142.28-11.88,171.57,37.54c5.73,9.67,9.47,20.78,10.78,27.37
		c2.39,76.88,4.92,164.77,7.3,241.65l17.45,88.24l-172.61-5.31C2997.31,941.94,2989.02,942.93,2988.7,930.09z"/>
	<path class="st7" d="M2775.57,912.18l178.99,2.56l-5.11-307.35h41.93l8.18,310.93l181.03,3.07l-36.82-86.43
		c-2.39-76.88-4.77-153.76-7.16-230.64c-1.31-6.59-5.05-17.7-10.78-27.37c-29.3-49.42-104.62-49.29-152.35-50.36
		c-42.03-0.94-139.1-3.12-163.65,48.58c-4.27,9-5.41,17.67-5.63,24.04c0.85,76.37,1.7,152.74,2.56,229.1L2775.57,912.18z"/>
	<path class="st6" d="M3376.62,951.07l180.01,6.64l-24.62-80.85l-14.28-253.55c-2.78-6.42-7.41-15.45-15.05-24.68
		c-31.25-37.74-93.2-33.88-158-36.95c-68.49-3.25-133.41-9.81-163.01,27.85c-6.6,8.4-11.77,23.41-11.77,29.68
		c1.52,81.65,6.26,162.68,7.79,244.33l-30.43,82.34l191.26,4.66c0,0,4.93,0.21,4.69-4.12l-1.18-52.96l27.6,0.39l1.32,51.09
		C3370.96,944.94,3370.77,950.85,3376.62,951.07z"/>
	<path class="st7" d="M3185.16,837.01l-34.32,83.88l184.78,5.2v-57.18h40.93l3.01,57.18l181.16,7.82l-38.52-89.08l-12.64-239.54
		c-2.78-6.42-7.41-15.45-15.05-24.68c-31.25-37.74-81.45-40.86-146.25-43.94c-68.49-3.25-128.23-1.57-157.83,36.09
		c-6.6,8.4-9.22,18.32-11.33,24.4C3180.62,678.83,3183.64,755.36,3185.16,837.01z"/>
	<polygon class="st6" points="3322.3,617.66 3366.75,617.66 3372.86,796.93 3329.74,796.93 	"/>
	<path class="st6" d="M3951.95,966.11l-51.82-161.75h-7.57l-102.78,3.25c-12.49-0.17-14.25-13.9-14.25-13.9
		c8.72,0.99,20.82,1.76,36.35,1.67c19.68-0.11,61.68,2.98,79.6-20.88c11.87-15.81,20.91-24.29,20.09-55.49
		c-0.95-36.44-5.57-98.89-30.8-125.02c-16.97-17.58-52.06-15.72-81.47-23.39c-27.47-7.17-49.18-7.83-56.5-8.06
		c-45.96-1.46-119.29-4.96-214.1-9.28c0,0-6.85-0.9-4.7,5.02l33.29,81.94l12.03,230.08l-25.73,87.4l188.86,7.36
		c6.07,0.26,5.04-5.35,5.04-5.35l-7.27-130l11.51,0.61l30.87,131.5c0,0,0.78,5.75,6.07,6.19l165.1,8
		C3943.78,976.02,3956.39,977.9,3951.95,966.11z"/>
	<path class="st7" d="M3892.46,792.78L3892.46,792.78l50.56,158.02l-163.98-8.66L3746.26,806l-24.13-1.24l7.43,136.13l-180.53-7.5
		l28.59-83.78l-12.03-222.74l-35.46-84.5c98.14,4.32,173.9,7.84,220.97,9.29c7.31,0.23,29.03,0.86,56.5,7.8
		c29.41,7.43,50.35,12.72,67.32,29.74c25.23,25.3,26.19,61,27.14,96.27c0.81,30.2,1.27,47.04-10.6,62.34
		c-17.91,23.1-51.6,29.16-71.28,29.27c-15.53,0.08-27.63-0.66-36.35-1.62c0,0,1.76,13.29,14.25,13.45L3892.46,792.78z"/>
	<polygon class="st6" points="3709.44,632.46 3753.92,632.46 3761.24,752.76 3716.76,752.76 	"/>
	<path class="st6" d="M4059.89,578.05l-178.33-11.66c-0.29,0.65-6.53-0.62-4.85,6.15l37.98,93.42c0.6,15.65,1.67,38.84,3.7,67.01
		c3.93,54.52,6.76,62.73,9,67.84c4.94,11.28,22.78,44.36,93.06,59.42c1.01,11.69,1.92,22.23-0.03,34.07l-24.25,83.14l236.57,15.53
		l-40.84-87.46l-1.18-37.18c15.35-1.58,61.67-6.83,76.45-39.86c5.3-11.85,5.37-23.29,4.25-47.42c-1.23-26.54-3.73-60.84-9.48-104
		c6.42-21.87,14.85-55.16,22.62-78.84c1.4-4.28-5.45-7.53-5.45-7.53l-177.69-11.89c0,0-7.4-0.75-6.47,5.43l16.2,195.2h-26.2
		l-16.89-196.32C4068.05,583.11,4064.85,578.38,4059.89,578.05z"/>
	<path class="st7" d="M4005.19,954.48l215.21,12.56l-37.67-88.34l-1.3-31.61c15.35-1.58,59.94-8.02,76.6-40.15
		c6.16-11.89,6.38-23.21,5.26-47.33c-1.23-26.54-3.79-62.49-9.54-105.65c7.07-24.1,14.15-48.21,21.22-72.31l-173.21-11.26
		l16.45,198.32h-44.17l-16.89-200.49l-173.21-9.53l36.81,84.44c0.6,15.65,1.67,38.84,3.7,67.01c3.93,54.52,6.76,62.73,9,67.84
		c4.94,11.28,22.77,44.36,93.06,59.42c1.01,11.69,1.92,22.23,2.93,33.93L4005.19,954.48z"/>
	<path class="st9" d="M1076.29,637.33c-17.54-34.22-38.52-42.84-45.76-45.26c-10.46-3.5-23.14-4.25-48.5-5.75
		c-18.35-1.09-33.51-1.09-43.78-0.91c-0.87,1.3-17.07,24.45-45.02,23.1c-22.69-1.09-35.88-17.51-37.81-20
		c-7.98,0.33-15.95,0.66-23.92,0.99c-1.1,6.45-7.06,37.41-36.17,58.92c-20.35,15.03-41.85,17.95-55.66,17.95l0.52-5.09l-19.5-83.13
		l247.34-14.37C968.03,563.78,1080.83,559.83,1076.29,637.33z"/>
	
		<ellipse transform="matrix(0.997 -0.0769 0.0769 0.997 -49.4797 64.6051)" class="st9" cx="814.44" cy="675.01" rx="21.08" ry="19.1"/>
	<path class="st9" d="M1431.2,610l-0.21,5.24c-2.13-2.61-4.26-5.23-6.39-7.84c-32.05,36.25-80.67,43.41-110.87,22.64
		c-27.61-18.98-30.15-54.67-30.46-60.09h-13.28c-2.19,12.95-14.15,20.81-24.48,18.58c-7.9-1.71-14.31-9.22-15.38-18.58l-147.87,7.67
		l-5.83-19.47l239.31-10.37C1315.74,547.78,1423.59,543.63,1431.2,610z"/>
	<ellipse class="st9" cx="1145.53" cy="672.06" rx="14.17" ry="12.25"/>
	<path class="st9" d="M1802,600.77l-0.56,15.73l-0.01,0.01c-1.99-9.23-5.31-16.54-8.89-22.28
		c-29.99-48.21-111.04-40.04-117.06-39.35c-2.8,4.26-28.9,42.67-77.71,45.56c-42.28,2.5-70.3-23.49-74.93-27.93
		c-8.43,3.07-21.36,8.98-34.14,20.38c-8.49,7.57-14.69,15.58-19.2,22.77l0.65-12.23c21.28-73.77,177.31-69.76,177.31-69.76
		C1805.27,528.08,1802,600.77,1802,600.77z"/>
	<ellipse class="st9" cx="1708.85" cy="584.39" rx="20.6" ry="18.86"/>
	<ellipse class="st9" cx="2035.32" cy="574.93" rx="10.62" ry="9.72"/>
	<path class="st9" d="M1979.91,526.66v19.75c-15.22,1.19-30.44,2.38-45.65,3.57c-1.33,14.39-11.48,26.48-25.34,30.21
		c-13.54,3.64-28.06-1.38-36.53-12.67c-7.13,3.19-20.49,10.34-31.67,24.85c-1.63,2.12-3.09,4.24-4.4,6.31l0.48-10.3
		c2.14-4.74,5.72-11.59,11.51-18.75c16.6-20.53,38.39-27.61,58.78-33.94C1922.61,530.88,1947.75,525.11,1979.91,526.66z"/>
	<path class="st9" d="M2167.26,523.93v62.57c-4.43,2.18-37.17,17.65-71.62,1.52c-23.68-11.09-33.98-29.52-37.34-36.23l-80.21,28.57
		c0,0,1.82-25.52,1.82-27.03v9.92l97.22-36.59L2167.26,523.93z"/>
	<path class="st1" d="M2062.63,643.39"/>
	<path class="st10" d="M2147.3,735l-3.02,147.45h-72.22c-18.72-7.79-52.39-21.4-86.28-32.53c-6.36-2.09-16.37-5.23-24.19-0.31
		c-11.91,7.48-10.46,28.4-10.07,32.84c-9.6,0.96-69.56,6.06-98.63-32.23c-3.36-4.42-6.61-9.82-9.25-16.41l3.03-131.02
		c37.26-1.12,74.51-2.25,111.76-3.37c-0.93,29.11-1.87,58.21-2.8,87.31c0.17,4.65,1.21,12.64,6.97,17.28
		c2.28,1.84,4.64,2.63,9.74,2.54c4.43-0.06,10.93-0.77,21.24-2.03c12.48-1.51,19.88-2.51,24.6-3.55c5.18-1.13,7.16-2.33,9.17-4.32
		c6.77-6.73,7.6-16.44,7.58-21.79l0.88-78.69h42.29L2147.3,735z"/>
	<path class="st9" d="M3136.67,606.4c-11.01-18.65-23.28-29.25-31.92-35.33c-27.75-19.5-62.01-21.11-129.38-23.52
		c-20.05-0.72-36.56-0.68-47.56-0.52c-1.34,3.5-12.92,32.22-44.67,41.9c-34.55,10.54-62.02-10.93-64.26-12.75l-14.64,26.06
		c-0.01-1.01-0.02-2.01-0.03-3.02c0.21-6.37,1.35-15.04,5.62-24.04c24.54-51.7,121.62-49.52,163.65-48.58
		c47.73,1.07,123.05,0.94,152.35,50.36c5.73,9.67,9.47,20.78,10.78,27.37C3136.63,605.02,3136.65,605.71,3136.67,606.4z"/>
	<ellipse class="st9" cx="2962.4" cy="570.9" rx="19.79" ry="19.09"/>
	<path class="st9" d="M3510.21,617.6c-7.11-12.68-20.07-30.19-42.15-42.46c-21.83-12.12-42.52-13.55-53-13.53
		c2.34,9.71-1.84,19.44-9.68,23.64c-7.98,4.26-16.96,1.29-22.24-2.78c-7.21-5.57-10.37-15.39-7.94-24.94h-17.22
		c-2.28,4.94-21.19,43.96-65.68,54.36c-34.56,8.08-71.36-4.21-95.57-31.71l-17.5,24.15c-0.05-2.38-0.09-4.76-0.14-7.15
		c2.12-6.08,4.73-16,11.34-24.4c29.6-37.67,89.34-39.35,157.83-36.1c64.8,3.08,115,6.2,146.25,43.94
		c7.64,9.23,12.27,18.25,15.05,24.68L3510.21,617.6z"/>
	<circle class="st9" cx="3435.46" cy="625.25" r="25.12"/>
	<polygon class="st10" points="2822.34,694.43 2933.3,696.95 2933.3,883.56 2801.16,883.56 2823.35,820.02 	"/>
	<polygon class="st10" points="3016.01,886.09 3154.21,889.62 3126.97,827.08 3122.43,702.5 3011.98,698.97 	"/>
	<path class="st9" d="M3899.58,645.39c-3.44-7.08-6.88-14.15-10.32-21.23c-19.27,21.88-49.57,30.14-76.28,20.95
		c-29.66-10.2-49.31-40-47.21-72.53c-33.34-1.56-66.69-3.13-100.04-4.69c-1.22,2.03-12.42,19.9-33.76,21.88
		c-17.98,1.67-35.75-8.62-44.39-25.94h-48.46l-9-21.44c98.14,4.32,173.9,7.84,220.97,9.29c7.31,0.22,29.03,0.86,56.49,7.8
		c29.42,7.43,50.35,12.72,67.32,29.74C3890.47,604.83,3896.8,624.4,3899.58,645.39z"/>
	<ellipse class="st9" cx="3681.91" cy="606.54" rx="24.07" ry="21.45"/>
	<path class="st9" d="M4058.76,587.35c-38.8-1.89-135.77-6.6-165.8-7.95l-9.02-20.69l173.21,9.52L4058.76,587.35z"/>
	<path class="st9" d="M4253.74,653.97c0.55,4.15,1.08,8.24,1.58,12.26h-0.01c-7,0.22-38,0.4-64.41-23.06
		c-21.28-18.91-27.19-42.17-28.86-50.25l-58.65-2.76l-1.64-19.76l173.2,11.26C4267.88,605.76,4260.81,629.87,4253.74,653.97z"/>
	
		<ellipse transform="matrix(0.2646 -0.9644 0.9644 0.2646 2443.2896 4452.4966)" class="st9" cx="4140.9" cy="624.32" rx="20.75" ry="24.8"/>
	
		<ellipse transform="matrix(0.2646 -0.9644 0.9644 0.2646 2275.9058 4320.7622)" class="st9" cx="3970.84" cy="668.2" rx="17.69" ry="21.14"/>
	<path class="st10" d="M4243.89,770.24l-180.94-15.02l-117.02-8.63c11.88,50.41,77.89,57.18,77.89,57.18
		c20.26,4.89,19.56,23.05,19.56,23.05l2.45,33.18l-20.26,63.92l166.97,9.78l-30.04-72.65l-2.9-28.13c0,0-2.43-16.83,18.77-18.77
		C4178.38,814.16,4238.65,807.61,4243.89,770.24z"/>
	<path class="st0" d="M505.36,711.18c-2.67,6.17-12.72,10.45-23.84,7.44c-25.68-22.34-76.71-79.45-67.49-174.65
		c2.86-29.54,7.9-38.5,16.53-34.55c-5.04,33.5-4.56,78.18,18.29,121.95c14.11,27.03,32.65,45.83,47.59,58.12
		C504.37,696,507.93,705.25,505.36,711.18z"/>
	<path class="st11" d="M2390.15,1045.75c5.5,37.03,10.03,77.21,12.86,120.2c2.72,41.3,3.53,80.21,3.06,116.35
		c4.73-35.87,13.15-77.94,28.17-123.7c9.59-29.22,20.37-55.39,31.23-78.38c2.16,6.89,4.2,15.11,5.51,24.5
		c1.61,11.47,1.7,21.66,1.22,30.01c0.78-10.98,2.41-23.59,5.51-37.36c3.84-17.03,9-31.61,14.08-43.48
		C2457.92,1051.18,2424.04,1048.47,2390.15,1045.75z"/>
	<path class="st2" d="M2213.59,643.39l533.15-7.9c0,0,112.24,147.08-53.22,345.44c0,0-94.3,113.7-258.03,90.77
		C2435.49,1071.71,2050.41,997.7,2213.59,643.39z"/>
	<path class="st11" d="M2194.06,526.4c0,0,61.18-50.27,121.37-40.82c0,0,74.11-56.7,112.41-63.67
		C2427.84,421.91,2316.2,407.94,2194.06,526.4z"/>
	<path class="st11" d="M2455.2,473.9c6.35-19.97,15.47-50.13,24.87-87.31c17.75-70.17,24.35-117.36,28.35-116.89
		c3.99,0.47-2.11,47.65,2.49,114.4c2.85,41.42,8.77,75.13,13.43,97.49C2501.29,479.03,2478.25,476.47,2455.2,473.9z"/>
	<polygon class="st11" points="2530.81,481.6 2546.72,426.39 2546.72,484.08 	"/>
	<path class="st11" d="M2689.95,510.95c-2.78-10.91-10.66-35.49-33.3-56.21c-13.5-12.36-27.4-18.9-36.81-22.38
		c24.43,6.46,64.53,20.45,104.95,52.23c49.23,38.7,73.76,84.01,84.76,108.21c-17.07-19.42-42.73-43.65-78.79-63.44
		C2716.37,521.45,2702.57,515.49,2689.95,510.95z"/>
	<path class="st11" d="M2147.3,981.01c0,0,83.02,124.93,209.17,145.75c0,0-88.18-54.63-91.86-85.18
		C2264.61,1041.58,2210.65,1041.64,2147.3,981.01z"/>
	<path class="st11" d="M2537.38,1142.98c0,0,51.71-4.85,85.11-62.49c0,0,84.03-21.55,130.9-59.25
		C2753.39,1021.24,2701.14,1130.06,2537.38,1142.98z"/>
	<polygon class="st12" points="890.37,672.06 918.99,672.06 901.69,889.78 869.08,889.78 	"/>
	<path class="st10" d="M926.93,861.06c3.71-34.7,7.52-70.31,11.23-105.01l108.98-8.15c-1.44,20.03-3.86,49.36-7.97,85.08
		c-3.57,30.97-4.67,34.3-6.28,37.77c-17.22,36.99-72.33,49.23-128.36,54.24c-24.86,2.22-32.62,3.31-123.46,8.29
		c-31.98,1.75-57.99,3.26-74.49,4.24c10.48-23.93,20.96-47.85,31.44-71.78l7.76-91.33l112.75-10.84
		c-2.9,34.17-5.47,64.55-8.37,98.72c0,0,3.22,11.69,36.35,11.13C886.49,873.41,915.88,873.76,926.93,861.06z"/>
	<polygon class="st12" points="1243.47,752.56 1251.13,653.84 1276.87,653.84 1271.41,752.56 	"/>
	<path class="st10" d="M1416.28,900.89l-129.29,4.67c-3.51-37.66-7.03-75.31-10.54-112.96c-0.06-3.36-0.72-9.55-5.1-14.22
		c-5.91-6.32-14.86-5.86-25.67-5.3c-10.37,0.54-19.25,1-25.51,7.92c-4.29,4.74-5.45,10.42-5.82,13.65
		c-2.63,38.14-5.26,76.27-7.89,114.41l-135.81,5.5l29.63-69.09l7.59-102.68l109.09-7c0,0,2.33,13.88,15.72,13.63l50.67-3.65
		c0,0,12.9-2.63,13.9-15.87l74.31-3.45c-11.36,4.87-25.83,9.75-43,12.59c-8.57,1.42-16.57,2.12-23.81,2.37
		c-13.46-0.73-23.01,10.12-22.75,20.57c0.35,13.68,20.85,18.41,32.51,17.89c13.27,1.78,37.13,2.07,79.61-1.64L1416.28,900.89z"/>
	<polygon class="st6" points="1605.74,793.6 1614.97,617.31 1658.31,617.31 1649.22,793.6 	"/>
	<polygon class="st12" points="1621.31,640.51 1648.78,640.51 1642.46,789.68 1613.6,789.68 	"/>
	<path class="st10" d="M1663.84,863.52v27.18l133.48-1.81l-21.14-67.64l4.83-116.57l-110.22,3.93c-0.46,13.46-0.76,31.42-1.22,44.88
		c-0.02,1.97-0.52,21.45-12.96,27.48c-1.41,0.69-3.13,1.27-5.19,1.56l-44.77,1.21c-3.62-0.15-6.17-1.23-7.77-2.13
		c-7-3.96-10.65-13.14-9.74-23.4c0.84-15.02,1.68-30.05,2.52-45.07l-112.04,5.13l-5.74,113.85l-28.69,67.4l136.38-5.89
		c0.74-10.64,1.49-21.28,2.23-31.92c0.02-1.06,0.38-16.48,11.81-22.52c3.02-1.6,6.07-2.14,8.64-2.23
		c13.1-0.45,26.21-0.89,39.31-1.34c4.07-0.41,6.95,0.49,8.68,1.28C1660.26,840.52,1663.76,850.94,1663.84,863.52z"/>
	<polygon class="st12" points="3332.24,641.41 3358.59,641.41 3365.65,789.18 3337.41,789.18 	"/>
	<path class="st10" d="M3393.41,860.24c0,11.61,0,23.22,0,34.82l136.71,5.18L3504,832.47l-4.71-115.29l-112.47-4.71
		c0.93,14.17,1.85,28.35,2.78,42.52c0,0,4.61,26.82-22.02,29.03l-39.75-1.06c0,0-17.74-1.13-18.19-25.32
		c-0.31-16.78-0.63-33.57-0.94-50.35l-111.53-3.77l4.71,112.94l-22.79,73.15l137.14,2.15v-32.94c0,0-2.78-21.91,29.22-21.72
		l24.66,0.58C3370.12,837.69,3393.21,837.42,3393.41,860.24z"/>
	<polygon class="st12" points="3719.58,654.72 3747.16,654.72 3752.27,758.39 3724.85,759.32 	"/>
	<path class="st10" d="M3918.55,917.68l-126.6-5.04l-27.24-113.48c0,0-3.94-22.86-27.98-24.64l-13.22-0.25
		c0,0-21.41-0.01-20.58,18.08l6.5,115.32l-136.49-4.77l20.64-68.29l-6.35-113.3l110.12,7.41c0,0,1.5,20.48,27.76,20.62l33.54,0.6
		c0,0,17.66-0.6,17.66-15.44l71.38,3.71c0,0-6.83,9.8-68.26,7.13c0,0-33.54,13.06,0.74,36.95l6.37,0.3
		c2.04,3.19,5.56,6.26,11.53,6.34l82.71,3.38L3918.55,917.68z"/>
	<g>
		<path class="st13" d="M2478.18,1035.98c-87.14,3.94-248.8-89.23-280.9-185.7l16.02-6.64l-16.08,6.49
			c-99.83-318.42,302.63-524.61,512.75-282.8C2854.88,747.84,2705.1,1031.96,2478.18,1035.98z"/>
		<g>
			<path class="st14" d="M2741.24,798.49c-33.97,142.04-180.78,245.63-310.18,214.67c-47.85-11.45-83.07-34.06-120.76-58.24
				c-53.8-53.07-78.94-137.86-57.52-227.38c33.97-142.04,185.68-241.49,318.54-234.2c37.69,16.36,56.21,29.52,85.31,49.12
				C2732.96,593.89,2765.84,695.65,2741.24,798.49z"/>
			<path class="st15" d="M2525.04,935.74L2374.52,812l-89.01,52.83l-13.28,38.62c10.18,19.25,22.99,36.6,38.06,51.47
				c37.69,24.18,72.91,46.8,120.76,58.24c47.88,11.45,98.14,4.47,144.19-16.05L2525.04,935.74z"/>
			<path class="st16" d="M2693.59,767.9c-33.98,142.04-180.78,245.63-310.18,214.67C2254,951.62,2171.14,839,2205.12,696.95
				c33.97-142.04,165.5-226.51,298.36-219.22C2651.89,485.88,2727.56,625.86,2693.59,767.9z"/>
			<path class="st17" d="M2631.94,761.15c-27.46,114.79-139.04,182.2-244.32,169.88c-104.7-12.26-170.28-110.61-142.83-225.4
				c27.46-114.79,137.49-192.85,242.28-180.85C2594.96,537.15,2659.4,646.37,2631.94,761.15z"/>
			<path class="st18" d="M2283.65,738.41c0,0-16.11-3.22-22.56,27.39s-33.3,35.99-45.12,25.78s-16.65-58.55-16.65-58.55l-0.35-0.57
				c-9.25,86.34,25.73,159.16,87.25,205.31c-7.34-9.34-16.06-20.59-21.91-28.55c-11.82-16.11-3.76-19.87,15.04-23.63
				c18.8-3.76,67.14,9.13,67.14,9.13l-26.86-80.57L2283.65,738.41z"/>
			<path class="st19" d="M2626.28,707.79c0,0,1.56-23.95-4.17-45.82c14.06,18.74,7.81,40.61,7.81,40.61L2626.28,707.79z"/>
			<path class="st19" d="M2652.9,686.45c-29.82,7.3-41.99,0-41.99,0l-29.21-4.26l-37.12,133.26l10.95,21.91
				c0,0,16.43-5.48,24.95-9.13c8.52-3.65,75.46-20.69,85.8-18.26c7.75,1.82,4.57,16.27,2.49,23.41c0.47-0.89,0.94-1.78,1.4-2.67
				l19.5-48.36c1.42-4.78,2.73-9.59,3.9-14.46c9.76-40.79,10.45-81.4,3-118.78C2695.05,676.57,2680.5,679.7,2652.9,686.45z"/>
			<path class="st20" d="M2540.36,482.75c118.8,30.7,176.23,156.19,145.81,283.38c-33.72,140.98-178.49,244.07-307.07,215.37
				c1.43,0.37,2.86,0.73,4.3,1.08c129.41,30.95,276.21-72.63,310.18-214.67C2724.62,638.16,2664.16,510.16,2540.36,482.75z"/>
			<g>
				<defs>
					<path id="SVGID_1_" d="M2604.92,756.63c-24.19,101.15-126.92,175.34-217.03,153.78S2240.4,809.04,2264.6,707.9
						c24.19-101.15,116.2-161.69,208.8-156.98C2576.85,556.19,2629.11,655.48,2604.92,756.63z"/>
				</defs>
				<clipPath id="SVGID_2_">
					<use xlink:href="#SVGID_1_"  style="overflow:visible;"/>
				</clipPath>
				<path class="st21" d="M2641.73,762.95c-28.37,118.59-148.34,205.69-253.48,180.54c-105.14-25.15-171.98-118.62-143.62-237.21
					s135.81-189.68,243.88-184.27C2609.24,528.05,2670.1,644.36,2641.73,762.95z"/>
				<path class="st22" d="M2604.92,756.63c-24.19,101.15-126.92,175.34-217.03,153.78S2240.4,809.04,2264.6,707.9
					c24.19-101.15,116.2-161.69,208.8-156.98C2576.85,556.19,2629.11,655.48,2604.92,756.63z"/>
				<path class="st23" d="M2633.99,777.28c-24.19,101.15-126.92,175.34-217.03,153.78s-147.49-101.37-123.29-202.51
					c24.19-101.15,116.2-161.69,208.8-156.98C2605.92,576.84,2658.18,676.13,2633.99,777.28z"/>
			</g>
			<path class="st19" d="M2611.92,760.43c-24.19,101.15-126.92,175.34-217.03,153.78S2247.4,812.85,2271.59,711.7
				c24.19-101.15,116.2-161.69,208.8-156.98C2583.85,559.99,2636.11,659.29,2611.92,760.43z"/>
			<g>
				<defs>
					<path id="SVGID_3_" d="M2603.55,757.08c-24.19,101.15-126.92,175.34-217.03,153.78c-90.12-21.55-147.49-101.37-123.29-202.51
						s116.2-161.69,208.8-156.98C2575.48,556.65,2627.74,655.94,2603.55,757.08z"/>
				</defs>
				<clipPath id="SVGID_4_">
					<use xlink:href="#SVGID_3_"  style="overflow:visible;"/>
				</clipPath>
				<g class="st24">
					<path class="st14" d="M2603.55,757.08c-24.19,101.15-126.92,175.34-217.03,153.78c-90.12-21.55-147.49-101.37-123.29-202.51
						s116.2-161.69,208.8-156.98C2575.48,556.65,2627.74,655.94,2603.55,757.08z"/>
					<path class="st25" d="M2305.87,624.79c5.81,7.81,30.74,39.15,30.74,39.15l38-47.21l-25.23-31.21
						C2333.24,596.33,2318.54,609.49,2305.87,624.79z"/>
					<path class="st26" d="M2306.06,625.33c12.08,14.97,33.88,42.5,33.88,42.5l37.79-49.79l-28.62-32.32
						C2333.11,596.66,2318.56,609.94,2306.06,625.33z"/>
					<path class="st27" d="M2630.33,773.44c-24.37,101.88-127.84,176.62-218.62,154.91c-90.77-21.71-148.56-102.11-124.19-203.99
						c24.37-101.88,117.05-162.87,210.33-158.12C2602.06,571.54,2654.7,671.56,2630.33,773.44z"/>
					<path class="st27" d="M2633.99,777.28c-24.19,101.15-126.92,175.34-217.03,153.78s-147.49-101.37-123.29-202.51
						c24.19-101.15,116.2-161.69,208.8-156.98C2605.92,576.84,2658.18,676.13,2633.99,777.28z"/>
				</g>
			</g>
			<g>
				<defs>
					<path id="SVGID_5_" d="M2632.45,761.51c-27.05,113.11-143.62,195.67-246.29,171.11s-168.35-114.17-141.3-227.28
						s127.93-185.42,233.35-179.7C2595.99,532.04,2659.51,648.41,2632.45,761.51z"/>
				</defs>
				<clipPath id="SVGID_6_">
					<use xlink:href="#SVGID_5_"  style="overflow:visible;"/>
				</clipPath>
			</g>
			<path class="st25" d="M2690.03,790.29c0,0-3.62,44.87-38.35,91.18c62.96-79.6,89.01-189.59,61.51-251.83
				C2720.42,701.28,2690.03,790.29,2690.03,790.29z"/>
			<path class="st25" d="M2730.55,743.25c0.72-2.17,7.24-41.97,7.24-51.38c6.51,24.6,3.62,67.3,1.45,71.64
				S2730.55,743.25,2730.55,743.25z"/>
			<path class="st25" d="M2700.02,671.44c3.39,30.98,1.41,63.66-6.44,96.46c-2.86,11.97-6.55,23.66-10.93,35.03
				c8.59,14.02,23.32,38.55,35.18,58.38c10.18-19.79,18.15-40.85,23.41-62.83c4.39-18.36,6.92-36.69,7.73-54.7L2700.02,671.44z"/>
			<g>
				<g>
					<path class="st17" d="M2497.14,575.39c3.44,0,3.44-5.34,0-5.34C2493.7,570.05,2493.69,575.39,2497.14,575.39L2497.14,575.39z"
						/>
				</g>
			</g>
			<path class="st18" d="M2221.23,705.69c0,0-5.44-57.11,37.62-96.54C2233.46,658.1,2221.23,705.69,2221.23,705.69z"/>
			<path class="st18" d="M2334.16,565.9c0,0,13.2-28.41,70.81-43.61C2376.97,537.49,2342.16,559.5,2334.16,565.9z"/>
			<path class="st18" d="M2542.76,899.65c-2.39,0.77,36.84-30.19,47.94-51.05C2593.37,864.13,2576.06,888.99,2542.76,899.65z"/>
			<path class="st18" d="M2342.56,951.58c0,0,83.01,32.41,188.22-5.77C2460.64,978.22,2393.61,987.1,2342.56,951.58z"/>
			<path class="st18" d="M2332.12,568.26c0,0,11.97-35.92,74.45-46.34C2368.56,549,2332.12,568.26,2332.12,568.26z"/>
			<path class="st20" d="M2586.76,610.97c0,0,36.34-17.79,42.39-20.06c9.08-23.47,19.3-41.63,19.3-41.63l17.79,43.53l43.91,18.92
				l-43.53,17.79l-20.06,43.15l-18.17-42.39L2586.76,610.97z"/>
			<path class="st25" d="M2308.8,623.83c-1.01,0.68-12.49,24.64-15.19,35.45c17.89-28.02,25.32-32.75,25.32-32.75L2308.8,623.83z"/>
			<path class="st25" d="M2281.12,780.47c-0.68-2.36-9.79-62.12,10.47-93.51C2280.78,751.43,2281.12,780.47,2281.12,780.47z"/>
		</g>
		<g>
			<g>
				<path class="st28" d="M2313.73,720.29c0.06-0.11,0.3-0.82,0.74-2.04c3.38-9.38,18.1-48.84,44.5-77.2
					c0.98,11.98,2.69,11.01,2.69,11.01s27.64-18.1,39.86-34.97c-5.14,18.83-6.11,26.17-6.11,26.17s22.26-12.47,31.3-26.66
					c8.56,14.92-16.88,37.17-22.99,41.09c25.92,5.14,31.79,21.28,30.08,31.06c-1.71,9.78-4.89,28.13-15.41,42.31
					c-10.52,14.18-12.72,31.06-8.07,36.69c4.89-13.7,4.65-14.43,4.65-14.43s31.79-13.21,39.62-28.13
					c21.28-11.74,55.03,5.38,60.9,30.82c5.87,25.44-2.17,60.44-13.4,68.53c-6.95,5.01-40.65,7.77-47.74-1.52
					c-7.09-9.29-3.91-23.48,3.42-32.77c7.34-9.29,2.93-10.52-0.98-11.49c-3.91-0.98-25.44,12.47-33.26,28.37
					c-9.54,14.43-17.61,23.23-26.41,19.81c-8.8-3.42-32.77-20.54-34.48-25.68c2.45-16.39,11.25-36.2,25.92-57.47
					c14.67-21.28,22.5-35.95,3.91-46.22c-13.45,9.54-30.08,11.49-35.71,9.05c-9.29,0.49-14.43,14.92-14.43,14.92
					s-20.05,5.14-29.35-0.73"/>
				<circle class="st28" cx="2501.7" cy="794.62" r="28.86"/>
				<path class="st28" d="M2516.2,759.22c0,0,3.29,6.89,24.18,19.95c15.53-7.62,19.73-13.86,29.72-27.11
					c4.88-10.68-8.97-30.19-12.11-32.02c-9.4,1.31-13.32,7.58-13.32,7.58s0.26-12.54,12.54-21.16
					c18.29,1.83,37.88,30.04,35.53,56.16c-10.97,24.03-30.56,49.89-43.36,60.86c-27.17,3.66-47.8-1.04-48.59-1.04
					s15.53-63.54,15.53-63.54"/>
				<path class="st28" d="M2385.8,820.77c0,0,28.78,8.47,43.09,44.74c2.42,1.34,10.48-0.83,9.94-3.49c0,0,6.72-32.2-2.82-37.22
					c-8.18-4.3-14.76-8.13-12.47-17.69C2412.45,793.98,2385.8,820.77,2385.8,820.77z"/>
				<path class="st28" d="M2366.11,864.54c0.78-1.18,17.26-30.04,10.77-36.65c-14.47-13.5-13.98-27.72-13.98-27.72l29.55-3.88
					l-2.92,24.55l5.59,13.53c0,0-10.17,24.34-19.73,31.21C2373.89,868.34,2367.64,868.09,2366.11,864.54z"/>
				<path class="st28" d="M2474.77,817.68c-5.86,23.23-14.17,24.6-23.96,38.79c4.21,0.8,4.47,0.35,16.55,0.42
					c0,0,37.73-34.79,37.23-34.75l-7.28-14.84L2474.77,817.68z"/>
				<path class="st28" d="M2467.45,815.77c1.12,1.12,48.67,22.71,53.38,46.96c5.14,1.57,10.29-2.4,11.41-2.68
					c-0.24-5.84-1.05-16.32-1.74-23.31c-7.09-10.03-12.3-14.99-16.67-23.56C2506.83,799.46,2467.45,815.77,2467.45,815.77z"/>
				<path class="st28" d="M2436.05,747.45c-1.16-1.16-10.01-14.25-10.01-14.25s24.36-43.61,23.2-61.32
					c32.94-9.55,70-57.29,85.78-83.09c-5.78,30.81-37.74,83.95-67.01,98.59c-6.55,13.86-25.03,41.59-25.03,41.59l6.55,13.09
					c0,0-1.54,15.02-11.94,5.39"/>
				<path class="st28" d="M2456.85,692c0,0,41.98,33.89,77.41,1.16c-23.49,13.09-60.46-3.08-69.71-12.32
					C2454.15,680.83,2456.85,692,2456.85,692z"/>
				<path class="st28" d="M2462.37,689.88c1.43,0,66.96-6.09,94.89-46.19c-41.18,26.5-82.36,32.23-82.36,32.23L2462.37,689.88z"/>
				<path class="st28" d="M2521,696.92c-15.58,0.98-12.11-17.75,11.78-34.01c-16.2-1.69-36.55-3.69-14.95-37.08
					c-32.52,33.84-57.73,58.73-57.73,58.73l-8.29,19.58l-13.94,18.91v4.65l8.29,14.93c0,0,28.2-33.84,58.06-38.49
					C2512.52,703.14,2520.51,701.46,2521,696.92z"/>
			</g>
		</g>
	</g>
</g>
</svg>
