<?xml version="1.0" encoding="utf-8"?>
<!-- Generator: Adobe Illustrator 24.3.0, SVG Export Plug-In . SVG Version: 6.00 Build 0)  -->
<svg version="1.1" id="Laag_1" xmlns="http://www.w3.org/2000/svg" xmlns:xlink="http://www.w3.org/1999/xlink" x="0px" y="0px"
	 viewBox="0 0 900 300" style="enable-background:new 0 0 900 300;" xml:space="preserve">
<style type="text/css">
	.st0{fill:#FFFFFF;}
	.st1{fill:#F3BA2F;}
	.st2{font-family:'Poppins-SemiBold';}
	.st3{font-size:46px;}
	.st4{display:none;}
	.st5{display:inline;opacity:0.65;fill:#FFFF00;enable-background:new    ;}
</style>
<g id="bg">
	<g>
		
			<image style="overflow:visible;enable-background:new    ;" width="982" height="383" xlink:href="A064ADF5.png"  transform="matrix(1 0 0 1 -41 -41)">
		</image>
	</g>
</g>
<g>
	<circle class="st0" cx="677.6" cy="150.2" r="90.4"/>
	<g transform="translate(0.000000,400.000000) scale(0.100000,-0.100000)">
		<path d="M6740,2934.2c0-8.6-5-10.8-43.8-19.4l-43.8-9.9l-11.3,11.3l-11.8,10.8l-33.4-18.1c-74.1-40.2-141-106.7-175.4-173.6
			c-20.8-40.7-21.2-41.1-43.8-47.9c-14.5-4.1-23.1-9-23.1-13.1c0-4.5-5.4-7.2-15.8-8.1c-8.6-0.9-19.4-5-23.5-8.6
			c-9.9-9-10.4-12.2,3.6,48.8l11.3,51.1l30.3,33.4c42.9,47.9,60.6,68.7,58.3,68.7c-0.9,0-24-9.5-51.1-20.8s-57.9-24-68.7-28
			c-21.7-8.6-48.4-39.8-61-72.3c-4.1-10.4-19.9-45.2-34.8-76.8c-14.9-32.1-27.1-61.9-27.1-66.9c0-10.8,96.7-187.1,106.7-194.4
			c3.6-3.2,27.1-7.7,51.5-10.8l45.2-5.4v-16.3c0-9-2.3-44.3-5-78.2l-5-61.5l25.3-41.1c41.6-67.3,91.8-126.1,123.8-146.4
			c13.6-8.6,16.7-8.6,43.8-3.2c25.8,5,30.3,5,37.1-1.4c10.8-9.9,44.7-22.6,93.1-35.3c22.1-5.9,41.1-13.6,42-16.7
			c6.3-20.3,5-19.4,18.5-12.7c15.8,8.6,27.6,8.6,43.4,0c13.6-6.8,12.2-7.7,18.5,12.7c0.9,3.2,26.2,12.7,56.5,20.8
			c30.3,8.1,62.4,19.9,71.9,26.2c16.3,11.3,17.6,11.3,44.7,5.9c26.2-5,29.4-4.5,42.9,3.6c32.1,20.3,82.3,79.1,123.8,146.4l25.3,41.1
			l-5,61.5c-2.7,33.9-5,69.2-5,78.2v16.3l45.2,5.4c24.4,3.2,47.9,7.7,51.5,10.8c9.9,7.2,106.7,183.5,106.7,194.4
			c0,5-12.2,34.8-27.1,66.9c-14.9,31.6-30.7,66.4-34.8,76.8c-12.7,32.5-39.3,63.7-61,72.3c-10.8,4.1-41.6,16.7-68.7,28
			s-50.2,20.8-51.1,20.8c-2.3,0,15.4-20.8,58.3-68.7l30.3-33.4l11.3-51.5c6.8-28,10.8-52,9.9-52.9c-0.9-0.9-4.1,1.4-7.2,5.4
			c-3.2,4.1-13.1,6.8-23.1,6.8c-14.5,0-17.6,1.8-17.6,8.6s-5.4,9.9-22.1,14.5c-19.9,5-23.5,7.7-30.3,24
			c-33.4,75.5-104.4,150.5-182.6,193.9l-29.4,16.3l-9.5-9l-9.9-9.5l-50.2,10.4c-44.7,9.5-50.2,11.3-50.2,19.9c0,9-2.3,9.9-33.9,9.9
			S6740,2943.2,6740,2934.2z M6344.5,2621.8c10.4-6.8,11.3-9.9,11.3-44.7c0-30.7-1.4-38-7.7-40.2c-9.5-4.1-15.4,2.3-35.3,38
			l-16.7,29.4l14.9,12.2C6328.6,2631.3,6330,2631.3,6344.5,2621.8z M7236.7,2616.4l14.9-12.2l-16.7-29.4c-19.9-35.7-25.8-42-35.3-38
			c-6.3,2.3-7.7,9.5-7.7,40.2c0,33.4,0.9,38,10.4,44.3C7216.4,2631.3,7219.5,2630.9,7236.7,2616.4z M6598.9,2615.5
			c42.9-26.2,42.9-86.8,0-113c-42-25.3-98.5,6.8-98.5,56.5C6500.4,2608.7,6556.9,2640.8,6598.9,2615.5z M7014.8,2618.2
			c6.8-3.6,17.2-11.8,23.5-18.5c9.5-10.4,11.3-16.3,11.3-41.1c0-27.1-0.9-29.8-16.7-45.2c-14-14.5-19.9-17.2-40.7-18.5
			c-28-2.3-47.9,7.7-62.4,31.2C6897.3,2579.8,6959.6,2647.2,7014.8,2618.2z M6816.8,2524.7c36.2-16.3,56.5-43.4,61.9-83.2
			c7.7-57.9-46.1-119.8-104.9-119.8c-58.8,0-112.5,61.9-104.9,119.8c7.7,54.2,50.6,92.7,104.9,92.7
			C6787,2534.2,6805.1,2530.1,6816.8,2524.7z M6593.5,2322.2c9-5.4,17.2-16.3,22.1-29.4c10.8-28.5,6.3-49.7-15.8-71.4
			c-15.4-15.4-19.4-17.2-40.2-17.2c-13.1,0-29.4,3.2-37.1,6.8c-38.9,20.3-42,81.8-5.9,110.3
			C6533,2333.9,6573.6,2334.4,6593.5,2322.2z M7031.1,2321.3c36.2-28.5,33-89.9-5.9-110.3c-7.7-3.6-24-6.8-37.1-6.8
			c-20.8,0-24.9,1.8-40.2,17.2c-22.1,21.7-26.7,42.9-15.8,71.4c10.4,27.1,28,38,61.5,38C7012.5,2330.8,7022,2328.5,7031.1,2321.3z"
			/>
	</g>
</g>
<g id="currency_logo">
	<g>
		<g>
			<g>
				
					<image style="overflow:visible;opacity:0.5;enable-background:new    ;" width="120" height="120" xlink:href="A064ADF2.png"  transform="matrix(1 0 0 1 688 161)">
				</image>
				<g>
					<circle class="st0" cx="748.2" cy="221.2" r="29.5"/>
				</g>
			</g>
			<circle class="st1" cx="748.2" cy="221.2" r="25.5"/>
		</g>
		<g id="Layer_2_1_">
			<g id="Layer_1-2_1_">
				<path class="st0" d="M740.6,218l7.6-7.6l7.6,7.6l4.4-4.4l-12-12l-12,12L740.6,218 M728.6,221.2l4.4-4.4l4.4,4.4l-4.4,4.4
					L728.6,221.2z M740.6,224.3l7.6,7.6l7.6-7.6l4.4,4.4l0,0l-12,12l-12-12l0,0L740.6,224.3 M758.9,221.2l4.4-4.4l4.4,4.4l-4.4,4.4
					L758.9,221.2z"/>
				<path class="st0" d="M752.6,221.2L752.6,221.2l-4.5-4.5l-3.3,3.3l0,0l-0.4,0.4l-0.8,0.8l0,0l0,0l4.5,4.5L752.6,221.2
					L752.6,221.2L752.6,221.2"/>
			</g>
		</g>
	</g>
</g>
<g id="text">
	<g>
		<text transform="matrix(1 0 0 1 186.8735 193.9976)" class="st1 st2 st3">BNB OFFERING</text>
	</g>
	<g>
		<path class="st0" d="M156.1,135c-0.6-0.2-1.1-0.6-1.4-1.2c-0.3-0.6-0.6-1.5-0.7-2.7c-0.1-1.2-0.2-3-0.2-5.4v-18l-0.6,0.1
			c-2.2,0.3-4,0.8-5.3,1.5c-1.4,0.7-2.5,1.9-3.3,3.3s-1.3,3.1-1.6,5.2s-0.5,4.7-0.5,7.9c0,3.8,0.2,6.8,0.7,9.1s1.3,4.2,2.5,5.5
			c1.2,1.4,2.8,2.3,4.9,2.8c2,0.5,4.8,0.8,8.1,0.8h1.1v-8.6h-0.6C157.8,135.3,156.7,135.2,156.1,135z"/>
		<path class="st0" d="M157.7,116.4c0.9-0.1,2.4-0.1,4.4-0.1c0.4,0,1.2,0,2.5,0.1s2.2,0.2,2.7,0.2c0.7,0.1,1.8,0.2,3.2,0.4l0.6,0.1
			v-8.2l-0.4-0.1c-1.2-0.3-2.4-0.5-3.7-0.6c-2.5-0.4-5.3-0.6-8.4-0.6c-0.9,0-2,0-3.3,0.1h-0.5v9.8l0.8-0.5
			C156.1,116.7,156.8,116.5,157.7,116.4z"/>
		<path class="st0" d="M157.1,130.3h3.6v13.6h0.6c1.3,0,2.5-0.1,3.6-0.3c2.4-0.2,4.4-0.5,6-0.9l0.4-0.1v-20.7h-14.2L157.1,130.3
			L157.1,130.3z"/>
		<polygon class="st0" points="186.1,107.9 184.4,107.9 173.1,143.5 184.3,143.5 190.2,122.2 		"/>
		<polygon class="st0" points="187.2,107.9 193.1,128.6 189.4,128.6 187,137.4 195.7,137.4 197.4,143.5 208.9,143.5 197.5,107.9 		
			"/>
		<rect x="210.9" y="107.9" class="st0" width="11.2" height="35.7"/>
		<polygon class="st0" points="248.8,107.9 254.8,128.6 251.1,128.6 248.6,137.4 257.3,137.4 259.1,143.5 270.5,143.5 259.2,107.9 
					"/>
		<polygon class="st0" points="247.7,107.9 246.1,107.9 234.9,142.9 234.9,134.3 223.1,134.3 223.1,143.5 234.7,143.5 234.9,143.5 
			245.9,143.5 251.9,122.2 		"/>
		<path class="st0" d="M286.6,116.4c0.8-0.1,1.8-0.1,3.1-0.1c1.1,0,2.5,0.1,4.1,0.2c1.2,0.1,2,0.2,2.5,0.3h0.6v-8.2l-0.4-0.1
			c-0.6-0.2-1.5-0.3-2.6-0.5c-2.2-0.3-4.4-0.5-6.7-0.5h-1.3c-0.6,0-1,0-1.3,0.1l-0.5,0.1v9.5l0.8-0.3
			C285.2,116.6,285.8,116.5,286.6,116.4z"/>
		<path class="st0" d="M294.4,134.9c-1.3,0.2-2.9,0.2-4.8,0.2c-1.8,0-3.2-0.1-4.1-0.3c-0.8-0.1-1.4-0.5-1.8-1
			c-0.4-0.6-0.6-1.5-0.7-2.7c-0.1-1.7-0.1-3.5-0.1-5.4v-18l-0.6,0.1c-2.3,0.3-4.2,0.8-5.6,1.6c-1.4,0.8-2.6,2-3.3,3.4
			c-0.7,1.4-1.2,3.1-1.4,5.1c-0.3,2-0.4,4.6-0.4,7.8c0,3.6,0.2,6.6,0.5,8.7c0.4,2.2,1.1,4.1,2.1,5.4c1.1,1.5,2.7,2.5,4.7,3.1
			s4.7,0.9,8.1,0.9c1.4,0,2.7-0.1,3.8-0.2c2.1-0.1,4-0.4,5.7-0.8l0.4-0.1v-8.4l-0.7,0.1C295.6,134.8,295,134.9,294.4,134.9z"/>
		<rect x="298.3" y="107.9" class="st0" width="29.4" height="9.1"/>
		<rect x="307.4" y="117.9" class="st0" width="11.2" height="25.6"/>
		<rect x="330.2" y="107.9" class="st0" width="11.2" height="35.7"/>
		<path class="st0" d="M360.8,116.4c0.8-0.1,1.8-0.1,3.1-0.1c1.1,0,2.5,0.1,4.1,0.2c1.2,0.1,2,0.2,2.5,0.3h0.6v-8.2l-0.4-0.1
			c-0.6-0.2-1.5-0.3-2.6-0.5c-2.2-0.3-4.4-0.5-6.7-0.5h-1.3c-0.6,0-1,0-1.3,0.1l-0.5,0.1v9.5l0.8-0.3
			C359.5,116.6,360.1,116.5,360.8,116.4z"/>
		<path class="st0" d="M368.7,134.9c-1.3,0.2-2.9,0.2-4.8,0.2c-1.8,0-3.2-0.1-4.1-0.3c-0.8-0.1-1.4-0.5-1.8-1
			c-0.4-0.6-0.6-1.5-0.7-2.7c-0.1-1.7-0.1-3.5-0.1-5.4v-18l-0.6,0.1c-2.3,0.3-4.2,0.8-5.6,1.6c-1.4,0.8-2.6,2-3.3,3.4
			c-0.7,1.4-1.2,3.1-1.4,5.1c-0.3,2-0.4,4.6-0.4,7.8c0,3.6,0.2,6.6,0.5,8.7c0.4,2.2,1.1,4.1,2.1,5.4c1.1,1.5,2.7,2.5,4.7,3.1
			s4.7,0.9,8.1,0.9c1.4,0,2.7-0.1,3.8-0.2c2.1-0.1,4-0.4,5.7-0.8l0.4-0.1v-8.4l-0.7,0.1C369.9,134.8,369.2,134.9,368.7,134.9z"/>
		<polygon class="st0" points="399.1,107.9 405.1,128.6 401.4,128.6 399,137.4 407.6,137.4 409.4,143.5 420.8,143.5 409.5,107.9 		
			"/>
		<polygon class="st0" points="398,107.9 396.4,107.9 385,143.5 396.2,143.5 402.2,122.2 		"/>
		<rect x="422.9" y="107.9" class="st0" width="11.2" height="35.7"/>
		<path class="st0" d="M451.6,126.3c0.5-1.5,0.8-3.7,0.8-6.5c0-2.1-0.1-3.9-0.4-5.3s-0.8-2.6-1.6-3.6c-0.9-1-2.1-1.8-3.7-2.3
			c-1.5-0.5-3.5-0.7-5.9-0.7H435v8.8h2.3c1.1,0,1.9,0,2.4,0.1c0.4,0.1,0.7,0.2,0.9,0.3c0.2,0.2,0.3,0.4,0.4,0.8s0.1,1.1,0.1,2
			s0,1.5-0.1,1.9c-0.1,0.3-0.2,0.6-0.3,0.7c-0.2,0.2-0.6,0.3-1,0.4c-0.5,0.1-1.3,0.1-2.3,0.1H435v8.8h2.2l4.4,11.7h11.8l-5.3-13.2
			C449.7,129.5,450.9,128.1,451.6,126.3z"/>
		<rect x="468.9" y="121.1" class="st0" width="11.5" height="8.8"/>
		<rect x="468.9" y="107.9" class="st0" width="13.9" height="8.8"/>
		<rect x="468.9" y="134.7" class="st0" width="13.9" height="8.8"/>
		<rect x="456.7" y="107.9" class="st0" width="11.2" height="35.7"/>
		<polygon class="st0" points="507.5,121.2 518.2,139.4 518.2,107.9 507.5,107.9 		"/>
		<polygon class="st0" points="487.6,143.5 498.3,143.5 498.3,130.2 487.6,112 		"/>
		<polygon class="st0" points="487.6,107.9 487.6,110 507.3,143.5 518.2,143.5 518.2,141.4 498.6,107.9 		"/>
		<polygon class="st0" points="544.7,107.9 534.3,107.9 540.3,128.6 536.6,128.6 534.2,137.4 542.8,137.4 544.6,143.5 556,143.5 		
			"/>
		<polygon class="st0" points="533.2,107.9 531.6,107.9 520.2,143.5 531.4,143.5 537.4,122.2 		"/>
	</g>
</g>
<g id="banner" class="st4">
	<polygon class="st5" points="763.7,-5 671.8,-5 905,228.2 905,136.3 	"/>
</g>
</svg>
