<?xml version="1.0" encoding="UTF-8" standalone="no"?>
<!DOCTYPE svg PUBLIC "-//W3C//DTD SVG 1.1//EN" "http://www.w3.org/Graphics/SVG/1.1/DTD/svg11.dtd">
<svg xmlns="http://www.w3.org/2000/svg" version="1.1" viewBox="0 0 1668 560" width="1668.0pt" height="560.0pt">
<path d="M 0.00 0.00 L 164.52 0.00 C 134.83 3.16 106.06 13.58 81.33 30.30 C 50.99 50.68 26.91 80.28 13.33 114.22 C 5.17 134.09 1.00 155.25 0.00 176.67 L 0.00 0.00 Z" fill="#ffffff" />
<path d="M 164.52 0.00 L 957.63 0.00 L 958.40 0.63 L 958.96 1.13 C 1000.28 41.18 1028.81 92.82 1043.71 148.21 C 1057.34 198.91 1059.50 252.79 1050.72 304.51 C 1040.96 361.97 1017.27 417.12 980.40 462.43 C 951.05 498.50 913.58 527.84 870.34 545.33 C 853.59 552.16 836.10 556.97 818.27 560.00 L 0.00 560.00 L 0.00 176.67 C 1.00 155.25 5.17 134.09 13.33 114.22 C 26.91 80.28 50.99 50.68 81.33 30.30 C 106.06 13.58 134.83 3.16 164.52 0.00 Z" fill="#000000" />
<path d="M 957.63 0.00 L 1343.40 0.00 L 1344.23 0.72 L 1344.81 1.27 C 1348.45 4.94 1352.09 8.60 1355.77 12.23 C 1382.25 41.19 1403.20 75.08 1417.29 111.71 C 1431.23 146.93 1438.68 184.25 1441.04 222.00 C 1440.98 235.33 1440.98 248.67 1441.04 262.00 C 1439.04 294.96 1433.29 328.15 1422.37 359.38 C 1418.63 371.10 1414.07 382.62 1408.77 393.72 C 1406.15 399.94 1403.21 405.99 1399.82 411.82 C 1392.53 425.14 1384.63 438.25 1375.47 450.38 C 1367.76 460.85 1359.60 471.19 1350.26 480.26 C 1347.94 482.71 1346.08 485.42 1343.39 487.51 C 1339.31 490.74 1336.06 494.76 1332.19 498.19 C 1317.57 510.58 1302.29 522.25 1285.45 531.47 C 1274.32 537.70 1262.77 543.27 1250.86 547.84 C 1240.57 551.42 1229.99 554.94 1219.38 557.38 C 1215.55 558.16 1211.75 558.98 1207.97 560.00 L 818.27 560.00 C 836.10 556.97 853.59 552.16 870.34 545.33 C 913.58 527.84 951.05 498.50 980.40 462.43 C 1017.27 417.12 1040.96 361.97 1050.72 304.51 C 1059.50 252.79 1057.34 198.91 1043.71 148.21 C 1028.81 92.82 1000.28 41.18 958.96 1.13 L 958.40 0.63 L 957.63 0.00 Z" fill="#ba4292" />
<path d="M 1343.40 0.00 L 1486.59 0.00 L 1488.34 0.16 C 1494.56 0.88 1500.78 1.33 1506.97 2.35 C 1537.86 7.18 1567.41 19.81 1592.30 38.72 C 1619.15 59.03 1640.47 86.50 1653.40 117.59 C 1662.10 138.24 1666.63 160.21 1668.00 182.53 L 1668.00 560.00 L 1207.97 560.00 C 1211.75 558.98 1215.55 558.16 1219.38 557.38 C 1229.99 554.94 1240.57 551.42 1250.86 547.84 C 1262.77 543.27 1274.32 537.70 1285.45 531.47 C 1302.29 522.25 1317.57 510.58 1332.19 498.19 C 1336.06 494.76 1339.31 490.74 1343.39 487.51 C 1346.08 485.42 1347.94 482.71 1350.26 480.26 C 1359.60 471.19 1367.76 460.85 1375.47 450.38 C 1384.63 438.25 1392.53 425.14 1399.82 411.82 C 1403.21 405.99 1406.15 399.94 1408.77 393.72 C 1414.07 382.62 1418.63 371.10 1422.37 359.38 C 1433.29 328.15 1439.04 294.96 1441.04 262.00 C 1440.98 248.67 1440.98 235.33 1441.04 222.00 C 1438.68 184.25 1431.23 146.93 1417.29 111.71 C 1403.20 75.08 1382.25 41.19 1355.77 12.23 C 1352.09 8.60 1348.45 4.94 1344.81 1.27 L 1344.23 0.72 L 1343.40 0.00 Z" fill="#80c9e6" />
<path d="M 1486.59 0.00 L 1668.00 0.00 L 1668.00 182.53 C 1666.63 160.21 1662.10 138.24 1653.40 117.59 C 1640.47 86.50 1619.15 59.03 1592.30 38.72 C 1567.41 19.81 1537.86 7.18 1506.97 2.35 C 1500.78 1.33 1494.56 0.88 1488.34 0.16 L 1486.59 0.00 Z" fill="#ffffff" />
<path d="M 662.00 140.71 C 665.52 140.86 668.97 140.99 671.83 143.31 C 675.08 146.10 677.20 150.61 676.08 154.91 C 674.09 163.64 668.99 171.88 665.89 180.37 C 655.66 203.45 645.16 226.46 635.19 249.66 C 631.57 258.28 627.31 266.60 623.88 275.31 C 615.68 293.40 607.90 311.74 599.42 329.71 C 596.43 335.81 591.20 340.81 584.01 340.66 C 552.34 340.58 520.68 340.27 489.00 340.38 C 483.97 340.45 479.02 339.68 474.00 339.65 C 471.13 339.55 468.07 339.76 465.26 339.10 C 461.84 337.79 458.75 334.27 457.83 330.72 C 456.91 326.96 458.15 323.67 459.53 320.24 C 467.22 302.35 475.18 284.60 483.16 266.84 C 484.97 262.73 486.30 258.51 487.79 254.28 C 483.76 251.69 479.86 252.86 475.31 252.02 C 470.51 251.27 466.89 248.83 462.89 246.30 C 461.66 247.19 460.43 248.08 459.22 249.01 C 459.83 246.05 460.04 243.97 462.50 241.97 C 465.26 244.69 468.43 248.63 472.26 249.73 C 477.89 251.16 484.52 250.16 490.23 249.40 C 490.59 253.30 489.83 256.55 488.18 260.09 C 484.38 268.01 480.63 275.97 476.97 283.96 C 472.83 295.23 467.72 306.03 462.89 317.01 C 460.79 321.93 458.35 327.10 460.40 332.49 C 461.16 334.67 462.93 335.38 464.83 336.37 C 467.11 337.20 469.59 337.41 472.00 337.49 C 509.37 337.50 546.63 337.47 584.00 337.53 C 586.76 337.44 589.28 337.36 591.55 335.60 C 594.88 333.20 596.47 328.53 598.19 324.93 C 622.59 269.77 647.31 214.43 671.65 159.31 C 673.01 156.26 674.16 153.36 673.42 149.95 C 672.50 146.72 669.51 143.83 666.06 143.64 C 661.74 143.21 657.34 143.43 653.00 143.38 C 638.67 143.45 624.33 143.40 610.00 143.35 C 606.57 143.51 602.50 143.16 599.98 145.96 C 596.81 149.02 596.45 154.24 599.46 157.53 C 602.19 161.08 606.91 161.11 610.99 161.40 C 622.46 161.51 633.93 161.29 645.40 161.60 C 646.18 164.48 647.11 167.01 646.58 170.05 C 645.83 174.20 643.16 178.12 641.59 182.07 C 638.94 188.66 635.84 195.04 632.92 201.51 C 627.92 212.50 623.47 223.75 618.34 234.67 C 608.40 257.06 598.38 279.64 588.36 301.98 C 586.25 306.84 584.26 312.03 581.28 316.43 C 580.28 317.86 578.73 318.33 577.06 318.53 C 573.08 318.96 569.00 318.71 565.00 318.73 C 541.68 318.72 518.31 318.76 495.00 318.75 C 491.66 318.71 489.01 318.62 487.50 315.22 C 486.47 310.39 488.75 306.32 490.87 302.21 C 493.60 298.46 495.77 294.62 497.29 290.22 C 499.49 283.64 503.32 277.87 505.42 271.26 C 506.48 267.90 507.76 264.82 510.24 262.23 C 510.98 267.17 508.34 270.40 506.55 274.74 C 501.95 285.24 497.03 295.58 492.48 306.11 C 491.29 308.90 491.39 311.63 491.21 314.61 C 497.19 316.01 502.93 315.45 509.00 315.51 C 530.64 315.57 552.43 315.61 574.06 315.50 C 577.35 315.64 578.90 313.24 580.48 310.77 C 583.77 305.05 586.37 298.87 588.98 292.81 C 606.22 254.65 622.85 216.19 640.07 178.03 C 641.52 174.36 643.32 169.96 642.25 166.01 C 637.25 164.02 631.30 164.51 626.00 164.48 C 619.96 164.63 614.01 163.75 607.98 163.63 C 604.46 163.46 601.01 163.36 598.51 160.51 C 594.18 156.16 593.67 147.91 598.74 143.90 C 601.65 140.97 605.12 140.98 608.99 140.74 C 626.66 140.43 644.33 140.58 662.00 140.71 Z" fill="#892b57" />
<path d="M 459.96 144.46 C 496.72 144.31 533.27 144.37 570.00 144.48 C 574.60 144.63 579.14 143.74 582.66 147.38 C 586.42 150.63 584.08 156.63 582.48 160.46 C 562.22 206.41 541.70 252.59 521.24 298.47 C 519.48 302.07 517.93 306.44 513.77 307.84 C 509.65 309.50 505.88 306.41 503.35 303.44 C 503.36 299.83 503.51 296.40 505.08 293.07 C 516.73 266.73 528.43 240.35 540.14 214.03 C 546.24 200.22 552.28 186.36 558.53 172.61 C 560.23 169.06 559.71 165.43 559.61 161.62 C 528.32 161.20 497.02 161.44 465.73 161.53 C 461.50 167.25 458.97 174.45 455.97 180.99 C 443.53 208.34 431.74 236.01 419.31 263.35 C 412.17 279.27 405.24 295.27 398.15 311.21 C 396.88 313.90 396.40 316.62 396.17 319.57 C 401.42 321.25 406.42 320.50 412.00 320.64 C 418.64 320.81 425.46 320.18 432.03 321.15 C 435.40 321.41 438.89 321.17 442.22 321.76 C 446.01 322.78 447.94 326.21 447.62 330.03 C 447.66 333.60 444.88 335.35 442.52 337.47 C 423.01 337.69 403.51 337.68 384.00 337.56 C 382.01 337.49 379.89 337.57 377.96 337.06 C 375.74 336.25 373.98 333.99 372.32 332.36 C 372.36 325.10 375.79 319.90 378.39 313.39 C 385.96 296.60 393.43 279.77 400.92 262.95 C 404.69 253.52 409.31 244.51 413.18 235.13 C 422.86 213.67 431.97 192.24 441.78 170.84 C 444.48 163.76 447.86 157.00 451.26 150.24 C 452.98 146.84 455.99 144.32 459.96 144.46 Z" fill="#43b6f3" />
<path d="M 610.00 143.35 C 624.33 143.40 638.67 143.45 653.00 143.38 C 657.34 143.43 661.74 143.21 666.06 143.64 C 669.51 143.83 672.50 146.72 673.42 149.95 C 674.16 153.36 673.01 156.26 671.65 159.31 C 647.31 214.43 622.59 269.77 598.19 324.93 C 596.47 328.53 594.88 333.20 591.55 335.60 C 589.28 337.36 586.76 337.44 584.00 337.53 C 546.63 337.47 509.37 337.50 472.00 337.49 C 469.59 337.41 467.11 337.20 464.83 336.37 C 463.00 334.34 460.75 331.89 460.57 329.03 C 460.40 325.83 462.05 322.37 463.32 319.49 C 468.37 308.89 473.11 298.16 477.56 287.30 C 480.96 280.33 483.68 273.07 487.09 266.10 C 491.46 256.61 494.44 246.71 499.50 237.46 C 502.33 232.39 504.10 226.91 506.66 221.72 C 511.05 213.06 514.47 203.95 518.75 195.23 C 521.77 189.17 523.64 182.05 527.56 176.54 C 530.80 171.41 540.01 172.33 542.06 178.14 C 543.82 182.65 541.19 187.96 539.40 192.09 C 531.13 209.95 523.47 228.08 515.37 246.01 C 508.63 261.28 501.76 276.55 495.07 291.86 C 493.43 295.26 492.06 298.63 490.87 302.21 C 488.75 306.32 486.47 310.39 487.50 315.22 C 489.01 318.62 491.66 318.71 495.00 318.75 C 518.31 318.76 541.68 318.72 565.00 318.73 C 569.00 318.71 573.08 318.96 577.06 318.53 C 578.73 318.33 580.28 317.86 581.28 316.43 C 584.26 312.03 586.25 306.84 588.36 301.98 C 598.38 279.64 608.40 257.06 618.34 234.67 C 623.47 223.75 627.92 212.50 632.92 201.51 C 635.84 195.04 638.94 188.66 641.59 182.07 C 643.16 178.12 645.83 174.20 646.58 170.05 C 647.11 167.01 646.18 164.48 645.40 161.60 C 633.93 161.29 622.46 161.51 610.99 161.40 C 606.91 161.11 602.19 161.08 599.46 157.53 C 596.45 154.24 596.81 149.02 599.98 145.96 C 602.50 143.16 606.57 143.51 610.00 143.35 Z" fill="#ec51a6" />
<path d="M 606.97 147.94 C 614.17 147.15 621.74 148.06 628.98 147.98 C 639.65 147.55 650.34 147.71 661.01 147.71 C 663.34 147.90 666.74 147.86 668.50 149.63 C 669.60 153.17 667.23 157.38 665.85 160.58 C 662.12 168.13 659.33 176.07 655.63 183.63 C 648.86 198.83 642.20 214.06 635.24 229.18 C 621.05 261.88 606.23 294.21 592.06 326.92 C 591.15 328.69 590.14 331.24 588.37 332.27 C 584.34 332.92 580.08 332.43 576.00 332.53 C 541.33 332.60 506.65 332.47 471.98 332.59 C 469.28 332.43 466.96 332.96 465.50 330.15 C 464.97 326.72 467.42 322.84 468.70 319.73 C 483.24 286.82 497.93 254.06 512.41 221.22 C 519.25 206.66 525.06 191.54 532.41 177.23 C 534.71 177.73 537.82 177.28 538.52 180.17 C 539.01 184.25 535.78 188.76 534.30 192.48 C 516.32 232.72 498.44 273.47 480.40 313.71 C 478.72 317.20 477.21 320.73 476.02 324.42 C 512.04 324.43 548.06 324.48 584.07 324.41 C 586.97 318.76 589.37 312.90 591.92 307.10 C 603.77 280.79 615.73 253.47 627.63 227.06 C 637.70 203.42 648.37 180.02 658.78 156.53 C 646.19 156.23 633.59 156.48 621.00 156.37 C 616.00 156.25 610.88 156.78 605.92 156.15 C 603.60 155.70 601.98 153.52 602.40 151.14 C 602.69 149.05 605.13 148.14 606.97 147.94 Z" fill="#f1a2da" />
<path d="M 616.00 150.30 C 632.00 150.42 648.04 150.24 664.03 150.35 C 665.66 150.34 667.83 150.63 666.98 152.80 C 663.25 161.36 659.45 170.00 655.51 178.46 C 642.31 208.26 629.22 238.13 615.87 267.87 C 607.78 286.63 599.07 305.13 591.06 323.95 C 590.05 326.07 589.05 328.84 587.16 330.33 C 583.16 330.82 579.03 330.46 575.00 330.52 C 541.00 330.56 506.99 330.44 473.00 330.57 C 470.97 330.44 469.13 330.71 467.46 329.35 C 468.04 324.92 470.87 320.67 472.58 316.58 C 490.73 275.46 508.81 234.93 526.96 193.98 C 529.03 188.97 531.20 184.03 533.86 179.31 C 534.84 179.84 535.82 180.37 536.79 180.90 C 532.46 191.41 527.61 201.70 523.13 212.14 C 517.30 224.18 512.46 236.65 506.80 248.77 C 497.18 270.66 487.21 292.68 477.59 314.60 C 475.79 318.50 474.09 322.41 472.84 326.52 C 510.47 326.64 548.11 326.53 585.74 326.57 C 588.10 320.75 590.59 315.03 593.29 309.35 C 614.32 261.58 635.86 213.62 656.97 165.93 C 658.76 162.12 660.47 158.27 661.99 154.34 C 646.00 154.18 629.99 154.29 614.00 154.33 C 610.70 154.32 607.43 153.93 604.17 153.48 C 604.41 152.52 604.66 151.57 604.92 150.61 C 608.55 150.23 612.34 150.27 616.00 150.30 Z" fill="#fef8ff" />
<path d="M 457.58 150.52 C 497.97 150.37 538.41 150.38 578.80 150.50 C 578.52 156.73 575.49 161.23 573.10 166.81 C 564.90 185.36 556.48 203.79 548.48 222.44 C 546.16 227.78 543.44 232.93 541.36 238.39 C 531.93 259.43 522.61 280.59 513.25 301.67 C 511.82 301.66 510.38 301.66 508.94 301.66 C 509.51 297.29 511.11 293.44 513.07 289.54 C 527.75 256.52 542.49 223.45 557.07 190.39 C 562.54 178.55 567.35 166.37 573.12 154.68 C 535.81 154.85 498.48 154.76 461.16 154.73 C 460.82 155.27 460.49 155.81 460.15 156.36 C 458.82 158.39 457.59 160.47 456.64 162.70 C 434.51 212.87 412.18 262.69 390.08 312.86 C 387.88 317.69 385.46 322.35 383.92 327.46 C 400.28 327.52 416.64 327.55 433.00 327.49 C 435.56 327.51 438.12 327.66 440.67 327.83 C 440.70 328.87 440.73 329.90 440.76 330.93 C 433.81 331.65 426.96 331.26 420.00 331.33 C 409.67 331.36 399.33 331.25 389.00 331.38 C 385.82 331.42 382.66 331.18 379.49 330.85 C 379.31 329.17 379.13 327.49 378.93 325.81 C 383.09 319.37 384.99 312.29 388.48 305.51 C 394.89 290.99 401.27 276.44 407.83 261.99 C 418.37 237.53 429.62 213.35 440.12 188.87 C 442.65 183.39 445.39 178.13 446.93 172.25 C 446.98 172.79 447.02 173.32 447.07 173.86 C 450.34 166.00 453.63 158.07 457.58 150.52 Z" fill="#e3fefe" />
<path d="M 460.15 156.36 C 460.13 160.89 458.14 164.48 456.42 168.52 C 447.94 187.38 439.66 206.39 431.10 225.23 C 422.56 245.23 413.43 264.93 404.70 284.85 C 399.62 295.61 395.29 306.69 390.22 317.45 C 389.00 320.05 387.99 322.73 387.04 325.44 C 400.69 325.64 414.35 325.54 428.00 325.55 C 431.93 325.59 435.94 325.26 439.85 325.69 C 441.66 325.85 442.79 327.46 443.49 328.97 C 443.80 330.83 441.75 332.76 439.97 332.96 C 436.06 333.59 431.95 333.26 428.00 333.28 C 414.67 333.23 401.33 333.27 388.00 333.31 C 384.40 333.33 380.84 332.95 377.27 332.49 C 377.31 329.97 377.43 327.93 378.93 325.81 C 379.13 327.49 379.31 329.17 379.49 330.85 C 382.66 331.18 385.82 331.42 389.00 331.38 C 399.33 331.25 409.67 331.36 420.00 331.33 C 426.96 331.26 433.81 331.65 440.76 330.93 C 440.73 329.90 440.70 328.87 440.67 327.83 C 438.12 327.66 435.56 327.51 433.00 327.49 C 416.64 327.55 400.28 327.52 383.92 327.46 C 385.46 322.35 387.88 317.69 390.08 312.86 C 412.18 262.69 434.51 212.87 456.64 162.70 C 457.59 160.47 458.82 158.39 460.15 156.36 Z" fill="#7cddfa" />
<path d="M 485.21 175.62 C 487.76 179.53 487.11 183.78 485.62 187.94 C 481.86 198.22 477.17 208.26 472.88 218.32 C 471.59 221.30 471.30 224.41 471.06 227.62 C 474.63 228.19 478.22 228.39 481.81 228.70 C 487.06 229.31 491.06 232.15 495.40 234.88 C 500.01 229.41 502.15 223.26 505.20 216.92 C 509.30 208.36 512.68 199.51 516.85 190.99 C 519.71 185.18 521.92 177.86 526.59 173.28 C 524.80 179.81 520.91 185.11 518.26 191.51 C 514.47 200.51 510.55 209.42 506.38 218.26 C 502.90 225.55 500.99 233.26 495.28 239.05 C 493.94 238.06 492.59 237.08 491.28 236.05 C 489.16 234.48 486.70 231.89 483.98 231.63 C 479.85 231.18 475.64 231.32 471.51 231.54 C 469.47 232.03 467.44 232.67 465.43 233.28 C 466.08 229.75 466.61 226.21 467.27 222.68 C 472.02 211.66 477.12 200.78 481.86 189.75 C 482.96 187.01 484.19 183.95 484.29 180.98 C 484.10 177.85 481.31 175.44 479.34 173.25 C 476.66 173.47 472.76 172.82 470.52 174.48 C 466.41 178.31 464.02 184.30 462.18 189.49 C 457.69 199.60 453.03 209.66 448.78 219.87 C 441.45 235.79 434.42 251.93 427.29 267.96 C 423.26 276.29 419.76 284.90 416.21 293.45 C 415.16 296.27 413.91 299.01 415.18 302.01 C 417.00 307.30 423.76 309.25 428.37 306.36 C 430.42 305.08 431.58 302.38 432.64 300.30 C 436.26 292.60 439.61 284.76 443.02 276.97 C 443.39 278.90 443.75 280.82 444.00 282.77 C 442.09 288.06 439.45 293.09 437.21 298.25 C 435.12 302.81 432.33 307.86 427.37 309.74 C 421.30 312.23 413.89 308.27 412.62 301.81 C 411.44 295.36 414.97 288.05 417.56 282.27 C 424.54 265.80 432.03 249.54 439.35 233.22 C 444.96 219.64 451.29 206.33 457.06 192.82 C 459.19 186.45 462.48 180.64 466.12 175.04 C 470.25 168.40 481.39 168.94 485.21 175.62 Z" fill="#852956" />
<path d="M 543.92 176.00 C 545.53 180.60 544.99 186.23 543.21 190.72 C 540.22 198.46 536.41 205.80 533.39 213.53 C 526.28 230.74 517.96 247.48 511.09 264.79 C 510.80 263.93 510.52 263.08 510.24 262.23 C 507.76 264.82 506.48 267.90 505.42 271.26 C 503.32 277.87 499.49 283.64 497.29 290.22 C 495.77 294.62 493.60 298.46 490.87 302.21 C 492.06 298.63 493.43 295.26 495.07 291.86 C 501.76 276.55 508.63 261.28 515.37 246.01 C 523.47 228.08 531.13 209.95 539.40 192.09 C 541.19 187.96 543.82 182.65 542.06 178.14 C 540.01 172.33 530.80 171.41 527.56 176.54 C 523.64 182.05 521.77 189.17 518.75 195.23 C 514.47 203.95 511.05 213.06 506.66 221.72 C 504.10 226.91 502.33 232.39 499.50 237.46 C 494.44 246.71 491.46 256.61 487.09 266.10 C 483.68 273.07 480.96 280.33 477.56 287.30 C 473.11 298.16 468.37 308.89 463.32 319.49 C 462.05 322.37 460.40 325.83 460.57 329.03 C 460.75 331.89 463.00 334.34 464.83 336.37 C 462.93 335.38 461.16 334.67 460.40 332.49 C 458.35 327.10 460.79 321.93 462.89 317.01 C 467.72 306.03 472.83 295.23 476.97 283.96 C 480.63 275.97 484.38 268.01 488.18 260.09 C 489.83 256.55 490.59 253.30 490.23 249.40 C 484.52 250.16 477.89 251.16 472.26 249.73 C 468.43 248.63 465.26 244.69 462.50 241.97 C 460.04 243.97 459.83 246.05 459.22 249.01 C 453.77 260.08 448.90 271.46 444.00 282.77 C 443.75 280.82 443.39 278.90 443.02 276.97 C 446.58 267.95 450.87 259.24 454.62 250.30 C 457.28 243.76 461.19 237.90 463.56 231.26 C 464.62 228.32 465.92 225.50 467.27 222.68 C 466.61 226.21 466.08 229.75 465.43 233.28 C 467.44 232.67 469.47 232.03 471.51 231.54 C 469.44 233.35 466.68 235.44 465.63 238.05 C 464.89 241.27 466.64 244.95 469.14 246.97 C 472.57 249.36 477.04 249.31 481.03 248.94 C 484.42 248.53 487.43 248.61 489.76 245.74 C 492.47 243.06 491.25 239.49 491.28 236.05 C 492.59 237.08 493.94 238.06 495.28 239.05 C 500.99 233.26 502.90 225.55 506.38 218.26 C 510.55 209.42 514.47 200.51 518.26 191.51 C 520.91 185.11 524.80 179.81 526.59 173.28 C 531.96 168.96 540.68 169.45 543.92 176.00 Z" fill="#993162" />
<path d="M 479.34 173.25 C 481.31 175.44 484.10 177.85 484.29 180.98 C 484.19 183.95 482.96 187.01 481.86 189.75 C 477.12 200.78 472.02 211.66 467.27 222.68 C 465.92 225.50 464.62 228.32 463.56 231.26 C 461.19 237.90 457.28 243.76 454.62 250.30 C 450.87 259.24 446.58 267.95 443.02 276.97 C 439.61 284.76 436.26 292.60 432.64 300.30 C 431.58 302.38 430.42 305.08 428.37 306.36 C 423.76 309.25 417.00 307.30 415.18 302.01 C 413.91 299.01 415.16 296.27 416.21 293.45 C 419.76 284.90 423.26 276.29 427.29 267.96 C 434.42 251.93 441.45 235.79 448.78 219.87 C 453.03 209.66 457.69 199.60 462.18 189.49 C 464.02 184.30 466.41 178.31 470.52 174.48 C 472.76 172.82 476.66 173.47 479.34 173.25 Z" fill="#ec54b0" />
<path d="M 590.07 173.76 C 601.77 173.63 613.84 173.11 625.42 174.76 C 627.60 175.52 629.25 178.05 630.76 179.70 C 630.49 182.85 630.37 185.65 628.05 188.04 C 625.63 190.83 622.36 190.45 619.00 190.63 C 610.00 190.69 600.94 190.90 591.95 190.39 C 587.17 189.96 584.08 185.44 584.55 180.83 C 585.61 178.11 588.02 175.77 590.07 173.76 Z" fill="#40b2f4" />
<path d="M 592.17 178.64 C 597.40 178.08 602.75 178.57 608.00 178.46 C 613.25 178.56 618.62 178.10 623.84 178.70 C 627.52 178.88 627.32 185.37 623.98 185.74 C 618.51 186.87 612.57 186.15 607.00 186.30 C 601.90 186.14 596.24 186.96 591.30 185.61 C 587.97 184.67 588.76 178.88 592.17 178.64 Z" fill="#76dbf9" />
<path d="M 473.65 179.27 C 475.43 179.33 477.22 179.39 479.00 179.46 C 477.94 185.47 475.02 190.36 472.70 195.91 C 467.38 207.81 462.18 219.77 456.76 231.62 C 455.72 233.97 454.90 236.39 454.08 238.82 C 454.02 238.24 453.96 237.67 453.89 237.09 C 451.79 243.53 448.81 249.50 446.11 255.68 C 441.88 265.74 436.98 275.48 433.08 285.69 C 433.02 285.17 432.96 284.66 432.90 284.15 C 431.23 290.22 428.26 295.62 426.01 301.46 C 424.38 301.54 422.76 301.61 421.13 301.68 C 421.33 298.47 421.67 295.48 423.16 292.59 C 427.27 283.98 430.78 275.12 434.88 266.52 C 440.21 253.91 446.11 241.53 451.48 228.93 C 458.99 212.43 466.02 195.71 473.65 179.27 Z" fill="#fcf2fe" />
<path d="M 623.46 180.46 C 623.57 181.60 623.69 182.74 623.80 183.88 C 616.84 184.78 609.98 184.24 603.00 184.39 C 599.09 184.46 595.20 184.48 591.31 183.96 C 591.34 182.82 591.39 181.68 591.47 180.54 C 602.12 180.23 612.81 180.38 623.46 180.46 Z" fill="#e1fdfd" />
<path d="M 483.98 231.63 C 486.70 231.89 489.16 234.48 491.28 236.05 C 491.25 239.49 492.47 243.06 489.76 245.74 C 487.43 248.61 484.42 248.53 481.03 248.94 C 477.04 249.31 472.57 249.36 469.14 246.97 C 466.64 244.95 464.89 241.27 465.63 238.05 C 466.68 235.44 469.44 233.35 471.51 231.54 C 475.64 231.32 479.85 231.18 483.98 231.63 Z" fill="#ec52ab" />
<path d="M 562.97 233.57 C 572.94 232.87 583.01 233.27 593.00 233.16 C 596.10 233.39 599.53 232.61 601.73 235.29 C 604.07 237.46 604.22 240.13 604.68 243.11 C 603.41 244.78 602.18 247.09 600.32 248.15 C 597.40 249.70 594.24 249.39 591.00 249.51 C 582.67 249.52 574.32 249.66 565.99 249.42 C 560.64 248.84 557.93 243.85 558.31 238.78 C 559.84 237.02 561.33 235.24 562.97 233.57 Z" fill="#44b9f4" />
<path d="M 472.78 236.61 C 476.73 236.51 481.04 236.04 484.89 236.97 C 486.91 237.80 486.49 240.97 486.95 242.76 C 483.70 244.05 480.52 244.78 476.99 244.47 C 474.72 244.23 472.09 244.32 470.96 241.94 C 469.66 239.84 471.60 238.17 472.78 236.61 Z" fill="#f2afe3" />
<path d="M 473.97 238.78 C 477.36 238.16 480.91 238.29 484.29 238.83 L 484.47 241.10 C 481.69 243.56 476.22 242.22 472.86 241.78 C 473.18 240.76 473.55 239.76 473.97 238.78 Z" fill="#fdf8ff" />
<path d="M 592.00 238.46 C 593.92 238.62 598.87 237.94 598.57 241.01 C 599.14 243.13 596.56 243.54 595.03 243.55 C 584.88 243.61 574.71 243.57 564.56 243.48 C 564.47 242.06 564.38 240.65 564.29 239.23 C 573.36 237.71 582.82 238.87 592.00 238.46 Z" fill="#e6fefe" />
<path d="M 339.51 376.71 C 339.48 378.35 339.45 380.00 339.43 381.64 C 337.14 381.90 332.03 380.28 331.22 383.13 C 333.87 384.03 336.65 383.70 339.42 383.70 L 339.42 385.62 C 336.87 385.67 332.93 384.78 331.12 386.97 C 333.67 387.88 336.73 387.67 339.40 387.47 C 339.40 388.23 339.40 388.98 339.40 389.74 C 330.01 389.47 320.56 389.52 311.17 389.63 C 311.41 393.35 315.48 391.85 318.06 392.49 C 318.52 392.79 318.97 393.10 319.42 393.42 L 319.29 394.27 C 316.25 393.40 313.84 393.21 310.74 393.72 C 311.12 394.50 311.50 395.27 311.89 396.05 C 314.17 396.22 316.43 396.47 318.64 397.07 C 316.29 397.41 313.93 397.65 311.56 397.84 C 311.52 400.07 311.45 402.29 311.32 404.51 C 310.26 401.00 310.57 397.63 310.57 394.00 C 310.68 388.65 310.42 383.27 310.76 377.93 L 311.62 377.40 C 311.68 378.14 311.75 378.87 311.81 379.61 C 313.88 379.60 315.95 379.59 318.02 379.59 C 318.26 378.64 318.50 377.68 318.73 376.72 C 319.31 380.66 319.40 384.62 319.41 388.60 C 323.15 388.55 326.89 388.55 330.64 388.54 C 330.63 384.49 330.45 380.60 331.35 376.61 C 334.05 376.53 336.79 376.63 339.51 376.71 Z" fill="#52889d" />
<path d="M 487.31 376.75 C 487.38 377.86 487.45 378.97 487.53 380.07 C 488.64 380.38 489.72 380.75 490.76 381.19 C 491.16 382.26 491.52 383.34 491.85 384.44 C 488.79 384.58 485.73 384.59 482.68 384.52 C 482.59 383.21 482.51 381.91 482.42 380.60 C 480.08 380.59 477.74 380.58 475.40 380.57 C 475.38 383.22 475.38 385.87 475.41 388.52 C 480.69 388.48 485.97 388.47 491.24 388.69 C 491.33 389.91 491.42 391.12 491.50 392.34 C 492.85 392.68 494.19 393.02 495.53 393.37 C 495.40 395.48 495.71 397.95 495.02 399.95 C 493.99 400.77 492.72 401.33 491.56 401.95 C 491.49 402.81 491.43 403.67 491.37 404.53 C 484.45 404.87 477.51 404.75 470.60 404.55 C 470.57 403.55 470.55 402.56 470.53 401.57 C 469.24 401.10 467.94 400.62 466.65 400.16 C 466.58 399.10 466.52 398.05 466.46 397.00 C 469.73 396.44 472.34 396.51 475.53 397.46 C 475.49 398.52 475.45 399.58 475.42 400.63 C 479.14 400.61 482.87 400.60 486.59 400.62 C 486.60 398.22 486.61 395.82 486.60 393.43 C 481.27 392.50 475.95 392.69 470.57 392.43 C 470.58 391.30 470.58 390.17 470.59 389.04 C 470.04 388.91 469.48 388.78 468.93 388.65 C 470.69 388.04 472.42 387.35 474.15 386.66 C 472.36 386.18 470.55 385.79 468.72 385.54 C 467.97 386.41 467.23 387.28 466.51 388.18 C 466.53 385.95 466.53 383.73 466.53 381.51 C 467.79 381.09 469.05 380.67 470.32 380.25 C 470.46 379.10 470.62 377.96 470.80 376.82 C 476.26 376.37 481.83 376.50 487.31 376.75 Z" fill="#d14ba0" />
<path d="M 555.27 376.57 C 555.71 377.58 556.14 378.59 556.58 379.59 C 558.12 380.39 559.65 381.19 561.17 382.00 C 559.37 384.51 558.40 385.81 555.07 385.49 C 551.93 385.56 550.97 383.48 549.20 381.38 C 547.65 381.27 546.11 381.16 544.56 381.06 C 544.19 382.16 543.82 383.26 543.45 384.36 C 542.41 384.82 541.36 385.29 540.31 385.76 C 540.26 388.83 540.23 391.89 540.28 394.96 C 542.26 396.57 543.74 398.20 545.18 400.29 C 546.81 400.29 548.44 400.27 550.07 400.25 C 550.62 398.96 551.16 397.67 551.71 396.38 C 554.34 396.35 556.91 396.35 559.47 397.09 C 557.06 397.16 554.52 397.15 552.18 397.73 L 550.96 400.71 C 553.86 400.59 556.73 400.38 559.61 400.07 C 557.24 401.77 555.23 405.81 552.05 405.42 C 548.06 405.62 544.02 405.37 540.03 405.17 C 537.74 402.59 535.53 400.00 533.62 397.12 L 532.64 396.60 C 534.79 396.66 536.94 396.64 539.09 396.63 L 538.34 393.50 C 535.26 392.69 531.92 392.08 530.91 396.01 C 530.37 392.52 530.45 389.06 530.58 385.55 C 531.78 385.01 532.99 384.47 534.19 383.94 C 534.49 382.94 534.79 381.95 535.09 380.95 C 536.07 380.53 537.05 380.10 538.02 379.68 C 538.44 378.71 538.87 377.75 539.31 376.79 C 544.68 375.87 549.87 376.16 555.27 376.57 Z" fill="#72395f" />
<path d="M 656.30 376.96 C 656.31 378.11 656.28 379.25 656.21 380.39 C 655.78 379.45 655.35 378.50 654.92 377.55 C 647.32 377.26 639.67 377.18 632.07 377.57 L 633.13 379.85 C 638.26 380.42 643.49 380.20 648.65 380.48 C 648.40 388.55 648.35 396.61 648.44 404.68 C 645.45 404.77 642.48 404.78 639.49 404.70 C 639.47 396.91 639.41 389.11 639.41 381.31 C 636.73 380.93 634.04 380.60 631.36 380.28 C 631.44 379.11 631.53 377.93 631.66 376.76 C 639.77 376.31 648.23 375.92 656.30 376.96 Z" fill="#993775" />
<path d="M 311.62 377.40 L 312.69 376.86 C 314.70 376.76 316.71 376.75 318.73 376.72 C 318.50 377.68 318.26 378.64 318.02 379.59 C 315.95 379.59 313.88 379.60 311.81 379.61 C 311.75 378.87 311.68 378.14 311.62 377.40 Z" fill="#91e0ff" />
<path d="M 347.57 377.50 C 349.42 376.53 351.95 376.82 354.00 376.75 C 360.16 376.93 365.83 376.32 371.87 377.44 C 371.37 378.31 370.87 379.18 370.36 380.05 C 365.05 379.45 359.78 379.13 354.49 380.14 C 352.07 380.47 349.70 380.41 347.27 380.39 C 347.34 379.42 347.43 378.46 347.57 377.50 Z" fill="#90e0ff" />
<path d="M 378.20 377.02 C 377.17 377.76 376.15 378.53 375.15 379.31 C 384.63 380.49 393.99 379.39 403.47 379.76 C 396.92 381.11 390.07 379.99 383.42 381.15 C 380.99 381.39 378.56 381.40 376.13 381.33 C 376.08 382.22 376.04 383.11 376.01 384.00 C 378.48 383.83 380.96 383.69 383.44 383.56 L 383.46 385.29 C 380.92 385.31 378.38 385.31 375.83 385.43 L 375.66 387.75 C 375.71 388.39 375.78 389.03 375.86 389.68 C 376.03 390.72 376.20 391.75 376.38 392.79 C 376.11 393.91 375.84 395.03 375.57 396.15 C 378.20 396.16 380.84 396.16 383.47 396.16 L 383.45 397.81 C 380.93 397.71 378.40 397.61 375.87 397.51 C 375.87 398.47 375.88 399.43 375.88 400.39 C 378.40 400.27 380.92 400.15 383.45 400.04 L 383.43 401.68 C 380.99 401.68 378.45 401.58 376.04 401.94 L 375.11 404.39 C 375.17 395.51 375.40 386.55 375.00 377.68 C 376.07 377.45 377.14 377.23 378.20 377.02 Z" fill="#528aa2" />
<path d="M 378.20 377.02 C 386.54 376.38 395.07 376.96 403.45 376.76 L 403.47 379.76 C 393.99 379.39 384.63 380.49 375.15 379.31 C 376.15 378.53 377.17 377.76 378.20 377.02 Z" fill="#87cde6" />
<path d="M 412.77 377.02 C 420.61 376.24 428.69 376.97 436.45 378.02 C 435.78 378.81 435.05 379.52 434.26 380.16 C 426.74 380.90 419.08 380.63 411.55 380.19 C 411.75 378.79 410.71 377.08 412.77 377.02 Z" fill="#90defd" />
<path d="M 502.87 376.99 C 503.02 378.18 503.17 379.36 503.33 380.54 C 504.44 380.64 505.55 380.75 506.66 380.85 C 506.70 382.01 506.74 383.17 506.77 384.34 C 504.59 384.32 502.41 384.31 500.22 384.28 C 500.22 383.17 500.24 382.06 500.21 380.95 C 501.03 380.73 501.85 380.52 502.68 380.31 C 502.75 379.21 502.82 378.10 502.87 376.99 Z" fill="#ec55b3" />
<path d="M 502.87 376.99 L 502.85 376.72 L 503.15 377.88 L 503.83 380.38 C 508.97 380.68 514.14 380.43 519.29 380.53 C 519.45 387.26 519.66 393.88 518.71 400.58 C 514.71 400.70 510.72 400.67 506.72 400.48 L 506.78 397.48 L 506.79 396.52 L 506.79 393.56 L 506.79 392.47 L 506.78 389.59 C 506.78 388.86 506.78 388.14 506.78 387.42 L 506.79 385.52 L 506.77 384.34 C 506.74 383.17 506.70 382.01 506.66 380.85 C 505.55 380.75 504.44 380.64 503.33 380.54 C 503.17 379.36 503.02 378.18 502.87 376.99 Z" fill="#010000" />
<path d="M 502.85 376.72 C 509.80 376.62 516.63 376.36 523.57 376.95 C 523.55 378.00 523.54 379.04 523.52 380.08 C 524.87 380.50 526.21 380.90 527.54 381.37 C 524.96 381.64 522.46 382.05 520.01 382.92 C 522.57 383.81 524.91 383.60 527.51 383.09 C 527.38 388.78 527.44 394.47 527.48 400.16 L 526.75 400.42 C 524.07 400.49 521.39 400.50 518.71 400.58 C 519.66 393.88 519.45 387.26 519.29 380.53 C 520.26 379.70 521.22 378.86 522.18 378.02 C 515.84 377.72 509.50 377.76 503.15 377.88 L 502.85 376.72 Z" fill="#cb4797" />
<path d="M 567.40 377.35 C 569.59 376.68 571.73 376.65 573.99 376.60 C 580.02 376.59 585.91 376.32 591.89 377.35 C 591.72 378.34 591.55 379.33 591.38 380.31 C 583.37 380.68 575.50 380.83 567.48 380.24 C 567.41 379.28 567.38 378.31 567.40 377.35 Z" fill="#ee55b8" />
<path d="M 597.89 376.78 C 606.44 376.52 615.04 376.83 623.61 376.75 C 623.61 377.95 623.61 379.15 623.61 380.35 C 614.32 379.23 604.83 379.55 595.49 379.54 C 595.59 377.57 595.80 376.95 597.89 376.78 Z" fill="#ef56b9" />
<path d="M 672.30 377.22 C 672.29 381.00 672.37 384.78 672.46 388.55 C 674.83 388.54 677.19 388.53 679.56 388.53 C 680.16 384.54 680.37 380.58 680.42 376.55 C 683.12 376.61 685.81 376.74 688.49 377.09 C 688.40 380.84 688.40 384.60 688.44 388.35 C 687.14 388.47 685.85 388.59 684.55 388.71 C 684.52 389.86 684.48 391.00 684.45 392.15 C 678.88 391.80 673.33 391.80 667.75 392.06 C 667.65 390.92 667.54 389.77 667.44 388.63 C 666.35 388.61 665.26 388.59 664.17 388.58 C 663.55 384.85 663.47 381.13 663.71 377.37 C 666.57 377.05 669.43 377.12 672.30 377.22 Z" fill="#d54ca1" />
<path d="M 337.65 378.70 C 336.26 379.77 333.80 379.06 332.27 378.61 C 333.33 377.88 337.47 376.83 337.65 378.70 Z" fill="#98e4fe" />
<path d="M 503.15 377.88 C 509.50 377.76 515.84 377.72 522.18 378.02 C 521.22 378.86 520.26 379.70 519.29 380.53 C 514.14 380.43 508.97 380.68 503.83 380.38 L 503.15 377.88 Z" fill="#e753b1" />
<path d="M 539.98 377.42 C 545.07 377.23 550.12 377.24 555.20 377.51 C 554.93 378.54 554.66 379.58 554.39 380.61 C 550.38 380.26 546.38 379.96 542.36 379.71 C 542.48 381.06 542.60 382.40 542.73 383.75 C 540.29 384.08 537.86 384.41 535.43 384.72 C 535.62 383.60 535.81 382.48 536.00 381.36 C 537.53 381.32 539.06 381.29 540.59 381.25 C 540.39 379.97 540.19 378.70 539.98 377.42 Z" fill="#ec56b7" />
<path d="M 632.07 377.57 C 639.67 377.18 647.32 377.26 654.92 377.55 C 655.35 378.50 655.78 379.45 656.21 380.39 C 653.69 380.55 651.16 380.53 648.65 380.48 C 643.49 380.20 638.26 380.42 633.13 379.85 L 632.07 377.57 Z" fill="#e352ad" />
<path d="M 671.47 379.54 C 668.97 379.51 666.50 379.33 664.03 378.90 C 667.38 377.43 668.70 376.82 671.47 379.54 Z" fill="#e251ad" />
<path d="M 354.49 380.14 C 359.78 379.13 365.05 379.45 370.36 380.05 C 368.02 380.40 365.67 380.71 363.32 381.00 C 360.92 381.60 356.79 380.92 355.22 383.11 C 357.92 383.72 360.61 383.74 363.35 383.80 L 363.37 385.56 C 360.80 385.54 358.23 385.53 355.66 385.50 C 355.90 386.36 356.14 387.21 356.38 388.06 C 358.71 387.82 361.05 387.61 363.38 387.40 L 363.39 389.77 C 360.87 389.66 358.35 389.56 355.83 389.45 C 355.91 390.41 355.98 391.36 356.06 392.32 C 358.50 392.12 360.95 391.94 363.39 391.76 L 363.39 393.58 C 361.52 393.54 359.57 393.27 357.72 393.54 C 356.44 393.84 355.63 394.66 356.09 396.01 C 358.53 396.10 360.96 396.06 363.39 396.01 L 363.40 397.75 C 360.76 397.72 358.11 397.70 355.47 397.82 L 356.30 399.82 C 358.61 400.30 361.06 400.29 363.41 400.42 C 366.18 400.55 368.90 400.74 371.55 401.59 C 363.62 401.97 355.52 402.00 347.59 401.49 C 349.95 401.03 352.32 400.70 354.71 400.47 C 355.42 393.67 355.70 386.90 354.49 380.14 Z" fill="#5490a7" />
<path d="M 595.49 379.54 C 604.83 379.55 614.32 379.23 623.61 380.35 C 617.27 380.77 610.89 380.59 604.54 380.64 C 604.23 381.79 603.92 382.95 603.63 384.10 C 600.91 384.07 598.18 384.06 595.46 384.04 C 595.46 382.54 595.47 381.04 595.49 379.54 Z" fill="#d14ca0" />
<path d="M 313.08 381.50 C 315.80 381.33 317.61 380.83 318.86 383.71 C 316.19 383.77 313.53 383.77 310.87 383.56 C 311.57 382.47 311.61 381.60 313.08 381.50 Z" fill="#8ad8fc" />
<path d="M 339.43 381.64 L 339.42 383.70 C 336.65 383.70 333.87 384.03 331.22 383.13 C 332.03 380.28 337.14 381.90 339.43 381.64 Z" fill="#89d8f9" />
<path d="M 363.32 381.00 C 363.33 381.94 363.34 382.87 363.35 383.80 C 360.61 383.74 357.92 383.72 355.22 383.11 C 356.79 380.92 360.92 381.60 363.32 381.00 Z" fill="#90d9fb" />
<path d="M 376.13 381.33 C 378.56 381.40 380.99 381.39 383.42 381.15 C 383.43 381.96 383.43 382.76 383.44 383.56 C 380.96 383.69 378.48 383.83 376.01 384.00 C 376.04 383.11 376.08 382.22 376.13 381.33 Z" fill="#90d8f9" />
<path d="M 500.21 380.95 C 500.24 382.06 500.22 383.17 500.22 384.28 C 502.41 384.31 504.59 384.32 506.77 384.34 L 506.79 385.52 C 504.28 385.36 501.67 384.70 499.30 385.80 C 499.04 390.19 504.33 388.16 506.78 387.42 C 506.78 388.14 506.78 388.86 506.78 389.59 C 504.81 389.59 499.86 388.11 499.22 390.91 L 499.77 392.18 C 502.13 392.49 504.41 392.45 506.79 392.47 L 506.79 393.56 C 504.30 393.25 501.87 392.65 499.49 393.72 C 497.62 397.87 504.78 396.17 506.79 396.52 L 506.78 397.48 C 504.39 397.45 502.11 397.34 499.74 397.62 C 497.99 399.99 501.53 399.94 502.96 400.22 C 504.21 400.33 505.47 400.42 506.72 400.48 C 510.72 400.67 514.71 400.70 518.71 400.58 C 521.39 400.50 524.07 400.49 526.75 400.42 C 526.10 400.74 525.45 401.06 524.80 401.39 C 523.79 402.88 523.71 405.06 521.54 405.04 C 516.17 405.54 510.55 405.47 505.16 405.19 C 503.22 405.35 502.76 403.10 501.74 401.88 C 500.70 401.31 499.66 400.75 498.61 400.20 C 498.40 393.96 498.34 387.65 498.67 381.41 L 500.21 380.95 Z" fill="#963672" />
<path d="M 559.99 381.74 C 558.37 384.68 551.73 385.60 551.13 381.59 C 554.11 380.88 557.00 381.29 559.99 381.74 Z" fill="#d751a7" />
<path d="M 640.53 380.99 C 643.31 381.20 645.93 381.55 648.46 382.81 C 645.97 383.79 643.81 384.87 641.06 384.23 C 640.86 383.15 640.68 382.07 640.53 380.99 Z" fill="#ed54b0" />
<path d="M 687.82 383.04 C 685.45 383.44 683.28 383.70 680.93 382.93 C 683.26 380.66 685.16 382.43 687.82 383.04 Z" fill="#e051ab" />
<path d="M 419.43 381.17 C 422.17 381.16 424.92 381.15 427.66 381.16 L 427.57 384.71 C 424.88 384.71 422.19 384.72 419.50 384.71 L 419.43 381.17 Z" fill="#88cae5" />
<path d="M 527.54 381.37 L 527.51 383.09 C 524.91 383.60 522.57 383.81 520.01 382.92 C 522.46 382.05 524.96 381.64 527.54 381.37 Z" fill="#e353ac" />
<path d="M 671.38 382.36 C 668.65 383.60 667.01 383.65 664.08 382.87 C 666.54 382.24 668.85 382.15 671.38 382.36 Z" fill="#e252af" />
<path d="M 575.47 382.15 C 578.23 382.64 580.98 383.14 583.73 383.65 C 583.62 386.43 583.55 389.20 583.56 391.98 C 580.85 392.00 578.13 392.01 575.42 392.02 C 575.45 388.73 575.43 385.44 575.47 382.15 Z" fill="#d74ca2" />
<path d="M 595.46 384.04 C 598.18 384.06 600.91 384.07 603.63 384.10 C 603.82 385.59 604.09 387.06 604.35 388.53 C 609.46 388.48 614.57 388.55 619.68 388.68 C 619.67 389.72 619.66 390.76 619.63 391.80 C 611.57 391.85 603.51 391.89 595.45 392.04 C 595.45 389.37 595.46 386.71 595.46 384.04 Z" fill="#d44ca2" />
<path d="M 318.78 386.94 C 316.70 387.73 314.39 387.71 312.18 387.78 C 311.64 387.15 311.12 386.50 310.60 385.85 C 313.19 385.74 316.97 384.51 318.78 386.94 Z" fill="#88d9f7" />
<path d="M 339.42 385.62 L 339.40 387.47 C 336.73 387.67 333.67 387.88 331.12 386.97 C 332.93 384.78 336.87 385.67 339.42 385.62 Z" fill="#8bd9fa" />
<path d="M 355.66 385.50 C 358.23 385.53 360.80 385.54 363.37 385.56 C 363.37 386.17 363.38 386.79 363.38 387.40 C 361.05 387.61 358.71 387.82 356.38 388.06 C 356.14 387.21 355.90 386.36 355.66 385.50 Z" fill="#93daf7" />
<path d="M 375.83 385.43 C 378.38 385.31 380.92 385.31 383.46 385.29 L 383.55 387.74 C 380.92 387.76 378.29 387.76 375.66 387.75 L 375.83 385.43 Z" fill="#7ec4df" />
<path d="M 468.72 385.54 C 470.55 385.79 472.36 386.18 474.15 386.66 C 472.42 387.35 470.69 388.04 468.93 388.65 L 466.51 388.18 C 467.23 387.28 467.97 386.41 468.72 385.54 Z" fill="#f257b8" />
<path d="M 506.79 385.52 L 506.78 387.42 C 504.33 388.16 499.04 390.19 499.30 385.80 C 501.67 384.70 504.28 385.36 506.79 385.52 Z" fill="#e954b2" />
<path d="M 527.10 386.89 C 524.48 387.54 522.47 388.30 519.90 386.93 C 522.33 384.04 524.32 385.88 527.10 386.89 Z" fill="#e150ab" />
<path d="M 642.99 385.07 C 644.86 384.99 646.78 386.07 648.46 386.77 C 645.77 388.08 643.22 388.53 640.26 388.70 C 640.81 386.43 640.27 385.25 642.99 385.07 Z" fill="#ec55b4" />
<path d="M 419.33 385.17 C 422.13 385.14 424.92 385.14 427.71 385.17 L 427.59 388.75 C 424.96 388.75 422.35 388.77 419.73 388.66 L 419.33 385.17 Z" fill="#84cae9" />
<path d="M 532.17 385.70 C 534.49 385.20 537.02 385.25 539.38 385.17 L 538.01 388.35 C 535.76 388.72 533.38 388.64 531.10 388.65 L 532.17 385.70 Z" fill="#e252af" />
<path d="M 375.66 387.75 C 378.29 387.76 380.92 387.76 383.55 387.74 L 383.61 388.50 C 388.87 388.76 394.19 388.48 399.46 388.64 L 399.48 389.45 C 391.61 389.63 383.74 389.49 375.86 389.68 C 375.78 389.03 375.71 388.39 375.66 387.75 Z" fill="#4a97b8" />
<path d="M 506.78 389.59 L 506.79 392.47 C 504.41 392.45 502.13 392.49 499.77 392.18 L 499.22 390.91 C 499.86 388.11 504.81 389.59 506.78 389.59 Z" fill="#dc4fa7" />
<path d="M 527.07 390.95 C 524.52 391.52 522.46 392.07 519.95 390.93 C 522.51 388.49 524.31 389.72 527.07 390.95 Z" fill="#de4fab" />
<path d="M 311.17 389.63 C 320.56 389.52 330.01 389.47 339.40 389.74 L 339.40 391.40 C 336.43 391.71 333.47 392.02 330.50 392.35 C 326.37 392.71 322.20 392.63 318.06 392.49 C 315.48 391.85 311.41 393.35 311.17 389.63 Z" fill="#88d0ed" />
<path d="M 355.83 389.45 C 358.35 389.56 360.87 389.66 363.39 389.77 L 363.39 391.76 C 360.95 391.94 358.50 392.12 356.06 392.32 C 355.98 391.36 355.91 390.41 355.83 389.45 Z" fill="#8bcde7" />
<path d="M 375.86 389.68 C 383.74 389.49 391.61 389.63 399.48 389.45 L 399.41 392.36 C 394.12 392.60 388.81 392.54 383.52 392.59 C 383.50 393.78 383.49 394.97 383.47 396.16 C 380.84 396.16 378.20 396.16 375.57 396.15 C 375.84 395.03 376.11 393.91 376.38 392.79 C 376.20 391.75 376.03 390.72 375.86 389.68 Z" fill="#82c4dd" />
<path d="M 419.55 389.20 C 422.26 389.19 424.96 389.19 427.67 389.20 L 427.60 392.74 C 424.94 392.74 422.28 392.73 419.62 392.72 L 419.55 389.20 Z" fill="#86ccea" />
<path d="M 530.99 389.36 C 533.71 389.29 536.42 389.27 539.13 389.30 L 538.14 392.43 C 536.14 392.72 534.12 392.74 532.13 392.34 L 530.99 389.36 Z" fill="#dd4fa8" />
<path d="M 640.01 389.27 C 642.61 389.49 645.68 388.84 647.70 390.91 C 645.04 392.92 640.55 393.79 640.01 389.27 Z" fill="#e251ad" />
<path d="M 339.40 391.40 C 339.41 392.23 339.42 393.05 339.42 393.88 C 336.96 393.75 334.49 393.64 332.03 393.54 C 332.00 394.32 331.98 395.10 331.95 395.88 C 334.46 395.76 336.91 395.68 339.41 395.41 C 339.40 396.33 339.38 397.26 339.35 398.18 C 336.88 397.95 334.40 397.74 331.93 397.52 C 331.92 398.49 331.90 399.46 331.89 400.44 C 334.33 400.12 336.82 399.85 339.24 399.39 C 339.08 400.92 338.89 402.45 338.75 403.98 C 338.72 403.19 338.68 402.40 338.63 401.62 C 335.91 402.19 331.71 400.57 331.07 404.32 C 331.24 400.29 330.83 396.35 330.50 392.35 C 333.47 392.02 336.43 391.71 339.40 391.40 Z" fill="#5c99b1" />
<path d="M 575.42 392.02 C 578.13 392.01 580.85 392.00 583.56 391.98 C 583.56 394.09 583.57 396.19 583.58 398.30 L 582.94 398.54 C 580.41 398.38 577.88 398.18 575.34 398.03 C 575.33 396.02 575.40 394.02 575.42 392.02 Z" fill="#d54ca4" />
<path d="M 595.45 392.04 C 603.51 391.89 611.57 391.85 619.63 391.80 L 619.60 392.39 C 614.67 392.84 609.60 392.68 604.65 392.64 C 604.30 393.84 603.96 395.03 603.62 396.23 C 601.22 398.38 598.52 398.28 595.47 398.55 C 595.45 396.38 595.44 394.21 595.45 392.04 Z" fill="#d54ca0" />
<path d="M 667.75 392.06 C 673.33 391.80 678.88 391.80 684.45 392.15 C 683.14 392.65 681.83 393.16 680.52 393.66 C 680.44 397.30 680.41 400.94 680.43 404.59 C 677.76 404.65 675.09 404.69 672.41 404.71 C 672.24 400.98 671.81 397.29 671.48 393.57 C 670.24 393.07 668.99 392.56 667.75 392.06 Z" fill="#cd499b" />
<path d="M 319.29 394.27 C 318.51 397.68 318.60 401.10 318.69 404.58 C 316.24 404.60 313.77 404.65 311.32 404.51 C 311.45 402.29 311.52 400.07 311.56 397.84 C 313.93 397.65 316.29 397.41 318.64 397.07 C 316.43 396.47 314.17 396.22 311.89 396.05 C 311.50 395.27 311.12 394.50 310.74 393.72 C 313.84 393.21 316.25 393.40 319.29 394.27 Z" fill="#80c9e2" />
<path d="M 332.03 393.54 C 334.49 393.64 336.96 393.75 339.42 393.88 L 339.41 395.41 C 336.91 395.68 334.46 395.76 331.95 395.88 C 331.98 395.10 332.00 394.32 332.03 393.54 Z" fill="#88d8f7" />
<path d="M 489.35 393.86 C 491.09 393.83 492.90 394.42 494.59 394.79 C 492.28 395.53 489.92 395.78 487.50 395.82 C 488.09 395.13 488.70 394.48 489.35 393.86 Z" fill="#e051ab" />
<path d="M 506.79 393.56 L 506.79 396.52 C 504.78 396.17 497.62 397.87 499.49 393.72 C 501.87 392.65 504.30 393.25 506.79 393.56 Z" fill="#db4fa8" />
<path d="M 538.34 393.50 L 539.09 396.63 C 536.94 396.64 534.79 396.66 532.64 396.60 L 530.91 396.01 C 531.92 392.08 535.26 392.69 538.34 393.50 Z" fill="#dd51ad" />
<path d="M 647.61 394.94 C 645.57 397.13 642.97 396.45 640.28 396.57 L 640.82 393.92 C 642.11 391.76 646.47 393.17 647.61 394.94 Z" fill="#e151a9" />
<path d="M 357.72 393.54 C 359.57 393.27 361.52 393.54 363.39 393.58 L 363.39 396.01 C 360.96 396.06 358.53 396.10 356.09 396.01 C 355.63 394.66 356.44 393.84 357.72 393.54 Z" fill="#8cd0ea" />
<path d="M 419.56 393.19 C 422.26 393.17 424.96 393.17 427.66 393.17 L 427.59 396.71 C 424.91 396.72 422.23 396.73 419.55 396.73 L 419.56 393.19 Z" fill="#85cfed" />
<path d="M 520.02 394.37 C 522.53 393.68 524.72 394.23 527.15 394.89 C 524.78 395.21 521.53 397.19 520.02 394.37 Z" fill="#e251ae" />
<path d="M 603.62 396.23 C 603.82 397.70 604.09 399.18 604.35 400.65 C 610.92 400.56 617.36 400.32 623.86 401.57 C 614.47 402.42 604.96 401.84 595.53 402.00 C 595.51 400.85 595.49 399.70 595.47 398.55 C 598.52 398.28 601.22 398.38 603.62 396.23 Z" fill="#c54798" />
<path d="M 559.47 397.09 C 559.57 398.08 559.58 399.07 559.61 400.07 C 556.73 400.38 553.86 400.59 550.96 400.71 L 552.18 397.73 C 554.52 397.15 557.06 397.16 559.47 397.09 Z" fill="#c64f9e" />
<path d="M 331.93 397.52 C 334.40 397.74 336.88 397.95 339.35 398.18 L 339.24 399.39 C 336.82 399.85 334.33 400.12 331.89 400.44 C 331.90 399.46 331.92 398.49 331.93 397.52 Z" fill="#88d2ed" />
<path d="M 355.47 397.82 C 358.11 397.70 360.76 397.72 363.40 397.75 L 363.41 400.42 C 361.06 400.29 358.61 400.30 356.30 399.82 L 355.47 397.82 Z" fill="#89cfeb" />
<path d="M 375.87 397.51 C 378.40 397.61 380.93 397.71 383.45 397.81 L 383.45 400.04 C 380.92 400.15 378.40 400.27 375.88 400.39 C 375.88 399.43 375.87 398.47 375.87 397.51 Z" fill="#8aceea" />
<path d="M 419.50 397.22 C 422.21 397.23 424.92 397.23 427.63 397.25 L 427.73 400.74 C 424.95 400.74 422.17 400.73 419.39 400.75 L 419.50 397.22 Z" fill="#88cfea" />
<path d="M 499.74 397.62 C 502.11 397.34 504.39 397.45 506.78 397.48 L 506.72 400.48 C 505.47 400.42 504.21 400.33 502.96 400.22 C 501.53 399.94 497.99 399.99 499.74 397.62 Z" fill="#de51ab" />
<path d="M 534.95 397.35 C 537.34 397.34 539.75 397.27 542.12 397.62 L 543.17 400.75 C 539.78 400.04 536.02 401.70 534.95 397.35 Z" fill="#e352ae" />
<path d="M 575.34 398.03 C 577.88 398.18 580.41 398.38 582.94 398.54 C 580.78 399.45 578.78 400.42 576.37 400.46 L 575.34 398.03 Z" fill="#e050ac" />
<path d="M 582.94 398.54 L 583.58 398.30 C 583.57 399.02 583.57 399.74 583.56 400.45 C 586.31 400.68 589.03 401.05 591.75 401.47 C 591.70 402.50 591.65 403.53 591.59 404.55 C 583.55 404.73 575.51 404.70 567.46 404.56 C 567.38 403.52 567.29 402.48 567.21 401.44 C 570.27 400.89 573.26 400.58 576.37 400.46 C 578.78 400.42 580.78 399.45 582.94 398.54 Z" fill="#e753b1" />
<path d="M 640.35 397.28 C 642.30 397.70 647.08 396.66 647.77 399.06 C 645.77 400.91 643.46 400.33 640.95 400.45 L 640.35 397.28 Z" fill="#e352ae" />
<path d="M 347.41 401.52 L 347.59 401.49 C 355.52 402.00 363.62 401.97 371.55 401.59 L 371.28 404.41 C 363.29 404.75 355.24 404.62 347.25 404.23 C 347.29 403.33 347.35 402.42 347.41 401.52 Z" fill="#90d6f1" />
<path d="M 435.64 401.43 C 435.66 402.46 435.67 403.50 435.66 404.54 C 427.81 404.37 419.79 404.99 411.98 404.24 L 411.04 401.61 C 419.21 401.05 427.46 401.22 435.64 401.43 Z" fill="#91d7f0" />
<path d="M 338.63 401.62 C 338.68 402.40 338.72 403.19 338.75 403.98 L 338.73 404.65 C 336.18 404.59 333.62 404.52 331.07 404.32 C 331.71 400.57 335.91 402.19 338.63 401.62 Z" fill="#93d9f3" />
<path d="M 376.04 401.94 C 378.45 401.58 380.99 401.68 383.43 401.68 L 383.34 404.38 C 380.59 404.62 377.85 404.56 375.11 404.39 L 376.04 401.94 Z" fill="#95d9f3" />
<path d="M 502.92 401.56 C 507.96 401.75 512.96 402.02 518.00 401.71 C 520.04 401.90 522.25 400.87 523.25 403.24 C 517.16 404.52 510.40 404.09 504.20 403.74 L 502.92 401.56 Z" fill="#e854b4" />
<path d="M 538.99 401.52 C 544.65 401.42 550.33 401.34 555.99 401.67 C 554.64 403.11 554.25 404.43 552.03 404.30 C 548.17 404.46 544.12 404.63 540.31 403.94 L 538.99 401.52 Z" fill="#e655b4" />
<path d="M 595.53 402.00 C 604.96 401.84 614.47 402.42 623.86 401.57 C 623.77 402.58 623.67 403.59 623.58 404.60 C 614.25 404.70 604.92 404.70 595.59 404.57 L 595.53 402.00 Z" fill="#e554b0" />
<path d="M 640.03 401.43 C 642.43 401.46 644.80 401.47 647.18 401.78 L 647.20 404.15 C 645.23 404.37 643.18 404.47 641.22 404.10 L 640.03 401.43 Z" fill="#ea56b5" />
<path d="M 679.70 402.25 C 677.33 404.61 675.41 404.75 672.41 403.27 C 672.72 400.99 678.08 402.47 679.70 402.25 Z" fill="#e654b2" />
</svg>