<svg width="379" height="129" viewBox="0 0 379 129" fill="none" xmlns="http://www.w3.org/2000/svg">
<g filter="url(#filter0_d)">
<rect x="4" y="4" width="371" height="121" rx="35" fill="#02051F"/>
</g>
<g filter="url(#filter1_d)">
<path d="M125.375 57.0352V66.9766C125.375 69.6589 123.796 71 120.639 71V69.5352C122.592 69.5352 123.568 68.6823 123.568 66.9766V57.0352H125.375ZM133.826 60.7461C136.743 60.7461 138.201 62.1882 138.201 65.0723C138.201 65.4824 138.172 65.9219 138.113 66.3906H130.916C130.916 68.487 132.14 69.5352 134.588 69.5352C135.753 69.5352 136.788 69.4049 137.693 69.1445V70.6094C136.788 70.8698 135.688 71 134.393 71C130.87 71 129.109 69.252 129.109 65.7559C129.109 62.416 130.682 60.7461 133.826 60.7461ZM130.916 64.8867H136.463C136.424 63.0898 135.545 62.1914 133.826 62.1914C132.003 62.1914 131.033 63.0898 130.916 64.8867ZM148.518 62.8359C147.788 62.4844 146.955 62.3086 146.018 62.3086C143.954 62.3086 142.922 63.4056 142.922 65.5996C142.922 68.1973 143.954 69.4961 146.018 69.4961C146.955 69.4961 147.788 69.3691 148.518 69.1152V62.8359ZM150.324 70.3848C149.081 70.7949 147.548 71 145.725 71C142.671 71 141.145 69.2227 141.145 65.668C141.145 62.3867 142.766 60.7461 146.008 60.7461C146.893 60.7461 147.73 60.9089 148.518 61.2344V57.0352H150.324V70.3848ZM156.256 60.7461V71H154.449V60.7461H156.256ZM156.256 57.0352V58.7441H154.449V57.0352H156.256ZM218.998 57.0352V71H217.191V57.0352H218.998ZM224.08 71H222.205L228.133 57.0352H230.135L236.092 71H234.09L232.283 66.6055H227.664L228.162 65.1406H231.678L229.07 58.8125L224.08 71ZM240.412 63.9785C240.412 67.748 242.115 69.6328 245.52 69.6328C248.853 69.6328 250.52 67.748 250.52 63.9785C250.52 60.2611 248.853 58.4023 245.52 58.4023C242.115 58.4023 240.412 60.2611 240.412 63.9785ZM238.508 64.0371C238.508 59.304 240.845 56.9375 245.52 56.9375C250.122 56.9375 252.424 59.304 252.424 64.0371C252.424 68.7441 250.122 71.0977 245.52 71.0977C240.845 71.0977 238.508 68.7441 238.508 64.0371Z" fill="white"/>
<path d="M159.17 57.0352H161.172L165.195 64.3301L169.277 57.0352H171.377L166.045 66.1172V71H164.238V66.1172L159.17 57.0352ZM176.088 60.7461V71H174.281V60.7461H176.088ZM176.088 57.0352V58.7441H174.281V57.0352H176.088ZM184.451 60.7461C187.368 60.7461 188.826 62.1882 188.826 65.0723C188.826 65.4824 188.797 65.9219 188.738 66.3906H181.541C181.541 68.487 182.765 69.5352 185.213 69.5352C186.378 69.5352 187.413 69.4049 188.318 69.1445V70.6094C187.413 70.8698 186.313 71 185.018 71C181.495 71 179.734 69.252 179.734 65.7559C179.734 62.416 181.307 60.7461 184.451 60.7461ZM181.541 64.8867H187.088C187.049 63.0898 186.17 62.1914 184.451 62.1914C182.628 62.1914 181.658 63.0898 181.541 64.8867ZM194.162 57.0352V71H192.355V57.0352H194.162ZM205.084 62.8359C204.355 62.4844 203.521 62.3086 202.584 62.3086C200.52 62.3086 199.488 63.4056 199.488 65.5996C199.488 68.1973 200.52 69.4961 202.584 69.4961C203.521 69.4961 204.355 69.3691 205.084 69.1152V62.8359ZM206.891 70.3848C205.647 70.7949 204.114 71 202.291 71C199.238 71 197.711 69.2227 197.711 65.668C197.711 62.3867 199.332 60.7461 202.574 60.7461C203.46 60.7461 204.296 60.9089 205.084 61.2344V57.0352H206.891V70.3848Z" fill="#4F4FE5"/>
</g>
<defs>
<filter id="filter0_d" x="0" y="0" width="379" height="129" filterUnits="userSpaceOnUse" color-interpolation-filters="sRGB">
<feFlood flood-opacity="0" result="BackgroundImageFix"/>
<feColorMatrix in="SourceAlpha" type="matrix" values="0 0 0 0 0 0 0 0 0 0 0 0 0 0 0 0 0 0 127 0"/>
<feOffset/>
<feGaussianBlur stdDeviation="2"/>
<feColorMatrix type="matrix" values="0 0 0 0 0 0 0 0 0 0 0 0 0 0 0 0 0 0 0.15 0"/>
<feBlend mode="normal" in2="BackgroundImageFix" result="effect1_dropShadow"/>
<feBlend mode="normal" in="SourceGraphic" in2="effect1_dropShadow" result="shape"/>
</filter>
<filter id="filter1_d" x="116.639" y="56.9375" width="139.785" height="22.1602" filterUnits="userSpaceOnUse" color-interpolation-filters="sRGB">
<feFlood flood-opacity="0" result="BackgroundImageFix"/>
<feColorMatrix in="SourceAlpha" type="matrix" values="0 0 0 0 0 0 0 0 0 0 0 0 0 0 0 0 0 0 127 0"/>
<feOffset dy="4"/>
<feGaussianBlur stdDeviation="2"/>
<feColorMatrix type="matrix" values="0 0 0 0 0 0 0 0 0 0 0 0 0 0 0 0 0 0 0.25 0"/>
<feBlend mode="normal" in2="BackgroundImageFix" result="effect1_dropShadow"/>
<feBlend mode="normal" in="SourceGraphic" in2="effect1_dropShadow" result="shape"/>
</filter>
</defs>
</svg>
