<svg id="Layer_1" data-name="Layer 1" xmlns="http://www.w3.org/2000/svg" xmlns:xlink="http://www.w3.org/1999/xlink" viewBox="0 0 900 300"><defs><style>.cls-1{fill:none;}.cls-2{clip-path:url(#clip-path);}.cls-3{clip-path:url(#clip-path-2);}.cls-4,.cls-5,.cls-7{isolation:isolate;}.cls-5{opacity:0.9;fill:url(#radial-gradient);}.cls-6{fill:#fff;}.cls-7{opacity:0.33;}.cls-8{fill:url(#linear-gradient);}.cls-9{opacity:0.67;}</style><clipPath id="clip-path"><rect class="cls-1" x="-5" y="-4.3" width="910" height="310"/></clipPath><clipPath id="clip-path-2"><rect class="cls-1" x="-15.2" y="-115" width="930.4" height="530"/></clipPath><radialGradient id="radial-gradient" cx="517.66" cy="228.95" r="360.73" gradientTransform="matrix(2.18, 0, 0, -1.24, -682.62, 433.44)" gradientUnits="userSpaceOnUse"><stop offset="0.02" stop-color="#5f3066"/><stop offset="0.23" stop-color="#5f3066"/><stop offset="0.41" stop-color="#512957"/><stop offset="0.76" stop-color="#2b172f"/><stop offset="1" stop-color="#0d080f"/></radialGradient><linearGradient id="linear-gradient" x1="503.7" y1="143.1" x2="736.7" y2="143.1" gradientTransform="matrix(1, 0, 0, -1, 0, 302)" gradientUnits="userSpaceOnUse"><stop offset="0" stop-color="#db1d7a"/><stop offset="1" stop-color="#772a81"/></linearGradient></defs><g id="bg"><g class="cls-2"><g class="cls-3"><image class="cls-4" width="1453" height="592" transform="translate(-50 -146)" xlink:href="E63D6BB1/E63D6BB2.png"/></g></g><g class="cls-2"><rect x="-11.4" y="-115" width="930.4" height="530"/></g><g class="cls-2"><rect class="cls-5" x="-19" y="-115" width="930.4" height="530"/></g></g><g id="monke"><image class="cls-4" width="811" height="656" transform="translate(-95.03 -150.64) scale(0.94 0.94)" xlink:href="E63D6BB1/E63D6BB6.png"/><path class="cls-6" d="M172.61,144.56,122.39,79.84v64.53h-18V48.71H119l46.82,59.34V48.61h18v95.86Z"/><path class="cls-6" d="M200.4,144.47V48.9h68.67V66.26H218.39V92.39h47.95v16.7H218.39v35.38Z"/><path class="cls-6" d="M312,65.12H281.69V48.71h78.67V65.12H330v79.35H312Z"/><path class="cls-6" d="M418.86,88.24l25.43-39.53H466v.85L427.9,104.94v39.53h-18V104.94L373.17,49.56v-.85h21.48Z"/><path class="cls-6" d="M122.58,170.88v79.06h49.18v16.7H104.59V170.88Z"/><path class="cls-6" d="M257.77,248.53H207.84l-8.2,18h-19.5L223,170.79h19.69l42.87,95.76H265.87ZM232.8,191l-17.71,40.75h35.52Z"/><path class="cls-6" d="M375.33,198.62c0,7.36-3.58,14.53-12.43,18.49,11.21,3.4,15.26,15.28,15.26,21.32,0,21.32-16,28.21-35.8,28.21H297.05V170.88h45.31C361.3,170.88,375.33,179.28,375.33,198.62Zm-60.48,10.66h27.61c11.3,0,15-4.81,15-10.28,0-4.34-3.58-11.8-15-11.8H314.85Zm0,40.47h27.61c7.34,0,17.9-2.45,17.9-11.51,0-8.58-10.56-13.11-17.9-13.11H314.85Z"/><path class="cls-6" d="M452.77,193.9c-3.3-5.47-12.25-10.66-22.7-10.66-13.38,0-19.79,5.57-19.79,12.74,0,8.3,9.8,10.66,21.29,12.07,20,2.46,38.53,7.65,38.53,30.48C470.1,259.85,451.26,269,430,269c-19.5,0-34.57-6-41.64-23.49l15-7.83c4.24,10.56,15.26,15.19,26.95,15.19,11.3,0,21.94-4,21.94-14.34,0-9.06-9.42-12.74-22.13-14.06-19.5-2.36-37.59-7.55-37.59-29,0-19.72,19.41-27.74,37-27.93,14.89,0,30.34,4.25,37.59,19Z"/><path class="cls-6" d="M172.61,144.56,122.39,79.84v64.53h-18V48.71H119l46.82,59.34V48.61h18v95.86Z"/><path class="cls-6" d="M183.82,48.61v95.86l-11.21.09L122.39,79.84v64.53h-18V48.71H119l46.82,59.34V48.61h18m.94-.94H164.88v57.74L119.76,48.14l-.29-.37h-16v97.64h19.88V82.67L172,145.22l.28.38h.47l11.21-.1h.94V47.67Z"/><path class="cls-6" d="M200.4,144.47V48.9h68.67V66.26H218.39V92.39h47.95v16.7H218.39v35.38Z"/><path class="cls-6" d="M269.07,48.9V66.26H218.39V92.39h47.95v16.7H218.39v35.38h-18V48.9h68.67M270,48H199.45v97.46h19.88V110h47.95V91.45H219.33V67.2H270V48Z"/><path class="cls-6" d="M312,65.12H281.69V48.71h78.67V65.12H330v79.35H312Z"/><path class="cls-6" d="M360.36,48.71V65.12H330v79.35H312V65.12H281.69V48.71h78.67m.94-.94H280.75v18.3h30.34v79.34H331V66.07H361.3V47.77Z"/><path class="cls-6" d="M418.86,88.24l25.43-39.53H466v.85L427.9,104.94v39.53h-18V104.94L373.17,49.56v-.85h21.48Z"/><path class="cls-6" d="M466,48.71v.85L427.9,104.94v39.53h-18V104.94L373.17,49.56v-.85h21.48L419,88.24l25.44-39.53H466m.94-.94H443.82l-.28.47L419,86.54,395.4,48.33l-.28-.47H372.23v2.08l.18.28L409,105.31V145.5h19.87V105.22l38-55.1.19-.28V47.77Z"/><path class="cls-6" d="M122.58,170.88v79.06h49.18v16.7H104.59V170.88Z"/><path class="cls-6" d="M122.58,170.88v79.06h49.18v16.7H104.59V170.88h18m.94-.94H103.65v97.64h69V249H123.52V169.94Z"/><path class="cls-6" d="M257.77,248.53H207.84l-8.2,18h-19.5L223,170.79h19.69l42.87,95.76H265.87ZM232.8,191l-17.71,40.75h35.52Z"/><path class="cls-6" d="M242.6,170.88l43,95.67H265.87l-8-18H207.93l-8.19,18h-19.5l42.86-95.76h19.5m-27.51,60.94h35.52L232.8,191l-17.71,40.75m28.17-61.79H222.44l-.28.57-42.87,95.75-.56,1.32h21.48l.28-.56,7.91-17.46h48.8L265,267l.28.56H287l-.57-1.32-42.86-95.75-.28-.57ZM216.5,230.79l16.3-37.45,16.3,37.45Z"/><path class="cls-6" d="M375.33,198.62c0,7.36-3.58,14.53-12.43,18.49,11.21,3.4,15.26,15.28,15.26,21.32,0,21.32-16,28.21-35.8,28.21H297.05V170.88h45.31C361.3,170.88,375.33,179.28,375.33,198.62Zm-60.48,10.66h27.61c11.3,0,15-4.81,15-10.28,0-4.34-3.58-11.8-15-11.8H314.85Zm0,40.47h27.61c7.34,0,17.9-2.45,17.9-11.51,0-8.58-10.56-13.11-17.9-13.11H314.85Z"/><path class="cls-6" d="M342.46,170.88c18.84,0,32.87,8.49,32.87,27.74,0,7.36-3.58,14.53-12.43,18.49,11.21,3.4,15.26,15.28,15.26,21.32,0,21.32-16,28.21-35.8,28.21H297.05V170.88h45.41m-27.61,38.4h27.61c11.3,0,15-4.81,15-10.28,0-4.34-3.58-11.8-15-11.8H314.85v22.08m0,40.47h27.61c7.34,0,17.9-2.45,17.9-11.51,0-8.58-10.56-13.11-17.9-13.11H314.85v24.62m27.61-79.81H296.2v97.64h46.26c24,0,36.74-10.09,36.74-29.15,0-5.28-3.49-17-13.85-21.51a20.22,20.22,0,0,0,11-18.3c-.09-18.3-12.43-28.68-33.91-28.68ZM315.8,188.15h26.66c11.11,0,14,7.07,14,10.85,0,6.13-4.9,9.34-14,9.34H315.8V188.15Zm0,37.92h26.66c7.06,0,17,4.25,17,12.17,0,10-14.13,10.57-17,10.57H315.8V226.07Z"/><path class="cls-6" d="M452.77,193.9c-3.3-5.47-12.25-10.66-22.7-10.66-13.38,0-19.79,5.57-19.79,12.74,0,8.3,9.8,10.66,21.29,12.07,20,2.46,38.53,7.65,38.53,30.48C470.1,259.85,451.26,269,430,269c-19.5,0-34.57-6-41.64-23.49l15-7.83c4.24,10.56,15.26,15.19,26.95,15.19,11.3,0,21.94-4,21.94-14.34,0-9.06-9.42-12.74-22.13-14.06-19.5-2.36-37.59-7.55-37.59-29,0-19.72,19.41-27.74,37-27.93,14.89,0,30.34,4.25,37.59,19Z"/><path class="cls-6" d="M429.6,167.58c14.88,0,30.33,4.25,37.58,19l-14.32,7.36c-3.29-5.47-12.24-10.66-22.7-10.66-13.38,0-19.78,5.57-19.78,12.74,0,8.3,9.8,10.66,21.29,12.07,20,2.46,38.53,7.65,38.53,30.48,0,21.32-18.84,30.47-40.13,30.47-19.5,0-34.58-6-41.64-23.49l15-7.83c4.24,10.56,15.26,15.19,26.94,15.19,11.3,0,21.95-4,21.95-14.34,0-9.06-9.42-12.74-22.14-14.06-19.5-2.36-37.59-7.55-37.59-29,0-19.72,19.41-27.84,37-27.93m0-.94h0c-18.94.19-38,9.15-38,28.87,0,10.18,3.86,17.54,11.87,22.45,7.63,4.72,18.18,6.41,26.47,7.45,14.32,1.51,21.29,5.85,21.29,13.12,0,12.45-16.11,13.39-21,13.39-12.63,0-22.33-5.47-26-14.62l-.37-.94-.94.47-15,7.83-.76.38.29.75c6.59,16.23,20.44,24.15,42.48,24.15,19.88,0,41.08-8.3,41.08-31.41,0-23.31-18.94-28.87-39.29-31.42-12.24-1.42-20.44-3.87-20.44-11.13s7.25-11.8,18.84-11.8c10.27,0,18.94,5.29,21.86,10.19l.47.76.75-.38,14.32-7.36.85-.37-.38-.85c-6.31-12.83-19.59-19.53-38.43-19.53Z"/></g><g id="logo"><image class="cls-7" width="506" height="505" transform="translate(387.2 -73.73) scale(0.92)" xlink:href="E63D6BB1/E63D6BB1.png"/><path class="cls-8" d="M736.7,159a116,116,0,0,1-23,69.53,19.09,19.09,0,0,1-1.29,1.66A104.32,104.32,0,0,1,702,241.88l-.73.73a117.45,117.45,0,0,1-20.72,15.94c-.1.09-.28.09-.37.18a122.92,122.92,0,0,1-15.93,8c-.19.09-.47.19-.65.28a111.82,111.82,0,0,1-21.37,6.26c-1,.18-1.93.37-2.94.46a117.87,117.87,0,0,1-19.07,1.57h-.27a116.14,116.14,0,0,1-80.77-32.79,5.74,5.74,0,0,1-.74-.74A138.52,138.52,0,0,1,528,230.09c-.46-.55-.83-1.11-1.29-1.66a116.24,116.24,0,0,1,.46-139.52L528,87.8a114,114,0,0,1,11-12.25l.27-.27A113,113,0,0,1,560,59.34c.37-.18.65-.36,1-.55a121.16,121.16,0,0,1,15.93-7.92c.09-.09.28-.09.46-.18a116.47,116.47,0,0,1,22-6.27c1.29-.27,2.49-.46,3.78-.64a116.89,116.89,0,0,1,17.13-1.29h2.21a115.53,115.53,0,0,1,78.74,32.79l.27.27a115,115,0,0,1,11,12.25l.83,1.11A115.91,115.91,0,0,1,736.7,159Z"/><path class="cls-6" d="M620.3,278.71h-.19A119.59,119.59,0,0,1,537,245l-.28-.28a4.29,4.29,0,0,1-.64-.64,116.55,116.55,0,0,1-10.59-12,20.11,20.11,0,0,1-1.29-1.75,119.53,119.53,0,0,1,.37-143.3l.55-.82.28-.37a113.74,113.74,0,0,1,11.32-12.62L537,73a122.38,122.38,0,0,1,21.27-16.48l.28-.18a3.88,3.88,0,0,1,.83-.47,112.18,112.18,0,0,1,16.3-8c.09-.09.28-.09.37-.18h.09a117.84,117.84,0,0,1,22.66-6.45c1.19-.27,2.57-.46,4-.64a123.35,123.35,0,0,1,17.59-1.29h2.39A118.89,118.89,0,0,1,703.55,73l.28.28a131.88,131.88,0,0,1,11.23,12.53l.28.36c.18.28.46.56.64.83a119.67,119.67,0,0,1,.37,143.39,20.11,20.11,0,0,1-1.29,1.75A123.51,123.51,0,0,1,704.56,244l-.64.65-.19.18a116.33,116.33,0,0,1-21.27,16.4c-.09.09-.18.09-.28.18a119.39,119.39,0,0,1-16.39,8.2,1.32,1.32,0,0,1-.55.18l-.09.09A112,112,0,0,1,643,276.32l-3,.55A101.84,101.84,0,0,1,620.3,278.71ZM578.21,53.91h0a111.48,111.48,0,0,0-15.57,7.64l-.18.1c-.18.09-.28.18-.46.27l-.28.19a112.13,112.13,0,0,0-20.07,15.47l-.28.28a106,106,0,0,0-10.59,11.88l-.28.36c-.09.19-.27.37-.37.56l-.18.18a112.9,112.9,0,0,0-.46,135.56,9.87,9.87,0,0,0,1.2,1.57,106.28,106.28,0,0,0,10.13,11.42l.18.18.28.28.27.28A112.28,112.28,0,0,0,620,271.9h.18a112.44,112.44,0,0,0,18.51-1.57c1-.18,1.94-.27,2.86-.46a109.22,109.22,0,0,0,20.81-6.08.68.68,0,0,0,.37-.18l.28-.09a110,110,0,0,0,15.47-7.74c.09-.09.18-.09.28-.18A117.72,117.72,0,0,0,699,240l.27-.27.28-.28.18-.18a106.28,106.28,0,0,0,10.13-11.42,18.21,18.21,0,0,0,1.2-1.57,112.86,112.86,0,0,0-.37-135.65l-.18-.19c-.09-.18-.28-.37-.37-.55l-.28-.46a105.15,105.15,0,0,0-10.49-11.79l-.28-.28A112.26,112.26,0,0,0,622.6,45.62h-2.12a111.83,111.83,0,0,0-16.67,1.29l-3.68.55a111.62,111.62,0,0,0-21.37,6.08C578.48,53.82,578.39,53.91,578.21,53.91Z"/><path class="cls-6" d="M659.71,158.44,713.22,89l-.83-1.11a113.89,113.89,0,0,0-11-12.24l-21.64,28.18a6.85,6.85,0,0,1-10.78,0L622.32,42.68h-2.21A118.5,118.5,0,0,0,603,44l55.35,72.67a12.3,12.3,0,0,1-9.76,19.8,12.16,12.16,0,0,1-9.76-4.79L577.47,52a6.14,6.14,0,0,1-.64-.92A107.06,107.06,0,0,0,560.89,59L603,113.59a13.15,13.15,0,0,1-.27,16.48c-.1.19-.37.37-.46.56a13.28,13.28,0,0,1-21,0L539,75.74A114,114,0,0,0,528,88l-.83,1.1,53.5,69.44-54,70.08a19.09,19.09,0,0,0,1.29,1.66,104.34,104.34,0,0,0,10.4,11.7l22.75-29.47a6.74,6.74,0,0,1,10.68,0l47.52,62a5.73,5.73,0,0,1,.65,1h.28a119.55,119.55,0,0,0,19.06-1.56L582.44,199.6a12,12,0,0,1,0-14.55,12,12,0,0,1,18.88,0l1.11,1.39h0l61.24,79.47a6.43,6.43,0,0,1,.65,1,112.53,112.53,0,0,0,15.93-8l-42.73-55.44a13.15,13.15,0,0,1,.27-16.48,2.54,2.54,0,0,1,.46-.55,13,13,0,0,1,10.5-5.16,13.37,13.37,0,0,1,10.5,5.16L702.08,242a140.22,140.22,0,0,0,10.4-11.7c.46-.55.83-1.1,1.29-1.66Zm-26.43,5.8-8.84,11.51a5.25,5.25,0,0,1-8.29,0l-8.84-11.51a9.27,9.27,0,0,1,0-11.51l8.84-11.51a5.25,5.25,0,0,1,8.29,0l8.84,11.51A9.27,9.27,0,0,1,633.28,164.24Z"/><g class="cls-9"><image class="cls-4" width="312" height="311" transform="translate(476.54 15.6) scale(0.92)" xlink:href="E63D6BB1/E63D6BB3.png"/></g></g></svg>