<svg id="Layer_1" data-name="Layer 1" xmlns="http://www.w3.org/2000/svg" xmlns:xlink="http://www.w3.org/1999/xlink" viewBox="0 0 900 300"><defs><style>.cls-1{fill:none;}.cls-2{clip-path:url(#clip-path);}.cls-3{clip-path:url(#clip-path-2);}.cls-10,.cls-12,.cls-4,.cls-5,.cls-6{isolation:isolate;}.cls-5{opacity:0.9;fill:url(#radial-gradient);}.cls-6{opacity:0.55;}.cls-7{fill:url(#linear-gradient);}.cls-8{fill:#fff;}.cls-9{opacity:0.67;}.cls-10{opacity:0.5;}.cls-11,.cls-12{fill:#f3ba2f;}.cls-12{font-size:46px;font-family:Poppins-Bold, Poppins;font-weight:700;}</style><clipPath id="clip-path"><rect class="cls-1" x="-5" y="-4.3" width="910" height="310"/></clipPath><clipPath id="clip-path-2"><rect class="cls-1" x="-15.2" y="-115" width="930.4" height="530"/></clipPath><radialGradient id="radial-gradient" cx="517.66" cy="228.95" r="360.73" gradientTransform="matrix(2.18, 0, 0, -1.24, -682.62, 433.44)" gradientUnits="userSpaceOnUse"><stop offset="0.02" stop-color="#5f3066"/><stop offset="0.23" stop-color="#5f3066"/><stop offset="0.41" stop-color="#512957"/><stop offset="0.76" stop-color="#2b172f"/><stop offset="1" stop-color="#0d080f"/></radialGradient><linearGradient id="linear-gradient" x1="120.29" y1="151.65" x2="295.89" y2="151.65" gradientTransform="matrix(1, 0, 0, -1, 469.21, 302)" gradientUnits="userSpaceOnUse"><stop offset="0" stop-color="#db1d7a"/><stop offset="1" stop-color="#772a81"/></linearGradient></defs><g id="bg"><g class="cls-2"><g class="cls-3"><image class="cls-4" width="1453" height="592" transform="translate(-50 -146)" xlink:href="IAO_008_banner_on_IAO_page_SVG_BNB_AS_-_1/584D61D8.png"/></g></g><g class="cls-2"><rect x="-11.4" y="-115" width="930.4" height="530"/></g><g class="cls-2"><rect class="cls-5" x="-19" y="-115" width="930.4" height="530"/></g></g><g id="logo"><image class="cls-6" width="554" height="553" transform="translate(400.37 -125.75)" xlink:href="IAO_008_banner_on_IAO_page_SVG_BNB_AS_-_1/584D61D9.png"/><path class="cls-7" d="M765.1,150.3a87.23,87.23,0,0,1-17.4,52.4c-.3.4-.6.9-.9,1.3a81.74,81.74,0,0,1-7.8,8.8l-.6.6a91.16,91.16,0,0,1-15.6,12c-.1.1-.2.1-.3.2a84,84,0,0,1-12,6c-.2.1-.3.1-.5.2a80.5,80.5,0,0,1-16.1,4.7,17,17,0,0,1-2.2.4,85.67,85.67,0,0,1-14.4,1.2h-.2a87.84,87.84,0,0,1-60.9-24.7l-.6-.6a92.59,92.59,0,0,1-7.8-8.8,14.63,14.63,0,0,1-.9-1.3,87.6,87.6,0,0,1,.3-105.2,5.55,5.55,0,0,1,.6-.8,80.31,80.31,0,0,1,8.2-9.2l.2-.2a83,83,0,0,1,15.6-12,5.74,5.74,0,0,1,.7-.4,78.51,78.51,0,0,1,12-5.9.37.37,0,0,1,.3-.1,90.72,90.72,0,0,1,16.6-4.8c.9-.2,1.9-.3,2.8-.5a91,91,0,0,1,12.9-1h1.7a87.44,87.44,0,0,1,59.4,24.7l.2.2a79.3,79.3,0,0,1,8.2,9.2,5.55,5.55,0,0,0,.6.8A85.64,85.64,0,0,1,765.1,150.3Z"/><path class="cls-8" d="M677.3,240.6h-.1a90.31,90.31,0,0,1-62.7-25.4l-.2-.2-.5-.5a95.49,95.49,0,0,1-8-9,17,17,0,0,1-1-1.4,90.3,90.3,0,0,1,.4-108.2c.1-.2.3-.4.4-.6l.2-.2a97.16,97.16,0,0,1,8.5-9.6l.2-.2a87.47,87.47,0,0,1,16.1-12.4l.2-.1a2.09,2.09,0,0,0,.6-.4,93.88,93.88,0,0,1,12.3-6.1c.1,0,.2-.1.3-.1h.1a90.55,90.55,0,0,1,17.1-4.9c.9-.2,1.9-.3,3-.5a83.29,83.29,0,0,1,13.3-1h1.8a89.48,89.48,0,0,1,61,25.4l.2.2a76.08,76.08,0,0,1,8.4,9.5l.2.3c.2.2.3.4.5.6a90.1,90.1,0,0,1,.3,108.2c-.3.4-.6.9-1,1.4a110.59,110.59,0,0,1-7.9,9c-.1.2-.3.3-.5.5l-.2.2a94.74,94.74,0,0,1-16.1,12.4c-.1,0-.1.1-.2.1a79.74,79.74,0,0,1-12.4,6.2c-.1.1-.3.1-.4.2h-.1a91,91,0,0,1-16.7,4.9,15.72,15.72,0,0,1-2.3.4A81.44,81.44,0,0,1,677.3,240.6ZM645.6,71h0a86.21,86.21,0,0,0-11.8,5.8l-.2.1c-.1.1-.2.1-.3.2l-.2.1A84.82,84.82,0,0,0,618,88.9l-.2.2a75.71,75.71,0,0,0-8,9l-.2.3c-.1.1-.2.3-.3.4l-.1.2a85.1,85.1,0,0,0-.3,102.2l.9,1.2a88.19,88.19,0,0,0,7.6,8.6l.1.1.2.2.2.2a84.87,84.87,0,0,0,59.2,24h.2a79.83,79.83,0,0,0,13.9-1.2,13,13,0,0,0,2.1-.4,78.48,78.48,0,0,0,15.7-4.6c.1,0,.2-.1.3-.1l.2-.1a73.88,73.88,0,0,0,11.6-5.8c.1,0,.1-.1.2-.1a86.76,86.76,0,0,0,15.3-11.8l.2-.2c.1-.1.2-.1.2-.2l.1-.1a76.69,76.69,0,0,0,7.6-8.6l.9-1.2a85.25,85.25,0,0,0-.3-102.3l-.1-.2c-.1-.1-.2-.3-.3-.4l-.2-.3a83.5,83.5,0,0,0-8-8.9l-.2-.2a85,85,0,0,0-57.7-24h-1.6a89,89,0,0,0-12.6.9c-1,.1-1.9.3-2.8.4a89.72,89.72,0,0,0-16.1,4.6C645.8,71,645.7,71,645.6,71Z"/><path class="cls-8" d="M707.1,149.9l40.4-52.4a5.55,5.55,0,0,0-.6-.8,80.31,80.31,0,0,0-8.2-9.2l-16.3,21.2a5.18,5.18,0,0,1-8.1,0L679,62.5h-1.7a78.35,78.35,0,0,0-12.9,1l41.8,54.8a9.16,9.16,0,0,1,0,11.3,9.3,9.3,0,0,1-14.7,0L645.2,69.5c-.2-.2-.3-.5-.5-.7a95.45,95.45,0,0,0-12,5.9l31.7,41.2a10.07,10.07,0,0,1-.2,12.5c-.1.2-.3.3-.4.4a10,10,0,0,1-15.8,0L616,87.4a79.3,79.3,0,0,0-8.2,9.2,5.55,5.55,0,0,1-.6.8l40.4,52.4-40.7,52.9c.3.4.6.9.9,1.3a81.74,81.74,0,0,0,7.8,8.8l17.1-22.2a5.18,5.18,0,0,1,8.1,0l35.8,46.8a3.51,3.51,0,0,1,.5.8h.2a85.67,85.67,0,0,0,14.4-1.2l-43-56.1a9,9,0,1,1,14.2-11l.8,1h0l46.2,59.9a3.51,3.51,0,0,1,.5.8,84,84,0,0,0,12-6l-32.2-41.8a10.07,10.07,0,0,1,.2-12.5,1.38,1.38,0,0,1,.3-.4,10.05,10.05,0,0,1,15.9,0l32.3,41.9a92.59,92.59,0,0,0,7.8-8.8,14.63,14.63,0,0,0,.9-1.3Zm-20,4.3-6.7,8.7a4,4,0,0,1-6.2,0l-6.7-8.7a7.06,7.06,0,0,1,0-8.7l6.7-8.7a4,4,0,0,1,6.2,0l6.7,8.7A7.06,7.06,0,0,1,687.1,154.2Z"/><g class="cls-9"><image class="cls-4" width="240" height="239" transform="translate(557.37 31.25)" xlink:href="IAO_008_banner_on_IAO_page_SVG_BNB_AS_-_1/584D61DF.png"/></g></g><g id="currency_logo" data-name="currency logo"><image class="cls-10" width="121" height="120" transform="translate(687.98 161.25)" xlink:href="IAO_008_banner_on_IAO_page_SVG_BNB_AS_-_1/584D61DA.png"/><circle class="cls-8" cx="748.2" cy="221.2" r="29.5"/><circle class="cls-11" cx="748.2" cy="221.2" r="25.5"/><g id="Layer_2" data-name="Layer 2"><g id="Layer_1-2" data-name="Layer 1-2"><path class="cls-8" d="M740.6,218l7.6-7.6,7.6,7.6,4.4-4.4-12-12-12,12,4.4,4.4m-12,3.2,4.4-4.4,4.4,4.4-4.4,4.4Zm12,3.1,7.6,7.6,7.6-7.6,4.4,4.4h0l-12,12-12-12h0l4.4-4.4m18.3-3.1,4.4-4.4,4.4,4.4-4.4,4.4Z"/><path class="cls-8" d="M752.6,221.2h0l-4.5-4.5-3.3,3.3h0l-.4.4-.8.8h0l4.5,4.5,4.5-4.5h0"/></g></g></g><g id="text"><image class="cls-4" width="835" height="550" transform="translate(-68 -112)" xlink:href="IAO_008_banner_on_IAO_page_SVG_BNB_AS_-_1/584D61DB.png"/><path class="cls-8" d="M178.2,150l-26.3-33.9v33.8h-9.4V99.8h7.7l24.6,31.1V99.8h9.5V150Z"/><path class="cls-8" d="M192.7,149.9v-50h36V109H202.1v13.7h25.1v8.7H202.1v18.5Z"/><path class="cls-8" d="M251.3,108.4H235.4V99.8h41.2v8.6H260.7v41.5h-9.4Z"/><path class="cls-8" d="M307.3,120.5l13.3-20.7H332v.4l-20,29v20.7h-9.4V129.2l-19.3-29v-.4h11.2Z"/><path class="cls-8" d="M373.2,99.9v41.5h25.9v8.8H363.8V99.9Z"/><path class="cls-8" d="M444.3,140.7H418l-4.3,9.5H403.4L426,99.9h10.3l22.6,50.3H448.6Zm-13.1-30.2-9.3,21.4h18.7Z"/><path class="cls-8" d="M506.2,114.5a10.29,10.29,0,0,1-6.5,9.7c5.9,1.8,8,8,8,11.2,0,11.2-8.4,14.8-18.8,14.8H465.1V99.9h23.8C498.8,99.9,506.2,104.4,506.2,114.5Zm-31.8,5.6h14.5c6,0,7.9-2.5,7.9-5.4,0-2.3-1.9-6.2-7.9-6.2H474.4Zm0,21.3h14.5c3.9,0,9.4-1.3,9.4-6,0-4.5-5.5-6.9-9.4-6.9H474.4Z"/><path class="cls-8" d="M546.9,112.1c-1.7-2.9-6.5-5.6-11.9-5.6-7,0-10.4,2.9-10.4,6.7,0,4.4,5.2,5.6,11.2,6.3,10.5,1.3,20.3,4,20.3,16,0,11.2-9.9,16-21.1,16-10.3,0-18.2-3.2-21.9-12.4L521,135c2.2,5.5,8,8,14.2,8,6,0,11.6-2.1,11.6-7.5,0-4.7-5-6.7-11.6-7.4-10.3-1.2-19.8-4-19.8-15.2,0-10.3,10.2-14.6,19.5-14.7,7.8,0,15.9,2.2,19.8,10Z"/><text class="cls-12" transform="translate(186.87 200.19)">BNB OFFERING</text></g></svg>