<svg id="Layer_1" data-name="Layer 1" xmlns="http://www.w3.org/2000/svg" xmlns:xlink="http://www.w3.org/1999/xlink" viewBox="0 0 900 300"><defs><style>.cls-1{fill:none;}.cls-2{clip-path:url(#clip-path);}.cls-3{clip-path:url(#clip-path-2);}.cls-4,.cls-5,.cls-7{isolation:isolate;}.cls-5{opacity:0.9;fill:url(#radial-gradient);}.cls-6{fill:#fff;}.cls-7{opacity:0.33;}.cls-8{fill:url(#linear-gradient);}.cls-9{opacity:0.67;}</style><clipPath id="clip-path"><rect class="cls-1" x="-5" y="-4.3" width="910" height="310"/></clipPath><clipPath id="clip-path-2"><rect class="cls-1" x="-15.2" y="-115" width="930.4" height="530"/></clipPath><radialGradient id="radial-gradient" cx="517.66" cy="228.95" r="360.73" gradientTransform="matrix(2.18, 0, 0, -1.24, -682.62, 433.44)" gradientUnits="userSpaceOnUse"><stop offset="0.02" stop-color="#5f3066"/><stop offset="0.23" stop-color="#5f3066"/><stop offset="0.41" stop-color="#512957"/><stop offset="0.76" stop-color="#2b172f"/><stop offset="1" stop-color="#0d080f"/></radialGradient><linearGradient id="linear-gradient" x1="98.5" y1="151.4" x2="351.5" y2="151.4" gradientTransform="matrix(1, 0, 0, -1, 0, 302)" gradientUnits="userSpaceOnUse"><stop offset="0" stop-color="#db1d7a"/><stop offset="1" stop-color="#772a81"/></linearGradient></defs><g id="bg"><g class="cls-2"><g class="cls-3"><image class="cls-4" width="1453" height="592" transform="translate(-50 -146)" xlink:href="E63D6BB1/E63D6BB2.png"/></g></g><g class="cls-2"><rect x="-11.4" y="-115" width="930.4" height="530"/></g><g class="cls-2"><rect class="cls-5" x="-19" y="-115" width="930.4" height="530"/></g></g><g id="monke"><image class="cls-4" width="811" height="656" transform="translate(199 -178)" xlink:href="E63D6BB1/E63D6BB6.png"/><path class="cls-6" d="M483.1,134.9,429.8,66.3v68.4H410.7V33.3h15.5l49.7,62.9v-63H495V134.8Z"/><path class="cls-6" d="M512.6,134.8V33.5h72.9V51.9H531.7V79.6h50.9V97.3H531.7v37.5Z"/><path class="cls-6" d="M631.1,50.7H598.9V33.3h83.5V50.7H650.2v84.1H631.1Z"/><path class="cls-6" d="M744.5,75.2l27-41.9h23v.9L754.1,92.9v41.9H735V92.9L696,34.2v-.9h22.8Z"/><path class="cls-6" d="M430,162.8v83.8h52.2v17.7H410.9V162.8Z"/><path class="cls-6" d="M573.5,245.1h-53l-8.7,19.1H491.1l45.5-101.5h20.9L603,264.2H582.1Zm-26.5-61-18.8,43.2h37.7Z"/><path class="cls-6" d="M698.3,192.2c0,7.8-3.8,15.4-13.2,19.6,11.9,3.6,16.2,16.2,16.2,22.6,0,22.6-17,29.9-38,29.9H615.2V162.8h48.1C683.4,162.8,698.3,171.7,698.3,192.2Zm-64.2,11.3h29.3c12,0,15.9-5.1,15.9-10.9,0-4.6-3.8-12.5-15.9-12.5H634.1Zm0,42.9h29.3c7.8,0,19-2.6,19-12.2,0-9.1-11.2-13.9-19-13.9H634.1Z"/><path class="cls-6" d="M780.5,187.2c-3.5-5.8-13-11.3-24.1-11.3-14.2,0-21,5.9-21,13.5,0,8.8,10.4,11.3,22.6,12.8,21.2,2.6,40.9,8.1,40.9,32.3,0,22.6-20,32.3-42.6,32.3-20.7,0-36.7-6.4-44.2-24.9l15.9-8.3c4.5,11.2,16.2,16.1,28.6,16.1,12,0,23.3-4.2,23.3-15.2,0-9.6-10-13.5-23.5-14.9-20.7-2.5-39.9-8-39.9-30.7,0-20.9,20.6-29.4,39.3-29.6,15.8,0,32.2,4.5,39.9,20.1Z"/><path class="cls-6" d="M483.1,134.9,429.8,66.3v68.4H410.7V33.3h15.5l49.7,62.9v-63H495V134.8Z"/><path class="cls-6" d="M495,33.2V134.8l-11.9.1L429.8,66.3v68.4H410.7V33.3h15.5l49.7,62.9v-63H495m1-1H474.9V93.4L427,32.7l-.3-.4h-17V135.8h21.1V69.3l51.6,66.3.3.4h.5l11.9-.1h1V32.2Z"/><path class="cls-6" d="M512.6,134.8V33.5h72.9V51.9H531.7V79.6h50.9V97.3H531.7v37.5Z"/><path class="cls-6" d="M585.5,33.5V51.9H531.7V79.6h50.9V97.3H531.7v37.5H512.6V33.5h72.9m1-1H511.6V135.8h21.1V98.3h50.9V78.6H532.7V52.9h53.8V32.5Z"/><path class="cls-6" d="M631.1,50.7H598.9V33.3h83.5V50.7H650.2v84.1H631.1Z"/><path class="cls-6" d="M682.4,33.3V50.7H650.2v84.1H631.1V50.7H598.9V33.3h83.5m1-1H597.9V51.7h32.2v84.1h21.1V51.7h32.2V32.3Z"/><path class="cls-6" d="M744.5,75.2l27-41.9h23v.9L754.1,92.9v41.9H735V92.9L696,34.2v-.9h22.8Z"/><path class="cls-6" d="M794.5,33.3v.9L754.1,92.9v41.9H735V92.9L696,34.2v-.9h22.8l25.8,41.9,27-41.9h22.9m1-1H771l-.3.5L744.6,73.4l-25-40.5-.3-.5H695v2.2l.2.3L734,93.3v42.6h21.1V93.2l40.3-58.4.2-.3V32.3Z"/><path class="cls-6" d="M430,162.8v83.8h52.2v17.7H410.9V162.8Z"/><path class="cls-6" d="M430,162.8v83.8h52.2v17.7H410.9V162.8H430m1-1H409.9V265.3h73.3V245.6H431V161.8Z"/><path class="cls-6" d="M573.5,245.1h-53l-8.7,19.1H491.1l45.5-101.5h20.9L603,264.2H582.1Zm-26.5-61-18.8,43.2h37.7Z"/><path class="cls-6" d="M557.4,162.8,603,264.2H582.1l-8.5-19.1h-53l-8.7,19.1H491.2l45.5-101.5h20.7m-29.2,64.6h37.7L547,184.1l-18.8,43.2m29.9-65.5H536l-.3.6L490.2,263.9l-.6,1.4h22.8l.3-.6,8.4-18.5h51.8l8.3,18.5.3.6h23l-.6-1.4L558.4,162.4l-.3-.6Zm-28.4,64.5L547,186.6l17.3,39.7Z"/><path class="cls-6" d="M698.3,192.2c0,7.8-3.8,15.4-13.2,19.6,11.9,3.6,16.2,16.2,16.2,22.6,0,22.6-17,29.9-38,29.9H615.2V162.8h48.1C683.4,162.8,698.3,171.7,698.3,192.2Zm-64.2,11.3h29.3c12,0,15.9-5.1,15.9-10.9,0-4.6-3.8-12.5-15.9-12.5H634.1Zm0,42.9h29.3c7.8,0,19-2.6,19-12.2,0-9.1-11.2-13.9-19-13.9H634.1Z"/><path class="cls-6" d="M663.4,162.8c20,0,34.9,9,34.9,29.4,0,7.8-3.8,15.4-13.2,19.6,11.9,3.6,16.2,16.2,16.2,22.6,0,22.6-17,29.9-38,29.9H615.2V162.8h48.2m-29.3,40.7h29.3c12,0,15.9-5.1,15.9-10.9,0-4.6-3.8-12.5-15.9-12.5H634.1v23.4m0,42.9h29.3c7.8,0,19-2.6,19-12.2,0-9.1-11.2-13.9-19-13.9H634.1v26.1m29.3-84.6H614.3V265.3h49.1c25.5,0,39-10.7,39-30.9,0-5.6-3.7-18-14.7-22.8,7.5-4.1,11.7-11,11.7-19.4-.1-19.4-13.2-30.4-36-30.4Zm-28.3,19.3h28.3c11.8,0,14.9,7.5,14.9,11.5,0,6.5-5.2,9.9-14.9,9.9H635.1V181.1Zm0,40.2h28.3c7.5,0,18,4.5,18,12.9,0,10.6-15,11.2-18,11.2H635.1V221.3Z"/><path class="cls-6" d="M780.5,187.2c-3.5-5.8-13-11.3-24.1-11.3-14.2,0-21,5.9-21,13.5,0,8.8,10.4,11.3,22.6,12.8,21.2,2.6,40.9,8.1,40.9,32.3,0,22.6-20,32.3-42.6,32.3-20.7,0-36.7-6.4-44.2-24.9l15.9-8.3c4.5,11.2,16.2,16.1,28.6,16.1,12,0,23.3-4.2,23.3-15.2,0-9.6-10-13.5-23.5-14.9-20.7-2.5-39.9-8-39.9-30.7,0-20.9,20.6-29.4,39.3-29.6,15.8,0,32.2,4.5,39.9,20.1Z"/><path class="cls-6" d="M755.9,159.3c15.8,0,32.2,4.5,39.9,20.1l-15.2,7.8c-3.5-5.8-13-11.3-24.1-11.3-14.2,0-21,5.9-21,13.5,0,8.8,10.4,11.3,22.6,12.8,21.2,2.6,40.9,8.1,40.9,32.3,0,22.6-20,32.3-42.6,32.3-20.7,0-36.7-6.4-44.2-24.9l15.9-8.3c4.5,11.2,16.2,16.1,28.6,16.1,12,0,23.3-4.2,23.3-15.2,0-9.6-10-13.5-23.5-14.9-20.7-2.5-39.9-8-39.9-30.7,0-20.9,20.6-29.5,39.3-29.6m0-1h0c-20.1.2-40.3,9.7-40.3,30.6,0,10.8,4.1,18.6,12.6,23.8,8.1,5,19.3,6.8,28.1,7.9,15.2,1.6,22.6,6.2,22.6,13.9,0,13.2-17.1,14.2-22.3,14.2-13.4,0-23.7-5.8-27.6-15.5l-.4-1-1,.5L711.7,241l-.8.4.3.8c7,17.2,21.7,25.6,45.1,25.6,21.1,0,43.6-8.8,43.6-33.3,0-24.7-20.1-30.6-41.7-33.3-13-1.5-21.7-4.1-21.7-11.8s7.7-12.5,20-12.5c10.9,0,20.1,5.6,23.2,10.8l.5.8.8-.4,15.2-7.8.9-.4-.4-.9c-6.7-13.6-20.8-20.7-40.8-20.7Z"/></g><g id="logo"><image class="cls-7" width="506" height="505" transform="translate(-28 -102)" xlink:href="E63D6BB1/E63D6BB1.png"/><path class="cls-8" d="M351.5,150.7a126,126,0,0,1-25,75.5,22,22,0,0,1-1.4,1.8,112.78,112.78,0,0,1-11.3,12.7l-.8.8a127,127,0,0,1-22.5,17.3c-.1.1-.3.1-.4.2a133.24,133.24,0,0,1-17.3,8.7c-.2.1-.5.2-.7.3a121.44,121.44,0,0,1-23.2,6.8c-1.1.2-2.1.4-3.2.5A127.55,127.55,0,0,1,225,277h-.3A126.06,126.06,0,0,1,137,241.4a6,6,0,0,1-.8-.8,150.76,150.76,0,0,1-11.3-12.7c-.5-.6-.9-1.2-1.4-1.8A126.25,126.25,0,0,1,124,74.6l.9-1.2a124.32,124.32,0,0,1,11.9-13.3l.3-.3a122.41,122.41,0,0,1,22.5-17.3c.4-.2.7-.4,1.1-.6A132.68,132.68,0,0,1,178,33.3c.1-.1.3-.1.5-.2a126.23,126.23,0,0,1,23.9-6.8c1.4-.3,2.7-.5,4.1-.7a127.27,127.27,0,0,1,18.6-1.4h2.4A125.47,125.47,0,0,1,313,59.8l.3.3a125.47,125.47,0,0,1,11.9,13.3l.9,1.2A125.92,125.92,0,0,1,351.5,150.7Z"/><path class="cls-6" d="M225.1,280.7h-.2a129.86,129.86,0,0,1-90.3-36.6l-.3-.3a4.62,4.62,0,0,1-.7-.7,127.36,127.36,0,0,1-11.5-13,23.07,23.07,0,0,1-1.4-1.9,129.8,129.8,0,0,1,.4-155.6l.6-.9.3-.4a123.78,123.78,0,0,1,12.3-13.7l.3-.3a132.33,132.33,0,0,1,23.1-17.9l.3-.2a4.05,4.05,0,0,1,.9-.5A121.26,121.26,0,0,1,176.6,30c.1-.1.3-.1.4-.2h.1a128.35,128.35,0,0,1,24.6-7c1.3-.3,2.8-.5,4.3-.7a134.19,134.19,0,0,1,19.1-1.4h2.6a129.09,129.09,0,0,1,87.8,36.6l.3.3A144.11,144.11,0,0,1,328,71.2l.3.4c.2.3.5.6.7.9a130,130,0,0,1,.4,155.7,23.07,23.07,0,0,1-1.4,1.9A136.72,136.72,0,0,1,316.6,243l-.7.7-.2.2a126.09,126.09,0,0,1-23.1,17.8c-.1.1-.2.1-.3.2a128.54,128.54,0,0,1-17.8,8.9,1.42,1.42,0,0,1-.6.2l-.1.1a121.72,121.72,0,0,1-24,7l-3.3.6A110.73,110.73,0,0,1,225.1,280.7ZM179.4,36.6h0a120.61,120.61,0,0,0-16.9,8.3l-.2.1c-.2.1-.3.2-.5.3l-.3.2a121.84,121.84,0,0,0-21.8,16.8l-.3.3a116.56,116.56,0,0,0-11.5,12.9l-.3.4c-.1.2-.3.4-.4.6l-.2.2a122.6,122.6,0,0,0-.5,147.2,10.92,10.92,0,0,0,1.3,1.7,116.21,116.21,0,0,0,11,12.4l.2.2.3.3.3.3a121.89,121.89,0,0,0,85.2,34.5h.2a123,123,0,0,0,20.1-1.7c1.1-.2,2.1-.3,3.1-.5a119.35,119.35,0,0,0,22.6-6.6.76.76,0,0,0,.4-.2l.3-.1a119.71,119.71,0,0,0,16.8-8.4c.1-.1.2-.1.3-.2a127.48,127.48,0,0,0,22-16.9l.3-.3.3-.3.2-.2a116.21,116.21,0,0,0,11-12.4,19.23,19.23,0,0,0,1.3-1.7,122.55,122.55,0,0,0-.4-147.3l-.2-.2c-.1-.2-.3-.4-.4-.6l-.3-.5A114.66,114.66,0,0,0,311,62.4l-.3-.3a121.87,121.87,0,0,0-83.1-34.5h-2.3A121.55,121.55,0,0,0,207.2,29l-4,.6A121,121,0,0,0,180,36.2C179.7,36.5,179.6,36.6,179.4,36.6Z"/><path class="cls-6" d="M267.9,150.1,326,74.7l-.9-1.2a124.32,124.32,0,0,0-11.9-13.3L289.7,90.8a7.43,7.43,0,0,1-11.7,0L227.3,24.4h-2.4a127.27,127.27,0,0,0-18.6,1.4l60.1,78.9a13.36,13.36,0,0,1,0,16.3,13.4,13.4,0,0,1-21.2,0L178.6,34.5a6.07,6.07,0,0,1-.7-1,116.15,116.15,0,0,0-17.3,8.6l45.7,59.3a14.29,14.29,0,0,1-.3,17.9c-.1.2-.4.4-.5.6a14.4,14.4,0,0,1-22.8,0L136.8,60.3a125.47,125.47,0,0,0-11.9,13.3l-.9,1.2,58.1,75.4-58.6,76.1a22,22,0,0,0,1.4,1.8,112.78,112.78,0,0,0,11.3,12.7l24.7-32a7.33,7.33,0,0,1,11.6,0l51.6,67.3a6.73,6.73,0,0,1,.7,1.1h.3a129.44,129.44,0,0,0,20.7-1.7L184,194.8a13.05,13.05,0,0,1,0-15.8,13,13,0,0,1,20.5,0l1.2,1.5h0l66.5,86.3a6.73,6.73,0,0,1,.7,1.1,121.7,121.7,0,0,0,17.3-8.7L243.8,199a14.29,14.29,0,0,1,.3-17.9,2.65,2.65,0,0,1,.5-.6,14.1,14.1,0,0,1,11.4-5.6,14.53,14.53,0,0,1,11.4,5.6l46.5,60.3a150.76,150.76,0,0,0,11.3-12.7c.5-.6.9-1.2,1.4-1.8Zm-28.7,6.3-9.6,12.5a5.7,5.7,0,0,1-9,0L211,156.4a10.07,10.07,0,0,1,0-12.5l9.6-12.5a5.7,5.7,0,0,1,9,0l9.6,12.5A10.07,10.07,0,0,1,239.2,156.4Z"/><g class="cls-9"><image class="cls-4" width="312" height="311" transform="translate(69 -5)" xlink:href="E63D6BB1/E63D6BB3.png"/></g></g></svg>