<svg id="Layer_1" data-name="Layer 1" xmlns="http://www.w3.org/2000/svg" xmlns:xlink="http://www.w3.org/1999/xlink" viewBox="0 0 900 300"><defs><style>.cls-1{fill:none;}.cls-2{clip-path:url(#clip-path);}.cls-3{clip-path:url(#clip-path-2);}.cls-4,.cls-5,.cls-7{isolation:isolate;}.cls-5{opacity:0.9;fill:url(#radial-gradient);}.cls-6{fill:#fff;}.cls-7{opacity:0.33;}.cls-8{fill:url(#linear-gradient);}.cls-9{opacity:0.67;}</style><clipPath id="clip-path"><rect class="cls-1" x="-5" y="-4.3" width="910" height="310"/></clipPath><clipPath id="clip-path-2"><rect class="cls-1" x="-15.2" y="-115" width="930.4" height="530"/></clipPath><radialGradient id="radial-gradient" cx="517.66" cy="228.95" r="360.73" gradientTransform="matrix(2.18, 0, 0, -1.24, -682.62, 433.44)" gradientUnits="userSpaceOnUse"><stop offset="0.02" stop-color="#5f3066"/><stop offset="0.23" stop-color="#5f3066"/><stop offset="0.41" stop-color="#512957"/><stop offset="0.76" stop-color="#2b172f"/><stop offset="1" stop-color="#0d080f"/></radialGradient><linearGradient id="linear-gradient" x1="510.97" y1="151.91" x2="743.97" y2="151.91" gradientTransform="matrix(1, 0, 0, -1, 0, 302)" gradientUnits="userSpaceOnUse"><stop offset="0" stop-color="#db1d7a"/><stop offset="1" stop-color="#772a81"/></linearGradient></defs><g id="bg"><g class="cls-2"><g class="cls-3"><image class="cls-4" width="1453" height="592" transform="translate(-50 -146)" xlink:href="E63D6BB1/E63D6BB2.png"/></g></g><g class="cls-2"><rect x="-11.4" y="-115" width="930.4" height="530"/></g><g class="cls-2"><rect class="cls-5" x="-19" y="-115" width="930.4" height="530"/></g></g><g id="monke"><image class="cls-4" width="811" height="656" transform="translate(-95.03 -158.47) scale(0.94 0.94)" xlink:href="E63D6BB1/E63D6BB6.png"/><path class="cls-6" d="M172.61,136.73,122.39,72v64.53h-18V40.88H119l46.82,59.34V40.78h18v95.86Z"/><path class="cls-6" d="M200.4,136.64V41.07h68.67V58.43H218.39V84.56h47.95v16.7H218.39v35.38Z"/><path class="cls-6" d="M312,57.29H281.69V40.88h78.67V57.29H330v79.35H312Z"/><path class="cls-6" d="M418.86,80.41l25.43-39.53H466v.85L427.9,97.11v39.53h-18V97.11L373.17,41.73v-.85h21.48Z"/><path class="cls-6" d="M122.58,163.05v79.06h49.18v16.7H104.59V163.05Z"/><path class="cls-6" d="M257.77,240.7H207.84l-8.2,18h-19.5L223,163h19.69l42.87,95.76H265.87Zm-25-57.55L215.09,223.9h35.52Z"/><path class="cls-6" d="M375.33,190.79c0,7.36-3.58,14.53-12.43,18.49,11.21,3.4,15.26,15.28,15.26,21.32,0,21.32-16,28.21-35.8,28.21H297.05V163.05h45.31C361.3,163.05,375.33,171.45,375.33,190.79Zm-60.48,10.66h27.61c11.3,0,15-4.81,15-10.28,0-4.34-3.58-11.8-15-11.8H314.85Zm0,40.47h27.61c7.34,0,17.9-2.45,17.9-11.51,0-8.58-10.56-13.11-17.9-13.11H314.85Z"/><path class="cls-6" d="M452.77,186.07c-3.3-5.47-12.25-10.66-22.7-10.66-13.38,0-19.79,5.57-19.79,12.74,0,8.3,9.8,10.66,21.29,12.07,20,2.46,38.53,7.64,38.53,30.48,0,21.32-18.84,30.47-40.13,30.47-19.5,0-34.57-6-41.64-23.49l15-7.83c4.24,10.56,15.26,15.19,26.95,15.19,11.3,0,21.94-4,21.94-14.34,0-9.06-9.42-12.74-22.13-14.06-19.5-2.36-37.59-7.55-37.59-29,0-19.72,19.41-27.74,37-27.93,14.89,0,30.34,4.25,37.59,19Z"/><path class="cls-6" d="M172.61,136.73,122.39,72v64.53h-18V40.88H119l46.82,59.34V40.78h18v95.86Z"/><path class="cls-6" d="M183.82,40.78v95.86l-11.21.09L122.39,72v64.53h-18V40.88H119l46.82,59.34V40.78h18m.94-.94H164.88V97.58L119.76,40.31l-.29-.37h-16v97.64h19.88V74.84L172,137.39l.28.38h.47l11.21-.1h.94V39.84Z"/><path class="cls-6" d="M200.4,136.64V41.07h68.67V58.43H218.39V84.56h47.95v16.7H218.39v35.38Z"/><path class="cls-6" d="M269.07,41.07V58.43H218.39V84.56h47.95v16.7H218.39v35.38h-18V41.07h68.67m.94-1H199.45v97.46h19.88V102.2h47.95V83.62H219.33V59.37H270V40.12Z"/><path class="cls-6" d="M312,57.29H281.69V40.88h78.67V57.29H330v79.35H312Z"/><path class="cls-6" d="M360.36,40.88V57.29H330v79.35H312V57.29H281.69V40.88h78.67m.94-.94H280.75v18.3h30.34v79.34H331V58.24H361.3V39.94Z"/><path class="cls-6" d="M418.86,80.41l25.43-39.53H466v.85L427.9,97.11v39.53h-18V97.11L373.17,41.73v-.85h21.48Z"/><path class="cls-6" d="M466,40.88v.85L427.9,97.11v39.53h-18V97.11L373.17,41.73v-.85h21.48L419,80.41l25.44-39.53H466m.94-.94H443.82l-.28.47L419,78.71,395.4,40.5l-.28-.47H372.23v2.08l.18.28L409,97.48v40.19h19.87V97.39l38-55.1L467,42V39.94Z"/><path class="cls-6" d="M122.58,163.05v79.06h49.18v16.7H104.59V163.05Z"/><path class="cls-6" d="M122.58,163.05v79.06h49.18v16.7H104.59V163.05h18m.94-.94H103.65v97.64h69V241.17H123.52V162.11Z"/><path class="cls-6" d="M257.77,240.7H207.84l-8.2,18h-19.5L223,163h19.69l42.87,95.76H265.87Zm-25-57.55L215.09,223.9h35.52Z"/><path class="cls-6" d="M242.6,163.05l43,95.67H265.87l-8-18H207.93l-8.19,18h-19.5L223.1,163h19.5M215.09,223.9h35.52L232.8,183.15,215.09,223.9m28.17-61.79H222.44l-.28.56-42.87,95.76-.56,1.32h21.48l.28-.56,7.91-17.46h48.8L265,259.19l.28.56H287l-.57-1.32-42.86-95.76-.28-.56ZM216.5,223l16.3-37.45L249.1,223Z"/><path class="cls-6" d="M375.33,190.79c0,7.36-3.58,14.53-12.43,18.49,11.21,3.4,15.26,15.28,15.26,21.32,0,21.32-16,28.21-35.8,28.21H297.05V163.05h45.31C361.3,163.05,375.33,171.45,375.33,190.79Zm-60.48,10.66h27.61c11.3,0,15-4.81,15-10.28,0-4.34-3.58-11.8-15-11.8H314.85Zm0,40.47h27.61c7.34,0,17.9-2.45,17.9-11.51,0-8.58-10.56-13.11-17.9-13.11H314.85Z"/><path class="cls-6" d="M342.46,163.05c18.84,0,32.87,8.49,32.87,27.74,0,7.36-3.58,14.53-12.43,18.49,11.21,3.4,15.26,15.28,15.26,21.32,0,21.32-16,28.21-35.8,28.21H297.05V163.05h45.41m-27.61,38.4h27.61c11.3,0,15-4.81,15-10.28,0-4.34-3.58-11.8-15-11.8H314.85v22.08m0,40.47h27.61c7.34,0,17.9-2.45,17.9-11.51,0-8.58-10.56-13.11-17.9-13.11H314.85v24.62m27.61-79.81H296.2v97.64h46.26c24,0,36.74-10.09,36.74-29.15,0-5.28-3.49-17-13.85-21.51a20.22,20.22,0,0,0,11-18.3c-.09-18.3-12.43-28.68-33.91-28.68ZM315.8,180.32h26.66c11.11,0,14,7.07,14,10.85,0,6.13-4.9,9.34-14,9.34H315.8V180.32Zm0,37.92h26.66c7.06,0,17,4.25,17,12.17,0,10-14.13,10.57-17,10.57H315.8V218.24Z"/><path class="cls-6" d="M452.77,186.07c-3.3-5.47-12.25-10.66-22.7-10.66-13.38,0-19.79,5.57-19.79,12.74,0,8.3,9.8,10.66,21.29,12.07,20,2.46,38.53,7.64,38.53,30.48,0,21.32-18.84,30.47-40.13,30.47-19.5,0-34.57-6-41.64-23.49l15-7.83c4.24,10.56,15.26,15.19,26.95,15.19,11.3,0,21.94-4,21.94-14.34,0-9.06-9.42-12.74-22.13-14.06-19.5-2.36-37.59-7.55-37.59-29,0-19.72,19.41-27.74,37-27.93,14.89,0,30.34,4.25,37.59,19Z"/><path class="cls-6" d="M429.6,159.75c14.88,0,30.33,4.25,37.58,19l-14.32,7.36c-3.29-5.47-12.24-10.66-22.7-10.66-13.38,0-19.78,5.57-19.78,12.74,0,8.3,9.8,10.66,21.29,12.07,20,2.46,38.53,7.64,38.53,30.48,0,21.32-18.84,30.47-40.13,30.47-19.5,0-34.58-6-41.64-23.49l15-7.83c4.24,10.56,15.26,15.19,26.94,15.19,11.3,0,21.95-4,21.95-14.34,0-9.06-9.42-12.74-22.14-14.06-19.5-2.36-37.59-7.55-37.59-29,0-19.72,19.41-27.84,37-27.93m0-.94h0c-18.94.19-38,9.15-38,28.87,0,10.18,3.86,17.54,11.87,22.45,7.63,4.72,18.18,6.41,26.47,7.45,14.32,1.51,21.29,5.85,21.29,13.12,0,12.45-16.11,13.39-21,13.39-12.63,0-22.33-5.47-26-14.62l-.37-.94-.94.47-15,7.83-.76.38.29.75c6.59,16.23,20.44,24.15,42.48,24.15,19.88,0,41.08-8.3,41.08-31.41,0-23.31-18.94-28.87-39.29-31.42-12.24-1.42-20.44-3.87-20.44-11.13s7.25-11.8,18.84-11.8c10.27,0,18.94,5.29,21.86,10.19l.47.76.75-.38,14.32-7.36.85-.38-.38-.84c-6.31-12.83-19.59-19.53-38.43-19.53Z"/></g><g id="logo"><image class="cls-7" width="506" height="505" transform="translate(394.47 -82.54) scale(0.92)" xlink:href="E63D6BB1/E63D6BB1.png"/><path class="cls-8" d="M744,150.18a116.05,116.05,0,0,1-23,69.54,20.63,20.63,0,0,1-1.29,1.65,102.59,102.59,0,0,1-10.41,11.7l-.74.74a117,117,0,0,1-20.72,15.93c-.09.09-.27.09-.37.18a123,123,0,0,1-15.93,8c-.18.09-.46.18-.64.27a112,112,0,0,1-21.37,6.26,29.63,29.63,0,0,1-3,.46,116.63,116.63,0,0,1-19.06,1.57h-.28a116,116,0,0,1-80.76-32.79,5.13,5.13,0,0,1-.74-.73,142.16,142.16,0,0,1-10.41-11.7c-.46-.55-.83-1.1-1.29-1.66a116.28,116.28,0,0,1,.46-139.52l.83-1.11a115,115,0,0,1,11-12.24l.28-.28a112.49,112.49,0,0,1,20.72-15.93c.37-.19.64-.37,1-.56a124.47,124.47,0,0,1,15.94-7.92c.09-.09.27-.09.46-.18a116.24,116.24,0,0,1,22-6.26c1.29-.28,2.48-.46,3.77-.65a117.09,117.09,0,0,1,17.13-1.29h2.21a115.58,115.58,0,0,1,78.74,32.79l.28.28a116,116,0,0,1,11,12.24l.83,1.11A116,116,0,0,1,744,150.18Z"/><path class="cls-6" d="M627.56,269.91h-.18a119.6,119.6,0,0,1-83.16-33.71l-.28-.28a3.86,3.86,0,0,1-.64-.64,118.84,118.84,0,0,1-10.6-12,21,21,0,0,1-1.28-1.75,119.55,119.55,0,0,1,.36-143.3l.56-.83.27-.37a114.73,114.73,0,0,1,11.33-12.62l.28-.27a121.58,121.58,0,0,1,21.27-16.49l.28-.18a3.27,3.27,0,0,1,.83-.46,110.68,110.68,0,0,1,16.3-8c.09-.1.27-.1.36-.19h.1A119,119,0,0,1,606,32.39c1.2-.27,2.58-.46,4-.64a123.46,123.46,0,0,1,17.59-1.29H630a118.9,118.9,0,0,1,80.86,33.71l.27.27A133.21,133.21,0,0,1,722.33,77l.27.37c.19.27.46.55.65.83a119.67,119.67,0,0,1,.37,143.39c-.37.55-.83,1.19-1.29,1.75a127.39,127.39,0,0,1-10.5,11.88l-.65.64L711,236a116.27,116.27,0,0,1-21.27,16.39c-.1.09-.19.09-.28.18a118.26,118.26,0,0,1-16.39,8.2,1.36,1.36,0,0,1-.56.18l-.09.1a112.36,112.36,0,0,1-22.1,6.44l-3,.56A102.73,102.73,0,0,1,627.56,269.91ZM585.47,45.1h0a110.83,110.83,0,0,0-15.56,7.65l-.18.09c-.19.09-.28.18-.46.28l-.28.18a112.66,112.66,0,0,0-20.08,15.47l-.27.28a106,106,0,0,0-10.59,11.88l-.28.37c-.09.18-.28.37-.37.55l-.18.18a112.92,112.92,0,0,0-.46,135.57,9.59,9.59,0,0,0,1.19,1.56,107.37,107.37,0,0,0,10.13,11.42l.19.19.27.27.28.28a112.28,112.28,0,0,0,78.47,31.77h.18A113.62,113.62,0,0,0,646,261.53c1-.19,1.94-.28,2.86-.46A110,110,0,0,0,669.65,255a.66.66,0,0,0,.37-.19l.27-.09A111.19,111.19,0,0,0,685.77,247c.09-.1.18-.1.27-.19a117.39,117.39,0,0,0,20.26-15.56l.28-.28.28-.27.18-.19a107.37,107.37,0,0,0,10.13-11.42,18.11,18.11,0,0,0,1.2-1.56A112.87,112.87,0,0,0,718,81.85l-.19-.18c-.09-.19-.27-.37-.36-.56l-.28-.46a106,106,0,0,0-10.5-11.79l-.27-.27a112.22,112.22,0,0,0-76.54-31.77h-2.11a113.06,113.06,0,0,0-16.67,1.28l-3.69.56A110.8,110.8,0,0,0,586,44.74C585.75,45,585.66,45.1,585.47,45.1Z"/><path class="cls-6" d="M667,149.63l53.51-69.44-.83-1.1a115.07,115.07,0,0,0-11-12.25L687.06,95a6.85,6.85,0,0,1-10.78,0L629.59,33.87h-2.21a117.09,117.09,0,0,0-17.13,1.29l55.35,72.66a12.32,12.32,0,0,1,0,15,12.35,12.35,0,0,1-19.53,0L584.74,43.17a5.76,5.76,0,0,1-.65-.92,107,107,0,0,0-15.93,7.92l42.09,54.61a13.18,13.18,0,0,1-.28,16.49c-.09.18-.37.36-.46.55a13.26,13.26,0,0,1-21,0L546.24,66.93a116.11,116.11,0,0,0-11,12.25l-.83,1.1L588,149.72l-54,70.09c.37.55.83,1.1,1.29,1.66a103.36,103.36,0,0,0,10.41,11.69l22.75-29.47a6.74,6.74,0,0,1,10.68,0l47.52,62a6.85,6.85,0,0,1,.65,1h.27a119.68,119.68,0,0,0,19.07-1.56L589.71,190.8a12,12,0,0,1,0-14.55,12,12,0,0,1,18.88,0l1.11,1.38h0l61.24,79.48a5.87,5.87,0,0,1,.64,1,112.06,112.06,0,0,0,15.94-8l-42.74-55.44a13.18,13.18,0,0,1,.28-16.49,2.49,2.49,0,0,1,.46-.55,13,13,0,0,1,10.5-5.16,13.37,13.37,0,0,1,10.5,5.16l42.82,55.53a136.91,136.91,0,0,0,10.41-11.69c.46-.56.83-1.11,1.29-1.66Zm-26.43,5.8L631.71,167a5.26,5.26,0,0,1-8.29,0l-8.84-11.52a9.27,9.27,0,0,1,0-11.51l8.84-11.51a5.25,5.25,0,0,1,8.29,0l8.84,11.51A9.27,9.27,0,0,1,640.55,155.43Z"/><g class="cls-9"><image class="cls-4" width="312" height="311" transform="translate(483.8 6.79) scale(0.92)" xlink:href="E63D6BB1/E63D6BB3.png"/></g></g></svg>