<?xml version="1.0" encoding="utf-8"?>
<!-- Generator: Adobe Illustrator 26.0.1, SVG Export Plug-In . SVG Version: 6.00 Build 0)  -->
<svg version="1.1" xmlns="http://www.w3.org/2000/svg" xmlns:xlink="http://www.w3.org/1999/xlink" x="0px" y="0px"
	 viewBox="0 0 900 300" style="enable-background:new 0 0 900 300;" xml:space="preserve">
<style type="text/css">
	
		.st0{clip-path:url(#SVGID_00000145763913811961634350000004058131321357826699_);fill:url(#SVGID_00000098178577822709811290000013190772949731679379_);}
	.st1{clip-path:url(#SVGID_00000145763913811961634350000004058131321357826699_);}
	.st2{clip-path:url(#SVGID_00000075864183093928364200000009140055992705884860_);}
	.st3{fill:#151DF4;}
	.st4{fill:#FF0002;}
	.st5{fill:#FFFFFF;}
	.st6{fill:#F3BA2F;}
	.st7{fill-rule:evenodd;clip-rule:evenodd;fill:#FF0002;}
	.st8{fill-rule:evenodd;clip-rule:evenodd;fill:#151DF4;}
	.st9{font-family:'Poppins-SemiBold';}
	.st10{font-size:46px;}
	.st11{display:none;}
	.st12{display:inline;opacity:0.65;fill:#FFFF00;}
</style>
<g id="bg">
	<g>
		<defs>
			<rect id="SVGID_1_" x="-5" y="-5" width="910" height="310"/>
		</defs>
		<clipPath id="SVGID_00000052066024203065165380000017616782082776818307_">
			<use xlink:href="#SVGID_1_"  style="overflow:visible;"/>
		</clipPath>
		
			<linearGradient id="SVGID_00000016770446327819767280000001948653400153150096_" gradientUnits="userSpaceOnUse" x1="899.4219" y1="2.597" x2="-0.9652" y2="300.6616">
			<stop  offset="0" style="stop-color:#151DF4"/>
			<stop  offset="0.3" style="stop-color:#000000"/>
			<stop  offset="0.7" style="stop-color:#000000"/>
			<stop  offset="1" style="stop-color:#FF0002"/>
		</linearGradient>
		
			<polygon style="clip-path:url(#SVGID_00000052066024203065165380000017616782082776818307_);fill:url(#SVGID_00000016770446327819767280000001948653400153150096_);" points="
			-170.9,-14.7 1016.9,-14.7 1016.9,335.3 -170.9,335.3 		"/>
		<g style="clip-path:url(#SVGID_00000052066024203065165380000017616782082776818307_);">
			<defs>
				
					<rect id="SVGID_00000024718760125950985790000014429532634824188334_" x="-170.9" y="-14.7" transform="matrix(-1 -1.224647e-16 1.224647e-16 -1 846 320.6239)" width="1187.9" height="350"/>
			</defs>
			<clipPath id="SVGID_00000026137268156403133630000012163811778309973907_">
				<use xlink:href="#SVGID_00000024718760125950985790000014429532634824188334_"  style="overflow:visible;"/>
			</clipPath>
			<g style="clip-path:url(#SVGID_00000026137268156403133630000012163811778309973907_);">
				<path class="st3" d="M1237.8,433.8l-57-57l-99.5,0.3L946.5,242.2l-38.7-0.4L890.7,259l-43.2,0l-13.7,13.7l-20.6,0.8l-29.9-29.9
					l-13.8-0.3l-11-11c3.4-3.9,3.3-9.7-0.4-13.4c-3.8-3.8-10.1-3.8-13.9,0c-3.8,3.8-3.8,10.1,0,13.9c3.5,3.5,9.1,3.8,13,0.8
					l11.5,11.5l13.8,0.3l29.9,29.9l22.1-0.9l13.6-13.6l43.2,0l17.1-17.1l37.1,0.4l134.9,134.9l99.5-0.3l55.9,55.9l1.2,44.3
					l82.1,82.1l1.3-1.3l-81.6-81.6L1237.8,433.8z"/>
				<path class="st3" d="M1247.3,429.8l-59.7-59.7l-99.5,0.3L953.2,235.5l-47.8,0.7l-16.7,16.7l-42.5-0.7l-14.4,14.4l-16.6,0.8
					l-25.2-25.2l0.3-11.5c2.3,0,4.5-0.9,6.3-2.6c3.5-3.5,3.5-9.1,0-12.6c-3.5-3.5-9.1-3.5-12.6,0c-3.5,3.5-3.5,9.1,0,12.6
					c1.3,1.3,2.8,2,4.4,2.4l-0.3,12.5l26.3,26.3l18.2-0.9l14.3-14.3l42.5,0.7l16.7-16.7l46.3-0.7l134.9,134.9l99.5-0.3l58.6,58.6
					l1.6,44.8l79,79l1.3-1.3l-78.4-78.4L1247.3,429.8z"/>
				<path class="st3" d="M1091.8,360.6L977.1,245.9l-1.3-33.6l-28.7-28.7l-15.4-0.7l-48.2,48.2l-41.2,0.6c-0.2-2-1-3.9-2.5-5.4
					c-3.5-3.5-9.1-3.5-12.6,0c-3.5,3.5-3.5,9.1,0,12.6c3.5,3.5,9.1,3.5,12.6,0c1.5-1.5,2.3-3.3,2.5-5.3l42-0.6l48.2-48.2l13.8,0.6
					l27.7,27.7l1.3,33.6L1091,362.5l99.1,2.1l162.8,162.8l1.3-1.3l-163.3-163.3L1091.8,360.6z"/>
				<path class="st3" d="M826,210.7l10.4,10.4l48.7,0.3l48.2-48.2l12.2,0.6l38,38l1.3,33.6l107.5,107.5l100.5,0.7l166.9,166.9
					l1.3-1.3l-167.5-167.5L1093,351L986.6,244.6l-1.3-33.6l-39.1-39.1l-13.7-0.7l-48.2,48.2l-47.2-0.3l-9.8-9.8
					c3.4-3.9,3.3-9.7-0.4-13.4c-3.8-3.8-10.1-3.8-13.9,0c-3.8,3.8-3.8,10.1,0,13.9C816.6,213.4,822.1,213.7,826,210.7z"/>
				<path class="st3" d="M1055,286.1l-46.6-46.6l0-13.5l37.8,37.8l13.3,0.2c0.1,2.4,1,4.7,2.8,6.5c3.8,3.8,10.1,3.8,13.9,0
					s3.8-10.1,0-13.9c-3.8-3.8-10.1-3.8-13.9,0c-1.5,1.5-2.4,3.5-2.7,5.5l-12.6-0.2l-40.6-40.6l0,18.9l47.7,47.7l29.9,0.2l9.4,9.4
					l5.4,18.8l19.8,19.8l78.8,0.6l173.1,173.1l1.3-1.3l-173.6-173.6l-78.8-0.6l-18.9-18.9l-5.4-18.8l-10.3-10.3L1055,286.1z"/>
				<path class="st3" d="M672.6,6.1l75,75l0.8,43.9l19.3,19.3l16.6,0.7c0.3,1.8,1.1,3.5,2.5,4.9c3.5,3.5,9.1,3.5,12.6,0
					c3.5-3.5,3.5-9.1,0-12.6c-3.5-3.5-9.1-3.5-12.6,0c-1.6,1.6-2.4,3.7-2.6,5.7l-15.7-0.7l-18.2-18.2l-0.8-43.9l-75-75l1.3-20.3
					l-51.2-51.2l-50-0.1c-0.3,0-0.5,0.1-0.7,0.3c-0.2,0.2-0.3,0.4-0.3,0.7c0,0.5,0.4,1,1,1l49.2,0.1l50.1,50.1L672.6,6.1z"/>
				<path class="st3" d="M852.6,173.1c-3.8-3.8-10.1-3.8-13.9,0c-1.7,1.7-2.6,3.8-2.8,6l-23.1-0.4l-9.2-9.2l-58.7,0.6l-22.2-22.2
					l0.3-61.3l0-0.4l-64.6-64.6l1.3-20.3L608.4-50L558-49.7c-0.3,0-0.5,0.1-0.7,0.3c-0.2,0.2-0.3,0.4-0.3,0.7c0,0.5,0.4,1,1,0.9
					l49.6-0.3L657.7,2l-1.3,20.3l64.7,64.7l-0.3,61.3l0,0.4l23.4,23.4l58.7-0.6l9.2,9.2l23.9,0.4c0.2,2.2,1.1,4.4,2.8,6
					c3.8,3.8,10.1,3.8,13.9,0C856.4,183.2,856.4,176.9,852.6,173.1z"/>
				<path class="st3" d="M665.8-6.1l-1.3,20.3l64.7,64.7l-0.3,61.3l0,0.4l23.4,23.4l52.2,0.5c0.1,2.1,1,4.2,2.6,5.8
					c3.5,3.5,9.1,3.5,12.6,0c3.5-3.5,3.5-9.1,0-12.6c-3.5-3.5-9.1-3.5-12.6,0c-1.4,1.4-2.2,3.1-2.5,4.9L753,162l-22.3-22.3l0.3-61.3
					l0-0.4l-64.6-64.6l1.3-20.3l-51.2-51.2L566.3-58c-0.3,0-0.5,0.1-0.7,0.3c-0.2,0.2-0.3,0.4-0.3,0.7c0,0.5,0.4,1,1,1l49.4-0.1
					L665.8-6.1z"/>
				<path class="st3" d="M728.9,32.8L765,68.8l-0.6,23.7l50.3,50.3l32.8,0.4l22.6,22.6l0.1,14.9c-4.1-0.1-8.2,1.4-11.3,4.5
					c-6,6-6,15.8,0,21.8c6,6,15.8,6,21.8,0c6-6,6-15.8,0-21.8c-2.4-2.4-5.5-3.9-8.6-4.3l-0.1-15.9l-23.7-23.7l-32.8-0.4l-49.2-49.2
					l0.6-23.7l-36.2-36.2l-1-11.8l-121-121c-0.4-0.4-1-0.4-1.3,0c-0.4,0.4-0.4,1,0,1.3L727.9,21L728.9,32.8z"/>
				<path class="st3" d="M1052.5,190.8c-0.3-1.8-1.1-3.5-2.5-4.9c-3.5-3.5-9.1-3.5-12.6,0c-3.5,3.5-3.5,9.1,0,12.6
					c3.5,3.5,9.1,3.5,12.6,0c1.6-1.6,2.4-3.7,2.6-5.8l16-0.9l53.4,53.4l65,0.4c0.5,0,1-0.4,1-0.9c0-0.5-0.4-1-0.9-1l-64.2-0.4
					l-53.4-53.4L1052.5,190.8z"/>
				<path class="st3" d="M895.2,110.1L848,62.8l-9.7,0.8c-0.1-2.1-0.9-4.2-2.6-5.9c-3.5-3.5-9.1-3.5-12.6,0c-3.5,3.5-3.5,9.1,0,12.6
					c3.5,3.5,9.1,3.5,12.6,0c1.4-1.4,2.2-3,2.5-4.8l9.1-0.8l47.1,47.1l38,0.3l12.3,12.3l78.7,0.5l33,33l43.8,0.6c0.5,0,1-0.4,1-0.9
					c0-0.5-0.4-1-0.9-1l-43-0.6l-33-33l-78.7-0.5l-12.3-12.3L895.2,110.1z"/>
				<path class="st3" d="M1025.1,210.3l-62.7-62.7l-30.2-0.5l-11.6-11.6l-45.2,0.6l-23.3-23.3c0.3-4.3-1.1-8.8-4.4-12.1
					c-6-6-15.8-6-21.8,0c-6,6-6,15.8,0,21.8c5.7,5.7,14.7,6,20.7,0.9l23.4,23.4l45.2-0.6l11.6,11.6l30.2,0.5l62.7,62.7l53.4-0.5
					l41.3,41.3l24.7,0.5l26.4,26.4l64.1-0.2c0.5,0,0.9-0.4,1-1c0-0.5-0.4-1-1-1l-63.3,0.2l-26.4-26.4l-24.7-0.5l-41.3-41.3
					l-53.4,0.5l-62.7-62.7l-30.2-0.5l-11.6-11.6l-45.2,0.6l-22.8-22.8c1.9-2,3.2-4.5,3.8-7l22.9,22.9l45.2-0.6l11.6,11.6l30.2,0.5
					l62.7,62.7l53.4-0.5l41.3,41.3l24.7,0.5l26.4,26.4l51.3,0.5c0.5,0,1-0.4,1-0.9c0-0.5-0.4-1-0.9-1l-50.6-0.5l-26.4-26.4
					l-24.7-0.5l-41.3-41.3L1025.1,210.3z"/>
				<path class="st3" d="M755.9-77.8L872.7,39l21.7,0.1l61.2,61.2h85.7c0.5,0,1-0.4,1-1c0-0.5-0.4-1-1-1h-84.9l-61.2-61.2l-21.7-0.1
					L757.8-78.6l0.4-34.6l-68.5-68.5c-0.4-0.4-1-0.4-1.3,0c-0.4,0.4-0.4,1,0,1.3l68,68L755.9-77.8z"/>
				<path class="st3" d="M762.1-85L876,28.8l21.7,0.1l60.6,60.6h72.7c0.5,0,1-0.4,1-1c0-0.5-0.4-1-1-1H959L898.4,27l-21.7-0.1
					L764-85.8l0.1-35l-67.7-67.7c-0.4-0.4-1-0.4-1.3,0c-0.4,0.4-0.4,1,0,1.3l67.1,67.1L762.1-85z"/>
				<path class="st3" d="M767-90.9L878,20l21.7,0.1l61.3,61.3l62.2-0.2c0.5,0,1-0.4,1-1c0-0.5-0.4-1-1-1l-61.4,0.2l-61.3-61.3
					l-21.7-0.1L769-91.7l1.1-36.7l-66.9-66.9c-0.4-0.4-1-0.4-1.3,0c-0.4,0.4-0.4,1,0,1.3l66.3,66.3L767-90.9z"/>
				<path class="st3" d="M772.4-99.1l108,108L902,9.1l60.7,60.7l48.6-0.5c0.5,0,0.9-0.4,0.9-1c0-0.5-0.4-0.9-1-0.9l-47.8,0.5
					L902.8,7.1l-21.7-0.1L774.3-99.8l0.7-37L709.9-202c-0.4-0.4-1-0.4-1.3,0c-0.4,0.4-0.4,1,0,1.3l64.6,64.6L772.4-99.1z"/>
				<path class="st3" d="M777.1,13.5l27.2,27.2l10.1-10.1l22.2-0.8l20,20L856.2,63l38.8,38.8l40.1-0.4l12.3,12.3l106.9-0.8
					c0.5,0,0.9-0.4,0.9-1c0-0.5-0.4-0.9-1-0.9l-106.1,0.8l-12.3-12.3l-40.1,0.4l-37.6-37.6l0.4-13.1l7.4,7.4l8.5-0.4
					c0,2.2,0.9,4.5,2.6,6.2c3.5,3.5,9.1,3.5,12.6,0c3.5-3.5,3.5-9.1,0-12.6c-3.5-3.5-9.1-3.5-12.6,0c-1.3,1.3-2.1,2.8-2.4,4.5
					l-8,0.4L660-152.1c-0.4-0.4-1-0.4-1.3,0c-0.4,0.4-0.4,1,0,1.3L837.3,27.9l-23.8,0.8l-9.2,9.2l-10.7-10.7c3.5,3.4,9,3.4,12.5-0.1
					c3.5-3.5,3.5-9.1,0-12.6c-2.8-2.8-7.1-3.3-10.5-1.5l-6.4-6.4l-0.7-16.9L653.3-145.3c-0.4-0.4-1-0.4-1.3,0c-0.4,0.4-0.4,1,0,1.3
					L786.6-9.3l0.7,16.9l6.7,6.7c-0.2,0.1-0.3,0.3-0.5,0.4c-3.4,3.4-3.5,9-0.1,12.5L779,12.8l0.6-21L647.9-139.9
					c-0.4-0.4-1-0.4-1.3,0c-0.4,0.4-0.4,1,0,1.3L777.7-7.4L777.1,13.5z"/>
				<path class="st3" d="M800.9,122.3c3.8,3.8,10.1,3.8,13.9,0c3.8-3.8,3.8-10.1,0-13.9c-3.7-3.7-9.6-3.8-13.4-0.4l-9.1-9.1
					c0.3-0.3,0.7-0.5,1-0.8c3.8-3.8,3.8-10.1,0-13.9c-2.4-2.4-5.7-3.3-8.8-2.7L783.7,66l-37.4-37.4l0.6-21l-63.4-63.4
					c5.7-6,5.6-15.5-0.3-21.4c-6-6-15.8-6-21.8,0c-6,6-6,15.8,0,21.8c5.7,5.7,14.7,6,20.7,0.9L745,8.3l-0.6,21l37.5,37.5l0.7,15.1
					c-1.2,0.5-2.3,1.2-3.3,2.2c-3.8,3.8-3.8,10.1,0,13.9c3.1,3.1,7.6,3.6,11.3,1.8l9.5,9.5C797.1,113.2,797.4,118.7,800.9,122.3z"/>
				<path class="st3" d="M1019.5,131.9l-78.7-0.5l-12.3-12.3l-36.7,0.4c0-2.6-0.9-5.2-2.9-7.1c-3.8-3.8-10.1-3.8-13.9,0
					c-3.8,3.8-3.8,10.1,0,13.9c3.8,3.8,10.1,3.8,13.9,0c1.4-1.4,2.3-3.1,2.6-4.9l36.2-0.4l12.3,12.3l78.7,0.5l33,33l17.9-1
					l15.2,15.2l0.3,13.8l40.3,40.3l51.5,0.3c0.5,0,1-0.4,1-0.9c0-0.5-0.4-1-0.9-1l-50.7-0.3L1087,194l-0.3-13.8l-16.3-16.3l-17.9,1
					L1019.5,131.9z"/>
			</g>
			<g style="clip-path:url(#SVGID_00000026137268156403133630000012163811778309973907_);">
				<path class="st4" d="M1.1,66.1l83.8,83.8l0.7,88.1l-5.1,5.1c0,0,0,0,0,0c-3.8-3.8-10.1-3.8-13.9,0c-3.8,3.8-3.8,10.1,0,13.9
					s10.1,3.8,13.9,0c3.4-3.4,3.8-8.6,1.2-12.4l5.8-5.8l-0.8-89.7L3,65.4l0.3-48.3l-179.9-179.9l-1.3,1.3L1.3,17.9L1.1,66.1z"/>
				<path class="st4" d="M7.8,59.4l83.8,83.8l-1.1,117.5l13,13c-3,3.9-2.7,9.4,0.8,13c3.8,3.8,10.1,3.8,13.9,0
					c3.8-3.8,3.8-10.1,0-13.9c-3.7-3.7-9.6-3.8-13.4-0.4l-12.4-12.4l1.1-117.5L9.7,58.6L10,10.3L-170-169.6l-1.3,1.3L8,11.1
					L7.8,59.4z"/>
				<path class="st4" d="M13.2,54l102.5,102.5l0.7,46.6l12.1,12.1c-2.6,3.5-2.4,8.4,0.8,11.6c3.5,3.5,9.1,3.5,12.6,0
					c3.5-3.5,3.5-9.1,0-12.6c-3.3-3.3-8.6-3.4-12.1-0.4l-11.5-11.5l-0.7-46.6L15.1,53.2l1.6-49.6l-180-180l-1.3,1.3L14.8,4.4
					L13.2,54z"/>
				<path class="st4" d="M-476,473l108.7-0.4l125.4-125.4l44.5,0.4l84.3,84.3l36.3,1.3l16.8,16.8c-1.5,3.3-0.9,7.2,1.8,9.9
					c3.5,3.5,9.1,3.5,12.6,0c3.5-3.5,3.5-9.1,0-12.6c-3.5-3.5-9.1-3.5-12.6,0c-0.3,0.3-0.5,0.6-0.8,1l-17-17l-36.3-1.3l-84.3-84.3
					l-46-0.4l-125.5,125.5l-107.5,0.4L-836.7,110l-1.3,1.3L-476.4,473L-476,473z"/>
				<path class="st4" d="M-466.9,444.4l91-0.9l140.1-140.1l29.6,0.2l108.7,108.7l42.5-0.7l47.5,47.5l17.6,0c0.3,2,1.2,4,2.7,5.5
					c3.8,3.8,10.1,3.8,13.9,0c3.8-3.8,3.8-10.1,0-13.9c-3.8-3.8-10.1-3.8-13.9,0c-1.8,1.8-2.7,4.2-2.8,6.5l-16.7,0l-47.5-47.5
					l-42.5,0.7l-108.7-108.7l-31.1-0.2l-140.1,140.1l-89.8,0.9L-887.2,21.8l-1.3,1.3l421.2,421.2L-466.9,444.4z"/>
				<path class="st4" d="M-463.4,434.4l85.5,0.3l144.6-144.6l0.4-0.4l31.4-0.2l111.3,111.3l40.1-0.4l38.1,38.1
					c-1.8,3.7-1.2,8.2,1.8,11.3c3.8,3.8,10.1,3.8,13.9,0s3.8-10.1,0-13.9s-10.1-3.8-13.9,0c-0.3,0.3-0.5,0.6-0.8,1l-38.4-38.4
					l-40.1,0.4l-111.3-111.3l-33,0.2l-0.9,0.9l-144,144l-84.3-0.3L-880.4,15.1l-1.3,1.3l417.9,417.9L-463.4,434.4z"/>
				<path class="st4" d="M-345.2,5.6l101,101c-3,3.9-2.7,9.4,0.8,13c3.5,3.5,9.1,3.8,13,0.8l19.6,19.6l18.9,0l44.4,44.4l29-0.7
					l27.3,27.3l21.8,0.3L-3.8,277l23.7-0.6l16.2,16.2c-0.2,0.1-0.3,0.3-0.5,0.4c-3.8,3.8-3.8,10.1,0,13.9c3.8,3.8,10.1,3.8,13.9,0
					c0.2-0.2,0.3-0.3,0.4-0.5l18,18l-0.8,28.8l16.2,16.2c-3,3.9-2.7,9.4,0.8,13c3.8,3.8,10.1,3.8,13.9,0c3.8-3.8,3.8-10.1,0-13.9
					c-3.7-3.7-9.6-3.8-13.4-0.4L69,352.5l0.8-28.8L51,304.9c2.2-3.8,1.7-8.6-1.5-11.9c-3.2-3.2-8.1-3.7-11.9-1.5l-17-17L-3,275.1
					l-65.7-65.7l-21.8-0.3l-27.3-27.3l-29,0.7l-44.4-44.4l-18.9,0l-19-19c3.4-3.9,3.3-9.7-0.4-13.4c-3.7-3.7-9.6-3.8-13.4-0.4
					L-343.9,4.3L-345.2,5.6z"/>
				<polygon class="st4" points="-224.3,202.1 -383,43.4 -384.3,44.7 -225.1,203.9 -205.2,205 -83,327.2 -24.2,326.7 49.8,400.7 
					50.4,418.2 52.3,418.2 51.6,399.8 -23.4,324.8 -82.2,325.3 -204.4,203.1 				"/>
				<path class="st4" d="M-219.4,223.1l16.9,0.7l130.1,130.1l62.3,0.2L32.7,397l0.1,6c-2.2,0.1-4.3,0.9-6,2.6
					c-3.5,3.5-3.5,9.1,0,12.6c3.5,3.5,9.1,3.5,12.6,0c3.5-3.5,3.5-9.1,0-12.6c-1.3-1.3-3-2.1-4.7-2.5l-0.1-6.9l-43.9-43.9l-62.3-0.2
					l-130.1-130.1l-16.9-0.7L-389.7,50.1l-1.3,1.3L-219.4,223.1z"/>
				<path class="st4" d="M-473.4,371l28.1-28.1l6.1,0.1c0,2.6,0.9,5.1,2.9,7.1c3.8,3.8,10.1,3.8,13.9,0c1.8-1.8,2.8-4.2,2.8-6.6
					l8.5,0.2l18.5-18.5l12.3-1.1l13.3,13.3l13.8,0.3l9.5,9.5l27.3,1.5l81.4-81.4l33.7-1.4l122.8,122.8l49.3,0.8l68.3,68.3l6.8-0.1
					c0.4,1.4,1.1,2.6,2.2,3.7c3.5,3.5,9.1,3.5,12.6,0c3.5-3.5,3.5-9.1,0-12.6c-3.5-3.5-9.1-3.5-12.6,0c-1.9,1.9-2.7,4.5-2.5,7
					l-5.6,0.1L-28,387.5l-49.3-0.8l-122.9-122.9l-35.3,1.4l-81.4,81.4l-25.7-1.4l-9.5-9.5l-13.8-0.3l-13.4-13.4l-13.9,1.2
					l-18.5,18.5l-7.9-0.2c-0.3-2-1.2-3.9-2.7-5.4c-3.8-3.8-10.1-3.8-13.9,0c-1.4,1.4-2.3,3.1-2.7,5l-7.1-0.2l-28.2,28.2l-13.5,0.9
					L-861.5-3.8l-1.3,1.3L-488.5,372L-473.4,371z"/>
				<path class="st4" d="M-17.9,174.8c3.8-3.8,3.8-10.1,0-13.9c-3.8-3.8-10.1-3.8-13.9,0c-1.7,1.7-2.6,3.9-2.8,6.2l-27.8,0.1
					l-14.5-14.5c5.6-6,5.4-15.5-0.4-21.3c-5.9-5.9-15.3-6-21.3-0.4l-13.2-13.2c3.4-3.9,3.3-9.7-0.4-13.4c-3.8-3.8-10.1-3.8-13.9,0
					s-3.8,10.1,0,13.9c3.5,3.5,9.1,3.8,13,0.8l13.3,13.3c-5.1,6-4.9,15.2,0.8,20.9c5.7,5.7,14.8,6,20.9,0.8l15.1,15.1l28.6-0.1
					c0.2,2.1,1.1,4.2,2.8,5.9C-28,178.7-21.7,178.7-17.9,174.8z"/>
				<path class="st4" d="M-369.3,463.8L-239,333.5l12.9,0c0.2,2.1,1.1,4.2,2.8,5.8c3.8,3.8,10.1,3.8,13.9,0c1.6-1.6,2.5-3.7,2.8-5.8
					l13.9,0l89,89l45.4-0.5L-1,479.3c-2.6,3.5-2.4,8.4,0.8,11.6c3.5,3.5,9.1,3.5,12.6,0c3.5-3.5,3.5-9.1,0-12.6
					c-3.3-3.3-8.6-3.4-12.1-0.4l-57.9-57.9l-45.4,0.5l-89-89l-14.7,0c-0.2-2.3-1.1-4.5-2.8-6.2c-3.8-3.8-10.1-3.8-13.9,0
					c-1.7,1.7-2.6,3.9-2.8,6.2l-13.7,0l-130.3,130.3l-102-0.8L-830,103.3l-1.3,1.3L-472.9,463L-369.3,463.8z"/>
				<path class="st4" d="M-472.5,359.4l20.4-20.4l-0.4-34.6l21.7-21.7l19.2,1.6l34.4,34.4l22.9,0.7l13.3-13.3l14,0.1
					c0.4,1.8,1.3,3.4,2.6,4.8c3.8,3.8,10.1,3.8,13.9,0c1.3-1.3,2.2-3,2.6-4.7l12.4,0.1l52-52l50.9,1L-77,370.9l50,0
					c-0.1,2.4,0.7,4.9,2.6,6.8c3.5,3.5,9.1,3.5,12.6,0c3.5-3.5,3.5-9.1,0-12.6c-3.5-3.5-9.1-3.5-12.6,0c-1.1,1.1-1.8,2.5-2.2,3.9
					l-49.6,0l-115.6-115.6l-52.4-1l-52,52l-11.3-0.1c0.1-2.7-0.8-5.3-2.8-7.4c-3.8-3.8-10.1-3.8-13.9,0c-2,2-2.9,4.6-2.9,7.2
					l-14.6-0.1l-13.3,13.3l-21.3-0.6l-34.4-34.4l-20.7-1.8l-22.9,22.9l0.4,34.6l-19.3,19.3l-15.2,0.9L-856.1-9.2l-1.3,1.3
					l368.2,368.2L-472.5,359.4z"/>
				<path class="st4" d="M-60.5,66.6L31,158.1l0.1,30.5c-2.1,0.1-4.1,1-5.7,2.6c-3.5,3.5-3.5,9.1,0,12.6c3.5,3.5,9.1,3.5,12.6,0
					c3.5-3.5,3.5-9.1,0-12.6c-1.4-1.4-3.1-2.2-5-2.5l-0.1-31.4l-92.7-92.7l-23.7,0.6L-244.1-95.5l-1.3,1.3L-84.2,67.2L-60.5,66.6z"
					/>
				<circle class="st4" cx="49.3" cy="428" r="9.8"/>
				<path class="st4" d="M-142.4-40.9c3.5,3.5,9.1,3.8,13,0.8L-20.6,68.8l-0.5,26.4l37.4,37.4l36.6-1.1l21,21L73.7,188l-5.3,5.3
					c0,0,0,0,0,0c-3.8-3.8-10.1-3.8-13.9,0c-3.8,3.8-3.8,10.1,0,13.9c0,0,0,0,0,0l-9.6,9.6L23,215.9c0.2-2.6-0.6-5.2-2.5-7.2
					c-3.5-3.5-9.1-3.5-12.6,0c-3.5,3.5-3.5,9.1,0,12.6c3.5,3.5,9.1,3.5,12.6,0c1-1,1.7-2.2,2.1-3.5l22.9,1l10.4-10.4
					c3.8,2.6,9.1,2.1,12.4-1.2c3.4-3.4,3.8-8.6,1.2-12.4l6-6l0.3-37l-22.2-22.2L17,130.7l-36.2-36.2l0.5-26.4L-128-41.4
					c3.4-3.9,3.3-9.7-0.4-13.4c-3.7-3.7-9.6-3.8-13.4-0.4l-71.3-71.3l-1.3,1.3l71.3,71.3C-146.2-50-145.9-44.4-142.4-40.9z"/>
				<path class="st4" d="M-101.7,84.7l33.7-1.3l70.2,70.2l-0.1,10.7c-2.3,0-4.6,0.8-6.4,2.6c-3.5,3.5-3.5,9.1,0,12.6
					c3.5,3.5,9.1,3.5,12.6,0c3.5-3.5,3.5-9.1,0-12.6c-1.2-1.2-2.7-2-4.3-2.4l0.1-11.7l-71.4-71.4l-33.7,1.3L-226.4-42.7
					c3.4-3.9,3.3-9.7-0.4-13.4c-3.7-3.7-9.6-3.8-13.4-0.4l-21.4-21.4l-1.3,1.3l21.4,21.4c-3,3.9-2.7,9.4,0.8,13
					c3.5,3.5,9.1,3.8,13,0.8L-101.7,84.7z"/>
				<path class="st4" d="M-20.7,465.7c-6-6-15.8-6-21.8,0c-2.3,2.3-3.7,5.1-4.2,8l-5.6,0.1l-31.5-31.5l-33.7,1.3l-83.3-83.3l-43.3,0
					l-120.6,120.6l-113-1.1l-364.4-364.4l-1.3,1.3l364.9,364.9l0.4,0l114.2,1.1l120.6-120.6l41.8,0l83.3,83.3l33.7-1.3l31.5,31.5
					l6.2-0.1c-0.3,4.3,1.2,8.6,4.5,11.9c6,6,15.8,6,21.8,0S-14.7,471.7-20.7,465.7z"/>
				<path class="st4" d="M-77.5,316.5l-122.2-122.2l-21.3,0.3L-377.6,38l-1.3,1.3l157.1,157.1l21.3-0.3l122.2,122.2l57.5,0.9
					l103,103l0.3,29.6c-3.7,0.1-7.4,1.6-10.3,4.5c-6,6-6,15.8,0,21.8c6,6,15.8,6,21.8,0c6-6,6-15.8,0-21.8c-2.7-2.7-6.1-4.2-9.6-4.4
					L84,421.4L-20.1,317.3L-77.5,316.5z"/>
				<path class="st4" d="M-8.5,62l-83.8-83.8l-0.2-7.9c4,0.1,8.1-1.4,11.1-4.5c6-6,6-15.8,0-21.8c-6-6-15.8-6-21.8,0s-6,15.8,0,21.8
					c2.5,2.5,5.6,3.9,8.8,4.3l0.2,8.9l83.8,83.8l0.1,21.7l26.9,26.9c-2.6,3.5-2.4,8.4,0.8,11.6c3.5,3.5,9.1,3.5,12.6,0
					c3.5-3.5,3.5-9.1,0-12.6c-3.3-3.3-8.6-3.4-12.1-0.4L-8.4,83.6L-8.5,62z"/>
				<path class="st4" d="M-372.2,32.6l157.1,157.1l21.3-0.3l16.4,16.4l44,0.9l22.6,22.6l0.4,19.3l38.4,38.4l14,0.2
					c0.7,1.7,1.8,3.3,3.2,4.7c6,6,15.8,6,21.8,0c6-6,6-15.8,0-21.8c-6-6-15.8-6-21.8,0c-2.7,2.7-4.1,6.1-4.4,9.6l-6.6,0l-37.3-37.3
					l0.9-20.6l-25.8-25.8l-45.4,0.5l-16.4-16.4l-21.3,0.3L-365.5,25.9l-1.3,1.3l155.1,155.1l21.3-0.3l16.4,16.4l45.4-0.5l24.7,24.7
					l-0.9,20.6l38.4,38.4l7.4,0c0,1.2,0.2,2.5,0.6,3.7l-12.6-0.2l-37.3-37.3l-0.4-19.3l-23.7-23.7l-44-0.9l-16.4-16.4l-21.3,0.3
					L-370.9,31.3L-372.2,32.6z"/>
				<path class="st4" d="M-260.2-6.4l40.8,40.8l-0.9,39.5l31.5,31.5l13.1-0.4l84.8,84.8l23.7-0.6L-2,254.5l20.3-1.3L89.1,324
					l1.3,25.6l17.6,17.6l-0.5,22.7c-3.1,0.5-6.1,1.9-8.5,4.3c-6,6-6,15.8,0,21.8c6,6,15.8,6,21.8,0c6-6,6-15.8,0-21.8
					c-1.7-1.7-3.7-2.9-5.8-3.6l0.3-29.5l-17.7-17.7l-1.3-25.6l-71.9-71.9l-18.9,0l-65.2-65.2l-23.7,0.6l-84.9-84.9l-13.1,0.4
					l-30.4-30.4l0.9-39.5L-225,12.7V8c4.1,0.2,8.3-1.3,11.5-4.5c6-6,6-15.8,0-21.8c-6-6-15.8-6-21.8,0c-6,6-6,15.8,0,21.8
					c2.4,2.4,5.3,3.8,8.4,4.3v5.7l14.2,14.2l-0.9,39.5l31.5,31.5l13.1-0.4l84.8,84.8l23.7-0.6l65.1,65.1l18.9,0l70.8,70.8l1.3,25.6
					l17.6,17.6l-0.3,28.2c-1.2-0.3-2.4-0.4-3.7-0.3l0.5-23.3l-17.7-17.7L91,323.2L19,251.3l-20.3,1.3l-65.1-65.1l-23.7,0.6
					l-84.9-84.9l-13.1,0.4l-30.4-30.4l0.9-39.5l-41.3-41.3c3.4-3.9,3.3-9.7-0.4-13.4c-3.8-3.8-10.1-3.8-13.9,0
					c-3.8,3.8-3.8,10.1,0,13.9C-269.6-3.6-264.1-3.4-260.2-6.4z"/>
			</g>
		</g>
	</g>
</g>
<g id="logo">
	<path class="st5" d="M677.3,240.6h-0.1c-23.6-0.1-45.8-9.1-62.7-25.4l-0.2-0.2c-0.2-0.2-0.3-0.3-0.5-0.5c-2.9-2.9-5.6-5.9-8-9
		c-0.3-0.4-0.7-0.9-1-1.4c-11.7-15.6-17.8-34.2-17.8-53.9c0-19.8,6.3-38.5,18.2-54.3c0.1-0.2,0.3-0.4,0.4-0.6l0.2-0.2
		c2.6-3.4,5.5-6.6,8.5-9.6l0.2-0.2c4.9-4.8,10.3-8.9,16.1-12.4l0.2-0.1c0.2-0.1,0.4-0.2,0.6-0.4c3.8-2.3,8-4.3,12.3-6.1
		c0.1,0,0.2-0.1,0.3-0.1l0.1,0c5.5-2.2,11.2-3.8,17.1-4.9c0.9-0.2,1.9-0.3,3-0.5c4.3-0.7,8.8-1,13.3-1h1c0.3,0,0.5,0,0.8,0
		c22.9,0.4,44.5,9.4,61,25.4l0.2,0.2c3,2.9,5.9,6.1,8.4,9.5l0.2,0.3c0.2,0.2,0.3,0.4,0.5,0.6c11.9,15.7,18.2,34.5,18.2,54.3
		c0,19.6-6.2,38.2-17.9,53.9c-0.3,0.4-0.6,0.9-1,1.4c-2.4,3.1-5.1,6.1-7.9,9c-0.1,0.2-0.3,0.3-0.5,0.5l-0.2,0.2
		c-5,4.8-10.4,8.9-16.1,12.4c-0.1,0-0.1,0.1-0.2,0.1c-3.9,2.4-8.1,4.5-12.4,6.2c-0.1,0.1-0.3,0.1-0.4,0.2l-0.1,0
		c-5.5,2.2-11,3.8-16.7,4.9c-0.7,0.2-1.5,0.3-2.3,0.4C687.2,240.2,682.3,240.6,677.3,240.6z"/>
	<g>
		<defs>
			<path id="SVGID_00000001644246467184692460000015801587277665838483_" d="M676.8,239.2h-0.1c-23.3-0.1-45.2-9-61.9-25.1l-0.2-0.2
				c-0.2-0.2-0.3-0.3-0.5-0.5c-2.9-2.8-5.5-5.8-7.9-8.9c-0.3-0.4-0.7-0.9-1-1.3c-11.5-15.4-17.6-33.8-17.6-53.2
				c0-19.5,6.2-38.1,17.9-53.6c0.1-0.2,0.3-0.4,0.4-0.6l0.2-0.2c2.6-3.4,5.4-6.5,8.4-9.4l0.2-0.2c4.9-4.7,10.2-8.8,15.9-12.3
				l0.2-0.1c0.2-0.1,0.4-0.2,0.6-0.4c3.8-2.3,7.9-4.3,12.1-6c0.1,0,0.2-0.1,0.3-0.1l0.1,0c5.4-2.2,11.1-3.8,16.9-4.8
				c0.9-0.2,1.9-0.3,2.9-0.5c4.3-0.6,8.7-1,13.1-1l1,0c0.3,0,0.5,0,0.8,0c22.6,0.4,44,9.3,60.2,25.1l0.2,0.2c3,2.9,5.8,6,8.3,9.3
				l0.2,0.3c0.2,0.2,0.3,0.4,0.4,0.6c11.7,15.5,17.9,34,17.9,53.6c0,19.4-6.1,37.8-17.6,53.2c-0.3,0.4-0.6,0.9-1,1.3
				c-2.3,3-5,6-7.9,8.9c-0.1,0.2-0.3,0.3-0.5,0.5l-0.2,0.2c-4.9,4.7-10.2,8.8-15.9,12.2c-0.1,0-0.1,0.1-0.2,0.1
				c-3.9,2.4-8,4.4-12.2,6.1c-0.1,0.1-0.3,0.1-0.4,0.2l-0.1,0c-5.4,2.2-10.9,3.8-16.5,4.8c-0.7,0.2-1.5,0.3-2.3,0.4
				C686.6,238.8,681.7,239.2,676.8,239.2z"/>
		</defs>
		<clipPath id="SVGID_00000029723936993003545560000008940665817261814155_">
			<use xlink:href="#SVGID_00000001644246467184692460000015801587277665838483_"  style="overflow:visible;"/>
		</clipPath>
		<g style="clip-path:url(#SVGID_00000029723936993003545560000008940665817261814155_);">
			
				<image style="overflow:visible;" width="380" height="360" xlink:href="../../../Afbeeldingen/99Starz_token.png"  transform="matrix(0.5046 0 0 0.5046 575.9984 59.1936)">
			</image>
		</g>
	</g>
</g>
<g id="currency_logo">
	<g>
		<g>
			<g>
				
					<image style="overflow:visible;opacity:0.5;" width="120" height="120" xlink:href="E3B97D53.png"  transform="matrix(1 0 0 1 688 161)">
				</image>
				<g>
					<circle class="st5" cx="748.2" cy="221.2" r="29.5"/>
				</g>
			</g>
			<circle class="st6" cx="748.2" cy="221.2" r="25.5"/>
		</g>
		<g id="Layer_2_1_">
			<g id="Layer_1-2_1_">
				<path class="st5" d="M740.6,218l7.6-7.6l7.6,7.6l4.4-4.4l-12-12l-12,12L740.6,218 M728.6,221.2l4.4-4.4l4.4,4.4l-4.4,4.4
					L728.6,221.2z M740.6,224.3l7.6,7.6l7.6-7.6l4.4,4.4l0,0l-12,12l-12-12l0,0L740.6,224.3 M758.9,221.2l4.4-4.4l4.4,4.4l-4.4,4.4
					L758.9,221.2z"/>
				<path class="st5" d="M752.6,221.2L752.6,221.2l-4.5-4.5l-3.3,3.3l0,0l-0.4,0.4l-0.8,0.8l0,0l0,0l4.5,4.5L752.6,221.2
					L752.6,221.2L752.6,221.2"/>
			</g>
		</g>
	</g>
</g>
<g id="text">
	<g>
		<path class="st7" d="M273.7,95.5v30h43.6v10.9h-43.6v10.9h54.5v-32.7h-43.6v-8.2h21.9V95.5H273.7z"/>
		<path class="st7" d="M440.6,95.5v29h-7.7v-29H315.2v10.9h31.9v40.9h10.9v-40.9h20.4v40.9h10.9v-11.4H422v11.4h10.9v-11.5h7.7v11.5
			h10.9v-11.4h24.9l1.9,11.4h12.9l-2.1-11.4h5.9V95.5L440.6,95.5L440.6,95.5z M451.5,124.5h32.7v-18.1h-32.7L451.5,124.5
			L451.5,124.5z M389.3,124.5H422v-18.1h-32.7C389.3,106.4,389.3,124.5,389.3,124.5z M501.5,95.5v10.9h37.9l-37.9,30v10.9H556v-10.9
			h-37.9l37.9-30V95.5H501.5z"/>
		<path class="st8" d="M142.4,94v30.8h44.7v22.4h11.2V94H142.4z M153.6,113.6h33.5v-8.4h-33.5V113.6z M208,94v30.8h44.7v22.4h11.2
			V94H208z M219.2,113.6h33.5v-8.4h-33.5V113.6z"/>
	</g>
	<g>
		<text transform="matrix(1 0 0 1 186.8735 197.9976)" class="st6 st9 st10">BNB OFFERING</text>
	</g>
</g>
<g id="banner" class="st11">
	<polygon class="st12" points="763.7,-5 671.8,-5 905,228.2 905,136.3 	"/>
</g>
</svg>
