<svg xmlns="http://www.w3.org/2000/svg" xmlns:xlink="http://www.w3.org/1999/xlink" viewBox="0 0 1380 300"><defs><style>.cls-1{fill:none;}.cls-2{isolation:isolate;}.cls-3{clip-path:url(#clip-path);}.cls-10,.cls-11,.cls-12,.cls-4,.cls-6,.cls-7,.cls-8,.cls-9{fill-rule:evenodd;}.cls-4{fill:url(#_ÂÁ_Ï_ÌÌ_È_ËÂÌÚ_802);}.cls-5{fill:url(#radial-gradient);}.cls-6{fill:#5990e0;}.cls-7{fill:#80bff9;}.cls-8{fill:#ae89f7;}.cls-10,.cls-11,.cls-12,.cls-13,.cls-14,.cls-15,.cls-9{mix-blend-mode:screen;}.cls-9{fill:url(#_ÂÁ_Ï_ÌÌ_È_ËÂÌÚ_94);}.cls-10{fill:url(#_ÂÁ_Ï_ÌÌ_È_ËÂÌÚ_104);}.cls-11{fill:url(#_ÂÁ_Ï_ÌÌ_È_ËÂÌÚ_104-2);}.cls-12{fill:url(#_ÂÁ_Ï_ÌÌ_È_ËÂÌÚ_95);}.cls-13{fill:url(#_ÂÁ_Ï_ÌÌ_È_ËÂÌÚ_194);}.cls-14{fill:url(#_ÂÁ_Ï_ÌÌ_È_ËÂÌÚ_406);}.cls-15{opacity:0.2;fill:url(#radial-gradient-2);}</style><clipPath id="clip-path"><rect class="cls-1" width="1380" height="300"/></clipPath><radialGradient id="_ÂÁ_Ï_ÌÌ_È_ËÂÌÚ_802" cx="191.48" cy="2070.13" r="902.41" gradientTransform="translate(292.68 -1562.74) scale(1.24 0.82)" gradientUnits="userSpaceOnUse"><stop offset="0" stop-color="#6872b2"/><stop offset="1" stop-color="#5f346f"/></radialGradient><radialGradient id="radial-gradient" cx="921.72" cy="1593.9" r="256.4" gradientTransform="translate(0 -1062.86) scale(1 0.79)" gradientUnits="userSpaceOnUse"><stop offset="0" stop-color="#280e46"/><stop offset="0.31" stop-color="#1e0b39"/><stop offset="0.88" stop-color="#050216"/><stop offset="0.99" stop-color="#00000e"/></radialGradient><radialGradient id="_ÂÁ_Ï_ÌÌ_È_ËÂÌÚ_94" cx="-4128.41" cy="-5357.54" r="19.42" gradientTransform="translate(5657.26 -3286.13) rotate(-90) scale(0.84)" gradientUnits="userSpaceOnUse"><stop offset="0.04" stop-color="#230247"/><stop offset="0.09" stop-color="#210243"/><stop offset="1"/></radialGradient><radialGradient id="_ÂÁ_Ï_ÌÌ_È_ËÂÌÚ_104" cx="-4252.5" cy="-5413.1" r="6.52" gradientTransform="translate(5657.26 -3286.13) rotate(-90) scale(0.84)" gradientUnits="userSpaceOnUse"><stop offset="0.04" stop-color="#05164a"/><stop offset="0.13" stop-color="#051443"/><stop offset="1"/></radialGradient><radialGradient id="_ÂÁ_Ï_ÌÌ_È_ËÂÌÚ_104-2" cx="-4039.49" cy="-5827.97" r="10.74" xlink:href="#_ÂÁ_Ï_ÌÌ_È_ËÂÌÚ_104"/><radialGradient id="_ÂÁ_Ï_ÌÌ_È_ËÂÌÚ_95" cx="-4053.03" cy="-5851.24" r="7.91" gradientTransform="translate(5657.26 -3286.13) rotate(-90) scale(0.84)" gradientUnits="userSpaceOnUse"><stop offset="0" stop-color="#230247"/><stop offset="0.06" stop-color="#210243"/><stop offset="1"/></radialGradient><radialGradient id="_ÂÁ_Ï_ÌÌ_È_ËÂÌÚ_194" cx="988.9" cy="696.73" r="608.25" gradientUnits="userSpaceOnUse"><stop offset="0" stop-color="#2d10f4"/><stop offset="1"/></radialGradient><radialGradient id="_ÂÁ_Ï_ÌÌ_È_ËÂÌÚ_406" cx="924.01" cy="546.47" r="299.57" gradientUnits="userSpaceOnUse"><stop offset="0.84" stop-color="#14376e"/><stop offset="1"/></radialGradient><radialGradient id="radial-gradient-2" cx="372.67" cy="150" r="265.28" gradientUnits="userSpaceOnUse"><stop offset="0" stop-color="#a62116"/><stop offset="0.23" stop-color="#73170f"/><stop offset="0.48" stop-color="#420d09"/><stop offset="0.7" stop-color="#1e0604"/><stop offset="0.88" stop-color="#080201"/><stop offset="1"/></radialGradient></defs><g class="cls-2"><g id="Capa_3" data-name="Capa 3"><g class="cls-3"><rect class="cls-1" x="-233.75" y="-50" width="1380" height="400"/><polygon class="cls-4" points="1468.85 300 1468.85 0 1361.06 0 1147.54 0 -451.15 0 -451.15 300 1468.85 300"/><rect class="cls-5" x="660.13" width="523.17" height="300"/><path class="cls-6" d="M1074.52,197l0,.16c0,.07,0,.13-.07.21s-.05.13-.08.21Z"/><path class="cls-7" d="M1123.89,188.7a1.33,1.33,0,1,1-1.33,1.33A1.33,1.33,0,0,1,1123.89,188.7Z"/><path class="cls-7" d="M884,184.51a1.33,1.33,0,1,1-1.33,1.32A1.33,1.33,0,0,1,884,184.51Z"/><path class="cls-7" d="M752.75,109.79a1.33,1.33,0,1,1-1.33,1.33A1.33,1.33,0,0,1,752.75,109.79Z"/><path class="cls-7" d="M776.65,254.2a1.33,1.33,0,1,1-1.33,1.33A1.34,1.34,0,0,1,776.65,254.2Z"/><path class="cls-7" d="M772.25,98.38a1.33,1.33,0,1,1-1.33,1.33A1.33,1.33,0,0,1,772.25,98.38Z"/><path class="cls-7" d="M882.19,68.24a1.33,1.33,0,1,1-1.33,1.32A1.32,1.32,0,0,1,882.19,68.24Z"/><path class="cls-7" d="M741.85,199.07a1.33,1.33,0,1,1-1.32,1.33A1.32,1.32,0,0,1,741.85,199.07Z"/><path class="cls-7" d="M1084,114.64a1.33,1.33,0,1,1-1.33,1.33A1.33,1.33,0,0,1,1084,114.64Z"/><path class="cls-8" d="M1167.19,170a3.66,3.66,0,1,1-3.66,3.66A3.66,3.66,0,0,1,1167.19,170Z"/><path class="cls-7" d="M1152.58,256.59a1.33,1.33,0,1,1-1.33,1.33A1.33,1.33,0,0,1,1152.58,256.59Z"/><path class="cls-7" d="M843.05,130.4a1.33,1.33,0,1,1-1.33,1.32A1.32,1.32,0,0,1,843.05,130.4Z"/><path class="cls-7" d="M756.71,286.3a1.33,1.33,0,1,1-1.33,1.33A1.34,1.34,0,0,1,756.71,286.3Z"/><path class="cls-7" d="M1205.68,167.81a1.33,1.33,0,1,1-1.33,1.33A1.32,1.32,0,0,1,1205.68,167.81Z"/><path class="cls-7" d="M1229.75,232.35a1.33,1.33,0,1,1-1.32,1.33A1.33,1.33,0,0,1,1229.75,232.35Z"/><path class="cls-7" d="M1199.07,149.32a1.33,1.33,0,1,1-1.32,1.32A1.32,1.32,0,0,1,1199.07,149.32Z"/><path class="cls-7" d="M1150.15,70a1.33,1.33,0,1,1-1.33,1.33A1.34,1.34,0,0,1,1150.15,70Z"/><path class="cls-8" d="M797,62.27A2.93,2.93,0,1,1,794,65.2,2.93,2.93,0,0,1,797,62.27Z"/><path class="cls-7" d="M1150,274.07a1.33,1.33,0,1,1-1.33,1.33A1.34,1.34,0,0,1,1150,274.07Z"/><path class="cls-7" d="M1046,88.11a1.33,1.33,0,1,1-1.33,1.33A1.34,1.34,0,0,1,1046,88.11Z"/><path class="cls-7" d="M1066.28,13.15a1.33,1.33,0,1,1-1.33,1.32A1.33,1.33,0,0,1,1066.28,13.15Z"/><path class="cls-7" d="M939.86,224.22a1.33,1.33,0,1,1-1.33,1.33A1.33,1.33,0,0,1,939.86,224.22Z"/><path class="cls-7" d="M1120,277a1.33,1.33,0,1,1-1.33,1.32A1.33,1.33,0,0,1,1120,277Z"/><path class="cls-9" d="M1154.64,162.38c17.43-13.27,37.12,6.43,23.85,23.85h0C1161.07,199.5,1141.37,179.8,1154.64,162.38Z"/><path class="cls-10" d="M1120,272.85a5.47,5.47,0,1,1-5.46,5.46A5.46,5.46,0,0,1,1120,272.85Z"/><path class="cls-11" d="M772.25,90.77a9,9,0,1,1-9,9A9,9,0,0,1,772.25,90.77Z"/><path class="cls-12" d="M752.75,104.48a6.64,6.64,0,1,1-6.63,6.64A6.63,6.63,0,0,1,752.75,104.48Z"/><path class="cls-13" d="M1359.8,274.62V300H532.57a294.85,294.85,0,0,1-18.5-33q-2.31-4.83-4.41-9.7C631,177.33,774,131.6,926.79,132.55,1087.06,133.54,1235.86,185.75,1359.8,274.62Z"/><path class="cls-14" d="M1092.2,300H751.08a685.64,685.64,0,0,1,341.12,0Z"/><path class="cls-15" d="M694.13,300H44.94C12.78,200.42,29.1,89,90.1,0H665.51C722.82,90.72,731.12,202,694.13,300Z"/><rect class="cls-1" x="55.33" width="1280" height="300"/></g></g></g></svg>