<svg xmlns="http://www.w3.org/2000/svg" xmlns:xlink="http://www.w3.org/1999/xlink" viewBox="0 0 923.75 300"><defs><style>.cls-1{fill:none;}.cls-2{isolation:isolate;}.cls-3{clip-path:url(#clip-path);}.cls-10,.cls-11,.cls-12,.cls-13,.cls-14,.cls-15,.cls-16,.cls-17,.cls-18,.cls-19,.cls-21,.cls-22,.cls-23,.cls-24,.cls-25,.cls-26,.cls-27,.cls-28,.cls-29,.cls-30,.cls-31,.cls-32,.cls-34,.cls-35,.cls-36,.cls-38,.cls-4,.cls-6,.cls-7,.cls-8,.cls-9{fill-rule:evenodd;}.cls-4{fill:url(#_ÂÁ_Ï_ÌÌ_È_ËÂÌÚ_802);}.cls-5{clip-path:url(#clip-path-2);}.cls-6{fill:#3a0d16;}.cls-7{fill:#27080f;}.cls-8{fill:#4d111e;}.cls-9{fill:url(#Áåçûìÿííûé_ãðàäèåíò_29);}.cls-10,.cls-12,.cls-15,.cls-18,.cls-32,.cls-36,.cls-38{mix-blend-mode:multiply;}.cls-10,.cls-12,.cls-15{opacity:0.8;}.cls-10{fill:url(#Áåçûìÿííûé_ãðàäèåíò_52);}.cls-11{fill:url(#Áåçûìÿííûé_ãðàäèåíò_29-2);}.cls-12{fill:url(#Áåçûìÿííûé_ãðàäèåíò_43);}.cls-13{fill:url(#Áåçûìÿííûé_ãðàäèåíò_29-3);}.cls-14{fill:url(#Áåçûìÿííûé_ãðàäèåíò_29-4);}.cls-15{fill:url(#Áåçûìÿííûé_ãðàäèåíò_43-2);}.cls-16{fill:url(#Áåçûìÿííûé_ãðàäèåíò_29-5);}.cls-17{fill:url(#Áåçûìÿííûé_ãðàäèåíò_59);}.cls-18{opacity:0.47;fill:url(#Áåçûìÿííûé_ãðàäèåíò_52-2);}.cls-19{fill:#9a223b;}.cls-20{clip-path:url(#clip-path-3);}.cls-21{mix-blend-mode:screen;opacity:0.72;fill:url(#radial-gradient);}.cls-22{fill:url(#_ÂÁ_Ï_ÌÌ_È_ËÂÌÚ_825);}.cls-23{fill:url(#_ÂÁ_Ï_ÌÌ_È_ËÂÌÚ_825-2);}.cls-24{fill:url(#_ÂÁ_Ï_ÌÌ_È_ËÂÌÚ_817);}.cls-25{fill:url(#_ÂÁ_Ï_ÌÌ_È_ËÂÌÚ_817-2);}.cls-26{fill:url(#_ÂÁ_Ï_ÌÌ_È_ËÂÌÚ_825-3);}.cls-27{fill:url(#_ÂÁ_Ï_ÌÌ_È_ËÂÌÚ_825-4);}.cls-28{fill:url(#_ÂÁ_Ï_ÌÌ_È_ËÂÌÚ_717);}.cls-29{fill:url(#_ÂÁ_Ï_ÌÌ_È_ËÂÌÚ_717-2);}.cls-30{fill:url(#_ÂÁ_Ï_ÌÌ_È_ËÂÌÚ_729);}.cls-31{fill:url(#_ÂÁ_Ï_ÌÌ_È_ËÂÌÚ_729-2);}.cls-32,.cls-36{opacity:0.2;}.cls-32{fill:url(#_ÂÁ_Ï_ÌÌ_È_ËÂÌÚ_362);}.cls-33,.cls-37{fill:#fff;mix-blend-mode:soft-light;}.cls-34{fill:url(#_ÂÁ_Ï_ÌÌ_È_ËÂÌÚ_817-3);}.cls-35{fill:url(#_ÂÁ_Ï_ÌÌ_È_ËÂÌÚ_817-4);}.cls-36{fill:url(#_ÂÁ_Ï_ÌÌ_È_ËÂÌÚ_362-2);}.cls-37,.cls-38{opacity:0.5;}.cls-38{fill:url(#_ÂÁ_Ï_ÌÌ_È_ËÂÌÚ_366);}</style><clipPath id="clip-path"><rect class="cls-1" x="-1456.02" width="1380" height="300"/></clipPath><radialGradient id="_ÂÁ_Ï_ÌÌ_È_ËÂÌÚ_802" cx="-1264.55" cy="2007.59" r="902.41" gradientTransform="translate(637.2 -1511.62) scale(1.24 0.82)" gradientUnits="userSpaceOnUse"><stop offset="0" stop-color="#6872b2"/><stop offset="1" stop-color="#5f346f"/></radialGradient><clipPath id="clip-path-2"><rect class="cls-1" x="-1456.02" y="363.45" width="1380" height="300"/></clipPath><linearGradient id="Áåçûìÿííûé_ãðàäèåíò_29" x1="23.37" y1="342.12" x2="23.37" y2="284.09" gradientUnits="userSpaceOnUse"><stop offset="0" stop-color="#d65629"/><stop offset="1" stop-color="#ff914f"/></linearGradient><linearGradient id="Áåçûìÿííûé_ãðàäèåíò_52" x1="22.29" y1="334.5" x2="22.29" y2="284.09" gradientUnits="userSpaceOnUse"><stop offset="0" stop-color="#fff"/><stop offset="1" stop-color="#cc6670"/></linearGradient><linearGradient id="Áåçûìÿííûé_ãðàäèåíò_29-2" x1="53.19" y1="552.25" x2="53.19" y2="297.98" xlink:href="#Áåçûìÿííûé_ãðàäèåíò_29"/><linearGradient id="Áåçûìÿííûé_ãðàäèåíò_43" x1="48.5" y1="313.44" x2="48.5" y2="297.98" gradientUnits="userSpaceOnUse"><stop offset="0" stop-color="#cc6670"/><stop offset="1" stop-color="#fff"/></linearGradient><linearGradient id="Áåçûìÿííûé_ãðàäèåíò_29-3" x1="13.91" y1="562.33" x2="13.91" y2="292.8" xlink:href="#Áåçûìÿííûé_ãðàäèåíò_29"/><linearGradient id="Áåçûìÿííûé_ãðàäèåíò_29-4" x1="16.33" y1="297.98" x2="16.33" y2="284.09" xlink:href="#Áåçûìÿííûé_ãðàäèåíò_29"/><linearGradient id="Áåçûìÿííûé_ãðàäèåíò_43-2" x1="22.29" y1="319.73" x2="22.29" y2="289.25" xlink:href="#Áåçûìÿííûé_ãðàäèåíò_43"/><linearGradient id="Áåçûìÿííûé_ãðàäèåíò_29-5" x1="2.49" y1="301.72" x2="2.49" y2="292.16" xlink:href="#Áåçûìÿííûé_ãðàäèåíò_29"/><radialGradient id="Áåçûìÿííûé_ãðàäèåíò_59" cx="120.06" cy="-8834.34" r="6.68" gradientTransform="matrix(1.01, 0.04, 0.04, -0.93, 224.78, -7899.78)" gradientUnits="userSpaceOnUse"><stop offset="0" stop-color="#ff6e31"/><stop offset="1" stop-color="#d64a29"/></radialGradient><linearGradient id="Áåçûìÿííûé_ãðàäèåíò_52-2" x1="-6.41" y1="299.01" x2="11.38" y2="299.01" xlink:href="#Áåçûìÿííûé_ãðàäèåíò_52"/><clipPath id="clip-path-3"><rect class="cls-1" width="923.75" height="300"/></clipPath><radialGradient id="radial-gradient" cx="479.48" cy="149.46" r="193.89" gradientUnits="userSpaceOnUse"><stop offset="0" stop-color="#00006b"/><stop offset="0.51" stop-color="#314ec6"/><stop offset="0.6" stop-color="#3756c9"/><stop offset="0.74" stop-color="#476bd0"/><stop offset="0.9" stop-color="#628edd"/><stop offset="1" stop-color="#74a6e5"/></radialGradient><linearGradient id="_ÂÁ_Ï_ÌÌ_È_ËÂÌÚ_825" x1="205.06" y1="313.42" x2="205.06" y2="-2.62" gradientUnits="userSpaceOnUse"><stop offset="0.01" stop-color="#623b86"/><stop offset="1" stop-color="#1a013f"/></linearGradient><linearGradient id="_ÂÁ_Ï_ÌÌ_È_ËÂÌÚ_825-2" x1="753.9" y1="312.28" x2="753.9" y2="-2.61" xlink:href="#_ÂÁ_Ï_ÌÌ_È_ËÂÌÚ_825"/><linearGradient id="_ÂÁ_Ï_ÌÌ_È_ËÂÌÚ_817" x1="222.97" y1="309.87" x2="222.97" y2="-1.46" gradientUnits="userSpaceOnUse"><stop offset="0" stop-color="#9b8bc2"/><stop offset="1" stop-color="#2f0c66"/></linearGradient><linearGradient id="_ÂÁ_Ï_ÌÌ_È_ËÂÌÚ_817-2" x1="735.98" y1="309.87" x2="735.98" y2="-1.46" xlink:href="#_ÂÁ_Ï_ÌÌ_È_ËÂÌÚ_817"/><linearGradient id="_ÂÁ_Ï_ÌÌ_È_ËÂÌÚ_825-3" x1="261.62" y1="303.95" x2="261.62" y2="-0.54" xlink:href="#_ÂÁ_Ï_ÌÌ_È_ËÂÌÚ_825"/><linearGradient id="_ÂÁ_Ï_ÌÌ_È_ËÂÌÚ_825-4" x1="697.34" y1="303.95" x2="697.34" y2="-0.54" xlink:href="#_ÂÁ_Ï_ÌÌ_È_ËÂÌÚ_825"/><linearGradient id="_ÂÁ_Ï_ÌÌ_È_ËÂÌÚ_717" x1="264.43" y1="303.64" x2="264.43" y2="-0.55" gradientUnits="userSpaceOnUse"><stop offset="0" stop-color="#2f0c66"/><stop offset="1" stop-color="#4d4c98"/></linearGradient><linearGradient id="_ÂÁ_Ï_ÌÌ_È_ËÂÌÚ_717-2" x1="694.53" y1="303.64" x2="694.53" y2="-0.55" xlink:href="#_ÂÁ_Ï_ÌÌ_È_ËÂÌÚ_717"/><linearGradient id="_ÂÁ_Ï_ÌÌ_È_ËÂÌÚ_729" x1="281.07" y1="301.31" x2="281.07" y2="-0.54" gradientUnits="userSpaceOnUse"><stop offset="0" stop-color="#7198d4"/><stop offset="1" stop-color="#2f0c6e"/></linearGradient><linearGradient id="_ÂÁ_Ï_ÌÌ_È_ËÂÌÚ_729-2" x1="677.87" y1="301.31" x2="677.87" y2="-0.54" xlink:href="#_ÂÁ_Ï_ÌÌ_È_ËÂÌÚ_729"/><linearGradient id="_ÂÁ_Ï_ÌÌ_È_ËÂÌÚ_362" x1="677.89" y1="1006.1" x2="677.89" y2="-0.54" gradientUnits="userSpaceOnUse"><stop offset="0" stop-color="#f8dcd0"/><stop offset="1" stop-color="#7d174f"/></linearGradient><linearGradient id="_ÂÁ_Ï_ÌÌ_È_ËÂÌÚ_817-3" x1="783.87" y1="861.33" x2="783.87" y2="-3.08" xlink:href="#_ÂÁ_Ï_ÌÌ_È_ËÂÌÚ_817"/><linearGradient id="_ÂÁ_Ï_ÌÌ_È_ËÂÌÚ_817-4" x1="163.01" y1="305.25" x2="163.01" y2="132" xlink:href="#_ÂÁ_Ï_ÌÌ_È_ËÂÌÚ_817"/><linearGradient id="_ÂÁ_Ï_ÌÌ_È_ËÂÌÚ_362-2" x1="783.88" y1="270.13" x2="783.88" y2="-3.08" xlink:href="#_ÂÁ_Ï_ÌÌ_È_ËÂÌÚ_362"/><linearGradient id="_ÂÁ_Ï_ÌÌ_È_ËÂÌÚ_366" x1="638.8" y1="266.48" x2="638.8" y2="-0.54" gradientUnits="userSpaceOnUse"><stop offset="0.02" stop-color="#f3bbb2"/><stop offset="0.99" stop-color="#742537"/></linearGradient></defs><g class="cls-2"><g id="Capa_3" data-name="Capa 3"><g class="cls-3"><polygon class="cls-4" points="12.83 300 12.83 0 -94.97 0 -308.49 0 -1907.17 0 -1907.17 300 12.83 300"/></g><g class="cls-5"><path class="cls-6" d="M-1576.54,298h-16.75v414.9c133.41,6.16,267.08,2.72,400.6,5q409.4,7.16,818.78,9.1,209.46,1.17,418.75-1.37V298H24.54"/><path class="cls-6" d="M11.1,292.8c-.13,1.27-.25,2.53-.38,3.79-.53.3-1.48.81-2.76,1.39H4.1q.18-2.91.34-5.82C4.26,294.09,4.1,296,4,298h-14.6"/><path class="cls-6" d="M21,284.09Q20.88,291,21,298H20.9c-.58-2.61-1.21-5.44-1.93-8.73.5,3.27.94,6.11,1.35,8.73H11.85c0-3.67-.1-7.34-.2-11"/><path class="cls-7" d="M21,284.09Q20.88,291,21,298H20.9c-.58-2.61-1.21-5.44-1.93-8.73.5,3.27.94,6.11,1.35,8.73H11.85c0-3.67-.1-7.34-.2-11-.18,1.95-.37,3.89-.55,5.83-.13,1.27-.25,2.53-.38,3.79-.05.47-.09.93-.14,1.39,0,.23-.05.47-.07.7s0,.52-.08.78c-.15,1.5-.3,3-.46,4.51,0,.54,0,.92-.06,1.33,0,.26,0,.52,0,.84a.91.91,0,0,0,0,.17c.11,1.09.22,2.18.31,3.27.05.58.1,1.15.14,1.73.14,1.77.26,3.54.35,5.31.05.88.1,1.76.13,2.63,0,.31,0,.61,0,.92,0,1.12.08,2.24.1,3.36a2.77,2.77,0,0,1,0,.41,2.44,2.44,0,0,1,0,.27q.15,6,0,12a4.13,4.13,0,0,1,0,.5,3.05,3.05,0,0,1,0,.43c0,.45,0,.89,0,1.34s0,.93,0,1.4c-.27,9.2-.91,18.42-1.71,27.62C8.64,373.66,8,379.83,7.37,386c-.08.77-.16,1.53-.25,2.29,0,.23,0,.46-.07.69a.88.88,0,0,1,0,.17c-.08.79-.16,1.57-.25,2.35h0c0,.34-.07.67-.1,1-.06.54-.12,1.08-.17,1.62-.08.72-.15,1.43-.23,2.14l-.18.5c-.27,3.05-.4,4.57-.67,7.62l-.1,2.31c.16,1.41.3,2.82.43,4.24q.5,5.2.74,10.43c.06,1.06.11,2.11.14,3.17a2.26,2.26,0,0,1,0,.26c.23,6.21.22,12.44,0,18.67,0,1.27-.08,2.53-.15,3.8,0,.2,0,.41,0,.62,0,1-.1,2.05-.17,3.08,0,.21,0,.42,0,.64s0,.16,0,.25c-.15,2.45-.33,4.89-.53,7.34Q5.06,467.42,4,475.62q-.37,2.92-.8,5.85s0,.1,0,.16q-.36,2.47-.75,4.95s0,.06,0,.09l-.21,1.38c-.15.88-.29,1.76-.44,2.64l-.27,1.61c-.11,2.44-.16,3.66-.27,6.1.63.4,1.24.77,1.82,1.1l.08.05c.46,8.09.54,16.22.35,24.37-.07,3.6-.2,7.2-.37,10.8,0,1.07-.11,2.13-.17,3.19,0,.77-.08,1.54-.13,2.31v.14c-.34,5.75-.77,11.5-1.25,17.24q-.3,3.61-.63,7.21c0,.13,0,.26,0,.39-.09,1.08-.19,2.16-.29,3.24,0,.24,0,.49-.07.73,0,.07,0,.14,0,.2-.07.73-.13,1.46-.2,2.19l0,.32c0,.39-.08.78-.11,1.16-.13,1.35-.26,2.7-.38,4q-.32,3.2-.61,6.37-.36,3.75-.7,7.47h0l-.3,3.47c0,1-.06,1.43-.11,2.38,0,.4.05.6.09,1,.1,1,.19,2.08.27,3.13C0,620.83-.94,641-3,661c-.11,1.06-.23,2.12-.35,3.18,0,.29,0,.57-.09.85,0,.05,0,.09,0,.13h0c-.07.75-.16,1.49-.25,2.23,0,.23,0,.45-.08.68s0,.49-.08.73q-.94,7.93-2.06,15.82c-.12,2.5-.17,3.75-.29,6.26q.33,6.52.43,13.06c.13,7.42,0,14.85-.2,22.28l13.81-.15c1.07-12.69,2.74-25.31,4.66-37.71,0-1.27.07-1.9.12-3.16q-.63-8.78-.93-17.53c0-.2,0-.41,0-.62,0-.49,0-1-.05-1.49,0-.85-.06-1.71-.07-2.57a0,0,0,0,1,0,0c0-.3,0-.61,0-.91a0,0,0,0,1,0,0,351.54,351.54,0,0,1,3.73-61.61.5.5,0,0,1,0-.12,0,0,0,0,1,0,0c.16-1,.33-2.11.5-3.16,0-1.28.07-1.92.12-3.2-.12-1.63-.23-3.27-.34-4.9-.08-1.22-.15-2.44-.22-3.66q-.51-8.68-.74-17.35c-.06-1.91-.1-3.82-.11-5.73,0-.67,0-1.35,0-2q-.06-4.87,0-9.72.09-8.06.5-16.09c.05-.83.09-1.67.14-2.5.07-1.23.15-2.47.23-3.7.55-8,1.35-15.93,2.45-23.89.07-.58.15-1.15.23-1.72a0,0,0,0,0,0,0c.17-1.18.35-2.35.53-3.52a50.54,50.54,0,0,0,4.83-3.76l0,0,.1-3s0-.05,0-.08a181.49,181.49,0,0,1-2.24-21.28l0-.72h0a.34.34,0,0,1,0-.1c-.05-1.13-.09-2.27-.12-3.41,0-.32,0-.63,0-.95s0-.4,0-.6c-.07-3.27-.06-6.55,0-9.82q0-1.5.09-3a1.69,1.69,0,0,1,0-.23c0-1.25.1-2.5.17-3.74,0-.11,0-.22,0-.33,0-.54.06-1.07.1-1.6s.07-1.24.11-1.86l.15-2.18c.49-6.42,1.2-12.83,2.09-19.2q.8-5.76,1.77-11.47c.22-1.26.36-2.05.6-3.46l.1-3.06c-.17-.91-.33-1.82-.49-2.73a238.1,238.1,0,0,1-2.58-26.09c-.21-6.38-.14-12.79.17-19.2q.19-4.33.54-8.66c0-.18,0-.35.05-.52s0-.45.05-.67c.17-2.1.36-4.18.58-6.27,0-.33.07-.67.11-1a.34.34,0,0,1,0-.14c.48-4.64,1.08-9.27,1.76-13.86.13-.93.27-1.86.42-2.78a.77.77,0,0,1,0-.15h0c.21-1.35.42-2.69.65-4h0a.13.13,0,0,1,0-.06q.9-5.46,1.93-10.84l.1-3.11q-.52-3.54-.93-7.09H24.54"/><path class="cls-8" d="M-12,298c.11.92.21,1.85.3,2.77s.18,1.63.26,2.45c0,.33.07.65.1,1q.38,3.76.67,7.56v0a267.27,267.27,0,0,1,.3,39.41,237.86,237.86,0,0,1-3.59,26c-.2.9-.39,1.81-.6,2.71,0,1.22,0,1.83,0,3,.19,1.43.3,2.23.47,3.51,3.47,26.7,4.41,54.09-1.05,80.58,0,1.21,0,1.81,0,3a49.81,49.81,0,0,0,4.71,4l0,.27q.38,3.31.68,6.62.15,1.51.27,3c0,.19,0,.39.05.58.11,1.28.21,2.57.3,3.85l.12,1.74,0,.45c.07,1,.13,2.05.18,3.07,1.33,23.62.25,47.16-2.24,70.88,0,.5-.1,1-.16,1.5a.88.88,0,0,1,0,.16c-.09.9-.19,1.8-.29,2.7V572c0,.22.06.45.08.67,3.6,29.23,2.88,58.24-.35,87.49,0,1,0,1.64,0,2.52v.64l.3,2.6c0,.22.05.44.07.67l.27,2.38c2,18.85,3.36,38.14,2.81,57.26,4.63,0,9.25-.1,13.88-.15-.31-9.78-.44-19.58-.28-29.36s.6-19.29,1.44-28.88c0-.19,0-.39,0-.58l.06-.68v-.24c0-1.26,0-2.21,0-3.18a.45.45,0,0,0,0-.11v-.66c0-.62,0-1.29,0-2.08C6.3,655.9,5.88,651.43,5.5,647c-.83-10-1.42-20-1.61-30,0-.15,0-.31,0-.47-.19-9.59,0-19.19.7-28.72.06-.86.13-1.71.2-2.56q.5-5.92,1.27-11.8c0-.4.08-.6.12-1,0-1,0-1.43,0-2.38-.06-1.12-.09-1.79-.13-2.73,0-.23,0-.48,0-.75H6q-.17-3.19-.35-6.41c-.07-1.29-.14-2.58-.22-3.87-.33-6-.67-12-1-18,0-.52-.06-1-.08-1.56,0-1-.1-2-.14-3q-.32-6.88-.5-13.78c-.23-8.36-.28-16.71,0-25q.1-3.56.28-7.09c.09-1.82.2-3.63.32-5.44a1.49,1.49,0,0,1,0-.21q.24-3.56.58-7.1c.63-.32,1.27-.68,2-1.07,0-2.45,0-3.67,0-6.11-.38-2.89-.73-5.78-1-8.69-.29-2.61-.56-5.22-.79-7.84,0-.15,0-.3,0-.45s0-.42,0-.62q-.15-1.61-.27-3.21c0-.15,0-.3,0-.45-.08-1-.15-1.94-.21-2.92q-.25-3.48-.42-7c0-.34,0-.68-.05-1s0-.78,0-1.16c-.07-1.45-.12-2.9-.16-4.35q-.21-6.45-.13-12.89c0-1.74.06-3.49.11-5.23.16-5.26.46-10.51.94-15.75,0-.46.08-.93.13-1.4s.08-.87.13-1.31.06-.67.1-1c0-.14,0-.29,0-.43H5c.09-.82.19-1.64.29-2.45,0-.2,0-.4.07-.59,0,0,0,0,0-.05q.42-3.48.94-6.93c0-.92,0-1.39,0-2.31-.14-3.06-.22-4.58-.36-7.64l-.17-.5c-.1-1.44-.19-2.88-.29-4.33,0-.84-.11-1.68-.17-2.52-.83-12.57-1.63-25.27-1.88-38a.33.33,0,0,1,0-.1c0-.83,0-1.66,0-2.49,0-.4,0-.79,0-1.19s0-.88,0-1.32v-.11c0-1,0-2,0-3v-.36c0-.63,0-1.25,0-1.88q0-4.24.16-8.47,0-.86.06-1.71s0,0,0,0q0-.36,0-.72c.06-1.6.13-3.19.23-4.78,0-.22,0-.45,0-.67a3.55,3.55,0,0,1,0-.46c0-.55.06-1.09.11-1.63h-14.6"/><path class="cls-8" d="M21,284.09Q21.6,291,22,298c.11,2,.2,3.95.27,5.93.1,2.49.18,5,.22,7.47q.07,3.08.08,6.13c0,.4,0,.79,0,1.19V320c0,1.26,0,2.51,0,3.77v.68c0,.22,0,.44,0,.66s0,.22,0,.33q-.12,6.88-.5,13.77a4.36,4.36,0,0,1,0,.51c0,.31,0,.63-.05.94q-.19,3.34-.47,6.69c0,.34-.05.68-.09,1a.49.49,0,0,1,0,.12q-.7,8.43-1.87,16.85c0,1.28,0,1.92,0,3.2,2.37,24.23,3.35,48.24,1.88,72.29-.08,1.23-.16,2.45-.25,3.68l-.15,2.08c0,.53-.09,1.07-.13,1.6l0,.36c-.11,1.26-.22,2.51-.34,3.77a1.64,1.64,0,0,1,0,.22c-.08.92-.17,1.83-.27,2.75q-.42,4.05-.94,8.11c-.58.41-1.17.86-1.79,1.36l-.24.19-.49.41c-.51.41-1,.86-1.56,1.34l-.68.61c0,1.2,0,1.8,0,3q1.19,6.18,1.92,12.41.84,7,1.17,14.1c.12,2.51.19,5,.23,7.54.11,8-.2,16.08-.84,24.09-.09,1.24-.2,2.49-.32,3.73q-.1,1.29-.24,2.58c-.52,5.28-1.17,10.54-1.92,15.78,0,.12,0,.25-.05.37-.19,1.27-.3,2.07-.51,3.49,0,1.22,0,1.83,0,3.05.19.91.38,1.81.56,2.72,0,0,0,.06,0,.09.1.54.22,1.2.36,2,.25,1.43.54,3.26.86,5.45,0,.23.07.47.11.72.23,1.66.48,3.5.72,5.52.43,3.58.84,7.7,1.17,12.24.2,3.43.32,6.88.36,10.33q.06,4.17,0,8.36a1,1,0,0,1,0,.17,351.25,351.25,0,0,1-4.9,49.49c0,1.24,0,1.86,0,3.11.25,1.43.49,2.87.7,4.31,0,0,0,0,0,0,0,.3.1.61.14.92a2.87,2.87,0,0,1,0,.31c.12.81.24,1.62.35,2.43.07.56.15,1.13.22,1.69,0,.12,0,.23,0,.35,2.42,19.21,2.29,38.85.87,58.31l14.2-.16c0-.32,0-.64,0-1,0-1.53,0-3,0-4.57,0-.34,0-.69,0-1,0-1.16,0-2.33,0-3.49,0-.21,0-.41,0-.62v-.25c.3-18.94,1.55-37.9,3-56.68l.05-2.34A274.64,274.64,0,0,1,31,613.09c0-1.27.08-2.54.13-3.81,0-.81.06-1.62.1-2.43.11-2.8.26-5.59.41-8.39q.19-3.13.4-6.27c.37-5.64.8-11.26,1.24-16.86.21-2.63.42-5.26.63-7.87,0-.52.09-1.05.13-1.57.06-.16.11-.33.17-.5.19-3,.28-4.58.47-7.63,0-.92,0-1.39,0-2.31-3.76-27.29-2.52-55.37,1.24-82.62.12-.88.25-1.76.38-2.64l.06-.45v0c0-.15,0-.29,0-.42,0-1.51,0-2.56.08-3.84,0-.22,0-.45,0-.69s0-.58,0-.89a1.93,1.93,0,0,0,0-.24l-.56-.33c-.47-.28-.92-.53-1.37-.77a378.26,378.26,0,0,1-.42-48c.44-9.86,1.11-19.71,1.79-29.51.32-4.67.65-9.32,1-14h0c.09-1.39.13-2.09.21-3.48l.05-2.38c0-.4-.06-.6-.11-1q-.7-5.94-1.12-11.91c-.07-1-.13-2-.18-3,0-.3,0-.6-.06-.9,0-.67-.07-1.34-.09-2-.08-1.43-.13-2.87-.17-4.31,0,0,0,0,0,0,0-.72,0-1.44-.07-2.17s0-1.16,0-1.74c0-1.94-.06-3.88-.06-5.83,0-7.23.24-14.48.66-21.71q.38-6.35.91-12.65H24.54"/><path class="cls-9" d="M24.54,298h6.23c1.12,13.5,2.72,26.94,4.57,40.19.09.68.18,1.36.28,2a2.36,2.36,0,0,0,0,.28c0,.18.05.35.07.52s0,.18,0,.27l.12.84-.45,0c-4-.25-7.29-.54-10.4-1l-.48-.07c-.89-.12-1.77-.25-2.65-.4-3.26-.53-6.65-1.24-11-2.21l-.09,0a1.48,1.48,0,0,0,0-.21q.08-1,.12-2,.36-5.93.56-11.87c0-.1,0-.2,0-.3s0-.26,0-.38c0-1.12.08-2.23.11-3.35,0-.3,0-.6,0-.9,0-.95.05-1.9.06-2.85q.2-9.27.1-18.55h8.47c-.41-2.62-.85-5.46-1.35-8.73.72,3.29,1.35,6.12,1.93,8.73H21q-.09-6.94.05-13.89"/><path class="cls-10" d="M23.1,298q.09,5.2.16,10.39c0,3,.09,5.92.13,8.87,0,.17,0,.34,0,.5s0,.49,0,.73c0,.46,0,.92,0,1.38l.06,3.79c0,.2,0,.41,0,.61,0,.44,0,.89,0,1.33,0,3,.09,5.95.13,8.92Q23,330,22.53,325.44l0-.33c0-.22-.05-.43-.07-.65s-.05-.45-.07-.67c-.12-1.24-.24-2.48-.33-3.72-.05-.41-.08-.81-.11-1.22s-.08-1-.11-1.51q-.55-7.3-.75-14.63-.06-2.2-.09-4.41c0-.11,0-.22,0-.32q-.09-6.94.05-13.89"/><path class="cls-11" d="M50.84,298H68q.25,7.44.58,14.86l-.05,2.9c0,.08,0,.15,0,.22-5.94,36.43-3.93,74.58-2.27,111.53.14,3.2.28,6.4.42,9.58,0,.21,0,.32,0,.54l0,2.88c0,.15-.05.28-.07.4-6,34.84-5.44,71-1.6,106-.56.38-1.1.74-1.63,1.08l-.43.27c-.39.25-.77.48-1.14.7a30.35,30.35,0,0,1-4.32,2.15l-.36.14a13.24,13.24,0,0,1-8.48.52,15.48,15.48,0,0,1-2.58-1c-.39-.17-.79-.37-1.2-.59-.64-.34-1.29-.73-2-1.17a53.35,53.35,0,0,1-5.13-3.81c7.45-32.52,7.07-66.32,3.55-99.37,0-.37-.08-.71-.12-1s-.06-.6-.1-.9l-.09-.85c0-.19,0-.38-.07-.58l0-.3c0-.21,0-.42-.07-.63s0-.46-.08-.72l.1-3.79a1.94,1.94,0,0,0,0-.2c.28-1.11.55-2.22.81-3.34l.2-.9q1.74-7.51,2.94-15.16,1.3-8.25,2.06-16.6c2.37-26.1,1-52.77-2.06-78.52-.19-1.65-.39-3.31-.6-5,0-.25-.07-.53-.11-.84l.1-3.86c0-.19.08-.36.11-.51.17-.83.34-1.65.5-2.48Q46,303.88,46.9,298h3"/><path class="cls-12" d="M50.84,298c-.79,4.2-1.56,8.3-2.56,13.51l-.12.66c-.08.42-.17.85-.25,1.29-.7-.53-1-.81-1.75-1.36v0l.15-.55c1.41-5.29,2.48-9.37,3.55-13.53"/><path class="cls-13" d="M24.54,298q1.09,10.49,3,20.83a1.55,1.55,0,0,0,0,.21s0,.05,0,.07V323c0,.16,0,.31-.07.45q-1.26,8.18-2.31,16.48l0,.26c0,.31-.08.62-.11.93q-.39,3.09-.73,6.19c0,.21,0,.42-.07.64l-.06.58q-.46,4.31-.84,8.64c-1.93,22-2.2,44.24.43,66,.87,7.23,2.06,14.4,3.62,21.49,0,.17.07.33.11.5s.06.25.09.4c0,1.54,0,2.31,0,3.86-.1.76-.19,1.38-.28,2,0,.19-.05.38-.08.57s0,.19,0,.29-.05.39-.08.58-.05.4-.08.62q-.81,5.86-1.46,11.76c0,.24-.06.47-.08.71-.06.49-.11,1-.17,1.47-.09.94-.19,1.87-.28,2.81,0,0,0,.09,0,.14,0,.23-.05.47-.06.7h0c-.69,7-1.21,14.09-1.51,21.15q-.07,1.56-.12,3.12c-.69,20.19.45,40.42,4.44,60.26a48.21,48.21,0,0,1-6.68,4.51h0a22.47,22.47,0,0,1-3.5,1.53,15.81,15.81,0,0,1-1.57.41,10.62,10.62,0,0,1-1.24.19l-.33,0a15.33,15.33,0,0,1-8.5-2l-.32-.16q-.67-.36-1.38-.78l-.1-.06c-.84-.49-1.71-1-2.61-1.67-.42-.29-.86-.59-1.3-.91l-.19-.14c0-.33.09-.65.13-1,1.41-10.47,2.54-21,3.28-31.65.1-1.33.19-2.67.27-4,.62-10,.89-20,.75-30,0-.58,0-1.16,0-1.74,0-1.94-.09-3.87-.16-5.8a1.7,1.7,0,0,0,0-.22q-.11-3.25-.29-6.51-.45-8-1.28-15.9c-.37-3.49-.81-7-1.3-10.44,0-.12,0-.23,0-.35s-.06-.37-.09-.6c0-1.17,0-1.75,0-2.92a.87.87,0,0,1,0-.11v0l0-.39c.22-3.24.45-6.48.68-9.74.55-7.64,1.12-15.34,1.63-23.07q.52-7.86.94-15.75c0-.92.09-1.83.14-2.74,0-.32,0-.64,0-1,0-.12,0-.25,0-.37,0-.49,0-1,.07-1.48,0-.31,0-.62,0-.93s0-.38,0-.57,0-.11,0-.17c.31-7.25.5-14.5.52-21.73A340.09,340.09,0,0,0,3.4,326.78c-.1-.85-.2-1.7-.31-2.55s-.23-1.83-.36-2.73c0-1.18,0-1.77,0-2.95q.36-5.28.71-10.58c0-.57.08-1.14.11-1.71h0c0-.25,0-.49.05-.73l.3-4.81c0-.22,0-.44,0-.65l0-.5L4.1,298H8c1.28-.58,2.23-1.09,2.76-1.39.13-1.26.25-2.52.38-3.79"/><path class="cls-14" d="M11.65,287c.1,3.67.16,7.34.2,11h8.47c-.41-2.62-.85-5.46-1.35-8.73.72,3.29,1.35,6.12,1.93,8.73H21q-.09-6.94.05-13.89"/><path class="cls-15" d="M25.61,318.39h0c-.71.55-1.07.82-1.8,1.34-.07-.45-.14-.88-.21-1.31,0-.22-.08-.44-.11-.66l-.09-.52c-.34-2.1-.65-4-.94-5.86-.49-3-.94-5.8-1.39-8.67-.24-1.53-.48-3.09-.74-4.73-.41-2.62-.85-5.46-1.35-8.73.72,3.29,1.35,6.12,1.93,8.73,0,.11.05.22.07.32.43,1.95.85,3.79,1.26,5.61l1,4.46c.66,2.86,1.37,5.89,2.21,9.44C25.52,318,25.56,318.19,25.61,318.39Z"/><path class="cls-16" d="M11.38,299.26l-1,.2c-2.49.53-4.53.94-6.49,1.25l-.14,0a89,89,0,0,1-10.21,1c0-.1,0-.19,0-.27s0-.23,0-.34l0-.18c0-.12,0-.24,0-.36.13-.86.26-1.72.38-2.59H4c.12-2,.28-3.89.46-5.82q-.17,2.91-.34,5.82H8c1.28-.58,2.23-1.09,2.76-1.39.13-1.26.25-2.52.38-3.79.05,1.73.13,3.46.22,5.18,0,.25,0,.5,0,.75a0,0,0,0,0,0,0C11.36,298.93,11.37,299.07,11.38,299.26Z"/><path class="cls-17" d="M-6.41,301.73l-.1,3a75,75,0,0,0,17.65.48c.09-2.38.14-3.57.24-6A93,93,0,0,1-6.41,301.73Z"/><path class="cls-18" d="M11.38,299.26l-1,.2c-2.49.53-4.53.94-6.49,1.25l-.14,0a89,89,0,0,1-10.21,1A39,39,0,0,0,2,300.2c.65-.19,1.27-.39,1.86-.59l.14-.05c1.52-.52,2.86-1.08,4-1.58,1.28-.58,2.23-1.09,2.76-1.39l.49-.29.1,1.68c0,.11,0,.21,0,.33s0,.17,0,.26a1.65,1.65,0,0,0,0,.21C11.36,298.93,11.37,299.07,11.38,299.26Z"/><path class="cls-19" d="M11.38,299.26a93,93,0,0,1-17.79,2.47c.1-.63.14-1,.24-1.58,0,0,12.28.92,17.5-1.84Z"/></g><g class="cls-20"><rect class="cls-1" x="-690" y="-50" width="1380" height="400"/><path class="cls-21" d="M708.37,181.2c0,.65,0,1.31,0,2,0,.19,0,.39,0,.6v.13c0,.4,0,.83,0,1.25s0,.74,0,1.1c0,.53,0,1-.05,1.55s0,1,0,1.55,0,.75-.05,1.12,0,1.07-.07,1.59c0,.27,0,.52,0,.78s0,.65-.06,1l-.09,1.52c0,.71-.09,1.43-.14,2.14-.06.91-.13,1.81-.21,2.72,0,.06,0,.1,0,.16-.06.68-.11,1.36-.17,2-.12,1.31-.25,2.61-.4,3.9,0,.27-.06.52-.09.77l-.09.77-.06.48c-.08.71-.17,1.41-.26,2.13-.19,1.46-.39,2.91-.6,4.38l-.24,1.58c0,.23-.08.45-.11.69a0,0,0,0,1,0,0c-.2,1.3-.42,2.61-.65,3.9,0,.26-.09.51-.13.77-.2,1.09-.4,2.17-.61,3.25s-.43,2.17-.66,3.25c-.09.47-.19.94-.3,1.42-.2.91-.4,1.84-.61,2.77-.09.37-.18.75-.26,1.12h0c-.05.19-.1.4-.14.57s-.12.52-.18.77a1.33,1.33,0,0,0,0,.19c-.13.54-.26,1.09-.41,1.64-.08.33-.16.68-.25,1s-.12.49-.19.73a.83.83,0,0,1,0,.15c-.14.6-.3,1.18-.46,1.76-.23.89-.47,1.77-.72,2.65l-.48,1.7-.27.94-.21.69c-.23.77-.47,1.56-.71,2.33-.1.34-.2.66-.3,1l-.37,1.18q-.84,2.64-1.74,5.26h0c-.28.82-.56,1.62-.84,2.42a1.07,1.07,0,0,1-.07.19c-.27.74-.54,1.47-.82,2.21v0c-.16.4-.32.83-.48,1.25-.43,1.15-.87,2.28-1.32,3.44l-.18.46c0,.12-.09.22-.13.32-.32.8-.65,1.59-1,2.37-.52,1.25-1.05,2.49-1.59,3.73-.36.82-.71,1.63-1.08,2.44s-.85,1.88-1.28,2.82c-.29.61-.58,1.2-.86,1.82l-.61,1.26-.6,1.28c-2.88,5.85-6,11.62-9.44,17.26h-392A229.39,229.39,0,0,1,271.81,84.79q1.19-2.54,2.42-5.05c.42-.83.84-1.66,1.26-2.51.85-1.66,1.73-3.32,2.62-5s1.82-3.3,2.75-4.94,1.9-3.25,2.88-4.87,2-3.22,3-4.83,2.08-3.17,3.14-4.74l1.62-2.36q1.65-2.34,3.34-4.67c1.14-1.55,2.3-3.08,3.47-4.61s2.38-3,3.6-4.51a228.57,228.57,0,0,1,15.71-17.38h0c1.4-1.41,2.81-2.77,4.23-4.12q5.34-5.07,10.92-9.74,1.67-1.41,3.36-2.76c1.13-.92,2.27-1.81,3.41-2.69l.75-.57H618.68a4.73,4.73,0,0,1,.45.36c.16.13.32.25.47.35s.38.31.57.45l.94.74.58.46q.22.16.45.36c.92.73,1.83,1.48,2.73,2.23a6.66,6.66,0,0,1,.59.49c.8.65,1.6,1.33,2.39,2l.55.46c1,.87,2,1.74,3,2.62s1.82,1.63,2.72,2.47l.84.76c.22.2.44.4.66.62.5.46,1,.91,1.49,1.39h0a3.22,3.22,0,0,1,.32.32c.6.56,1.2,1.14,1.79,1.73.15.14.3.28.44.43.56.54,1.12,1.08,1.68,1.64,2.35,2.34,4.64,4.74,6.87,7.17h0c.16.16.32.34.48.52s.31.35.47.53c.49.53,1,1.08,1.46,1.61l.78.89c.17.21.35.41.53.6.46.54.92,1.06,1.38,1.61.64.73,1.26,1.46,1.88,2.21.32.37.62.74.93,1.12l.67.8.25.32q4.65,5.7,8.87,11.61c.51.7,1,1.43,1.51,2.14a.83.83,0,0,1,.08.12c.47.66.92,1.32,1.37,2s.9,1.31,1.34,2c.6.89,1.18,1.77,1.76,2.68s1.15,1.78,1.71,2.69c2.06,3.28,4,6.62,5.89,10q1.2,2.14,2.34,4.31a224.43,224.43,0,0,1,11.55,25.55c.11.3.22.6.33.88.67,1.75,1.3,3.51,1.91,5.28.25.71.5,1.45.74,2.17s.49,1.46.72,2.18l.3.94c.23.72.46,1.43.68,2.15a0,0,0,0,1,0,0l.66,2.19c.1.32.19.65.29,1,.53,1.77,1,3.57,1.5,5.35.39,1.46.76,2.92,1.12,4.36,0,0,0,0,0,0s0,.11,0,.17c.07.27.13.53.19.81.17.69.33,1.39.5,2.08s.36,1.56.53,2.34l.21,1q1.17,5.42,2.07,10.86c.12.75.25,1.5.37,2.26q.42,2.73.78,5.45c.1.76.19,1.54.29,2.3,0,.07,0,.14,0,.2l.09.75c.09.75.17,1.5.25,2.24.31,2.86.56,5.71.75,8.58,0,.8.11,1.59.15,2.38s.1,1.59.13,2.37l0,.68Q708.37,176,708.37,181.2Z"/><path class="cls-22" d="M340.3-.54l-.75.57c-1.14.88-2.28,1.77-3.41,2.69s-2.25,1.82-3.36,2.76q-5.58,4.68-10.92,9.74c-1.42,1.36-2.83,2.73-4.23,4.13a228.57,228.57,0,0,0-15.71,17.38c-1.22,1.49-2.41,3-3.6,4.51s-2.33,3.06-3.47,4.61-2.24,3.11-3.34,4.67l-1.62,2.36q-1.59,2.35-3.14,4.74c-1,1.61-2,3.22-3,4.83s-1.94,3.23-2.88,4.87-1.85,3.28-2.75,4.94-1.77,3.31-2.62,5c-.42.85-.84,1.68-1.26,2.51q-1.23,2.52-2.42,5.05a229.39,229.39,0,0,0,11.66,214.67H124.77l.36,1.08c-.13-.36-.25-.72-.37-1.08H87.18a410.94,410.94,0,0,1,25-300Z"/><path class="cls-23" d="M871.77,299.46H675.49c3.42-5.64,6.56-11.41,9.44-17.25.21-.42.42-.86.62-1.29l.61-1.26c.28-.62.57-1.21.86-1.82.43-.94.86-1.88,1.28-2.82s.72-1.62,1.08-2.44c.54-1.24,1.07-2.48,1.59-3.73.32-.8.65-1.59,1-2.38h0c.11-.25.21-.51.31-.76.45-1.16.89-2.29,1.32-3.44.16-.42.32-.85.48-1.25v0l.45-1.24c.15-.39.29-.77.43-1.16.29-.8.57-1.61.85-2.42h0c.13-.37.25-.74.37-1.09.47-1.4.93-2.78,1.38-4.17l.37-1.18c.1-.32.2-.64.3-1,.24-.77.48-1.56.71-2.33l.21-.69.27-.94.48-1.7c.25-.88.49-1.76.72-2.65.16-.58.32-1.16.46-1.76a.83.83,0,0,0,0-.15c.15-.59.3-1.17.44-1.74s.28-1.1.41-1.64a1.33,1.33,0,0,1,0-.19c0-.19.09-.38.13-.59a1.21,1.21,0,0,0,0-.18c0-.17.09-.38.14-.57h0c.08-.37.17-.75.26-1.12.21-.93.41-1.86.61-2.77.11-.48.21-1,.3-1.42,0-.2.09-.4.13-.61.18-.88.36-1.76.53-2.64.21-1.08.41-2.16.61-3.25,0-.26.09-.51.13-.77.23-1.29.45-2.6.65-3.9a0,0,0,0,0,0,0c0-.24.07-.46.11-.69l.24-1.58c.21-1.47.41-2.92.6-4.38.09-.72.18-1.42.26-2.13l.06-.48.09-.77c0-.25.06-.5.08-.75,0-.43.09-.86.14-1.3.08-.7.15-1.42.21-2.11,0-.18,0-.36,0-.52h0l.18-2c0-.06,0-.1,0-.16.08-.91.15-1.81.21-2.72.05-.71.1-1.43.14-2.14l.09-1.52c0-.34,0-.66.05-1s0-.52,0-.79c0-.52,0-1.07.07-1.59,0-.89.07-1.78.09-2.67s.05-1.76.06-2.65c0-.42,0-.85,0-1.25v-.13c0-.21,0-.41,0-.6,0-.65,0-1.31,0-2q0-5.2-.24-10.41l0-.68c0-.78-.08-1.57-.13-2.37s-.1-1.58-.15-2.38c-.19-2.87-.44-5.72-.75-8.58-.08-.74-.16-1.49-.25-2.24l-.09-.75c0-.06,0-.13,0-.2-.1-.76-.19-1.54-.29-2.3q-.36-2.72-.78-5.45c-.12-.76-.25-1.51-.37-2.26q-.9-5.45-2.07-10.86l-.21-1c-.17-.78-.35-1.57-.53-2.34s-.33-1.39-.5-2.08c-.06-.28-.12-.54-.19-.81,0-.06,0-.11,0-.17s0,0,0,0c-.36-1.44-.73-2.9-1.12-4.36-.47-1.78-1-3.58-1.5-5.35-.1-.32-.19-.65-.29-1l-.66-2.19a0,0,0,0,0,0,0c-.22-.72-.45-1.43-.68-2.15l-.3-.94c-.23-.72-.47-1.45-.72-2.18s-.48-1.45-.74-2.17c-.61-1.77-1.24-3.53-1.91-5.28-.11-.28-.22-.58-.33-.88a224.43,224.43,0,0,0-11.55-25.55q-1.14-2.16-2.34-4.31c-1.86-3.35-3.83-6.69-5.89-10-.56-.91-1.13-1.8-1.71-2.69s-1.16-1.79-1.76-2.68c-.44-.68-.88-1.33-1.34-2s-.9-1.34-1.37-2a.83.83,0,0,0-.08-.12c-.5-.71-1-1.44-1.51-2.14q-4.23-5.91-8.87-11.61l-.25-.32-.67-.8c-.31-.38-.61-.75-.93-1.12-.62-.75-1.24-1.48-1.88-2.21-.46-.55-.92-1.07-1.38-1.61-.18-.19-.36-.39-.53-.6l-.78-.89c-.47-.53-1-1.08-1.46-1.61-.3-.35-.63-.71-.95-1.05h0l-.74-.78c-.55-.61-1.11-1.19-1.67-1.78-.7-.75-1.42-1.49-2.14-2.23s-1.55-1.6-2.33-2.37c-.55-.56-1.11-1.11-1.67-1.65-.14-.15-.29-.29-.44-.43-.7-.69-1.4-1.38-2.11-2h0c-.49-.48-1-.93-1.49-1.39l-1.5-1.38c-.9-.85-1.8-1.66-2.72-2.47s-2-1.75-3-2.62l-.55-.46c-.79-.68-1.59-1.36-2.39-2a6.66,6.66,0,0,0-.59-.49l-.93-.77c-.59-.49-1.2-1-1.8-1.46l-1-.82-.94-.74c-.19-.14-.38-.28-.57-.45s-.31-.22-.47-.35l-.47-.36H846.79A410.93,410.93,0,0,1,871.77,299.46Z"/><path class="cls-24" d="M340.3-.54l-.75.57c-1.14.88-2.28,1.77-3.41,2.69s-2.25,1.82-3.36,2.76q-5.58,4.68-10.92,9.74c-1.42,1.36-2.83,2.73-4.23,4.13a228.57,228.57,0,0,0-15.71,17.38c-1.22,1.49-2.41,3-3.6,4.51s-2.33,3.06-3.47,4.61-2.24,3.11-3.34,4.67l-1.62,2.36q-1.59,2.35-3.14,4.74c-1,1.61-2,3.22-3,4.83s-1.94,3.23-2.88,4.87-1.85,3.28-2.75,4.94-1.77,3.31-2.62,5c-.42.85-.84,1.68-1.26,2.51q-1.23,2.52-2.42,5.05a229.39,229.39,0,0,0,11.66,214.67H124.77c-.12-.36-.23-.7-.35-1l-.69-2.14c-.48-1.44-.93-2.88-1.38-4.31l-.66-2.17c-.34-1.13-.67-2.24-1-3.36-.27-.92-.54-1.86-.8-2.81s-.54-1.86-.8-2.82A374.67,374.67,0,0,1,152.69-.54Z"/><path class="cls-25" d="M853.31,181.22c0,.75,0,1.49,0,2.24s0,1.49,0,2.24l0,2.23-.06,2.24c0,.93-.05,1.87-.08,2.79,0,.51,0,1,0,1.52-.05,1.51-.11,3-.18,4.51,0,.4,0,.78,0,1.17v0c-.07,1.35-.15,2.71-.24,4.07-.05.84-.11,1.71-.17,2.57-.09,1.27-.19,2.56-.29,3.84-.12,1.5-.24,3-.37,4.5q0,.51-.09,1c0,.18,0,.36,0,.53s0,.58-.08.88c-.11,1.1-.22,2.22-.34,3.33-.08.75-.16,1.5-.25,2.24-.18,1.69-.38,3.37-.6,5-.1.73-.19,1.47-.29,2.22s-.19,1.49-.3,2.23c-.2,1.46-.41,2.93-.63,4.39s-.48,3.12-.73,4.68c-.11.68-.23,1.37-.35,2.05-.21,1.24-.42,2.47-.64,3.71,0,.24-.08.48-.13.72-.27,1.46-.55,2.94-.83,4.4-.06.36-.13.69-.2,1.05s-.15.76-.23,1.15c-.15.74-.3,1.49-.45,2.22,0,.08,0,.15-.05.24-.29,1.39-.59,2.78-.9,4.16-.64,2.91-1.3,5.8-2,8.7q-3.61,14.79-8.45,29.34H675.49c3.42-5.64,6.56-11.41,9.44-17.25.21-.42.42-.86.62-1.29l.61-1.26c.28-.62.57-1.21.86-1.82.43-.94.86-1.88,1.28-2.82s.72-1.62,1.08-2.44c.54-1.24,1.07-2.48,1.59-3.73.32-.8.65-1.59,1-2.38h0c.11-.25.21-.51.31-.76.45-1.16.89-2.29,1.32-3.44.16-.42.32-.85.48-1.25v0l.45-1.24c.15-.39.29-.77.43-1.16.29-.8.57-1.61.85-2.42h0c.13-.37.25-.74.37-1.09.47-1.4.93-2.78,1.38-4.17l.37-1.18c.1-.32.2-.64.3-1,.24-.77.48-1.56.71-2.33l.21-.69.27-.94.48-1.7c.25-.88.49-1.76.72-2.65.16-.58.32-1.16.46-1.76a.83.83,0,0,0,0-.15c.15-.59.3-1.17.44-1.74s.28-1.1.41-1.64a1.33,1.33,0,0,1,0-.19c0-.19.09-.38.13-.59a1.21,1.21,0,0,0,0-.18c0-.17.09-.38.14-.57h0c.08-.37.17-.75.26-1.12.21-.93.41-1.86.61-2.77.11-.48.21-1,.3-1.42,0-.2.09-.4.13-.61.18-.88.36-1.76.53-2.64.21-1.08.41-2.16.61-3.25,0-.26.09-.51.13-.77.23-1.29.45-2.6.65-3.9a0,0,0,0,0,0,0c0-.24.07-.46.11-.69l.24-1.58c.21-1.47.41-2.92.6-4.38.09-.72.18-1.42.26-2.13l.06-.48.09-.77c0-.25.06-.5.08-.75,0-.43.09-.86.14-1.3.08-.7.15-1.42.21-2.11,0-.18,0-.36,0-.52h0l.18-2c0-.06,0-.1,0-.16.08-.91.15-1.81.21-2.72.05-.71.1-1.43.14-2.14l.09-1.52c0-.34,0-.66.05-1s0-.52,0-.79c0-.52,0-1.07.07-1.59,0-.89.07-1.78.09-2.67s.05-1.76.06-2.65c0-.42,0-.85,0-1.25v-.13c0-.21,0-.41,0-.6,0-.65,0-1.31,0-2q0-5.2-.24-10.41l0-.68c0-.78-.08-1.57-.13-2.37s-.1-1.58-.15-2.38c-.19-2.87-.44-5.72-.75-8.58-.08-.74-.16-1.49-.25-2.24l-.09-.75c0-.06,0-.13,0-.2-.1-.76-.19-1.54-.29-2.3q-.36-2.72-.78-5.45c-.12-.76-.25-1.51-.37-2.26q-.9-5.45-2.07-10.86l-.21-1c-.17-.78-.35-1.57-.53-2.34s-.33-1.39-.5-2.08c-.06-.28-.12-.54-.19-.81,0-.06,0-.11,0-.17s0,0,0,0c-.36-1.44-.73-2.9-1.12-4.36-.47-1.78-1-3.58-1.5-5.35-.1-.32-.19-.65-.29-1l-.66-2.19a0,0,0,0,0,0,0c-.22-.72-.45-1.43-.68-2.15l-.3-.94c-.23-.72-.47-1.45-.72-2.18s-.48-1.45-.74-2.17c-.61-1.77-1.24-3.53-1.91-5.28-.11-.28-.22-.58-.33-.88a224.43,224.43,0,0,0-11.55-25.55q-1.14-2.16-2.34-4.31c-1.86-3.35-3.83-6.69-5.89-10-.56-.91-1.13-1.8-1.71-2.69s-1.16-1.79-1.76-2.68c-.44-.68-.88-1.33-1.34-2s-.9-1.34-1.37-2a.83.83,0,0,0-.08-.12c-.5-.71-1-1.44-1.51-2.14q-4.23-5.91-8.87-11.61l-.25-.32-.67-.8c-.31-.38-.61-.75-.93-1.12-.62-.75-1.24-1.48-1.88-2.21-.46-.55-.92-1.07-1.38-1.61-.18-.19-.36-.39-.53-.6l-.78-.89c-.47-.53-1-1.08-1.46-1.61-.3-.35-.63-.71-.95-1.05h0l-.74-.78c-.55-.61-1.11-1.19-1.67-1.78-.7-.75-1.42-1.49-2.14-2.23s-1.55-1.6-2.33-2.37c-.55-.56-1.11-1.11-1.67-1.65-.14-.15-.29-.29-.44-.43-.7-.69-1.4-1.38-2.11-2h0c-.49-.48-1-.93-1.49-1.39l-1.5-1.38c-.9-.85-1.8-1.66-2.72-2.47s-2-1.75-3-2.62l-.55-.46c-.79-.68-1.59-1.36-2.39-2a6.66,6.66,0,0,0-.59-.49l-.93-.77c-.59-.49-1.2-1-1.8-1.46l-1-.82-.94-.74c-.19-.14-.38-.28-.57-.45s-.31-.22-.47-.35l-.47-.36H806.28l.56,1c1.34,2.43,2.65,4.87,3.94,7.34,1.21,2.26,2.36,4.53,3.48,6.8,1.32,2.67,2.61,5.34,3.87,8,.18.36.34.7.51,1.07,0,.07.07.12.09.19l.57,1.25c.42.93.84,1.85,1.25,2.77.27.59.53,1.17.78,1.77.16.35.32.71.47,1.07.1.2.19.39.28.61s.25.58.38.85.19.48.29.7c.32.73.63,1.45.93,2.17s.59,1.38.87,2.06c.38.92.76,1.85,1.13,2.77.12.27.23.54.34.8s.21.53.3.79.3.71.45,1.08q.83,2.07,1.62,4.14c.11.27.2.53.3.78.19.5.38,1,.56,1.49.06.15.12.32.17.47s.05.12.07.17.15.39.22.58c.66,1.75,1.29,3.5,1.92,5.25.22.61.44,1.22.65,1.82.07.21.14.38.18.55.13.36.26.72.37,1.07.37,1,.72,2.07,1.07,3.12,0,.1.07.19.1.3q.63,1.89,1.23,3.78c0,.08,0,.15.07.22.21.64.42,1.27.62,1.92.41,1.28.8,2.56,1.19,3.84.19.63.38,1.29.58,1.93.35,1.14.68,2.3,1,3.45s.65,2.25,1,3.4q1,3.48,1.85,7c.32,1.21.63,2.43.92,3.64s.64,2.67,1,4c.47,2,.92,4,1.35,6,0,.13.06.29.09.43q.38,1.7.72,3.42c.14.72.29,1.46.43,2.19.09.4.18.83.26,1.24.17.85.34,1.72.52,2.6,0,.3.09.57.16.88q.66,3.49,1.24,7a2.87,2.87,0,0,1,.05.31c.16,1,.33,2,.47,2.95a6.15,6.15,0,0,1,.11.69c.19,1.23.37,2.44.54,3.67,0,.22.08.44.11.64s.07.44.1.67c.13.88.25,1.75.37,2.63s.21,1.53.3,2.3c0,.13,0,.26,0,.39.13,1,.25,2,.37,3,.15,1.26.3,2.53.44,3.81s.27,2.54.39,3.81c.06.55.11,1.06.16,1.6.17,1.69.32,3.39.45,5.09.09,1.18.18,2.36.26,3.56s.19,2.5.27,3.76.15,2.54.21,3.8c0,1,.09,2,.14,3,.09,2.46.19,4.91.24,7.37,0,.64,0,1.27,0,1.9,0,.86,0,1.72,0,2.57s0,1.5,0,2.25S853.31,180.47,853.31,181.22Z"/><path class="cls-26" d="M340.3-.54l-.75.57c-1.14.88-2.28,1.77-3.41,2.69s-2.25,1.82-3.36,2.76q-5.58,4.68-10.92,9.74c-1.42,1.36-2.83,2.73-4.23,4.13a228.57,228.57,0,0,0-15.71,17.38c-1.22,1.49-2.41,3-3.6,4.51s-2.33,3.06-3.47,4.61-2.24,3.11-3.34,4.67l-1.62,2.36q-1.59,2.35-3.14,4.74c-1,1.61-2,3.22-3,4.83s-1.94,3.23-2.88,4.87-1.85,3.28-2.75,4.94-1.77,3.31-2.62,5c-.42.85-.84,1.68-1.26,2.51q-1.23,2.52-2.42,5.05a229.39,229.39,0,0,0,11.66,214.67h-76c-42.38-97.55-29.84-213.22,37.64-300Z"/><path class="cls-27" d="M774.48,211.49a296,296,0,0,1-23,88h-76c3.42-5.64,6.56-11.41,9.44-17.25.21-.42.42-.86.62-1.29l.61-1.26c.28-.62.57-1.21.86-1.82.43-.94.86-1.88,1.28-2.82s.72-1.62,1.08-2.44c.54-1.24,1.07-2.48,1.59-3.73.32-.8.65-1.59,1-2.38h0c.11-.25.21-.51.31-.76.45-1.16.89-2.29,1.32-3.44.16-.42.32-.85.48-1.25v0l.45-1.24c.15-.39.29-.77.43-1.16.29-.8.57-1.61.85-2.42h0c.13-.37.25-.74.37-1.09.47-1.4.93-2.78,1.38-4.17l.37-1.18c.1-.32.2-.64.3-1,.24-.77.48-1.56.71-2.33l.21-.69.27-.94.48-1.7c.25-.88.49-1.76.72-2.65.16-.58.32-1.16.46-1.76a.83.83,0,0,0,0-.15c.15-.59.3-1.17.44-1.74s.28-1.1.41-1.64a1.33,1.33,0,0,1,0-.19c0-.19.09-.38.13-.59a1.21,1.21,0,0,0,0-.18c0-.17.09-.38.14-.57h0c.08-.37.17-.75.26-1.12.21-.93.41-1.86.61-2.77.11-.48.21-1,.3-1.42,0-.2.09-.4.13-.61.18-.88.36-1.76.53-2.64.21-1.08.41-2.16.61-3.25,0-.26.09-.51.13-.77.23-1.29.45-2.6.65-3.9a0,0,0,0,0,0,0c0-.24.07-.46.11-.69l.24-1.58c.21-1.47.41-2.92.6-4.38.09-.72.18-1.42.26-2.13l.06-.48.09-.77c0-.25.06-.5.08-.75,0-.43.09-.86.14-1.3.08-.7.15-1.42.21-2.11,0-.18,0-.36,0-.52h0l.18-2c0-.06,0-.1,0-.16.08-.91.15-1.81.21-2.72.05-.71.1-1.43.14-2.14l.09-1.52c0-.34,0-.66.05-1s0-.52,0-.79c0-.52,0-1.07.07-1.59,0-.89.07-1.78.09-2.67s.05-1.76.06-2.65c0-.42,0-.85,0-1.25v-.13c0-.21,0-.41,0-.6,0-.65,0-1.31,0-2q0-5.2-.24-10.41l0-.68c0-.78-.08-1.57-.13-2.37s-.1-1.58-.15-2.38c-.19-2.87-.44-5.72-.75-8.58-.08-.74-.16-1.49-.25-2.24l-.09-.75c0-.06,0-.13,0-.2-.1-.76-.19-1.54-.29-2.3q-.36-2.72-.78-5.45c-.12-.76-.25-1.51-.37-2.26q-.9-5.45-2.07-10.86l-.21-1c-.17-.78-.35-1.57-.53-2.34s-.33-1.39-.5-2.08c-.06-.28-.12-.54-.19-.81,0-.06,0-.11,0-.17s0,0,0,0c-.36-1.44-.73-2.9-1.12-4.36-.47-1.78-1-3.58-1.5-5.35-.1-.32-.19-.65-.29-1l-.66-2.19a0,0,0,0,0,0,0c-.22-.72-.45-1.43-.68-2.15l-.3-.94c-.23-.72-.47-1.45-.72-2.18s-.48-1.45-.74-2.17c-.61-1.77-1.24-3.53-1.91-5.28-.11-.28-.22-.58-.33-.88a224.43,224.43,0,0,0-11.55-25.55q-1.14-2.16-2.34-4.31c-1.86-3.35-3.83-6.69-5.89-10-.56-.91-1.13-1.8-1.71-2.69s-1.16-1.79-1.76-2.68c-.44-.68-.88-1.33-1.34-2s-.9-1.34-1.37-2a.83.83,0,0,0-.08-.12c-.5-.71-1-1.44-1.51-2.14q-4.23-5.91-8.87-11.61l-.25-.32-.67-.8c-.31-.38-.61-.75-.93-1.12-.62-.75-1.24-1.48-1.88-2.21-.46-.55-.92-1.07-1.38-1.61-.18-.19-.36-.39-.53-.6l-.78-.89c-.47-.53-1-1.08-1.46-1.61-.3-.35-.63-.71-.95-1.05h0l-.74-.78c-.55-.61-1.11-1.19-1.67-1.78-.7-.75-1.42-1.49-2.14-2.23s-1.55-1.6-2.33-2.37c-.55-.56-1.11-1.11-1.67-1.65-.14-.15-.29-.29-.44-.43-.7-.69-1.4-1.38-2.11-2h0c-.49-.48-1-.93-1.49-1.39l-1.5-1.38c-.9-.85-1.8-1.66-2.72-2.47s-2-1.75-3-2.62l-.55-.46c-.79-.68-1.59-1.36-2.39-2a6.66,6.66,0,0,0-.59-.49l-.93-.77c-.59-.49-1.2-1-1.8-1.46l-1-.82-.94-.74c-.19-.14-.38-.28-.57-.45s-.31-.22-.47-.35l-.47-.36h95.19a294.86,294.86,0,0,1,58,132.14A298.31,298.31,0,0,1,774.48,211.49Z"/><path class="cls-28" d="M340.3-.54l-.75.57c-1.14.88-2.28,1.77-3.41,2.69s-2.25,1.82-3.36,2.76q-5.58,4.68-10.92,9.74c-1.42,1.36-2.83,2.73-4.23,4.13a228.57,228.57,0,0,0-15.71,17.38c-1.22,1.49-2.41,3-3.6,4.51s-2.33,3.06-3.47,4.61-2.24,3.11-3.34,4.67l-1.62,2.36q-1.59,2.35-3.14,4.74c-1,1.61-2,3.22-3,4.83s-1.94,3.23-2.88,4.87-1.85,3.28-2.75,4.94-1.77,3.31-2.62,5c-.42.85-.84,1.68-1.26,2.51q-1.23,2.52-2.42,5.05a229.39,229.39,0,0,0,11.66,214.67H213.61C170.29,202,183.16,85.62,252.27-.54Z"/><path class="cls-29" d="M768.75,212.22a290.82,290.82,0,0,1-23.4,87.24H675.49c3.42-5.64,6.56-11.41,9.44-17.25.21-.42.42-.86.62-1.29l.61-1.26c.28-.62.57-1.21.86-1.82.43-.94.86-1.88,1.28-2.82s.72-1.62,1.08-2.44c.54-1.24,1.07-2.48,1.59-3.73.32-.8.65-1.59,1-2.38h0c.11-.25.21-.51.31-.76.45-1.16.89-2.29,1.32-3.44.16-.42.32-.85.48-1.25v0l.45-1.24c.15-.39.29-.77.43-1.16.29-.8.57-1.61.85-2.42h0c.13-.37.25-.74.37-1.09.47-1.4.93-2.78,1.38-4.17l.37-1.18c.1-.32.2-.64.3-1,.24-.77.48-1.56.71-2.33l.21-.69.27-.94.48-1.7c.25-.88.49-1.76.72-2.65.16-.58.32-1.16.46-1.76a.83.83,0,0,0,0-.15c.15-.59.3-1.17.44-1.74s.28-1.1.41-1.64a1.33,1.33,0,0,1,0-.19c0-.19.09-.38.13-.59a1.21,1.21,0,0,0,0-.18c0-.17.09-.38.14-.57h0c.08-.37.17-.75.26-1.12.21-.93.41-1.86.61-2.77.11-.48.21-1,.3-1.42,0-.2.09-.4.13-.61.18-.88.36-1.76.53-2.64.21-1.08.41-2.16.61-3.25,0-.26.09-.51.13-.77.23-1.29.45-2.6.65-3.9a0,0,0,0,0,0,0c0-.24.07-.46.11-.69l.24-1.58c.21-1.47.41-2.92.6-4.38.09-.72.18-1.42.26-2.13l.06-.48.09-.77c0-.25.06-.5.08-.75,0-.43.09-.86.14-1.3.08-.7.15-1.42.21-2.11,0-.18,0-.36,0-.52h0l.18-2c0-.06,0-.1,0-.16.08-.91.15-1.81.21-2.72.05-.71.1-1.43.14-2.14l.09-1.52c0-.34,0-.66.05-1s0-.52,0-.79c0-.52,0-1.07.07-1.59,0-.89.07-1.78.09-2.67s.05-1.76.06-2.65c0-.42,0-.85,0-1.25v-.13c0-.21,0-.41,0-.6,0-.65,0-1.31,0-2q0-5.2-.24-10.41l0-.68c0-.78-.08-1.57-.13-2.37s-.1-1.58-.15-2.38c-.19-2.87-.44-5.72-.75-8.58-.08-.74-.16-1.49-.25-2.24l-.09-.75c0-.06,0-.13,0-.2-.1-.76-.19-1.54-.29-2.3q-.36-2.72-.78-5.45c-.12-.76-.25-1.51-.37-2.26q-.9-5.45-2.07-10.86l-.21-1c-.17-.78-.35-1.57-.53-2.34s-.33-1.39-.5-2.08c-.06-.28-.12-.54-.19-.81,0-.06,0-.11,0-.17s0,0,0,0c-.36-1.44-.73-2.9-1.12-4.36-.47-1.78-1-3.58-1.5-5.35-.1-.32-.19-.65-.29-1l-.66-2.19a0,0,0,0,0,0,0c-.22-.72-.45-1.43-.68-2.15l-.3-.94c-.23-.72-.47-1.45-.72-2.18s-.48-1.45-.74-2.17c-.61-1.77-1.24-3.53-1.91-5.28-.11-.28-.22-.58-.33-.88a224.43,224.43,0,0,0-11.55-25.55q-1.14-2.16-2.34-4.31c-1.86-3.35-3.83-6.69-5.89-10-.56-.91-1.13-1.8-1.71-2.69s-1.16-1.79-1.76-2.68c-.44-.68-.88-1.33-1.34-2s-.9-1.34-1.37-2a.83.83,0,0,0-.08-.12c-.5-.71-1-1.44-1.51-2.14q-4.23-5.91-8.87-11.61l-.25-.32-.67-.8c-.31-.38-.61-.75-.93-1.12-.62-.75-1.24-1.48-1.88-2.21-.46-.55-.92-1.07-1.38-1.61-.18-.19-.36-.39-.53-.6l-.78-.89c-.47-.53-1-1.08-1.46-1.61-.3-.35-.63-.71-.95-1.05h0l-.74-.78c-.55-.61-1.11-1.19-1.67-1.78-.7-.75-1.42-1.49-2.14-2.23s-1.55-1.6-2.33-2.37c-.55-.56-1.11-1.11-1.67-1.65-.14-.15-.29-.29-.44-.43-.7-.69-1.4-1.38-2.11-2h0c-.49-.48-1-.93-1.49-1.39l-1.5-1.38c-.9-.85-1.8-1.66-2.72-2.47s-2-1.75-3-2.62l-.55-.46c-.79-.68-1.59-1.36-2.39-2a6.66,6.66,0,0,0-.59-.49l-.93-.77c-.59-.49-1.2-1-1.8-1.46l-1-.82-.94-.74c-.19-.14-.38-.28-.57-.45s-.31-.22-.47-.35l-.47-.36h88.08a289.28,289.28,0,0,1,60.58,139.25A292.22,292.22,0,0,1,768.75,212.22Z"/><path class="cls-30" d="M340.3-.54l-.75.57c-1.14.88-2.28,1.77-3.41,2.69s-2.25,1.82-3.36,2.76q-5.58,4.68-10.92,9.74c-1.42,1.36-2.83,2.73-4.23,4.13a228.57,228.57,0,0,0-15.71,17.38c-1.22,1.49-2.41,3-3.6,4.51s-2.33,3.06-3.47,4.61-2.24,3.11-3.34,4.67l-1.62,2.36q-1.59,2.35-3.14,4.74c-1,1.61-2,3.22-3,4.83s-1.94,3.23-2.88,4.87-1.85,3.28-2.75,4.94-1.77,3.31-2.62,5c-.42.85-.84,1.68-1.26,2.51q-1.23,2.52-2.42,5.05a229.39,229.39,0,0,0,11.66,214.67H250.54c-.81-1.57-1.61-3.14-2.38-4.7-1-2.09-2-4.15-2.93-6.24s-1.89-4.17-2.77-6.28c-.64-1.5-1.26-3-1.85-4.47-.26-.62-.51-1.23-.75-1.86-.85-2.12-1.65-4.25-2.43-6.4a257.52,257.52,0,0,1,59.44-270Z"/><path class="cls-31" d="M736.69,195.39A258,258,0,0,1,731.64,234h0c-.55,2.66-1.14,5.3-1.78,7.94q-1.67,6.93-3.74,13.78a255.29,255.29,0,0,1-17.7,43.75H675.49c3.42-5.64,6.56-11.41,9.44-17.25.21-.42.42-.86.62-1.29l.61-1.26c.28-.62.57-1.21.86-1.82.43-.94.86-1.88,1.28-2.82s.72-1.62,1.08-2.44c.54-1.24,1.07-2.48,1.59-3.73.32-.8.65-1.59,1-2.38h0c.11-.25.21-.51.31-.76.45-1.16.89-2.29,1.32-3.44.16-.42.32-.85.48-1.25v0l.45-1.24c.15-.39.29-.77.43-1.16.29-.8.57-1.61.85-2.42h0c.13-.37.25-.74.37-1.09.47-1.4.93-2.78,1.38-4.17l.37-1.18c.1-.32.2-.64.3-1,.24-.77.48-1.56.71-2.33l.21-.69.27-.94.48-1.7c.25-.88.49-1.76.72-2.65.16-.58.32-1.16.46-1.76a.83.83,0,0,0,0-.15c.15-.59.3-1.17.44-1.74s.28-1.1.41-1.64a1.33,1.33,0,0,1,0-.19c0-.19.09-.38.13-.59a1.21,1.21,0,0,0,0-.18c0-.17.09-.38.14-.57h0c.08-.37.17-.75.26-1.12.21-.93.41-1.86.61-2.77.11-.48.21-1,.3-1.42,0-.2.09-.4.13-.61.18-.88.36-1.76.53-2.64.21-1.08.41-2.16.61-3.25,0-.26.09-.51.13-.77.23-1.29.45-2.6.65-3.9a0,0,0,0,0,0,0c0-.24.07-.46.11-.69l.24-1.58c.21-1.47.41-2.92.6-4.38.09-.72.18-1.42.26-2.13l.06-.48.09-.77c0-.25.06-.5.08-.75,0-.43.09-.86.14-1.3.08-.7.15-1.42.21-2.11,0-.18,0-.36,0-.52h0l.18-2c0-.06,0-.1,0-.16.08-.91.15-1.81.21-2.72.05-.71.1-1.43.14-2.14l.09-1.52c0-.34,0-.66.05-1s0-.52,0-.79c0-.52,0-1.07.07-1.59,0-.89.07-1.78.09-2.67s.05-1.76.06-2.65c0-.42,0-.85,0-1.25v-.13c0-.21,0-.41,0-.6,0-.65,0-1.31,0-2q0-5.2-.24-10.41l0-.68c0-.78-.08-1.57-.13-2.37s-.1-1.58-.15-2.38c-.19-2.87-.44-5.72-.75-8.58-.08-.74-.16-1.49-.25-2.24l-.09-.75c0-.06,0-.13,0-.2-.1-.76-.19-1.54-.29-2.3q-.36-2.72-.78-5.45c-.12-.76-.25-1.51-.37-2.26q-.9-5.45-2.07-10.86l-.21-1c-.17-.78-.35-1.57-.53-2.34s-.33-1.39-.5-2.08c-.06-.28-.12-.54-.19-.81,0-.06,0-.11,0-.17s0,0,0,0c-.36-1.44-.73-2.9-1.12-4.36-.47-1.78-1-3.58-1.5-5.35-.1-.32-.19-.65-.29-1l-.66-2.19a0,0,0,0,0,0,0c-.22-.72-.45-1.43-.68-2.15l-.3-.94c-.23-.72-.47-1.45-.72-2.18s-.48-1.45-.74-2.17c-.61-1.77-1.24-3.53-1.91-5.28-.11-.28-.22-.58-.33-.88a224.43,224.43,0,0,0-11.55-25.55q-1.14-2.16-2.34-4.31c-1.86-3.35-3.83-6.69-5.89-10-.56-.91-1.13-1.8-1.71-2.69s-1.16-1.79-1.76-2.68c-.44-.68-.88-1.33-1.34-2s-.9-1.34-1.37-2a.83.83,0,0,0-.08-.12c-.5-.71-1-1.44-1.51-2.14q-4.23-5.91-8.87-11.61l-.25-.32-.67-.8c-.31-.38-.61-.75-.93-1.12-.62-.75-1.24-1.48-1.88-2.21-.46-.55-.92-1.07-1.38-1.61-.18-.19-.36-.39-.53-.6l-.78-.89c-.47-.53-1-1.08-1.46-1.61-.3-.35-.63-.71-.95-1.05h0l-.74-.78c-.55-.61-1.11-1.19-1.67-1.78-.7-.75-1.42-1.49-2.14-2.23s-1.55-1.6-2.33-2.37c-.55-.56-1.11-1.11-1.67-1.65-.14-.15-.29-.29-.44-.43-.7-.69-1.4-1.38-2.11-2h0c-.49-.48-1-.93-1.49-1.39l-1.5-1.38c-.9-.85-1.8-1.66-2.72-2.47s-2-1.75-3-2.62l-.55-.46c-.79-.68-1.59-1.36-2.39-2a6.66,6.66,0,0,0-.59-.49l-.93-.77c-.59-.49-1.2-1-1.8-1.46l-1-.82-.94-.74c-.19-.14-.38-.28-.57-.45s-.31-.22-.47-.35l-.47-.36h43.43c.64.64,1.28,1.27,1.9,1.93.78.79,1.54,1.59,2.3,2.4s1.3,1.36,1.93,2,1.27,1.38,1.9,2.08l1.5,1.64q1.29,1.44,2.55,2.88l.89,1,1.08,1.26c.09.11.17.2.25.31s.23.28.35.43l.26.3c.09.09.17.19.25.28l1.81,2.18.41.51.25.3.23.31c1,1.2,1.94,2.41,2.89,3.63l.17.22.17.21c.11.13.23.29.33.43l.67.88c.44.57.89,1.16,1.33,1.75l0,0,1.29,1.77.5.64c.08.12.16.22.24.33l.25.36.57.77c.38.52.75,1,1.11,1.55.18.26.37.52.55.8l.7.95,0,.08,1.3,1.86L693,37c.11.15.21.31.31.46.78,1.15,1.54,2.3,2.29,3.46l.16.26c.05.09.1.15.15.24s.17.26.25.39l.06.11.45.67.21.33c.65,1,1.27,2,1.92,3l.12.23.07.1a1.69,1.69,0,0,0,.21.31l1.26,2.11c.61,1,1.21,2.05,1.81,3.07.89,1.5,1.76,3,2.6,4.56,1.42,2.57,2.79,5.17,4.12,7.76.51,1,1,2,1.51,3,.57,1.15,1.13,2.32,1.68,3.5.9,1.89,1.78,3.8,2.63,5.71l.44,1,1.12,2.58,1.08,2.6q1.15,2.79,2.25,5.59c0,.1.08.19.13.29.64,1.68,1.26,3.38,1.87,5.07h0c.66,1.8,1.3,3.62,1.92,5.41,0,0,0,0,0,.06s.07.22.11.33c.27.81.53,1.61.79,2.41s.47,1.45.71,2.16l.09.35c0,.1.07.21.1.33a4.93,4.93,0,0,0,.24.64c.47,1.61.94,3.18,1.39,4.75.55,1.93,1.07,3.86,1.59,5.75.94,3.65,1.82,7.3,2.62,11,.41,1.87.78,3.75,1.13,5.62.15.82.31,1.63.45,2.44.09.45.18.92.26,1.38s.12.69.17,1.06a.3.3,0,0,1,0,.1c.1.54.19,1.09.28,1.64l.3,1.84c.14.86.27,1.7.38,2.54.33,2.18.63,4.37.89,6.55.08.61.15,1.21.22,1.83q.48,4.13.82,8.28c.1,1.17.19,2.35.27,3.53,0,.42.06.83.08,1.25s.07,1.06.09,1.61c.19,3,.31,6.09.37,9.14h0Q737.25,185.38,736.69,195.39Z"/><path class="cls-32" d="M736.64,166.21H708.13A228.25,228.25,0,0,0,641.54,19.14,230.67,230.67,0,0,0,619.15-.54h42.94c.64.64,1.28,1.27,1.9,1.93.78.79,1.54,1.59,2.3,2.4s1.3,1.36,1.93,2,1.27,1.38,1.9,2.08l1.5,1.64q1.29,1.44,2.55,2.88l.89,1,1.08,1.26c.09.11.17.2.25.31l.86,1,1.81,2.18.41.51.25.3c1.17,1.44,2.33,2.91,3.46,4.37.11.13.23.29.33.43l.67.88c.44.57.89,1.16,1.33,1.75l0,0,1.79,2.41c.08.12.16.22.24.33.28.38.56.75.82,1.13s.75,1,1.11,1.55.84,1.18,1.25,1.75l0,.08c1.71,2.44,3.37,4.92,5,7.4.05.09.1.15.15.24.26.39.51.78.76,1.17l.21.33c.69,1.08,1.37,2.16,2,3.26l.07.1,1.47,2.42c.61,1,1.21,2.05,1.81,3.07.88,1.51,1.74,3,2.6,4.56,1.42,2.57,2.79,5.17,4.12,7.76q4.62,9.06,8.46,18.35,1.15,2.79,2.25,5.59t2,5.36h0c.66,1.82,1.29,3.63,1.91,5.47,0,.1.07.22.11.33.27.81.53,1.61.79,2.41s.54,1.66.8,2.51c0,.1.07.21.1.33a257.68,257.68,0,0,1,7,27.75c.31,1.63.61,3.25.88,4.88a.3.3,0,0,1,0,.1c.1.54.19,1.09.28,1.64l.3,1.84c.14.86.27,1.7.38,2.54.33,2.18.63,4.37.89,6.55.08.61.15,1.21.22,1.83q.48,4.13.82,8.28c.1,1.17.19,2.35.27,3.53,0,.42.06.83.08,1.25S736.61,165.66,736.64,166.21Z"/><path class="cls-33" d="M283.14,299.46H250.58q-5.52-10.66-10-21.69c-1.11-2.74-2.16-5.49-3.17-8.26H268A228.73,228.73,0,0,0,283.14,299.46Z"/><path class="cls-34" d="M853.31,181.22c0,.75,0,1.49,0,2.24s0,1.49,0,2.24l0,2.23-.06,2.24c0,1.19-.06,2.37-.1,3.55l0,.76c-.05,1.51-.11,3-.18,4.51,0,.4,0,.78,0,1.17v0c-.07,1.35-.15,2.71-.24,4.07-.07,1.09-.14,2.2-.22,3.31,0,.16,0,.33,0,.52-.06.86-.13,1.73-.2,2.58-.09,1.17-.19,2.31-.28,3.48l-.09,1q0,.51-.09,1c0,.18,0,.36,0,.53s0,.58-.08.88c-.11,1.1-.22,2.22-.34,3.33-.08.75-.16,1.5-.25,2.24-.18,1.69-.38,3.37-.6,5-.1.73-.19,1.47-.29,2.22s-.19,1.49-.3,2.23c-.2,1.46-.41,2.93-.63,4.39s-.48,3.12-.73,4.68c-.11.68-.23,1.37-.35,2.05-.21,1.24-.42,2.47-.64,3.71,0,.24-.08.48-.13.72-.18,1-.38,2.07-.57,3.09-.14.8-.3,1.57-.46,2.36-.21,1.13-.44,2.25-.68,3.37,0,.08,0,.15-.05.24-.29,1.39-.59,2.78-.9,4.16-.64,2.91-1.3,5.8-2,8.7H762.9A297.16,297.16,0,0,0,714.44-.54h91.84l.56,1c1.34,2.43,2.65,4.87,3.94,7.34,1.21,2.26,2.36,4.53,3.48,6.8,1.32,2.67,2.61,5.34,3.87,8,.18.36.34.7.51,1.07,0,.07.07.12.09.19l.57,1.25c.42.93.84,1.85,1.25,2.77.27.59.53,1.17.78,1.77.16.35.32.71.47,1.07.1.2.19.39.28.61s.25.58.38.85.19.48.29.7c.32.73.63,1.45.93,2.17s.59,1.38.87,2.06c.38.92.76,1.85,1.13,2.77.12.27.23.54.34.8s.21.53.3.79.3.71.45,1.08q.83,2.07,1.62,4.14c.11.27.2.53.3.78.19.5.38,1,.56,1.49.06.15.12.32.17.47s.11.25.15.37l.14.38c.66,1.75,1.29,3.5,1.92,5.25.22.61.44,1.22.65,1.82.07.21.14.38.18.55.13.36.26.72.37,1.07.37,1,.72,2.07,1.07,3.12,0,.1.07.19.1.3q.63,1.89,1.23,3.78c0,.08,0,.15.07.22.21.64.42,1.27.62,1.92.41,1.28.8,2.56,1.19,3.84.19.63.38,1.29.58,1.93.35,1.14.68,2.3,1,3.45s.65,2.25,1,3.4q1,3.48,1.85,7c.32,1.21.63,2.43.92,3.64s.64,2.67,1,4c.47,2,.92,4,1.35,6,0,.13.06.29.09.43q.38,1.7.72,3.42c.14.72.29,1.46.43,2.19.09.4.18.83.26,1.24.17.85.34,1.72.52,2.6,0,.3.09.57.16.88q.66,3.49,1.24,7a2.87,2.87,0,0,1,.05.31c.2,1.22.4,2.43.58,3.64s.37,2.44.54,3.67c0,.22.08.44.11.64s.07.44.1.67c.13.88.25,1.75.37,2.63s.21,1.53.3,2.3c0,.13,0,.26,0,.39.13,1,.25,2,.37,3,.15,1.26.3,2.53.44,3.81s.27,2.54.39,3.81c.06.55.11,1.06.16,1.6.17,1.69.32,3.39.45,5.09.09,1.18.18,2.36.26,3.56s.19,2.5.27,3.76.15,2.54.21,3.8c0,1,.09,2,.14,3,.09,2.46.19,4.91.24,7.37,0,.64,0,1.27,0,1.9,0,.86,0,1.72,0,2.57s0,1.5,0,2.25S853.31,180.47,853.31,181.22Z"/><path class="cls-35" d="M206.94,299.46H124.77c-.12-.36-.23-.7-.35-1l-.69-2.14c-.48-1.44-.93-2.88-1.38-4.31l-.66-2.17c-.34-1.13-.67-2.24-1-3.36-.27-.92-.54-1.86-.8-2.81s-.54-1.86-.8-2.82H199.6Q202.95,290.23,206.94,299.46Z"/><path class="cls-36" d="M853.29,185.7l0,2.23c0,2.19-.11,4.37-.19,6.56q-.08,2.25-.18,4.5c0,.4,0,.78,0,1.17v0c-.18,3.49-.42,7-.7,10.49-.12,1.5-.24,3-.37,4.5,0,.5-.08,1-.13,1.51,0,.28,0,.58-.08.88-.11,1.1-.22,2.22-.34,3.33-.08.75-.16,1.5-.25,2.24-.18,1.69-.38,3.37-.6,5-.1.73-.19,1.47-.29,2.22s-.19,1.49-.3,2.23c-.2,1.46-.41,2.93-.63,4.39s-.48,3.12-.73,4.68c-.11.68-.23,1.37-.35,2.05-.2,1.24-.41,2.47-.64,3.71s-.46,2.55-.7,3.81c-.08.44-.17.87-.26,1.31s-.13.69-.2,1.05c-.23,1.2-.47,2.4-.73,3.61-.88,4.29-1.85,8.59-2.89,12.86H762.9A297.16,297.16,0,0,0,714.44-.54h91.82c.2.33.39.68.58,1,1.34,2.43,2.65,4.87,3.94,7.34q1.79,3.39,3.48,6.8c1.32,2.67,2.61,5.34,3.87,8,.4.83.79,1.68,1.17,2.51s.84,1.85,1.25,2.77q.78,1.72,1.53,3.45c.13.28.25.58.38.85.41,1,.83,1.92,1.22,2.87.3.69.59,1.38.87,2.06q.75,1.79,1.47,3.57l.75,1.87q.83,2.07,1.62,4.14c.11.27.2.53.3.78.19.5.38,1,.56,1.49s.31.81.46,1.22c.66,1.75,1.29,3.5,1.92,5.25.28.79.56,1.57.83,2.37.13.36.26.72.37,1.07.37,1,.72,2.07,1.07,3.12,0,.1.07.19.1.3q.63,1.89,1.23,3.78c0,.08,0,.15.07.22.21.64.42,1.27.62,1.92.41,1.28.8,2.56,1.19,3.84.19.63.38,1.29.58,1.93.35,1.14.68,2.3,1,3.45s.65,2.25,1,3.4q1,3.48,1.85,7c.32,1.21.63,2.43.92,3.64s.64,2.67,1,4q.75,3.19,1.44,6.42c.49,2.28,1,4.57,1.41,6.85.17.87.34,1.73.52,2.61.5,2.62,1,5.24,1.4,7.87a2.87,2.87,0,0,1,.05.31c.48,2.87.93,5.74,1.33,8.62.13.88.25,1.75.37,2.63s.21,1.53.3,2.3c0,.13,0,.26,0,.39.13,1,.25,2,.37,3,.15,1.26.3,2.53.44,3.81s.27,2.54.39,3.81c.06.55.11,1.06.16,1.6.17,1.69.32,3.39.45,5.09.09,1.18.18,2.36.26,3.56s.19,2.5.27,3.76.15,2.54.21,3.8c0,1,.09,2,.14,3,.14,3.09.24,6.19.29,9.27,0,.86,0,1.72,0,2.57Q853.35,181.22,853.29,185.7Z"/><path class="cls-37" d="M124.77,299.46l.36,1.08c-.13-.36-.25-.72-.37-1.08s-.23-.7-.34-1c-.72-2.14-1.4-4.3-2.07-6.45l-.66-2.17c-.34-1.13-.67-2.24-1-3.36-.27-.94-.54-1.86-.8-2.81s-.54-1.86-.8-2.82H199.6q3.35,9.43,7.34,18.66Z"/><path class="cls-38" d="M708.37,181.2c0,.65,0,1.31,0,2,0,.19,0,.39,0,.6v.13c0,.4,0,.83,0,1.25s0,.74,0,1.1c0,.53,0,1-.05,1.55s0,1,0,1.55,0,.75-.05,1.12,0,1.07-.07,1.59c0,.27,0,.53,0,.79s0,.64-.05,1l-.09,1.52c0,.71-.09,1.43-.14,2.14-.06.91-.13,1.81-.21,2.72,0,.06,0,.1,0,.16l-.18,2h0c0,.16,0,.34,0,.52-.06.69-.13,1.41-.21,2.11,0,.44-.09.87-.14,1.3-.07.66-.15,1.34-.23,2s-.17,1.41-.26,2.13c-.19,1.46-.39,2.91-.6,4.38l-.24,1.58c0,.23-.08.45-.11.69a0,0,0,0,1,0,0c-.2,1.3-.42,2.61-.65,3.9,0,.26-.09.51-.13.77-.2,1.09-.4,2.17-.61,3.25-.17.88-.35,1.76-.53,2.64,0,.21-.08.41-.13.61-.09.47-.19.94-.3,1.42-.2.91-.4,1.84-.61,2.77-.09.37-.18.75-.26,1.12h0l-.18.76c0,.21-.09.4-.13.59a1.33,1.33,0,0,0,0,.19c-.13.54-.26,1.09-.41,1.64-.08.33-.16.68-.25,1s-.12.49-.19.73a.83.83,0,0,1,0,.15c-.14.6-.3,1.18-.46,1.76-.23.89-.47,1.77-.72,2.65l-.48,1.7-.27.94-.21.69c-.23.77-.47,1.56-.71,2.33-.1.34-.2.66-.3,1l-.37,1.18c-.45,1.39-.91,2.77-1.38,4.17l-.36,1.09h0c-.28.82-.56,1.62-.84,2.42h0l-.06.19c-.27.74-.54,1.47-.82,2.21v0q-.87,2.36-1.8,4.69l-.18.46c0,.12-.09.22-.13.32h0a230.45,230.45,0,0,0,4.8-42.06q.15-5.9,0-11.82-.18-6.42-.7-12.85c-4.61-57.32-29.79-114.68-75.1-160A264.45,264.45,0,0,0,569.23-.54h49.43c.31.24.63.49.94.71s.38.31.57.45l.94.74.58.46q.22.16.45.36c.6.48,1.21,1,1.8,1.46l.93.77a6.66,6.66,0,0,1,.59.49c.8.65,1.6,1.33,2.39,2l.55.46c1,.87,2,1.74,3,2.62s1.82,1.63,2.72,2.47l.84.76c.22.2.44.4.66.62,1.22,1.13,2.42,2.27,3.61,3.44.15.14.3.28.44.43.56.54,1.12,1.09,1.67,1.65.78.77,1.56,1.56,2.33,2.37S645.1,23.2,645.8,24c.56.59,1.12,1.17,1.67,1.78s1.13,1.22,1.69,1.84,1,1.08,1.46,1.61l.78.89c.17.21.35.41.53.6.46.54.92,1.06,1.38,1.61.64.73,1.26,1.46,1.88,2.21S656.43,36,657,36.73q4.65,5.7,8.87,11.61c.51.7,1,1.43,1.51,2.14a.83.83,0,0,1,.08.12c.47.66.92,1.32,1.37,2s.9,1.31,1.34,2c.6.89,1.18,1.77,1.76,2.68s1.15,1.78,1.71,2.69c2.06,3.28,4,6.62,5.89,10q1.2,2.14,2.34,4.31a224.43,224.43,0,0,1,11.55,25.55c.11.3.22.6.33.88.67,1.75,1.3,3.51,1.91,5.28.26.72.5,1.45.74,2.17s.49,1.46.72,2.18l.3.94c.23.72.46,1.43.68,2.15a0,0,0,0,1,0,0c.33,1,.65,2.1,1,3.16.53,1.77,1,3.57,1.5,5.35.39,1.46.76,2.91,1.12,4.37v0a.94.94,0,0,0,0,.16c.23,1,.47,1.93.69,2.9.18.77.36,1.56.53,2.34l.21,1q1.17,5.42,2.07,10.86c.12.75.25,1.5.37,2.26q.42,2.73.78,5.45c.11.83.21,1.67.31,2.5l.09.75c.09.75.17,1.5.25,2.24.31,2.86.56,5.71.75,8.58,0,.8.11,1.59.15,2.38s.1,1.59.13,2.37l0,.68Q708.37,176,708.37,181.2Z"/></g></g></g></svg>