<svg xmlns="http://www.w3.org/2000/svg" xmlns:xlink="http://www.w3.org/1999/xlink" viewBox="0 0 923.75 300"><defs><style>.cls-1{fill:none;}.cls-2{isolation:isolate;}.cls-3{clip-path:url(#clip-path);}.cls-10,.cls-11,.cls-12,.cls-13,.cls-14,.cls-15,.cls-16,.cls-17,.cls-19,.cls-20,.cls-21,.cls-23,.cls-4,.cls-5,.cls-6,.cls-7,.cls-8,.cls-9{fill-rule:evenodd;}.cls-24,.cls-4,.cls-5,.cls-6{mix-blend-mode:screen;}.cls-4{opacity:0.72;fill:url(#radial-gradient);}.cls-5{fill:url(#_ÂÁ_Ï_ÌÌ_È_ËÂÌÚ_741);}.cls-6{fill:url(#_ÂÁ_Ï_ÌÌ_È_ËÂÌÚ_741-2);}.cls-7{fill:url(#_ÂÁ_Ï_ÌÌ_È_ËÂÌÚ_825);}.cls-8{fill:url(#_ÂÁ_Ï_ÌÌ_È_ËÂÌÚ_825-2);}.cls-9{fill:url(#_ÂÁ_Ï_ÌÌ_È_ËÂÌÚ_817);}.cls-10{fill:url(#_ÂÁ_Ï_ÌÌ_È_ËÂÌÚ_817-2);}.cls-11{fill:url(#_ÂÁ_Ï_ÌÌ_È_ËÂÌÚ_825-3);}.cls-12{fill:url(#_ÂÁ_Ï_ÌÌ_È_ËÂÌÚ_825-4);}.cls-13{fill:url(#_ÂÁ_Ï_ÌÌ_È_ËÂÌÚ_717);}.cls-14{fill:url(#_ÂÁ_Ï_ÌÌ_È_ËÂÌÚ_717-2);}.cls-15{fill:url(#_ÂÁ_Ï_ÌÌ_È_ËÂÌÚ_729);}.cls-16{fill:url(#_ÂÁ_Ï_ÌÌ_È_ËÂÌÚ_729-2);}.cls-17,.cls-21,.cls-23,.cls-25{mix-blend-mode:multiply;}.cls-17,.cls-21{opacity:0.2;}.cls-17{fill:url(#_ÂÁ_Ï_ÌÌ_È_ËÂÌÚ_362);}.cls-18,.cls-22{fill:#fff;mix-blend-mode:soft-light;}.cls-19{fill:url(#_ÂÁ_Ï_ÌÌ_È_ËÂÌÚ_817-3);}.cls-20{fill:url(#_ÂÁ_Ï_ÌÌ_È_ËÂÌÚ_817-4);}.cls-21{fill:url(#_ÂÁ_Ï_ÌÌ_È_ËÂÌÚ_362-2);}.cls-22,.cls-23{opacity:0.5;}.cls-23{fill:url(#_ÂÁ_Ï_ÌÌ_È_ËÂÌÚ_366);}.cls-24{fill:url(#_ÂÁ_Ï_ÌÌ_È_ËÂÌÚ_349);}.cls-25{fill:url(#Degradado_sin_nombre_13);}</style><clipPath id="clip-path"><rect class="cls-1" width="923.75" height="300"/></clipPath><radialGradient id="radial-gradient" cx="479.48" cy="149.46" r="193.89" gradientUnits="userSpaceOnUse"><stop offset="0" stop-color="#00006b"/><stop offset="0.51" stop-color="#314ec6"/><stop offset="0.6" stop-color="#3756c9"/><stop offset="0.74" stop-color="#476bd0"/><stop offset="0.9" stop-color="#628edd"/><stop offset="1" stop-color="#74a6e5"/></radialGradient><radialGradient id="_ÂÁ_Ï_ÌÌ_È_ËÂÌÚ_741" cx="199.52" cy="258.9" r="153.96" gradientUnits="userSpaceOnUse"><stop offset="0.02" stop-color="#6e639a"/><stop offset="0.99"/></radialGradient><radialGradient id="_ÂÁ_Ï_ÌÌ_È_ËÂÌÚ_741-2" cx="766.76" cy="257.97" r="151.94" xlink:href="#_ÂÁ_Ï_ÌÌ_È_ËÂÌÚ_741"/><linearGradient id="_ÂÁ_Ï_ÌÌ_È_ËÂÌÚ_825" x1="205.06" y1="313.42" x2="205.06" y2="-2.62" gradientUnits="userSpaceOnUse"><stop offset="0.01" stop-color="#623b86"/><stop offset="1" stop-color="#1a013f"/></linearGradient><linearGradient id="_ÂÁ_Ï_ÌÌ_È_ËÂÌÚ_825-2" x1="753.9" y1="312.28" x2="753.9" y2="-2.61" xlink:href="#_ÂÁ_Ï_ÌÌ_È_ËÂÌÚ_825"/><linearGradient id="_ÂÁ_Ï_ÌÌ_È_ËÂÌÚ_817" x1="222.97" y1="309.87" x2="222.97" y2="-1.46" gradientUnits="userSpaceOnUse"><stop offset="0" stop-color="#9b8bc2"/><stop offset="1" stop-color="#2f0c66"/></linearGradient><linearGradient id="_ÂÁ_Ï_ÌÌ_È_ËÂÌÚ_817-2" x1="735.98" y1="309.87" x2="735.98" y2="-1.46" xlink:href="#_ÂÁ_Ï_ÌÌ_È_ËÂÌÚ_817"/><linearGradient id="_ÂÁ_Ï_ÌÌ_È_ËÂÌÚ_825-3" x1="261.62" y1="303.95" x2="261.62" y2="-0.54" xlink:href="#_ÂÁ_Ï_ÌÌ_È_ËÂÌÚ_825"/><linearGradient id="_ÂÁ_Ï_ÌÌ_È_ËÂÌÚ_825-4" x1="697.34" y1="303.95" x2="697.34" y2="-0.54" xlink:href="#_ÂÁ_Ï_ÌÌ_È_ËÂÌÚ_825"/><linearGradient id="_ÂÁ_Ï_ÌÌ_È_ËÂÌÚ_717" x1="264.43" y1="303.64" x2="264.43" y2="-0.55" gradientUnits="userSpaceOnUse"><stop offset="0" stop-color="#2f0c66"/><stop offset="1" stop-color="#4d4c98"/></linearGradient><linearGradient id="_ÂÁ_Ï_ÌÌ_È_ËÂÌÚ_717-2" x1="694.53" y1="303.64" x2="694.53" y2="-0.55" xlink:href="#_ÂÁ_Ï_ÌÌ_È_ËÂÌÚ_717"/><linearGradient id="_ÂÁ_Ï_ÌÌ_È_ËÂÌÚ_729" x1="281.07" y1="301.31" x2="281.07" y2="-0.54" gradientUnits="userSpaceOnUse"><stop offset="0" stop-color="#7198d4"/><stop offset="1" stop-color="#2f0c6e"/></linearGradient><linearGradient id="_ÂÁ_Ï_ÌÌ_È_ËÂÌÚ_729-2" x1="677.87" y1="301.31" x2="677.87" y2="-0.54" xlink:href="#_ÂÁ_Ï_ÌÌ_È_ËÂÌÚ_729"/><linearGradient id="_ÂÁ_Ï_ÌÌ_È_ËÂÌÚ_362" x1="677.89" y1="1006.1" x2="677.89" y2="-0.54" gradientUnits="userSpaceOnUse"><stop offset="0" stop-color="#f8dcd0"/><stop offset="1" stop-color="#7d174f"/></linearGradient><linearGradient id="_ÂÁ_Ï_ÌÌ_È_ËÂÌÚ_817-3" x1="783.87" y1="861.33" x2="783.87" y2="-3.08" xlink:href="#_ÂÁ_Ï_ÌÌ_È_ËÂÌÚ_817"/><linearGradient id="_ÂÁ_Ï_ÌÌ_È_ËÂÌÚ_817-4" x1="163.01" y1="305.25" x2="163.01" y2="132" xlink:href="#_ÂÁ_Ï_ÌÌ_È_ËÂÌÚ_817"/><linearGradient id="_ÂÁ_Ï_ÌÌ_È_ËÂÌÚ_362-2" x1="783.88" y1="270.13" x2="783.88" y2="-3.08" xlink:href="#_ÂÁ_Ï_ÌÌ_È_ËÂÌÚ_362"/><linearGradient id="_ÂÁ_Ï_ÌÌ_È_ËÂÌÚ_366" x1="638.8" y1="266.48" x2="638.8" y2="-0.54" gradientUnits="userSpaceOnUse"><stop offset="0.02" stop-color="#f3bbb2"/><stop offset="0.99" stop-color="#742537"/></linearGradient><radialGradient id="_ÂÁ_Ï_ÌÌ_È_ËÂÌÚ_349" cx="555.1" cy="146.55" r="368.05" gradientUnits="userSpaceOnUse"><stop offset="0" stop-color="#3a5694"/><stop offset="0.17" stop-color="#2d4373"/><stop offset="0.44" stop-color="#1a2642"/><stop offset="0.68" stop-color="#0c111e"/><stop offset="0.87" stop-color="#030508"/><stop offset="1"/></radialGradient><linearGradient id="Degradado_sin_nombre_13" x1="-5134.32" y1="150" x2="-3214.32" y2="150" gradientTransform="translate(2590.93) scale(0.49 1)" gradientUnits="userSpaceOnUse"><stop offset="0" stop-color="#fff"/><stop offset="0.21" stop-color="#fcfdfd" stop-opacity="0.99"/><stop offset="0.35" stop-color="#f4f6f8" stop-opacity="0.97"/><stop offset="0.46" stop-color="#e6e9f0" stop-opacity="0.94"/><stop offset="0.57" stop-color="#d2d8e4" stop-opacity="0.89"/><stop offset="0.66" stop-color="#b8c1d4" stop-opacity="0.82"/><stop offset="0.75" stop-color="#98a5c0" stop-opacity="0.74"/><stop offset="0.84" stop-color="#7284a9" stop-opacity="0.64"/><stop offset="0.92" stop-color="#465e8e" stop-opacity="0.53"/><stop offset="0.99" stop-color="#153471" stop-opacity="0.41"/><stop offset="1" stop-color="#11306e" stop-opacity="0.4"/></linearGradient></defs><g class="cls-2"><g id="Capa_3" data-name="Capa 3"><g class="cls-3"><rect class="cls-1" x="-690" y="-50" width="1380" height="400"/><path class="cls-4" d="M708.37,181.2c0,.65,0,1.31,0,2,0,.19,0,.39,0,.6v.13c0,.4,0,.83,0,1.25s0,.74,0,1.1c0,.53,0,1-.05,1.55s0,1,0,1.55,0,.75-.05,1.12,0,1.07-.07,1.59c0,.27,0,.52,0,.78s0,.65-.06,1l-.09,1.52c0,.71-.09,1.43-.14,2.14-.06.91-.13,1.81-.21,2.72,0,.06,0,.1,0,.16-.06.68-.11,1.36-.17,2-.12,1.31-.25,2.61-.4,3.9,0,.27-.06.52-.09.77l-.09.77-.06.48c-.08.71-.17,1.41-.26,2.13-.19,1.46-.39,2.91-.6,4.38l-.24,1.58c0,.23-.08.45-.11.69a0,0,0,0,1,0,0c-.2,1.3-.42,2.61-.65,3.9,0,.26-.09.51-.13.77-.2,1.09-.4,2.17-.61,3.25s-.43,2.17-.66,3.25c-.09.47-.19.94-.3,1.42-.2.91-.4,1.84-.61,2.77-.09.37-.18.75-.26,1.12h0c-.05.19-.1.4-.14.57s-.12.52-.18.77a1.33,1.33,0,0,0,0,.19c-.13.54-.26,1.09-.41,1.64-.08.33-.16.68-.25,1s-.12.49-.19.73a.83.83,0,0,1,0,.15c-.14.6-.3,1.18-.46,1.76-.23.89-.47,1.77-.72,2.65l-.48,1.7-.27.94-.21.69c-.23.77-.47,1.56-.71,2.33-.1.34-.2.66-.3,1l-.37,1.18q-.84,2.64-1.74,5.26h0c-.28.82-.56,1.62-.84,2.42a1.07,1.07,0,0,1-.07.19c-.27.74-.54,1.47-.82,2.21v0c-.16.4-.32.83-.48,1.25-.43,1.15-.87,2.28-1.32,3.44l-.18.46c0,.12-.09.22-.13.32-.32.8-.65,1.59-1,2.37-.52,1.25-1.05,2.49-1.59,3.73-.36.82-.71,1.63-1.08,2.44s-.85,1.88-1.28,2.82c-.29.61-.58,1.2-.86,1.82l-.61,1.26-.6,1.28c-2.88,5.85-6,11.62-9.44,17.26h-392A229.39,229.39,0,0,1,271.81,84.79q1.19-2.54,2.42-5.05c.42-.83.84-1.66,1.26-2.51.85-1.66,1.73-3.32,2.62-5s1.82-3.3,2.75-4.94,1.9-3.25,2.88-4.87,2-3.22,3-4.83,2.08-3.17,3.14-4.74l1.62-2.36q1.65-2.34,3.34-4.67c1.14-1.55,2.3-3.08,3.47-4.61s2.38-3,3.6-4.51a228.57,228.57,0,0,1,15.71-17.38h0c1.4-1.41,2.81-2.77,4.23-4.12q5.34-5.07,10.92-9.74,1.67-1.41,3.36-2.76c1.13-.92,2.27-1.81,3.41-2.69l.75-.57H618.68a4.73,4.73,0,0,1,.45.36c.16.13.32.25.47.35s.38.31.57.45l.94.74.58.46q.22.16.45.36c.92.73,1.83,1.48,2.73,2.23a6.66,6.66,0,0,1,.59.49c.8.65,1.6,1.33,2.39,2l.55.46c1,.87,2,1.74,3,2.62s1.82,1.63,2.72,2.47l.84.76c.22.2.44.4.66.62.5.46,1,.91,1.49,1.39h0a3.22,3.22,0,0,1,.32.32c.6.56,1.2,1.14,1.79,1.73.15.14.3.28.44.43.56.54,1.12,1.08,1.68,1.64,2.35,2.34,4.64,4.74,6.87,7.17h0c.16.16.32.34.48.52s.31.35.47.53c.49.53,1,1.08,1.46,1.61l.78.89c.17.21.35.41.53.6.46.54.92,1.06,1.38,1.61.64.73,1.26,1.46,1.88,2.21.32.37.62.74.93,1.12l.67.8.25.32q4.65,5.7,8.87,11.61c.51.7,1,1.43,1.51,2.14a.83.83,0,0,1,.08.12c.47.66.92,1.32,1.37,2s.9,1.31,1.34,2c.6.89,1.18,1.77,1.76,2.68s1.15,1.78,1.71,2.69c2.06,3.28,4,6.62,5.89,10q1.2,2.14,2.34,4.31a224.43,224.43,0,0,1,11.55,25.55c.11.3.22.6.33.88.67,1.75,1.3,3.51,1.91,5.28.25.71.5,1.45.74,2.17s.49,1.46.72,2.18l.3.94c.23.72.46,1.43.68,2.15a0,0,0,0,1,0,0l.66,2.19c.1.32.19.65.29,1,.53,1.77,1,3.57,1.5,5.35.39,1.46.76,2.92,1.12,4.36,0,0,0,0,0,0s0,.11,0,.17c.07.27.13.53.19.81.17.69.33,1.39.5,2.08s.36,1.56.53,2.34l.21,1q1.17,5.42,2.07,10.86c.12.75.25,1.5.37,2.26q.42,2.73.78,5.45c.1.76.19,1.54.29,2.3,0,.07,0,.14,0,.2l.09.75c.09.75.17,1.5.25,2.24.31,2.86.56,5.71.75,8.58,0,.8.11,1.59.15,2.38s.1,1.59.13,2.37l0,.68Q708.37,176,708.37,181.2Z"/><path class="cls-5" d="M340.3-.54l-.75.57c-1.14.88-2.28,1.77-3.41,2.69s-2.25,1.82-3.36,2.76q-5.58,4.68-10.92,9.74c-1.42,1.36-2.83,2.73-4.23,4.13a228.57,228.57,0,0,0-15.71,17.38c-1.22,1.49-2.41,3-3.6,4.51s-2.33,3.06-3.47,4.61-2.24,3.11-3.34,4.67l-1.62,2.36q-1.59,2.35-3.14,4.74c-1,1.61-2,3.22-3,4.83s-1.94,3.23-2.88,4.87-1.85,3.28-2.75,4.94-1.77,3.31-2.62,5c-.42.85-.84,1.68-1.26,2.51q-1.23,2.52-2.42,5.05a229.39,229.39,0,0,0,11.66,214.67H124.77l.36,1.08c-.13-.36-.25-.72-.37-1.08H76.32a295,295,0,0,1-18.5-33A431.26,431.26,0,0,1,89.47-.54Z"/><path class="cls-6" d="M905.58,122.08V240.32a430,430,0,0,1-12.45,59.14H675.49c3.42-5.64,6.56-11.41,9.44-17.25.21-.42.42-.86.62-1.29l.61-1.26c.28-.62.57-1.21.86-1.82.43-.94.86-1.88,1.28-2.82s.72-1.62,1.08-2.44c.54-1.24,1.07-2.48,1.59-3.73.32-.8.65-1.59,1-2.38h0c.11-.25.21-.51.31-.76.45-1.16.89-2.29,1.32-3.44.16-.42.32-.85.48-1.25v0l.45-1.24c.15-.39.29-.77.43-1.16.29-.8.57-1.61.85-2.42h0c.13-.37.25-.74.37-1.09.47-1.4.93-2.78,1.38-4.17l.37-1.18c.1-.32.2-.64.3-1,.24-.77.48-1.56.71-2.33l.21-.69.27-.94.48-1.7c.25-.88.49-1.76.72-2.65.16-.58.32-1.16.46-1.76a.83.83,0,0,0,0-.15c.15-.59.3-1.17.44-1.74s.28-1.1.41-1.64a1.33,1.33,0,0,1,0-.19c0-.19.09-.38.13-.59a1.21,1.21,0,0,0,0-.18c0-.17.09-.38.14-.57h0c.08-.37.17-.75.26-1.12.21-.93.41-1.86.61-2.77.11-.48.21-1,.3-1.42,0-.2.09-.4.13-.61.18-.88.36-1.76.53-2.64.21-1.08.41-2.16.61-3.25,0-.26.09-.51.13-.77.23-1.29.45-2.6.65-3.9a0,0,0,0,0,0,0c0-.24.07-.46.11-.69l.24-1.58c.21-1.47.41-2.92.6-4.38.09-.72.18-1.42.26-2.13l.06-.48.09-.77c0-.25.06-.5.08-.75,0-.43.09-.86.14-1.3.08-.7.15-1.42.21-2.11,0-.18,0-.36,0-.52h0l.18-2c0-.06,0-.1,0-.16.08-.91.15-1.81.21-2.72.05-.71.1-1.43.14-2.14l.09-1.52c0-.34,0-.66.05-1s0-.52,0-.79c0-.52,0-1.07.07-1.59,0-.89.07-1.78.09-2.67s.05-1.76.06-2.65c0-.42,0-.85,0-1.25v-.13c0-.21,0-.41,0-.6,0-.65,0-1.31,0-2q0-5.2-.24-10.41l0-.68c0-.78-.08-1.57-.13-2.37s-.1-1.58-.15-2.38c-.19-2.87-.44-5.72-.75-8.58-.08-.74-.16-1.49-.25-2.24l-.09-.75c0-.06,0-.13,0-.2-.1-.76-.19-1.54-.29-2.3q-.36-2.72-.78-5.45c-.12-.76-.25-1.51-.37-2.26q-.9-5.45-2.07-10.86l-.21-1c-.17-.78-.35-1.57-.53-2.34s-.33-1.39-.5-2.08c-.06-.28-.12-.54-.19-.81,0-.06,0-.11,0-.17s0,0,0,0c-.36-1.44-.73-2.9-1.12-4.36-.47-1.78-1-3.58-1.5-5.35-.1-.32-.19-.65-.29-1l-.66-2.19a0,0,0,0,0,0,0c-.22-.72-.45-1.43-.68-2.15l-.3-.94c-.23-.72-.47-1.45-.72-2.18s-.48-1.45-.74-2.17c-.61-1.77-1.24-3.53-1.91-5.28-.11-.28-.22-.58-.33-.88a224.43,224.43,0,0,0-11.55-25.55q-1.14-2.16-2.34-4.31c-1.86-3.35-3.83-6.69-5.89-10-.56-.91-1.13-1.8-1.71-2.69s-1.16-1.79-1.76-2.68c-.44-.68-.88-1.33-1.34-2s-.9-1.34-1.37-2a.83.83,0,0,0-.08-.12c-.5-.71-1-1.44-1.51-2.14q-4.23-5.91-8.87-11.61l-.25-.32-.67-.8c-.31-.38-.61-.75-.93-1.12-.62-.75-1.24-1.48-1.88-2.21-.46-.55-.92-1.07-1.38-1.61-.18-.19-.36-.39-.53-.6l-.78-.89c-.47-.53-1-1.08-1.46-1.61-.3-.35-.63-.71-.95-1.05h0l-.74-.78c-.55-.61-1.11-1.19-1.67-1.78-.7-.75-1.42-1.49-2.14-2.23s-1.55-1.6-2.33-2.37c-.55-.56-1.11-1.11-1.67-1.65-.14-.15-.29-.29-.44-.43-.7-.69-1.4-1.38-2.11-2h0c-.49-.48-1-.93-1.49-1.39l-1.5-1.38c-.9-.85-1.8-1.66-2.72-2.47s-2-1.75-3-2.62l-.55-.46c-.79-.68-1.59-1.36-2.39-2a6.66,6.66,0,0,0-.59-.49l-.93-.77c-.59-.49-1.2-1-1.8-1.46l-1-.82-.94-.74c-.19-.14-.38-.28-.57-.45s-.31-.22-.47-.35l-.47-.36H869.47A428.61,428.61,0,0,1,905.58,122.08Z"/><path class="cls-7" d="M340.3-.54l-.75.57c-1.14.88-2.28,1.77-3.41,2.69s-2.25,1.82-3.36,2.76q-5.58,4.68-10.92,9.74c-1.42,1.36-2.83,2.73-4.23,4.13a228.57,228.57,0,0,0-15.71,17.38c-1.22,1.49-2.41,3-3.6,4.51s-2.33,3.06-3.47,4.61-2.24,3.11-3.34,4.67l-1.62,2.36q-1.59,2.35-3.14,4.74c-1,1.61-2,3.22-3,4.83s-1.94,3.23-2.88,4.87-1.85,3.28-2.75,4.94-1.77,3.31-2.62,5c-.42.85-.84,1.68-1.26,2.51q-1.23,2.52-2.42,5.05a229.39,229.39,0,0,0,11.66,214.67H124.77l.36,1.08c-.13-.36-.25-.72-.37-1.08H87.18a410.94,410.94,0,0,1,25-300Z"/><path class="cls-8" d="M871.77,299.46H675.49c3.42-5.64,6.56-11.41,9.44-17.25.21-.42.42-.86.62-1.29l.61-1.26c.28-.62.57-1.21.86-1.82.43-.94.86-1.88,1.28-2.82s.72-1.62,1.08-2.44c.54-1.24,1.07-2.48,1.59-3.73.32-.8.65-1.59,1-2.38h0c.11-.25.21-.51.31-.76.45-1.16.89-2.29,1.32-3.44.16-.42.32-.85.48-1.25v0l.45-1.24c.15-.39.29-.77.43-1.16.29-.8.57-1.61.85-2.42h0c.13-.37.25-.74.37-1.09.47-1.4.93-2.78,1.38-4.17l.37-1.18c.1-.32.2-.64.3-1,.24-.77.48-1.56.71-2.33l.21-.69.27-.94.48-1.7c.25-.88.49-1.76.72-2.65.16-.58.32-1.16.46-1.76a.83.83,0,0,0,0-.15c.15-.59.3-1.17.44-1.74s.28-1.1.41-1.64a1.33,1.33,0,0,1,0-.19c0-.19.09-.38.13-.59a1.21,1.21,0,0,0,0-.18c0-.17.09-.38.14-.57h0c.08-.37.17-.75.26-1.12.21-.93.41-1.86.61-2.77.11-.48.21-1,.3-1.42,0-.2.09-.4.13-.61.18-.88.36-1.76.53-2.64.21-1.08.41-2.16.61-3.25,0-.26.09-.51.13-.77.23-1.29.45-2.6.65-3.9a0,0,0,0,0,0,0c0-.24.07-.46.11-.69l.24-1.58c.21-1.47.41-2.92.6-4.38.09-.72.18-1.42.26-2.13l.06-.48.09-.77c0-.25.06-.5.08-.75,0-.43.09-.86.14-1.3.08-.7.15-1.42.21-2.11,0-.18,0-.36,0-.52h0l.18-2c0-.06,0-.1,0-.16.08-.91.15-1.81.21-2.72.05-.71.1-1.43.14-2.14l.09-1.52c0-.34,0-.66.05-1s0-.52,0-.79c0-.52,0-1.07.07-1.59,0-.89.07-1.78.09-2.67s.05-1.76.06-2.65c0-.42,0-.85,0-1.25v-.13c0-.21,0-.41,0-.6,0-.65,0-1.31,0-2q0-5.2-.24-10.41l0-.68c0-.78-.08-1.57-.13-2.37s-.1-1.58-.15-2.38c-.19-2.87-.44-5.72-.75-8.58-.08-.74-.16-1.49-.25-2.24l-.09-.75c0-.06,0-.13,0-.2-.1-.76-.19-1.54-.29-2.3q-.36-2.72-.78-5.45c-.12-.76-.25-1.51-.37-2.26q-.9-5.45-2.07-10.86l-.21-1c-.17-.78-.35-1.57-.53-2.34s-.33-1.39-.5-2.08c-.06-.28-.12-.54-.19-.81,0-.06,0-.11,0-.17s0,0,0,0c-.36-1.44-.73-2.9-1.12-4.36-.47-1.78-1-3.58-1.5-5.35-.1-.32-.19-.65-.29-1l-.66-2.19a0,0,0,0,0,0,0c-.22-.72-.45-1.43-.68-2.15l-.3-.94c-.23-.72-.47-1.45-.72-2.18s-.48-1.45-.74-2.17c-.61-1.77-1.24-3.53-1.91-5.28-.11-.28-.22-.58-.33-.88a224.43,224.43,0,0,0-11.55-25.55q-1.14-2.16-2.34-4.31c-1.86-3.35-3.83-6.69-5.89-10-.56-.91-1.13-1.8-1.71-2.69s-1.16-1.79-1.76-2.68c-.44-.68-.88-1.33-1.34-2s-.9-1.34-1.37-2a.83.83,0,0,0-.08-.12c-.5-.71-1-1.44-1.51-2.14q-4.23-5.91-8.87-11.61l-.25-.32-.67-.8c-.31-.38-.61-.75-.93-1.12-.62-.75-1.24-1.48-1.88-2.21-.46-.55-.92-1.07-1.38-1.61-.18-.19-.36-.39-.53-.6l-.78-.89c-.47-.53-1-1.08-1.46-1.61-.3-.35-.63-.71-.95-1.05h0l-.74-.78c-.55-.61-1.11-1.19-1.67-1.78-.7-.75-1.42-1.49-2.14-2.23s-1.55-1.6-2.33-2.37c-.55-.56-1.11-1.11-1.67-1.65-.14-.15-.29-.29-.44-.43-.7-.69-1.4-1.38-2.11-2h0c-.49-.48-1-.93-1.49-1.39l-1.5-1.38c-.9-.85-1.8-1.66-2.72-2.47s-2-1.75-3-2.62l-.55-.46c-.79-.68-1.59-1.36-2.39-2a6.66,6.66,0,0,0-.59-.49l-.93-.77c-.59-.49-1.2-1-1.8-1.46l-1-.82-.94-.74c-.19-.14-.38-.28-.57-.45s-.31-.22-.47-.35l-.47-.36H846.79A410.93,410.93,0,0,1,871.77,299.46Z"/><path class="cls-9" d="M340.3-.54l-.75.57c-1.14.88-2.28,1.77-3.41,2.69s-2.25,1.82-3.36,2.76q-5.58,4.68-10.92,9.74c-1.42,1.36-2.83,2.73-4.23,4.13a228.57,228.57,0,0,0-15.71,17.38c-1.22,1.49-2.41,3-3.6,4.51s-2.33,3.06-3.47,4.61-2.24,3.11-3.34,4.67l-1.62,2.36q-1.59,2.35-3.14,4.74c-1,1.61-2,3.22-3,4.83s-1.94,3.23-2.88,4.87-1.85,3.28-2.75,4.94-1.77,3.31-2.62,5c-.42.85-.84,1.68-1.26,2.51q-1.23,2.52-2.42,5.05a229.39,229.39,0,0,0,11.66,214.67H124.77c-.12-.36-.23-.7-.35-1l-.69-2.14c-.48-1.44-.93-2.88-1.38-4.31l-.66-2.17c-.34-1.13-.67-2.24-1-3.36-.27-.92-.54-1.86-.8-2.81s-.54-1.86-.8-2.82A374.67,374.67,0,0,1,152.69-.54Z"/><path class="cls-10" d="M853.31,181.22c0,.75,0,1.49,0,2.24s0,1.49,0,2.24l0,2.23-.06,2.24c0,.93-.05,1.87-.08,2.79,0,.51,0,1,0,1.52-.05,1.51-.11,3-.18,4.51,0,.4,0,.78,0,1.17v0c-.07,1.35-.15,2.71-.24,4.07-.05.84-.11,1.71-.17,2.57-.09,1.27-.19,2.56-.29,3.84-.12,1.5-.24,3-.37,4.5q0,.51-.09,1c0,.18,0,.36,0,.53s0,.58-.08.88c-.11,1.1-.22,2.22-.34,3.33-.08.75-.16,1.5-.25,2.24-.18,1.69-.38,3.37-.6,5-.1.73-.19,1.47-.29,2.22s-.19,1.49-.3,2.23c-.2,1.46-.41,2.93-.63,4.39s-.48,3.12-.73,4.68c-.11.68-.23,1.37-.35,2.05-.21,1.24-.42,2.47-.64,3.71,0,.24-.08.48-.13.72-.27,1.46-.55,2.94-.83,4.4-.06.36-.13.69-.2,1.05s-.15.76-.23,1.15c-.15.74-.3,1.49-.45,2.22,0,.08,0,.15-.05.24-.29,1.39-.59,2.78-.9,4.16-.64,2.91-1.3,5.8-2,8.7q-3.61,14.79-8.45,29.34H675.49c3.42-5.64,6.56-11.41,9.44-17.25.21-.42.42-.86.62-1.29l.61-1.26c.28-.62.57-1.21.86-1.82.43-.94.86-1.88,1.28-2.82s.72-1.62,1.08-2.44c.54-1.24,1.07-2.48,1.59-3.73.32-.8.65-1.59,1-2.38h0c.11-.25.21-.51.31-.76.45-1.16.89-2.29,1.32-3.44.16-.42.32-.85.48-1.25v0l.45-1.24c.15-.39.29-.77.43-1.16.29-.8.57-1.61.85-2.42h0c.13-.37.25-.74.37-1.09.47-1.4.93-2.78,1.38-4.17l.37-1.18c.1-.32.2-.64.3-1,.24-.77.48-1.56.71-2.33l.21-.69.27-.94.48-1.7c.25-.88.49-1.76.72-2.65.16-.58.32-1.16.46-1.76a.83.83,0,0,0,0-.15c.15-.59.3-1.17.44-1.74s.28-1.1.41-1.64a1.33,1.33,0,0,1,0-.19c0-.19.09-.38.13-.59a1.21,1.21,0,0,0,0-.18c0-.17.09-.38.14-.57h0c.08-.37.17-.75.26-1.12.21-.93.41-1.86.61-2.77.11-.48.21-1,.3-1.42,0-.2.09-.4.13-.61.18-.88.36-1.76.53-2.64.21-1.08.41-2.16.61-3.25,0-.26.09-.51.13-.77.23-1.29.45-2.6.65-3.9a0,0,0,0,0,0,0c0-.24.07-.46.11-.69l.24-1.58c.21-1.47.41-2.92.6-4.38.09-.72.18-1.42.26-2.13l.06-.48.09-.77c0-.25.06-.5.08-.75,0-.43.09-.86.14-1.3.08-.7.15-1.42.21-2.11,0-.18,0-.36,0-.52h0l.18-2c0-.06,0-.1,0-.16.08-.91.15-1.81.21-2.72.05-.71.1-1.43.14-2.14l.09-1.52c0-.34,0-.66.05-1s0-.52,0-.79c0-.52,0-1.07.07-1.59,0-.89.07-1.78.09-2.67s.05-1.76.06-2.65c0-.42,0-.85,0-1.25v-.13c0-.21,0-.41,0-.6,0-.65,0-1.31,0-2q0-5.2-.24-10.41l0-.68c0-.78-.08-1.57-.13-2.37s-.1-1.58-.15-2.38c-.19-2.87-.44-5.72-.75-8.58-.08-.74-.16-1.49-.25-2.24l-.09-.75c0-.06,0-.13,0-.2-.1-.76-.19-1.54-.29-2.3q-.36-2.72-.78-5.45c-.12-.76-.25-1.51-.37-2.26q-.9-5.45-2.07-10.86l-.21-1c-.17-.78-.35-1.57-.53-2.34s-.33-1.39-.5-2.08c-.06-.28-.12-.54-.19-.81,0-.06,0-.11,0-.17s0,0,0,0c-.36-1.44-.73-2.9-1.12-4.36-.47-1.78-1-3.58-1.5-5.35-.1-.32-.19-.65-.29-1l-.66-2.19a0,0,0,0,0,0,0c-.22-.72-.45-1.43-.68-2.15l-.3-.94c-.23-.72-.47-1.45-.72-2.18s-.48-1.45-.74-2.17c-.61-1.77-1.24-3.53-1.91-5.28-.11-.28-.22-.58-.33-.88a224.43,224.43,0,0,0-11.55-25.55q-1.14-2.16-2.34-4.31c-1.86-3.35-3.83-6.69-5.89-10-.56-.91-1.13-1.8-1.71-2.69s-1.16-1.79-1.76-2.68c-.44-.68-.88-1.33-1.34-2s-.9-1.34-1.37-2a.83.83,0,0,0-.08-.12c-.5-.71-1-1.44-1.51-2.14q-4.23-5.91-8.87-11.61l-.25-.32-.67-.8c-.31-.38-.61-.75-.93-1.12-.62-.75-1.24-1.48-1.88-2.21-.46-.55-.92-1.07-1.38-1.61-.18-.19-.36-.39-.53-.6l-.78-.89c-.47-.53-1-1.08-1.46-1.61-.3-.35-.63-.71-.95-1.05h0l-.74-.78c-.55-.61-1.11-1.19-1.67-1.78-.7-.75-1.42-1.49-2.14-2.23s-1.55-1.6-2.33-2.37c-.55-.56-1.11-1.11-1.67-1.65-.14-.15-.29-.29-.44-.43-.7-.69-1.4-1.38-2.11-2h0c-.49-.48-1-.93-1.49-1.39l-1.5-1.38c-.9-.85-1.8-1.66-2.72-2.47s-2-1.75-3-2.62l-.55-.46c-.79-.68-1.59-1.36-2.39-2a6.66,6.66,0,0,0-.59-.49l-.93-.77c-.59-.49-1.2-1-1.8-1.46l-1-.82-.94-.74c-.19-.14-.38-.28-.57-.45s-.31-.22-.47-.35l-.47-.36H806.28l.56,1c1.34,2.43,2.65,4.87,3.94,7.34,1.21,2.26,2.36,4.53,3.48,6.8,1.32,2.67,2.61,5.34,3.87,8,.18.36.34.7.51,1.07,0,.07.07.12.09.19l.57,1.25c.42.93.84,1.85,1.25,2.77.27.59.53,1.17.78,1.77.16.35.32.71.47,1.07.1.2.19.39.28.6s.25.59.38.86.19.48.29.7c.32.73.63,1.44.93,2.17s.59,1.38.87,2.06c.38.92.76,1.85,1.13,2.77.12.27.23.54.34.8s.21.53.3.79.3.71.45,1.08q.83,2.07,1.62,4.14c.11.27.2.53.3.78.19.5.38,1,.56,1.49.06.15.12.32.17.47s.05.12.07.17.15.39.22.58c.66,1.75,1.29,3.5,1.92,5.25.22.61.44,1.22.65,1.82.07.21.14.38.18.55.13.36.26.72.37,1.07.37,1,.72,2.07,1.07,3.12,0,.1.07.19.1.3q.63,1.89,1.23,3.78c0,.08,0,.15.07.22.21.64.42,1.27.62,1.92.41,1.28.8,2.56,1.19,3.84.19.63.38,1.29.58,1.93.35,1.14.68,2.3,1,3.45s.65,2.25,1,3.4q1,3.48,1.85,7c.32,1.21.63,2.43.92,3.64s.64,2.67,1,4c.47,2,.92,4,1.35,6,0,.13.06.29.09.43q.38,1.7.72,3.42c.14.72.29,1.46.43,2.19.09.4.18.83.26,1.24.17.85.34,1.72.52,2.6,0,.3.09.57.16.88q.66,3.49,1.24,7a2.87,2.87,0,0,1,.05.31c.16,1,.33,2,.47,2.95a6.15,6.15,0,0,1,.11.69c.19,1.23.37,2.44.54,3.67,0,.22.08.44.11.64s.07.44.1.67c.13.88.25,1.75.37,2.63s.21,1.53.3,2.3c0,.13,0,.26,0,.39.13,1,.25,2,.37,3,.15,1.26.3,2.53.44,3.81s.27,2.54.39,3.81c.06.55.11,1.06.16,1.6.17,1.69.32,3.39.45,5.09.09,1.18.18,2.36.26,3.56s.19,2.5.27,3.76.15,2.54.21,3.8c0,1,.09,2,.14,3,.09,2.46.19,4.91.24,7.37,0,.64,0,1.27,0,1.9,0,.86,0,1.72,0,2.57s0,1.5,0,2.25S853.31,180.47,853.31,181.22Z"/><path class="cls-11" d="M340.3-.54l-.75.57c-1.14.88-2.28,1.77-3.41,2.69s-2.25,1.82-3.36,2.76q-5.58,4.68-10.92,9.74c-1.42,1.36-2.83,2.73-4.23,4.13a228.57,228.57,0,0,0-15.71,17.38c-1.22,1.49-2.41,3-3.6,4.51s-2.33,3.06-3.47,4.61-2.24,3.11-3.34,4.67l-1.62,2.36q-1.59,2.35-3.14,4.74c-1,1.61-2,3.22-3,4.83s-1.94,3.23-2.88,4.87-1.85,3.28-2.75,4.94-1.77,3.31-2.62,5c-.42.85-.84,1.68-1.26,2.51q-1.23,2.52-2.42,5.05a229.39,229.39,0,0,0,11.66,214.67h-76c-42.38-97.55-29.84-213.22,37.64-300Z"/><path class="cls-12" d="M774.48,211.49a296,296,0,0,1-23,88h-76c3.42-5.64,6.56-11.41,9.44-17.25.21-.42.42-.86.62-1.29l.61-1.26c.28-.62.57-1.21.86-1.82.43-.94.86-1.88,1.28-2.82s.72-1.62,1.08-2.44c.54-1.24,1.07-2.48,1.59-3.73.32-.8.65-1.59,1-2.38h0c.11-.25.21-.51.31-.76.45-1.16.89-2.29,1.32-3.44.16-.42.32-.85.48-1.25v0l.45-1.24c.15-.39.29-.77.43-1.16.29-.8.57-1.61.85-2.42h0c.13-.37.25-.74.37-1.09.47-1.4.93-2.78,1.38-4.17l.37-1.18c.1-.32.2-.64.3-1,.24-.77.48-1.56.71-2.33l.21-.69.27-.94.48-1.7c.25-.88.49-1.76.72-2.65.16-.58.32-1.16.46-1.76a.83.83,0,0,0,0-.15c.15-.59.3-1.17.44-1.74s.28-1.1.41-1.64a1.33,1.33,0,0,1,0-.19c0-.19.09-.38.13-.59a1.21,1.21,0,0,0,0-.18c0-.17.09-.38.14-.57h0c.08-.37.17-.75.26-1.12.21-.93.41-1.86.61-2.77.11-.48.21-1,.3-1.42,0-.2.09-.4.13-.61.18-.88.36-1.76.53-2.64.21-1.08.41-2.16.61-3.25,0-.26.09-.51.13-.77.23-1.29.45-2.6.65-3.9a0,0,0,0,0,0,0c0-.24.07-.46.11-.69l.24-1.58c.21-1.47.41-2.92.6-4.38.09-.72.18-1.42.26-2.13l.06-.48.09-.77c0-.25.06-.5.08-.75,0-.43.09-.86.14-1.3.08-.7.15-1.42.21-2.11,0-.18,0-.36,0-.52h0l.18-2c0-.06,0-.1,0-.16.08-.91.15-1.81.21-2.72.05-.71.1-1.43.14-2.14l.09-1.52c0-.34,0-.66.05-1s0-.52,0-.79c0-.52,0-1.07.07-1.59,0-.89.07-1.78.09-2.67s.05-1.76.06-2.65c0-.42,0-.85,0-1.25v-.13c0-.21,0-.41,0-.6,0-.65,0-1.31,0-2q0-5.2-.24-10.41l0-.68c0-.78-.08-1.57-.13-2.37s-.1-1.58-.15-2.38c-.19-2.87-.44-5.72-.75-8.58-.08-.74-.16-1.49-.25-2.24l-.09-.75c0-.06,0-.13,0-.2-.1-.76-.19-1.54-.29-2.3q-.36-2.72-.78-5.45c-.12-.76-.25-1.51-.37-2.26q-.9-5.45-2.07-10.86l-.21-1c-.17-.78-.35-1.57-.53-2.34s-.33-1.39-.5-2.08c-.06-.28-.12-.54-.19-.81,0-.06,0-.11,0-.17s0,0,0,0c-.36-1.44-.73-2.9-1.12-4.36-.47-1.78-1-3.58-1.5-5.35-.1-.32-.19-.65-.29-1l-.66-2.19a0,0,0,0,0,0,0c-.22-.72-.45-1.43-.68-2.15l-.3-.94c-.23-.72-.47-1.45-.72-2.18s-.48-1.45-.74-2.17c-.61-1.77-1.24-3.53-1.91-5.28-.11-.28-.22-.58-.33-.88a224.43,224.43,0,0,0-11.55-25.55q-1.14-2.16-2.34-4.31c-1.86-3.35-3.83-6.69-5.89-10-.56-.91-1.13-1.8-1.71-2.69s-1.16-1.79-1.76-2.68c-.44-.68-.88-1.33-1.34-2s-.9-1.34-1.37-2a.83.83,0,0,0-.08-.12c-.5-.71-1-1.44-1.51-2.14q-4.23-5.91-8.87-11.61l-.25-.32-.67-.8c-.31-.38-.61-.75-.93-1.12-.62-.75-1.24-1.48-1.88-2.21-.46-.55-.92-1.07-1.38-1.61-.18-.19-.36-.39-.53-.6l-.78-.89c-.47-.53-1-1.08-1.46-1.61-.3-.35-.63-.71-.95-1.05h0l-.74-.78c-.55-.61-1.11-1.19-1.67-1.78-.7-.75-1.42-1.49-2.14-2.23s-1.55-1.6-2.33-2.37c-.55-.56-1.11-1.11-1.67-1.65-.14-.15-.29-.29-.44-.43-.7-.69-1.4-1.38-2.11-2h0c-.49-.48-1-.93-1.49-1.39l-1.5-1.38c-.9-.85-1.8-1.66-2.72-2.47s-2-1.75-3-2.62l-.55-.46c-.79-.68-1.59-1.36-2.39-2a6.66,6.66,0,0,0-.59-.49l-.93-.77c-.59-.49-1.2-1-1.8-1.46l-1-.82-.94-.74c-.19-.14-.38-.28-.57-.45s-.31-.22-.47-.35l-.47-.36h95.19a294.86,294.86,0,0,1,58,132.14A298.31,298.31,0,0,1,774.48,211.49Z"/><path class="cls-13" d="M340.3-.54l-.75.57c-1.14.88-2.28,1.77-3.41,2.69s-2.25,1.82-3.36,2.76q-5.58,4.68-10.92,9.74c-1.42,1.36-2.83,2.73-4.23,4.13a228.57,228.57,0,0,0-15.71,17.38c-1.22,1.49-2.41,3-3.6,4.51s-2.33,3.06-3.47,4.61-2.24,3.11-3.34,4.67l-1.62,2.36q-1.59,2.35-3.14,4.74c-1,1.61-2,3.22-3,4.83s-1.94,3.23-2.88,4.87-1.85,3.28-2.75,4.94-1.77,3.31-2.62,5c-.42.85-.84,1.68-1.26,2.51q-1.23,2.52-2.42,5.05a229.39,229.39,0,0,0,11.66,214.67H213.61C170.29,202,183.16,85.62,252.27-.54Z"/><path class="cls-14" d="M768.75,212.22a290.82,290.82,0,0,1-23.4,87.24H675.49c3.42-5.64,6.56-11.41,9.44-17.25.21-.42.42-.86.62-1.29l.61-1.26c.28-.62.57-1.21.86-1.82.43-.94.86-1.88,1.28-2.82s.72-1.62,1.08-2.44c.54-1.24,1.07-2.48,1.59-3.73.32-.8.65-1.59,1-2.38h0c.11-.25.21-.51.31-.76.45-1.16.89-2.29,1.32-3.44.16-.42.32-.85.48-1.25v0l.45-1.24c.15-.39.29-.77.43-1.16.29-.8.57-1.61.85-2.42h0c.13-.37.25-.74.37-1.09.47-1.4.93-2.78,1.38-4.17l.37-1.18c.1-.32.2-.64.3-1,.24-.77.48-1.56.71-2.33l.21-.69.27-.94.48-1.7c.25-.88.49-1.76.72-2.65.16-.58.32-1.16.46-1.76a.83.83,0,0,0,0-.15c.15-.59.3-1.17.44-1.74s.28-1.1.41-1.64a1.33,1.33,0,0,1,0-.19c0-.19.09-.38.13-.59a1.21,1.21,0,0,0,0-.18c0-.17.09-.38.14-.57h0c.08-.37.17-.75.26-1.12.21-.93.41-1.86.61-2.77.11-.48.21-1,.3-1.42,0-.2.09-.4.13-.61.18-.88.36-1.76.53-2.64.21-1.08.41-2.16.61-3.25,0-.26.09-.51.13-.77.23-1.29.45-2.6.65-3.9a0,0,0,0,0,0,0c0-.24.07-.46.11-.69l.24-1.58c.21-1.47.41-2.92.6-4.38.09-.72.18-1.42.26-2.13l.06-.48.09-.77c0-.25.06-.5.08-.75,0-.43.09-.86.14-1.3.08-.7.15-1.42.21-2.11,0-.18,0-.36,0-.52h0l.18-2c0-.06,0-.1,0-.16.08-.91.15-1.81.21-2.72.05-.71.1-1.43.14-2.14l.09-1.52c0-.34,0-.66.05-1s0-.52,0-.79c0-.52,0-1.07.07-1.59,0-.89.07-1.78.09-2.67s.05-1.76.06-2.65c0-.42,0-.85,0-1.25v-.13c0-.21,0-.41,0-.6,0-.65,0-1.31,0-2q0-5.2-.24-10.41l0-.68c0-.78-.08-1.57-.13-2.37s-.1-1.58-.15-2.38c-.19-2.87-.44-5.72-.75-8.58-.08-.74-.16-1.49-.25-2.24l-.09-.75c0-.06,0-.13,0-.2-.1-.76-.19-1.54-.29-2.3q-.36-2.72-.78-5.45c-.12-.76-.25-1.51-.37-2.26q-.9-5.45-2.07-10.86l-.21-1c-.17-.78-.35-1.57-.53-2.34s-.33-1.39-.5-2.08c-.06-.28-.12-.54-.19-.81,0-.06,0-.11,0-.17s0,0,0,0c-.36-1.44-.73-2.9-1.12-4.36-.47-1.78-1-3.58-1.5-5.35-.1-.32-.19-.65-.29-1l-.66-2.19a0,0,0,0,0,0,0c-.22-.72-.45-1.43-.68-2.15l-.3-.94c-.23-.72-.47-1.45-.72-2.18s-.48-1.45-.74-2.17c-.61-1.77-1.24-3.53-1.91-5.28-.11-.28-.22-.58-.33-.88a224.43,224.43,0,0,0-11.55-25.55q-1.14-2.16-2.34-4.31c-1.86-3.35-3.83-6.69-5.89-10-.56-.91-1.13-1.8-1.71-2.69s-1.16-1.79-1.76-2.68c-.44-.68-.88-1.33-1.34-2s-.9-1.34-1.37-2a.83.83,0,0,0-.08-.12c-.5-.71-1-1.44-1.51-2.14q-4.23-5.91-8.87-11.61l-.25-.32-.67-.8c-.31-.38-.61-.75-.93-1.12-.62-.75-1.24-1.48-1.88-2.21-.46-.55-.92-1.07-1.38-1.61-.18-.19-.36-.39-.53-.6l-.78-.89c-.47-.53-1-1.08-1.46-1.61-.3-.35-.63-.71-.95-1.05h0l-.74-.78c-.55-.61-1.11-1.19-1.67-1.78-.7-.75-1.42-1.49-2.14-2.23s-1.55-1.6-2.33-2.37c-.55-.56-1.11-1.11-1.67-1.65-.14-.15-.29-.29-.44-.43-.7-.69-1.4-1.38-2.11-2h0c-.49-.48-1-.93-1.49-1.39l-1.5-1.38c-.9-.85-1.8-1.66-2.72-2.47s-2-1.75-3-2.62l-.55-.46c-.79-.68-1.59-1.36-2.39-2a6.66,6.66,0,0,0-.59-.49l-.93-.77c-.59-.49-1.2-1-1.8-1.46l-1-.82-.94-.74c-.19-.14-.38-.28-.57-.45s-.31-.22-.47-.35l-.47-.36h88.08a289.28,289.28,0,0,1,60.58,139.25A292.22,292.22,0,0,1,768.75,212.22Z"/><path class="cls-15" d="M340.3-.54l-.75.57c-1.14.88-2.28,1.77-3.41,2.69s-2.25,1.82-3.36,2.76q-5.58,4.68-10.92,9.74c-1.42,1.36-2.83,2.73-4.23,4.13a228.57,228.57,0,0,0-15.71,17.38c-1.22,1.49-2.41,3-3.6,4.51s-2.33,3.06-3.47,4.61-2.24,3.11-3.34,4.67l-1.62,2.36q-1.59,2.35-3.14,4.74c-1,1.61-2,3.22-3,4.83s-1.94,3.23-2.88,4.87-1.85,3.28-2.75,4.94-1.77,3.31-2.62,5c-.42.85-.84,1.68-1.26,2.51q-1.23,2.52-2.42,5.05a229.39,229.39,0,0,0,11.66,214.67H250.54c-.81-1.57-1.61-3.14-2.38-4.7-1-2.09-2-4.15-2.93-6.24s-1.89-4.17-2.77-6.28c-.64-1.5-1.26-3-1.85-4.47-.26-.62-.51-1.23-.75-1.86-.85-2.12-1.65-4.25-2.43-6.4a257.52,257.52,0,0,1,59.44-270Z"/><path class="cls-16" d="M736.69,195.39A258,258,0,0,1,731.64,234h0c-.55,2.66-1.14,5.3-1.78,7.94q-1.67,6.93-3.74,13.78a255.29,255.29,0,0,1-17.7,43.75H675.49c3.42-5.64,6.56-11.41,9.44-17.25.21-.42.42-.86.62-1.29l.61-1.26c.28-.62.57-1.21.86-1.82.43-.94.86-1.88,1.28-2.82s.72-1.62,1.08-2.44c.54-1.24,1.07-2.48,1.59-3.73.32-.8.65-1.59,1-2.38h0c.11-.25.21-.51.31-.76.45-1.16.89-2.29,1.32-3.44.16-.42.32-.85.48-1.25v0l.45-1.24c.15-.39.29-.77.43-1.16.29-.8.57-1.61.85-2.42h0c.13-.37.25-.74.37-1.09.47-1.4.93-2.78,1.38-4.17l.37-1.18c.1-.32.2-.64.3-1,.24-.77.48-1.56.71-2.33l.21-.69.27-.94.48-1.7c.25-.88.49-1.76.72-2.65.16-.58.32-1.16.46-1.76a.83.83,0,0,0,0-.15c.15-.59.3-1.17.44-1.74s.28-1.1.41-1.64a1.33,1.33,0,0,1,0-.19c0-.19.09-.38.13-.59a1.21,1.21,0,0,0,0-.18c0-.17.09-.38.14-.57h0c.08-.37.17-.75.26-1.12.21-.93.41-1.86.61-2.77.11-.48.21-1,.3-1.42,0-.2.09-.4.13-.61.18-.88.36-1.76.53-2.64.21-1.08.41-2.16.61-3.25,0-.26.09-.51.13-.77.23-1.29.45-2.6.65-3.9a0,0,0,0,0,0,0c0-.24.07-.46.11-.69l.24-1.58c.21-1.47.41-2.92.6-4.38.09-.72.18-1.42.26-2.13l.06-.48.09-.77c0-.25.06-.5.08-.75,0-.43.09-.86.14-1.3.08-.7.15-1.42.21-2.11,0-.18,0-.36,0-.52h0l.18-2c0-.06,0-.1,0-.16.08-.91.15-1.81.21-2.72.05-.71.1-1.43.14-2.14l.09-1.52c0-.34,0-.66.05-1s0-.52,0-.79c0-.52,0-1.07.07-1.59,0-.89.07-1.78.09-2.67s.05-1.76.06-2.65c0-.42,0-.85,0-1.25v-.13c0-.21,0-.41,0-.6,0-.65,0-1.31,0-2q0-5.2-.24-10.41l0-.68c0-.78-.08-1.57-.13-2.37s-.1-1.58-.15-2.38c-.19-2.87-.44-5.72-.75-8.58-.08-.74-.16-1.49-.25-2.24l-.09-.75c0-.06,0-.13,0-.2-.1-.76-.19-1.54-.29-2.3q-.36-2.72-.78-5.45c-.12-.76-.25-1.51-.37-2.26q-.9-5.45-2.07-10.86l-.21-1c-.17-.78-.35-1.57-.53-2.34s-.33-1.39-.5-2.08c-.06-.28-.12-.54-.19-.81,0-.06,0-.11,0-.17s0,0,0,0c-.36-1.44-.73-2.9-1.12-4.36-.47-1.78-1-3.58-1.5-5.35-.1-.32-.19-.65-.29-1l-.66-2.19a0,0,0,0,0,0,0c-.22-.72-.45-1.43-.68-2.15l-.3-.94c-.23-.72-.47-1.45-.72-2.18s-.48-1.45-.74-2.17c-.61-1.77-1.24-3.53-1.91-5.28-.11-.28-.22-.58-.33-.88a224.43,224.43,0,0,0-11.55-25.55q-1.14-2.16-2.34-4.31c-1.86-3.35-3.83-6.69-5.89-10-.56-.91-1.13-1.8-1.71-2.69s-1.16-1.79-1.76-2.68c-.44-.68-.88-1.33-1.34-2s-.9-1.34-1.37-2a.83.83,0,0,0-.08-.12c-.5-.71-1-1.44-1.51-2.14q-4.23-5.91-8.87-11.61l-.25-.32-.67-.8c-.31-.38-.61-.75-.93-1.12-.62-.75-1.24-1.48-1.88-2.21-.46-.55-.92-1.07-1.38-1.61-.18-.19-.36-.39-.53-.6l-.78-.89c-.47-.53-1-1.08-1.46-1.61-.3-.35-.63-.71-.95-1.05h0l-.74-.78c-.55-.61-1.11-1.19-1.67-1.78-.7-.75-1.42-1.49-2.14-2.23s-1.55-1.6-2.33-2.37c-.55-.56-1.11-1.11-1.67-1.65-.14-.15-.29-.29-.44-.43-.7-.69-1.4-1.38-2.11-2h0c-.49-.48-1-.93-1.49-1.39l-1.5-1.38c-.9-.85-1.8-1.66-2.72-2.47s-2-1.75-3-2.62l-.55-.46c-.79-.68-1.59-1.36-2.39-2a6.66,6.66,0,0,0-.59-.49l-.93-.77c-.59-.49-1.2-1-1.8-1.46l-1-.82-.94-.74c-.19-.14-.38-.28-.57-.45s-.31-.22-.47-.35l-.47-.36h43.43c.64.64,1.28,1.27,1.9,1.93.78.79,1.54,1.59,2.3,2.4s1.3,1.36,1.93,2,1.27,1.38,1.9,2.08l1.5,1.64q1.29,1.44,2.55,2.88l.89,1,1.08,1.26c.09.11.17.2.25.31s.23.28.35.43l.26.3c.09.09.17.19.25.28l1.81,2.18.41.51.25.3.23.31c1,1.2,1.94,2.41,2.89,3.63l.17.22.17.21c.11.13.23.29.33.43l.67.88c.44.57.89,1.15,1.33,1.75l0,0,1.29,1.77.5.64c.08.12.16.22.24.33l.25.36.57.77c.38.51.75,1,1.11,1.55.18.26.37.52.55.8l.7.95,0,.08,1.3,1.86L693,37c.11.15.21.31.31.46.78,1.15,1.54,2.3,2.29,3.45a2.4,2.4,0,0,0,.16.27c.05.09.1.15.15.23l.25.4.06.1.45.68.21.32c.65,1,1.27,2,1.92,3l.12.23.07.1a1.69,1.69,0,0,0,.21.31l1.26,2.11c.61,1,1.21,2.05,1.81,3.07.89,1.5,1.76,3,2.6,4.56,1.42,2.57,2.79,5.17,4.12,7.76.51,1,1,2,1.51,3,.57,1.15,1.13,2.32,1.68,3.5.9,1.89,1.78,3.8,2.63,5.71l.44,1,1.12,2.58,1.08,2.6q1.15,2.79,2.25,5.59c0,.1.08.19.13.29.64,1.68,1.26,3.38,1.87,5.07h0c.66,1.8,1.3,3.62,1.92,5.41,0,0,0,0,0,.06s.07.22.11.33c.27.81.53,1.61.79,2.41s.47,1.45.71,2.16l.09.35c0,.1.07.21.1.33a4.93,4.93,0,0,0,.24.64c.47,1.61.94,3.18,1.39,4.75.55,1.93,1.07,3.86,1.59,5.75.94,3.65,1.82,7.3,2.62,11,.41,1.87.78,3.75,1.13,5.62.15.82.31,1.63.45,2.44.09.45.18.92.26,1.38s.12.69.17,1.06a.3.3,0,0,1,0,.1c.1.54.19,1.09.28,1.64l.3,1.84c.14.86.27,1.7.38,2.54.33,2.18.63,4.37.89,6.55.08.61.15,1.21.22,1.83q.48,4.13.82,8.28c.1,1.17.19,2.35.27,3.53,0,.42.06.83.08,1.25s.07,1.06.09,1.61c.19,3,.31,6.09.37,9.14h0Q737.25,185.38,736.69,195.39Z"/><path class="cls-17" d="M736.64,166.21H708.13A228.25,228.25,0,0,0,641.54,19.14,230.67,230.67,0,0,0,619.15-.54h42.94c.64.64,1.28,1.27,1.9,1.93.78.79,1.54,1.59,2.3,2.4s1.3,1.36,1.93,2,1.27,1.38,1.9,2.08l1.5,1.64q1.29,1.44,2.55,2.88l.89,1,1.08,1.26c.09.11.17.2.25.31.29.33.58.68.86,1l1.81,2.18.41.51.25.3c1.17,1.44,2.33,2.91,3.46,4.37.11.13.23.29.33.43l.67.88c.44.57.89,1.15,1.33,1.75l0,0,1.79,2.41c.08.12.16.22.24.33.28.38.56.75.82,1.13s.75,1,1.11,1.55.84,1.18,1.25,1.75l0,.08c1.71,2.44,3.37,4.92,5,7.4.05.09.1.15.15.23l.76,1.18.21.32c.69,1.09,1.37,2.17,2,3.27l.07.1,1.47,2.42c.61,1,1.21,2.05,1.81,3.07.88,1.51,1.74,3,2.6,4.56,1.42,2.57,2.79,5.17,4.12,7.76q4.62,9.06,8.46,18.35,1.15,2.79,2.25,5.59t2,5.36h0c.66,1.82,1.29,3.63,1.91,5.47,0,.1.07.22.11.33.27.81.53,1.61.79,2.41s.54,1.66.8,2.51c0,.1.07.21.1.33a257.68,257.68,0,0,1,7,27.75c.31,1.63.61,3.25.88,4.88a.3.3,0,0,1,0,.1c.1.54.19,1.09.28,1.64l.3,1.84c.14.86.27,1.7.38,2.54.33,2.18.63,4.37.89,6.55.08.61.15,1.21.22,1.83q.48,4.13.82,8.28c.1,1.17.19,2.35.27,3.53,0,.42.06.83.08,1.25S736.61,165.66,736.64,166.21Z"/><path class="cls-18" d="M283.14,299.46H250.58q-5.52-10.66-10-21.69c-1.11-2.74-2.16-5.49-3.17-8.26H268A228.73,228.73,0,0,0,283.14,299.46Z"/><path class="cls-19" d="M853.31,181.22c0,.75,0,1.49,0,2.24s0,1.49,0,2.24l0,2.23-.06,2.24c0,1.19-.06,2.37-.1,3.55l0,.76c-.05,1.51-.11,3-.18,4.51,0,.4,0,.78,0,1.17v0c-.07,1.35-.15,2.71-.24,4.07-.07,1.09-.14,2.2-.22,3.31,0,.16,0,.33,0,.52-.06.86-.13,1.73-.2,2.58-.09,1.17-.19,2.31-.28,3.48l-.09,1q0,.51-.09,1c0,.18,0,.36,0,.53s0,.58-.08.88c-.11,1.1-.22,2.22-.34,3.33-.08.75-.16,1.5-.25,2.24-.18,1.69-.38,3.37-.6,5-.1.73-.19,1.47-.29,2.22s-.19,1.49-.3,2.23c-.2,1.46-.41,2.93-.63,4.39s-.48,3.12-.73,4.68c-.11.68-.23,1.37-.35,2.05-.21,1.24-.42,2.47-.64,3.71,0,.24-.08.48-.13.72-.18,1-.38,2.07-.57,3.09-.14.8-.3,1.57-.46,2.36-.21,1.13-.44,2.25-.68,3.37,0,.08,0,.15-.05.24-.29,1.39-.59,2.78-.9,4.16-.64,2.91-1.3,5.8-2,8.7H762.9A297.16,297.16,0,0,0,714.44-.54h91.84l.56,1c1.34,2.43,2.65,4.87,3.94,7.34,1.21,2.26,2.36,4.53,3.48,6.8,1.32,2.67,2.61,5.34,3.87,8,.18.36.34.7.51,1.07,0,.07.07.12.09.19l.57,1.25c.42.93.84,1.85,1.25,2.77.27.59.53,1.17.78,1.77.16.35.32.71.47,1.07.1.2.19.39.28.6s.25.59.38.86.19.48.29.7c.32.73.63,1.44.93,2.17s.59,1.38.87,2.06c.38.92.76,1.85,1.13,2.77.12.27.23.54.34.8s.21.53.3.79.3.71.45,1.08q.83,2.07,1.62,4.14c.11.27.2.53.3.78.19.5.38,1,.56,1.49.06.15.12.32.17.47s.11.25.15.37l.14.38c.66,1.75,1.29,3.5,1.92,5.25.22.61.44,1.22.65,1.82.07.21.14.38.18.55.13.36.26.72.37,1.07.37,1,.72,2.07,1.07,3.12,0,.1.07.19.1.3q.63,1.89,1.23,3.78c0,.08,0,.15.07.22.21.64.42,1.27.62,1.92.41,1.28.8,2.56,1.19,3.84.19.63.38,1.29.58,1.93.35,1.14.68,2.3,1,3.45s.65,2.25,1,3.4q1,3.48,1.85,7c.32,1.21.63,2.43.92,3.64s.64,2.67,1,4c.47,2,.92,4,1.35,6,0,.13.06.29.09.43q.38,1.7.72,3.42c.14.72.29,1.46.43,2.19.09.4.18.83.26,1.24.17.85.34,1.72.52,2.6,0,.3.09.57.16.88q.66,3.49,1.24,7a2.87,2.87,0,0,1,.05.31c.2,1.22.4,2.43.58,3.64s.37,2.44.54,3.67c0,.22.08.44.11.64s.07.44.1.67c.13.88.25,1.75.37,2.63s.21,1.53.3,2.3c0,.13,0,.26,0,.39.13,1,.25,2,.37,3,.15,1.26.3,2.53.44,3.81s.27,2.54.39,3.81c.06.55.11,1.06.16,1.6.17,1.69.32,3.39.45,5.09.09,1.18.18,2.36.26,3.56s.19,2.5.27,3.76.15,2.54.21,3.8c0,1,.09,2,.14,3,.09,2.46.19,4.91.24,7.37,0,.64,0,1.27,0,1.9,0,.86,0,1.72,0,2.57s0,1.5,0,2.25S853.31,180.47,853.31,181.22Z"/><path class="cls-20" d="M206.94,299.46H124.77c-.12-.36-.23-.7-.35-1l-.69-2.14c-.48-1.44-.93-2.88-1.38-4.31l-.66-2.17c-.34-1.13-.67-2.24-1-3.36-.27-.92-.54-1.86-.8-2.81s-.54-1.86-.8-2.82H199.6Q202.95,290.23,206.94,299.46Z"/><path class="cls-21" d="M853.29,185.7l0,2.23c0,2.19-.11,4.37-.19,6.56q-.08,2.25-.18,4.5c0,.4,0,.78,0,1.17v0c-.18,3.49-.42,7-.7,10.49-.12,1.5-.24,3-.37,4.5,0,.5-.08,1-.13,1.51,0,.28,0,.58-.08.88-.11,1.1-.22,2.22-.34,3.33-.08.75-.16,1.5-.25,2.24-.18,1.69-.38,3.37-.6,5-.1.73-.19,1.47-.29,2.22s-.19,1.49-.3,2.23c-.2,1.46-.41,2.93-.63,4.39s-.48,3.12-.73,4.68c-.11.68-.23,1.37-.35,2.05-.2,1.24-.41,2.47-.64,3.71s-.46,2.55-.7,3.81c-.08.44-.17.87-.26,1.31s-.13.69-.2,1.05c-.23,1.2-.47,2.4-.73,3.61-.88,4.29-1.85,8.59-2.89,12.86H762.9A297.16,297.16,0,0,0,714.44-.54h91.82c.2.33.39.68.58,1,1.34,2.43,2.65,4.87,3.94,7.34q1.79,3.39,3.48,6.8c1.32,2.67,2.61,5.34,3.87,8,.4.83.79,1.68,1.17,2.51s.84,1.85,1.25,2.77c.52,1.15,1,2.3,1.53,3.44.13.29.25.59.38.86.41,1,.83,1.92,1.22,2.87.3.69.59,1.38.87,2.06q.75,1.79,1.47,3.57l.75,1.87q.83,2.07,1.62,4.14c.11.27.2.53.3.78.19.5.38,1,.56,1.49s.31.81.46,1.22c.66,1.75,1.29,3.5,1.92,5.25.28.79.56,1.57.83,2.37.13.36.26.72.37,1.07.37,1,.72,2.07,1.07,3.12,0,.1.07.19.1.3q.63,1.89,1.23,3.78c0,.08,0,.15.07.22.21.64.42,1.27.62,1.92.41,1.28.8,2.56,1.19,3.84.19.63.38,1.29.58,1.93.35,1.14.68,2.3,1,3.45s.65,2.25,1,3.4q1,3.48,1.85,7c.32,1.21.63,2.43.92,3.64s.64,2.67,1,4q.75,3.19,1.44,6.42c.49,2.28,1,4.57,1.41,6.85.17.87.34,1.73.52,2.61.5,2.62,1,5.24,1.4,7.87a2.87,2.87,0,0,1,.05.31c.48,2.87.93,5.74,1.33,8.62.13.88.25,1.75.37,2.63s.21,1.53.3,2.3c0,.13,0,.26,0,.39.13,1,.25,2,.37,3,.15,1.26.3,2.53.44,3.81s.27,2.54.39,3.81c.06.55.11,1.06.16,1.6.17,1.69.32,3.39.45,5.09.09,1.18.18,2.36.26,3.56s.19,2.5.27,3.76.15,2.54.21,3.8c0,1,.09,2,.14,3,.14,3.09.24,6.19.29,9.27,0,.86,0,1.72,0,2.57Q853.35,181.22,853.29,185.7Z"/><path class="cls-22" d="M124.77,299.46l.36,1.08c-.13-.36-.25-.72-.37-1.08s-.23-.7-.34-1c-.72-2.14-1.4-4.3-2.07-6.45l-.66-2.17c-.34-1.13-.67-2.24-1-3.36-.27-.94-.54-1.86-.8-2.81s-.54-1.86-.8-2.82H199.6q3.35,9.43,7.34,18.66Z"/><path class="cls-23" d="M708.37,181.2c0,.65,0,1.31,0,2,0,.19,0,.39,0,.6v.13c0,.4,0,.83,0,1.25s0,.74,0,1.1c0,.53,0,1-.05,1.55s0,1,0,1.55,0,.75-.05,1.12,0,1.07-.07,1.59c0,.27,0,.53,0,.79s0,.64-.05,1l-.09,1.52c0,.71-.09,1.43-.14,2.14-.06.91-.13,1.81-.21,2.72,0,.06,0,.1,0,.16l-.18,2h0c0,.16,0,.34,0,.52-.06.69-.13,1.41-.21,2.11,0,.44-.09.87-.14,1.3-.07.66-.15,1.34-.23,2s-.17,1.41-.26,2.13c-.19,1.46-.39,2.91-.6,4.38l-.24,1.58c0,.23-.08.45-.11.69a0,0,0,0,1,0,0c-.2,1.3-.42,2.61-.65,3.9,0,.26-.09.51-.13.77-.2,1.09-.4,2.17-.61,3.25-.17.88-.35,1.76-.53,2.64,0,.21-.08.41-.13.61-.09.47-.19.94-.3,1.42-.2.91-.4,1.84-.61,2.77-.09.37-.18.75-.26,1.12h0l-.18.76c0,.21-.09.4-.13.59a1.33,1.33,0,0,0,0,.19c-.13.54-.26,1.09-.41,1.64-.08.33-.16.68-.25,1s-.12.49-.19.73a.83.83,0,0,1,0,.15c-.14.6-.3,1.18-.46,1.76-.23.89-.47,1.77-.72,2.65l-.48,1.7-.27.94-.21.69c-.23.77-.47,1.56-.71,2.33-.1.34-.2.66-.3,1l-.37,1.18c-.45,1.39-.91,2.77-1.38,4.17l-.36,1.09h0c-.28.82-.56,1.62-.84,2.42h0l-.06.19c-.27.74-.54,1.47-.82,2.21v0q-.87,2.36-1.8,4.69l-.18.46c0,.12-.09.22-.13.32h0a230.45,230.45,0,0,0,4.8-42.06q.15-5.9,0-11.82-.18-6.42-.7-12.85c-4.61-57.32-29.79-114.68-75.1-160A264.45,264.45,0,0,0,569.23-.54h49.43c.31.24.63.49.94.71s.38.31.57.45l.94.74.58.46q.22.16.45.36c.6.48,1.21,1,1.8,1.46l.93.77a6.66,6.66,0,0,1,.59.49c.8.65,1.6,1.33,2.39,2l.55.46c1,.87,2,1.74,3,2.62s1.82,1.63,2.72,2.47l.84.76c.22.2.44.4.66.62,1.22,1.13,2.42,2.27,3.61,3.44.15.14.3.28.44.43.56.54,1.12,1.09,1.67,1.65.78.77,1.56,1.56,2.33,2.37S645.1,23.2,645.8,24c.56.59,1.12,1.17,1.67,1.78s1.13,1.22,1.69,1.84,1,1.08,1.46,1.61l.78.89c.17.21.35.41.53.6.46.54.92,1.06,1.38,1.61.64.73,1.26,1.46,1.88,2.21S656.43,36,657,36.73q4.65,5.7,8.87,11.61c.51.7,1,1.43,1.51,2.14a.83.83,0,0,1,.08.12c.47.66.92,1.32,1.37,2s.9,1.31,1.34,2c.6.89,1.18,1.77,1.76,2.68s1.15,1.78,1.71,2.69c2.06,3.28,4,6.62,5.89,10q1.2,2.14,2.34,4.31a224.43,224.43,0,0,1,11.55,25.55c.11.3.22.6.33.88.67,1.75,1.3,3.51,1.91,5.28.26.72.5,1.45.74,2.17s.49,1.46.72,2.18l.3.94c.23.72.46,1.43.68,2.15a0,0,0,0,1,0,0c.33,1,.65,2.1,1,3.16.53,1.77,1,3.57,1.5,5.35.39,1.46.76,2.91,1.12,4.37v0a.94.94,0,0,0,0,.16c.23,1,.47,1.93.69,2.9.18.77.36,1.56.53,2.34l.21,1q1.17,5.42,2.07,10.86c.12.75.25,1.5.37,2.26q.42,2.73.78,5.45c.11.83.21,1.67.31,2.5l.09.75c.09.75.17,1.5.25,2.24.31,2.86.56,5.71.75,8.58,0,.8.11,1.59.15,2.38s.1,1.59.13,2.37l0,.68Q708.37,176,708.37,181.2Z"/><path class="cls-24" d="M1012.6,0V300H76.32a294.85,294.85,0,0,1-18.5-33q-2.31-4.83-4.41-9.7C16.9,172.69,27.76,81.23,83.18,0Z"/><rect class="cls-25" x="69.82" width="942.78" height="300"/></g></g></g></svg>