<svg id="Capa_3" data-name="Capa 3" xmlns="http://www.w3.org/2000/svg" xmlns:xlink="http://www.w3.org/1999/xlink" viewBox="0 0 1380 300"><defs><style>.cls-1,.cls-14,.cls-17,.cls-31,.cls-35,.cls-36,.cls-50,.cls-6,.cls-9{fill:none;}.cls-2{clip-path:url(#clip-path);}.cls-3{fill:#b6c282;}.cls-4{fill:#929f60;}.cls-5{fill:#738d46;}.cls-6{stroke:#738d46;}.cls-14,.cls-17,.cls-31,.cls-35,.cls-36,.cls-50,.cls-6,.cls-9{stroke-miterlimit:10;}.cls-50,.cls-6{stroke-width:3.75px;}.cls-7{fill:#4c803e;}.cls-8{fill:#bd6736;}.cls-17,.cls-9{stroke:#162a16;}.cls-9{stroke-width:1.09px;}.cls-10{fill:#162a16;}.cls-11{fill:#3b6531;}.cls-12{fill:#557221;}.cls-13{fill:#b19332;}.cls-14{stroke:#b1a54d;stroke-width:1.88px;}.cls-15{fill:#917d31;}.cls-16{fill:#616f2c;}.cls-17{stroke-width:1.41px;}.cls-18{fill:#775729;}.cls-19{fill:#a3773a;}.cls-20{fill:#f7d667;}.cls-21{fill:#f3b53f;}.cls-22,.cls-45{fill:#cbb288;}.cls-23{fill:#ad8c6d;}.cls-24{fill:#976856;}.cls-25{fill:#f0dcb8;}.cls-26,.cls-43{opacity:0.35;}.cls-27{fill:#533d33;}.cls-28{fill:#d56c71;}.cls-29,.cls-33,.cls-43,.cls-44{fill:#fff;}.cls-30{fill:#ead0a1;opacity:0.3;}.cls-31{stroke:#593d33;stroke-linecap:round;stroke-width:0.81px;}.cls-32{fill:#bcbcbc;}.cls-33,.cls-41{opacity:0.2;}.cls-34{opacity:0.15;}.cls-35{stroke:#3d3c3a;stroke-width:1.07px;}.cls-36{stroke:#d0d7da;stroke-width:0.85px;}.cls-37,.cls-39{fill:#cad5d9;}.cls-38{fill:#e5edf1;}.cls-39{opacity:0.7;}.cls-40{fill:#abb7bb;}.cls-41{fill:#092131;}.cls-42{fill:#333;}.cls-44{opacity:0.37;}.cls-45{font-size:25.95px;font-family:TitanOne, Titan One;}.cls-46{letter-spacing:-0.03em;}.cls-47{fill:#1d371d;}.cls-48{fill:#2d562c;}.cls-49{fill:#0d1a09;}.cls-50{stroke:#0d1a09;}</style><clipPath id="clip-path"><rect class="cls-1" width="1380" height="300"/></clipPath></defs><g class="cls-2"><path class="cls-1" d="M1146.25-15.56V324.93h-45.47l.08-1.55H980.15l0,.21-73.69.83-44.72.51v-1.55H-19V-15.56H473.52l.09-.17,0,.17H1089.7l.33-2.65c.76.9,1.55,1.78,2.35,2.65Z"/><path class="cls-3" d="M1395.29-11V289.11l-.32-2.47v36.74h-57.46l.1,1.41-.46-1.41h-142l0,1.55h-94.39l.08-1.55H980.15l0,.21-73.69.83-44.72.51v-1.55H-11.68V-15.56h485.2l.09-.17,0,.17H1089.7l.33-2.65c.76.9,1.55,1.78,2.35,2.65H1395v5.88Z"/><path class="cls-4" d="M148,291l-18,.9-5.77.29-7.78.39h0l-10.87.55L84,294.19l3.17-58.52h0l1.32-24.3,2-36.1.71-13.18L95.39,83.9h0L96,73.2h0l.45-8.37L97.77,40l.15-2.82,2.32-42.67s0,0,0,0l.54-10h45.56L146.76,61,147,95.71l.16,27.74.33,60.26.18,32.81.13,23.19h0l.16,29,.11,20.12Z"/><polygon class="cls-4" points="307.5 248.37 243.41 245.7 228.79 245.09 246.5 -15.56 302.98 -15.56 307.5 248.37"/><polygon class="cls-4" points="590.33 243.15 556.63 245.1 511.68 247.71 511.06 228.11 503.31 -15.56 559.99 -15.56 569.2 63.02 590.33 243.15"/><polygon class="cls-4" points="743.69 -15.56 733.35 250.16 685.57 245.48 662.86 243.26 654.94 242.48 661.31 191.31 675.9 74.1 677.72 59.47 677.72 59.46 686.75 -13.03 687.06 -15.56 743.69 -15.56"/><polygon class="cls-4" points="970.91 -15.56 968.78 39.21 968.78 39.22 968.26 52.64 964.41 151.76 960.58 250.16 882.17 242.48 898.87 108.33 899.78 101.02 914.29 -15.56 970.91 -15.56"/><path class="cls-4" d="M1146.32-15.56l-.07,1.87-1,25.64L1136,250.16l-31.26-3.06-27.86-2.73-19.29-1.89,12.32-99,19.8-159,.33-2.65c.76.9,1.55,1.78,2.35,2.65Z"/><polygon class="cls-5" points="780.57 323.38 683.25 323.38 685.57 245.48 689.46 115.52 689.46 115.51 690.32 86.77 693.34 -14.33 693.37 -15.56 757.16 -15.56 772.12 201.05 778.67 295.93 780.57 323.38"/><polygon class="cls-5" points="704.48 117.47 668.48 39.43 664.55 39.43 697.82 141.06 704.48 117.47"/><polygon class="cls-5" points="1082.33 323.38 981.51 323.38 981.63 319.3 981.73 315.98 982.08 304.16 982.21 300 983.23 265.74 983.27 264.39 984.88 210.7 984.94 208.57 985.12 202.6 985.17 201.15 985.27 197.77 985.28 197.38 985.29 196.83 985.31 196.47 985.44 192.07 985.53 188.99 987.82 112.37 987.82 112.36 988.71 82.42 991.17 0 991.64 -15.56 1058.92 -15.56 1059.99 0 1069.9 143.49 1070.29 149.2 1070.4 150.72 1070.56 153.11 1072.37 179.2 1072.57 182.16 1072.88 186.6 1073.63 197.41 1074.69 212.81 1074.88 215.56 1076.08 232.99 1076.87 244.37 1077.11 247.91 1078.35 265.74 1080.71 300 1082.33 323.38"/><polygon class="cls-5" points="1003.46 114.4 965.97 33.12 961.88 33.12 996.53 138.97 1003.46 114.4"/><path class="cls-5" d="M1337.61,324.79l-.46-1.41H1236.69l.25-8.42,0-.44.29-10,.14-4.53,1-34.26.2-6.53.1-3.36.24-8,.28-9.25.4-13.54,1.11-37.16.16-5.26.27-9.18,1.83-61.08h0l.24-8,.65-21.9L1245,45.18l.84-27.89L1246.36,0l.46-15.56h67.28L1315.18,0l6.55,94.89L1323,113l2.52,36.6h0l.44,6.32,1.73,25.09,2.45,35.4,3.41,49.35,2.36,34.26,1.62,23.38Z"/><polygon class="cls-5" points="1258.64 114.4 1221.15 33.12 1217.06 33.12 1251.71 138.97 1258.64 114.4"/><polygon class="cls-5" points="517.63 -15.56 511.06 228.11 509.41 289.2 423.07 290.98 425.48 270.04 428.21 246.29 453.72 24.4 458.32 -15.56 473.52 -15.56 473.61 -15.73 473.65 -15.56 517.63 -15.56"/><path class="cls-5" d="M228.79,283.5l-24.19,1.61L148,288.88l-5.4.36,1-15L145.8,243l1.82-26.49L149.79,185l4.44-64.69,2.44-35.42,2.4-34.9,4.5-65.55h59.57l5.16,272.94s0,0,0,0l0,3h0Z"/><path class="cls-6" d="M1090-18.21c.76.9,1.55,1.78,2.35,2.65a99,99,0,0,0,9.28,9A82.85,82.85,0,0,0,1117.1,3.81c1.74.9,3.52,1.74,5.34,2.5A74.3,74.3,0,0,0,1145.25,12l1,.08,1.73.11a100.9,100.9,0,0,0,41.56-6.25l.5-.2a107.16,107.16,0,0,0,33.71-21.25"/><polygon class="cls-7" points="428.59 270.04 359.35 270.04 370.81 44.44 371.5 31.01 371.5 31 373.86 -15.56 424 -15.56 424.82 35.41 425.55 81.25 428.21 246.29 428.59 270.04"/><polygon class="cls-7" points="379.83 42.85 344.32 -7.63 338.81 -7.63 376.5 53.69 379.83 42.85"/><polygon class="cls-7" points="393.97 -11.09 391.81 27.76 380.87 -15.56 392.83 -15.56 393.97 -11.09"/><polygon class="cls-7" points="473.52 -15.56 453.72 24.4 425.55 81.25 407.6 117.48 407.6 63.68 424.82 35.41 455.86 -15.56 473.52 -15.56"/><polygon class="cls-7" points="866.83 300.45 862.11 300.21 778.67 295.93 767.89 295.38 772.12 201.05 781.83 -15.56 844.33 -15.56 846.08 9.03 848.94 49.19 848.94 49.2 850.06 64.95 852.37 97.4 862.9 245.26 866.83 300.45"/><polygon class="cls-7" points="845.02 75.88 881.07 -2.28 885.01 -2.28 851.68 99.51 845.02 75.88"/><path class="cls-5" d="M931.59,314.81v9H453.1V147.5s39.15-19.09,50.32-12.79-12,16-12,16,10.11,2.18,17.38,6.95a21.87,21.87,0,0,1,4.05,3.33,13.51,13.51,0,0,1,1,1.24s14.94-21,23.73-18.57c8.61,2.38-1.94,18-2.35,18.56.56-.25,20.22-9.36,22.48-7.45s-8.45,15.46-8.45,15.46a61.57,61.57,0,0,1,12.09,5.49,24.12,24.12,0,0,1,5.83,4.76c2.84-11.64,1.57-21,6-21S579,174.29,579,174.29s1.18-.75,3-1.88c6.31-3.86,20.43-12.22,22.42-11.13,2.57,1.4-3.06,8.95-3.06,8.95s19.35,2.3,16.53,6.17a16.9,16.9,0,0,1-5.27,5.1s20.57,13.72,20.57,25.15l25.71,3.75,1,.13,2,.3,7.06,1,15.72,2.29,1.83.26,7.78,1.14,9.57,1.39.6.09s3.52-4.74,7.91-10.19c1.11-1.39,2.29-2.83,3.48-4.24,1.4-1.68,2.82-3.33,4.19-4.83.29-.32.58-.64.87-.94l.33-.36c3-3.22,5.65-5.55,7-5.69,2-.21,1.79,2.52.88,5.69,0,.12-.08.24-.11.36l-.3.94c-.56,1.7-1.25,3.43-1.85,4.83-.73,1.73-1.32,2.94-1.32,2.94s2.89-1.24,7.2-2.94l2.48-1c3.16-1.22,6.82-2.59,10.57-3.87l2.81-.94,1.12-.36c7.89-2.53,15.48-4.35,18.73-3.36,2.22.68,2.85,1.92,2.59,3.36a1.55,1.55,0,0,1-.08.36,4.65,4.65,0,0,1-.34.94,18.28,18.28,0,0,1-3.75,4.83,39.14,39.14,0,0,1-3.34,2.94l8.24,2.88.86.3,5.67,2a63.37,63.37,0,0,1,0-8.1,18.08,18.08,0,0,1,.9-4.83,4.86,4.86,0,0,1,.48-.94,1.72,1.72,0,0,1,.28-.36,1.53,1.53,0,0,1,1.15-.55h.15a2,2,0,0,1,1.08.54,2.5,2.5,0,0,1,.37.36,6.82,6.82,0,0,1,.73.94,21.92,21.92,0,0,1,1.8,3.54.14.14,0,0,0,0,.06q.24.6.48,1.23a81.86,81.86,0,0,1,2.5,8.1c.39,1.49.61,2.46.61,2.46s1.57-.15,4.13-.36c1.57-.14,3.51-.3,5.69-.47s4.82-.36,7.46-.54c4.62-.3,9.55-.57,14-.7l2.73-.05c1.7,0,3.28,0,4.7,0a13.15,13.15,0,0,1,1.85.16c3.85.63,2.3,2.93-.57,5.28l-.28.22c-.93.74-2,1.49-3,2.17q-.78.52-1.53,1c-2.28,1.42-4.18,2.43-4.18,2.43l1.17.48h0l.94.38c.73.3,1.63.67,2.63,1.1,1.44.61,3.1,1.34,4.83,2.12l1.79.82,1.17.56,1,.48.54.27.35.17.41.2c1.15.58,2.26,1.16,3.29,1.74,3.82,2.12,6.51,4.12,5.77,5.27-2.11,3.3-6.68,2.59-6.68,2.59s4.18,1.59,9,4c1.5.74,3.05,1.55,4.56,2.42a.57.57,0,0,0,.13.08c5,2.93,9.53,6.45,9.53,9.7,0,7.39-10.2,6.33-10.2,6.33s4.79,3,10.64,7.4l1.84,1.4.48.37q.87.68,1.74,1.38c5.14,4.12,10.42,8.95,13.62,13.5.33.47.64.93.92,1.39l.35.59.64-.59c.86-.8,1.73-1.57,2.59-2.32,7.46-6.46,14.91-11.16,18.56-11.54,1-.11,1.74.12,2.09.74s0,1.77-.68,3.19a34.39,34.39,0,0,1-2.58,4.06c-1.43,2-3.1,4-4.67,5.87-2.72,3.22-5.09,5.73-5.09,5.73a142.07,142.07,0,0,1,16.09-.76c3.26.12,5.72.57,5.72,1.62,0,1.86-2.62,4.16-4.77,5.73-.69.5-1.33.93-1.82,1.25s-.92.57-.92.57l3,1.59,3.76,2Z"/><path class="cls-7" d="M84,112.51s39.15-19.1,50.32-12.8-12,16-12,16,16.51,3.56,22.48,11.51c0,0,14.94-21,23.72-18.56s-2.36,18.56-2.36,18.56,20.2-9.39,22.49-7.45-8.44,15.46-8.44,15.46,12.62,3.95,17.92,10.24c2.83-11.63,1.57-21,6-21s5.72,14.78,5.72,14.78,22.9-14.42,25.47-13-3.05,9-3.05,9,19.34,2.3,16.53,6.17a17,17,0,0,1-5.28,5.1s20.58,13.72,20.58,25.15L335.35,182s19.12-25.76,23.8-26.25-2.7,14.77-2.7,14.77,34.82-14.9,42.91-12.43-4.92,12.43-4.92,12.43l14.77,5.15s-1-14.77,2.82-14.77,7.74,17.24,7.74,17.24,26-2.47,38.69-2.11-7.74,11.25-7.74,11.25,26,10.29,23.92,13.59-6.69,2.59-6.69,2.59,23.22,8.79,23.22,16.18S481,226,481,226s22.93,14.42,29.58,26c10.52-9.85,22.12-16.88,23.88-13.72s-13,18.86-13,18.86,21.81-2.28,21.81.86-7.51,7.55-7.51,7.55l26.77,14.24v9H84Z"/><path class="cls-7" d="M1390.21,89.42s-39.15-19.1-50.32-12.8,12,16,12,16-16.51,3.56-22.48,11.51c0,0-14.94-21-23.73-18.56s2.36,18.56,2.36,18.56-20.2-9.39-22.49-7.45,8.45,15.46,8.45,15.46-12.62,3.94-17.92,10.24c-2.84-11.63-1.57-21-6-21s-5.72,14.78-5.72,14.78-22.9-14.42-25.48-13,3.06,9,3.06,9-19.35,2.3-16.53,6.17a16.9,16.9,0,0,0,5.27,5.1s-20.57,13.72-20.57,25.15l-71.23,10.37s-19.12-25.76-23.81-26.25,2.7,14.77,2.7,14.77-34.82-14.9-42.91-12.43,4.92,12.43,4.92,12.43L1065,152.61s1.06-14.77-2.81-14.77-7.74,17.24-7.74,17.24-26-2.47-38.69-2.12,7.74,11.26,7.74,11.26-26,10.29-23.92,13.59,6.68,2.59,6.68,2.59S983,189.19,983,196.58s10.2,6.33,10.2,6.33-22.94,14.42-29.59,26c-10.51-9.85-22.12-16.88-23.88-13.72s13,18.86,13,18.86S931,231.8,931,234.94s7.51,7.55,7.51,7.55l-26.77,14.24v9h478.49Z"/><path class="cls-8" d="M1027,130.59s36.94,8.63,41.74,42.37C1039,171.15,1027,130.59,1027,130.59Z"/><path class="cls-8" d="M1075.93,133.16s25.19,29.83,6.2,59.15C1063.57,160.67,1075.93,133.16,1075.93,133.16Z"/><path class="cls-8" d="M1099.81,154.34s19.14,34-5,59.26C1082.51,179,1099.81,154.34,1099.81,154.34Z"/><path class="cls-8" d="M1117.58,178.85s15.44,35.85-11.24,58.4C1097.77,201.59,1117.58,178.85,1117.58,178.85Z"/><path class="cls-8" d="M1017.38,176.87s34.16-16,58.91,8.64C1040.55,198,1017.38,176.87,1017.38,176.87Z"/><path class="cls-8" d="M1033.71,197.44s35.23-13.48,58.12,12.91C1055.28,220.18,1033.71,197.44,1033.71,197.44Z"/><path class="cls-8" d="M1044.11,218.14s35.23-13.48,58.12,12.91C1065.68,240.89,1044.11,218.14,1044.11,218.14Z"/><path class="cls-9" d="M1045.37,149.1s38.63,31.19,66.76,103.4"/><path class="cls-8" d="M407.69,82.12s-35.28,13.91-35.13,48C401.74,124,407.69,82.12,407.69,82.12Z"/><path class="cls-8" d="M359.67,91.78S339.08,125,362.14,151.2C375.89,117.2,359.67,91.78,359.67,91.78Z"/><path class="cls-8" d="M339.12,116.2s-14,36.45,13.58,57.91C359.83,138.13,339.12,116.2,339.12,116.2Z"/><path class="cls-8" d="M325.11,143S315,180.76,344.72,199.18C348,162.66,325.11,143,325.11,143Z"/><path class="cls-8" d="M424,126.51s-36.12-10.87-57,17.11C404.1,150.77,424,126.51,424,126.51Z"/><path class="cls-8" d="M410.79,149.23S374,141,355.16,170.46C392.75,174.87,410.79,149.23,410.79,149.23Z"/><path class="cls-8" d="M403.51,171.23s-36.82-8.22-55.63,21.22C385.47,196.87,403.51,171.23,403.51,171.23Z"/><path class="cls-9" d="M392.22,103.11s-33.68,36.47-51,112"/><path class="cls-8" d="M712.3,191.54s-35.29,13.91-35.13,48C706.35,233.41,712.3,191.54,712.3,191.54Z"/><path class="cls-8" d="M664.28,201.19s-20.59,33.17,2.47,59.42C680.5,226.61,664.28,201.19,664.28,201.19Z"/><path class="cls-8" d="M643.73,225.62s-14,36.45,13.58,57.9C664.44,247.54,643.73,225.62,643.73,225.62Z"/><path class="cls-8" d="M629.72,252.45s-10.07,37.72,19.61,56.15C652.62,272.07,629.72,252.45,629.72,252.45Z"/><path class="cls-8" d="M728.56,235.92s-36.12-10.87-57,17.12C708.7,260.18,728.56,235.92,728.56,235.92Z"/><path class="cls-8" d="M715.4,258.64s-36.82-8.21-55.63,21.23C697.36,284.29,715.4,258.64,715.4,258.64Z"/><path class="cls-8" d="M708.12,280.64s-36.82-8.21-55.63,21.22C690.08,306.28,708.12,280.64,708.12,280.64Z"/><path class="cls-9" d="M696.83,212.52s-33.68,36.47-51,112"/><path class="cls-8" d="M813.18,134.25s35.29,13.91,35.13,48C819.14,176.12,813.18,134.25,813.18,134.25Z"/><path class="cls-8" d="M861.21,143.9s20.58,33.18-2.47,59.42C845,169.33,861.21,143.9,861.21,143.9Z"/><path class="cls-8" d="M881.75,168.33s14,36.45-13.58,57.9C861,190.26,881.75,168.33,881.75,168.33Z"/><path class="cls-8" d="M895.77,195.16s10.07,37.72-19.61,56.15C872.86,214.78,895.77,195.16,895.77,195.16Z"/><path class="cls-8" d="M810.09,201.36s36.82-8.21,55.63,21.22C828.12,227,810.09,201.36,810.09,201.36Z"/><path class="cls-8" d="M817.37,223.35s36.82-8.21,55.63,21.23C835.4,249,817.37,223.35,817.37,223.35Z"/><path class="cls-9" d="M828.65,155.23s33.69,36.48,51,112"/><path class="cls-10" d="M907.6,316q-.33,3.74-.94,7.4c0,.15,0,.3-.08.45s-.06.4-.1.59l-44.72.51v-1.1H725.25c0-.15-.07-.3-.1-.45-.31-1.45-.59-2.89-.83-4.34-.17-1-.33-2-.47-3.06-.26-2-.47-3.93-.6-5.89-.23-3-.3-5.93-.25-8.88l3.39.45,19.08,2.5,20.1,2.64-8.39-2.64L744,300l-17.58-5.53-2.94-.93a95.65,95.65,0,0,1,2.94-15.85,93.72,93.72,0,0,1,6.89-17.86L765,282.05l3.4,2.39,2.84,2,7.14,5,6.9,4.84,5.32,3.73,3.64,2.55L791.48,300l-3.87-3.61-9.52-8.87-1.17-1.09-8.28-7.71L765,275.31l-26.4-24.59a90.25,90.25,0,0,1,15.23-17.62L765,245l4.93,5.26,6.05,6.44,7.87,8.39-8.23-13.64-5.34-8.86L765,233.85l-4-6.55a86.62,86.62,0,0,1,10.2-6.33c.72-.4,1.45-.77,2.19-1.13,2-1,3.94-1.88,6-2.72l.75-.29,4.41,9.55.2.43,6.67,14.46,17.08,37-12.41-38-4.51-13.83-.18-.56-1.66-5.09-2.12-6.51c1.78-.53,3.57-1,5.36-1.42s3.74-.81,5.62-1.13c2.39-.39,4.79-.69,7.18-.89l1-.08a89,89,0,0,1,12.65,0,.49.49,0,0,1,.17,0c1.08.07,2.15.17,3.22.28v0l.28,2.15.42,3.32,0,.11.23,1.74.19,1.51.34,2.59.09.76.14,1,.27,2.12.41,3.12.27,2.11.29,2.24,6.54,50.47.87-47.4.09-5v-.35l0-2.7v-.63l0-1.86v0l0-1.42,0-1.58v-.89l0-2,0-1.84,0-1.86v-.25l.07-3.7c2.38.55,4.74,1.2,7.06,1.94l1.14.37c1.53.5,3,1,4.55,1.63.85.33,1.69.67,2.54,1l.88.39c1.17.5,2.33,1,3.47,1.6l.65.31-.39,2.91-.46,3.39-.1.77-2.23,16.52-.16,1.21-.18,1.31.62-2.46L855,228.11l.43-1.73.83-3.3.41-1.61c1,.51,1.89,1,2.82,1.58.64.37,1.29.75,1.92,1.14s1.2.74,1.79,1.12l1.64,1.07c1.27.86,2.52,1.74,3.76,2.66s2.33,1.77,3.47,2.7l-1.21,3.89-1.3,4.2L868,245l-4.12,13.31-1.17,3.78-1.95,6.3-5.12,16.52,6.94-13.75.5-1,1.44-2.85,10-19.89,1.33-2.63,3.34-6.62c1.06,1.06,2.11,2.15,3.12,3.27.35.38.7.76,1,1.15.52.58,1,1.16,1.51,1.75a98,98,0,0,1,15.78,26.12c.29.7.57,1.41.83,2.11q.76,2,1.41,3.93c.38,1.1.73,2.21,1,3.32q1,3.3,1.72,6.61c.38,1.66.7,3.31,1,5,.42,2.45.73,4.9.95,7.35.05.42.08.83.11,1.25.06.72.11,1.44.14,2.16s.08,1.33.09,2A94.88,94.88,0,0,1,907.6,316Z"/><path class="cls-10" d="M1265.82,196.27l17-55.06a99.46,99.46,0,0,0-15.95-10.63l-6.44,25.6,3.64-27a96.12,96.12,0,0,0-21-7.52l-1.35,74-9.84-75.91a92.35,92.35,0,0,0-36.46,3.33l21.62,66.31-29.36-63.6-.78.3a92.14,92.14,0,0,0-19,10.54l23.61,39.13-31.08-33.13a93.47,93.47,0,0,0-15.77,18.25l57.61,53.66-63.1-44.23A98.37,98.37,0,0,0,1129,205.2l43.61,13.73-44.08-5.78a100.66,100.66,0,0,0,2.37,23.62l29.21.46-27.52,6.1a101.76,101.76,0,0,0,3.53,10.1c20.62,50.41,76.81,75.14,125.49,55.22s71.44-76.93,50.82-127.34a101.33,101.33,0,0,0-22.2-33.44Z"/><polygon class="cls-11" points="1195.17 324.93 1100.78 324.93 1100.86 323.38 1102.05 300 1103.78 265.74 1104.73 247.1 1104.92 243.45 1105.29 236.14 1105.45 233.04 1106.15 219.13 1106.65 209.26 1107.16 199.28 1108.58 171.34 1109.4 155.33 1109.96 144.28 1116.41 17.38 1117.1 3.81 1117.29 0 1117.34 -0.93 1118.08 -15.56 1189.7 -15.56 1189.95 0 1190.03 5.08 1190.04 5.69 1191.02 66.79 1191.03 67.57 1191.52 98.21 1192.12 135.33 1192.38 151.15 1192.95 186.56 1193.26 206.13 1193.3 208.23 1193.43 216.45 1193.66 230.67 1193.92 247.13 1194.22 265.74 1194.23 266.64 1194.71 296.39 1194.73 297.49 1194.77 300 1194.93 310.02 1195.09 320.2 1195.12 321.55 1195.15 323.38 1195.17 324.93"/><polygon class="cls-11" points="1128.7 15.22 1124.16 29.99 1116.41 17.38 1101.66 -6.61 1096.16 -15.56 1107.05 -15.56 1117.34 -0.93 1122.44 6.31 1128.7 15.22"/><polygon class="cls-11" points="1232.22 -15.56 1228.69 -8.43 1225.03 -1.05 1225 -0.99 1191.03 67.57 1166.56 116.96 1166.56 43.62 1189.54 5.89 1190.03 5.08 1202.6 -15.56 1232.22 -15.56"/><path class="cls-11" d="M980.17,323.59l-73.69.83-44.72.51v-1.55l.11-7.4.16-11.82.06-4V300l.17-11.6,0-2,.22-15.27,0-1.37.11-7.7.24-16.83v-.19l.17-11.7.1-7,0-1.07,0-2.48,0-3.73.06-3.83.07-4.57.11-8.1.07-4.83v-1.3l.09-6.57,0-.91,0-3.83L864,170.3v0l0-2,.08-5.73,0-1.21.17-11.42.11-7.62.81-56.87.4-28.43v0l.21-14.2L866,30.45h0L866.41,0l.22-15.56h82.43L950.49,0l7.78,84.86.24,2.61,5.9,64.29,2.17,23.62.89,9.78.35,3.83.09.91.57,6.22,0,.35,0,.36.09.94.44,4.83.75,8.1.88,9.64,4.16,45.4,0,.22L978,300l.38,4.16L979.47,316l.33,3.57.35,3.83Z"/><polygon class="cls-11" points="901.85 104.56 898.87 108.33 883.92 127.26 865.19 85.46 860.04 73.97 853.07 58.42 848.94 49.2 848.94 49.19 819.92 -15.56 831.72 -15.56 846.08 9.03 862.71 37.52 865.8 42.81 868.65 47.69 899.78 101.02 901.85 104.56"/><polygon class="cls-11" points="665.26 323.38 551.22 323.38 556.63 245.1 569.2 63.02 574.63 -15.56 655.13 -15.56 655.2 -13.05 656.77 39.49 656.77 39.5 657.77 72.9 657.77 72.91 661.31 191.31 662.86 243.26 665.26 323.38"/><polygon class="cls-11" points="686.74 -15.56 685.87 -12.89 668.63 39.75 666.64 45.82 657.77 72.9 657.77 72.91 648.04 102.62 640.31 75.19 656.77 39.5 656.77 39.49 680.63 -12.24 682.16 -15.56 686.74 -15.56"/><polygon class="cls-11" points="106.48 323.38 -7.56 323.38 -5.88 299.05 -5.88 299.04 -5.82 298.19 -5.79 297.8 -5.79 297.78 -4.42 277.92 0 213.9 14.77 0 15.84 -15.56 96.35 -15.56 96.82 0 96.83 0.38 97.92 37.14 97.99 39.48 98.9 69.87 98.99 72.89 98.99 72.9 99.5 90 99.97 105.61 101.42 154.12 101.51 157.26 101.67 162.6 101.74 164.91 101.9 170.2 103.01 207.31 103.01 207.32 104.95 272.29 105.44 288.83 105.52 291.28 105.57 293.11 105.78 300 105.84 302.16 106 307.24 106.08 310.06 106.44 322.29 106.48 323.38"/><polygon class="cls-11" points="127.95 -15.56 100.67 67.75 98.99 72.89 98.99 72.9 97.84 76.41 95.39 83.89 95.39 83.9 89.26 102.62 84.24 84.81 81.52 75.19 94.3 47.48 97.77 39.96 97.99 39.48 123.38 -15.56 127.95 -15.56"/><polygon class="cls-11" points="343.9 -15.56 343.9 318.59 235.34 318.59 239.06 284.97 243.41 245.7 267.7 26.47 272.36 -15.56 343.9 -15.56"/><polygon class="cls-11" points="293.08 4.14 277.23 52.03 267.7 26.47 252.02 -15.56 283.1 -15.56 293.08 4.14"/><path class="cls-12" d="M1002.93,240.57l17.27-21.86a62.26,62.26,0,0,0-18.39-15.19l-8.89,18.27L996.53,201a61.67,61.67,0,0,0-29.2-4.76l1.42,36.63-9.91-35.35a61.71,61.71,0,0,0-28.05,14.4l18.49,27.44L927.8,214.77a62.25,62.25,0,0,0-12.26,18.13l8.78,8.5-9.88-5.87a62,62,0,1,0,108.41-13.32Z"/><path class="cls-13" d="M69.78,148.62c71.05,2.11,135.77,78.09,168.84,80.9s84.42-50,141.4-32.36,73.16,87.23,73.16,87.23l-371.44,19Z"/><line class="cls-14" x1="362.43" y1="192.24" x2="366.28" y2="288.84"/><line class="cls-14" x1="393.08" y1="200.9" x2="373.71" y2="288.46"/><line class="cls-14" x1="380.21" y1="288.12" x2="424.6" y2="227.94"/><line class="cls-14" x1="359.15" y1="289.2" x2="323.96" y2="197.73"/><line class="cls-14" x1="100.6" y1="153.87" x2="97.74" y2="303.39"/><line class="cls-14" x1="107.84" y1="302.05" x2="138.95" y2="170.55"/><line class="cls-14" x1="117.56" y1="302.05" x2="177.09" y2="194.7"/><polygon class="cls-10" points="128.04 323.38 -18.99 323.38 -18.99 -15.56 86.59 -15.56 88.49 0 90.03 12.54 94.3 47.48 96.42 64.82 97.27 71.74 97.84 76.41 99.5 90 101.35 105.09 105.89 142.23 106.74 149.2 107.59 156.16 111.9 191.41 119.43 253.02 120.38 260.78 121.69 271.43 122.93 281.61 123.82 288.83 124.01 290.41 124.23 292.17 124.98 298.36 125.18 300 125.32 301.16 126.27 308.88 128.04 323.38"/><path class="cls-15" d="M136.9-1.6c33.09,3.39,4.82,85.62-17,84.83S105.54-4.81,136.9-1.6Z"/><path class="cls-16" d="M202.21,106.91c23,9.88-15.78,62.7-31.31,57.23S180.36,97.55,202.21,106.91Z"/><path class="cls-17" d="M202.21,106.91s-6.49,11.28-17,30.23C181,144.89,176,153.93,170.57,164q-4.94,9.15-10.37,19.37-1.55,2.9-3.12,5.88-4.26,8-8.72,16.58c-.27.5-.53,1-.79,1.51-8.71,16.7-17.92,34.72-27.19,53.44q-2.68,5.4-5.36,10.87l-.06.13q-4.14,8.46-8.27,17.05l-1.17,2.45-.9,1.88c-1.08,2.28-2.17,4.55-3.25,6.84l-1.15,2.44-2,4.17q-3.92,8.37-7.77,16.77"/><path class="cls-17" d="M70.87,323.38c1-6.05,2.1-12.31,3.23-18.72.27-1.55.55-3.1.83-4.66q2.19-12.28,4.6-25.22c.07-.39.14-.79.22-1.19,1.37-7.36,2.79-14.85,4.24-22.42,1-5,1.93-10,2.92-15,.1-.55.21-1.09.31-1.64,3.21-16.43,6.54-33.1,9.89-49.58,1.06-5.25,2.13-10.49,3.2-15.68.3-1.49.61-3,.92-4.46.14-.72.29-1.44.44-2.16.54-2.64,1.09-5.28,1.63-7.89,0-.12,0-.23.07-.34q1.26-6.12,2.52-12.14c3-14.42,6-28.38,8.75-41.56q1.94-9.09,3.77-17.64c9.32-43.46,16.48-75.65,18.13-83,.24-1,.36-1.6.36-1.6"/><path class="cls-18" d="M734.27,159l.25,1.65-3.25.48a.62.62,0,0,1-.7-.52h0l-.06-.42a.61.61,0,0,1,.52-.7Z"/><path class="cls-19" d="M734.27,159l.13.82-3.86.58,0-.21a.61.61,0,0,1,.52-.7Z"/><path class="cls-20" d="M735.43,157.36a16.27,16.27,0,0,1,4.77-.29,16.76,16.76,0,0,1,15.37,18.07,17,17,0,0,1-1.06,4.67,6,6,0,0,1-1.28,1.73,2.32,2.32,0,0,1-1.33.6h-.18l-.16,0a2,2,0,0,1-.92-1.29,27.32,27.32,0,0,1-.75-4.38h0c0-.22-.06-.43-.1-.64v0c0-.23-.09-.46-.14-.69l0-.21,0-.18a1.16,1.16,0,0,0,0-.18c0-.09,0-.16-.06-.24s-.09-.31-.13-.47l-.09-.27c-.07-.24-.15-.47-.24-.71a1.43,1.43,0,0,0-.08-.22l-.09-.22c-.08-.22-.18-.43-.27-.65,0,0,0,0,0,0l0-.06c-.14-.31-.29-.62-.45-.92s-.32-.57-.48-.84l-.07-.11,0,0c-.11-.18-.23-.36-.35-.54l0-.06-.05-.06a16.21,16.21,0,0,0-1.13-1.46,3,3,0,0,0-.24-.26,2.73,2.73,0,0,0-.23-.25l0,0a.86.86,0,0,0-.13-.14l-.39-.4-.2-.19-.33-.29-.12-.11c-.15-.14-.3-.26-.46-.39a17,17,0,0,0-2.17-1.49l0,0q-.44-.26-.9-.48l-.42-.2-.35-.16-.07,0c-.25-.11-.5-.21-.77-.3a16.65,16.65,0,0,0-4.46-1l-.5,0h0l-.13,0-.08,0,0,0h-.05a2.06,2.06,0,0,1-1-.77,2.1,2.1,0,0,1-.35-1.32h0a1.75,1.75,0,0,1,.76-1.32A6,6,0,0,1,735.43,157.36Z"/><path class="cls-21" d="M732.45,159.63h0a17.35,17.35,0,0,1,4.54-.42l.63,0a16.77,16.77,0,0,1,14.56,22c-.06.19-.12.37-.19.55s-.09.23-.13.34h-.17l-.16,0a2,2,0,0,1-.92-1.29,27.22,27.22,0,0,1-.75-4.37h0c0-.21-.06-.43-.1-.64v0c0-.24-.08-.47-.13-.7l0-.06,0-.15,0-.18,0-.18-.06-.24-.14-.47c0-.08-.05-.17-.08-.26l-.15-.45-.09-.26-.08-.22-.09-.23-.27-.64s0,0,0,0l0-.06c0-.05,0-.11-.08-.16-.12-.26-.24-.51-.38-.76l-.41-.73-.07-.11-.06-.11,0,0c-.07-.11-.14-.22-.22-.33l-.13-.21,0,0,0-.07-.2-.28-.16-.21-.07-.09-.22-.29-.22-.27-.26-.31-.23-.26-.24-.25,0,0a.86.86,0,0,0-.13-.14l-.39-.4-.2-.19-.33-.29-.12-.11-.13-.11-.33-.28-.28-.21a3.92,3.92,0,0,0-.32-.25l-.17-.12-.13-.1-.32-.21-.32-.21a2.26,2.26,0,0,0-.26-.16l-.38-.23,0,0-.36-.2-.23-.13-.3-.15-.27-.13-.16-.07-.35-.16-.06,0-.29-.11-.24-.1-.24-.09-.35-.12-.19-.07-.46-.14-.31-.09-.46-.12-.32-.08-.47-.1-.31-.06-.53-.08-.21,0h-.08l-.78-.09-.5,0h0a.41.41,0,0,1-.13,0l-.08,0h0l-.05,0a2,2,0,0,1-1-.76A2.22,2.22,0,0,1,732.45,159.63Z"/><path class="cls-18" d="M750.64,180.79a2.7,2.7,0,0,0,2.59.75,2.32,2.32,0,0,1-1.33.6h-.18l-.16,0A2,2,0,0,1,750.64,180.79Z"/><path class="cls-19" d="M750.64,180.79a3,3,0,0,0,1.46.78c0,.08-.06.15-.08.22s-.09.23-.13.35h-.17l-.16,0A2,2,0,0,1,750.64,180.79Z"/><path class="cls-22" d="M847.8,192h-85V130.12h74.82a10.17,10.17,0,0,1,10.17,10.17Z"/><path class="cls-23" d="M753.78,192V139.15a9,9,0,0,1,9-9h0a9,9,0,0,1,9,9V192Z"/><path class="cls-24" d="M852.91,222.57c-.26.26-2.25.46-5.43.6-1.7.08-3.76.13-6.08.17H839c-.28,0-.55,0-.83,0h-1.88c-.49,0-1,0-1.46,0-5.71,0-12.23-.13-18.67-.39-1.91-.08-3.83-.18-5.71-.27-3.32-.18-6.55-.39-9.58-.65-10.39-.88-18.32-2.22-18.85-4.19,0,0-.54-11-.75-25.77V192c0-.52,0-1,0-1.57,0-2.19-.05-4.46-.05-6.78q0-3,0-6c.06-17.05.78-35.7,3.09-47.56,1-5,2.21-8.71,3.8-10.69,0,0,0,0,0,0a6.32,6.32,0,0,1,.54-.59,26.65,26.65,0,0,1,4.38-3.13,45.37,45.37,0,0,1,7.51-3.68,43.35,43.35,0,0,1,4.67-1.52c.92-.25,1.86-.47,2.84-.65s2.06-.37,3.11-.49c.49-.06,1-.11,1.48-.14a35.78,35.78,0,0,1,5.95,0s0,0,0,0a53.46,53.46,0,0,1,5.73.79,50.84,50.84,0,0,1,6.83,1.85,59.07,59.07,0,0,1,6.57,2.68,62.31,62.31,0,0,1,10.49,6.39l.18.13c.06.06.13.11.19.18,1.66,1.93,2.84,12,3.65,25.16,0,.68.1,1.37.13,2.09.15,2.28.26,4.65.38,7.07.19,4.28.35,8.73.48,13.22C854,194.71,853.76,221.73,852.91,222.57Z"/><path class="cls-25" d="M843.29,202.24s2.57-51.06,1.17-60.72S834.93,125,820,125.58s-19.25,10.66-20.08,17.36-4.72,66.85.84,78.95,16.39,10.75,16.39,10.75l21.63-8.36Z"/><path class="cls-26" d="M803.11,181.43,790.8,177.8a192.34,192.34,0,0,0,5.29-30.49,76.19,76.19,0,0,0,.22-12.2l-3.37-5.34-7.69,71.6,33.6-.82L798.94,188.4Z"/><path class="cls-24" d="M875.1,166.58a29.15,29.15,0,0,1-7.12,2.76,7.88,7.88,0,0,1-.82.19c-.91.2-2.16-.42-3.59-1.55-3.32-2.61-7.62-8-10.83-12.46-.62-.86-1.19-1.69-1.69-2.45-1.07-1.61-1.92-2.94-2.37-3.78,0-.08-.1-.19-.15-.29v0a18.11,18.11,0,0,1-.95-4s0,0,0-.05c-.08-.57-.16-1.17-.23-1.8a2.19,2.19,0,0,1,0-.28,108.27,108.27,0,0,1-.6-10.83c-.08-6.23.37-11.57,1.49-11.08l.18.13c.06.06.13.11.19.18,6.46,6.37,27.76,38.76,29.15,41.55C878.38,164.05,877.1,165.41,875.1,166.58Z"/><path class="cls-24" d="M885.56,195.7l-8.27,4L874.68,201s-9.46-21.27-11.11-33a12.42,12.42,0,0,1,.18-5.92,2.51,2.51,0,0,1,.84-1.2c4.32-3.31,8.1,1.28,10.51,5.72a42.87,42.87,0,0,1,2.76,6.31Z"/><path class="cls-24" d="M831.84,117.52a42.9,42.9,0,0,1-5.43.24,66.31,66.31,0,0,1-16.15-2.22q-2.64-.69-5.39-1.69l0-.13.29-3.24.52-5.6.35-3.76v0l.38-4,.42-4.45.06-.65.23-2.57,0-.38.44-4.64L813.32,89l7.38,5.84.63.5,2.44,1.93.84.67,4.79,3.78.58.47.34,2.85.83,6.81Z"/><path class="cls-26" d="M877.29,199.7,874.68,201s-9.46-21.27-11.11-33c-3.32-2.61-7.62-8-10.83-12.46.19,4.28.35,8.73.48,13.22-.68-2.9-1.44-6.05-2.17-9.12-.93-3.89-1.82-7.65-2.52-10.62v0c-.38-1.62-.71-3-.95-4,0,0,0,0,0-.05-.29-1.15-.46-1.88-.49-2a1.57,1.57,0,0,1,.26.24c.57.6,1.95,2,3.7,3.94l1.31,1.43c4,4.33,9.12,10.14,11.39,13.61.91,1.39,1.78,2.79,2.59,4.16.56.95,1.11,2,1.64,3.12C872.38,178.62,875.91,193.47,877.29,199.7Z"/><path class="cls-26" d="M827.67,106.56c-7.43,4.27-19.65,2.51-19.65,2.51s0,3.81-2.25,3.58c-3.35-.35-8.18,3.11-12.77,3a45.37,45.37,0,0,1,7.51-3.68,43.35,43.35,0,0,1,4.67-1.52l1.67-17.8.29-3.22C812.58,91.73,834.23,102.8,827.67,106.56Z"/><path class="cls-24" d="M790.78,60.27a25.49,25.49,0,0,0-.93,6.75c0,.16,0,.32,0,.47a34.7,34.7,0,0,1-.93,8.19,8.63,8.63,0,0,1-3.83-2.94c-3.28-4.16-2.19-10.84,1.87-12.42a5.12,5.12,0,0,1,3.81-.07Z"/><path class="cls-25" d="M790.78,60.27a25.49,25.49,0,0,0-.93,6.75c0,.16,0,.32,0,.47a34.7,34.7,0,0,1-.93,8.19,8.63,8.63,0,0,1-3.83-2.94c-3.28-4.16-2.19-10.84,1.87-12.42a5.12,5.12,0,0,1,3.81-.07Z"/><path class="cls-24" d="M851.33,72.74a8.71,8.71,0,0,1-3.83,2.94,35.29,35.29,0,0,1-.92-8.19V67a25.7,25.7,0,0,0-.93-6.77,5.14,5.14,0,0,1,3.82.07C853.52,61.9,854.62,68.58,851.33,72.74Z"/><path class="cls-25" d="M851.33,72.74a8.71,8.71,0,0,1-3.83,2.94,35.29,35.29,0,0,1-.92-8.19V67a25.7,25.7,0,0,0-.93-6.77,5.14,5.14,0,0,1,3.82.07C853.52,61.9,854.62,68.58,851.33,72.74Z"/><path class="cls-24" d="M838.7,75.77a7.32,7.32,0,0,0-.8,6.29,16.46,16.46,0,0,1,1,4.73c0,9.78-9.27,17.71-20.7,17.71s-20.7-7.93-20.7-17.71a16.46,16.46,0,0,1,1-4.73,7.33,7.33,0,0,0-.81-6.29,11.93,11.93,0,0,1-.76-1.41,11.21,11.21,0,0,1-1-4.7c0-6.49,5.53-11.76,12.35-11.76a12.75,12.75,0,0,1,6.29,1.64,7.36,7.36,0,0,0,7.27,0,12.75,12.75,0,0,1,6.29-1.64c6.82,0,12.35,5.27,12.35,11.76a11.17,11.17,0,0,1-1,4.7A10.69,10.69,0,0,1,838.7,75.77Z"/><path class="cls-25" d="M838.7,75.77a7.32,7.32,0,0,0-.8,6.29,16.46,16.46,0,0,1,1,4.73c0,9.78-9.27,17.71-20.7,17.71s-20.7-7.93-20.7-17.71a16.46,16.46,0,0,1,1-4.73,7.33,7.33,0,0,0-.81-6.29,11.93,11.93,0,0,1-.76-1.41,11.21,11.21,0,0,1-1-4.7c0-6.49,5.53-11.76,12.35-11.76a12.75,12.75,0,0,1,6.29,1.64,7.36,7.36,0,0,0,7.27,0,12.75,12.75,0,0,1,6.29-1.64c6.82,0,12.35,5.27,12.35,11.76a11.17,11.17,0,0,1-1,4.7A10.69,10.69,0,0,1,838.7,75.77Z"/><path class="cls-27" d="M807.67,89a1.19,1.19,0,0,0-1.18,1.34c.74,5.24,5.71,9.29,11.73,9.29s11-4,11.72-9.29A1.18,1.18,0,0,0,828.76,89Z"/><path class="cls-28" d="M811.41,97.66a12.87,12.87,0,0,0,13.62,0c-.86-3-3.59-2.28-6.81-2.28S812.26,94.7,811.41,97.66Z"/><path class="cls-24" d="M855.09,62.92a8.83,8.83,0,0,0-.77-1.71,7.42,7.42,0,0,0-1.62-2,6.1,6.1,0,0,0-1.83-1.11,8.34,8.34,0,0,0-1.32-.38,6.1,6.1,0,0,0-3,.1l-.06,0-.53.18a4.75,4.75,0,0,0-.56.25l-.32.17A30.84,30.84,0,0,0,844,55.59c-.33-.7-.67-1.38-1-2.05a33.64,33.64,0,0,0-9.56-10.91,28.27,28.27,0,0,0-7.73-4l-.15-3.89-4.69,2.8-.55-.06-1-.07-.69-2.95-.2-.86h-.1l-.58,0c-4.36.36-6.54,4.32-6.86,5-7.24,2.4-13.54,8.09-17.29,14.95-.37.67-.72,1.35-1,2.05a28.4,28.4,0,0,0-1.16,2.88h0l-.48-.25a2.52,2.52,0,0,0-.33-.14l-.35-.13-.22-.07a6.55,6.55,0,0,0-4.36.25c-5.16,2-6.54,10.48-2.37,15.77a10.64,10.64,0,0,0,5.22,3.86,1.67,1.67,0,0,0-.06.29,20.15,20.15,0,0,0-.47,4.33c0,.32,0,.63,0,.94,0,.55.07,1.1.15,1.64a17.4,17.4,0,0,0,.36,2c.07.3.14.6.23.89s.16.56.25.83.19.57.3.85.17.46.26.68.29.68.45,1,.18.39.28.58.11.22.17.33q.21.41.45.81A23.71,23.71,0,0,0,793,96.1c.18.22.37.45.57.66a25.34,25.34,0,0,0,3.35,3.19c.25.21.51.41.77.6s.53.39.8.58l.82.55a31.07,31.07,0,0,0,3.53,2q.93.45,1.89.84l.83.32.15.06h0l.29.11a36.2,36.2,0,0,0,11.89,2.08h.33c.4,0,.81,0,1.2,0a33.59,33.59,0,0,0,3.92-.34,35.24,35.24,0,0,0,5.37-1.15c.55-.17,1.09-.35,1.61-.54,9.17-3.23,16-10,17.76-18.28a20.27,20.27,0,0,0,0-8.68,1.74,1.74,0,0,0-.07-.29,8.94,8.94,0,0,0,2.86-1.49,13.59,13.59,0,0,0,2.37-2.37A11.94,11.94,0,0,0,855.09,62.92Zm-64.32-2.64a25.88,25.88,0,0,0-.92,6.74v.47c0,.77,0,1.55-.06,2.32s-.1,1.31-.18,2a37,37,0,0,1-.69,3.9A7.42,7.42,0,0,1,787,74.63a10.14,10.14,0,0,1-1-.83,11.27,11.27,0,0,1-.95-1.07c-2.79-3.53-2.42-8.89.25-11.38a4.75,4.75,0,0,1,.75-.59,5.36,5.36,0,0,1,.86-.44A5.58,5.58,0,0,1,788,60a4.75,4.75,0,0,1,2.34.1l.39.13v0Zm48.1,27.62s0,.09,0,.13c0,.33-.07.66-.11,1a.5.5,0,0,0,0,.12,16.31,16.31,0,0,1-.87,3.24,10.53,10.53,0,0,1-.45,1l-.25.51c-.18.33-.36.66-.56,1l-.3.48c-.21.32-.43.63-.66.94a17.7,17.7,0,0,1-2.34,2.57,10.78,10.78,0,0,1-.9.77,21,21,0,0,1-3,2c-.16.09-.32.18-.49.26l-.46.23c-.19.09-.39.19-.59.27h0a22.35,22.35,0,0,1-3.84,1.34c-.45.11-.91.21-1.37.3a25.56,25.56,0,0,1-4.41.4,21,21,0,0,1-2.11-.1,4.73,4.73,0,0,1-.53,0c-.44,0-.86-.11-1.29-.18-.28,0-.55-.1-.82-.15s-.71-.15-1.06-.24a8.56,8.56,0,0,1-.87-.23l-.13,0,0,0-.77-.26c-.45-.16-.9-.32-1.34-.5,0,0,0,0-.07,0-.45-.2-.91-.39-1.34-.62a18.11,18.11,0,0,1-1.78-1,0,0,0,0,0,0,0,7.49,7.49,0,0,1-.73-.45c-.4-.28-.78-.57-1.15-.86a8,8,0,0,1-.84-.7l-.42-.39c-.33-.31-.66-.63-1-1s-.6-.69-.88-1a10.17,10.17,0,0,1-.68-.94c-.26-.37-.51-.76-.73-1.15s-.44-.77-.64-1.17h0c0-.09-.08-.17-.12-.27l-.1-.27a13.87,13.87,0,0,1-.7-2,.4.4,0,0,1,0-.15,6.87,6.87,0,0,1-.21-.87,2.47,2.47,0,0,1-.09-.41c-.06-.36-.11-.71-.14-1.09,0-.07,0-.14,0-.21v0a1.48,1.48,0,0,1,0-.21c0-.18,0-.38,0-.57s0-.39,0-.58a8.32,8.32,0,0,1,.08-1.07c0-.39.13-.78.22-1.19a23.12,23.12,0,0,1,.72-2.46,7.23,7.23,0,0,0,.34-3,6.21,6.21,0,0,0-.27-1.35,1,1,0,0,0-.08-.23,7.52,7.52,0,0,0-.8-1.7,10.23,10.23,0,0,1-.76-1.42l-.24-.54a11.35,11.35,0,0,1-.38-1.12c-.06-.2-.11-.39-.15-.59a10.77,10.77,0,0,1-.27-2.43,11.36,11.36,0,0,1,2.72-7.37h0a6.28,6.28,0,0,1,.49-.54,4,4,0,0,1,.41-.41A5.22,5.22,0,0,1,800,61a3.47,3.47,0,0,1,.29-.25h0a10.68,10.68,0,0,1,1.78-1.2,8.69,8.69,0,0,1,.86-.44,10.73,10.73,0,0,1,1.11-.45,13.23,13.23,0,0,1,2.37-.58,14.47,14.47,0,0,1,1.88-.13c.29,0,.58,0,.86,0l.67.07.58.07a6.83,6.83,0,0,1,.9.18,13.37,13.37,0,0,1,1.44.44l.58.23a10.52,10.52,0,0,1,1.26.62l.21.1.57.27,0,0h0a6,6,0,0,0,1.09.35l.31.05h.11s0,0,0,0a7.24,7.24,0,0,0,1.8.11,7.69,7.69,0,0,0,1.75-.34l.06,0a5.75,5.75,0,0,0,.86-.35h0l.42-.22.14-.08.14-.07.64-.33.52-.22.41-.16a4.72,4.72,0,0,1,.53-.18,9,9,0,0,1,.89-.25,13.89,13.89,0,0,1,2.16-.33h.05l.81,0A14.47,14.47,0,0,1,830,58a13.23,13.23,0,0,1,2.37.58l.56.21a11.71,11.71,0,0,1,1.59.78,11.06,11.06,0,0,1,1.6,1.1,11.47,11.47,0,0,1,1.68,1.66h0a11.46,11.46,0,0,1,2.16,4,11.34,11.34,0,0,1-.52,8l-.09.18a13.13,13.13,0,0,1-.68,1.22,6.13,6.13,0,0,0-.51.94,4.69,4.69,0,0,0-.27.67c0,.11-.07.21-.1.31a5.11,5.11,0,0,0-.13.53,7.19,7.19,0,0,0-.13.81,1.5,1.5,0,0,0,0,.22,7.11,7.11,0,0,0,.35,2.81c.2.6.4,1.22.56,1.84a12.06,12.06,0,0,1,.46,2.88c0,.2,0,.39,0,.58S838.88,87.73,838.87,87.9Zm14.25-19.27a9.09,9.09,0,0,1-1.8,4.1c-.15.2-.31.38-.46.56a1.8,1.8,0,0,1-.19.2,2.76,2.76,0,0,1-.29.3,1.34,1.34,0,0,1-.25.23,7.35,7.35,0,0,1-2.63,1.66h0c-.22-1-.4-1.92-.54-2.88a.06.06,0,0,1,0,0c0-.27-.08-.54-.11-.81a.49.49,0,0,1,0-.12q-.12-1-.18-2c-.06-.8-.08-1.59-.07-2.39a130.07,130.07,0,0,0,0-.47c0-.28,0-.57,0-.85,0-.57-.06-1.14-.12-1.7a24.38,24.38,0,0,0-.4-2.54c-.11-.57-.25-1.13-.4-1.69a4.88,4.88,0,0,1,2.74-.23,5.21,5.21,0,0,1,1.08.31l.27.12a4.19,4.19,0,0,1,.59.32,4.75,4.75,0,0,1,.75.59,4.57,4.57,0,0,1,.43.45A8.5,8.5,0,0,1,853.12,68.63Z"/><rect class="cls-27" x="814.12" y="78.83" width="1.99" height="4.52" rx="0.99" transform="translate(402.66 788.82) rotate(-65.45)"/><rect class="cls-27" x="819.06" y="80.1" width="4.52" height="1.99" rx="0.99" transform="translate(40.56 348.61) rotate(-24.55)"/><path class="cls-27" d="M807.58,74.36h0A3.46,3.46,0,0,1,804,71V69.88a3.46,3.46,0,0,1,3.55-3.36h0a3.46,3.46,0,0,1,3.55,3.36V71A3.46,3.46,0,0,1,807.58,74.36Z"/><path class="cls-27" d="M807.58,66.52v3.92a1.78,1.78,0,0,0,3.55,0v-.56A3.46,3.46,0,0,0,807.58,66.52Z"/><ellipse class="cls-29" cx="807.58" cy="68.76" rx="1.18" ry="1.12"/><path class="cls-27" d="M828.85,74.36h0A3.45,3.45,0,0,1,825.31,71V69.88a3.46,3.46,0,0,1,3.54-3.36h0a3.46,3.46,0,0,1,3.55,3.36V71A3.46,3.46,0,0,1,828.85,74.36Z"/><path class="cls-27" d="M828.85,66.52v3.92a1.78,1.78,0,0,0,3.55,0v-.56A3.46,3.46,0,0,0,828.85,66.52Z"/><ellipse class="cls-29" cx="828.85" cy="68.76" rx="1.18" ry="1.12"/><path class="cls-26" d="M819.42,107c-.39,0-.79,0-1.2,0h-.32a35,35,0,0,1-4.14-.26A34.53,34.53,0,0,1,806,105c-10.68-3.82-18.12-12.5-18.12-22.61a20.15,20.15,0,0,1,.47-4.33,1.67,1.67,0,0,1,.06-.29,10.64,10.64,0,0,1-5.22-3.86c-4.17-5.29-2.79-13.77,2.37-15.76a6.42,6.42,0,0,1,5.58.24l.18.1a25.56,25.56,0,0,1,1.15-2.89q.46-1.05,1-2c3.75-6.87,10.06-12.56,17.29-15,.33-.68,2.5-4.64,6.86-5,.2,0,.39,0,.59,0L817,60.39s-3.6-1.24-5.54-.92c-2.53.39-3.77,1.49-4.93,6.87,0,.13-.05.25-.08.38-.46,2.15-.91,4.39-1.3,6.69-1.28,7.76-1.69,16.06,1.3,23.62a16,16,0,0,0,4.2,6.21A14.87,14.87,0,0,0,819.42,107Z"/><path class="cls-30" d="M885.56,195.7l-8.27,4L874.68,201s-9.46-21.27-11.11-33c-3.32-2.61-7.62-8-10.83-12.46.19,4.28.35,8.73.48,13.22.78,26,.54,53-.31,53.83-.26.26-2.25.46-5.43.6a2.64,2.64,0,0,1-.78,1.72c-.39.21-7.93,2.29-11.79,3.34a2.67,2.67,0,0,0-.11.34c4.41-.92,8.5-1.76,8.64-1.55s-1.07,2.19-1.65,2.46c-.38.18-5.6,1.64-9.52,2.74A30.27,30.27,0,0,1,817,233.8l-1.42.5c-.24-.54-.51-1.09-.79-1.69-1.3-2.75-2.84-6.16-4.43-9.92a172.16,172.16,0,0,1-7.65-21.75,75.19,75.19,0,0,1-1.77-8.42c0-.16-.05-.33-.07-.49-.08-.52-.13-1-.19-1.54s-.07-.71-.08-1.05a27.66,27.66,0,0,1-.1-3.72,18.16,18.16,0,0,1,.76-4.82c.12-.34.25-.68.39-1a7.75,7.75,0,0,1,4.71-4.59c14.58-5.14,19.43-30,20.37-45.2.09-1.53.16-2.94.18-4.23,0-2,0-3.73-.12-5a26.27,26.27,0,0,0-.42-3.1,71.27,71.27,0,0,0-2.09-7.79c-.18-.58-.36-1.16-.54-1.78s-.29-1-.44-1.49c-.24-.83-.48-1.71-.71-2.61-.4-1.51-.79-3.12-1.15-4.89A11.07,11.07,0,0,0,830,90.32,1.2,1.2,0,0,0,828.76,89H820c-.19-2-.34-4.22-.44-6.59,0-.48,0-1,0-1.47,0-1.66-.08-3.39-.06-5.22a48.8,48.8,0,0,1,2.71-16.29,39.78,39.78,0,0,1,11.26-16.77,33.66,33.66,0,0,1,9.55,10.92q.54,1,1,2a30,30,0,0,1,1.15,2.89,6.38,6.38,0,0,1,5.76-.34c5.14,2,6.54,10.47,2.37,15.76A10.73,10.73,0,0,1,848,77.76c0,.1,0,.2.06.29a20.15,20.15,0,0,1,.47,4.33c0,10.14-7.49,18.85-18.23,22.63l.83,6.81a59.07,59.07,0,0,1,6.57,2.68,62.31,62.31,0,0,1,10.49,6.39l.18.13c.06.06.13.11.19.18,6.46,6.37,27.76,38.76,29.15,41.55.65,1.3-.63,2.66-2.63,3.83a42.87,42.87,0,0,1,2.76,6.31Z"/><path class="cls-24" d="M793.4,155c-1.46,8-2.88,16.48-4.64,23.07a36.4,36.4,0,0,1-3.27,8.92,7.38,7.38,0,0,1-1.62,2c-3.3,2.61-6.65,2.52-9-.48-1.45-1.85-2.5-4.82-2.89-8.94-.67-6.94,5.87-44.44,13.92-57.32,1.7-2.74,3.47-4.37,5.25-4.37C800.33,117.82,796.83,136.28,793.4,155Z"/><path class="cls-24" d="M819.37,181.94l-2.4,8.11-.08.26-.21.72s-40.06,5.4-41.77-2.52c0,0,0,0,0-.06-1.29-6.09,0-9,3.32-10.21,2.45-.87,6-.77,10.54-.22C796.52,178.93,807,181.13,819.37,181.94Z"/><path class="cls-24" d="M821.42,217.65c7.19-3.25,9.56-9.36,11.67-11.09.53-.44,3.75-.29,2.14,2.87l-5.52,10.72Z"/><path class="cls-24" d="M837.7,216.17s-.23,1.37-.62,3.32c0,.18-.06.36-.11.55-.19,1-.44,2.16-.73,3.33a5.11,5.11,0,0,1-.13.53,4.64,4.64,0,0,1-.11.51c-.08.34-.18.69-.26,1-.26,1-.54,1.93-.83,2.79a2.67,2.67,0,0,0-.11.34c-.62,1.76-1.29,3.07-1.95,3.39a6.29,6.29,0,0,1-.58.26A30.27,30.27,0,0,1,817,233.8l-.1-1.15-.83-9.69-.13-1.62a48.79,48.79,0,0,1,5.45-3.7l.29-.16c.41-.18.81-.37,1.19-.58a3.86,3.86,0,0,1,2.59-.51c1,.38,3.52.38,6,.26,1.49-.08,3-.19,4.1-.29S837.7,216.17,837.7,216.17Z"/><path class="cls-24" d="M841.79,229.48c-.38.18-5.6,1.64-9.52,2.74-2.42.69-4.37,1.22-4.37,1.22l.81-3.58c1.85-.38,4-.85,6.09-1.29,4.41-.92,8.5-1.76,8.64-1.55S842.37,229.21,841.79,229.48Z"/><path class="cls-24" d="M834.05,220.62c6.11-1.19,15.24-3.14,15.65-2.84s-.1,2.19-.64,2.47-14,4-14,4Z"/><path class="cls-24" d="M831.28,217.23c6.1-1.18,15.24-3.14,15.64-2.84s-.1,2.19-.64,2.47-14,4-14,4Z"/><path class="cls-24" d="M847.48,223.17a2.64,2.64,0,0,1-.78,1.72c-.39.21-7.93,2.29-11.79,3.34l-2.25.62-.54-2-.42-1.57,4.3-.86,2.85-.57,2.55-.5c3.23-.64,5.74-1.08,6-.91S847.51,222.83,847.48,223.17Z"/><path class="cls-24" d="M817,233.8l-1.42.5c-6.91,2.43-36.93,12.55-39.9,6-6.44-14.08,5.73-12.67,26.31-16.06,2.66-.44,5.45-.95,8.37-1.6,1.82-.39,3.68-.85,5.58-1.35l.13,1.62.83,9.69Z"/><path class="cls-24" d="M840.25,189l-1.5.1c-1.91.09-5.45.29-9.14.5l-12.72.71-.67,0a2,2,0,0,1,0-.22,10.38,10.38,0,0,1,3.16-8.18c.47-.42,5.47-2.12,9.17-3.7,10.94-4.67,13.93,3.09,14.43,6.91C843.44,188.67,840.51,189,840.25,189Z"/><path class="cls-31" d="M831.7,180.78s3.71,1.21,3.51,8.5"/><path class="cls-31" d="M835.66,179.83s3.71,1.21,3.51,8.5"/><path class="cls-31" d="M828.46,182.07s1.34,1,1.15,7.52"/><path class="cls-31" d="M824.29,183.57a10.72,10.72,0,0,1,.53,6"/><path class="cls-26" d="M838.75,189.1c-1.91.09-5.45.29-9.14.5l-12.72.71-.21.72s-40.06,5.4-41.77-2.52c0,0,0,0,0-.06-1.45-1.85-2.5-4.82-2.89-8.94-.67-6.94,5.87-44.44,13.92-57.32-4.35,14.42-10.84,39.88-7.85,55.41,0,.22.09.43.14.64,1,4,3.6,6.78,7.27,8.7,7.7,4.05,20,4.17,30.72,3.18l.76-.07c2.79-.27,5.48-.61,7.93-1,1.69-.24,3.28-.5,4.72-.74,2.22-.41,4.12-.78,5.55-1.07,1.9-.41,3-.67,3-.67Z"/><path class="cls-32" d="M745.23,172a7.67,7.67,0,0,0-1.83-1,8,8,0,0,0-.95-.3,7.66,7.66,0,0,0-1.33-.21c-.3,0-.6,0-.9,0l-.4,0a7.31,7.31,0,0,0-3.42,1.26,6.69,6.69,0,0,0-2.51,3.17,6.82,6.82,0,0,0,.31,5.48,7.39,7.39,0,0,0,1.77,2.31,7.81,7.81,0,0,0,2.44,1.46,8,8,0,0,0,1,.3,7.13,7.13,0,0,0,1.76.22,7.78,7.78,0,0,0,1.61-.17,7.17,7.17,0,0,0,1.12-.32,4.4,4.4,0,0,0,.5-.21,5.46,5.46,0,0,0,.75-.41l.13-.07h0l0,0a6.62,6.62,0,0,0,.62-.46,7.82,7.82,0,0,0,.6-.55,6.62,6.62,0,0,0,1.42-2.26A7.12,7.12,0,0,0,745.23,172Zm.83,7.56a4.75,4.75,0,0,1-.83,1.39,5.32,5.32,0,0,1-4,1.8h-.07a6.41,6.41,0,0,1-1.29-.16l-.3-.08-.42-.14a5.7,5.7,0,0,1-3-2.6,1.28,1.28,0,0,1-.11-.2,4.88,4.88,0,0,1-.23-3.9,4.51,4.51,0,0,1,.54-1,5.09,5.09,0,0,1,3.12-2,3.5,3.5,0,0,1,.45-.07.85.85,0,0,1,.23,0,4.58,4.58,0,0,1,.53,0l.5,0a5.31,5.31,0,0,1,.86.14,6.59,6.59,0,0,1,.72.22,5.8,5.8,0,0,1,2.53,1.86A5,5,0,0,1,746.06,179.58Z"/><path class="cls-33" d="M739.53,182.51l.3.1h0a5.25,5.25,0,0,0,6.23-3,5.32,5.32,0,0,0-3.36-6.7,5.48,5.48,0,0,0-.72-.22,5.58,5.58,0,0,0-2.57,0c.12-.71.26-1.41.41-2.08a7.84,7.84,0,0,1,2.63.17,8,8,0,0,1,.95.3,7.3,7.3,0,0,1,4.52,9.25,7.18,7.18,0,0,1-7.71,4.41A16.21,16.21,0,0,1,739.53,182.51Z"/><rect class="cls-29" x="741.12" y="165.57" width="18.64" height="24.11"/><rect class="cls-34" x="741.12" y="165.57" width="4.11" height="24.11"/><polygon class="cls-34" points="751.44 177.82 754.03 180.48 753.81 184.01 748.96 184.01 748.51 180.48 751.44 177.82"/><line class="cls-35" x1="751.27" y1="165" x2="751.27" y2="178.54"/><path class="cls-36" d="M958,170.91s5.1,8.25-5.66,8.16-5.67,16.15-24.94,8.46"/><rect class="cls-37" x="900.87" y="169.57" width="42.5" height="15.58"/><rect class="cls-38" x="865.74" y="84.86" width="112.76" height="90.52" rx="4.25"/><rect class="cls-39" x="868.99" y="87.47" width="109.51" height="87.91" rx="4.13"/><rect class="cls-40" x="894.17" y="182.32" width="55.53" height="2.83"/><rect class="cls-38" x="874.41" y="185.16" width="96.24" height="4.75"/><rect class="cls-38" x="791.28" y="185.16" width="77.99" height="4.75"/><rect class="cls-27" x="712.36" y="196.83" width="294.38" height="119.15"/><rect class="cls-41" x="726.39" y="210.7" width="266.32" height="93.46"/><rect class="cls-41" x="712.36" y="196.47" width="294.38" height="6.13"/><rect class="cls-27" x="699.98" y="188.99" width="318.91" height="8.78"/><path class="cls-42" d="M846.58,57.85l-.06,0-.53.18-.22.07-.34.18-.32.17h0l-3,4.74a6.33,6.33,0,0,0-5-2.51H826.9a6.31,6.31,0,0,0-5.44,3.11,3.23,3.23,0,0,0-.59-.22,3.06,3.06,0,0,0-.41-.1,5.92,5.92,0,0,0-1.24-.1,12.91,12.91,0,0,0-5,.58,6.33,6.33,0,0,0-5.47-3.27H798.5a6.33,6.33,0,0,0-5.26,2.82l-1.93-5.06-.48-.25-.15-.08-.18-.06-.35-.13-.22-.08h0l2.79,7a3.91,3.91,0,0,0-.54,2.13v5.69a6.33,6.33,0,0,0,6.32,6.32h10.15A6.33,6.33,0,0,0,815,72.73V67a6.49,6.49,0,0,0-.2-1.6,11.7,11.7,0,0,1,4.41-.46,5.25,5.25,0,0,1,1,.07,2,2,0,0,1,.33.09,1.89,1.89,0,0,1,.33.13,6.06,6.06,0,0,0-.26,1.77v5.69a6.34,6.34,0,0,0,6.33,6.32H837l.52,0h0a6.34,6.34,0,0,0,5.8-6.3V67a6.4,6.4,0,0,0-.49-2.44ZM813.39,72.73a4.74,4.74,0,0,1-4.74,4.74H798.5a4.74,4.74,0,0,1-4.74-4.74V67a4.74,4.74,0,0,1,4.74-4.74h10.15a4.64,4.64,0,0,1,1.3.18l.3.1a2.76,2.76,0,0,1,.47.2,1.3,1.3,0,0,1,.26.14,2.69,2.69,0,0,1,.32.19l.36.27a2.68,2.68,0,0,1,.3.28,4.42,4.42,0,0,1,1,1.46,1.69,1.69,0,0,1,.11.27,1.93,1.93,0,0,1,.11.34,2.25,2.25,0,0,1,.09.35,1.17,1.17,0,0,1,0,.26,4,4,0,0,1,.06.7Zm28.4,0a4.74,4.74,0,0,1-3.86,4.65s0,0,0,0a4.31,4.31,0,0,1-.88.09H826.9a4.75,4.75,0,0,1-4.75-4.74V67a4.75,4.75,0,0,1,4.75-4.74H837l.44,0,.25,0,.09,0h0l.17,0,.34.08.28.09a4.56,4.56,0,0,1,1.45.82,2.44,2.44,0,0,1,.29.27,4.38,4.38,0,0,1,.83,1.08,2.69,2.69,0,0,1,.19.38,2.26,2.26,0,0,1,.15.39,2.77,2.77,0,0,1,.12.41,2.07,2.07,0,0,1,.08.42,4,4,0,0,1,.06.7Z"/><path class="cls-43" d="M808.65,62.3H798.5A4.74,4.74,0,0,0,793.76,67v5.69a4.74,4.74,0,0,0,4.74,4.74h.78a5.36,5.36,0,0,1,0-.7V71.08A4.75,4.75,0,0,1,804,66.34h9.36A4.74,4.74,0,0,0,808.65,62.3Z"/><path class="cls-44" d="M837.05,62.3H826.9A4.75,4.75,0,0,0,822.15,67v5.69a4.75,4.75,0,0,0,4.75,4.74h.78a5.36,5.36,0,0,1,0-.7V71.08a4.74,4.74,0,0,1,4.74-4.74h9.37A4.74,4.74,0,0,0,837.05,62.3Z"/><rect class="cls-27" x="764.98" y="226.38" width="189.15" height="60.05"/><text class="cls-45" transform="translate(781.66 265.23)"><tspan class="cls-46">A</tspan><tspan x="18.24" y="0">ccounting</tspan></text><path class="cls-38" d="M920.59,132.42s.17-2.32-2.81-4.88c-4.24-3.65-4.73-4.45-1.21-3.88a11.62,11.62,0,0,1,6.09,3.52Z"/><path class="cls-38" d="M926.13,133.77a8.11,8.11,0,0,0-1.75-1.39,21,21,0,0,0-1.94-1,7.07,7.07,0,0,0-1.73-.73l-.09.12-.09.12a2.83,2.83,0,0,1-.2.28l0,0-.09.12-.1.12-.22.26a9.72,9.72,0,0,1-.68.76l-.12.12c-.07.07-.13.14-.2.2l-.14.13-.15.14,0,0-.22.2-.05,0-.09.08-.09.07-.23.2-.34.26-.27.2,0,0-.23.16h0l-.37.25c-.27.17-.53.33-.81.48a12.94,12.94,0,0,1-1.54.76l-.69.27h0l-.36.12-.31.1-.43.13h0l-.1.05-.07,0,0,0,0,0a1.9,1.9,0,0,0-.74.87s0,0,0,0a1.73,1.73,0,0,0-.1.75,2,2,0,0,0,.07.43h0a1.48,1.48,0,0,0,.12.29,1.68,1.68,0,0,0,.8.71,5.46,5.46,0,0,0,2.13.39A15,15,0,0,0,926.33,134C926.27,133.92,926.2,133.85,926.13,133.77Z"/><path class="cls-38" d="M922.44,131.37a7.07,7.07,0,0,0-1.73-.73l-.09.12-.09.12a1.25,1.25,0,0,1-.09.12l-.11.16,0,0-.09.12-.1.12a1.27,1.27,0,0,0-.1.12,1.49,1.49,0,0,1-.12.14l-.2.24,0,0-.1.11-.22.24-.13.13-.12.12-.19.2-.14.13-.15.14,0,0-.22.2-.05,0-.09.08-.09.07-.23.2-.21.16-.13.1-.27.2,0,0-.23.16h0l-.18.12-.2.13-.28.17-.15.09-.37.22-.25.14-.38.2-.27.13-.39.18-.26.11-.45.18-.17.06-.07,0h0l-.35.12-.32.11-.42.12h0l-.11.05-.06,0,0,0,0,0a1.9,1.9,0,0,0-.74.87s0,0,0,0a1.73,1.73,0,0,0-.1.75,2,2,0,0,0,.07.43h0a15,15,0,0,0,4-.52l.54-.15a15,15,0,0,0,7.72-5.57l.19-.27C923.48,131.87,923,131.62,922.44,131.37Z"/><path class="cls-38" d="M926.72,133.45l-2.92-1-3.5-1.23,0,0,.11-.16.09-.12a1.25,1.25,0,0,0,.09-.12l.23-.31c0-.07.09-.14.14-.21s.18-.28.26-.43l.09-.14,0,0,.15-.26c.06-.09.1-.19.16-.28l.16-.32.14-.28.14-.29,0-.1a1.54,1.54,0,0,0,.08-.19v0l.12-.29,0-.06s0,0,0-.06.05-.14.08-.2l.06-.17.06-.17,0,0,0-.11a.42.42,0,0,0,0-.1c.07-.24.15-.48.22-.73l.09-.36c.05-.18.09-.35.13-.53V125a.08.08,0,0,1,0,0c0-.2.07-.41.11-.62l0-.21,0-.21c0-.07,0-.16,0-.25s0-.1,0-.15a2.48,2.48,0,0,0,0-.27,2.11,2.11,0,0,0,0-.25c0-.14,0-.29,0-.43s0-.15,0-.22v-.53c0-.21,0-.42,0-.63v0c0-.19,0-.39,0-.58h0a24.14,24.14,0,0,1-.2-4,1.76,1.76,0,0,1,.55-1.3l.13-.07h0l.14,0h0a2,2,0,0,1,1.28.26,5.18,5.18,0,0,1,1.46,1.26,15,15,0,0,1,0,16.75Z"/><path class="cls-38" d="M923.8,132.42a15,15,0,0,0,.68-16.52c-.08-.15-.18-.29-.27-.44l-.18-.27-.15,0h0a.33.33,0,0,0-.13.07,1.78,1.78,0,0,0-.55,1.3,25.31,25.31,0,0,0,.2,4h0c0,.19,0,.39,0,.58v0c0,.22,0,.42,0,.64v.74l0,.44a1.94,1.94,0,0,1,0,.24,2.28,2.28,0,0,0,0,.27c0,.06,0,.1,0,.16l0,.25c0,.08,0,.14,0,.21l0,.21c0,.2-.07.41-.11.61,0,0,0,0,0,.05v0c0,.18-.08.36-.13.53l-.09.37c-.07.24-.14.48-.22.72a.49.49,0,0,1,0,.11l0,.1,0,0-.06.16-.06.17-.08.2,0,.06,0,.06-.12.3h0l-.09.2,0,.09c0,.1-.1.2-.14.3l-.14.27-.16.33c-.06.09-.11.18-.16.27a3,3,0,0,1-.15.26l0,0-.09.14c-.08.15-.17.29-.26.43s-.1.14-.14.21l-.23.32a1.25,1.25,0,0,0-.09.12l-.09.12-.11.15,0,0Z"/><path class="cls-38" d="M920.3,131.19a16.18,16.18,0,0,1,4.39,2.43c2,2,2.73,2.57,1.58,8.5,0,.22-.07.43-.1.65-.11,1-.22,3.49,3.66-2.29,4.67-6.95-2-8.91-2-8.91A17.43,17.43,0,0,0,920.3,131.19Z"/><path class="cls-47" d="M1395,212.64V323.38h-57.46l.1,1.41-.46-1.41h-142l0,1.55h-94.39l.08-1.55H980.15l0,.21-73.69.83-44.72.51v-1.1H704l1.91-.45L724.32,319,737.5,316l9-2.08q16.17-3.73,32.85-7.47l10.11-2.27L808.3,300l9.45-2.07q21.94-4.77,44.53-9.53l3.64-.76,5.77-1.21,6.7-1.39,4.5-.93q8.65-1.78,17.39-3.55l3.63-.74,9.57-1.94q20.16-4,40.64-8,10.35-2,20.76-4l1.16-.22,7.23-1.35,9.44-1.76c4.67-.85,9.34-1.71,14-2.55q13.68-2.49,27.43-4.88,21.43-3.75,42.94-7.29l13.51-2.19q7.16-1.16,14.3-2.27l3.32-.52q9.93-1.55,19.84-3l8.36-1.25,9.81-1.43c.41-.07.81-.13,1.22-.18,2.19-.32,4.37-.64,6.56-.94q11.64-1.68,23.25-3.24l6.92-.93q4.74-.64,9.46-1.25,8.13-1.06,16.23-2.07,7.11-.9,14.19-1.74l4.25-.5,3.29-.39,8-.93q7.55-.87,15-1.67l5.55-.6q14-1.5,27.88-2.8,7.47-.72,14.88-1.36,8.55-.77,17-1.43,5.07-.42,10.11-.79,22-1.66,43.41-2.77c2.17-.12,4.32-.23,6.47-.32,1.82-.1,3.63-.18,5.44-.26l4.77-.2Z"/><path class="cls-15" d="M1290,323.38h-47.35l-.79-1.24-4.61-7.21-.25-.41L1227.68,300l-6.49-10.16-15.39-24.1-11.88-18.61-9.72-15.21-2.48-3.9-19.89-31.14-15.58-7.47-7.75-3.72-4.81-2.3-25.11-12-3.12-1.49-10.75-5.16-6-2.89-16.75-8-1.37-.66-1.75-.84-1.19-.58-2.53-1.21-5.72-2.74s2.1.26,5.75.75l4.09.56,1.08.15,1.9.26,1.3.19c3.67.52,7.92,1.15,12.57,1.86,7,1.08,15,2.37,23.34,3.82,9.91,1.76,20.27,3.75,30,5.93q3.46.78,6.8,1.59l.73.17c14.32,3.47,26.66,7.36,33.36,11.44,3,1.84,7.34,6.08,12.61,12.1,8.47,9.7,19.37,24,31.13,40.3q4.25,5.88,8.61,12.06c2.08,2.93,4.17,5.91,6.26,8.91,3.52,5,7,10.13,10.56,15.24l1.83,2.67c5.86,8.55,11.65,17.1,17.18,25.35q3,4.53,6,8.91c.35.52.69,1,1,1.55C1280.7,309.33,1285.57,316.7,1290,323.38Z"/><path class="cls-15" d="M1256.92,323.38h-30.67q-5-4.06-10.38-8.46-5.22-4.26-10.71-8.79l-.08-.07-7.33-6.06c-1-.83-2-1.66-3-2.51-12.27-10.2-25.08-21-37.49-31.75q-5.57-4.8-11-9.59-5.16-4.53-10.14-9l-3.22-2.89c-1.63-1.47-3.23-2.92-4.81-4.37-4.61-4.21-9-8.31-13.17-12.27-3.07-2.91-6-5.75-8.76-8.49-.65-.65-1.3-1.29-1.93-1.93-2.35-2.36-4.57-4.64-6.62-6.82s-3.8-4.07-5.46-6l-.2-.22.16,0q4,1.07,8.09,2.54,2.4.85,4.84,1.83l1.62.66c4.45,1.83,9,4,13.64,6.34q4.14,2.13,8.37,4.52c2.75,1.56,5.53,3.19,8.31,4.88q4.62,2.82,9.28,5.87,3.88,2.55,7.78,5.22l1.55,1.07,1.17.82q5.09,3.54,10.16,7.3c8.9,6.55,17.71,13.46,26.23,20.46l1.09.9c9.44,7.77,18.52,15.63,27,23.2,3.87,3.46,7.6,6.86,11.18,10.16q2.49,2.29,4.88,4.53,3.16,3,6.12,5.76l3.22,3.07C1250.34,317,1253.8,320.31,1256.92,323.38Z"/><path class="cls-15" d="M1296.4,323.38h-32.3q-2.58-6.63-5.29-13.64Q1257,305,1255.07,300c-2.52-6.63-5.1-13.47-7.7-20.45h0q-2.52-6.81-5.08-13.8l-1.55-4.26c-.68-1.87-1.36-3.74-2-5.63q-3-8.39-6-16.93-2.19-6.25-4.36-12.56-2.28-6.63-4.5-13.3-2.79-8.3-5.47-16.6-2.23-6.9-4.37-13.78c-3.4-10.87-6.62-21.66-9.6-32.22-.09-.34-.19-.68-.28-1-2.57-9.14-4.94-18.11-7.08-26.82-2.07-8.4-3.92-16.57-5.51-24.41-1.66-8.18-3-16-4.07-23.41q-1.12-7.92-1.72-15.13a85.22,85.22,0,0,1,5.29,7.12l.23.34c7.94,11.87,17.23,30.14,27.12,52.14q2.24,5,4.51,10.17c4.88,11.17,9.88,23.12,14.9,35.55q1.7,4.19,3.39,8.45c.32.78.63,1.57.94,2.36.68,1.69,1.36,3.4,2,5.11,4,10.19,8,20.59,12,31.07q2,5.39,4.07,10.79c5.41,14.43,10.72,28.89,15.8,43,3.46,9.6,6.83,19,10,28.15.73,2.05,1.44,4.09,2.16,6.11C1291.08,308.09,1293.81,315.91,1296.4,323.38Z"/><path class="cls-10" d="M1398.14,311.12l-2.85-22-.32-2.47v36.74h-57.46l.1,1.41-.46-1.41h-95.49l.16-1.24,1-8,.5-3.81,1.34-10.29,2.66-20.45h0l1.26-9.65.54-4.15.34-2.67.8-6.13,4.37-33.57,1.48-11.39,5.09-39.1,5.33-40.95,1-7.92,2.63-20.16h0l.31-2.36,1.08-8.36,4-31.07h0l8.07-62,1.16-8.9.15-6.66h108.19l.87,14.73.76,59.13s0,0,0,0l.09,6.79,0,1.68v0l.27,21.09h0l0,2,.13,9.92h0l.23,17.72h0l1.75,136.13Z"/><polygon class="cls-10" points="1289.66 83.02 1228.38 -8.9 1222.55 4.76 1289.66 125.58 1289.66 83.02"/><path class="cls-10" d="M1404.37,106.28l-8.72,11.34h0l-.36.46-.32.42L1378.3,140.2l-4.75-17.26L1395,100.37l.32-.34.13-.13h0l3.85-4Q1401.87,101.06,1404.37,106.28Z"/><polygon class="cls-10" points="1386.72 -15.56 1385.94 -13.91 1376.44 6.05 1373.55 12.14 1371.02 -1.8 1368.52 -15.56 1386.72 -15.56"/><path class="cls-48" d="M807.46,323.83H704l-7,1.66-6.61,1.57,1-3.23H453.1v-.45H-19V278.67l7-.36h.32l4.58-.24,2.68-.14,2.36-.12L0,277.7l5.4-.28,34.41-1.77,39.63-2,.31,0,4.24-.22,1.13-.06,13.21-.68,6.62-.34,10-.51h0l6.7-.35,7.5-.38,5.72-.3,9-.46,2.92-.15,1.08-.06,74.84-3.85,5.7-.29,12.78-.66L343.9,260l3.94-.2,12.06-.62,5.18-.27,15.34-.79,18.35-.94,3.81.62,23.86,3.89,2,.33,18.12,3L453.1,266l56.69,9.25,42.28,6.89,2,.33,8.43,1.37,73.54,12,13.55,2.21,3.23.52,1.74.29,6.82,1.11,3.22.52,6.61,1.08,12.65,2.07,28.52,4.65,10.89,1.77,23.3,3.81L759.33,316l21,3.42,24.41,4Z"/><polygon class="cls-47" points="305.58 323.38 -18.99 323.38 -18.99 297.13 -12 297.69 -11.68 297.72 -5.82 298.19 -5.77 298.19 -5.74 298.2 0 298.66 4.04 298.99 16.55 300 29.24 301.03 74.1 304.66 98.26 306.61 106 307.24 107.67 307.37 117.39 308.16 126.27 308.88 177.74 313.04 188.72 313.93 235.44 317.71 246.36 318.59 258.23 319.55 305.58 323.38"/><path class="cls-49" d="M1195.15,323.38l0,1.55H1125.8l.48-1.55a245.36,245.36,0,0,1,8.55-23.38q3.35-7.94,7.26-15.62l4.16,2.92,18.12,12.7L1193,320.06l2.13,1.49,2.61,1.83Z"/><path class="cls-49" d="M1335.85,323.38H1223.68l-9.28-8.65-9.24-8.6-.08-.07-6.5-6.06-3.87-3.61-32.91-30.65-5.74-5.35q5.13-7.75,10.85-15.11,5-6.37,10.37-12.43,2.17-2.44,4.44-4.83c3.75-4,7.66-7.85,11.71-11.57.9-.84,1.81-1.66,2.73-2.48l13.73,14.63,28.72,30.61,2.13,2.27,4,4.26,3.89,4.15,19.89,21.2,6.72,7.16-19.62-32.51-5.31-8.8-11.08-18.36L1231.62,226l-7.79-12.91-8.66-14.34c1.06-.76,2.12-1.52,3.19-2.26a231.48,231.48,0,0,1,21.76-13.41l.78-.43,1.1-.58c.71-.39,1.42-.76,2.14-1.13q8.33-4.33,17.11-8l2.35-1c.65-.27,1.31-.52,2-.78l4.81,10.43,1.38,3L1288.11,220,1309,265.21l.25.53L1325.06,300Z"/><path class="cls-49" d="M1395,323.38h-57.46l.1,1.41-.46-1.41L1329.53,300l-11.17-34.26-4.11-12.59L1303,218.61l-17.72-54.36q5.4-1.62,10.82-3c1.55-.38,3.09-.75,4.64-1.09a231.31,231.31,0,0,1,25.21-4.3q2.32-.27,4.65-.48a234.42,234.42,0,0,1,23.51-1,238.36,238.36,0,0,1,23.92,1.37l2,15.29,5.44,42,3.29,25.44,1.48,11.42,4.76,36.74Z"/><path class="cls-49" d="M171.85,199l-24.1,40.68h0L145.8,243l-16.61,28-6.26,10.56-4.27,7.22-2.21,3.73h0L112,300l-1.13,1.9-3.24,5.47-1.59,2.69-7.89,13.32H2.5L4,300,4,299,5.4,277.42l3.06-48.61v0L13,157.12q7.95-.85,16-1.17a229.69,229.69,0,0,1,41.59,2.18q6.75,1,13.48,2.36,3.58.73,7.16,1.59,3.15.76,6.3,1.63c1,.25,2,.52,3,.81l.83.24.51.15,1.72.5-1.56,4.79-1.71,5.25-3.08,9.45-8.63,26.46L84,225.13l-6.71,20.58-6,18.29,6.48-11.59L84,241.34l2.92-5.22.25-.45h0l12.3-22,3.55-6.35h0l8.89-15.9,10.79-19.3,1.92.76q6.36,2.61,12.48,5.54,5.26,2.53,10.35,5.3c.79.42,1.57.85,2.35,1.29q3.69,2.06,7.29,4.25Q164.7,193.87,171.85,199Z"/><path class="cls-49" d="M229.52,259.2l-1.17,1.21h0l-5.59,5.81L204.6,285.11,201,288.83l-8.55,8.9L190.28,300l-12.54,13-9.94,10.34H105.6l.84-1.09,11-14.13,5.32-6.87,1-1.29,1.27-1.64,5-6.48,2.36-3.05,11.29-14.57,3.19-4.12,1.07-1.38,42.48-54.84a231.6,231.6,0,0,1,37.91,43.46h0C228.71,258,229.12,258.59,229.52,259.2Z"/><path class="cls-49" d="M259.4,323.38H172.28l16.44-9.45L212.93,300l6.34-3.64,13.08-7.53,6.71-3.86,4.1-2.36q1.58,3.09,3.06,6.22t2.73,6q1.13,2.57,2.19,5.16,3.78,9.13,6.79,18.59l.3,1C258.64,320.82,259,322.1,259.4,323.38Z"/><path class="cls-49" d="M100.67,67.75c-.58.71-1.18,1.42-1.77,2.12s-1.08,1.25-1.63,1.87-.86,1-1.3,1.45h0A139,139,0,0,1,84.24,84.81C71.52,95.9,58.85,102,49.44,99.08c-25-7.83-8.19-77.41,21.39-114.64h64.06C138.65,7.54,121.7,42.39,100.67,67.75Z"/><path class="cls-49" d="M202.12,42c34.51,27.5-56,99-79.77,82.51S169.42,15.9,202.12,42Z"/><path class="cls-50" d="M200.72,45.07a325.71,325.71,0,0,0-44.05,39.82q-4.93,5.3-9.72,10.82c-8.14,9.38-16,19.23-23.47,29.44-5.77,7.82-11.35,15.86-16.74,24q-2.65,4-5.23,8.06-2.06,3.21-4.06,6.45-3.57,5.74-7,11.55C61.16,224.54,38,277.31,20.53,323.38"/><path class="cls-50" d="M106.19-15.56q-3,5-6,10h0C99.15-3.7,98.1-1.84,97.05,0l-.22.38Q93.35,6.44,90,12.54A800.44,800.44,0,0,0,49.44,99.08C41.79,118.21,35,137.24,28.92,156c-8.08,25-14.83,49.4-20.46,72.84v0C5.3,242,2.49,254.8,0,267.25q-1.08,5.33-2.06,10.55-2,10.41-3.68,20.4s0,.08,0,.12h0l-.12.71h0Q-8,311.57-9.71,323.38"/><path class="cls-49" d="M1395,66.81v0c0,.09,0,.18,0,.27-.41,5.21-1.75,9.46-4.17,12.25a10.17,10.17,0,0,1-4.72,3.12c-25.8,8.08-84.62-75.56-56.64-98h27.36A59.06,59.06,0,0,1,1371-1.8c1.89,2.46,3.7,5.09,5.42,7.85,10,16.06,17.12,36.48,18.44,52.25,0,0,0,0,0,0q.06.6.09,1.17A50.89,50.89,0,0,1,1395,66.81Z"/><path class="cls-49" d="M1274,100c-34.5,27.5,56,99,79.77,82.51S1306.74,74,1274,100Z"/><path class="cls-50" d="M1275.43,103.14c1,.75,2,1.52,3,2.29q5.67,4.33,11.19,9a355,355,0,0,1,35.84,35.14h0c1.71,1.93,3.41,3.87,5.09,5.84,7.64,8.89,15,18.19,22.08,27.81a616.59,616.59,0,0,1,36.06,55.25c2.12,3.62,4.19,7.26,6.24,10.91l.32.57,2.11,3.8q3.64,6.6,7.13,13.23"/><path class="cls-50" d="M1363.08,31.39q15,23.72,27.72,48,2.12,4,4.17,8c.1.19.2.37.29.56h0s0,0,0,0c1.35,2.62,2.67,5.24,4,7.86q2.6,5.22,5.1,10.44"/><ellipse class="cls-15" cx="546.53" cy="263.15" rx="11.08" ry="18.49" transform="translate(-44.39 126.2) rotate(-12.66)"/><ellipse class="cls-16" cx="518.81" cy="294.19" rx="11.08" ry="18.49" transform="translate(-77.59 298.82) rotate(-30)"/><path class="cls-17" d="M543.58,248.86a177.25,177.25,0,0,1,6.72,24.48c.52,2.43,1,4.92,1.51,7.45.08.46.17.92.26,1.38q.61,3.3,1.21,6.66c.07.46.15.91.23,1.37q.84,4.88,1.6,9.8c1.24,8,2.33,16,3.26,23.38l.06.45"/><path class="cls-17" d="M535.64,323.83l-.22-.45c-2.38-4.81-4.74-9.3-7-13.42-2-3.61-3.86-6.95-5.63-10-2.59-4.42-4.91-8.18-6.82-11.17-3.35-5.25-5.43-8.15-5.43-8.15"/><path class="cls-1" d="M1395-15.56V323.38h-57.46l.1,1.41-.46-1.41h-142l0,1.55h-94.39l.08-1.55H980.15l0,.21-73.69.83-44.72.51v-1.55H-12V-15.56H473.52l.09-.17,0,.17H1089.7l.33-2.65c.76.9,1.55,1.78,2.35,2.65Z"/><rect class="cls-1" x="-18.99" y="-15.56" width="1413.96" height="338.94"/></g></svg>